<svg id="Layer_1" data-name="Layer 1" xmlns="http://www.w3.org/2000/svg" width="51" height="62" viewBox="0 0 51 62"><defs><style>.cls-1{fill:#fff;}</style></defs><path class="cls-1" d="M50.284,22.9033c-.4414-.765-.8409-1.5583-1.328-2.295a4.2233,4.2233,0,0,1-.746-2.7423c.0669-.9333.0128-1.8757.0057-2.8144a4.5332,4.5332,0,0,0-2.3-4.09C44.8037,10.29,43.6774,9.639,42.55,8.9953a1.7648,1.7648,0,0,1-.6559-.6555C41.2536,7.2207,40.6059,6.1053,39.9424,5a4.4887,4.4887,0,0,0-4.0337-2.2972Q33.986,2.68,32.0628,2.6945a1.6624,1.6624,0,0,1-.8823-.2473Q29.5221,1.43,27.7889.543A5.0827,5.0827,0,0,0,25.4734,0h0a5.0723,5.0723,0,0,0-2.3576.5683q-.4881.256-.9591.5435A12.8,12.8,0,0,1,19.41,2.6047a12.7807,12.7807,0,0,1-3.1228.0892c-.361.0037-.7222.0051-1.0835.0023A4.5114,4.5114,0,0,0,11.0359,5.041q-.983,1.6533-1.9391,3.3222a1.706,1.706,0,0,1-.6346.6331c-1.0965.627-2.1817,1.275-3.2736,1.9085a4.53,4.53,0,0,0-2.3905,4.0907c-.0212,1.2992-.0212,2.5994-.0176,3.8983a1.52,1.52,0,0,1-.2055.7679Q1.6122,21.3226.672,22.9976a4.5967,4.5967,0,0,0,.0014,4.7883q.9422,1.674,1.9031,3.338a1.3551,1.3551,0,0,1,.2038.7117c-.0049,1.2812.0062,2.5627.0079,3.8439a4.5657,4.5657,0,0,0,2.3989,4.1961c1.0884.6365,2.1725,1.2795,3.2673,1.9045a1.74,1.74,0,0,1,.6444.6382C9.8046,43.6366,10.5,44.86,11.2462,46.052a4.09,4.09,0,0,0,2.7851,1.8954c.4922.0921.5451.2873.5437.7033-.0127,3.9521-.0079,8.0344-.0071,11.9866a2.3093,2.3093,0,0,0,.0207.5383c.0822.3344.1983.7415.576.7716a3.7257,3.7257,0,0,0,1.8133-.1417c2.69-1.1393,5.3915-2.2505,8.082-3.3889a1.0788,1.0788,0,0,1,.9226.01c2.542,1.0732,5.0951,2.12,7.6335,3.2016a3.9018,3.9018,0,0,0,1.7235.353c.7888-.0306,1.0879-.3011,1.097-1.1123.0088-.7933.0026-1.5884.0026-2.3823V48.5575c0-.2443-.0669-.4945.3181-.5576A4.5573,4.5573,0,0,0,40.08,45.5612c.6061-1.0653,1.2388-2.1153,1.8487-3.1787a1.53,1.53,0,0,1,.5632-.5652c1.11-.64,2.214-1.29,3.32-1.9357A4.5748,4.5748,0,0,0,48.21,35.7351c.0161-1.2813.0192-2.5628.0161-3.844a1.5488,1.5488,0,0,1,.2118-.7845c.6236-1.0691,1.2267-2.1505,1.8441-3.2235A4.68,4.68,0,0,0,50.284,22.9033ZM34.0041,58.54v.6092c-2.5981-1.0818-5.1-2.1069-7.5847-3.1694a2.1165,2.1165,0,0,0-1.8105-.0056c-2.3009.9942-4.6217,1.9422-6.9357,2.9064-.1983.0818-.3986.1535-.593.2266a.6836.6836,0,0,1-.077-.49c-.0032-3.2835.0076-6.698-.0134-9.9824-.0031-.4621.1417-.5256.5715-.5613a5.084,5.084,0,0,1,3.4567.9251c.68.4715,1.4311.84,2.155,1.2453a4.4559,4.4559,0,0,0,4.5922.0342c.9321-.5139,1.8787-1.0078,2.7715-1.5838a3.7713,3.7713,0,0,1,2.2876-.6151c1.1795.0437,1.1812.002,1.1812,1.1815Zm14.15-31.822c-.6978,1.1588-1.3387,2.3516-2.0224,3.5192a2.3957,2.3957,0,0,0-.3505,1.28c.0142,1.3883-.0113,2.7792-.0045,4.1687a2.2578,2.2578,0,0,1-1.23,2.1249c-1.2234.6953-2.427,1.4258-3.6482,2.125a2.1567,2.1567,0,0,0-.8318.8217c-.7084,1.2359-1.445,2.4573-2.155,3.6935a2.2584,2.2584,0,0,1-2.1358,1.2126c-1.4263-.0124-2.8526.0128-4.2783.0065a1.9709,1.9709,0,0,0-1.0282.2732c-1.2345.7131-2.4814,1.4039-3.7116,2.1249a2.295,2.295,0,0,1-2.5055.0023c-1.2138-.7128-2.4449-1.3954-3.6626-2.1012a2.1534,2.1534,0,0,0-1.13-.3c-1.4085.0085-2.8169-.0153-4.225-.0108a2.299,2.299,0,0,1-2.1709-1.254c-.6729-1.1942-1.392-2.3627-2.0666-3.5561A2.5946,2.5946,0,0,0,9.97,39.8473c-1.1773-.6675-2.3344-1.37-3.5111-2.0383a2.2665,2.2665,0,0,1-1.2361-2.1728c.0221-1.4073-.0088-2.8155,0-4.2217a2.0567,2.0567,0,0,0-.293-1.0766c-.7049-1.2183-1.3815-2.4525-2.102-3.6609A2.3312,2.3312,0,0,1,2.8409,24.08c.7137-1.1914,1.3775-2.4126,2.0751-3.6136a2.1476,2.1476,0,0,0,.3071-1.1285c-.0093-1.4073.0162-2.8155.0051-4.2231a2.2794,2.2794,0,0,1,1.2572-2.1635c1.21-.6823,2.3958-1.4079,3.6036-2.0938a2.243,2.243,0,0,0,.8662-.8628c.7018-1.22,1.4285-2.4253,2.125-3.6473A2.2767,2.2767,0,0,1,15.257,5.1138c1.3537.02,2.7086-.017,4.0627,0a2.5738,2.5738,0,0,0,1.3846-.3683c1.1988-.7024,2.4162-1.3725,3.6167-2.0714a2.1782,2.1782,0,0,1,2.357-.0026C27.9247,3.3963,29.19,4.095,30.44,4.8163a2.06,2.06,0,0,0,1.0767.2933c1.4263-.0074,2.8529.0136,4.2783.009a2.2694,2.2694,0,0,1,2.13,1.2274c.706,1.2376,1.4421,2.4588,2.1533,3.6938a2.0685,2.0685,0,0,0,.7933.7871c1.2365.7083,2.4568,1.4464,3.6944,2.1533a2.2141,2.2141,0,0,1,1.214,2.1287c-.0178.7035-.0034,1.4076-.0034,2.1114a6.57,6.57,0,0,0,1.3546,5.0758c.3859.5639.667,1.1982,1.03,1.78A2.33,2.33,0,0,1,48.1539,26.7181Z"/><path class="cls-1" d="M44.2765,25.56A18.4574,18.4574,0,0,1,31.3754,43.2646a1.2152,1.2152,0,1,1-.7463-2.3038A17.1059,17.1059,0,0,0,36.3048,37.77a15.3978,15.3978,0,0,0,5.4929-12.66A15.7756,15.7756,0,0,0,34.203,11.4675,16.25,16.25,0,0,0,9.4609,22.5531a15.7684,15.7684,0,0,0,3.7425,13.76,16.4434,16.4434,0,0,0,6.7319,4.492c.1853.07.3755.1286.5574.2071a1.2046,1.2046,0,0,1,.7555,1.527q-.01.0288-.0209.0571a1.2223,1.2223,0,0,1-1.57.68,17.3081,17.3081,0,0,1-5.62-2.962A18.1973,18.1973,0,0,1,6.6828,25.0084a18.799,18.799,0,0,1,37.5937.5517Z"/><path class="cls-1" d="M25.52,44.2a1.1839,1.1839,0,0,1-1.2234-1.1428l-.0006-.0277a1.2064,1.2064,0,1,1,2.4117-.0739l.0006.0365a1.1863,1.1863,0,0,1-1.1646,1.2077Z"/><path class="cls-1" d="M32.9878,19.7153c-1.3906-.0094-2.7817-.0193-4.1717.0082-.4058.0082-.5528-.1281-.6562-.5072q-.54-1.9833-1.1535-3.9465a3.285,3.285,0,0,0-3.3042-2.4528q-.9209-.0068-1.8416,0c-1.1169.0057-1.5481.431-1.55,1.5345-.0026,1.57-.0221,3.1413.0116,4.711.011.5049-.0915.6879-.6378.665-1.1177-.0468-2.2383-.0173-3.3589-.0128-.9993.0043-1.45.4533-1.4509,1.4606q-.0048,6.0111,0,12.0222c0,1.0444.4363,1.4751,1.4852,1.4759q4.1724.0037,8.3441,0c2.7452,0,5.49.0048,8.2359-.002a3.6031,3.6031,0,0,0,3.7932-3.4024q.0084-.156.0034-.3123.0364-3.7635,0-7.5273a3.613,3.613,0,0,0-3.5078-3.7152Q33.1082,19.7107,32.9878,19.7153Zm-13.16,12.5419c-.702-.0269-1.4061-.0159-2.1088-.004-.2776.0045-.4284-.0425-.427-.3785q.0159-4.6751,0-9.35c0-.3117.1086-.4021.4092-.3947.7208.0178,1.4424.0238,2.1629-.0017.3613-.0128.4562.1088.4519.461-.0181,1.53-.0076,3.0631-.0076,4.5945s-.0125,3.0633.0088,4.5944C20.3238,32.1631,20.2017,32.2713,19.8282,32.2572Zm14.4782-1.4733c-.0019,1.0392-.4357,1.4619-1.494,1.4628-3.1755.0028-6.3514-.0088-9.5272.0122-.4636.0031-.5627-.1417-.56-.5783.02-2.6511.01-5.3022.01-7.9534s.01-5.3025-.01-7.9536c-.0034-.4369.1326-.5437.55-.5355,1.0965.0209,1.215.0887,1.5187,1.1254.4564,1.5563.91,3.1135,1.37,4.6684a1.275,1.275,0,0,0,1.42,1.1115q.035-.0044.07-.0105c1.7323.0034,3.4646,0,5.1969.0023,1.0044.0023,1.4535.4471,1.4557,1.4526q.0072,3.5992,0,7.1972Z"/></svg>