<svg id="Layer_1" data-name="Layer 1" xmlns="http://www.w3.org/2000/svg" width="51" height="51" viewBox="0 0 51 51"><defs><style>.cls-1{fill:#fff;}</style></defs><path class="cls-1" d="M23.971,51.0767a1.4672,1.4672,0,0,1-.7943-.6113.9454.9454,0,0,1-.1432-.476c.0028-.485-.0023-.97.0034-1.4551.0014-.1186-.0264-.1537-.1543-.1654a20.36,20.36,0,0,1-2.79-.4768,21.4472,21.4472,0,0,1-3.6387-1.203,21.208,21.208,0,0,1-3.134-1.6548c-.5231-.34-1.0439-.6791-1.5318-1.0677-.1418-.1134-.2351-.1083-.3724.0324-.7375.7559-1.517,1.475-2.229,2.2536a1.2934,1.2934,0,0,1-1.7019.1622,3.9882,3.9882,0,0,1-.8677-.7068c-.5437-.5463-1.098-1.0827-1.6313-1.6395a3.5048,3.5048,0,0,1-.5936-.7866,1.3566,1.3566,0,0,1,.2635-1.6835c.7692-.6969,1.4764-1.4625,2.2153-2.1935.1339-.1325.1753-.2014.0338-.3931a20.9472,20.9472,0,0,1-1.475-2.34,22.1452,22.1452,0,0,1-1.7428-4.0786,19.5441,19.5441,0,0,1-.72-3.0068c-.0624-.4254-.1515-.8475-.1966-1.2747-.0173-.1707-.0933-.1614-.2113-.1605-.4255.0034-.851.0192-1.2731-.0029A1.2075,1.2075,0,0,1,.0312,27.22a.7476.7476,0,0,1-.0227-.2536C.0062,26.0911.03,25.2149,0,24.3415a1.127,1.127,0,0,1,1.1258-1.1244c.45-.0139.9023-.0247,1.3508.0057.26.0176.3165-.1135.3367-.3069a21.1835,21.1835,0,0,1,.9877-4.47,21.4921,21.4921,0,0,1,1.45-3.4144,19.1183,19.1183,0,0,1,1.656-2.6433c.1293-.17.1188-.2837-.0451-.4439-.752-.73-1.4543-1.5148-2.2389-2.2066a1.3644,1.3644,0,0,1-.1648-1.7558,2.8162,2.8162,0,0,1,.4805-.5934q.9821-.9643,1.9484-1.947A2.2979,2.2979,0,0,1,8.216,4.72a1.0344,1.0344,0,0,1,.8938.33c.7681.7752,1.5473,1.54,2.3092,2.3211.1419.145.2386.1376.3725.0284A14.2656,14.2656,0,0,1,13.5147,6.21a22.6808,22.6808,0,0,1,2.9471-1.5189c.7185-.3,1.4427-.58,2.1841-.81a20.6733,20.6733,0,0,1,2.86-.6861c.4678-.0741.9344-.1535,1.4055-.1952.1637-.0145.1212-.1112.1214-.1952.0026-.5454.0043-1.0912,0-1.6369A1.2808,1.2808,0,0,1,24.2365-.0666c.8915-.0215,1.7841-.0056,2.6765-.0051a1.0948,1.0948,0,0,1,.8981.6754,1.5481,1.5481,0,0,1,.1134.6436c-.013.5177-.0017,1.0379-.0037,1.559,0,.1083-.01.1778.1507.1951a21.8359,21.8359,0,0,1,2.3693.3889,23.04,23.04,0,0,1,2.7977.8013,21.981,21.981,0,0,1,3.6393,1.692c.6767.3929,1.3277.8212,1.9626,1.2765.1361.0973.1985.0851.3094-.0258.6623-.6726,1.3386-1.3332,1.9981-2.0075A1.1445,1.1445,0,0,1,42.5732,4.84a2.2385,2.2385,0,0,1,.7982.5256C44.0732,6.0845,44.79,6.79,45.4988,7.5a1.8692,1.8692,0,0,1,.6184,1.5751.7753.7753,0,0,1-.2491.4836c-.7051.7038-1.4049,1.4126-2.1174,2.1087-.1109.1084-.1055.1767-.0261.2817A21.1865,21.1865,0,0,1,45.2223,14.19a23.7087,23.7087,0,0,1,1.26,2.5169A21.9459,21.9459,0,0,1,47.99,21.8788a10.6924,10.6924,0,0,1,.1518,1.1315c.0085.1563.0851.2133.2462.21.4414-.0105.8844-.0239,1.3249.0014a1.2546,1.2546,0,0,1,1.22.8844c.0283.0851-.0474.1957.0669.2553v2.651a1.4835,1.4835,0,0,1-.3741.7679,1.1367,1.1367,0,0,1-.7971.327c-.4675-.0125-.9361.0131-1.403-.0105-.2147-.0108-.2706.0942-.2819.2553a14.32,14.32,0,0,1-.2076,1.4563,21.7911,21.7911,0,0,1-.6839,2.7826,14.1945,14.1945,0,0,1-.7789,2.06,1.6973,1.6973,0,0,1-1.7159.9273,1.7406,1.7406,0,0,1-1.6-1.3352,2.173,2.173,0,0,1,.2156-1.4937,17.11,17.11,0,0,0,1.03-3.59c.1152-.6691.2046-1.3383.2638-2.0139a20.921,20.921,0,0,0,.0284-2.613,16.82,16.82,0,0,0-.3815-2.7875,18.435,18.435,0,0,0-2.2525-5.8064,20.2278,20.2278,0,0,0-1.46-2.1461,19.7082,19.7082,0,0,0-1.9-2.0644,18.6849,18.6849,0,0,0-3.4949-2.6434,19.1326,19.1326,0,0,0-6.6781-2.4008c-.6453-.1027-1.2946-.1612-1.947-.2179a13.5269,13.5269,0,0,0-1.9887-.0284,20.0386,20.0386,0,0,0-3.6574.539,18.9615,18.9615,0,0,0-7.44,3.65A19.1924,19.1924,0,0,0,9.85,14.44a19.5459,19.5459,0,0,0-1.6593,2.7583,19.2294,19.2294,0,0,0-1.5181,4.2959c-.1543.6808-.2485,1.378-.3353,2.0752a21.472,21.472,0,0,0-.0769,3.3812,15.9251,15.9251,0,0,0,.4255,2.931,19.5535,19.5535,0,0,0,.8657,2.8291,19.1042,19.1042,0,0,0,1.5944,3.1579,18.741,18.741,0,0,0,1.6044,2.206,20.7814,20.7814,0,0,0,2.0553,2.08,19.2116,19.2116,0,0,0,8.3394,4.28q.8371.1932,1.69.3089a17.7487,17.7487,0,0,0,3.1486.1909,21.3452,21.3452,0,0,0,2.76-.29,20.622,20.622,0,0,0,3.0893-.7943c.2689-.0913.5287-.21.7974-.3015a1.7975,1.7975,0,0,1,2.0777,2.8082,3.1044,3.1044,0,0,1-1.4937.8161,20.607,20.607,0,0,1-2.8178.818,14.4418,14.4418,0,0,1-2.0227.33,2.1583,2.1583,0,0,1-.3773.0593c-.1135-.0105-.0718.0967-.0723.1549-.004.3378-.0239.6773.0025,1.0132a1.3353,1.3353,0,0,1-.94,1.53Z"/><path class="cls-1" d="M24.5726,14.3254h1.04a9.4179,9.4179,0,0,1,3.2855.6462,10.0229,10.0229,0,0,1,2.6006,1.46,11.2459,11.2459,0,0,1,1.9135,1.8906,11.4368,11.4368,0,0,1,1.4543,2.3543,10.3961,10.3961,0,0,1,.8566,2.8541,10.7631,10.7631,0,0,1,.1495,1.9379A10.8849,10.8849,0,0,1,35.05,29.38a7.8626,7.8626,0,0,1-.4232.8832c-.0919.1589-.0584.2516.0681.3782q5.382,5.3689,10.75,10.75A3.3056,3.3056,0,0,1,46.383,43.33a3.0671,3.0671,0,0,1-.5254,2.257A2.9871,2.9871,0,0,1,43.4818,46.92a3.4233,3.4233,0,0,1-2.76-1.1062q-4.8071-4.8222-9.6323-9.6275a10.059,10.059,0,0,1-.9584-.9361c-.2131-.2788-.364-.2507-.6471-.1256a10.2056,10.2056,0,0,1-2.723.7786,10.751,10.751,0,0,1-2.1328.0851,10.5512,10.5512,0,0,1-2.5035-.4638A12.1246,12.1246,0,0,1,15.2841,30.08a11.1672,11.1672,0,0,1-1.2348-3.2762,7.5786,7.5786,0,0,1-.1055-1.9742,1.7676,1.7676,0,0,1,1.2943-1.4055,1.8055,1.8055,0,0,1,2.2085,1.2815l.0114.0454a3.5849,3.5849,0,0,1,.0655.7123,5.9367,5.9367,0,0,0,.6635,2.4079,8.1457,8.1457,0,0,0,1.8208,2.3711,9.1008,9.1008,0,0,0,1.5757,1.1391,7.992,7.992,0,0,0,2.68.9622,6.1885,6.1885,0,0,0,1.8174.0284,6.7741,6.7741,0,0,0,2.3622-.7415,7.469,7.469,0,0,0,3.1906-3.4254,6.5237,6.5237,0,0,0,.5539-1.8721,6.6392,6.6392,0,0,0,.0973-.9644,7.7037,7.7037,0,0,0-2.3291-5.4919,6.7613,6.7613,0,0,0-3.6591-1.9027A20.8705,20.8705,0,0,0,23.4,17.91a2.1975,2.1975,0,0,1-.6212-.1023,1.7992,1.7992,0,0,1-1.1264-2.43,1.7235,1.7235,0,0,1,1.57-1.0538Z"/></svg>