<svg id="Layer_1" data-name="Layer 1" xmlns="http://www.w3.org/2000/svg" width="51" height="51" viewBox="0 0 51 51"><defs><style>.cls-1{fill:#fff;}</style></defs><path class="cls-1" d="M50.7039,22.3087a24.22,24.22,0,0,0-17.8562-20.82A23.8394,23.8394,0,0,0,6.2941,9.379,23.4252,23.4252,0,0,0,2.8193,36.4965a22.55,22.55,0,0,1,2.47,11.6948,13.0884,13.0884,0,0,1-.0141,1.3522C5.08,50.7861,5.652,51.0093,6.7855,51c6.2622-.0527,12.5245-.0252,18.7881-.0252,6.3189,0,12.6379-.0249,18.9568.0232,1.0937.0085,1.4562-.2672,1.41-1.4026-.0933-2.3094.0144-4.6264-.0456-6.9381a5.1366,5.1366,0,0,1,.9124-3.1274A23.7706,23.7706,0,0,0,50.7039,22.3087ZM5.2247,36.1313c-3.5865-4.952-3.6086-15.4378.0009-20.85ZM43.6313,18.5185c.0476.9535-.3684,1.1005-1.1941,1.09-3.0917-.0394-6.184-.0159-9.2763-.0159l-.12-.3077,10.5713-5.3921C43.6126,15.6072,43.5587,17.0665,43.6313,18.5185Zm-1.055-8.1676c-1.4216.3012-29.4141.4268-34.0539.1417a22.8139,22.8139,0,0,1,34.0539-.1417ZM7.5874,13.8983l10.5432,5.3734-.0283.317q-4.9611,0-9.9221-.0022c-.6994,0-.5852-.5441-.5886-.97C7.58,17.1589,7.5874,15.7013,7.5874,13.8983ZM8.63,48.7444c-.8017.0213-1.0958-.22-1.0587-1.04.0567-1.2691.0153-2.5428.0153-4.1773a45.2994,45.2994,0,0,0,6.776,5.2011C12.4512,48.728,10.5394,48.6937,8.63,48.7444Zm12.6744-.4233a.5049.5049,0,0,1-.1006-.0184c-.7215-.208-5.0892-.8529-4.3114-2.1431,1.688-2.8222,3.3581-5.6547,5.0351-8.4835l.2881.0737C22.2654,37.7628,23.0761,48.4534,21.304,48.3211Zm.92-16.5156a2.9471,2.9471,0,0,1-.406,1.5959c-2.2669,3.8182-4.5457,7.63-6.7511,11.4834-.5081.8875-.9657.9178-1.6795.3607a9.5886,9.5886,0,0,0-.8418-.5613c-3.4508-2.1518-5.8372-4.8225-4.9968-9.33a23.3949,23.3949,0,0,0,.0394-4.2178c0-2.6477.0332-5.2963-.0179-7.9428-.0181-.9476.1108-1.4168,1.255-1.3978,4.0552.0708,8.1126.0529,12.1681.0087.9336-.01,1.2666.2239,1.2448,1.214-.0649,2.9282-.0337,5.8584-.0142,8.7878ZM23.36,19.385,10.6578,12.9278h13.18a4.1261,4.1261,0,0,0-.478,6.4575Zm3.3541,28.3076c.0221.8376-.3063,1.0527-1.0889,1.0363-.7166-.0156-1.1513-.0768-1.142-.98q.0588-5.7536,0-11.5081c-.0082-.8455.318-1.0084,1.0879-1.0325.8951-.0284,1.1722.2587,1.1453,1.1462-.0584,1.916-.0178,3.8355-.0178,5.7536,0,1.8614-.0335,3.7242.0155,5.5844Zm.4-34.7506h13.39L27.6243,19.49a4.9488,4.9488,0,0,0,1.5449-3.3932A3.6581,3.6581,0,0,0,27.114,12.942Zm6.6289,34.3023c-4.4771,1.9439-4.7571,1.7733-4.7571-3.0345V37.8017l.295-.1077c1.6517,2.7891,3.287,5.5876,4.9656,8.3614C34.68,46.7725,34.3657,46.9749,33.7429,47.2443Zm.1133-6.2758c-.1048-.1289-.1465-.3092-.251-.4384A22.4108,22.4108,0,0,1,28.943,23.2058c.1174-1.0657.29-1.4278,1.4095-1.4089,3.9421.0669,7.8876.0785,11.8294-.0045,1.2513-.0263,1.4851.4251,1.4528,1.5466-.0751,2.589-.0241,5.1821-.0241,7.7734,0,2.31-.11,4.6264.0377,6.9267a4.44,4.44,0,0,1-1.5928,3.84c-1.4967,1.3808-3.047,3.4593-4.8126,3.4783-1.9583.0209-2.1841-2.9076-3.3878-4.3879Zm5.5284,7.7589H36.8573a43.9645,43.9645,0,0,0,6.5141-5.0058c.1341.2491.2182.3352.2242.4251.2916,4.5816.2907,4.5816-4.2122,4.5816Zm6.634-33.2664a21.3653,21.3653,0,0,1,0,20.577Z"/></svg>