<svg id="Layer_1" data-name="Layer 1" xmlns="http://www.w3.org/2000/svg" width="73" height="73" viewBox="0 0 73 73"><defs><style>.cls-1{fill:#221d1d;}.cls-2{fill:#231e1e;}</style></defs><path class="cls-1" d="M66.8313,29.0378c-.8912-.3574-1.633-.6752-2.3889-.95-.3433-.1246-.3826-.2688-.2655-.6048.6577-1.8836.6486-1.8872,2.5144-1.14,1.64.6571,3.2737,1.3306,4.9241,1.9613.4463.17.49.35.3172.7712q-1.2654,3.0861-2.47,6.1969c-.1512.3931-.3172.4536-.7076.3054-1.7769-.68-1.7814-.6683-1.0838-2.4258.25-.6287.5-1.2573.8-2.0133-1.6906.5095-3.2743.9827-4.8555,1.4645q-9.9962,3.0453-19.986,6.1113c-.6012.186-.7635.0272-.9169-.5141-.4608-1.625-.4814-1.6217,1.1643-2.1234q11.2626-3.4351,22.5255-6.8685C66.4929,29.1833,66.5788,29.14,66.8313,29.0378Z"/><path class="cls-1" d="M25.8649,31.4137c.02.39-.3507.3257-.5769.3977q-5.982,1.9076-11.9693,3.7965c-1.2985.411-2.6027.8038-3.8933,1.2377-.38.1282-.5534.1119-.698-.3151-.6235-1.8446-.6374-1.8376,1.2175-2.4215,4.883-1.5374,9.7691-3.0651,14.6427-4.6318.5443-.1754.7046-.039.82.4491S25.7016,30.8921,25.8649,31.4137Z"/><path class="cls-1" d="M60.7616,21.7072c.079.1642-.0985.202-.2379.2462q-4.3681,1.391-8.7365,2.7772c-.2053.0653-.3453.0583-.3931-.1845a.9091.9091,0,0,0-.04-.1467c-.7015-1.8636-.7046-1.873,1.1842-2.475,2.31-.7364,4.63-1.4415,6.9347-2.1933.4633-.1512.6813-.1352.79.3952A15.5467,15.5467,0,0,0,60.7616,21.7072Z"/><path class="cls-1" d="M10.3849,9.8516c-.17.0273-.2894.0227-.3327-.1385a1.0694,1.0694,0,0,0-.0423-.1457c-.828-1.8945-.8283-1.8951,1.1016-2.5059C13.2,6.4,15.2951,5.7566,17.3753,5.0672c.42-.1388.5657-.0466.6994.3432.6123,1.7841.6232,1.7893-1.1739,2.3653-2.0614.6614-4.13,1.3073-6.1951,1.9622C10.5856,9.7757,10.4683,9.822,10.3849,9.8516Z"/><path class="cls-2" d="M7.6068,10.4549c.0583.24-.0944.2949-.2816.3523-.9879.3039-1.9752.6093-2.9564.9344-.24.0795-.3838.0835-.4306-.2017a1.3819,1.3819,0,0,0-.08-.2117C3.2439,9.5329,3.2439,9.5326,5.0561,8.97A8.9038,8.9038,0,0,0,6.28,8.5813c.5842-.2806.778-.0342.899.5014C7.2838,9.548,7.461,9.998,7.6068,10.4549Z"/><path class="cls-2" d="M48.053,23.3489c.2353-.0907.2873.0136.3266.1476.0284.0968.0728.1887.1052.2843.612,1.8089.6117,1.8092-1.1923,2.3728-.072.0227-.1482.03-.22.0545-1.7841.5615-2.0236.4067-2.3248-1.4923-.0248-.1561-.071-.3.1322-.3629Z"/><path class="cls-2" d="M6.3884,37.5079c.0369.296-.1406.3344-.3138.3888q-1.4409.4536-2.88.9121c-.2474.0789-.4445.0777-.4944-.2447a1.4033,1.4033,0,0,0-.0781-.2117c-.5845-1.7436-.5842-1.7436,1.1833-2.2915.1681-.0523.3351-.1095.505-.1548.4729-.1261,1.1651-.5818,1.372-.3127A6.4135,6.4135,0,0,1,6.3884,37.5079Z"/><path class="cls-2" d="M51.4346,3.7911c.0251.2029-.0734.2864-.2461.3287-.0974.0239-.1893.0686-.2849.1007-1.9573.658-1.9459.655-2.4684-1.3447-.0862-.3294-.0481-.4639.2825-.5217.1717-.03.3326-.1173.504-.1581.5056-.121,1.2072-.6323,1.4549-.3469A6.0323,6.0323,0,0,1,51.4346,3.7911Z"/><path class="cls-2" d="M68.3735,4.815c.1131.3629.0553.4726-.1313.5192-.1209.03-.237.0838-.3568.121-1.9776.6374-1.9674.635-2.434-1.4086-.071-.3111-.0051-.41.2773-.4611.1718-.03.3348-.108.5041-.1558.5032-.1427,1.1679-.6253,1.4681-.37C68.2132,3.496,68.1739,4.3472,68.3735,4.815Z"/><path class="cls-2" d="M67.5546,17.6836c-.244.0774-.283-.0792-.3629-.26-.8467-1.8909-.824-1.9018,1.1434-2.5531.5406-.1788.7206-.0977.8817.45.4957,1.6792.52,1.6716-1.1575,2.2008C67.89,17.5738,67.7224,17.6292,67.5546,17.6836Z"/><path class="cls-1" d="M72.3484,60.8849c-1.57.0414-3.1418-.0127-4.7119.0287-.5836.0155-.75-.1285-.7463-.7354.0275-4.8987.0164-9.7993.0151-14.699a3.69,3.69,0,0,0-4.1043-4.0768H36.5769c-8.7159,0-17.4326.0589-26.1476-.0351a4.0217,4.0217,0,0,0-4.3665,4.34c.1149,4.8462.0232,9.6969.0465,14.5451.0024.5413-.1388.6722-.667.66-1.5955-.0375-3.193.0127-4.7881-.0281-.55-.0142-.6629.1564-.6523.6756.0342,1.7.0112,3.4013.0133,5.1022a3.6678,3.6678,0,0,0,3.9683,3.9853c3.3953.0027,6.7905.01,10.1855-.0109a.88.88,0,0,1,.9187.55,3.6079,3.6079,0,0,0,6.3306.02.8878.8878,0,0,1,.905-.5715q13.5678.0254,27.1358,0a.89.89,0,0,1,.9057.57,3.6082,3.6082,0,0,0,6.3309-.0176.8769.8769,0,0,1,.9177-.5518q5.815.03,11.63.0078a3.6366,3.6366,0,0,0,3.741-3.5291q.0031-.1113,0-.2226c.0127-1.7769-.0175-3.5544.0158-5.3309C73.0088,61.0449,72.9009,60.87,72.3484,60.8849ZM52.2974,44.4372c-.0088-.5253.17-.61.6389-.6087,1.8071.0075,1.8071-.0085,1.8071,1.7826,0,1.9465,0,1.9277,1.9235,1.8978.4672-.0073.5283-.18.5171-.5746-.0251-.8872.004-1.7756-.0142-2.6631-.0063-.3194.072-.4415.4176-.4388,1.8733.016,3.7467-.0045,5.62.0142A1.176,1.176,0,0,1,64.4653,45.08c.0221,1.8769-.0087,3.7545.0191,5.6308.0072.4838-.2474.4448-.5646.4439-1.8482-.0057-3.6961-.0027-5.544-.0027-1.7978,0-3.5952-.0178-5.3923.0115-.4962.0079-.6982-.0677-.6873-.6381C52.3361,48.4956,52.3315,46.4656,52.2974,44.4372Zm4.8727,9.68c-.0081-.3526.0248-.5443.4712-.54,2.1258.0245,4.2519.02,6.378.003.3714-.003.4639.114.4615.4724-.0152,2.13-.0218,4.26.0033,6.39.0057.4612-.2117.4633-.5485.4615-1.8477-.01-3.6956-.0049-5.5432-.0049s-3.6952-.0127-5.5426.01c-.4233.0052-.5533-.1061-.5485-.5419q.0336-3.1188,0-6.2383c-.0042-.4219.1031-.5471.5386-.5528,1.905-.0257,1.9029-.0417,1.9029,1.8391,0,1.8528,0,1.8319,1.8262,1.8419.5035.0027.6413-.1385.6175-.63C57.1468,55.7923,57.1886,54.9538,57.17,54.1174ZM38.3135,43.83c1.8359-.0049,1.8359-.0176,1.8359,1.8282,0,.0252-.0019.0509,0,.076.0438.5724-.2544,1.4439.1209,1.65.5286.29,1.3206.0883,1.9994.114.3732.0139.31-.24.31-.4581.0024-.9129.0169-1.8265-.0067-2.7388-.0093-.3629.0968-.4726.4645-.47q3.1887.0251,6.3781,0c.3592-.0024.4732.0928.4705.4636-.0166,2.13-.0218,4.26.0027,6.39.0052.4488-.19.4733-.54.4709C47.476,51.1437,45.603,51.15,43.73,51.15c-1.8222,0-3.6447-.0118-5.467.0088-.4112.0045-.5627-.0835-.5576-.5325.0245-2.0793.03-4.1591-.0033-6.2381C37.6945,43.8762,37.889,43.8309,38.3135,43.83Zm-.6047,10.35c-.0046-.4367.0628-.6066.5636-.6072,1.8782-.0031,1.8782-.026,1.8782,1.8675,0,1.8341,0,1.8177,1.8509,1.8144.4518,0,.6184-.0877.5939-.5773-.0444-.8854,0-1.775-.019-2.661-.007-.3239.0792-.4376.4206-.4352q3.2268.0211,6.454,0c.32-.0018.4387.075.4363.4195-.0145,2.1554-.0224,4.3112.0039,6.4666.0061.4974-.2682.4336-.5745.433q-2.7714-.0045-5.5429,0c-1.7971,0-3.5945-.019-5.391.0121-.5071.0091-.69-.0858-.68-.6456.0369-2.0287.026-4.0584.0048-6.0868ZM23.1147,44.3825c-.0043-.4173.0946-.55.5349-.5568,1.9051-.026,1.9051-.0426,1.9051,1.8365,0,1.8552,0,1.8352,1.8225,1.8446.4974.0024.6453-.1291.6211-.6266-.0411-.86.0061-1.7236-.0193-2.5857-.0112-.3708.11-.4669.47-.4642q3.189.0235,6.3781,0c.3668-.003.4675.1064.4647.4693-.0154,2.13-.0214,4.26.0034,6.39.0054.4566-.2033.4672-.5444.465-1.8476-.0108-3.6952-.0051-5.5428-.0051s-3.6955-.0124-5.5429.0091c-.4191.0051-.5567-.0977-.5518-.538q.0335-3.1176,0-6.2371Zm4.8658,9.659c-.0115-.3732.1143-.4648.4717-.4624q3.1887.023,6.3781,0c.3692-.003.4654.1107.4629.4708-.0154,2.13-.0217,4.2608.0034,6.39.0054.4593-.2072.4651-.5474.463-1.8473-.01-3.6952-.0049-5.5428-.0049s-3.6953-.0127-5.5429.0094c-.4215.0051-.5549-.1019-.55-.54q.0345-3.1188,0-6.2383c-.004-.42.0992-.5486.537-.5546,1.9051-.0257,1.9051-.0417,1.9051,1.8379,0,1.854,0,1.8334,1.8243,1.8446.5005.0027.6426-.1342.6193-.6284-.0414-.8606.0061-1.7245-.02-2.5863Zm-14.5926.0753c-.0078-.3535.0263-.5443.4721-.54,2.1255.0245,4.2519.02,6.3777.0027.3723-.003.4636.1158.4609.4733-.0152,2.13-.0212,4.26.0039,6.39.0051.4618-.2117.4624-.55.4609-1.8476-.01-3.6952-.0049-5.5431-.0049s-3.6953-.0127-5.5429.01c-.4233.0052-.5524-.1076-.5476-.5425q.0336-3.1188,0-6.238c-.0042-.4234.1043-.5468.5392-.5525,1.9026-.0254,1.9026-.0411,1.9026,1.84,0,1.8521,0,1.8312,1.8265,1.8415.5041.0027.64-.14.6168-.6308C13.364,55.7917,13.4058,54.9532,13.3879,54.1168ZM8.5306,45.2921a1.6048,1.6048,0,0,1,2.2655-1.4476c.2743.1179.1554.3435.1582.5192.0136.8878.0211,1.776,0,2.6635-.0088.3544.0846.4632.4575.479,1.9828.0846,1.97.097,1.99-1.8365.0064-.5975-.2764-1.391.13-1.7366.3426-.2912,1.1088-.0907,1.6876-.0907,1.6456-.0049,3.2916.0127,4.9366-.0118.4291-.0061.55.1146.5443.5443q-.0327,3.1193,0,6.24c.0045.43-.1146.5512-.5443.5443-1.848-.023-3.6962-.01-5.5444-.01s-3.6964-.0127-5.5444.01c-.4233.0048-.5549-.1056-.5488-.5419C8.5424,48.8433,8.5215,47.0674,8.5306,45.2921Zm9.71,25.3544a1.2184,1.2184,0,1,1,1.2321-1.2045l0,.02A1.2336,1.2336,0,0,1,18.2407,70.6465Zm35.2983,0a1.2177,1.2177,0,1,1,1.2031-1.2322c0,.0064,0,.0128,0,.0193A1.2314,1.2314,0,0,1,53.539,70.6465Zm17.012-3.81a1.227,1.227,0,0,1-1.3581,1.3708c-3.9262.0093-7.8522,0-11.7781.01a.5986.5986,0,0,1-.632-.3879,3.4529,3.4529,0,0,0-3.2913-2.0406,3.4115,3.4115,0,0,0-3.212,2.04c-.2171.45-.5256.381-.8636.3813q-8.2067.0024-16.4136,0c-3.5459,0-7.092-.007-10.6382.0091a.8685.8685,0,0,1-.93-.53,3.3993,3.3993,0,0,0-3.1449-1.903A3.4263,3.4263,0,0,0,15.0744,67.7a.8216.8216,0,0,1-.8607.5186c-3.4194-.0155-6.8389-.0061-10.2583-.01-1.0817-.0015-1.5023-.4334-1.5071-1.5295-.004-.939.0232-1.8791-.0112-2.8168-.0167-.4469.14-.54.5552-.5359,1.8488.0212,3.6979.0094,5.5471.0094H36.5028q16.6413,0,33.2828-.0151c.6212,0,.83.1258.7863.7747-.0651.91-.0073,1.8268-.0209,2.74Z"/><path class="cls-1" d="M60.915,9.3454a9.1241,9.1241,0,0,0-8.8227-1.8119c-3.0314.8842-6.0611,1.7757-9.0784,2.7064a1.27,1.27,0,0,1-1.2982-.2452C38.0006,7.18,34.23,4.4379,30.5623,1.5631A6.896,6.896,0,0,0,25.68-.0614,3.927,3.927,0,0,0,22.023,1.9311a3.7071,3.7071,0,0,0,.4013,4.0723c1.8162,2.6852,3.5964,5.3956,5.3989,8.09.2368.3544.4234.5588-.2116.7427Q20.5159,16.8972,13.4442,19.04a1.4736,1.4736,0,0,1-1.636-.4405c-3.0275-3.0965-2.61-2.7821-6.8286-2.7857a3.6287,3.6287,0,0,0-3.6789,2.284,3.6676,3.6676,0,0,0,.9924,4.1633q3.2958,3.269,6.5589,6.57a3.7765,3.7765,0,0,0,4.0823,1.0659c1.883-.579,3.78-1.1085,5.6714-1.6631q5.5547-1.6329,11.0951-3.2659c.1234.1848.0444.3327.0236.4775-.4445,3.1633-.9133,6.3237-1.3242,9.4915a3.58,3.58,0,0,0,2.678,3.9009,8.2107,8.2107,0,0,0,2.1911.1243,3.6642,3.6642,0,0,0,3.8743-2.6647q2.9482-7.565,5.8746-15.139a1.1731,1.1731,0,0,1,.87-.8071c5.2184-1.5065,10.4271-3.0454,15.6428-4.561A3.61,3.61,0,0,0,62.34,13.1033,3.5584,3.5584,0,0,0,60.915,9.3454ZM24.3684,4.53a1.3182,1.3182,0,0,1-.1857-1.4847c.3-.53.7971-.5909,1.3547-.6532a4.7946,4.7946,0,0,1,3.6684,1.2c3.1225,2.4515,6.33,4.7938,9.5033,7.1806.1971.1479.387.3054.6812.538-2.808.8367-5.4941,1.6259-8.1712,2.4451a.6864.6864,0,0,1-.925-.2946l-.0091-.0183Q27.3482,8.972,24.3684,4.53ZM59.983,12.4921c-.121.5843-.5682.7775-1.0817.9272-4.7959,1.3988-9.5885,2.8083-14.4988,4.2489.5083-1.4273.5083-1.4273-.8113-1.9417-.93-.3628-.93-.3628-1.2882.5613q-3.6735,9.48-7.3481,18.9582c-.4437,1.1457-.65,1.23-1.9175,1.2933-2.2912.1152-2.3638-.69-2.0926-2.4745.6474-4.26,1.2241-8.53,1.8473-12.7939.0521-.3559-.0517-.4536-.3683-.4636-.1512-.0051-.2972-.062-.4475-.0819-.4763-.0638-1.0484-.31-1.4037-.13-.3756.1905-.2924.8491-.323,1.316s-.4052.4768-.6973.5633Q23.014,24.4064,16.469,26.3193c-1.43.4192-2.8667.8165-4.2894,1.2574a1.3766,1.3766,0,0,1-1.5153-.381Q7.2829,23.8,3.8928,20.413a1.2373,1.2373,0,0,1,.9162-2.1675c3.0769-.08,3.0844-.0947,5.2744,2.0768a3.8688,3.8688,0,0,0,4.1621,1.0224q19.1621-5.7373,38.3364-11.43a6.8752,6.8752,0,0,1,6.7627,1.2949A1.2915,1.2915,0,0,1,59.983,12.4921Z"/></svg>