<svg id="Layer_1" data-name="Layer 1" xmlns="http://www.w3.org/2000/svg" width="51" height="93" viewBox="0 0 51 93"><defs><style>.cls-1{fill:#fff;}</style></defs><path class="cls-1" d="M51,50.1374a.7059.7059,0,0,1-.0462-.4184c-.0042-4.5968.0131-9.1941-.0493-13.7909-.0017-.1417.0037-.2864-.0076-.4292a1.8288,1.8288,0,0,0-.4938-1.4363,2.3035,2.3035,0,0,0-1.2184-.6071,2.7952,2.7952,0,0,1-1.6589-.8571,14.682,14.682,0,0,1-3.7813-7.0045,15.7668,15.7668,0,0,1-.3556-4.0287c-.0153-3.0062-.1133-6.0106-.1207-9.0162-.0085-3.6422.0371-7.2844-.0892-10.9258A1.4641,1.4641,0,0,0,42.5873.3919,5.2769,5.2769,0,0,0,41.9364,0H32.4916a2.1956,2.1956,0,0,0-1.3549,2.1817c.0363,6.7639.019,13.5282.0176,20.2921,0,.7112-.02.7307-.714.7313q-4.6509.0016-9.3015,0c-.2383,0-.4777-.0127-.7151.002-.397.0261-.5508-.1618-.5253-.5406.0107-.1584,0-.3182,0-.4774,0-6.6685-.0182-13.3373.0184-20.0058A2.1958,2.1958,0,0,0,18.5625,0H9.1176c-.1059.0708-.2349.1-.3383.17-.4533.3077-.9134.6233-.891,1.2586.04,1.1149-.093,2.2233-.1069,3.3362-.0461,3.77.0729,7.5394-.0745,11.31-.0952,2.414.0227,4.8345-.1091,7.25a12.3494,12.3494,0,0,1-.1416,1.4221,15.3287,15.3287,0,0,1-3.145,7.02,4.0894,4.0894,0,0,1-2.6755,1.7566A1.7367,1.7367,0,0,0,.155,35.2206C.017,36.6628.0983,38.112.0726,39.5576,0,43.312.0318,47.067.02,50.8214-.0143,62.3573-.0049,73.3932.0488,84.9293c.0093,2.02.0875,3.9.0532,5.9216a4.8643,4.8643,0,0,0,.08.8532,1.3747,1.3747,0,0,0,1.2835,1.2c.6.0581,1.2016.0955,1.8051.0955H17.2444c.3015,0,.6015-.0079.9033-.038a1.7133,1.7133,0,0,0,1.6456-1.5475c.1331-.9126.2309-1.6907.3419-2.6067.3125-2.572.6109-4.6457.8954-7.2212q.404-3.6014.81-7.2025c.2774-2.4959.5406-4.9938.8217-7.49.2408-2.1479.491-4.2956.7083-6.4461a1.901,1.901,0,0,1,.7143-1.2835,1.857,1.857,0,0,1,1.9683-.3,1.6319,1.6319,0,0,1,1.105,1.4266c.34,2.2.59,4.412.8808,6.6186.588,4.46,1.1254,8.9269,1.68,13.3916.4839,3.8967.9506,7.1563,1.4388,11.0524a1.946,1.946,0,0,0,1.8532,1.6454q7.4882,0,14.9755-.0017c1.785,0,2.9166-.1845,2.9251-2.2384C50.9706,77.0514,51,63.8442,51,50.1374ZM9.0842,32.2714a21.0041,21.0041,0,0,0,2.0261-4.69,19.2359,19.2359,0,0,0,.7083-4.6926c.117-3.0339.0252-6.0655.0618-9.0975.0283-2.2757.0048-4.5514.0057-6.8282,0-.9007.1617-1.7961.0943-2.6991-.0212-.2878.1805-.3425.3865-.3445.9537-.0093,1.9079-.0173,2.8616.0051.2406.0054.4848.0369.4859.4446.0088,2.8571.06,5.7142.08,8.5716.015,2.1323-.06,4.2672.02,6.3968.085,2.2694.0624,4.5369.0731,6.8056,0,.2343.1343.3428.263.5054.5845.7392,1.3789.6715,2.1867.67q7.6076-.017,15.2149-.0056a1.5614,1.5614,0,0,0,1.6119-1.5093q.0011-.0315.0008-.0629c0-1.2892-.04-2.58.0074-3.8669.1584-4.2733.0062-8.5487.1133-12.82.0394-1.5688.0284-3.1371.0624-4.705.0056-.2663.0691-.3485.34-.3443,1.0013.0162,2.0031.02,3.0033,0,.3153-.0068.39.085.389.3936-.0119,2.96-.085,5.9216.0153,8.8793.0969,2.8429.0229,5.6833.0736,8.5243a19.9757,19.9757,0,0,0,1.2325,7.17,22.8175,22.8175,0,0,0,2.8617,5.2609c.1844.2465.3519.5057.56.8061H7.2355C7.867,34.11,8.5286,33.2263,9.0842,32.2714ZM16.9413,80.62c-.1267,1.0036-.2754,1.5053-.3638,2.5122-.0567.6542-.1341,1.3053-.2063,1.9573-.1371,1.2407-.259,2.4831-.3828,3.7252-.0173.1723-.0966.24-.2663.2686a6.373,6.373,0,0,1-1.0724.0949q-4.9827-.0093-9.9651.0051c-.3533.0017-.4434-.079-.4417-.4388.0149-3.5638.0149-6.6273,0-10.1908,0-.3514.0742-.448.4366-.4443,2.0343.02,4.0689.01,6.1033.01,2.0184,0,4.0369.0085,6.055-.0082.3494-.0028.4321.0992.38.4293C17.11,79.231,17.0285,79.926,16.9413,80.62ZM46.37,89.1835c-3.5291-.0144-7.0583-.0051-10.5872-.0119-.7622-.0017-.7245-.0974-.8069-.8049-.1417-1.2209-.3015-2.4392-.46-3.6578-.1085-.8339-.2-1.1715-.3057-2.0062-.1482-1.1719-.2439-2.3517-.4678-3.5133-.0527-.2737-.015-.5556-.0923-.8381-.0927-.3369.2139-.2267.3683-.2281,2.0666-.0065,4.1332-.0042,6.2-.0042,2.0508,0,4.1015.01,6.152-.0094.357-.0034.442.085.44.4412-.0147,3.5645-.0147,6.6288,0,10.1933C46.8129,89.1036,46.7236,89.1849,46.37,89.1835Zm-.0991-15.161Q39.95,73.9982,33.63,74.0211c-.4207.0014-.5561-.0867-.5853-.5451-.0567-.8967-.2349-1.785-.3491-2.68-.1088-.85-.19-1.7046-.3017-2.5546-.1275-.9718-.2389-1.9462-.3556-2.9183-.1023-.85-.2315-1.7-.32-2.5528-.1009-.9715-.27-1.9366-.4281-2.9013a8.7051,8.7051,0,0,0-.5825-2.225,5.7478,5.7478,0,0,0-2.1582-2.263,5.022,5.022,0,0,0-2.87-.7579,6.29,6.29,0,0,0-3.5247.68,5.25,5.25,0,0,0-2.7358,3.9814c-.1779,1.3554-.3927,2.7061-.5624,4.063-.1224.9763-.1862,1.96-.2969,2.9381-.1117.99-.2582,1.9754-.3723,2.9651-.0805.6989-.1233,1.4025-.1984,2.102q-.1289,1.1846-.2918,2.3647c-.0269.1938-.134.3043-.3842.3037q-6.3681-.0164-12.736,0c-.4086.0014-.323-.2312-.323-.4533q-.0018-8.5467,0-17.094,0-8.5234-.0074-17.0466c0-.3547.0635-.4751.4533-.474q9.1344.0213,18.2692.002c.3619,0,.4879.0731.47.4593-.034.7463.0127,1.4962-.0145,2.2434-.0566,1.5866.1273,3.1668.1134,4.7529a3.3838,3.3838,0,0,0,.2493,1.2636,2.4714,2.4714,0,0,0,1.7946,1.2045,2.09,2.09,0,0,0,1.8658-1.84c.0986-.7262.041-1.4509.0906-2.1732.1272-1.8541.085-3.71.085-5.5649,0-.2671.0689-.3439.34-.3439q9.2539.0115,18.5078-.0046c.406,0,.334.2134.334.444V48.899q0,12.2965.0114,24.5909C46.8143,73.9342,46.6933,74.0242,46.2706,74.0225Z"/></svg>