<svg id="Layer_1" data-name="Layer 1" xmlns="http://www.w3.org/2000/svg" width="73" height="73" viewBox="0 0 73 73"><defs><style>.cls-1{fill:#221d1d;}.cls-2{fill:#b6b4b4;}.cls-3{fill:#f9f8f8;}.cls-4{fill:#f7f7f7;}</style></defs><path class="cls-1" d="M.0336,30.2144A2.8841,2.8841,0,0,1,2.58,28.4884c1.1983-.1465,2.3841-.3961,3.5753-.5995.3138-.0541.5226-.1376.605-.5419a20.1944,20.1944,0,0,1,2.3951-6.2746.5977.5977,0,0,0-.1058-.8056q-1.2606-1.5434-2.4914-3.1124a2.2452,2.2452,0,0,1,.1384-3.4069c.6672-.7074,1.3242-1.4269,2-2.1269a2.1753,2.1753,0,0,1,3.0584-.3315l.011.0089q1.7341,1.1811,3.4271,2.4229a.6315.6315,0,0,0,.8661.0472,20.15,20.15,0,0,1,6.0556-2.7332.6466.6466,0,0,0,.56-.6737c.1308-1.37.2861-2.737.4412-4.1027a2.2174,2.2174,0,0,1,2.3-2.1317l.0065,0c1.0438-.0334,2.0873-.0849,3.1314-.1033a2.2048,2.2048,0,0,1,2.3915,1.96c.2433,1.3531.4869,2.7067.692,4.066.0614.4065.17.5978.6189.69a20.2328,20.2328,0,0,1,6.2078,2.3691.6.6,0,0,0,.8084-.0775c1.0624-.8743,2.1422-1.7279,3.2256-2.5748a2.2113,2.2113,0,0,1,3.1271.0112q.0622.0627.1194.13c.728.6813,1.4586,1.36,2.1758,2.0528a2.1424,2.1424,0,0,1,.3955,3.004q-.0427.0557-.089.1084c-.7767,1.1349-1.56,2.2664-2.3708,3.3769a.6836.6836,0,0,0-.0382.93,19.67,19.67,0,0,1,2.6789,5.9271.7512.7512,0,0,0,.7693.6483c.9083.08,1.3921.5659,1.3222,1.2421-.0741.7187-.7011,1.1154-1.5929,1.0081-2.0972-.2526-2.0938-.2532-2.6855-2.3385A19.1663,19.1663,0,0,0,43.4667,20.63c-.6225-.8732-.6185-1.1579-.0025-2.035.8861-1.2611,1.7647-2.5278,2.67-3.7751.2419-.3333.26-.5376-.0786-.8183A18.7477,18.7477,0,0,1,44.5,12.5382c-.32-.3359-.5376-.3783-.9227-.0546-1.2,1.005-2.4569,1.9427-3.6645,2.9392a1.366,1.366,0,0,1-1.806.1245,18.5016,18.5016,0,0,0-7.25-2.7528,1.3581,1.3581,0,0,1-1.2787-1.2837c-.2343-1.5466-.5376-3.0827-.7727-4.629-.0713-.4674-.232-.6446-.72-.6a21.9553,21.9553,0,0,1-2.2047.0849c-.4015-.0034-.5093.1525-.545.5263-.153,1.5344-.3494,3.064-.5093,4.5979-.1058,1.0186-.3013,1.2775-1.2732,1.5069a19.4249,19.4249,0,0,0-6.9461,3.13c-.8123.5834-1.11.5761-1.92.0088-1.282-.8978-2.5677-1.79-3.835-2.7081-.326-.2348-.5269-.2779-.8138.0679a17.3107,17.3107,0,0,1-1.5115,1.6069c-.3472.3234-.2911.5327-.0189.8641,1.0089,1.228,1.9752,2.4916,2.9836,3.72a1.3261,1.3261,0,0,1,.0971,1.7477,18.8326,18.8326,0,0,0-2.7562,7.1781c-.16.97-.3774,1.17-1.3627,1.346-1.563.2792-3.1254.5636-4.6935.812-.3585.0566-.4867.1678-.4635.5334.05.7815.0827,1.5655.0818,2.3484,0,.3962.1469.5184.5328.5569,1.6284.1624,3.2513.3768,4.88.5376a1.233,1.233,0,0,1,1.2028,1.0913,18.4124,18.4124,0,0,0,.9663,3.1158,1.157,1.157,0,0,1-.5631,1.6623c-.657.2578-1.2413-.0382-1.5426-.835s-.5883-1.6009-.8172-2.42a.5443.5443,0,0,0-.561-.4833c-1.4626-.1525-2.9251-.3112-4.3809-.5166a2.1044,2.1044,0,0,1-1.9583-2.005c-.146-.5659.073-1.1575-.1188-1.72Z"/><path class="cls-2" d="M.0336,32.6364a3.9258,3.9258,0,0,1,.1188,1.72l-.0605.0077-.0583-.0181Z"/><path class="cls-3" d="M.0336,72.2444l.7122.7124Q-.1582,73.1487.0336,72.2444Z"/><path class="cls-4" d="M72.2542,72.9568l.7122-.7124Q73.1583,73.1486,72.2542,72.9568Z"/><path class="cls-1" d="M27.8328,16.6768A15.0694,15.0694,0,0,1,41.9716,36.9143c-.3027.8454-.8839,1.1932-1.5488.9529s-.8907-.8844-.6024-1.7191a12.8082,12.8082,0,1,0-24.71-6.2022,13.3676,13.3676,0,0,0,.53,5.8287c.0283.09.0515.1825.0767.2739a1.147,1.147,0,0,1-.5877,1.5119q-.0524.0231-.1069.0409c-.6508.1955-1.1884-.1245-1.464-.8811a13.9405,13.9405,0,0,1-.8245-3.955A15.0825,15.0825,0,0,1,26.7768,16.71Q27.304,16.6751,27.8328,16.6768Z"/><path class="cls-1" d="M27.8662,24.13a14.4332,14.4332,0,0,1,7.8843,2.4475c.7656.5116.9544,1.1293.5407,1.7246-.3984.5732-1.0248.6358-1.7577.183a11.9686,11.9686,0,0,0-13.5248.0063c-.7326.4547-1.3565.3831-1.75-.2s-.1936-1.2515.5447-1.733A14.6669,14.6669,0,0,1,27.8662,24.13Z"/><path class="cls-1" d="M27.7372,29.0934a10.5071,10.5071,0,0,1,5.3055,1.48,1.1917,1.1917,0,0,1,.69,1.15,1.1089,1.1089,0,0,1-.7238.9736,1.1581,1.1581,0,0,1-1.0814-.1372,7.9059,7.9059,0,0,0-8.3-.0108,1.14,1.14,0,1,1-1.119-1.9724A10.4758,10.4758,0,0,1,27.7372,29.0934Z"/><path class="cls-1" d="M27.7527,33.6366a5.7035,5.7035,0,0,1,2.8428.7507,1.1479,1.1479,0,0,1,.541,1.6179,1.1083,1.1083,0,0,1-1.5033.4436q-.0483-.0262-.0937-.0571a3.5054,3.5054,0,0,0-3.4635-.0246,1.143,1.143,0,0,1-1.6538-.4015,1.1706,1.1706,0,0,1,.6657-1.6309A5.9952,5.9952,0,0,1,27.7527,33.6366Z"/><path class="cls-1" d="M49.1138,33.3517a1.1722,1.1722,0,0,1,1.2936.99,1.0847,1.0847,0,0,1-.9084,1.2359l-.014.002c-.5093.0566-.5917.3285-.6856.7153-.1726.7125-.3545,1.4246-.58,2.1221A1.1216,1.1216,0,1,1,46.0364,37.9q.0111-.0465.0261-.0921a32.1241,32.1241,0,0,0,.7605-3.25,1.1073,1.1073,0,0,1,.99-.9753C48.28,33.5059,48.7456,33.4173,49.1138,33.3517Z"/><path class="cls-1" d="M72.8394,70.2324c-.21-2.6493-.4058-5.3-.618-7.9486Q71.3268,51.11,70.4233,39.9361q-.8067-10.1124-1.5984-20.2272a3.0017,3.0017,0,0,0-2.9087-3.0921q-.042-.0012-.084-.0014c-3.2032-.0653-6.4093-.0594-9.6128,0a2.8294,2.8294,0,0,0-2.9115,2.6682c-.163,1.1731-.2216,2.3612-.3164,3.5436q-.7781,9.6864-1.5468,19.3739c-.1477,1.8777-.1285,1.8788-1.7619,2.78-1.0367.5718-2.07,1.15-3.1124,1.7132-.1981.1064-.3713.3-.6562.2448,0-1.8791-.0772-3.7575.0266-5.6258.0719-1.292-.9985-1.83-2.0732-1.1907-2.34,1.3907-4.7535,2.6575-7.1364,3.9746-1.7543.97-3.5086,1.9384-5.3517,2.9565,0-1.9507-.0082-3.7935.0046-5.636.0042-.5914-.0114-1.16-.6194-1.4733-.5761-.298-1.04-.0108-1.5081.3053Q24.659,43.351,20.0515,46.44c-1.035.6952-2.0729,1.3864-3.2064,2.1441v-.8067c0-2.2069.0057-4.4162-.0031-6.6243-.0045-1.1655-.831-1.6411-1.8711-1.0913-.0419.022-.0807.05-.1222.073Q7.8839,43.98.915,47.8179a2.8253,2.8253,0,0,0-.8817.7758v23.651a.8852.8852,0,0,0,.7125.7121h.8547A1.7627,1.7627,0,0,0,2.3254,71.32C2.3042,64.3176,2.3187,57.3144,2.3,50.3124a.962.962,0,0,1,.5758-.9813c3.6958-2.0231,7.38-4.0676,11.0711-6.1006a1.0188,1.0188,0,0,1,.62-.24v.7674q0,13.7443-.0122,27.4885a1.8676,1.8676,0,0,0,.7209,1.71H16.13a1.7347,1.7347,0,0,0,.7283-1.6335c-.0223-6.4568-.013-12.914-.013-19.3708,0-.324-.04-.6179.3192-.8576,3.9434-2.6283,7.87-5.2772,11.8376-7.9457a1.1978,1.1978,0,0,1,.0962.7569q.007,13.745-.0062,27.4893a1.5027,1.5027,0,0,0,.8553,1.56h.7122a1.7051,1.7051,0,0,0,.7334-1.6289c-.0212-7.0015-.0073-14.0033-.0246-21.0045a.962.962,0,0,1,.573-.9875c3.6783-2.007,7.3407-4.0388,11.0089-6.0619.2014-.1112.4088-.2116.6869-.3551v7.1113q0,10.6808-.01,21.3608a1.5278,1.5278,0,0,0,.8488,1.5658h.7122A1.6306,1.6306,0,0,0,45.9252,71.4c-.0186-7.0281-.0056-14.0559-.024-21.084a.9575.9575,0,0,1,.5829-.985c1.5-.7968,2.9785-1.6317,4.56-2.5041-.1242,1.6544-.2354,3.205-.3585,4.7535q-.4623,5.8582-.9376,11.7123c-.2145,2.673-.4081,5.3477-.6556,8.0176a1.4711,1.4711,0,0,0,.7982,1.647h.7121a1.6561,1.6561,0,0,0,.7827-1.4008c.0888-1.5367.2569-3.0689.3443-4.6061.0283-.4957.1285-.6878.6828-.6856q8.6374.0339,17.2747.0026c.47-.0015.5829.1445.6114.5879.0982,1.5127.2782,3.02.3571,4.5334A1.8826,1.8826,0,0,0,71.4,72.9568h.8545a.884.884,0,0,0,.7122-.7121V70.6774C72.7737,70.573,72.8513,70.3837,72.8394,70.2324ZM55.4617,20.1276c.0868-1.1035.2569-1.2633,1.3462-1.2639q4.2372-.0026,8.4743,0c1.02,0,1.196.1754,1.2758,1.174q.7595,9.4733,1.5335,18.9458c.0374.4527-.0351.6165-.5376.61-2.1832-.0283-4.3672-.0119-6.5513-.0119-2.16,0-4.32-.01-6.48.0079-.4473.004-.6021-.0648-.5594-.5851C54.4812,32.7139,54.9668,26.42,55.4617,20.1276Zm-2.0276,25.5c.1327-1.0814.2074-2.1708.2688-3.259.0215-.3831.1225-.5175.53-.5161q6.7625.0216,13.5232-.002c.4354-.0017.5746.1336.6012.5484q.1158,1.8108.2909,3.6166c.0495.5042-.2852.3905-.5444.3911q-3.5235.007-7.0454.0028c-2.3015,0-4.6032-.0283-6.9039.0181C53.4841,46.4414,53.3588,46.24,53.4341,45.6279ZM69.52,64.0138c-2.8238-.0136-5.6476-.0071-8.4714-.0071-2.8011,0-5.6006-.0161-8.4.0138-.5429.006-.6751-.13-.63-.6649.3271-3.8529.6253-7.7083.9337-11.5629.0662-.8276.17-1.6538.1936-2.4825.0138-.4689.1211-.6494.6383-.6474q7.2615.0306,14.5225,0c.4405-.0014.5523.1338.584.5512.2546,3.3351.5325,6.6682.8,10.0024.1132,1.4187.191,2.8411.345,4.2555C70.0872,63.9606,69.9313,64.016,69.52,64.0138Z"/><path class="cls-1" d="M5.4463,56.3584c0-.5922-.0113-1.185.0029-1.7769A1.1358,1.1358,0,0,1,6.467,53.3389a1.15,1.15,0,0,1,.15-.005q1.8819-.0506,3.766.0017a1.15,1.15,0,0,1,1.1541,1.1468c0,.0158,0,.0315-.0008.0473A1.1346,1.1346,0,0,1,10.34,55.5933c-.6864.0209-1.3751.0317-2.06-.0017-.4244-.021-.5928.0834-.5659.5412.04.6613.02,1.3268.0076,1.99a1.1442,1.1442,0,1,1-2.274.0127C5.4376,57.5433,5.4463,56.9508,5.4463,56.3584Z"/><path class="cls-1" d="M5.4466,66.2442c0-.616-.0161-1.2328.0046-1.8482a1.0915,1.0915,0,0,1,1.013-1.1649,1.08,1.08,0,0,1,.1439,0q1.8831-.0341,3.7672,0a1.1193,1.1193,0,1,1,.0864,2.237c-.0163.0006-.0327.0009-.0491.0008a16.662,16.662,0,0,1-1.9888.0079c-.5237-.03-.7688.0818-.7116.6765A16.0992,16.0992,0,0,1,7.7229,68c-.0155.7959-.4422,1.2679-1.1261,1.2713a1.1268,1.1268,0,0,1-1.1479-1.25C5.4362,67.43,5.4463,66.8367,5.4466,66.2442Z"/><path class="cls-1" d="M34.7126,56.3176c0-.5942-.0237-1.1884.006-1.7792A1.1379,1.1379,0,0,1,35.9341,53.33c1.2093-.0283,2.42-.0252,3.6294,0a1.1343,1.1343,0,0,1,1.2217,1.04,1.1462,1.1462,0,0,1,.0023.1471,1.115,1.115,0,0,1-1.1421,1.0873c-.033-.0008-.0659-.003-.0986-.0068-.64.0159-1.2835.0394-1.9207-.0059-.5229-.0373-.6465.17-.6185.6474.0362.6148.0224,1.2336.0048,1.85-.0232.8143-.5039,1.3355-1.1813,1.3148a1.1816,1.1816,0,0,1-1.122-1.2383c.0011-.0223.0029-.0446.0052-.0669-.0167-.5942-.0031-1.1864-.0031-1.78Z"/><path class="cls-1" d="M37.8112,63.2249c.6171,0,1.2348-.0209,1.8507.0054a1.0916,1.0916,0,0,1,1.1255,1.0566q.001.033,0,.0658a1.08,1.08,0,0,1-1.0459,1.1136l-.0157,0c-.7331.0461-1.4713.0393-2.207.0124-.4142-.0152-.5294.1342-.5127.53.0283.6632.0229,1.33.002,1.9931-.0252.7967-.4618,1.2661-1.14,1.2712a1.1314,1.1314,0,0,1-1.153-1.2534c-.0218-1.1864-.0249-2.3739,0-3.56a1.1219,1.1219,0,0,1,1.2432-1.2345c.6163-.0172,1.2337-.0033,1.8508-.0033Z"/><path class="cls-1" d="M19.979,56.3751c0-.5923-.013-1.1847.0026-1.7767A1.16,1.16,0,0,1,21.2073,53.33c1.2073-.0283,2.4161-.0258,3.6234,0a1.1793,1.1793,0,0,1,1.2432,1.1118c.0013.0233.0019.0467.0018.07A1.153,1.153,0,0,1,24.8613,55.6l-.0357-.0025a17.6987,17.6987,0,0,1-1.9175-.0079c-.5616-.0473-.6856.1672-.6508.6807.0436.6367.0215,1.279.006,1.9181a1.1411,1.1411,0,1,1-2.2792.0357C19.9618,57.6079,19.98,56.991,19.979,56.3751Z"/><path class="cls-1" d="M23.02,63.2238c.6157,0,1.2317-.0153,1.8468.0037a1.1244,1.1244,0,1,1,.1488,2.2439c-.0294.0019-.059.0027-.0885.0024a14.4058,14.4058,0,0,1-1.9167.0025c-.5724-.0441-.8095.105-.7535.721a16.3842,16.3842,0,0,1,.0085,1.8462,1.1428,1.1428,0,1,1-2.28.0192q-.0284-1.8108,0-3.6237a1.1129,1.1129,0,0,1,1.1883-1.21C21.7885,63.2071,22.4047,63.2238,23.02,63.2238Z"/><path class="cls-1" d="M57.01,1.308A8.4178,8.4178,0,0,0,54.3058.01H52.5965c-.1553.0478-.3084.1066-.4665.1415a5.7069,5.7069,0,1,0,4.88,1.1564ZM53.3512,9.13a3.4269,3.4269,0,1,1,.0361,0Z"/><path class="cls-1" d="M63.8292,7.4185a3.7165,3.7165,0,1,0,3.7231,3.71l0-.0127A3.7476,3.7476,0,0,0,63.8292,7.4185Zm-.0164,5.1556a1.3936,1.3936,0,0,1-1.4263-1.36q-.0009-.0415.0005-.083a1.4174,1.4174,0,0,1,1.4012-1.4333c.0139,0,.0279,0,.0419,0A1.4541,1.4541,0,0,1,65.2714,11.15a1.4289,1.4289,0,0,1-1.4331,1.4247Z"/></svg>