<svg id="Layer_1" data-name="Layer 1" xmlns="http://www.w3.org/2000/svg" width="178" height="68" viewBox="0 0 178 68"><defs><style>.cls-1{fill:#f47920;}</style></defs><path class="cls-1" d="M161.6749,36.6578a6.97,6.97,0,0,0,.4851-2.9738,10.1818,10.1818,0,0,0-1.3522-4.0825c-1.116-1.9288-2.28-3.83-3.4-5.7534a21.1992,21.1992,0,0,1-2.4516-5.9528,12.5761,12.5761,0,0,1-.2675-3.9233,16.1455,16.1455,0,0,1,.9848-4.4556,22.7768,22.7768,0,0,1,3.0085-5.4112c.9952-1.32,2.1008-2.5608,3.1616-3.837A.8867.8867,0,0,1,162.2017,0c-.0542.2147-.1177.4274-.16.6463a7.92,7.92,0,0,0,.5808,4.4741,39.3205,39.3205,0,0,0,3.1626,5.8233,32.6779,32.6779,0,0,1,3.5,7.2218,13.3566,13.3566,0,0,1-.1281,8.0665,14.576,14.576,0,0,1-2.12,4.0939c.05-.7009.1093-1.3328.1364-1.9658a13.4662,13.4662,0,0,0-1.7708-6.9238c-.8744-1.66-2.15-3.0293-3.1293-4.6128a11.747,11.747,0,0,1-2.0268-5.1389c-.0083-.0658-.0385-.13-.1561-.2189a8.8246,8.8246,0,0,0-.2988.8858,8.3572,8.3572,0,0,0,1.0712,5.963c.9473,1.7325,1.9935,3.4116,2.9356,5.1471A11.5959,11.5959,0,0,1,165.28,28.11a9.0869,9.0869,0,0,1-.5371,3.7219,17.0489,17.0489,0,0,1-2.9825,4.8348c-.03-.0021-.0583-.0062-.0854-.0093"/><path class="cls-1" d="M10.0374,46.3879v-27.49H0V16.469a3.3526,3.3526,0,0,1,1.0327-2.4765,3.44,3.44,0,0,1,2.51-1.02H26.9632v5.9261H17.0247v27.49Z"/><path class="cls-1" d="M40.3485,33.3717A18.8246,18.8246,0,0,1,36.51,34.6346l-2.2632.485a5.8475,5.8475,0,0,0-2.5588,1.2629,3.9233,3.9233,0,0,0-.6891,2.1373,3.1273,3.1273,0,0,0,.8859,2.3305,3.7591,3.7591,0,0,0,2.5588.7779,5.8917,5.8917,0,0,0,4.33-1.5547A5.7329,5.7329,0,0,0,40.3485,35.8Zm1.574,11.9476a12.2292,12.2292,0,0,1-4.38,1.3112,39.7981,39.7981,0,0,1-4.0838.2435A10.4017,10.4017,0,0,1,27.26,44.9791q-2.6577-1.8944-2.6567-6.2651,0-4.08,2.411-5.8284a14.0007,14.0007,0,0,1,6.15-2.3316,5.8075,5.8075,0,0,0,1.1805-.1459q.6885-.1449,1.575-.2425,4.33-.5828,4.33-2.5258a1.8441,1.8441,0,0,0-1.5251-1.8938,10.2353,10.2353,0,0,0-2.8045-.4378,7.2861,7.2861,0,0,0-2.4609.39,2.6685,2.6685,0,0,0-1.574,1.4571H25.2913a7.46,7.46,0,0,1,2.7556-4.954q2.6576-2.235,7.5775-2.235,5.5121,0,8.2666,1.8456a6.2135,6.2135,0,0,1,2.8534,5.44v8.8392a11.04,11.04,0,0,1-1.4272,6.072,8.67,8.67,0,0,1-3.3947,3.1567"/><path class="cls-1" d="M49.1252,46.3879v-12.53a15.8255,15.8255,0,0,1,1.1316-6.3628,10.5621,10.5621,0,0,1,3.1-4.1288A12.247,12.247,0,0,1,57.7354,21.23a19.6852,19.6852,0,0,1,5.1665-.68h.9848v6.8971H61.6225a5.8074,5.8074,0,0,0-4.2306,1.36A5.7886,5.7886,0,0,0,56.0136,33.08V46.3879Z"/><path class="cls-1" d="M80.6553,33.3717a18.8224,18.8224,0,0,1-3.8382,1.2629l-2.2632.485a5.8475,5.8475,0,0,0-2.5588,1.2629A3.9233,3.9233,0,0,0,71.306,38.52a3.1273,3.1273,0,0,0,.8859,2.3305,3.7591,3.7591,0,0,0,2.5588.7779,5.8917,5.8917,0,0,0,4.33-1.5547A5.7325,5.7325,0,0,0,80.6553,35.8Zm1.5729,11.9476a12.218,12.218,0,0,1-4.3774,1.3112,39.8338,39.8338,0,0,1-4.0849.2435,10.404,10.404,0,0,1-6.1992-1.8949Q64.909,43.0848,64.91,38.714q0-4.08,2.411-5.8284a14.0012,14.0012,0,0,1,6.15-2.3316,5.8075,5.8075,0,0,0,1.18-.1459q.6887-.1449,1.575-.2425,4.33-.5828,4.33-2.5258a1.8441,1.8441,0,0,0-1.5251-1.8938,10.2291,10.2291,0,0,0-2.8045-.4378,7.2861,7.2861,0,0,0-2.4609.39,2.6685,2.6685,0,0,0-1.574,1.4571H65.5981a7.46,7.46,0,0,1,2.7556-4.954q2.6577-2.235,7.5775-2.235,5.5121,0,8.2656,1.8456a6.2182,6.2182,0,0,1,2.8534,5.44v8.8392a11.0311,11.0311,0,0,1-1.4272,6.072,8.6848,8.6848,0,0,1-3.3948,3.1567"/><path d="M108.3773,33.5659a9.8388,9.8388,0,0,0-1.4761-5.8284,4.9094,4.9094,0,0,0-4.2317-2.04,4.8116,4.8116,0,0,0-4.1338,2.04q-1.3773,1.8465-1.3773,5.8284a8.7482,8.7482,0,0,0,1.4762,5.5366,4.9029,4.9029,0,0,0,4.2316,2.04,4.7154,4.7154,0,0,0,4.035-2.04,9.2685,9.2685,0,0,0,1.4761-5.5366M97.1584,52.6048a3.1659,3.1659,0,0,1-.9838,2.3316,3.2466,3.2466,0,0,1-2.362.9711H90.4668V31.72q0-6.7989,4.035-9.277a16.43,16.43,0,0,1,8.758-2.4775,14.3241,14.3241,0,0,1,4.97.9239,9.27,9.27,0,0,1,3.985,2.6707,15.3383,15.3383,0,0,1,2.9523,9.7137q0,6.1208-2.9523,9.9089a9.273,9.273,0,0,1-7.5775,3.6911A10.1182,10.1182,0,0,1,100.3075,46a7.368,7.368,0,0,1-3.1491-3.0108Z"/><path d="M118.1784,46.3879v-12.53a15.8084,15.8084,0,0,1,1.1316-6.3628,10.5525,10.5525,0,0,1,3.1-4.1288,12.2389,12.2389,0,0,1,4.3785-2.1364,19.6852,19.6852,0,0,1,5.1665-.68h.9848v6.8971h-2.2642a5.8058,5.8058,0,0,0-4.2306,1.36,5.7886,5.7886,0,0,0-1.3783,4.2737V46.3879Z"/><path d="M142.5235,26.9605q-2.066,2.2367-1.87,6.6546.1968,4.4208,1.674,6.1686a4.4148,4.4148,0,0,0,2.0663,1.3112,4.752,4.752,0,0,0,3.0013.0966,5.0124,5.0124,0,0,0,2.7055-2.1857q1.1822-1.748,1.28-5.6331a9.7672,9.7672,0,0,0-1.1316-5.2459,5.1033,5.1033,0,0,0-2.6078-2.2339,4.8444,4.8444,0,0,0-2.9523-.0493,5.1641,5.1641,0,0,0-2.1652,1.1169M137.8,44.0574a9.5834,9.5834,0,0,1-2.9523-4.7114,21.4208,21.4208,0,0,1-.8859-6.1686,19.3054,19.3054,0,0,1,.7381-5.2447,10.7692,10.7692,0,0,1,2.3131-4.3714,10.2527,10.2527,0,0,1,6.5927-3.4485,15.3589,15.3589,0,0,1,7.2829.6319,9.9815,9.9815,0,0,1,5.51,5.0506,15.9513,15.9513,0,0,1,1.6739,7.48,18.2822,18.2822,0,0,1-.6892,5.3424,13.6305,13.6305,0,0,1-1.7717,3.7887A9.8384,9.8384,0,0,1,149.61,46.389a13.5752,13.5752,0,0,1-6.5448.1459A11.5145,11.5145,0,0,1,137.8,44.0574"/><polygon points="12.665 67.874 11.82 67.874 11.82 64.946 8.703 60.475 9.731 60.475 12.253 64.175 14.796 60.475 15.781 60.475 12.665 64.935 12.665 67.874"/><path d="M23.1937,62.9916a2.9047,2.9047,0,0,0-.6153-.9731,2.9986,2.9986,0,0,0-.9369-.6556,2.8663,2.8663,0,0,0-1.1836-.2425,2.9036,2.9036,0,0,0-1.1836.2373,2.801,2.801,0,0,0-.9244.6495,3.0618,3.0618,0,0,0-.6059.9679,3.2125,3.2125,0,0,0-.2186,1.189,3.255,3.255,0,0,0,.2186,1.194,2.9338,2.9338,0,0,0,.6152.9721,2.9768,2.9768,0,0,0,.938.6556,2.8622,2.8622,0,0,0,1.1826.2435,2.8967,2.8967,0,0,0,1.1836-.2384,2.7893,2.7893,0,0,0,.9255-.6494,2.9907,2.9907,0,0,0,.6048-.967,3.3264,3.3264,0,0,0,0-2.3829m.8193,2.6357a3.7959,3.7959,0,0,1-.7808,1.2218,3.7484,3.7484,0,0,1-1.21.84,4.1005,4.1005,0,0,1-3.122.0051,3.655,3.655,0,0,1-1.98-2.0449,3.9507,3.9507,0,0,1-.2738-1.4643,3.89,3.89,0,0,1,.2779-1.4632,3.8227,3.8227,0,0,1,.7829-1.2208,3.7009,3.7009,0,0,1,1.2086-.84,4.091,4.091,0,0,1,3.1209-.0062,3.7518,3.7518,0,0,1,1.2055.8292A3.71,3.71,0,0,1,24.0182,62.7a3.9563,3.9563,0,0,1,.2727,1.4644,3.8865,3.8865,0,0,1-.2779,1.4632"/><path d="M31.8674,64.7148a4.1375,4.1375,0,0,1-.2249,1.4263,2.7824,2.7824,0,0,1-.6371,1.0256,2.6269,2.6269,0,0,1-.9848.6175,3.754,3.754,0,0,1-1.2794.2066,3.7143,3.7143,0,0,1-1.269-.2066,2.6429,2.6429,0,0,1-.9848-.6135,2.74,2.74,0,0,1-.6381-1.008,3.978,3.978,0,0,1-.2249-1.3852V60.476h.8464v4.2481a2.6,2.6,0,0,0,.6048,1.85,2.2,2.2,0,0,0,1.6854.6453,2.2246,2.2246,0,0,0,1.65-.6124,2.4911,2.4911,0,0,0,.6111-1.8291V60.476h.8453Z"/><polygon points="43.354 67.874 42.293 67.874 39.414 64.29 37.819 65.887 37.819 67.874 36.972 67.874 36.972 60.475 37.819 60.475 37.819 64.893 42.122 60.475 43.214 60.475 40.002 63.71 43.354 67.874"/><polygon points="49.99 60.476 50.815 60.476 50.815 67.875 50.14 67.875 45.302 61.808 45.302 67.875 44.477 67.875 44.477 60.476 45.269 60.476 49.99 66.405 49.99 60.476"/><path d="M59.4551,62.9916a2.9055,2.9055,0,0,0-.6163-.9731,2.9811,2.9811,0,0,0-.9358-.6556,3.0373,3.0373,0,0,0-2.3662-.0052,2.8,2.8,0,0,0-.9265.6495,3.1,3.1,0,0,0-.6059.9679,3.2329,3.2329,0,0,0-.2186,1.189,3.2758,3.2758,0,0,0,.2186,1.194,2.9348,2.9348,0,0,0,.6163.9721,2.9949,2.9949,0,0,0,.9369.6556,3.0251,3.0251,0,0,0,2.3662.0051,2.7935,2.7935,0,0,0,.9265-.6494,3.0251,3.0251,0,0,0,.6048-.967,3.3264,3.3264,0,0,0,0-2.3829m.8183,2.6357a3.81,3.81,0,0,1-.78,1.2218,3.7528,3.7528,0,0,1-1.2106.84,4.1005,4.1005,0,0,1-3.122.0051,3.6642,3.6642,0,0,1-1.98-2.0449,4.0215,4.0215,0,0,1,.0041-2.9275,3.8763,3.8763,0,0,1,.7829-1.2208,3.6879,3.6879,0,0,1,1.2107-.84,3.8069,3.8069,0,0,1,1.5615-.3124,3.876,3.876,0,0,1,1.5594.3062A3.6637,3.6637,0,0,1,60.28,62.7a3.9543,3.9543,0,0,1,.2727,1.4644,3.8467,3.8467,0,0,1-.2789,1.4632"/><polygon points="66.543 60.455 67.24 60.455 69.295 66.638 71.437 60.476 72.326 60.476 69.65 67.928 68.931 67.928 66.875 61.925 64.809 67.928 64.101 67.928 61.425 60.476 62.346 60.476 64.488 66.638 66.543 60.455"/><polygon points="80.203 67.874 79.357 67.874 79.357 64.946 76.241 60.475 77.269 60.475 79.79 64.175 82.334 60.475 83.318 60.475 80.203 64.935 80.203 67.874"/><path d="M90.7312,62.9916a2.9044,2.9044,0,0,0-.6152-.9731,2.9757,2.9757,0,0,0-.9369-.6556,3.0324,3.0324,0,0,0-2.3642-.0052,2.8047,2.8047,0,0,0-.9275.6495,3.1014,3.1014,0,0,0-.6059.9679,3.2329,3.2329,0,0,0-.2186,1.189,3.2758,3.2758,0,0,0,.2186,1.194A2.9083,2.9083,0,0,0,85.9,66.33a2.9618,2.9618,0,0,0,.9348.6556,3.0251,3.0251,0,0,0,2.3662.0051,2.798,2.798,0,0,0,.9276-.6494,3.0217,3.0217,0,0,0,.6027-.967,3.311,3.311,0,0,0,0-2.3829m.8193,2.6357a3.91,3.91,0,0,1-5.1124,2.0665,3.6642,3.6642,0,0,1-1.98-2.0449,4.0215,4.0215,0,0,1,.0041-2.9275,3.8589,3.8589,0,0,1,.7829-1.2208,3.69,3.69,0,0,1,1.2107-.84,3.8069,3.8069,0,0,1,1.5615-.3124,3.86,3.86,0,0,1,1.5574.3062A3.6653,3.6653,0,0,1,91.5578,62.7a3.9563,3.9563,0,0,1,.2727,1.4644,3.8475,3.8475,0,0,1-.28,1.4632"/><path d="M99.4028,64.7148a4.1385,4.1385,0,0,1-.2238,1.4263,2.7681,2.7681,0,0,1-.6371,1.0256,2.64,2.64,0,0,1-.9837.6175,3.7675,3.7675,0,0,1-1.2794.2066,3.7207,3.7207,0,0,1-1.27-.2066,2.63,2.63,0,0,1-.9837-.6135,2.7118,2.7118,0,0,1-.6371-1.008,3.9514,3.9514,0,0,1-.227-1.3852V60.476h.8464v4.2481a2.5961,2.5961,0,0,0,.6058,1.85,2.1975,2.1975,0,0,0,1.6854.6453,2.2278,2.2278,0,0,0,1.65-.6124,2.4951,2.4951,0,0,0,.61-1.8291V60.476h.8442Z"/><path d="M107.6663,61.406l-1.7114,3.7722h3.4145Zm3.8237,6.4676h-.9109l-.8776-1.9555h-4.0787l-.889,1.9555h-.8682l3.4176-7.451h.7922Z"/><path d="M117.8547,61.6341a2.2754,2.2754,0,0,0-1.4168-.3864h-2.3173v3.0109h2.3079a2.6774,2.6774,0,0,0,.7724-.1059,1.8644,1.8644,0,0,0,.6121-.3021,1.3543,1.3543,0,0,0,.4008-.4819,1.3865,1.3865,0,0,0,.1458-.6474,1.2879,1.2879,0,0,0-.5049-1.0872m.5809,6.24-2.1747-2.8742h-2.14v2.8742h-.8464V60.475h3.223a3.6808,3.6808,0,0,1,1.1191.1593,2.5341,2.5341,0,0,1,.8515.4491,1.9868,1.9868,0,0,1,.5455.6987,2.0827,2.0827,0,0,1,.1926.9033,2.1664,2.1664,0,0,1-.15.83,1.8819,1.8819,0,0,1-.4237.6341,2.3623,2.3623,0,0,1-.6464.45,3.0479,3.0479,0,0,1-.8152.2528l2.3027,3.0211Z"/><polygon points="126.195 61.238 121.624 61.238 121.624 63.763 125.713 63.763 125.713 64.525 121.624 64.525 121.624 67.113 126.249 67.113 126.249 67.875 120.778 67.875 120.778 60.476 126.195 60.476 126.195 61.238"/><path d="M133.0878,62.79a.8034.8034,0,0,0,.2727.2959,2.1646,2.1646,0,0,0,.5486.2539c.2311.078.5289.1592.8859.2435a8.5714,8.5714,0,0,1,1.0462.3278,2.6229,2.6229,0,0,1,.7568.4377,1.7522,1.7522,0,0,1,.456.6022,1.9285,1.9285,0,0,1,.1572.8087,2.173,2.173,0,0,1-.1968.9413,1.9841,1.9841,0,0,1-.5485.6966,2.3713,2.3713,0,0,1-.8412.4337,3.7355,3.7355,0,0,1-1.0806.148,4.8026,4.8026,0,0,1-1.66-.29,4.575,4.575,0,0,1-1.4667-.894l.7922-.93a4.6277,4.6277,0,0,0,1.1045.7141,3.0646,3.0646,0,0,0,1.2627.2476,1.6465,1.6465,0,0,0,.9692-.2538.7981.7981,0,0,0,.3592-.6864.87.87,0,0,0-.0719-.3586.7131.7131,0,0,0-.255-.2918,2.2319,2.2319,0,0,0-.5174-.2477,8.2654,8.2654,0,0,0-.8536-.2425,9.2843,9.2843,0,0,1-1.0671-.3072,2.7611,2.7611,0,0,1-.7828-.4224,1.675,1.675,0,0,1-.4841-.6134,2.0724,2.0724,0,0,1-.1655-.8766,1.9909,1.9909,0,0,1,.7162-1.5639,2.3565,2.3565,0,0,1,.8047-.44,3.3141,3.3141,0,0,1,1.0285-.1531,4.31,4.31,0,0,1,1.48.2384,4.4376,4.4376,0,0,1,1.2378.6916l-.7058.9834a4.592,4.592,0,0,0-1.0191-.5652,2.7762,2.7762,0,0,0-1.0161-.1962,1.4,1.4,0,0,0-.9.2589.7824.7824,0,0,0-.32.6289.8977.8977,0,0,0,.0739.38"/><path d="M141.4012,61.9763l-1.2866,2.9584h2.5806Zm3.9288,5.8973h-1.3929l-.76-1.7859h-3.5425l-.7725,1.7859h-1.3481l3.2969-7.451h1.22Z"/><polygon points="152.487 61.649 148.226 61.649 148.226 63.688 152.005 63.688 152.005 64.862 148.226 64.862 148.226 67.874 146.92 67.874 146.92 60.476 152.487 60.476 152.487 61.649"/><polygon points="159.971 61.649 155.73 61.649 155.73 63.552 159.489 63.552 159.489 64.724 155.73 64.724 155.73 66.701 160.025 66.701 160.025 67.874 154.423 67.874 154.423 60.476 159.971 60.476 159.971 61.649"/><rect x="98.8021" y="52.3582" width="61.0708" height="1.79"/><rect x="8.4155" y="52.3582" width="80.749" height="1.79"/><path d="M171.3094,17.0465V13.61H170.055v-.3031a.4175.4175,0,0,1,.1281-.31.4334.4334,0,0,1,.3143-.1274h2.9273V13.61h-1.2419v3.4362Z"/><path d="M173.7433,17.0465V13.3072a.4172.4172,0,0,1,.1281-.31.4839.4839,0,0,1,.3143-.14h.85l.8359,3.1937.837-3.1937H178v4.1894h-.812V13.6709l-.8619,3.3756h-.8974l-.8734-3.3756v3.3756Z"/></svg>