<svg id="Layer_1" data-name="Layer 1" xmlns="http://www.w3.org/2000/svg" width="136" height="128" viewBox="0 0 136 128"><defs><style>.cls-1,.cls-2{fill:#757575;}.cls-2{fill-rule:evenodd;}.cls-3{fill:#f57a20;}</style></defs><path class="cls-1" d="M50.3468,41.4836H28.5423L17.7587,69.15H61.13ZM27.7327,39.1082H51.9684l.2958.7618L63.9737,69.91l.63,1.6156H14.2855l.63-1.6156,11.71-30.04.2972-.7618Z"/><path class="cls-1" d="M84.31,56.5046H74.219L69.2892,69.15H89.24ZM73.4084,54.1287H85.9316l.2957.7608,5.8553,15.02.63,1.6156H65.8176l.6288-1.6156,5.8553-15.02.2972-.7608Z"/><path class="cls-1" d="M96.985,71.7146H14.0962v46.0446H96.985Zm-84.08-2.3775h85.27a1.19,1.19,0,0,1,1.1913,1.1887v48.42a1.1891,1.1891,0,0,1-1.1913,1.1888h-85.27a1.19,1.19,0,0,1-1.1913-1.1888v-48.42A1.191,1.191,0,0,1,12.9049,69.3371Z"/><path class="cls-1" d="M98.1748,84.7951h13.5626a1.1884,1.1884,0,0,1,1.19,1.1882v32.963a1.1888,1.1888,0,0,1-1.19,1.1888H98.1748a1.1888,1.1888,0,0,1-1.19-1.1888V85.9833a1.1883,1.1883,0,0,1,1.19-1.1882m12.3713,2.3754h-11.18v30.5887h11.18Z"/><path class="cls-1" d="M122.7508,77.6673h-9.8236v40.0919h9.8236ZM111.7374,75.29h12.2042a1.1891,1.1891,0,0,1,1.19,1.1888v42.4672a1.1884,1.1884,0,0,1-1.19,1.1888H111.7374a1.19,1.19,0,0,1-1.1913-1.1888V76.4791A1.19,1.19,0,0,1,111.7374,75.29Z"/><path class="cls-2" d="M25.7278,91.6274H31.862a.9412.9412,0,0,1,.9412.9376v4.3437a.9412.9412,0,0,1-.9412.9376H25.7278a.9409.9409,0,0,1-.94-.9376V92.565a.9409.9409,0,0,1,.94-.9376"/><path class="cls-2" d="M39.101,91.6274h6.1337a.94.94,0,0,1,.94.9376v4.3437a.94.94,0,0,1-.94.9376H39.101a.94.94,0,0,1-.94-.9376V92.565a.94.94,0,0,1,.94-.9376"/><path class="cls-2" d="M52.4738,91.6274h6.1337a.9411.9411,0,0,1,.94.9376v4.3437a.9411.9411,0,0,1-.94.9376H52.4738a.94.94,0,0,1-.94-.9376V92.565a.94.94,0,0,1,.94-.9376"/><path class="cls-2" d="M65.8449,91.6274h6.1338a.9414.9414,0,0,1,.9417.9376v4.3437a.9414.9414,0,0,1-.9417.9376H65.8449a.9409.9409,0,0,1-.94-.9376V92.565a.9409.9409,0,0,1,.94-.9376"/><path class="cls-2" d="M79.2177,91.6274h6.1342a.94.94,0,0,1,.94.9376v4.3437a.94.94,0,0,1-.94.9376H79.2177a.94.94,0,0,1-.94-.9376V92.565a.94.94,0,0,1,.94-.9376"/><path class="cls-1" d="M30.7694,113.46a1.188,1.188,0,1,1,0-2.3759H97.3986a1.188,1.188,0,1,1,0,2.3759Z"/><path class="cls-1" d="M30.7694,107.6689a1.1878,1.1878,0,1,1,0-2.3755H97.3986a1.1878,1.1878,0,1,1,0,2.3755Z"/><path class="cls-1" d="M134.8086,128H1.19A1.1894,1.1894,0,0,1,0,126.8112v-7.9805a1.189,1.189,0,0,1,1.19-1.1887H134.8086A1.19,1.19,0,0,1,136,118.8307v7.9805A1.1908,1.1908,0,0,1,134.8086,128M2.3806,125.6241H133.6194v-5.6067H2.3806Z"/><path class="cls-3" d="M25.7151,37.5072a9.9909,9.9909,0,0,0,5.2528,1.2888l.08-.0031H49.8172v.0046H49.85c2.0353.0586,3.2737-.43,4.12-1.309a11.7442,11.7442,0,0,0,2.12-4.1315,1.1895,1.1895,0,0,1,2.3264.1849,4.0563,4.0563,0,0,0,2.167,2.6907,10.5456,10.5456,0,0,0,3.2093,1.2443,11.3265,11.3265,0,0,0,3.6524.2021,6.3938,6.3938,0,0,0,4.88-2.7569,1.2617,1.2617,0,0,1,.1519-.2132,1.1912,1.1912,0,0,1,1.6793-.0974c.2355.2076.4577.394.6613.55l.0045.0041a8.27,8.27,0,0,0,7.7255,1.5307,12.8077,12.8077,0,0,0,5.61-3.6647l.003.0031c.1479-.1663.2916-.3381.4233-.51l.0015.0015a1.1835,1.1835,0,0,1,1.9933.1688c1.2444,2.3758,3.95,2.1839,6.6051.7977a16.7784,16.7784,0,0,0,4.3526-3.3738,13.0815,13.0815,0,0,0,2.7785-4.2764c.7417-2.0618.34-3.9966-2.1239-4.9146a1.1883,1.1883,0,0,1-.8414-1.3635,9.8111,9.8111,0,0,0-1.4723-7.07,9.7147,9.7147,0,0,0-3.331-3.2267A6.8782,6.8782,0,0,0,92.4172,8.35l-.043.006a8.4893,8.4893,0,0,0-5.3,3.0842l-.0025-.0025a1.186,1.186,0,0,1-2.0252-.4567,11.74,11.74,0,0,0-6.962-7.2895l-.0659-.0257A16.5506,16.5506,0,0,0,72.774,2.4148a15.1029,15.1029,0,0,0-5.24.5168,10.0878,10.0878,0,0,0-6.7139,5.6708,1.1788,1.1788,0,0,1-.6025.6532A1.1916,1.1916,0,0,1,58.6348,8.69,6.0268,6.0268,0,0,0,54.064,5.2484a6.583,6.583,0,0,0-2.9365.2021A5.7935,5.7935,0,0,0,48.6806,6.907,6.0059,6.0059,0,0,0,47.264,12.39a1.1773,1.1773,0,0,1-.1307.82,1.19,1.19,0,0,1-1.6186.4456A15.62,15.62,0,0,0,38.6241,11.54a10.3262,10.3262,0,0,0-5.343,1.1241A10.6065,10.6065,0,0,0,29.0506,16.92a22.9773,22.9773,0,0,0-2.5492,10.3252H26.5a1.1851,1.1851,0,0,1-.4086.8447A7.6689,7.6689,0,0,0,23.72,31.8076a5.6362,5.6362,0,0,0,.0024,3.19,4.6255,4.6255,0,0,0,1.9923,2.5093m5.23,3.6571a12.2991,12.2991,0,0,1-6.5038-1.66,6.9719,6.9719,0,0,1-2.9781-3.7919,7.9594,7.9594,0,0,1-.0329-4.5266,10.0671,10.0671,0,0,1,2.7239-4.5371,24.8467,24.8467,0,0,1,2.83-10.8992,12.9644,12.9644,0,0,1,5.19-5.1853,12.6638,12.6638,0,0,1,6.5545-1.3933,17.1532,17.1532,0,0,1,6.032,1.462,7.8319,7.8319,0,0,1,2.2287-5.3889,8.1817,8.1817,0,0,1,3.45-2.0607,9.0121,9.0121,0,0,1,3.9987-.2748,8.3665,8.3665,0,0,1,5.1835,2.93A12.6741,12.6741,0,0,1,66.8727.6577a17.47,17.47,0,0,1,6.07-.6118,18.9731,18.9731,0,0,1,6.0071,1.4378l.0593.0273a14.5875,14.5875,0,0,1,7.6379,7.0172,10.0407,10.0407,0,0,1,5.4578-2.529l.04-.0046a9.2121,9.2121,0,0,1,5.5728,1.2115,12.1043,12.1043,0,0,1,4.1607,4.0173,12.3422,12.3422,0,0,1,1.9487,7.829c3.3223,1.5979,3.8276,4.5079,2.7214,7.5881a15.43,15.43,0,0,1-3.2737,5.0923,19.268,19.268,0,0,1-4.9916,3.86c-3.2853,1.7141-6.6906,2.0116-8.8692-.4269a15.1861,15.1861,0,0,1-6.1859,3.8051,10.5044,10.5044,0,0,1-9.6469-1.7743,9.04,9.04,0,0,1-5.8654,2.84,13.6787,13.6787,0,0,1-4.4245-.2395,12.9745,12.9745,0,0,1-3.9441-1.5409,8.4463,8.4463,0,0,1-2.0008-1.6595,9.2078,9.2078,0,0,1-1.6632,2.5361c-1.3016,1.35-3.0813,2.1081-5.8654,2.0318v.0046H31.0479Z"/><path class="cls-3" d="M90.4624,52.124l.0289-.0459M77.3925,53.5058l.0775-.0026h4.6381v.0041h.0334a6.7932,6.7932,0,0,0,2.7811-.6143,2.6,2.6,0,0,0,1.2429-.9195,1.1894,1.1894,0,0,1,2.3163.2178.8116.8116,0,0,0,.2025.46l.0112.01.0076.0071A.84.84,0,0,0,89.13,52.9a.9675.9675,0,0,0,.5513-.0586v.0016l.0041-.0016a1.7458,1.7458,0,0,0,.7766-.7174l.0805-.1247a1.1912,1.1912,0,0,1,1.66-.2647,7.6779,7.6779,0,0,0,1.7954.882,9.7455,9.7455,0,0,0,3.9987.6073,4.3281,4.3281,0,0,0,3.2706-1.7187,5.3089,5.3089,0,0,0,.6633-1.2615,1.1877,1.1877,0,0,1,.8151-.7992c1.5285-.438,2.2069-1.18,2.3163-1.9662a3.0737,3.0737,0,0,0-.6344-2.092,4.8028,4.8028,0,0,0-2.058-1.6813,2.7962,2.7962,0,0,0-3.3112.7649l-.0025-.0031a1.1858,1.1858,0,0,1-2.0252-.4567,3.6914,3.6914,0,0,0-2.2131-2.2713,5.452,5.452,0,0,0-1.7365-.4108,4.9479,4.9479,0,0,0-1.7092.1642A3.074,3.074,0,0,0,89.3228,43.22h-.0015a1.1693,1.1693,0,0,1-.5838.6073,1.1917,1.1917,0,0,1-1.5832-.5659,1.5357,1.5357,0,0,0-1.1609-.8775,1.7665,1.7665,0,0,0-.7706.053,1.4185,1.4185,0,0,0-.6045.3577,1.535,1.535,0,0,0-.3342,1.3893c-.1782.8134-1.18,1.5924-1.75,1.27a5.13,5.13,0,0,0-2.253-.6986,3.1689,3.1689,0,0,0-1.6288.3395,3.2348,3.2348,0,0,0-1.289,1.3074,7.8966,7.8966,0,0,0-.8612,3.5415h-.0015a1.1729,1.1729,0,0,1-.4086.8446,2.1453,2.1453,0,0,0-.6592,1.0312C75.36,52.0913,75.5379,53.3684,77.3925,53.5058Zm-.0289,2.3688a5.2944,5.2944,0,0,1-2.777-.7391l-.0774-.053a3.3408,3.3408,0,0,1-1.3448-1.77,3.7149,3.7149,0,0,1-.02-2.1168,4.5445,4.5445,0,0,1,1.0132-1.8273,9.8465,9.8465,0,0,1,1.14-4.137,5.61,5.61,0,0,1,2.249-2.237,5.479,5.479,0,0,1,2.8388-.6073,6.8488,6.8488,0,0,1,1.6388.2824,3.61,3.61,0,0,1,.9012-1.5383,3.8337,3.8337,0,0,1,1.6106-.9609,4.1276,4.1276,0,0,1,1.8252-.1257l.006.0014v-.0014a3.91,3.91,0,0,1,1.7467.7315,5.6646,5.6646,0,0,1,2.5973-1.5581,7.3489,7.3489,0,0,1,2.5391-.2576,7.8383,7.8383,0,0,1,2.4884.5956A6.4531,6.4531,0,0,1,98.57,41.7948a5.0722,5.0722,0,0,1,4.703-.2809,7.2168,7.2168,0,0,1,3.11,2.5159,5.41,5.41,0,0,1,1.0334,3.7738,4.6984,4.6984,0,0,1-3.4519,3.7421,7.3588,7.3588,0,0,1-.7721,1.3528,6.61,6.61,0,0,1-4.99,2.6927,12.1276,12.1276,0,0,1-5.0144-.7462,12,12,0,0,1-1.405-.6057,3.77,3.77,0,0,1-1.1983.7917v.0015a3.3412,3.3412,0,0,1-1.9331.1874l-.0045-.001v.001a3.205,3.205,0,0,1-1.5842-.8361,6.6436,6.6436,0,0,1-1.1554.6618,9.3537,9.3537,0,0,1-3.7992.8321V55.88H77.47Z"/><path class="cls-1" d="M42.8607,65.5193a1.1877,1.1877,0,1,1,0-2.3754H59.6221a1.1877,1.1877,0,1,1,0,2.3754Z"/><path class="cls-1" d="M44.9517,60.4356a1.1878,1.1878,0,1,1,0-2.3755H58.171a1.1878,1.1878,0,1,1,0,2.3755Z"/><path class="cls-1" d="M75.0944,67.9327a1.188,1.188,0,1,1,0-2.376h13.514a1.188,1.188,0,1,1,0,2.376Z"/><path class="cls-1" d="M76.7809,62.8489a1.188,1.188,0,1,1,0-2.376H87.4368a1.188,1.188,0,1,1,0,2.376Z"/></svg>