<svg id="Layer_1" data-name="Layer 1" xmlns="http://www.w3.org/2000/svg" width="136" height="128" viewBox="0 0 136 128"><defs><style>.cls-1{fill:#f37a20;}</style></defs><path class="cls-1" d="M128.3182,121.2438q-.33-1.5117-.6347-3.0292-4.0083-20.0364-8.0151-40.0731c-3.3271-16.5557-6.8767-33.0681-9.8706-49.6884A13.4567,13.4567,0,0,0,101.1459,17.59c-4.7606-1.9588-9.4431-4.107-14.1846-6.1137a3.0473,3.0473,0,0,1-1.8251-1.8018C83.8606,6.5134,82.4942,3.389,81.1624.2506H54.7913c-1.3313,3.1372-2.6968,6.2606-3.9724,9.42a3.0471,3.0471,0,0,1-1.8211,1.8039Q41.54,14.6325,34.1311,17.9074c-3.9843,1.7519-6.7054,4.6211-7.6228,8.9779-.3573,1.6971-.5713,3.4239-.912,5.1248Q20.1476,59.2057,14.6773,86.397q-3.4641,17.2431-6.93,34.4858c-.3045,1.5159-.0851,1.8173,1.39,1.82,5.3486.0084,10.6973-.0183,16.0456.0208,1.0675.0078,1.4979-.3892,1.77-1.4183q5.0526-19.074,10.193-38.1248c.5693-2.1213,1.1715-4.2338,1.7585-6.35.1725,14.7109.1725,29.3781.1726,44.0452,0,2.8494.5235,3.57,3.2513,4.4415.4309.1377.8754.234,1.3158.34,6.2406,1.5064,12.6193,1.7333,18.9867,1.9242a173.6462,173.6462,0,0,0,20.2523-.498,51.9987,51.9987,0,0,0,10.5037-1.71c2.973-.891,3.49-1.5767,3.49-4.626V76.8748a2.3384,2.3384,0,0,1,.4659.9481q2.49,9.2494,4.9708,18.5012,3.3643,12.5455,6.7165,25.0943c.1972.74.4454,1.2951,1.3613,1.2926,5.5973-.0156,11.1947-.002,16.792-.0115C128.1414,122.6979,128.5258,122.1938,128.3182,121.2438ZM95.3429,17.2932c1.6669.7157,3.1278,1.3656,4.6087,1.9664.5208.2112.6088.5474.608,1.05q-.0189,11.67.0056,23.3393c.002.6852-.16.9409-.881.9064-1.1974-.0574-2.4007-.0476-3.599-.0023-.6069.0229-.7556-.1807-.7544-.7677C95.3483,35.0158,95.3429,26.2459,95.3429,17.2932ZM79.0694,2.2705c-1.5964,4.2519-3.12,8.3342-4.6753,12.404a2.4446,2.4446,0,0,1-.721.8285c-1.6758,1.48-3.3853,2.9216-5.0358,4.4286-.5051.4611-.8619.5576-1.2948-.0051a.7573.7573,0,0,0-.1832-.167A19.4248,19.4248,0,0,1,58.9665,7.878a58.8745,58.8745,0,0,0-2.0814-5.6075Zm-26.55,8.4566c.9431-2.1424,1.8177-4.3148,2.83-6.7417,1.2842,3.3716,2.5552,6.4576,3.624,9.6121a8.9446,8.9446,0,0,0,3.0263,4.3735c1.7243,1.3539,3.3458,2.8424,4.9676,4.3211a1.2991,1.2991,0,0,0,2.0369-.0106q3.1962-2.8565,6.459-5.638a3.5362,3.5362,0,0,0,.9452-1.5647c1.3654-3.6163,2.7265-7.2342,4.19-11.12C81.692,6.602,82.7,9.0222,83.6905,11.45c.134.3285-.0649.6354-.1937.9421-1.8028,4.2926-3.6161,8.581-5.3786,12.89-.2811.6874-.6955.78-1.33.772q-5.7772-.0762-11.5554-.0967c-2.0284-.0048-4.0582.0243-6.0848.1033a1.2189,1.2189,0,0,1-1.3637-.9124q-2.5814-6.2907-5.2556-12.5432A2.151,2.151,0,0,1,52.5192,10.7271Zm-17.1366,9.924a1.339,1.339,0,0,1,.9966-1.5466c1.3846-.4949,2.7121-1.1494,4.2316-1.81,0,8.9719-.01,17.7194.018,26.4668.0022.7148-.2716.808-.8628.7878-1.404-.0479-3.2452.4817-4.0943-.2153-.8823-.7243-.2516-2.6386-.2575-4.0294C35.3861,33.7534,35.4166,27.2021,35.3826,20.6511Zm-1.5369,67.23q-4.325,15.9852-8.6083,31.9817c-.128.478-.1824.8409-.8186.8384-4.841-.0192-9.682-.0106-14.5988-.0106,1.19-5.9311,2.3529-11.7537,3.5263-17.5743,1.0272-5.0954,2.0892-10.1841,3.073-15.2878.1437-.7459.4-.9375,1.1086-.9342q7.7667.0362,15.5336-.0044C33.8892,86.8843,34.053,87.1148,33.8457,87.881Zm1.8932-7.1893a7.3433,7.3433,0,0,0-.2674.9493c-.3154,1.0569-.1944,2.5222-1.0148,3.0686-.7532.5017-2.0778.1626-3.1507.1644-4.3892.0072-8.779-.0368-13.167.0321-1.0439.0163-1.1328-.3261-.9219-1.1679.3187-1.272.1908-2.947.9737-3.7285.7575-.7562,2.4389-.1913,3.7136-.2148,1.6971-.0313,3.3952-.0077,5.0929-.0077,2.6915,0,5.3832.0186,8.0743-.0118C35.8212,79.7669,36.0726,79.9577,35.7389,80.6917Zm5.3536-11.6658c.005-.7231-.1063-1.4128-.9183-1.5268-.8575-.12-1.0777.62-1.2517,1.269-.7156,2.6685-1.4379,5.3356-2.1023,8.0169a1.0609,1.0609,0,0,1-1.2535.9556c-5.3482-.0355-10.6968-.0251-16.0453-.0113-.7033.0018-1.0893.0555-.8794-.9668q3.3894-16.5021,6.65-33.0308c1.0637-5.3449,2.0776-10.7,3.1164-16.0495a9.6479,9.6479,0,0,1,4.3907-6.7511c.16-.0992.3375-.17.6093-.305,0,6.0925,0,12.0532,0,18.0138,0,2.1559.0252,4.3123-.01,6.4677-.0178,1.0919.4825,1.4518,1.52,1.4294,2.0306-.0438,4.0643-.0585,6.0939.0045,1.19.037,1.6052-.419,1.6013-1.6-.03-9.1212-.0029-18.2427-.0378-27.3639a1.4707,1.4707,0,0,1,1.0685-1.6389c2.0309-.8,4.0376-1.6668,6.0194-2.5819.6992-.3229.9355-.1907,1.22.4993,1.7747,4.3069,3.6282,8.5814,5.3884,12.8941a1.8241,1.8241,0,0,0,2.0546,1.3408c1.1559-.076,2.3248.0428,3.48-.0369.857-.059,1.0043.27.9995,1.0443C62.775,34.281,62.79,39.4637,62.79,44.6462c0,10.614-.0184,21.228.0281,31.8417.0047,1.0742-.3047,1.2656-1.3045,1.2582q-9.6391-.0715-19.279-.0035c-.8916.0054-1.2077-.1527-1.1762-1.13C41.14,74.0858,41.0753,71.5549,41.0925,69.0259Zm-.02,11.5031c-.0258-.617.2-.7545.78-.753q10.0642.0268,20.1285-.0028c.6619-.0023.849.2012.8222.8407a32.4971,32.4971,0,0,0,.0045,3.3531c.0474.7714-.1905.9728-.959.9626-3.3127-.0442-6.6263-.0189-9.9395-.0189V84.877c-3.2719,0-6.5442-.0262-9.8154.0187-.7995.011-1.082-.1843-1.0264-1.0138A30.9655,30.9655,0,0,0,41.073,80.529ZM62.79,106.33c0,6.0511-.0128,12.1023.0152,18.1532.0037.8038-.086,1.1395-1.0531,1.0847-4.712-.2667-9.4294-.4343-14.1027-1.1659a27.5378,27.5378,0,0,1-5.5232-1.3223,1.4321,1.4321,0,0,1-1.0649-1.5506q.0555-16.7853.0194-33.571c0-.6134-.0662-1.0781.859-1.0686q9.759.1,19.519.073c1.0423-.0034,1.3764.2084,1.3635,1.339C62.754,94.3105,62.79,100.3205,62.79,106.33Zm7.097,19.3316a27.1124,27.1124,0,0,0-3.8525-.0039c-.9553.0606-1.2442-.2023-1.2392-1.205.0431-8.7063.0248-17.4129.0248-26.1193V76.836q0-23.6941-.0245-47.388c-.0024-1.0569.1867-1.4672,1.3334-1.3711a39.5536,39.5536,0,0,0,4.2263.0175c.58-.0137.8589.1452.7835.7639a7.2494,7.2494,0,0,0-.0058.87V76.8676q0,23.7459.0238,47.4918C71.1593,125.37,70.9565,125.7468,69.8873,125.6617Zm25-41.7585c.0711.8706-.2869.9985-1.0481.99-3.27-.0375-6.54-.016-9.81-.0161-3.3114,0-6.6233-.0272-9.9341.02-.7822.0112-.9959-.21-.9487-.9682a24.12,24.12,0,0,0-.002-3.2262c-.0591-.8178.27-.933.988-.93q9.8721.0381,19.7444-.0052c.8317-.0046,1.0575.24,1.0069,1.0342A21.4522,21.4522,0,0,0,94.8874,83.9032Zm-1.29,39.2575a39.419,39.419,0,0,1-9.1017,1.7286c-3.4169.3779-6.8548.4511-10.282.6766-.9492.0624-1.0711-.2448-1.067-1.069.03-6.0892.0165-12.1787.0164-18.2682,0-6.0066.0226-12.0133-.0227-18.02-.0074-.9808.1681-1.3381,1.2515-1.3289,6.4618.0545,12.9244.0429,19.3865.0077.8511-.0046,1.1118.1952,1.1093,1.0827q-.0465,16.7769.0069,33.5538C94.8989,122.5608,94.37,122.8838,93.5977,123.1607ZM99.17,76.8574c-.6825-2.6349-1.3893-5.2636-2.1029-7.89a3.7084,3.7084,0,0,0-.4634-1.13.7962.7962,0,0,0-.989-.3062,1.2133,1.2133,0,0,0-.7505,1.2927c.0086,2.3218.0032,4.6437.0031,6.9655,0,1.9328,0,1.9329-1.9416,1.9329-6.1777,0-12.3556-.0162-18.5331.0178-.8987.005-1.2594-.1279-1.2568-1.1741q.0588-23.6949.0012-47.39c-.0023-.9824.2978-1.1806,1.1808-1.119,1.0728.0748,2.16-.052,3.2312.0363a1.94,1.94,0,0,0,2.1923-1.5039c1.6981-4.2053,3.525-8.3586,5.2306-12.561.3733-.92.75-.981,1.5708-.5973,1.9053.8907,3.83,1.7508,5.7924,2.5039a1.4553,1.4553,0,0,1,1.0368,1.6591c-.0269,9.08-.0174,18.16-.0176,27.24,0,1.61.0779,1.6892,1.683,1.6905,1.99.0015,3.982-.05,5.97.0188,1.2135.0418,1.5657-.446,1.56-1.6125-.0362-8.043-.019-16.0863-.019-24.3113a9.1761,9.1761,0,0,1,4.9545,6.87c2.2309,12.2269,4.8452,24.377,7.2463,36.57.8376,4.2534,1.6711,8.5078,2.5583,12.7509.1454.6953.13.9323-.67.928q-8.2092-.0436-16.4185.004C99.5106,77.7454,99.32,77.437,99.17,76.8574Zm1.8866,7.1089c-.251-1.1246-.5289-2.2477-.8824-3.3434-.2309-.7157-.006-.8473.66-.8452q8.1368.0258,16.2735.0014c.57-.0015.86.088.9578.767.2038,1.4182.5549,2.8152.8683,4.3309h-4.9216c-3.8924,0-7.785-.022-11.677.019C101.5908,84.9038,101.22,84.6978,101.057,83.9663Zm23.9682,36.7549c-2.1907-.1018-4.3893-.03-6.5847-.03-2.1539,0-4.3085-.031-6.4614.0164-.784.0172-1.1105-.1751-1.3313-1.01q-4.2033-15.8927-8.5214-31.755c-.2287-.8441-.0586-1.06.8232-1.0536q7.704.0559,15.4086.0045c.7517-.0038,1.0256.178,1.1868.99q3.1431,15.84,6.3983,31.6567C126.1093,120.3542,126.1051,120.7713,125.0252,120.7212Z"/><path class="cls-1" d="M68.7042,127.9248q-2.9706,0-6.0812-.093c-5.9088-.1773-12.6069-.3781-19.0378-1.9314l-.238-.0568c-.3594-.0852-.7326-.1724-1.0949-.288-2.8178-.9-3.426-1.7316-3.426-4.6806,0-13.8469,0-28.1463-.1528-42.2851l-.0666.241c-.4114,1.47-.8227,2.94-1.2194,4.4142L36.272,87.4017c-2.9872,11.13-6.0763,22.6391-9.0772,33.9679a1.7858,1.7858,0,0,1-1.9814,1.6043H25.18c-3.5121-.0255-7.085-.0235-10.5374-.0206q-2.7532.003-5.5063,0c-.7434-.0019-1.2595-.0715-1.5426-.4182-.2918-.3555-.2546-.8932-.093-1.7012l8.4268-41.9345q4.716-23.4676,9.423-46.9388c.1586-.7933.2928-1.6086.4221-2.3966.1469-.8966.3-1.8241.49-2.7306A12.53,12.53,0,0,1,34.03,17.6779C39.7792,15.15,44.5039,13.105,48.9,11.2441A2.7831,2.7831,0,0,0,50.587,9.5767c.93-2.307,1.9256-4.6321,2.8883-6.8809q.5436-1.2708,1.0852-2.543L54.6261,0H81.3278l.0657.1528q.5434,1.2825,1.094,2.5631c.96,2.2433,1.9519,4.5631,2.88,6.8647a2.7874,2.7874,0,0,0,1.6914,1.665c2.0294.8585,4.08,1.758,6.0646,2.6278,2.6522,1.1625,5.3955,2.3647,8.1173,3.4852a13.7512,13.7512,0,0,1,8.803,11.05c2.1351,11.8548,4.5954,23.8536,6.9734,35.4576q1.4574,7.1106,2.8971,14.226,2.6561,13.2191,5.2917,26.4431l2.7228,13.63q.3041,1.5146.6337,3.0244h0a1.5026,1.5026,0,0,1-.1881,1.3046,1.451,1.451,0,0,1-1.1909.4554q-3.733.0059-7.4641.0039-4.6616.0015-9.3279.0078h-.0059c-1.1107,0-1.3986-.7306-1.5984-1.4789q-3.1968-11.9953-6.4181-23.9838l-.2977-1.1106q-2.4682-9.2027-4.9441-18.4012v42.7591c0,3.1684-.5828,3.9421-3.67,4.8667a52.5678,52.5678,0,0,1-10.5531,1.72C78.3524,127.7289,73.6649,127.9248,68.7042,127.9248ZM39.1348,75.064l.0206,1.763c.1723,14.7127.1723,29.6252.1723,44.048,0,2.7385.46,3.3672,3.0773,4.2027.3438.11.7072.1949,1.0578.2781l.24.0568c6.3808,1.5416,13.0506,1.7414,18.9359,1.9177a171.628,171.628,0,0,0,20.2229-.4965,52.1117,52.1117,0,0,0,10.4532-1.7c2.8785-.8629,3.3114-1.4368,3.3114-4.3868V76.2l.4408.5112a2.61,2.61,0,0,1,.5181,1.046q2.4887,9.2511,4.9705,18.5021l.2977,1.11q3.216,11.991,6.4181,23.9848c.2047.765.4143,1.1068,1.1146,1.1068h.0039q4.6644-.0132,9.33-.0079,3.73,0,7.4631-.0039a.993.993,0,0,0,.8011-.2683,1.0473,1.0473,0,0,0,.0892-.8825h0q-.3306-1.5146-.6357-3.0342l-2.7227-13.63Q122.0733,91.4109,119.423,78.19q-1.43-7.1149-2.8961-14.223c-2.38-11.607-4.8393-23.6087-6.9764-35.4694-.9519-5.2893-3.6532-8.6815-8.4993-10.676-2.7276-1.122-5.4739-2.3257-8.1291-3.49-1.9823-.8687-4.0322-1.7673-6.0586-2.6248a3.313,3.313,0,0,1-1.96-1.9388c-.9275-2.2972-1.9187-4.6144-2.8775-6.8553Q81.5105,1.7079,80.9968.5015h-26.04q-.5084,1.1965-1.0206,2.3917c-.9617,2.2463-1.9558,4.5689-2.8853,6.8715a3.3105,3.3105,0,0,1-1.9559,1.9407c-4.3936,1.86-9.1164,3.9045-14.8635,6.4318a12.0467,12.0467,0,0,0-7.4778,8.8c-.1891.8952-.34,1.8168-.4868,2.7081-.13.7924-.2645,1.6116-.4251,2.4143Q21.14,55.5308,16.4193,78.9974L7.9925,120.9318c-.1489.7414-.1519,1.1136-.0108,1.286.1332.1626.4789.2331,1.1557.2341q2.75.0044,5.5053,0c3.4524-.002,7.0272-.0039,10.5414.02.9118.0059,1.2752-.28,1.5269-1.2311,3.0009-11.33,6.09-22.84,9.0771-33.97l1.1156-4.1556c.3967-1.477.808-2.9481,1.22-4.42Zm31.0209,50.86c-.09,0-.1861-.0039-.288-.0127h0a26.6006,26.6006,0,0,0-3.8177-.004,1.197,1.197,0,0,1-1.5054-1.4554c.0333-6.7471.03-13.6069.0275-20.2415L64.57,76.8358l.001-8.9871c.001-12.5864.0029-25.6-.0255-38.4a1.7621,1.7621,0,0,1,.3673-1.3559,1.5542,1.5542,0,0,1,1.237-.2655,32.1006,32.1006,0,0,0,3.5543.0333l.6454-.0166a1.0935,1.0935,0,0,1,.8629.2605.9426.9426,0,0,1,.1753.7845,3.7577,3.7577,0,0,0-.01.56c.0029.0936.0059.1866.0059.28l-.001,55.7745c-.001,12.7353-.0029,25.9044.0255,38.8562a1.677,1.677,0,0,1-.3575,1.2918A1.2517,1.2517,0,0,1,70.1557,125.9239Zm-2.13-.5837c.6552,0,1.28.0235,1.8814.0715h0a1.0976,1.0976,0,0,0,.8031-.1293c.1391-.1283.1979-.4045.1969-.9217-.0284-12.9537-.0264-26.1228-.0255-38.8581l.001-55.7745c0-.0877-.0029-.1763-.0059-.2645a4.21,4.21,0,0,1,.0137-.6351.5612.5612,0,0,0-.0489-.3874c-.0627-.0695-.2175-.1043-.48-.096l-.6435.0167a32.4245,32.4245,0,0,1-3.6091-.0353c-.4476-.0382-.716.0054-.856.1347-.1479.1361-.2077.4221-.2057.9863.0284,12.8.0264,25.8148.0254,38.4012l-.0009,30.4852.0019,5.8764c.003,6.6346.0059,13.4963-.0274,20.2435-.002.44.0568.7.1851.8217.1244.1175.3624.1567.7875.1322C66.7228,125.3627,67.3888,125.34,68.0255,125.34Zm-6.0881.4848c-.0626,0-.1292-.002-.1988-.0059q-1.0621-.06-2.1243-.1166A118.61,118.61,0,0,1,47.6106,124.65a27.8985,27.8985,0,0,1-5.5728-1.3359,1.6819,1.6819,0,0,1-1.2272-1.7855c.0342-10.3455.0274-20.8634.0215-31.0356l-.0029-2.6473a1.2356,1.2356,0,0,1,.2409-.9471,1.2064,1.2064,0,0,1,.8727-.26c6.6178.0686,13.1828.095,19.5147.0735a1.7963,1.7963,0,0,1,1.28.34,1.6552,1.6552,0,0,1,.336,1.2527c-.051,4.4632-.0441,9.0027-.0373,13.3925q.0045,2.3153.0049,4.6326l-.0019,4.3711q-.003,6.89.0166,13.7813a1.4293,1.4293,0,0,1-.283,1.094A1.1527,1.1527,0,0,1,61.9374,125.825ZM41.9124,87.14a.7391.7391,0,0,0-.4887.1136c-.096.095-.094.3232-.0931.5876l.003,2.65c.0058,10.1732.0127,20.692-.0216,31.0385a1.19,1.19,0,0,0,.903,1.3144,27.4106,27.4106,0,0,0,5.474,1.31,118.4154,118.4154,0,0,0,11.9517,1.048c.7091.0382,1.4172.0754,2.1263.1155a.964.964,0,0,0,.66-.1048c.1087-.1028.1292-.3545.1273-.7287q-.0309-6.8916-.0167-13.7842l.002-4.37q0-2.3169-.0049-4.6317c-.0069-4.3916-.0137-8.9332.0372-13.3993a1.2834,1.2834,0,0,0-.191-.8942c-.1342-.1351-.3947-.191-.8961-.191H61.46c-6.3339.0206-12.9018-.0049-19.5226-.0734ZM73.993,125.824a1.1071,1.1071,0,0,1-.808-.2429,1.4185,1.4185,0,0,1-.2889-1.0852c.0235-4.6444.02-9.2887.0186-13.9321l-.002-4.3349.003-4.5053c.0039-4.4289.0088-9.0086-.0255-13.5129a1.6587,1.6587,0,0,1,.3242-1.2527,1.609,1.609,0,0,1,1.18-.3281c5.6453.046,11.6227.05,19.3835.0069h.0284a1.4208,1.4208,0,0,1,1.0362.2928,1.3716,1.3716,0,0,1,.2958,1.0421c-.0343,12.5423-.0313,23.5176.0069,33.5517a1.7941,1.7941,0,0,1-1.4623,1.8736h-.001a39.3769,39.3769,0,0,1-9.0439,1.73l-.1146.0118c-2.2849.2527-4.614.3712-6.8666.4858-1.143.0578-2.285.1165-3.426.191Q74.1047,125.8239,73.993,125.824ZM74.35,87.1314a1.1374,1.1374,0,0,0-.7806.1812c-.13.13-.1812.39-.1772.8942.0342,4.5062.0293,9.0869.0254,13.5168l-.0029,4.5053.0019,4.3349c.002,4.6443.0049,9.29-.0186,13.9341-.0019.3555.02.6141.1313.7179a.9753.9753,0,0,0,.6689.1c1.144-.0754,2.2889-.1342,3.4338-.192,2.2448-.1146,4.567-.2331,6.8373-.4828l.1136-.0128a39.0082,39.0082,0,0,0,8.9313-1.7032c.7678-.2762,1.1331-.5563,1.13-1.4-.0382-10.035-.0411-21.0113-.0069-33.5556a1.0168,1.0168,0,0,0-.1478-.6855c-.1009-.1009-.3135-.146-.6876-.146H93.78c-7.7619.0431-13.74.04-19.3894-.0068Zm50.8393,33.8445c-.0558,0-.1146-.001-.1753-.0039h0c-1.5436-.0715-3.12-.0588-4.6473-.0421-1.2517.0117-2.5044.0117-3.7561.0068-1.5171-.0078-3.0851-.0127-4.6247.0216a1.3418,1.3418,0,0,1-1.58-1.1959c-2.96-11.1888-5.9686-22.3306-8.5209-31.7545a1.2315,1.2315,0,0,1,.0362-1.0626,1.2547,1.2547,0,0,1,1.03-.3076c4.564.0333,9.4611.0373,15.4061.0049h.0216c.8893,0,1.233.2919,1.4123,1.192,2.1292,10.7343,4.3,21.37,6.3975,31.6555.0979.478.1586.8982-.09,1.189A1.1218,1.1218,0,0,1,125.1888,120.9759Zm-.1518-.5054c.4662.0255.6249-.0519.6807-.1175.1009-.1175.0421-.4554-.0206-.763-2.0979-10.2857-4.2683-20.9222-6.3975-31.6575-.1391-.6993-.3046-.7943-.94-.7884-5.9441.0313-10.8441.0294-15.412-.0049-.431.001-.5877.06-.6288.1126s-.0647.2028.05.6249c2.5533,9.4239,5.5621,20.5667,8.5209,31.7574.1949.7306.4309.8482,1.0852.8227,1.5445-.0343,3.1155-.0294,4.6375-.0215,1.25.0039,2.4995.0049,3.7492-.0069,1.5337-.0166,3.1165-.0294,4.6757.0421Zm-100.61.4809h-.0088c-3.6611-.0157-7.32-.0147-11.0125-.0108l-3.8912.001,1.2507-6.2437c.7815-3.8991,1.5553-7.7658,2.3349-11.6315q.476-2.36.9588-4.7178c.7052-3.4613,1.4349-7.041,2.1146-10.5669.1635-.8492.5024-1.1381,1.34-1.1381h.0157c6.0655.0274,11,.0265,15.5305-.0049h.03a.878.878,0,0,1,.998,1.3075h0c-2.8609,10.5747-5.758,21.3355-8.609,31.9807l-.0216.0823C25.3417,120.4509,25.2115,120.9514,24.427,120.9514Zm-7.4759-.5132q3.7448,0,7.469.0118h.0079c.3966,0,.4338-.144.5445-.5671l.0225-.0852c2.8511-10.6462,5.7472-21.407,8.6091-31.9827h0c.1018-.3771.0773-.5152.0391-.5651s-.1488-.1136-.58-.11c-4.5347.0313-9.47.0313-15.5364.0049-.55-.002-.7365.0832-.8619.7306-.68,3.53-1.4093,7.1105-2.1155,10.5728q-.48,2.3578-.9579,4.7178c-.78,3.8647-1.5533,7.7315-2.3349,11.6295L10.1256,120.44l3.28-.001Q15.1832,120.4377,16.9511,120.4382Zm16.2955-35.203c-.3242,0-.6611-.0284-.9931-.0568-.32-.0264-.6386-.0539-.9373-.0539h-.01c-1.3565.004-2.713,0-4.0715-.0029-2.9783-.0059-6.0625-.0117-9.0918.0353-.5857.0019-.9226-.0892-1.1126-.3311a1.3,1.3,0,0,1-.0559-1.1478,11.3155,11.3155,0,0,0,.2106-1.3017,4.32,4.32,0,0,1,.8286-2.5435c.6092-.6112,1.6552-.4927,2.663-.3771a7.81,7.81,0,0,0,1.2223.0882c1.19-.0226,2.3819-.0167,3.5709-.0118q.764.003,1.527.0039l2.08.003c1.999.0058,3.996.0088,5.9911-.0147a1.1,1.1,0,0,1,.9735.3212,1.0143,1.0143,0,0,1-.0744.95h0a2.8761,2.8761,0,0,0-.1636.55c-.0274.1234-.0558.2468-.092.3663a7.9527,7.9527,0,0,0-.2038,1.047,2.9521,2.9521,0,0,1-.9118,2.1586A2.4057,2.4057,0,0,1,33.2466,85.2352Zm-1.9314-.6121c.3163,0,.6542.0284.98.0558a3.47,3.47,0,0,0,2.0224-.1782c.4682-.3125.5779-1.0431.6945-1.8159a8.1378,8.1378,0,0,1,.2193-1.1155c.0324-.11.0578-.2223.0833-.334a3.2681,3.2681,0,0,1,.1959-.6474h0c.1655-.3653.1165-.4593.1106-.4691-.0107-.0167-.1145-.0931-.5474-.0931-1.999.0216-4,.02-5.998.0147l-2.0792-.0029q-.764,0-1.5289-.0039c-1.189-.0049-2.3751-.0108-3.5592.0117a11.7062,11.7062,0,0,1-1.2879-.0911c-.8932-.1008-1.8139-.2047-2.2527.2331a3.97,3.97,0,0,0-.6856,2.2507,11.4191,11.4191,0,0,1-.2223,1.3614c-.0627.2488-.1342.5935-.0372.715.0539.0685.23.142.712.141,3.0343-.047,6.1214-.0411,9.1007-.0352,1.3565.0019,2.7091.0058,4.07.0029Zm30.59.5573h-.06c-2.4231-.0333-4.8883-.0284-7.2712-.0226l-2.9157.004v-.0343l-2.4-.0039c-2.3486-.0069-4.7766-.0108-7.1605.0225a1.379,1.379,0,0,1-1.0421-.2919,1.2339,1.2339,0,0,1-.238-.9892,31.1186,31.1186,0,0,0,.0049-3.3251h0a.982.982,0,0,1,.2116-.7718,1.0763,1.0763,0,0,1,.82-.2428c7.4171.0195,14.0007.0176,20.1269-.003a1.1789,1.1789,0,0,1,.8511.2576,1.1335,1.1335,0,0,1,.2224.8452,31.8083,31.8083,0,0,0,.0049,3.3261A.9785.9785,0,0,1,61.9051,85.18Zm-4.6835-.5269c1.5386,0,3.093.0048,4.63.0254.3428.002.53-.0352.614-.1234a.8222.8222,0,0,0,.0921-.5729,32.6092,32.6092,0,0,1-.0049-3.379.7033.7033,0,0,0-.0823-.476.768.768,0,0,0-.4877-.1038c-6.1292.0205-12.7118.0205-20.1308.0029-.2547,0-.3986.0284-.4574.0891a.5991.5991,0,0,0-.0705.4026,31.4346,31.4346,0,0,1-.0069,3.38.8594.8594,0,0,0,.1019.61c.093.0989.3193.1361.6709.1361,2.3917-.0323,4.8226-.0274,7.1693-.0225l2.901.0039V84.66l2.4133-.0039C55.4469,84.6544,56.3323,84.6535,57.2216,84.6535Zm16.8145.4946a1.2271,1.2271,0,0,1-.9118-.2772,1.247,1.247,0,0,1-.2282-.9579,23.9237,23.9237,0,0,0-.001-3.1929,1.16,1.16,0,0,1,.2184-.9157,1.2905,1.2905,0,0,1,1.02-.2831c7.5542.0284,13.8273.0265,19.7429-.0049a1.2826,1.2826,0,0,1,1.0216.3,1.3021,1.3021,0,0,1,.236,1.001,21.1037,21.1037,0,0,0,.0039,3.0656h0a1.2063,1.2063,0,0,1-.2252.9666,1.4185,1.4185,0,0,1-1.0754.2948c-2.4015-.0284-4.8462-.0254-7.2065-.02l-2.6014.003L81.38,85.1236c-2.3858-.0049-4.8539-.0108-7.2809.0245Zm.0715-5.1253c-.3624,0-.5455.0362-.6268.1244a.7619.7619,0,0,0-.0862.5367,24.4188,24.4188,0,0,1,.0029,3.2605c-.02.31.0089.4955.09.58a.895.895,0,0,0,.6034.1224c2.4318-.0353,4.9039-.0294,7.29-.0245l2.6483.0039,2.6-.0029c2.3633-.0059,4.8089-.0078,7.2133.02.41.0068.6112-.0363.7033-.1352a.8187.8187,0,0,0,.092-.5837h0a21.5635,21.5635,0,0,1-.0039-3.138c.0206-.3311-.0117-.53-.1018-.6249-.0911-.0979-.2919-.143-.6308-.143H93.879c-5.9166.0323-12.1927.0333-19.7479.0049ZM102.3,85.1471a1.2943,1.2943,0,0,1-1.4878-1.1263h0c-.3016-1.3556-.5719-2.38-.8765-3.32a1.0185,1.0185,0,0,1,.0117-.8942,1.0544,1.0544,0,0,1,.8883-.2791c5.0626.0157,10.3857.0147,16.272.001.5573-.0127,1.0754.0725,1.2056.9823.143.99.3575,1.9657.5838,2.999.094.4309.19.8687.283,1.3163l.0617.3017-8.2163-.003c-2.8481-.0019-5.7922-.0088-8.6873.0226Zm-.9981-1.236c.1293.5778.3879.74,1.03.7345,2.8981-.0313,5.8441-.0254,8.6932-.0225l7.6.0029c-.0725-.3418-.146-.6777-.2184-1.01-.2292-1.0421-.4447-2.0264-.59-3.0343-.0715-.4985-.1969-.5523-.6964-.5523h-.0127c-5.8873.0146-11.21.0137-16.2749-.001-.4123-.0069-.4652.0509-.4819.0734-.0059.0079-.0539.0882.0617.4437.3085.9569.5828,1.9941.8883,3.3653ZM61.57,77.9964h-.0578c-6.041-.0441-12.3475-.0451-19.2758-.0029a1.4948,1.4948,0,0,1-1.15-.3046,1.3965,1.3965,0,0,1-.2792-1.0842c.0519-1.6112.0441-3.2537.0363-4.8423-.004-.9128-.0079-1.8256-.002-2.7384.0059-.858-.1851-1.2037-.7022-1.2762-.5632-.0871-.7561.27-.9755,1.0852l-.2449.9158c-.6239,2.3222-1.2683,4.7237-1.856,7.0968a1.2922,1.2922,0,0,1-1.474,1.1459h-.0245c-5.3319-.0343-10.6324-.0264-16.0427-.0118l-.098.001c-.4045-.0049-.7316.0039-.9382-.2478-.1675-.2037-.1949-.5093-.09-1.02,2.2448-10.9244,4.4269-21.8575,6.6511-33.03.714-3.5871,1.4055-7.1791,2.097-10.7711q.5069-2.6392,1.0185-5.2775a9.8421,9.8421,0,0,1,4.5044-6.9161,3.9443,3.9443,0,0,1,.38-.1964l.6131-.3.0039,20.2978c.0049,1.5049.0108,3.0617-.0147,4.5925a1.2321,1.2321,0,0,0,.2527.9157,1.3341,1.3341,0,0,0,1.0117.2586c2.4055-.0509,4.3447-.05,6.1076.0049a1.4153,1.4153,0,0,0,1.05-.2566,1.4818,1.4818,0,0,0,.2928-1.0921q-.022-6.5633-.0166-13.126-.003-7.1187-.0216-14.2372a1.7086,1.7086,0,0,1,1.2272-1.8732c1.9422-.7644,3.9069-1.6072,6.0067-2.5763a1.2487,1.2487,0,0,1,.9481-.142,1.2745,1.2745,0,0,1,.6082.7732c.8129,1.9726,1.6425,3.9387,2.4721,5.9049.9647,2.2869,1.9627,4.6522,2.9167,6.99a1.59,1.59,0,0,0,1.806,1.185c.5827-.0382,1.1733-.0284,1.7443-.0176.571.0093,1.1636.02,1.7346-.0191a1.2111,1.2111,0,0,1,.9715.2341A1.365,1.365,0,0,1,63.0579,29.1c-.0245,3.9059-.0216,7.8122-.0186,11.7186l.0019,3.8276-.0019,7.0351c-.003,8.13-.0059,16.5373.03,24.8055A1.2344,1.2344,0,0,1,61.57,77.9964Zm-9.58-.5357c3.2762,0,6.4348.0117,9.5258.0342.5054-.0058.7453-.046.8717-.1714s.1821-.3829.18-.8344c-.0363-8.2692-.0333-16.6774-.03-24.8075l.002-7.0351-.002-3.8271c-.0029-3.9073-.0059-7.8152.0186-11.7221.003-.3927-.0391-.6-.1381-.6939a.8235.8235,0,0,0-.5935-.0989c-.5945.0406-1.1968.03-1.7786.02-.56-.01-1.14-.02-1.7022.0166a2.07,2.07,0,0,1-2.3036-1.496c-.953-2.3354-1.95-4.6988-2.9147-6.9847-.8306-1.9671-1.66-3.9348-2.474-5.9088-.1254-.3041-.2263-.4574-.3271-.4975a.8787.8787,0,0,0-.5554.1307c-2.1086.9731-4.0821,1.8193-6.0322,2.5871a1.23,1.23,0,0,0-.91,1.405q.0279,7.1193.0215,14.2387.0015,6.5625.0167,13.1246a1.9193,1.9193,0,0,1-.4447,1.4534,1.8856,1.8856,0,0,1-1.4152.3987c-1.7522-.0549-3.6846-.0549-6.0812-.0049a1.8,1.8,0,0,1-1.3761-.4045,1.6824,1.6824,0,0,1-.4005-1.2792c.0254-1.5269.02-3.08.0146-4.5826L33.1584,38.64V21.024a2.4763,2.4763,0,0,0-.2282.12A9.3683,9.3683,0,0,0,28.6541,27.73q-.5112,2.637-1.0176,5.2761c-.6924,3.5929-1.3839,7.1859-2.0979,10.7745-2.2242,11.1731-4.4064,22.1072-6.6512,33.0326-.094.4593-.0352.5768-.0147.6013.0559.0666.3144.0647.5475.0647l.1-.001c5.4142-.0127,10.7128-.0225,16.0487.0117.6483.0059.856-.1528,1.0088-.7659.5886-2.377,1.233-4.7805,1.8569-7.1056l.2458-.9148c.1607-.6013.4173-1.6091,1.5289-1.4534,1.1449.1606,1.1371,1.2938,1.1342,1.7776h0c-.0059.9109-.002,1.8217.0019,2.7326.0079,1.5925.0157,3.24-.0362,4.86a1.033,1.033,0,0,0,.1371.7189c.1087.1107.3066.1606.7875.1528C45.62,77.4714,48.8584,77.4607,51.9905,77.4607Zm48.2135.5308c-.8315,0-1.1048-.41-1.2761-1.0715h0c-.72-2.7776-1.4662-5.5464-2.1019-7.8872a3.4907,3.4907,0,0,0-.4289-1.0538.5514.5514,0,0,0-.6886-.2155c-.4231.17-.5955.477-.5935,1.0587q.01,2.5666.0049,5.1331l-.001,1.8335c-.001,2.0822-.1038,2.1841-2.1929,2.1841l-4.566-.002c-4.5787-.0039-9.3122-.0058-13.9664.02a1.6521,1.6521,0,0,1-1.188-.3065,1.4951,1.4951,0,0,1-.32-1.1185c.0382-15.4551.0382-31.399.001-47.39a1.1348,1.1348,0,0,1,1.45-1.37c.5083.0367,1.0333.0249,1.5416.0137a16.5673,16.5673,0,0,1,1.6924.023c.9932.0813,1.5034-.2708,1.94-1.3482.8747-2.1674,1.7992-4.3564,2.6924-6.4729.8414-1.9921,1.7111-4.0518,2.5377-6.0885a1.4645,1.4645,0,0,1,.7326-.9167,1.5306,1.5306,0,0,1,1.1763.1866c1.5612.73,3.6277,1.6728,5.7765,2.497a1.6919,1.6919,0,0,1,1.1979,1.8937q-.0324,10.7825-.0186,21.5646l.0009,5.6752c0,1.4388,0,1.4388,1.4319,1.44.6327.0058,1.2057-.004,1.807-.0089,1.3653-.01,2.7806-.0205,4.1714.0275a1.3441,1.3441,0,0,0,1.0166-.2429,1.5173,1.5173,0,0,0,.285-1.1175c-.0274-6.11-.0245-12.0845-.0216-18.4095l.002-6.3167.3673.1914a9.4684,9.4684,0,0,1,5.0851,7.0469c1.4319,7.8485,3.0489,15.7969,4.612,23.4838.8717,4.2859,1.7737,8.7178,2.6327,13.083l.2174,1.1c.7522,3.8207,1.5308,7.7716,2.3418,11.6481.0842.4065.1342.7365-.0568.9706a1.107,1.107,0,0,1-.8609.2586c-5.803-.0314-11.1722-.0314-16.4149.0039ZM95.9357,67.216a1.0572,1.0572,0,0,1,.8747.4789,3.9271,3.9271,0,0,1,.4995,1.2067c.6356,2.3427,1.3829,5.1125,2.1037,7.8931h0c.1372.5337.2606.6787.8041.6953,5.2487-.0342,10.6188-.0352,16.4208-.0039.3977-.0068.46-.0617.47-.0744.0558-.0676-.0177-.4192-.0461-.5514-.8109-3.8785-1.59-7.8314-2.3427-11.6531l-.2165-1.1c-.8589-4.3633-1.76-8.7952-2.6317-13.08-1.5641-7.6893-3.1821-15.64-4.6149-23.4936a8.8612,8.8612,0,0,0-4.4573-6.492l-.002,5.48c-.0029,6.3245-.0059,12.2984.0216,18.4075a1.9328,1.9328,0,0,1-.4378,1.4789,1.7875,1.7875,0,0,1-1.383.3849c-1.3809-.048-2.7884-.0372-4.1507-.0274-.6033.0049-1.2067.0147-1.81.0088-1.7345-.001-1.9333-.2008-1.9333-1.9412l-.001-5.6752q-.003-10.7826.0186-21.5661c.002-.7512-.1244-1.1356-.8766-1.4241-2.1635-.8295-4.24-1.7776-5.8079-2.5107-.3937-.1836-.6278-.2355-.7816-.1743-.1557.0612-.3.2639-.4515.6385-.8276,2.04-1.6983,4.1013-2.54,6.0949-.8932,2.1151-1.8168,4.3021-2.69,6.4661a2.1777,2.1777,0,0,1-2.4456,1.66,16.3733,16.3733,0,0,0-1.6405-.0211c-.5191.0108-1.0578.0216-1.5876-.0146-.4036-.0289-.6318.0058-.7434.11-.1166.1088-.17.35-.1695.7586.0373,15.9918.0373,31.9366-.0009,47.3918a1.11,1.11,0,0,0,.1723.7629,1.2955,1.2955,0,0,0,.8325.16c4.6562-.0265,9.3906-.0226,13.9684-.02l4.566.0019c1.6905,0,1.6905,0,1.6915-1.6826l.0009-1.8335q.0015-2.565-.0049-5.1311a1.4563,1.4563,0,0,1,.908-1.5259A1.1036,1.1036,0,0,1,95.9357,67.216ZM37.1025,44.9471a2.4661,2.4661,0,0,1-1.59-.4191c-.7287-.5985-.5886-1.7826-.4534-2.9285a11.2515,11.2515,0,0,0,.1038-1.2938q-.0206-4.6836-.0137-9.3671c0-3.4289,0-6.8578-.0177-10.2862v0a1.59,1.59,0,0,1,1.1636-1.7835c.9559-.3419,1.8912-.7635,2.88-1.21.4319-.1949.8746-.3942,1.335-.5945l.3506-.1523-.001,5.9857c-.0019,7.0282-.0029,13.9458.0186,20.8624a1.0632,1.0632,0,0,1-.2507.8207,1.1655,1.1655,0,0,1-.8707.2194,12.4075,12.4075,0,0,0-1.41.0715C37.9282,44.9089,37.5031,44.9471,37.1025,44.9471ZM35.6334,20.6494c.0176,3.43.0176,6.8593.0176,10.2892q0,4.6821.0137,9.3652a11.5659,11.5659,0,0,1-.1077,1.3545c-.12,1.0117-.2419,2.0577.2733,2.4818a3.8519,3.8519,0,0,0,2.473.2321,13.0458,13.0458,0,0,1,1.471-.0734c.2841.0127.4388-.0128.5054-.0774a.6993.6993,0,0,0,.098-.4593c-.0216-6.9176-.0206-13.8357-.0186-20.8644l.0009-5.2193c-.3339.1474-.6581.2938-.9774.4378-.999.45-1.9432.8756-2.9187,1.2242-.6562.2346-.8344.5162-.8305,1.309Zm64.173,24.16q-.0647,0-.1352-.0029c-1.0783-.0529-2.2477-.0529-3.5758-.002a1.0471,1.0471,0,0,1-.7757-.21,1.09,1.09,0,0,1-.24-.808c.0147-7.1992.0138-14.3984.0128-21.6984V16.913l1.7668.7619c1.1048.4795,2.141.928,3.1861,1.3526a1.1817,1.1817,0,0,1,.7649,1.283c-.0157,9.4151-.0137,16.6128.0059,23.3379a1.2328,1.2328,0,0,1-.2713.93A1.005,1.005,0,0,1,99.8064,44.809Zm-1.8511-.5435c.6092,0,1.187.0127,1.74.0391a.7259.7259,0,0,0,.5034-.0891c.0794-.0764.1166-.2556.1156-.5651-.02-6.7261-.0216-13.9248-.0059-23.3408.001-.4471-.0617-.66-.4515-.8174-1.05-.426-2.0881-.876-3.1978-1.3569l-1.0656-.46v4.4123c.001,7.3005.002,14.5-.0127,21.6993,0,.2429.0284.3889.0872.4457a.6089.6089,0,0,0,.4084.0705C96.7389,44.2782,97.3628,44.2655,97.9553,44.2655ZM59.0394,26.3134a1.4433,1.4433,0,0,1-1.4878-1.07c-1.6062-3.9152-3.3251-8.0169-5.2535-12.54a2.3981,2.3981,0,0,1-.0079-2.0769c.6749-1.5337,1.3174-3.0881,1.9971-4.733.2683-.6513.5435-1.3178.8305-2.0043l.2419-.58.2233.5876c.3859,1.0117.77,1.9985,1.1479,2.9686.8893,2.283,1.73,4.44,2.4789,6.6526a8.7032,8.7032,0,0,0,2.9441,4.2566c1.6523,1.2967,3.23,2.7355,4.756,4.1272l.2253.2057a1.056,1.056,0,0,0,1.7012-.0123c1.9216-1.7174,4.0362-3.5631,6.4641-5.6414a3.2748,3.2748,0,0,0,.8737-1.4627c.904-2.3966,1.807-4.7937,2.7384-7.2692l1.6748-4.4451,1.0235,2.4726c.8,1.9314,1.5612,3.7668,2.3114,5.6061a1.1925,1.1925,0,0,1-.1273.9843l-.0666.1494-.9315,2.2159C81.3278,18.1975,79.8088,21.81,78.35,25.377a1.4181,1.4181,0,0,1-1.5651.9275c-4.3094-.0568-8.0889-.0886-11.5541-.0964-2.1792-.0044-4.1625.0284-6.0733.1028C59.1177,26.3124,59.0785,26.3134,59.0394,26.3134Zm-6.52-15.5864.2292.1009a1.8934,1.8934,0,0,0,.0108,1.6782c1.9294,4.5254,3.6493,8.63,5.2565,12.5467a.9746.9746,0,0,0,1.1224.7566c1.9177-.0744,3.9078-.11,6.0949-.1028,3.4661.0078,7.2476.04,11.558.0965.6229.0225.8775-.0833,1.095-.6161,1.4593-3.5689,2.9793-7.1825,4.4485-10.677l1.0039-2.3795c.1185-.2576.1851-.4256.1194-.5862-.75-1.8388-1.51-3.6733-2.31-5.6037l-.5387-1.3L79.3827,7.898c-.9324,2.4754-1.8354,4.873-2.74,7.27a3.7654,3.7654,0,0,1-1.0156,1.6664c-2.426,2.0764-4.5367,3.9191-6.4553,5.6346a1.5448,1.5448,0,0,1-2.3741.0083l-.2253-.2057c-1.519-1.3854-3.09-2.8177-4.7276-4.1027a9.1876,9.1876,0,0,1-3.1086-4.4906c-.7464-2.2017-1.5847-4.3535-2.4721-6.6316q-.4569-1.1739-.9245-2.3849-.3012.7249-.5887,1.4231c-.6807,1.6479-1.3241,3.2041-2.0019,4.7433Zm15.4169,9.8377c-.0215,0-.0431-.001-.0646-.0029a1.0625,1.0625,0,0,1-.7277-.4824.52.52,0,0,0-.1224-.1107A19.5882,19.5882,0,0,1,58.724,7.9416a30.7825,30.7825,0,0,0-1.3594-3.785c-.241-.5911-.4839-1.188-.714-1.7977l-.1283-.3394H79.4317L78.3338,4.946c-1.2507,3.3335-2.4681,6.58-3.7061,9.8181a2.3774,2.3774,0,0,1-.7209.8668l-.0685.06c-.61.5387-1.2243,1.072-1.8384,1.6058-1.0548.9162-2.1459,1.8633-3.1929,2.82A1.3823,1.3823,0,0,1,67.9363,20.5647ZM57.249,2.521c.189.4882.3859.9691.5808,1.4461a31.4885,31.4885,0,0,1,1.38,3.8471A19.11,19.11,0,0,0,67.2968,19.55a1.0143,1.0143,0,0,1,.2448.2233c.14.1822.2655.28.3732.289.1322.01.3046-.0892.5534-.3159,1.0528-.9608,2.1459-1.91,3.2026-2.8281.6131-.5327,1.2272-1.0655,1.8364-1.6032l.07-.0613a2.0474,2.0474,0,0,0,.5827-.6684c1.238-3.2379,2.4544-6.4832,3.7042-9.8152l.8442-2.2492Z"/></svg>