<svg id="Layer_1" data-name="Layer 1" xmlns="http://www.w3.org/2000/svg" width="136" height="128" viewBox="0 0 136 128"><defs><style>.cls-1{fill:#757577;}.cls-2{fill:#f37a20;}</style></defs><path class="cls-1" d="M48.4094,127.6968a8.3805,8.3805,0,0,1-1.4038-.1181c-1.43-.11-1.81-1.6519-1.9718-2.3115a5.6741,5.6741,0,0,1-.0679-1.4038l-.005-4.2508c-.0019-6.5957-.0049-13.3056.0158-19.84a2.95,2.95,0,0,0-.0148-.3721h-.001c-.0334,0-.1181-.0256-.2569-.0512a9.2522,9.2522,0,0,1-6.2906-4.2863c-1.264-2.02-2.461-4.0933-3.66-6.1684l-.6812-1.1774a2.4949,2.4949,0,0,0-.9264-.9175c-1.6351-.9333-3.2575-1.8862-4.8808-2.8391L26.549,82.9542a10.2658,10.2658,0,0,1-5.3346-9.37l-.01-2.88c-.0069-1.6105-.0128-3.222-.0069-4.8326a1.7259,1.7259,0,0,0-.26-.9007c-1.3093-2.2662-2.591-4.5127-3.858-6.766a10.22,10.22,0,0,1,.0148-10.6733c1.2473-2.2238,2.529-4.4693,3.8245-6.706a2.0508,2.0508,0,0,0,.2786-1.0386c-.0069-2.6264-.0069-5.2539.0355-7.88a10.082,10.082,0,0,1,5.3523-9.12l2.6177-1.5308c1.3162-.7728,2.6323-1.5455,3.9574-2.3026a2.44,2.44,0,0,0,.9057-.9037q1.93-3.3712,3.917-6.7109A10.1524,10.1524,0,0,1,47.299,6.1189c.6851.005,1.4057.002,2.1273-.0059A25.4065,25.4065,0,0,0,55.47,5.9624a24.881,24.881,0,0,0,5.2155-2.8509c.7128-.4381,1.3753-.8132,2.0506-1.1676A11.592,11.592,0,0,1,67.9623.6819a11.27,11.27,0,0,1,5.1171,1.202c2.3459,1.201,4.6692,2.5054,6.9117,3.8806a1.9954,1.9954,0,0,0,1.2463.3505c2.5881-.02,5.1831-.0128,7.7711.0167a9.9868,9.9868,0,0,1,9.0007,5.1467c1.3261,2.208,2.6344,4.4624,3.93,6.7246a2.5475,2.5475,0,0,0,.948.9481c2.279,1.3014,4.557,2.6176,6.8064,3.9771a10.1042,10.1042,0,0,1,5.123,9.14c.0049.4883.0158,1.0159.0276,1.5436.0295,1.3624.0591,2.7712-.0414,4.171a7.5307,7.5307,0,0,0,1.3261,4.88c.696,1.0533,1.2955,2.1382,1.8743,3.1876.2777.5011.5543,1.0021.84,1.4963a10.5025,10.5025,0,0,1-.0148,11.0966l-1.5022,2.6343c-.7275,1.2818-1.455,2.5635-2.1973,3.8364a2.1083,2.1083,0,0,0-.29,1.0711c.0059,2.588,0,5.1771-.0325,7.7632a10.162,10.162,0,0,1-5.3632,9.234l-1.6135.9451q-2.5236,1.48-5.0561,2.9454a2.0716,2.0716,0,0,0-.7639.7679c-.571.9943-1.1508,1.9826-1.7306,2.969-.67,1.144-1.3408,2.2859-1.9955,3.4357a10.208,10.208,0,0,1-7.2129,5.379l.0039.1654.002,21.4351c.0029,1.1321.0059,2.2642-.0069,3.3963-.0246,2.1264-1.0357,3.1561-3.1817,3.2388a9.0821,9.0821,0,0,1-3.9329-.8013c-2.8991-1.2365-5.8327-2.4592-8.7673-3.6838q-3.299-1.3763-6.5948-2.76a1.2114,1.2114,0,0,0-1.0474-.0334c-2.724,1.1537-5.4262,2.2819-8.1275,3.4081q-4.1007,1.7128-8.1945,3.4357A8.7128,8.7128,0,0,1,48.4094,127.6968ZM46.8717,8.1252a8.15,8.15,0,0,0-7.1371,4.2114c-1.3369,2.2495-2.6373,4.4772-3.9191,6.7159a4.4606,4.4606,0,0,1-1.6548,1.6509c-1.3172.753-2.6275,1.5219-3.9368,2.2907l-2.657,1.5535a8.1033,8.1033,0,0,0-4.3177,7.3537c-.0423,2.6511-.0423,5.2667-.0354,7.8785a4.0639,4.0639,0,0,1-.5513,2.0584q-1.9359,3.3387-3.8285,6.7109a8.246,8.246,0,0,0-.0158,8.6355c1.2828,2.277,2.5606,4.5176,3.85,6.7512a3.7174,3.7174,0,0,1,.5454,1.9374c-.006,1.6115,0,3.2172.0068,4.8228l.0089,2.9257a8.2677,8.2677,0,0,0,4.3059,7.5743l1.75,1.0257c1.6164.949,3.2319,1.8961,4.8591,2.8254a4.5352,4.5352,0,0,1,1.6706,1.6578l.6832,1.1813c1.1872,2.0535,2.3725,4.1071,3.63,6.1153a7.249,7.249,0,0,0,4.934,3.3648A2.0885,2.0885,0,0,1,46.9928,99.78c-.0207,6.5307-.0177,13.2367-.0157,19.8324l.0019,4.33a3.9719,3.9719,0,0,0,.03.9293,1.8987,1.8987,0,0,0,.2825.7265,6.83,6.83,0,0,0,3.2181-.256c2.659-1.13,5.3947-2.2721,8.1315-3.414q4.0474-1.6893,8.091-3.3924a3.18,3.18,0,0,1,2.6915.0414c2.1461.9057,4.3433,1.8212,6.5406,2.7367,2.9385,1.2266,5.8771,2.4513,8.8058,3.7a6.8255,6.8255,0,0,0,3.0527.63c1.0789-.0414,1.2187-.1812,1.2305-1.2463.0128-1.12.01-2.2446.0069-3.3688l-.0019-21.439c-.0443-1.2916.4577-1.9512,1.4884-2.1185a8.2143,8.2143,0,0,0,5.9608-4.3788c.6822-1.203,1.3575-2.3528,2.0329-3.5026.5759-.9825,1.1527-1.965,1.72-2.9533a4.0848,4.0848,0,0,1,1.5071-1.51q2.5281-1.4589,5.0443-2.9395l1.643-.9608a8.1865,8.1865,0,0,0,4.3355-7.462c.0325-2.6176.0384-5.1969.0325-7.7751a4.1329,4.1329,0,0,1,.565-2.0919c.7383-1.265,1.4619-2.54,2.1865-3.8147L117.1,57.4031a8.4877,8.4877,0,0,0,.0246-9.0007l-.02-.0325c-.2943-.5109-.5808-1.0287-.8663-1.5455-.5611-1.015-1.1409-2.0644-1.7779-3.03a9.5185,9.5185,0,0,1-1.6686-6.1616c.0935-1.3.064-2.6619.0355-3.9781-.0109-.5375-.0227-1.074-.0266-1.6115a8.1265,8.1265,0,0,0-4.1258-7.3754c-2.2593-1.3645-4.5235-2.6728-6.79-3.9663a4.5774,4.5774,0,0,1-1.6972-1.6962q-1.9316-3.3756-3.924-6.7158a7.9507,7.9507,0,0,0-7.2425-4.1415C86.4067,8.1154,83.83,8.11,81.25,8.1311a4.2559,4.2559,0,0,1-2.3154-.65c-2.1963-1.3467-4.4743-2.6255-6.768-3.799a9.8813,9.8813,0,0,0-4.2035-.9844,10.3513,10.3513,0,0,0-4.2951,1.0327c-.6311.3317-1.2581.6871-1.8724,1.0612A26.5929,26.5929,0,0,1,56.1038,7.88l-.2186.0581a26.7013,26.7013,0,0,1-6.5425.186c-.63.0128-1.3655.0168-2.0979.01C47.12,8.1282,46.9958,8.1252,46.8717,8.1252ZM86.1645,122.4537l-5.48-2.276c-3.8-1.5751-7.5172-3.1168-11.2157-4.6978a3.2686,3.2686,0,0,0-2.8254-.0275c-3.4927,1.51-6.9806,2.9572-10.4675,4.4024L52.62,121.3314c-.3455.1418-.691.27-1.0287.3958l-.9992.37-.4272-.7324a2.3794,2.3794,0,0,1-.2924-1.5889v-5.9342c.001-4.7056.0029-9.4624-.0266-14.0912-.0108-1.7365,1.0445-2.0575,2.0781-2.1421a11.2022,11.2022,0,0,1,7.6383,2.05,32.1348,32.1348,0,0,0,3.0547,1.7956c.4.2166.7994.4331,1.1951.6537a7.9746,7.9746,0,0,0,8.2535.0807l1.1557-.632c1.47-.8014,2.9888-1.63,4.3985-2.5379a8.5957,8.5957,0,0,1,5.2155-1.4l.2107.0079c2.7131.0945,3.1217.5375,3.1217,3.3806ZM51.8628,99.64c-.001.0275-.001.061-.001.0984.03,4.6328.0276,9.3935.0266,14.103v5.6094l3.5154-1.459c3.478-1.4412,6.9561-2.8844,10.4114-4.3768a5.2371,5.2371,0,0,1,4.4841.0276c3.6533,1.5613,7.3636,3.099,11.1566,4.6721l2.6925,1.1164.0029-18.4247c0-.51,0-1.0357-.0354-1.2975-.2373-.0374-.695-.0532-1.141-.0689l-.2333-.0079a6.5387,6.5387,0,0,0-4.02,1.073c-1.4816.9549-3.0331,1.8015-4.5343,2.6206l-1.1223.6123a9.9447,9.9447,0,0,1-10.2706-.0906l-1.136-.62a34.3367,34.3367,0,0,1-3.2575-1.9216,9.1845,9.1845,0,0,0-6.2955-1.6893C52.0016,99.6246,51.9229,99.6325,51.8628,99.64Zm16.1664.7245a5.6511,5.6511,0,0,1-3.0822-.9135c-1.331-.78-2.7112-1.5653-4.0914-2.3489-1.0848-.6182-2.17-1.2345-3.25-1.8606a3.4141,3.4141,0,0,0-1.7582-.4686c-1.5249.0039-3.035,0-4.5461-.01q-1.99-.0088-3.9821-.0118A5.6167,5.6167,0,0,1,42.04,91.6723c-.6665-1.1813-1.3772-2.3862-2.088-3.5932-.693-1.1754-1.3861-2.3508-2.0574-3.538a4.2328,4.2328,0,0,0-1.6706-1.6263c-1.2276-.695-2.4237-1.3979-3.6208-2.1008-1.1557-.6793-2.3124-1.3585-3.478-2.02A5.5515,5.5515,0,0,1,26.1237,73.47c.0237-1.5633.0138-3.1777.005-4.7922-.0079-1.22-.0148-2.4395-.0069-3.6582a3.1544,3.1544,0,0,0-.447-1.6469c-.564-.9746-1.1124-1.94-1.66-2.9071-.8486-1.4973-1.6982-2.9956-2.5792-4.4752a5.6667,5.6667,0,0,1,.0571-6.3181c.8239-1.3763,1.641-2.8224,2.4591-4.2686.5591-.9874,1.1173-1.9757,1.6883-2.9572a3.3463,3.3463,0,0,0,.4824-1.7592c-.0089-1.3871-.002-2.7712.0059-4.1553.0078-1.454.0157-2.907.0039-4.3611A5.58,5.58,0,0,1,29.2257,26.9c1.2227-.6921,2.4788-1.4314,3.734-2.1707,1.1577-.6812,2.3154-1.3625,3.4829-2.026a3.5178,3.5178,0,0,0,1.3654-1.3565c.6517-1.1331,1.3093-2.2514,1.9659-3.3688.7807-1.327,1.56-2.654,2.3213-3.99a5.5891,5.5891,0,0,1,5.3317-2.9946c1.3477.0187,2.75.0088,4.1494,0,1.33-.01,2.66-.02,3.988-.002a4.1819,4.1819,0,0,0,2.2583-.5976c1.2866-.754,2.5733-1.4835,3.859-2.213,1.1518-.6527,2.3026-1.3053,3.4455-1.9708a5.3946,5.3946,0,0,1,5.8033.0167c1.3191.7659,2.6875,1.54,4.0549,2.3134q1.7483.9879,3.49,1.9866a3.4735,3.4735,0,0,0,1.6588.4568c1.51-.0088,3.0163-.001,4.5215.0079q2.0525.0119,4.108.01a5.5565,5.5565,0,0,1,5.1939,3.0213c.7482,1.3083,1.5338,2.6442,2.3193,3.981.67,1.14,1.3408,2.279,2,3.4249a3.16,3.16,0,0,0,1.2158,1.2089c1.2325.7058,2.4463,1.42,3.66,2.1342,1.2631.7433,2.5261,1.4865,3.798,2.213a5.4366,5.4366,0,0,1,2.9533,5.2353c-.0227.9263-.0167,1.898-.0108,2.8686l.0059,1.3192a12.4138,12.4138,0,0,0,2.5122,9.6061,23.0649,23.0649,0,0,1,1.2808,2.1638c.2776.5129.5542,1.0258.8624,1.519a5.7232,5.7232,0,0,1-.0227,6.4067c-.7934,1.3181-1.5495,2.6589-2.3065,4-.5769,1.0219-1.1548,2.0447-1.7474,3.0577a3.8286,3.8286,0,0,0-.569,2.0575c.0158,1.5514.0069,3.1009-.001,4.65-.0069,1.2551-.0138,2.51-.0079,3.7635a5.5506,5.5506,0,0,1-3.031,5.1879c-1.2591.7167-2.5468,1.4747-3.8354,2.2347-1.1557.6793-2.3124,1.3605-3.476,2.026a3.3756,3.3756,0,0,0-1.3024,1.28c-.7423,1.2956-1.4984,2.5812-2.2544,3.8669-.7019,1.1931-1.4028,2.3843-2.0919,3.5834A5.5624,5.5624,0,0,1,88.67,94.76c-1.5219-.0118-3.098-.0039-4.6741.0059-1.2985.0079-2.6.02-3.8964.01a2.8467,2.8467,0,0,0-1.5574.4115c-1.07.6182-2.1372,1.2226-3.2043,1.8291-1.43.8111-2.8618,1.6223-4.28,2.4551A5.5367,5.5367,0,0,1,68.0292,100.3649ZM92.14,90.8434c.7138-1.2423,1.4186-2.4414,2.1235-3.6384.7521-1.28,1.5042-2.5576,2.2405-3.8433a5.3684,5.3684,0,0,1,2.0644-2.0378c1.1439-.6556,2.2937-1.3309,3.4426-2.0082,1.2975-.7639,2.594-1.5259,3.9023-2.27a3.569,3.569,0,0,0,1.9718-3.3569c-.0069-1.3074,0-2.5694.0069-3.8315.0079-1.5386.0167-3.0773.001-4.615a5.8185,5.8185,0,0,1,.8545-3.1157c.5788-.9874,1.1508-2.0014,1.7227-3.0144.7709-1.3664,1.5417-2.7318,2.3509-4.0746l.0344-.0541a3.7116,3.7116,0,0,0,.0118-4.1839c-.3534-.564-.6507-1.1124-.948-1.6617a21.5841,21.5841,0,0,0-1.1281-1.9265,14.2416,14.2416,0,0,1-2.8962-10.9539l-.0168-1.1557c-.0069-.9923-.0128-1.9836.0118-2.9759a3.4626,3.4626,0,0,0-1.8921-3.3648c-1.327-.7561-2.5969-1.5043-3.8678-2.2514-1.2069-.71-2.4138-1.4206-3.6286-2.1156A5.1694,5.1694,0,0,1,96.5267,22.43c-.6537-1.1361-1.3211-2.27-1.9876-3.4042-.7905-1.3438-1.581-2.6885-2.3528-4.0411a3.6257,3.6257,0,0,0-3.3687-1.9679c-1.4225.0049-2.7978-.002-4.1731-.0089C83.1462,13,81.6469,12.9942,80.1466,13a5.1175,5.1175,0,0,1-2.6934-.7353c-1.14-.6567-2.3006-1.3133-3.46-1.9689-1.3752-.7777-2.75-1.5554-4.1139-2.3489a3.4071,3.4071,0,0,0-3.6985-.0187c-1.1892.694-2.346,1.3507-3.5037,2.0063-1.2787.7255-2.5575,1.45-3.8245,2.1933a5.915,5.915,0,0,1-3.3234.88c-1.3084-.0177-2.6246-.0088-3.94.002-1.4136.0088-2.83.0177-4.2439-.002a3.571,3.571,0,0,0-3.477,1.9394c-.7866,1.3831-1.5712,2.718-2.3557,4.0519-.6537,1.1124-1.3084,2.2258-1.9512,3.3441A5.5079,5.5079,0,0,1,37.43,24.4609c-1.15.6537-2.2987,1.33-3.4475,2.0063-1.266.7452-2.532,1.4914-3.8117,2.213a3.6066,3.6066,0,0,0-2.024,3.4278c.0137,1.5092.0059,2.9721-.002,4.4349-.0079,1.3763-.0148,2.7525-.0059,4.1278a5.3391,5.3391,0,0,1-.763,2.8017c-.5591.9618-1.1143,1.9433-1.67,2.9247-.8259,1.46-1.6518,2.9209-2.5142,4.3591a3.7044,3.7044,0,0,0-.0512,4.1612c.9155,1.5328,1.772,3.0439,2.6285,4.555.5443.9608,1.0887,1.9216,1.642,2.8775a5.1356,5.1356,0,0,1,.7265,2.6846c-.0079,1.2079-.001,2.42.0069,3.6316.0089,1.6292.0187,3.2584-.0069,4.8867a3.5777,3.5777,0,0,0,1.94,3.4652c1.2168.6891,2.3814,1.3743,3.547,2.0575,1.1872.6989,2.3744,1.3959,3.5725,2.0752a6.2089,6.2089,0,0,1,2.4492,2.3941c.6675,1.1814,1.3546,2.3469,2.0418,3.5105.7176,1.2188,1.4343,2.4355,2.1283,3.6661a3.6743,3.6743,0,0,0,3.4455,2.0161c1.38-.01,2.7171.002,4.051.01,1.5042.0119,3.0055.0158,4.5136.01h.0778a5.3487,5.3487,0,0,1,2.72.7442c1.0671.62,2.1471,1.2345,3.227,1.8488,1.389.79,2.7771,1.579,4.1553,2.3882a3.6363,3.6363,0,0,0,3.9889.0178c1.4688-.8624,2.9081-1.6775,4.3473-2.4946q1.5933-.9038,3.1827-1.8153a5.5439,5.5439,0,0,1,2.591-.6871c1.2827.01,2.5743-.004,3.8679-.01,1.5829-.0079,3.1689-.02,4.7528-.0039"/><path class="cls-1" d="M48.4094,128a8.5438,8.5438,0,0,1-1.454-.124c-1.6243-.1241-2.0535-1.8764-2.215-2.5359a5.9606,5.9606,0,0,1-.0758-1.5l-.0059-4.9931c-.002-6.35-.0039-12.7937.0158-19.0744,0-.0453,0-.0847-.001-.12l-.0246-.0059A9.5484,9.5484,0,0,1,38.1555,95.22c-1.2541-2.0043-2.464-4.0972-3.6335-6.1212L33.81,87.8685a2.1816,2.1816,0,0,0-.8141-.8053c-1.6027-.9155-3.1925-1.8488-4.7834-2.782L26.3964,83.216a10.5535,10.5535,0,0,1-5.4843-9.6435l-.01-2.8677c-.0069-1.6105-.0128-3.223-.0069-4.8345a1.4174,1.4174,0,0,0-.2146-.74c-1.3152-2.2751-2.5969-4.5225-3.8649-6.7769a10.5024,10.5024,0,0,1,.0207-10.9794c1.2059-2.151,2.4936-4.4083,3.8206-6.7a1.7508,1.7508,0,0,0,.2382-.886c-.0079-2.9346-.0049-5.3986.0354-7.8863A10.36,10.36,0,0,1,26.4427,22.52l2.6078-1.5249c1.3172-.7737,2.6343-1.5465,3.96-2.3045a2.1379,2.1379,0,0,0,.7924-.7915c1.2444-2.1727,2.5635-4.4319,3.92-6.7148a10.4548,10.4548,0,0,1,9.59-5.3672c.6695.0059,1.3891.001,2.11-.0059a25.288,25.288,0,0,0,6.0021-.1477,24.8825,24.8825,0,0,0,5.0836-2.7977c.7088-.4361,1.3851-.8211,2.086-1.1892A12.1524,12.1524,0,0,1,68.0607.3787a11.5212,11.5212,0,0,1,5.1545,1.2354c2.3538,1.205,4.686,2.5143,6.9344,3.8925a1.7242,1.7242,0,0,0,1.0455.3091c2.5546-.02,5.1692-.0157,7.8174.0138.06-.001.1221-.002.1831-.002a10.2494,10.2494,0,0,1,9.0775,5.3032c1.1557,1.9236,2.4059,4.0628,3.9289,6.7217a2.2441,2.2441,0,0,0,.8348.8358c2.0279,1.1577,4.423,2.5369,6.8132,3.9811a10.3886,10.3886,0,0,1,5.2687,9.4082c.005.4745.0158,1,.0276,1.5269.0295,1.3644.06,2.7751-.0423,4.2a7.2364,7.2364,0,0,0,1.2729,4.6849c.7137,1.08,1.3388,2.214,1.8911,3.2152l.06.1073c.256.4637.5129.9263.7767,1.3831a10.8057,10.8057,0,0,1-.0206,11.4087l-1.4954,2.6235c-.7275,1.2827-1.456,2.5654-2.1992,3.8393a1.8082,1.8082,0,0,0-.2491.9175c.0069,2.9907-.003,5.4587-.0325,7.7682a10.4408,10.4408,0,0,1-5.5217,9.4958l-1.6046.9412q-2.5236,1.48-5.0581,2.9454a1.7567,1.7567,0,0,0-.6516.6556c-.572.9963-1.1528,1.9846-1.7327,2.973l-.1082.1831c-.633,1.0809-1.266,2.1618-1.8852,3.2487a10.5027,10.5027,0,0,1-7.17,5.4774l.002,21.3524c.0029,1.1321.0059,2.2662-.0069,3.4-.0266,2.2918-1.1626,3.4475-3.4721,3.5361a9.1767,9.1767,0,0,1-4.0707-.8269c-2.7387-1.1695-5.5167-2.3272-8.2958-3.4869l-1.4284-.5965c-1.8773-.7837-3.7556-1.5653-5.63-2.3588a.916.916,0,0,0-.8043-.0354c-2.7318,1.1577-5.4341,2.2859-8.1364,3.4121l-.7343.3071q-3.7315,1.5564-7.4581,3.1266A9.0245,9.0245,0,0,1,48.4094,128ZM46.8264,6.41a9.809,9.809,0,0,0-8.5774,5.0728c-1.3614,2.29-2.6776,4.5461-3.92,6.7168a2.7486,2.7486,0,0,1-1.0189,1.016c-1.324.756-2.6392,1.5288-3.9535,2.3006L26.738,23.0473a9.77,9.77,0,0,0-5.2027,8.852c-.0394,2.4946-.0433,4.9557-.0354,7.8864a2.3585,2.3585,0,0,1-.32,1.1921c-1.325,2.2878-2.6117,4.5432-3.8216,6.7011a9.91,9.91,0,0,0-.0206,10.3681c1.2718,2.2612,2.5536,4.5067,3.8619,6.7719a2.0133,2.0133,0,0,1,.3,1.0514c-.006,1.6115,0,3.223.0068,4.8326l.01,2.8794a9.9523,9.9523,0,0,0,5.1762,9.1061l1.8261,1.071c1.5889.9313,3.1768,1.8646,4.7765,2.7781a2.7828,2.7828,0,0,1,1.0385,1.0278l.6813,1.1774c1.197,2.0732,2.404,4.16,3.6542,6.1606a8.953,8.953,0,0,0,6.0868,4.1484l.1732.0354H45.19l.07.27a3.0085,3.0085,0,0,1,.0187.4174c-.02,6.2807-.0177,12.7229-.0157,19.0705l.0049,5.0187a5.5258,5.5258,0,0,0,.064,1.3546c.2362.9608.6261,1.9767,1.6971,2.0594a8.2419,8.2419,0,0,0,4.0963-.3386c2.464-1.0435,4.9517-2.0831,7.4413-3.1227l.7344-.3071c2.7-1.1262,5.4026-2.2544,8.1256-3.4061a1.5286,1.5286,0,0,1,1.2965.0374c1.86.7855,3.7369,1.5692,5.6142,2.3528l1.4274.5946c2.7811,1.1616,5.56,2.3193,8.3087,3.4927a8.3888,8.3888,0,0,0,3.8078.7758c1.9708-.0748,2.8627-.9825,2.8853-2.9395.0128-1.13.01-2.26.0069-3.3924l-.0118-21.8506.253-.0472a9.9064,9.9064,0,0,0,6.9984-5.2175c.6271-1.1026,1.261-2.1855,1.896-3.2684l.1083-.185q.87-1.4767,1.73-2.9651a2.361,2.361,0,0,1,.8752-.88q2.534-1.4619,5.0541-2.9455l1.6135-.945a9.8491,9.8491,0,0,0,5.2136-8.9643c.0285-2.3174.0393-4.7834.0325-7.77a2.4084,2.4084,0,0,1,.3317-1.2246c.7413-1.2719,1.4678-2.5526,2.1953-3.8334l1.5023-2.6343a10.2069,10.2069,0,0,0,.0206-10.7865c-.2707-.47-.5286-.9352-.7875-1.4018l-.06-.1083c-.5729-1.04-1.1655-2.1136-1.8615-3.1679a7.8269,7.8269,0,0,1-1.3753-5.07c.0994-1.3949.07-2.7909.04-4.14-.0118-.5287-.0227-1.0583-.0276-1.5476a9.7984,9.7984,0,0,0-4.9694-8.88c-2.3922-1.4451-4.7834-2.8214-6.8074-3.9771a2.8444,2.8444,0,0,1-1.0612-1.0612c-1.521-2.655-2.7683-4.79-3.926-6.7188a9.6715,9.6715,0,0,0-8.7368-5c-2.6541-.0324-5.2678-.0364-7.7741-.0167a2.2829,2.2829,0,0,1-1.4078-.3957c-2.2327-1.3694-4.552-2.6718-6.89-3.8689a11.17,11.17,0,0,0-10.0669.06c-.6871.36-1.3526.7393-2.0309,1.1567A25.11,25.11,0,0,1,55.582,6.243a25.2069,25.2069,0,0,1-6.1832.1713c-.6911.0088-1.4147.0128-2.1018.0069C47.14,6.4133,46.982,6.41,46.8264,6.41Zm1.5614,119.5755a7.5224,7.5224,0,0,1-1.143-.0886l-.0856-.0137-.065-.0571c-.0975-.0827-.2176-.2521-.379-.88a4.2362,4.2362,0,0,1-.0374-1.0258l-.003-5.0758c-.0019-6.3476-.0039-12.7878.0158-19.0645a1.7953,1.7953,0,0,0-1.6834-2.1166A7.5535,7.5535,0,0,1,39.87,94.159c-1.2335-1.9708-2.4178-4.0184-3.5636-6.0011l-.7531-1.3014a4.2425,4.2425,0,0,0-1.5584-1.5476c-1.6283-.9293-3.2447-1.8763-4.8631-2.8273l-1.7494-1.0238A8.587,8.587,0,0,1,22.9273,73.61l-.0089-2.9129c-.0069-1.6057-.0128-3.2123-.0069-4.8248a3.4378,3.4378,0,0,0-.5-1.7769c-1.2955-2.2425-2.5733-4.4841-3.857-6.7621a8.56,8.56,0,0,1,.0217-8.9416c1.2729-2.2672,2.5615-4.5264,3.8245-6.705a3.76,3.76,0,0,0,.5109-1.9059c-.0078-2.9168-.0049-5.374.0355-7.8843a8.4149,8.4149,0,0,1,4.4772-7.6156l2.6471-1.5475c1.3093-.77,2.6206-1.5387,3.94-2.2928a4.1536,4.1536,0,0,0,1.5427-1.5387c1.28-2.2356,2.5624-4.4339,3.921-6.72a8.4758,8.4758,0,0,1,7.7839-4.35c.7167.005,1.4491.003,2.0782-.01A26.7223,26.7223,0,0,0,55.84,7.6389l.1861-.0512A26.1164,26.1164,0,0,0,61.62,4.5458q.9554-.5833,1.9078-1.0829a10.561,10.561,0,0,1,4.4231-1.0671,10.2426,10.2426,0,0,1,4.3522,1.0169c2.3016,1.1774,4.5855,2.4591,6.7906,3.8108a3.9392,3.9392,0,0,0,2.1343.6054h.0216c2.6285-.0226,5.1732-.0158,7.7771.0167a8.21,8.21,0,0,1,7.5024,4.2961c1.1892,1.9817,2.4374,4.1169,3.9229,6.7129a4.2634,4.2634,0,0,0,1.585,1.5839c2.0043,1.1449,4.3787,2.5113,6.7955,3.97a8.4428,8.4428,0,0,1,4.2715,7.6441c.0039.4637.0138.9382.0226,1.4137l.004.1821c.0285,1.3231.0581,2.6914-.0364,4.0057a9.1974,9.1974,0,0,0,1.6154,5.9666c.6458.9795,1.2266,2.03,1.7887,3.0469.29.5256.5759,1.0415.8693,1.5514a8.8186,8.8186,0,0,1-.0108,9.3453l-1.62,2.843c-.6911,1.2168-1.3831,2.4336-2.088,3.6415a3.8286,3.8286,0,0,0-.5237,1.9393c.0069,2.971-.003,5.4429-.0325,7.779a8.495,8.495,0,0,1-4.494,7.7239l-1.6341.9569q-2.5193,1.4766-5.0453,2.9395a3.7741,3.7741,0,0,0-1.3959,1.3979c-.5286.9214-1.0661,1.8389-1.6027,2.7544l-.1191.2028c-.6743,1.1479-1.35,2.2957-2.0309,3.4987A8.5134,8.5134,0,0,1,90.5955,97.77c-.6015.0965-1.2837.39-1.2355,1.8094l.002,21.4489c.0029,1.1242.0059,2.25-.0069,3.3727-.0138,1.2227-.2836,1.4963-1.521,1.5436a6.8115,6.8115,0,0,1-3.19-.6556c-2.7269-1.1636-5.4686-2.3076-8.2122-3.4515l-.5838-.2441c-2.1982-.9155-4.3955-1.8311-6.5416-2.7367a2.8556,2.8556,0,0,0-2.4492-.0453q-3.9516,1.6716-7.9,3.3116l-.2.0847c-2.7357,1.1419-5.4705,2.2819-8.1295,3.412A7.0213,7.0213,0,0,1,48.3878,125.9858Zm-.9195-.6674a6.4819,6.4819,0,0,0,2.9454-.2638c2.6363-1.12,5.3731-2.2642,8.1108-3.4062l.2-.0827q3.9456-1.6479,7.8893-3.3077a3.4437,3.4437,0,0,1,2.9415.0473c2.1313.8978,4.3286,1.8133,6.5248,2.7288l.5848.2442c2.7446,1.1459,5.4882,2.2917,8.223,3.4573a6.5172,6.5172,0,0,0,2.9257.6045c.9185-.0335.9274-.0434.9372-.9471.0128-1.1183.01-2.2406.0069-3.3648l-.002-21.439c-.0482-1.4038.5375-2.2209,1.7425-2.4178a7.9072,7.9072,0,0,0,5.7393-4.2154c.69-1.2167,1.3654-2.3685,2.0417-3.52l.1191-.2028c.5355-.9136,1.072-1.8271,1.6-2.7466a4.3819,4.3819,0,0,1,1.6184-1.6223q2.5266-1.4589,5.0423-2.94l1.643-.9609a7.9008,7.9008,0,0,0,4.1858-7.1922c.0286-2.344.0394-4.8139.0325-7.782a4.4369,4.4369,0,0,1,.6064-2.2455c.7039-1.206,1.394-2.42,2.0841-3.6355l1.6273-2.8549a8.2068,8.2068,0,0,0,.0315-8.6906c-.321-.5542-.6084-1.074-.8949-1.5918-.5621-1.017-1.137-2.0575-1.7651-3.01a9.7879,9.7879,0,0,1-1.7178-6.3516c.0925-1.2847.063-2.6383.0344-3.9476l-.0039-.1831c-.01-.4775-.02-.9549-.0226-1.4334a7.8491,7.8491,0,0,0-3.9722-7.1145c-2.4188-1.46-4.7893-2.8243-6.7907-3.9663a4.8945,4.8945,0,0,1-1.81-1.8084c-1.4825-2.593-2.7288-4.7253-3.92-6.7109A7.6473,7.6473,0,0,0,89.0341,8.45c-2.6146-.0335-5.1574-.0365-7.7819-.0168h-.0237a4.53,4.53,0,0,1-2.4532-.695c-2.19-1.3427-4.46-2.6176-6.7463-3.7871A9.6134,9.6134,0,0,0,67.9593,3a9.9506,9.9506,0,0,0-4.1523.9992c-.6222.3269-1.2473.6813-1.8537,1.05A26.6749,26.6749,0,0,1,56.215,8.1616l-.252.0689a26.9408,26.9408,0,0,1-6.6489.195c-.6.0128-1.3388.0167-2.0722.0108-.1319-.0059-.2511-.0089-.37-.0089A7.8113,7.8113,0,0,0,40,12.4813c-1.3625,2.2928-2.6433,4.4881-3.922,6.7218A4.7706,4.7706,0,0,1,34.31,20.9662c-1.3162.7521-2.6245,1.52-3.9328,2.2888L27.72,24.8084a7.8248,7.8248,0,0,0-4.1681,7.086c-.0394,2.5172-.0433,4.9714-.0354,7.8844a4.3765,4.3765,0,0,1-.5917,2.212c-1.262,2.1756-2.55,4.4319-3.8265,6.706a7.9675,7.9675,0,0,0-.0216,8.33c1.2876,2.2849,2.5654,4.5244,3.854,6.7571a4.0382,4.0382,0,0,1,.5858,2.089c-.0059,1.6115,0,3.2162.0069,4.8218l.0088,2.9267A7.989,7.989,0,0,0,27.6792,80.93l1.7591,1.03c1.6155.949,3.23,1.896,4.8563,2.8253a4.8307,4.8307,0,0,1,1.7828,1.7681l.7531,1.3034c1.1429,1.9767,2.3242,4.02,3.5538,5.9853a6.9639,6.9639,0,0,0,4.73,3.227,2.3963,2.3963,0,0,1,2.1805,2.7131c-.02,6.2768-.0177,12.715-.0157,19.0626l.0019,5.0975a3.84,3.84,0,0,0,.0256.882A3.11,3.11,0,0,0,47.4683,125.3184Zm38.9984-2.4119-5.8987-2.4492c-3.6651-1.52-7.4561-3.0912-11.2186-4.7a2.9691,2.9691,0,0,0-2.5783-.0315c-3.59,1.5534-7.25,3.0694-10.4793,4.4083L52.736,121.611c-.3268.1339-.6537.256-.9726.3741l-1.3044.4843-.5552-.9529a2.6887,2.6887,0,0,1-.33-1.79l-.0039-6.3083c.0009-4.5678.0019-9.1769-.0266-13.6659a2.2074,2.2074,0,0,1,2.3557-2.4454,11.4473,11.4473,0,0,1,7.8391,2.1048,31.7,31.7,0,0,0,3.0006,1.7641c.4223.2284.823.4469,1.2207.6674a7.7057,7.7057,0,0,0,7.9522.0847l1.1646-.6379c1.4609-.7954,2.972-1.62,4.38-2.5261a8.7994,8.7994,0,0,1,5.3976-1.4471l.2028.0079c2.8707.0984,3.4131.6832,3.4131,3.6818ZM68.0154,114.844a3.697,3.697,0,0,1,1.584.3623c3.7468,1.6026,7.5359,3.1738,11.2009,4.6918l5.062,2.1027.0029-20.994c0-2.6738-.2914-2.9908-2.83-3.0774l-.2107-.01A8.24,8.24,0,0,0,77.786,99.27c-1.4294.9214-2.9494,1.75-4.42,2.5517l-1.1558.632a8.28,8.28,0,0,1-8.5557-.0886c-.3839-.2146-.7826-.4292-1.1813-.6458A32.1678,32.1678,0,0,1,59.39,99.9062,10.8571,10.8571,0,0,0,51.9544,97.91c-1.0928.0886-1.8153.4351-1.8065,1.839.0286,4.4909.0276,9.102.0266,13.67v6.3575a2.1487,2.1487,0,0,0,.252,1.4373l.2983.5119.761-.2815c.38-.1418.7-.26,1.0189-.3919l3.5548-1.4766c3.2279-1.3369,6.8861-2.8529,10.4635-4.4A3.5129,3.5129,0,0,1,68.0154,114.844Zm-16.4292,5.06v-6.4855c.001-4.5717.002-9.1848-.0266-13.6777l.01-.3662.2539-.0335c.064-.01.1487-.0177.2589-.0256a9.4879,9.4879,0,0,1,6.4944,1.7444,34.7909,34.7909,0,0,0,3.225,1.902l1.137.62a9.64,9.64,0,0,0,9.9714.0965l1.1321-.6182c1.4953-.8151,3.0409-1.66,4.5156-2.6088a6.8946,6.8946,0,0,1,4.2045-1.12l.2225.0059c.4853.0177.9263.0334,1.1783.0728l.2225.0354.03.2225a12.7829,12.7829,0,0,1,.0384,1.3389l-.003,18.8775-3.38-1.4018c-3.7654-1.5613-7.3222-3.036-10.8908-4.5619a4.9349,4.9349,0,0,0-4.236-.0315c-3.5784,1.5456-7.2159,3.0537-10.4242,4.3827Zm.5788-19.99c.0276,4.4379.0266,8.9919.0256,13.5045v5.58l3.0971-1.2857c3.2073-1.3289,6.8418-2.8351,10.4074-4.3748a5.5229,5.5229,0,0,1,4.7342.0315c3.5548,1.52,7.11,2.9947,10.8741,4.556l2.5428,1.0533.0029-17.9718c0-.3564,0-.7482-.0138-1.0239-.2323-.0177-.5463-.0295-.8525-.0393l-.251-.0079a6.2241,6.2241,0,0,0-3.8442,1.0218c-1.4954.9648-3.0508,1.8134-4.556,2.6344l-1.1223.6123a10.2241,10.2241,0,0,1-10.5728-.0984l-1.1233-.6124a34.6334,34.6334,0,0,1-3.285-1.9393A8.8838,8.8838,0,0,0,52.165,99.914Zm15.8642.7541a5.94,5.94,0,0,1-3.2476-.9628c-1.3172-.7718-2.6964-1.5573-4.0756-2.339l-.4381-.25q-1.41-.8034-2.8135-1.6125a3.4226,3.4226,0,0,0-1.6026-.4273c-1.53,0-3.041-.002-4.5521-.01-1.328-.0059-2.6521-.0118-3.98-.0118A5.9732,5.9732,0,0,1,41.77,91.81c-.635-1.1262-1.3172-2.2839-2-3.4436l-.0788-.1339c-.694-1.1774-1.388-2.3548-2.0594-3.542a3.9267,3.9267,0,0,0-1.5515-1.51c-1.2079-.6832-2.38-1.3723-3.5528-2.0614l-.0778-.0453c-1.1537-.6773-2.3095-1.3566-3.474-2.0161A5.831,5.831,0,0,1,25.8215,73.45c.0227-1.5012.0138-3.0655.0059-4.6317l-.001-.1389c-.0078-1.2207-.0147-2.4423-.0068-3.6621a2.857,2.857,0,0,0-.4046-1.4894c-.5661-.98-1.1154-1.9462-1.6628-2.9139-.83-1.4639-1.6883-2.978-2.5762-4.4694a5.9407,5.9407,0,0,1,.0669-6.642c.7954-1.3309,1.6086-2.7682,2.3951-4.1582l.193-.3406c.5119-.9047,1.0248-1.81,1.5475-2.7092a3.064,3.064,0,0,0,.442-1.6046c-.0088-1.3891-.0019-2.7752.0059-4.16.0079-1.453.0158-2.9041.004-4.3561a5.8536,5.8536,0,0,1,3.26-5.5443c1.207-.6842,2.4621-1.4226,3.7153-2.1609,1.16-.6822,2.3183-1.3634,3.4869-2.0279A3.2273,3.2273,0,0,0,37.5442,21.2c.6359-1.1065,1.2768-2.1953,1.9157-3.2831l.0532-.0915c.78-1.3261,1.5593-2.6511,2.3193-3.986a5.853,5.853,0,0,1,5.6132-3.1473c1.29.0207,2.64.01,3.989.001l.14-.001c1.3319-.01,2.6648-.0187,3.9938-.0019a3.7155,3.7155,0,0,0,2.0979-.5543c1.263-.74,2.5221-1.455,3.78-2.1687l.0856-.0482c1.1518-.6527,2.3007-1.3044,3.4426-1.9689a5.6707,5.6707,0,0,1,6.1193.0226c1.2709.7384,2.6,1.4905,3.9289,2.2426l.1112.063q1.75.9879,3.4928,1.9876a3.1759,3.1759,0,0,0,1.516.4164c1.5013-.0108,3.0075-.001,4.5146.0079q2.0511.01,4.1061.01a5.8579,5.8579,0,0,1,5.4627,3.1847c.7215,1.261,1.4845,2.56,2.2484,3.86l.1378.2343c.6458,1.0987,1.2916,2.1963,1.9266,3.3A2.8677,2.8677,0,0,0,99.64,22.373c1.2374.7087,2.4522,1.4234,3.667,2.1381,1.262.7433,2.5241,1.4856,3.794,2.2111a5.7084,5.7084,0,0,1,3.1049,5.5187c-.0216.91-.0157,1.8783-.01,2.846l.0059,1.32a12.0856,12.0856,0,0,0,2.4463,9.4191,22.8278,22.8278,0,0,1,1.31,2.2081c.2835.5237.5572,1.0287.8535,1.5022a6.0121,6.0121,0,0,1-.0295,6.7375c-.7669,1.2748-1.521,2.61-2.2495,3.9l-.0433.0778c-.5778,1.0228-1.1567,2.0476-1.75,3.0616a3.55,3.55,0,0,0-.5277,1.9009c.0158,1.4944.0079,2.9868,0,4.4772l-.001.1782c-.0068,1.2542-.0137,2.5084-.0078,3.76a5.83,5.83,0,0,1-3.1955,5.46c-1.2463.7088-2.532,1.4668-3.82,2.2248l-.2274.1339c-1.0819.6359-2.1638,1.2719-3.2516,1.894a3.0971,3.0971,0,0,0-1.19,1.1676c-.7433,1.2975-1.5,2.5831-2.2563,3.8708-.7167,1.2167-1.4088,2.3941-2.091,3.5814a5.8429,5.8429,0,0,1-5.5177,3.099c-1.5052-.0079-3.08-.004-4.6554.0078l-.5976.004c-1.1016.0059-2.2032.01-3.3028.0059a2.3462,2.3462,0,0,0-1.4008.3682c-.9244.5335-1.8429,1.0553-2.7614,1.577l-.53.3013c-1.4018.7954-2.8047,1.5908-4.1947,2.4059A5.8057,5.8057,0,0,1,68.0292,100.6681ZM55.8931,94.47a3.7158,3.7158,0,0,1,1.8665.5119c.9322.54,1.8694,1.073,2.8076,1.6086l.4381.25c1.3811.7836,2.7623,1.5692,4.0942,2.3489a5.3806,5.3806,0,0,0,5.7925.0276c1.4048-.825,2.8105-1.6224,4.2153-2.4178l.5287-.3013c.9175-.52,1.835-1.0415,2.7544-1.5731a3.3194,3.3194,0,0,1,1.7188-.4528c1.0878.0118,2.1894.0019,3.2871-.0059l.5975-.004c1.5771-.01,3.1551-.0177,4.6781-.0059A5.2467,5.2467,0,0,0,93.64,91.67c.6891-1.1991,1.3831-2.3784,2.0782-3.56.7777-1.3211,1.5327-2.6067,2.274-3.9a3.6777,3.6777,0,0,1,1.4186-1.394c1.0829-.62,2.1628-1.2541,3.2417-1.89l.2274-.1319c1.29-.7619,2.5793-1.52,3.8393-2.2366a5.2358,5.2358,0,0,0,2.8785-4.91c-.0059-1.2689.001-2.5251.0079-3.7812l.001-.1772c.0069-1.4875.0148-2.9769,0-4.4674a4.139,4.139,0,0,1,.6133-2.2179c.5887-1.0071,1.1656-2.028,1.7415-3.0488l.0443-.0778c.73-1.2945,1.4865-2.6333,2.2671-3.9289a5.4145,5.4145,0,0,0,.0325-6.08c-.3131-.5011-.5916-1.015-.86-1.5112a23.1521,23.1521,0,0,0-1.2827-2.1716A12.6225,12.6225,0,0,1,109.6,36.3638l-.0089-1.2739c-.0059-.9726-.0118-1.9472.0109-2.8765a5.1171,5.1171,0,0,0-2.787-4.9576c-1.2876-.7354-2.5516-1.48-3.8156-2.2229-1.2129-.7147-2.4257-1.4274-3.6572-2.1323a3.47,3.47,0,0,1-1.328-1.3231c-.634-1.1-1.2778-2.1953-1.9226-3.2919l-.1379-.2353c-.7659-1.3014-1.53-2.6029-2.2592-3.8767a5.2782,5.2782,0,0,0-4.9163-2.87c-1.3861.0009-2.7545-.002-4.1248-.01-1.5032-.0089-3.0094-.0177-4.5176-.0079a3.7862,3.7862,0,0,1-1.8163-.5c-1.1537-.6645-2.3183-1.324-3.4829-1.9826l-.1112-.063c-1.332-.7531-2.6629-1.5062-3.9466-2.2514a5.0775,5.0775,0,0,0-5.4873-.0246c-1.1557.6733-2.3085,1.327-3.4613,1.98l-.0846.0492c-1.2562.7117-2.5133,1.4255-3.77,2.1618a4.5052,4.5052,0,0,1-2.4178.6389c-1.326-.0157-2.6521-.0079-3.9791.002l-.14.001c-1.3555.01-2.7111.0177-4.0155-.001a5.3059,5.3059,0,0,0-5.059,2.83c-.7679,1.3487-1.5475,2.6777-2.3292,4.0057l-.0531.0906c-.6389,1.0858-1.2778,2.1736-1.9118,3.2752a3.824,3.824,0,0,1-1.4806,1.4707c-1.1636.6606-2.32,1.3418-3.4761,2.0221-1.2571.74-2.5142,1.48-3.7388,2.1726a5.2641,5.2641,0,0,0-2.94,4.9911c.0118,1.4688.004,2.9228-.0039,4.3778-.0079,1.3851-.0148,2.7672-.0059,4.1533A3.6638,3.6638,0,0,1,25.9,42.6021c-.5208.8939-1.0317,1.7976-1.5436,2.7l-.192.3407c-.7885,1.3929-1.6036,2.8341-2.4118,4.1848a5.352,5.352,0,0,0-.065,5.9952c.9,1.51,1.7592,3.0262,2.59,4.494.5474.9657,1.0947,1.93,1.6588,2.904a3.449,3.449,0,0,1,.4873,1.8016c-.0079,1.2167-.001,2.4345.0069,3.6532l.001.14c.0088,1.57.0177,3.1384-.0059,4.6584a5.238,5.238,0,0,0,2.8361,5.05c1.1794.6694,2.3371,1.3487,3.4948,2.03l.0768.0453c1.1695.6852,2.34,1.3723,3.539,2.0516a4.5414,4.5414,0,0,1,1.7848,1.74c.67,1.1873,1.3634,2.3607,2.0555,3.5342l.0778.1339c.6861,1.1636,1.37,2.3252,2.0131,3.4652a5.3448,5.3448,0,0,0,5,2.9257c1.3644.0079,2.6708.004,3.9958.01,1.5141.01,3.02.0177,4.5471.01Zm12.1381,4.172a4.0254,4.0254,0,0,1-2.1884-.65c-1.3654-.8013-2.7525-1.5908-4.14-2.3784-1.081-.6162-2.1619-1.2305-3.229-1.8507a5.0487,5.0487,0,0,0-2.5684-.7029h-.0778c-1.5091.0059-3.0094.002-4.5156-.01l-.6074-.0039c-1.1321-.01-2.2691-.0216-3.44-.0059-.0472,0-.0955.002-.1427.002a3.9736,3.9736,0,0,1-3.5745-2.1835c-.6832-1.2109-1.394-2.42-2.1067-3.6306-.7009-1.1853-1.3881-2.3528-2.0565-3.5341a5.9008,5.9008,0,0,0-2.3292-2.278c-1.2059-.6832-2.3941-1.38-3.5833-2.0811l-.3042-.1772c-1.0632-.6241-2.1293-1.2483-3.2378-1.8764a3.8962,3.8962,0,0,1-2.0939-3.7487c.0246-1.5672.0157-3.15.0079-4.7332l-.001-.1319c-.0079-1.2128-.0148-2.4266-.0069-3.6355a4.8282,4.8282,0,0,0-.6832-2.527c-.5562-.9608-1.1016-1.9226-1.646-2.8844-.8417-1.4836-1.7119-3.0183-2.6255-4.5481a4.0265,4.0265,0,0,1,.06-4.4861c.8426-1.4048,1.6715-2.8716,2.4739-4.2892.5837-1.0317,1.14-2.0142,1.6991-2.9769a5.0452,5.0452,0,0,0,.7226-2.6472c-.0089-1.3772-.002-2.7554.0059-4.1326.0078-1.4609.0157-2.9228.0019-4.43A3.9259,3.9259,0,0,1,30.0359,28.41c1.2266-.692,2.4552-1.4146,3.6818-2.1372l.1112-.066c1.15-.6772,2.3007-1.3536,3.4515-2.0082a5.1963,5.1963,0,0,0,2.0171-2.0023c.628-1.0918,1.265-2.1766,1.9019-3.26l.0522-.09c.7836-1.3319,1.5682-2.6658,2.3538-4.048a3.8248,3.8248,0,0,1,3.7615-2.0909c1.394.0177,2.8086.0108,4.22.001,1.3152-.0109,2.6324-.0207,3.9456-.002a5.63,5.63,0,0,0,3.163-.8368c1.2246-.7186,2.4562-1.4176,3.6887-2.1165l.1427-.0807c1.1567-.6557,2.3125-1.3113,3.5007-2.0044a3.72,3.72,0,0,1,4.0145.0247c1.3516.7865,2.7249,1.5632,4.0992,2.3409,1.1606.6557,2.3223,1.3123,3.4623,1.97a4.7419,4.7419,0,0,0,2.5359.695q2.2548-.0074,4.5067.0079c1.3753.0079,2.7535.0148,4.17.0089a3.9029,3.9029,0,0,1,3.6385,2.1313C93.22,16.1868,94.01,17.53,94.8,18.8723l.123.2107c.6261,1.0651,1.2522,2.1293,1.8655,3.1964a4.8673,4.8673,0,0,0,1.86,1.8508c1.1636.6645,2.3164,1.3427,3.4682,2.021l.3859.2264c1.1971.7039,2.3961,1.4088,3.6454,2.1205a3.7742,3.7742,0,0,1,2.0437,3.6483c-.0237.9756-.0178,1.964-.0109,2.9533l.0168,1.1538a13.9417,13.9417,0,0,0,2.83,10.77,21.2511,21.2511,0,0,1,1.1351,1.9285c.3111.575.6093,1.1253.9608,1.6874a4.0108,4.0108,0,0,1-.0187,4.5166c-.84,1.391-1.6184,2.7712-2.3705,4.1051l-.0433.0748c-.5582.9893-1.1174,1.98-1.6825,2.9434a5.5279,5.5279,0,0,0-.8131,2.9593c.0158,1.4805.0079,2.9621,0,4.4427l-.001.1782c-.0069,1.2611-.0138,2.5221-.0069,3.8275a3.8864,3.8864,0,0,1-2.1362,3.6286c-1.2955.7364-2.59,1.4983-3.8866,2.26-1.15.6792-2.3006,1.3546-3.4455,2.01a5.0743,5.0743,0,0,0-1.9521,1.9256c-.698,1.2187-1.41,2.43-2.1215,3.64l-.1211.2067c-.7048,1.1951-1.4087,2.3942-2.1224,3.6365l-.5237-.3032c.7137-1.2423,1.4195-2.4414,2.1244-3.64l.1211-.2067c.7117-1.2089,1.4215-2.4178,2.1175-3.6326a5.6751,5.6751,0,0,1,2.18-2.152c1.139-.6537,2.2879-1.329,3.4357-2.0043,1.2985-.7659,2.5969-1.5278,3.9062-2.274a3.29,3.29,0,0,0,1.8193-3.0774c-.0069-1.3231,0-2.5861.0069-3.8491l.001-.1772c.0069-1.4777.0147-2.9563,0-4.433a6.1167,6.1167,0,0,1,.8988-3.2762c.5611-.9568,1.1183-1.9442,1.6745-2.9306l.0423-.0748c.7551-1.3379,1.5357-2.721,2.3558-4.0825l.0443-.07a3.4059,3.4059,0,0,0,.0108-3.8413c-.3682-.5887-.6714-1.1478-.9638-1.6883a21.6581,21.6581,0,0,0-1.1124-1.9,14.4864,14.4864,0,0,1-2.9454-11.1694l-.02-1.1065c-.0069-.9973-.0128-1.9916.0118-2.9878a3.1822,3.1822,0,0,0-1.7257-3.0862c-1.266-.7216-2.467-1.4275-3.667-2.1333l-.3849-.2264c-1.1509-.6763-2.3007-1.3526-3.4594-2.0152a5.4656,5.4656,0,0,1-2.087-2.0771c-.6123-1.0642-1.2374-2.1274-1.8615-3.1906l-.1241-.21c-.79-1.3447-1.582-2.6914-2.3547-4.045a3.329,3.329,0,0,0-3.0912-1.8153c-1.4382.0069-2.8135-.002-4.19-.0089q-2.2461-.0147-4.495-.0078a5.5467,5.5467,0,0,1-2.85-.7777c-1.1351-.6537-2.2947-1.31-3.4534-1.966-1.3763-.7777-2.7515-1.5564-4.1169-2.35a3.1214,3.1214,0,0,0-3.3825-.0266c-1.202.7019-2.36,1.36-3.5194,2.0151l-.1427.0818c-1.23.6969-2.4592,1.3949-3.6779,2.11a6.3308,6.3308,0,0,1-3.4879.9214c-1.2955-.0177-2.6117-.0078-3.9249.002-1.4156.0089-2.8352.0177-4.2508-.002a3.2808,3.2808,0,0,0-3.2043,1.775c-.7935,1.3959-1.5781,2.7318-2.3637,4.0677l-.0531.09c-.635,1.0819-1.2719,2.1638-1.897,3.2516a5.7936,5.7936,0,0,1-2.2465,2.2318c-1.1459.6507-2.2928,1.327-3.4406,2.0023l-.1113.065c-1.23.7245-2.4611,1.4491-3.7054,2.151a3.29,3.29,0,0,0-1.87,3.1482c.0138,1.5239.0059,2.9878-.002,4.4526-.0079,1.3753-.0148,2.75-.0059,4.1238a5.6277,5.6277,0,0,1-.8062,2.9592c-.5562.9569-1.11,1.9374-1.6657,2.9179-.8319,1.4707-1.6627,2.9405-2.5182,4.366a3.39,3.39,0,0,0-.0581,3.8383c.9254,1.5475,1.7966,3.0862,2.6393,4.5737.5444.96,1.0878,1.92,1.641,2.8745a5.4186,5.4186,0,0,1,.7669,2.8391c-.0079,1.206-.001,2.4158.0069,3.6267l.001.1329c.0089,1.5869.0177,3.1738-.0079,4.76a3.3028,3.3028,0,0,0,1.775,3.1916c1.1242.6359,2.1923,1.262,3.2584,1.8881l.3042.1772c1.1863.699,2.3725,1.396,3.57,2.0733A6.49,6.49,0,0,1,39.91,83.3952c.6665,1.1813,1.3536,2.3449,2.04,3.5066.7266,1.2344,1.44,2.4453,2.1313,3.6719a3.3284,3.3284,0,0,0,3.1719,1.8606c1.1764-.0059,2.3223,0,3.4554.0059l.6074.0039c1.5032.0158,3.0025.0178,4.5107.01h.0787a5.6379,5.6379,0,0,1,2.8736.7875c1.0651.6183,2.1441,1.2325,3.223,1.8449,1.39.7914,2.7791,1.581,4.1593,2.3921a3.3587,3.3587,0,0,0,3.67.0237c1.393-.8171,2.7486-1.5869,4.1012-2.3548l.2619-.15q1.5933-.9008,3.1817-1.8134a5.8268,5.8268,0,0,1,2.73-.7265c.9756.0059,1.9393,0,2.9051-.0059l1.5652-.0079c1.3881-.0078,2.7761-.0118,4.1652-.0019l-.0059.6064c-1.3871-.0118-2.7712-.0079-4.1563,0l-1.5643.0079c-.97.0039-1.9383.01-2.8992.0059a5.2175,5.2175,0,0,0-2.4354.6438c-1.0613.6123-2.1245,1.2148-3.1867,1.8192l-.2618.1477c-1.3517.7678-2.7033,1.5337-4.0815,2.3429A3.8624,3.8624,0,0,1,68.0312,98.6421Z"/><path class="cls-2" d="M89.091,72.6117c-.1526,0-.3062-.0059-.46-.0138-3.8511.0118-7.76.0059-11.6665.0079l-4.8838-.002q-8.4051.0058-16.823,0c-2.655-.002-4.0018-1.3418-4.0018-3.983q-.01-12.119,0-24.24c.003-2.5743,1.36-3.9407,3.9289-3.9515l1.6814-.0128c1.713-.0168,3.4279-.0335,5.1368.0394.1014.0029.1743.0019.2314.0009.0049-.0718.0079-.1722.0049-.313-.0512-2.404-.0413-4.81-.0315-7.2159l.0079-2.3056c.0049-2.782,1.3162-4.0854,4.1277-4.1q1.8606-.0118,3.7251,0a7.5347,7.5347,0,0,1,7.63,5.6989c.8092,2.5841,1.5948,5.2726,2.3223,7.9463a1.5482,1.5482,0,0,0,.0984.28c.0168-.0049.0738.001.1792.001.0167,0,.0335,0,.0522-.001,2.778-.0522,5.5541-.0335,8.33-.0177l.1014,1.009-.0365-1.007c.1831-.0079.3682-.0089.5523-.003a8.2951,8.2951,0,0,1,8.05,8.5272c.0493,5.0029.0493,10.116,0,15.1573.0069.1969.005.4362-.0088.6764a8.2737,8.2737,0,0,1-8.2486,7.8223Zm-.4076-2.028a6.26,6.26,0,0,0,6.644-5.9066q.0147-.2716.0059-.54c.0482-5.0718.0482-10.1712-.001-15.2A6.2767,6.2767,0,0,0,89.24,42.4446c-.14-.0029-.2795-.0039-.42.001l-.0433.001-.1083-.001c-2.7584-.0177-5.5178-.0374-8.2762.0177a2.13,2.13,0,0,1-2.3154-1.7651c-.7216-2.65-1.5-5.3149-2.3144-7.9207a5.6061,5.6061,0,0,0-5.6615-4.24c-1.2768-.0069-2.5113-.0079-3.7448.001-1.704.0088-2.12.4184-2.1234,2.088l-.0079,2.31c-.01,2.3883-.02,4.7775.0315,7.1638a2.39,2.39,0,0,1-.5581,1.8468,2.3072,2.3072,0,0,1-1.7789.5227c-1.6746-.0689-3.354-.0531-5.0334-.0374l-1.6923.0128c-1.4707.0069-1.92.4588-1.9206,1.9374q-.01,12.1174,0,24.2368c0,1.5446.4272,1.9669,1.9866,1.9679q8.411.0088,16.821,0l4.8858.002Q82.8222,70.5926,88.6834,70.5837ZM62.2159,47.01Z"/><path class="cls-2" d="M89.0912,72.9149c-.1575,0-.316-.0059-.4754-.0158-2.6482.01-5.34.01-8.0449.0079l-3.6059.002-4.8838-.002q-8.4037.006-16.8231,0c-2.8155-.002-4.3039-1.4845-4.3039-4.2862q-.01-12.119,0-24.24c.0029-2.7318,1.5052-4.2429,4.23-4.2537l1.68-.0128c1.6627-.0148,3.3806-.0335,5.0728.0364V40.15c-.0512-2.4069-.0413-4.8552-.0315-7.2228l.0079-2.3056c.0049-2.9464,1.454-4.3856,4.428-4.4014q1.865-.0117,3.729,0a7.8087,7.8087,0,0,1,7.9208,5.9244C78.8,34.7227,79.5826,37.4,80.313,40.0879l.0168.0571c2.7072-.0492,5.4084-.0355,8.02-.02l.4262.002c.1762-.005.3544-.0079.5326-.001a8.5978,8.5978,0,0,1,8.3421,8.8382c.0492,5,.0492,10.1013,0,15.1515.0069.192.0049.441-.0089.6911a8.5774,8.5774,0,0,1-8.5508,8.1078Zm-.4607-.6192c.1644.0079.3131.0138.4607.0138a7.9714,7.9714,0,0,0,7.9464-7.5369c.0138-.2313.0158-.4607.0089-.6487.0492-5.06.0492-10.1574,0-15.1653A7.9933,7.9933,0,0,0,89.29,40.7307c-.0758-.0019-.1526-.0039-.2284-.0039H89.06l.0256.7009-.6034.0413-.0739-.7383-.061-.001c-2.6176-.0157-5.3248-.0315-7.99.02l-.1782-.001-.2421.0719-.0876-.2382a1.7662,1.7662,0,0,1-.1192-.3347c-.7294-2.6807-1.51-5.35-2.3193-7.9356a7.2437,7.2437,0,0,0-7.33-5.4872c-1.2552-.0079-2.4975-.0089-3.735,0-2.6422.0138-3.8225,1.1852-3.8274,3.7989l-.0079,2.3056c-.01,2.3636-.02,4.8079.0315,7.208.0029.1536,0,.2628-.0059.3406l-.0187.2766-.2776.005c-.0591.0019-.1369.0029-.2452-.001-1.705-.0729-3.4455-.0561-5.1249-.0394l-1.6824.0128c-2.405.01-3.6257,1.2384-3.6287,3.6493q-.01,12.12,0,24.24c0,2.4749,1.21,3.6788,3.7,3.6808q8.4111.0089,16.8231,0l4.8838.002,3.6059-.001Q84.6244,72.3084,88.6305,72.2957ZM89.103,70.9c-.1417,0-.2845-.0049-.4282-.0137q-5.8565.0132-11.7089.0059L72.08,70.89q-8.4081.0088-16.8211,0c-1.7326-.001-2.2888-.5523-2.2888-2.27q-.01-12.1174,0-24.2368c.001-1.646.5818-2.2317,2.2219-2.24l1.6912-.0128c1.6559-.0158,3.3658-.0315,5.0482.0374a2.0041,2.0041,0,0,0,1.5545-.4361,2.1026,2.1026,0,0,0,.4676-1.6253c-.0512-2.3892-.0414-4.8208-.0315-7.1706l.0078-2.3105c.003-1.8439.5464-2.3794,2.4237-2.3892,1.2345-.01,2.4709-.0089,3.7487-.001.067-.002.1339-.004.2-.004a5.9339,5.9339,0,0,1,5.752,4.4694c.8122,2.5969,1.5919,5.2647,2.3135,7.9178A1.8183,1.8183,0,0,0,80.35,42.1611h.0384c2.6875-.0561,5.4213-.0354,8.0694-.02l.321.003c.1752-.0059.3238-.005.4666-.002a6.5792,6.5792,0,0,1,6.389,6.8034c.0492,4.9941.0492,10.11.001,15.1938.0059.1753.0039.3643-.0059.5543a6.527,6.527,0,0,1-2.1707,4.5274A6.4133,6.4133,0,0,1,89.103,70.9Zm-.41-.6182h.01A5.7927,5.7927,0,0,0,93.0556,68.77a5.9174,5.9174,0,0,0,1.97-4.11q.0149-.2584.0059-.5139C95.08,59.054,95.08,53.9419,95.03,48.94a6.0018,6.0018,0,0,0-1.6272-4.3236,5.9307,5.9307,0,0,0-4.1721-1.87c-.13-.0019-.2648-.0019-.4006.001l-.3761-.001c-2.6412-.0187-5.373-.0344-8.0566.0187h-.0423a2.4209,2.4209,0,0,1-2.57-1.9875c-.7206-2.6462-1.4983-5.3071-2.3115-7.91A5.3391,5.3391,0,0,0,70.11,28.84c-1.2876-.0049-2.5191-.0059-3.7526.001-1.5308.0079-1.82.2924-1.8232,1.7868l-.0079,2.31c-.01,2.3469-.02,4.7736.0315,7.1559a2.6624,2.6624,0,0,1-.6487,2.07,2.5956,2.5956,0,0,1-2.0024.6083c-1.67-.0679-3.3727-.0541-5.0186-.0374l-1.6933.0128c-1.3014.0059-1.6194.3269-1.62,1.6352q-.01,12.1174,0,24.2368c0,1.3841.2836,1.6647,1.6844,1.6657q8.4111.0088,16.8211,0l4.8857.0019q5.8564.0075,11.7168-.0059Z"/><path class="cls-2" d="M45.906,73.5961c-.0561,0-.1093-.0019-.16-.0039h-.001c-1.3979-.0512-2.7977-.0305-4.1956-.0069a1.8682,1.8682,0,0,1-1.4147-.4556,1.8,1.8,0,0,1-.4715-1.3188c.0217-6.2786.0217-23.0275,0-29.3062a1.8632,1.8632,0,0,1,.4824-1.359,1.9031,1.9031,0,0,1,1.3752-.4488c1.4334.0374,2.8687.0473,4.301-.0019a1.9174,1.9174,0,0,1,1.458.4605,1.9407,1.9407,0,0,1,.4961,1.488c-.0265,2.2585-.0226,4.521-.0187,6.7835l.003,2.4642-.004,2.4908c-.0049,2.2516-.0088,14.9726.0217,17.2242a1.9939,1.9939,0,0,1-.504,1.5146A1.8881,1.8881,0,0,1,45.906,73.5961Z"/></svg>