<svg id="Layer_1" data-name="Layer 1" xmlns="http://www.w3.org/2000/svg" width="136" height="128" viewBox="0 0 136 128"><defs><style>.cls-1{fill:#757577;}.cls-2{fill:#f37a20;}</style></defs><path class="cls-1" d="M67.9745,128.0378l-.45-.1414c-.4261-.1336-42.6528-13.965-48.509-70.3314L18.5974.3787h98.8052l-.4183,57.043c-5.8582,56.51-48.134,70.3411-48.56,70.4747ZM21.6374,3.3952l.3869,54.0029c5.3122,51.064,41.4726,65.8282,45.95,67.4622,4.4795-1.634,40.687-16.4021,46.0012-67.6056l.3869-53.8595Z"/><polygon class="cls-2" points="41.3 52.448 54.895 14.708 43.241 14.708 32.814 61.276 54.255 48.481 49.58 84.161 45.734 81.733 49.282 96.338 57.267 83.608 52.903 84.68 62.452 39.688 41.3 52.448"/><polygon class="cls-2" points="101.399 66.077 89.516 57.616 89.516 55.369 94.826 53.114 89.693 51.316 89.693 48.615 108.058 34.93 86.003 34.93 90.505 23.501 80.606 28.807 83.846 19.353 70.883 27.368 70.969 33.128 78.264 33.128 79.071 35.652 75.831 41.14 84.023 41.053 84.836 43.931 77.723 48.888 81.232 50.862 81.954 53.023 79.344 54.734 81.591 55.814 82.045 58.424 75.921 57.975 78.804 68.506 70.788 63.739 70.429 73.281 73.584 79.49 74.029 69.953 90.414 87.592 84.162 69.724 85.462 68.419 90.147 70.493 87.174 65.719 87.174 63.018 101.399 66.077"/></svg>