<svg id="Layer_1" data-name="Layer 1" xmlns="http://www.w3.org/2000/svg" width="136" height="128" viewBox="0 0 136 128"><defs><style>.cls-1{fill:#767576;}.cls-2{fill:#f37a20;}</style></defs><path class="cls-1" d="M62.5552,123.1156a1.667,1.667,0,0,1-.7516-.1816C19.52,101.2037,10.6383,40.5684,7.7191,20.6424l-.45-3.0271A1.64,1.64,0,0,1,7.65,16.2844L21.2046.6452A1.6423,1.6423,0,0,1,22.45.0752h89.3164a1.6423,1.6423,0,0,1,1.2458.57l13.5545,15.6392a1.6392,1.6392,0,0,1,.3815,1.3309l-.4528,3.0386c-.8757,5.967-2.34,15.9565-5.1165,27.35a1.6468,1.6468,0,0,1-3.2-.7815c2.7376-11.2421,4.1879-21.1373,5.0568-27.0469l.3425-2.3077L111.0152,3.3713H23.2021L10.6383,17.8681l.34,2.2963c2.8593,19.51,11.557,78.8833,52.333,99.8367a1.6483,1.6483,0,0,1-.7563,3.1145Z"/><path class="cls-2" d="M81.2446,128a1.6466,1.6466,0,0,1-.7953-.2046c-10.548-5.8061-22.0107-18.6112-23.8381-34.124-1.078-9.1527.8482-22.9784,16.1472-36.88a1.6462,1.6462,0,0,1,2.7376,1.4572c-1.2366,8.4265-.2345,14.5383,2.7536,16.7724,2.0756,1.5492,4.6109.7539,5.9394.1333,3.4777-1.6066,4.1052-5.6176,4.9189-12.5637,1.2389-10.5917,2.9352-25.0954,22.47-34.17a1.6472,1.6472,0,0,1,2.2,2.1606c-4.928,11.1318.3057,21.62,5.8475,32.7242,8.5253,17.0827,18.186,36.4432-7.2519,62.0972a1.6483,1.6483,0,0,1-2.7237-1.71c4.9809-14.0992,5.6061-24.7943,1.8641-31.7888-2.0664-3.8615-5.4292-6.6841-10.2216-8.5574,5.6429,12.065-.0781,23.9231-4.8453,27.7433-3.7742,2.1238-6.5,1.4527-8.1667.5447-4.1879-2.2847-6.5025-8.53-7.461-14.6807-3.7305,6.1992-4.5212,16.7172,1.8756,28.619A1.6484,1.6484,0,0,1,81.2446,128ZM71.7471,62.3746C62.7023,71.8629,58.611,82.4753,59.8843,93.2853c1.42,12.0719,9.185,22.39,17.4551,28.5753-5.2728-13.3981-2.3284-24.6058,3.5374-30.2533a1.6262,1.6262,0,0,1,1.7377-.3493,1.6493,1.6493,0,0,1,1.0482,1.43c.4206,6.5371,2.4985,14.0372,6.1968,16.0553,1.3791.7562,2.9352.63,4.758-.3793,4.51-3.6454,9.2424-15.9472,1.802-26.9342a1.6482,1.6482,0,0,1,1.77-2.5215c7.7621,1.97,13.2234,5.82,16.23,11.4421,3.5559,6.6428,3.7627,15.5956.6022,27.2353,17.43-21.1993,9.4217-37.2477,1.655-52.8087C111.42,54.24,106.4227,44.2231,109.3373,33.2821,94.8841,41.5637,93.505,53.3575,92.381,62.9722c-.7976,6.8221-1.4872,12.7132-6.8083,15.1749-3.45,1.5883-6.7439,1.4205-9.2952-.4873C73.7928,75.8049,71.1862,71.6515,71.7471,62.3746Z"/></svg>