<?xml version="1.0" encoding="utf-8"?>
<!-- Generator: Adobe Illustrator 16.0.0, SVG Export Plug-In . SVG Version: 6.00 Build 0)  -->
<!DOCTYPE svg PUBLIC "-//W3C//DTD SVG 1.1//EN" "http://www.w3.org/Graphics/SVG/1.1/DTD/svg11.dtd">
<svg version="1.1" id="Layer_1" xmlns="http://www.w3.org/2000/svg" xmlns:xlink="http://www.w3.org/1999/xlink" x="0px" y="0px"
	 width="108.701px" height="15.936px" viewBox="0 0 108.701 15.936" enable-background="new 0 0 108.701 15.936"
	 xml:space="preserve">
<g>
	<path fill="#282828" d="M15.846,13.835H4.104c-0.218,0-0.41-0.142-0.477-0.348L0.022,2.234C-0.05,2.01,0.059,1.73,0.263,1.611
		C0.466,1.492,0.768,1.54,0.926,1.72l1.161,1.287c1.135,1.258,3.09,1.368,4.359,0.247c0.18-0.159,0.448-0.166,0.638-0.02
		l0.835,0.652c1.112,0.867,2.669,0.876,3.79,0.022l0.703-0.536c0.165-0.127,0.391-0.138,0.57-0.025l0.742,0.467
		c1.21,0.759,2.775,0.6,3.807-0.394l1.808-1.746c0.167-0.162,0.462-0.193,0.656-0.066c0.195,0.124,0.292,0.403,0.217,0.621
		l-3.893,11.269C16.249,13.7,16.059,13.835,15.846,13.835 M4.469,12.835H15.49l3.139-9.087l-0.404,0.391
		c-1.363,1.315-3.432,1.529-5.034,0.52l-0.449-0.282l-0.427,0.326c-1.48,1.129-3.541,1.117-5.011-0.028L6.78,4.265
		C5.212,5.387,3.046,5.257,1.624,3.958L4.469,12.835z"/>
	<path fill="#282828" d="M43.047,13.835H25.981c-0.188,0-0.361-0.105-0.446-0.272s-0.07-0.369,0.04-0.521l8.533-11.788
		c0.19-0.26,0.622-0.26,0.811,0l8.533,11.788c0.111,0.151,0.125,0.354,0.04,0.521S43.234,13.835,43.047,13.835 M26.96,12.835h15.107
		L34.514,2.399L26.96,12.835z"/>
	<path fill="#282828" d="M41.534,15.852c-0.126,0-0.251-0.047-0.349-0.143L27.46,2.38c-0.198-0.192-0.202-0.508-0.01-0.707
		c0.193-0.197,0.51-0.201,0.707-0.01l13.726,13.33c0.198,0.192,0.202,0.508,0.009,0.707C41.795,15.801,41.665,15.852,41.534,15.852"
		/>
	<path fill="#282828" d="M27.894,15.936c-0.128,0-0.257-0.049-0.354-0.147c-0.195-0.195-0.195-0.512,0.001-0.707L41.097,1.584
		c0.195-0.193,0.512-0.195,0.707,0.002c0.194,0.196,0.194,0.512-0.002,0.707L28.247,15.789
		C28.149,15.887,28.022,15.936,27.894,15.936"/>
	<path fill="#282828" d="M66.547,11.915c-0.129-0.961-0.258-1.924-0.386-2.885c-0.141-1.051-0.279-2.104-0.419-3.156
		c-0.142-1.07-0.297-2.138-0.424-3.211c-0.121-1.012-0.737-1.584-1.753-1.585c-2.934,0-5.866,0-8.799,0.002
		c-0.098,0-0.196,0.007-0.29,0.031c-0.17,0.043-0.274,0.189-0.275,0.364c0,0.176,0.104,0.324,0.273,0.367
		c0.092,0.024,0.191,0.031,0.289,0.031c2.963,0.002,5.927,0.001,8.89,0.002c0.492,0,0.798,0.271,0.86,0.741
		c0.142,1.083,0.29,2.164,0.433,3.247c0.03,0.226,0.055,0.452,0.084,0.694h-0.265c-3.336,0-6.673,0.001-10.01,0
		c-0.755,0-1.497,0.09-2.217,0.328c-1.18,0.391-2.181,1.055-2.992,1.997c-0.638,0.741-1.106,1.579-1.35,2.528
		c-0.114,0.445-0.174,0.905-0.258,1.359v0.55c0.114,0.236,0.313,0.29,0.559,0.29c5.883-0.003,11.768-0.002,17.653-0.002
		c0.036,0,0.073,0.001,0.11-0.001c0.316-0.014,0.48-0.199,0.443-0.514C66.657,12.699,66.6,12.308,66.547,11.915 M48.745,12.801
		c0.039-0.595,0.161-1.158,0.376-1.699c0.529-1.331,1.421-2.349,2.678-3.042c0.884-0.488,1.839-0.713,2.842-0.714
		c3.446-0.006,6.892-0.003,10.337-0.002c0.049,0,0.097,0.004,0.163,0.007c0.243,1.815,0.483,3.627,0.727,5.45H48.745z"/>
	<path fill="#282828" d="M48.499,13.76c-0.239,0-0.534-0.043-0.695-0.376L47.79,13.32v-0.55c0.028-0.166,0.052-0.307,0.075-0.445
		c0.053-0.313,0.107-0.637,0.188-0.951c0.238-0.93,0.703-1.801,1.381-2.589c0.823-0.956,1.852-1.643,3.059-2.042
		c0.681-0.226,1.422-0.336,2.265-0.336h10.104l-0.003-0.02c-0.019-0.173-0.038-0.339-0.06-0.505L64.604,4.44
		c-0.08-0.602-0.161-1.202-0.24-1.804c-0.054-0.399-0.299-0.61-0.711-0.61l-8.891-0.002c-0.129,0-0.233-0.012-0.327-0.036
		c-0.23-0.059-0.385-0.265-0.384-0.514c0.002-0.25,0.153-0.45,0.389-0.509c0.092-0.023,0.199-0.035,0.325-0.035
		c2.934-0.002,5.867-0.002,8.799-0.002c1.079,0,1.772,0.626,1.903,1.718c0.087,0.741,0.188,1.48,0.29,2.219l0.987,7.394
		c0.038,0.272,0.075,0.545,0.108,0.817c0.03,0.246-0.05,0.397-0.121,0.481c-0.104,0.122-0.263,0.191-0.465,0.198
		c-0.029,0.003-0.057,0.002-0.09,0.002H62.62C57.909,13.754,53.205,13.758,48.499,13.76 M48.089,13.283
		c0.073,0.129,0.187,0.177,0.409,0.177c4.706-0.001,9.413-0.003,14.122-0.002h3.53c0.054,0.001,0.078-0.001,0.103,0
		c0.082-0.004,0.19-0.023,0.251-0.095c0.049-0.056,0.064-0.141,0.052-0.252c-0.033-0.271-0.07-0.541-0.107-0.812L65.46,4.906
		c-0.102-0.741-0.202-1.482-0.292-2.225c-0.112-0.95-0.667-1.452-1.604-1.452c-2.929,0.015-5.865,0-8.799,0.002
		c-0.102,0-0.184,0.008-0.252,0.025c-0.102,0.026-0.162,0.108-0.162,0.22c-0.001,0.111,0.06,0.195,0.16,0.221
		c0.068,0.018,0.148,0.026,0.251,0.026l8.891,0.002c0.559,0,0.937,0.326,1.008,0.872c0.079,0.601,0.16,1.202,0.241,1.803
		l0.192,1.443c0.022,0.167,0.042,0.335,0.062,0.51l0.042,0.355H54.757c-0.811,0-1.521,0.104-2.17,0.32
		C51.432,7.41,50.447,8.067,49.66,8.98c-0.648,0.754-1.091,1.584-1.317,2.468c-0.079,0.303-0.131,0.62-0.183,0.927
		c-0.024,0.142-0.047,0.282-0.073,0.422L48.089,13.283z M66.039,12.951H48.585l0.01-0.16c0.04-0.62,0.166-1.19,0.386-1.745
		c0.543-1.364,1.466-2.415,2.744-3.119c0.88-0.484,1.861-0.731,2.916-0.733c2.755-0.004,5.513-0.004,8.27-0.001h2.067
		c0.035,0,0.071,0.002,0.112,0.005l0.182,0.008L66.039,12.951z M48.907,12.65h16.79L65.01,7.494h-0.031l-2.067-0.001
		c-2.757-0.003-5.513-0.004-8.27,0.002c-1.004,0.002-1.936,0.235-2.771,0.696c-1.215,0.669-2.093,1.667-2.609,2.966
		C49.071,11.633,48.956,12.124,48.907,12.65"/>
	<path fill="#282828" d="M54.333,9.295c-0.43-0.007-0.792,0.355-0.788,0.793c0.003,0.432,0.351,0.775,0.782,0.774
		c0.431,0,0.777-0.346,0.779-0.777C55.108,9.656,54.762,9.302,54.333,9.295"/>
	<path fill="#282828" d="M54.324,11.013c-0.509,0-0.926-0.415-0.93-0.925c-0.002-0.249,0.1-0.495,0.28-0.673
		c0.175-0.175,0.405-0.271,0.647-0.271h0.015c0.51,0.008,0.923,0.43,0.922,0.941c-0.003,0.511-0.42,0.927-0.932,0.927H54.324z
		 M54.321,9.445c-0.162,0-0.315,0.063-0.437,0.183c-0.124,0.124-0.191,0.286-0.189,0.458c0.002,0.352,0.278,0.626,0.629,0.626h0.002
		c0.347,0,0.629-0.281,0.63-0.628c0.003-0.348-0.278-0.635-0.625-0.639H54.321z"/>
	<path fill="#282828" d="M60.333,9.295c-0.43-0.007-0.792,0.355-0.788,0.793c0.003,0.432,0.352,0.775,0.782,0.774
		c0.431,0,0.777-0.346,0.779-0.777C61.108,9.656,60.762,9.302,60.333,9.295"/>
	<path fill="#282828" d="M60.324,11.013c-0.509,0-0.926-0.415-0.93-0.925c-0.002-0.249,0.1-0.495,0.28-0.673
		c0.175-0.175,0.404-0.271,0.646-0.271h0.015c0.51,0.008,0.923,0.43,0.922,0.941c-0.003,0.511-0.42,0.927-0.932,0.927H60.324z
		 M60.321,9.445c-0.162,0-0.315,0.063-0.437,0.183c-0.124,0.124-0.191,0.286-0.189,0.458c0.002,0.352,0.278,0.626,0.629,0.626h0.002
		c0.347,0,0.629-0.281,0.63-0.628c0.003-0.348-0.278-0.635-0.625-0.639H60.321z"/>
	<path fill="#282828" d="M80.502,14.348c-3.955,0-7.173-3.218-7.173-7.174S76.547,0,80.502,0c3.956,0,7.174,3.218,7.174,7.174
		S84.458,14.348,80.502,14.348 M80.502,1c-3.402,0-6.173,2.77-6.173,6.174c0,3.404,2.771,6.174,6.173,6.174
		c3.404,0,6.174-2.77,6.174-6.174C86.676,3.77,83.906,1,80.502,1"/>
	<path fill="#282828" d="M101.027,14.217c-3.79,0-6.874-3.083-6.874-6.875c0-3.791,3.084-6.875,6.874-6.875
		c3.791,0,6.875,3.084,6.875,6.875C107.902,11.134,104.818,14.217,101.027,14.217 M101.027,1.426c-3.262,0-5.916,2.654-5.916,5.916
		c0,3.263,2.654,5.917,5.916,5.917c3.263,0,5.917-2.654,5.917-5.917C106.944,4.08,104.29,1.426,101.027,1.426"/>
	<path fill="#282828" d="M83.341,4.117c0.52,0.468,0.779,1.114,0.779,1.935c0,0.823-0.26,1.468-0.779,1.937
		c-0.519,0.47-1.231,0.703-2.137,0.703h-1.728v2.294h-1V3.414h2.728C82.109,3.414,82.822,3.648,83.341,4.117 M82.622,7.313
		c0.333-0.292,0.499-0.712,0.499-1.261c0-0.548-0.166-0.968-0.499-1.26s-0.814-0.438-1.448-0.438h-1.697v3.397h1.697
		C81.808,7.751,82.289,7.605,82.622,7.313"/>
	<path fill="#282828" d="M9.16,8.57C9.406,8.691,9.6,8.862,9.743,9.083c0.143,0.222,0.215,0.478,0.215,0.769
		c0,0.313-0.079,0.587-0.235,0.825c-0.157,0.237-0.37,0.419-0.64,0.547c-0.271,0.127-0.572,0.19-0.903,0.19
		c-0.657,0-1.172-0.201-1.543-0.604S6.081,9.834,6.081,9.087c0-0.532,0.1-0.988,0.301-1.368C6.583,7.338,6.864,7.05,7.224,6.852
		C7.583,6.656,8,6.558,8.475,6.558c0.251,0,0.491,0.028,0.722,0.084C9.426,6.697,9.623,6.777,9.784,6.88L9.38,7.678
		C9.147,7.521,8.854,7.443,8.501,7.443c-0.398,0-0.713,0.117-0.946,0.349C7.324,8.024,7.199,8.362,7.18,8.805
		c0.278-0.278,0.664-0.416,1.161-0.416C8.641,8.389,8.914,8.449,9.16,8.57 M8.687,10.415c0.145-0.125,0.218-0.295,0.218-0.51
		S8.832,9.519,8.687,9.392c-0.146-0.127-0.339-0.19-0.581-0.19c-0.236,0-0.432,0.065-0.583,0.196
		C7.371,9.53,7.293,9.699,7.293,9.905s0.075,0.373,0.222,0.503c0.148,0.13,0.349,0.193,0.604,0.193
		C8.352,10.602,8.541,10.54,8.687,10.415"/>
	<path fill="#282828" d="M11.326,11.126c-0.305-0.192-0.542-0.471-0.715-0.835c-0.172-0.364-0.258-0.8-0.258-1.305
		c0-0.505,0.086-0.94,0.258-1.305c0.173-0.365,0.41-0.643,0.715-0.835c0.304-0.193,0.651-0.289,1.04-0.289s0.736,0.096,1.039,0.289
		c0.305,0.192,0.543,0.47,0.715,0.835c0.172,0.364,0.258,0.799,0.258,1.305c0,0.505-0.086,0.94-0.258,1.305s-0.41,0.643-0.715,0.835
		c-0.303,0.191-0.65,0.288-1.039,0.288S11.63,11.317,11.326,11.126 M13.04,10.127c0.163-0.246,0.245-0.627,0.245-1.141
		c0-0.515-0.082-0.895-0.245-1.141c-0.163-0.246-0.388-0.369-0.674-0.369c-0.282,0-0.505,0.123-0.668,0.369
		s-0.245,0.626-0.245,1.141c0,0.514,0.082,0.895,0.245,1.141c0.163,0.245,0.386,0.368,0.668,0.368
		C12.652,10.495,12.877,10.372,13.04,10.127"/>
	<path fill="#282828" d="M108.201,14.261H93.854c-0.276,0-0.5-0.225-0.5-0.5V0.929c0-0.276,0.224-0.5,0.5-0.5h14.348
		c0.276,0,0.5,0.224,0.5,0.5v12.832C108.701,14.036,108.478,14.261,108.201,14.261 M94.354,13.261h13.349V1.429H94.354V13.261z"/>
	<path fill="#282828" d="M101.151,6.707c-0.43-0.007-0.792,0.356-0.788,0.793c0.003,0.432,0.351,0.775,0.781,0.774
		c0.432,0,0.778-0.345,0.78-0.777C101.927,7.068,101.58,6.714,101.151,6.707"/>
	<path fill="#282828" d="M101.143,8.424c-0.509,0-0.926-0.415-0.93-0.924c-0.002-0.249,0.1-0.495,0.28-0.673
		c0.175-0.175,0.404-0.271,0.646-0.271h0.014c0.511,0.008,0.924,0.43,0.923,0.942c-0.003,0.51-0.42,0.926-0.932,0.926H101.143z
		 M101.14,6.857c-0.162,0-0.315,0.064-0.437,0.183c-0.124,0.124-0.191,0.286-0.189,0.458c0.002,0.351,0.278,0.626,0.629,0.626h0.002
		c0.347,0,0.629-0.282,0.63-0.628c0.002-0.348-0.278-0.635-0.625-0.639H101.14z"/>
	<rect y="0" fill="none" width="108.701" height="15.936"/>
</g>
</svg>
