<?xml version="1.0" encoding="utf-8"?>
<!-- Generator: Adobe Illustrator 16.0.0, SVG Export Plug-In . SVG Version: 6.00 Build 0)  -->
<!DOCTYPE svg PUBLIC "-//W3C//DTD SVG 1.1//EN" "http://www.w3.org/Graphics/SVG/1.1/DTD/svg11.dtd">
<svg version="1.1" id="Layer_1" xmlns="http://www.w3.org/2000/svg" xmlns:xlink="http://www.w3.org/1999/xlink" x="0px" y="0px"
	 width="100px" height="100px" viewBox="0 0 100 100" enable-background="new 0 0 100 100" xml:space="preserve">
<g display="none">
	<g display="inline">
		<path fill="#010101" d="M24.451,77.896v-7.461h5.967v1.263h-4.342v1.653h4.04v1.258h-4.04v2.03h4.496v1.257H24.451z"/>
		<path fill="#010101" d="M31.965,77.896v-7.461h1.581l3.293,4.982v-4.982h1.51v7.461h-1.63l-3.244-4.865v4.865H31.965z"/>
		<path fill="#010101" d="M46.797,77.896h-1.542v-5.39c-0.563,0.489-1.228,0.851-1.993,1.084v-1.298
			c0.402-0.122,0.84-0.354,1.312-0.694s0.796-0.738,0.972-1.193h1.251V77.896z"/>
		<path fill="#010101" d="M49.048,75.917l1.493-0.168c0.048,0.353,0.176,0.622,0.384,0.809c0.208,0.188,0.462,0.28,0.758,0.28
			c0.318,0,0.586-0.112,0.804-0.336s0.327-0.525,0.327-0.905c0-0.36-0.104-0.646-0.313-0.855c-0.208-0.21-0.463-0.315-0.763-0.315
			c-0.198,0-0.434,0.035-0.708,0.106l0.17-1.165c0.418,0.01,0.735-0.074,0.955-0.252s0.329-0.415,0.329-0.71
			c0-0.251-0.08-0.451-0.241-0.601s-0.375-0.224-0.643-0.224c-0.264,0-0.488,0.085-0.675,0.254c-0.187,0.17-0.3,0.418-0.34,0.743
			l-1.421-0.224c0.099-0.451,0.248-0.812,0.447-1.081c0.199-0.271,0.478-0.482,0.834-0.637c0.356-0.154,0.756-0.231,1.199-0.231
			c0.758,0,1.365,0.224,1.823,0.672c0.377,0.366,0.565,0.78,0.565,1.241c0,0.655-0.387,1.178-1.158,1.568
			c0.461,0.091,0.829,0.297,1.105,0.615c0.276,0.319,0.415,0.704,0.415,1.155c0,0.655-0.259,1.213-0.774,1.675
			c-0.516,0.461-1.158,0.691-1.927,0.691c-0.728,0-1.332-0.194-1.812-0.582C49.402,77.053,49.125,76.545,49.048,75.917z"/>
		<path fill="#010101" d="M57.962,70.405c0.779,0,1.389,0.258,1.828,0.773c0.522,0.611,0.784,1.624,0.784,3.038
			c0,1.412-0.263,2.426-0.79,3.044c-0.436,0.509-1.043,0.763-1.822,0.763c-0.783,0-1.414-0.278-1.894-0.837
			c-0.479-0.558-0.72-1.553-0.72-2.984c0-1.405,0.264-2.416,0.791-3.033C56.575,70.66,57.183,70.405,57.962,70.405z M57.962,71.591
			c-0.187,0-0.354,0.056-0.5,0.166c-0.146,0.11-0.26,0.308-0.34,0.593c-0.106,0.369-0.159,0.992-0.159,1.867
			c0,0.876,0.048,1.477,0.143,1.805c0.095,0.327,0.215,0.545,0.359,0.653c0.145,0.109,0.311,0.163,0.497,0.163
			s0.354-0.055,0.499-0.165c0.146-0.11,0.26-0.309,0.341-0.593c0.106-0.367,0.159-0.987,0.159-1.863
			c0-0.875-0.048-1.477-0.143-1.804c-0.096-0.327-0.215-0.546-0.359-0.656S58.148,71.591,57.962,71.591z"/>
		<path fill="#010101" d="M61.552,75.917l1.493-0.168c0.047,0.353,0.176,0.622,0.384,0.809c0.209,0.188,0.461,0.28,0.758,0.28
			c0.318,0,0.586-0.112,0.804-0.336s0.327-0.525,0.327-0.905c0-0.36-0.104-0.646-0.313-0.855c-0.208-0.21-0.463-0.315-0.763-0.315
			c-0.197,0-0.434,0.035-0.708,0.106l0.17-1.165c0.417,0.01,0.735-0.074,0.955-0.252s0.329-0.415,0.329-0.71
			c0-0.251-0.08-0.451-0.241-0.601s-0.375-0.224-0.642-0.224c-0.264,0-0.489,0.085-0.676,0.254c-0.187,0.17-0.3,0.418-0.34,0.743
			l-1.422-0.224c0.099-0.451,0.248-0.812,0.447-1.081c0.199-0.271,0.478-0.482,0.834-0.637c0.357-0.154,0.757-0.231,1.199-0.231
			c0.758,0,1.365,0.224,1.823,0.672c0.377,0.366,0.565,0.78,0.565,1.241c0,0.655-0.387,1.178-1.158,1.568
			c0.461,0.091,0.829,0.297,1.105,0.615c0.276,0.319,0.415,0.704,0.415,1.155c0,0.655-0.259,1.213-0.774,1.675
			c-0.516,0.461-1.158,0.691-1.927,0.691c-0.729,0-1.332-0.194-1.812-0.582C61.906,77.053,61.628,76.545,61.552,75.917z"/>
		<path fill="#010101" d="M70.883,77.896v-1.501H67.59v-1.252l3.49-4.738h1.296v4.733h0.999v1.257h-0.999v1.501H70.883z
			 M70.883,75.139v-2.55l-1.85,2.55H70.883z"/>
	</g>
	<g display="inline">
		<path fill="#010101" d="M33.875,90.403v-6.198h-2.388v-1.263h6.395v1.263h-2.382v6.198H33.875z"/>
		<path fill="#010101" d="M37.357,84.999h1.642l1.394,3.837l1.361-3.837h1.597L41.293,90.2l-0.368,0.941
			c-0.136,0.315-0.265,0.556-0.387,0.723c-0.123,0.166-0.264,0.301-0.423,0.404s-0.355,0.184-0.587,0.241s-0.495,0.087-0.788,0.087
			c-0.296,0-0.587-0.029-0.873-0.087l-0.137-1.119c0.241,0.044,0.459,0.066,0.653,0.066c0.358,0,0.624-0.098,0.796-0.293
			c0.172-0.195,0.304-0.443,0.395-0.745L37.357,84.999z"/>
		<path fill="#010101" d="M44.295,84.999h1.438v0.794c0.187-0.271,0.439-0.492,0.757-0.662s0.671-0.254,1.06-0.254
			c0.677,0,1.251,0.246,1.724,0.737c0.472,0.492,0.708,1.178,0.708,2.057c0,0.902-0.238,1.604-0.713,2.104
			c-0.476,0.501-1.052,0.751-1.729,0.751c-0.322,0-0.614-0.06-0.875-0.178c-0.262-0.119-0.537-0.322-0.826-0.611v2.723h-1.542
			V84.999z M45.821,87.609c0,0.607,0.13,1.056,0.39,1.346s0.576,0.436,0.95,0.436c0.358,0,0.657-0.133,0.895-0.399
			s0.357-0.703,0.357-1.311c0-0.566-0.123-0.987-0.368-1.262c-0.245-0.275-0.549-0.413-0.911-0.413c-0.377,0-0.69,0.136-0.939,0.405
			S45.821,87.08,45.821,87.609z"/>
		<path fill="#010101" d="M54.582,88.684l1.537,0.239c-0.197,0.522-0.51,0.92-0.936,1.193c-0.428,0.272-0.961,0.409-1.602,0.409
			c-1.014,0-1.764-0.307-2.25-0.921c-0.384-0.492-0.576-1.113-0.576-1.862c0-0.896,0.252-1.598,0.758-2.104
			c0.504-0.508,1.143-0.761,1.916-0.761c0.867,0,1.551,0.265,2.053,0.796c0.5,0.531,0.74,1.345,0.719,2.44h-3.865
			c0.012,0.424,0.137,0.754,0.373,0.99c0.238,0.235,0.535,0.354,0.891,0.354c0.24,0,0.443-0.062,0.609-0.184
			C54.373,89.151,54.498,88.955,54.582,88.684z M54.67,87.238c-0.012-0.414-0.127-0.729-0.346-0.944
			c-0.221-0.216-0.486-0.323-0.803-0.323c-0.336,0-0.613,0.113-0.834,0.341c-0.219,0.228-0.328,0.536-0.324,0.927H54.67z"/>
		<path fill="#010101" d="M65.478,84.77l-1.493,0.153c-0.036-0.285-0.132-0.496-0.285-0.632s-0.354-0.203-0.599-0.203
			c-0.325,0-0.601,0.136-0.826,0.407c-0.225,0.271-0.366,0.836-0.425,1.694c0.384-0.421,0.861-0.631,1.433-0.631
			c0.644,0,1.195,0.228,1.654,0.682c0.46,0.455,0.689,1.042,0.689,1.761c0,0.764-0.241,1.376-0.725,1.838
			c-0.483,0.461-1.104,0.691-1.861,0.691c-0.812,0-1.479-0.292-2.003-0.878c-0.523-0.585-0.785-1.544-0.785-2.878
			c0-1.367,0.272-2.353,0.818-2.956c0.545-0.604,1.253-0.906,2.124-0.906c0.611,0,1.117,0.159,1.518,0.476
			C65.112,83.705,65.368,84.166,65.478,84.77z M61.981,87.89c0,0.465,0.115,0.823,0.346,1.076s0.494,0.379,0.79,0.379
			c0.285,0,0.523-0.104,0.714-0.311s0.285-0.546,0.285-1.018c0-0.485-0.103-0.841-0.308-1.066s-0.461-0.338-0.769-0.338
			c-0.296,0-0.547,0.107-0.752,0.323C62.083,87.15,61.981,87.469,61.981,87.89z"/>
	</g>
	<path display="inline" fill="#010101" d="M58.722,50.214c-0.888,2.17-0.726,3.083-7.192,3.419
		c-6.482,0.334-6.482-0.081-6.482-0.081s-10.712,1.475-5.897-6.107l4.541-12.503h9.17L58.722,50.214z"/>
	<path display="inline" fill="none" stroke="#010101" stroke-width="0.64" stroke-linecap="round" stroke-miterlimit="3.864" d="
		M44.668,24.167c0,0,2.629,0.517,0.733,5.86c-1.343,4-4.419,12.416-5.861,16.377c-1.051,2.862-3.363,7.23,2.627,7.23h12.598
		c0,0,5.577,0.086,3.069-6.591c-2.159-5.7-5.066-11.293-6.991-17.038c-0.535-1.576-1.141-4.303,1.767-5.822"/>
	<path display="inline" fill="none" stroke="#010101" stroke-width="0.64" stroke-linecap="round" stroke-miterlimit="3.864" d="
		M56.914,13.53c1.343,0.786,2.162,1.032,3.076,1.051c3.342,0.059,2.147-1.684,4.333-2.478c0.842-0.303,2.147-0.123,4.113,1.427
		 M56.826,24.042c1.482,0.849,2.71,1.081,3.655,1.057c2.998-0.086,2.245-1.928,4.484-2.252c0.834-0.122,1.702-0.125,3.381,1.195
		 M49.454,21.369c0,0,2.875-3.005,6.67-0.834c1.643,0.949,2.85,1.158,4.158,1.063c3.473-0.25,2.677-2.121,4.98-2.573
		c0.837-0.163,2.059,0.13,3.814,1.511 M49.014,17.844c0,0,2.87-3.003,6.65-0.833c1.719,0.979,3.397,1.142,4.716,1.024
		c3.313-0.297,2.229-1.817,4.427-2.532c0.806-0.264,2.062,0.13,3.819,1.508"/>
	<path display="inline" fill="none" stroke="#010101" stroke-width="0.361" stroke-miterlimit="3.864" d="M48.623,64.423
		c0,0-21.668-6.28-24.695-33.311L23.723,4.327H73.55l-0.211,26.786C70.311,58.143,48.623,64.423,48.623,64.423z"/>
</g>
<g display="none">
	<g display="inline">
		<path fill="#010101" d="M22.143,75.353v-7.066h5.239v1.195h-3.813v1.566h3.547v1.19h-3.547v1.924h3.948v1.19H22.143z"/>
		<path fill="#010101" d="M28.741,75.353v-7.066h1.389l2.892,4.719v-4.719h1.325v7.066h-1.432l-2.849-4.608v4.608H28.741z"/>
		<path fill="#010101" d="M42.889,70.017l-1.311,0.145c-0.032-0.27-0.116-0.469-0.251-0.598c-0.135-0.129-0.31-0.192-0.525-0.192
			c-0.286,0-0.528,0.128-0.725,0.385c-0.198,0.258-0.322,0.793-0.374,1.605c0.338-0.398,0.757-0.598,1.258-0.598
			c0.565,0,1.05,0.216,1.453,0.646c0.403,0.431,0.605,0.987,0.605,1.668c0,0.724-0.212,1.304-0.636,1.74
			c-0.424,0.438-0.969,0.655-1.634,0.655c-0.713,0-1.3-0.276-1.76-0.831c-0.459-0.555-0.689-1.463-0.689-2.726
			c0-1.295,0.239-2.229,0.718-2.801c0.479-0.572,1.101-0.858,1.865-0.858c0.537,0,0.981,0.15,1.333,0.451
			C42.568,69.009,42.792,69.444,42.889,70.017z M39.818,72.972c0,0.44,0.102,0.78,0.304,1.02c0.203,0.239,0.434,0.358,0.694,0.358
			c0.25,0,0.459-0.098,0.626-0.294c0.167-0.195,0.25-0.517,0.25-0.964c0-0.459-0.09-0.796-0.27-1.01
			c-0.18-0.214-0.405-0.32-0.675-0.32c-0.26,0-0.48,0.102-0.661,0.306C39.908,72.271,39.818,72.573,39.818,72.972z"/>
		<path fill="#010101" d="M47.256,75.353h-1.354v-5.104c-0.495,0.463-1.078,0.805-1.75,1.026v-1.229
			c0.354-0.116,0.738-0.335,1.152-0.658s0.699-0.7,0.853-1.131h1.099V75.353z"/>
		<path fill="#010101" d="M51.936,75.353v-1.422h-2.892v-1.186l3.066-4.488h1.138v4.483h0.877v1.19h-0.877v1.422H51.936z
			 M51.936,72.74v-2.415l-1.625,2.415H51.936z"/>
		<path fill="#010101" d="M55.932,71.54c-0.351-0.148-0.604-0.352-0.764-0.61c-0.159-0.258-0.239-0.542-0.239-0.851
			c0-0.526,0.185-0.962,0.552-1.306c0.368-0.344,0.892-0.517,1.569-0.517c0.672,0,1.193,0.173,1.564,0.517s0.557,0.779,0.557,1.306
			c0,0.328-0.085,0.619-0.256,0.875c-0.17,0.256-0.409,0.451-0.718,0.586c0.392,0.157,0.689,0.387,0.894,0.689
			c0.204,0.302,0.307,0.65,0.307,1.046c0,0.652-0.208,1.183-0.624,1.59c-0.417,0.408-0.97,0.612-1.661,0.612
			c-0.643,0-1.178-0.168-1.604-0.506c-0.505-0.398-0.757-0.944-0.757-1.639c0-0.383,0.095-0.733,0.284-1.054
			C55.225,71.96,55.523,71.713,55.932,71.54z M56.086,73.203c0,0.372,0.096,0.663,0.287,0.872c0.19,0.209,0.43,0.313,0.716,0.313
			c0.279,0,0.511-0.101,0.693-0.302c0.184-0.2,0.275-0.49,0.275-0.87c0-0.33-0.094-0.597-0.28-0.797
			c-0.186-0.201-0.422-0.302-0.708-0.302c-0.331,0-0.578,0.114-0.74,0.342C56.167,72.688,56.086,72.937,56.086,73.203z
			 M56.211,70.176c0,0.27,0.076,0.48,0.229,0.632c0.152,0.15,0.355,0.226,0.609,0.226c0.257,0,0.463-0.076,0.617-0.229
			s0.231-0.364,0.231-0.634c0-0.254-0.076-0.457-0.229-0.609c-0.152-0.153-0.354-0.229-0.604-0.229
			c-0.261,0-0.468,0.077-0.622,0.231S56.211,69.922,56.211,70.176z"/>
		<path fill="#010101" d="M64.835,74.095v1.258h-4.748c0.051-0.476,0.205-0.926,0.463-1.353c0.257-0.425,0.765-0.99,1.522-1.693
			c0.61-0.569,0.985-0.955,1.123-1.157c0.187-0.279,0.28-0.556,0.28-0.829c0-0.302-0.082-0.534-0.244-0.696
			s-0.386-0.244-0.672-0.244c-0.283,0-0.508,0.086-0.675,0.256c-0.167,0.171-0.264,0.453-0.289,0.849l-1.35-0.135
			c0.08-0.746,0.332-1.281,0.757-1.605c0.424-0.324,0.954-0.487,1.59-0.487c0.697,0,1.245,0.188,1.644,0.564
			s0.599,0.844,0.599,1.402c0,0.318-0.058,0.621-0.172,0.909c-0.114,0.287-0.295,0.589-0.542,0.903
			c-0.164,0.209-0.46,0.51-0.887,0.901c-0.428,0.393-0.698,0.652-0.813,0.781c-0.114,0.128-0.206,0.254-0.277,0.376H64.835z"/>
		<path fill="#010101" d="M65.886,73.468v-1.354h2.66v1.354H65.886z"/>
		<path fill="#010101" d="M72.503,75.353h-1.354v-5.104c-0.494,0.463-1.078,0.805-1.749,1.026v-1.229
			c0.354-0.116,0.737-0.335,1.151-0.658c0.415-0.323,0.699-0.7,0.854-1.131h1.099V75.353z"/>
		<path fill="#010101" d="M74.663,73.468v-1.354h2.66v1.354H74.663z"/>
		<path fill="#010101" d="M82.39,74.095v1.258h-4.748c0.051-0.476,0.205-0.926,0.463-1.353c0.257-0.425,0.765-0.99,1.522-1.693
			c0.61-0.569,0.985-0.955,1.123-1.157c0.187-0.279,0.28-0.556,0.28-0.829c0-0.302-0.082-0.534-0.244-0.696S80.4,69.38,80.114,69.38
			c-0.283,0-0.508,0.086-0.675,0.256c-0.167,0.171-0.264,0.453-0.289,0.849l-1.35-0.135c0.08-0.746,0.332-1.281,0.757-1.605
			c0.424-0.324,0.954-0.487,1.59-0.487c0.697,0,1.245,0.188,1.644,0.564s0.599,0.844,0.599,1.402c0,0.318-0.058,0.621-0.172,0.909
			c-0.114,0.287-0.295,0.589-0.542,0.903c-0.164,0.209-0.46,0.51-0.887,0.901c-0.428,0.393-0.698,0.652-0.813,0.781
			c-0.114,0.128-0.206,0.254-0.277,0.376H82.39z"/>
	</g>
	<g display="inline">
		<path fill="#010101" d="M40.109,84.601l1.383,0.438c-0.212,0.771-0.565,1.344-1.058,1.718c-0.493,0.375-1.119,0.562-1.877,0.562
			c-0.938,0-1.709-0.32-2.314-0.961c-0.604-0.642-0.906-1.518-0.906-2.63c0-1.176,0.303-2.089,0.911-2.74
			c0.607-0.65,1.406-0.976,2.396-0.976c0.864,0,1.566,0.255,2.106,0.766c0.321,0.303,0.563,0.736,0.723,1.302l-1.412,0.338
			c-0.083-0.366-0.258-0.656-0.523-0.868s-0.587-0.318-0.967-0.318c-0.523,0-0.949,0.188-1.275,0.564s-0.489,0.985-0.489,1.827
			c0,0.893,0.161,1.529,0.482,1.908c0.321,0.38,0.739,0.569,1.253,0.569c0.379,0,0.706-0.121,0.979-0.362
			C39.794,85.497,39.99,85.117,40.109,84.601z"/>
		<path fill="#010101" d="M42.707,87.198v-7.066h1.354v7.066H42.707z"/>
		<path fill="#010101" d="M46.462,83.641l-1.229-0.222c0.138-0.494,0.376-0.861,0.713-1.099c0.337-0.238,0.839-0.356,1.504-0.356
			c0.604,0,1.054,0.071,1.35,0.214c0.295,0.144,0.504,0.325,0.624,0.545c0.121,0.221,0.181,0.624,0.181,1.212l-0.015,1.581
			c0,0.45,0.021,0.782,0.065,0.996s0.125,0.442,0.244,0.687h-1.34c-0.035-0.09-0.079-0.224-0.13-0.4
			c-0.022-0.08-0.039-0.133-0.048-0.159c-0.231,0.226-0.479,0.395-0.742,0.507c-0.264,0.112-0.545,0.168-0.844,0.168
			c-0.527,0-0.942-0.143-1.246-0.429c-0.304-0.286-0.456-0.647-0.456-1.084c0-0.29,0.069-0.548,0.207-0.774s0.332-0.399,0.581-0.521
			c0.249-0.12,0.608-0.226,1.077-0.315c0.633-0.119,1.072-0.229,1.316-0.333v-0.135c0-0.26-0.064-0.445-0.193-0.557
			C47.953,83.056,47.71,83,47.354,83c-0.241,0-0.429,0.047-0.564,0.142C46.655,83.237,46.545,83.403,46.462,83.641z M48.274,84.74
			c-0.173,0.058-0.448,0.127-0.824,0.207s-0.622,0.159-0.737,0.236c-0.177,0.125-0.265,0.284-0.265,0.477
			c0,0.19,0.07,0.354,0.212,0.492c0.141,0.138,0.321,0.207,0.54,0.207c0.244,0,0.477-0.08,0.699-0.241
			c0.164-0.122,0.271-0.271,0.323-0.448c0.036-0.115,0.053-0.335,0.053-0.66V84.74z"/>
		<path fill="#010101" d="M50.463,85.737l1.359-0.207c0.058,0.264,0.175,0.464,0.352,0.601s0.424,0.204,0.742,0.204
			c0.351,0,0.614-0.063,0.791-0.192c0.118-0.09,0.178-0.21,0.178-0.361c0-0.103-0.032-0.188-0.096-0.256
			c-0.067-0.064-0.219-0.123-0.453-0.178c-1.093-0.241-1.785-0.462-2.078-0.661c-0.405-0.276-0.607-0.66-0.607-1.151
			c0-0.443,0.175-0.816,0.525-1.118c0.351-0.303,0.894-0.453,1.63-0.453c0.7,0,1.221,0.114,1.562,0.342
			c0.341,0.229,0.575,0.565,0.704,1.013l-1.277,0.236c-0.055-0.199-0.159-0.353-0.312-0.458c-0.152-0.106-0.37-0.159-0.653-0.159
			c-0.356,0-0.611,0.05-0.766,0.149c-0.104,0.07-0.154,0.162-0.154,0.274c0,0.097,0.045,0.179,0.135,0.246
			c0.122,0.09,0.544,0.217,1.266,0.381c0.721,0.164,1.225,0.364,1.511,0.603c0.282,0.241,0.424,0.576,0.424,1.007
			c0,0.47-0.195,0.873-0.588,1.21c-0.392,0.338-0.972,0.506-1.74,0.506c-0.697,0-1.249-0.141-1.655-0.424
			C50.854,86.607,50.588,86.223,50.463,85.737z"/>
		<path fill="#010101" d="M55.953,85.737l1.359-0.207c0.058,0.264,0.175,0.464,0.352,0.601s0.424,0.204,0.742,0.204
			c0.351,0,0.614-0.063,0.791-0.192c0.118-0.09,0.178-0.21,0.178-0.361c0-0.103-0.032-0.188-0.096-0.256
			c-0.067-0.064-0.219-0.123-0.453-0.178c-1.093-0.241-1.785-0.462-2.078-0.661c-0.404-0.276-0.607-0.66-0.607-1.151
			c0-0.443,0.176-0.816,0.525-1.118c0.351-0.303,0.894-0.453,1.63-0.453c0.7,0,1.221,0.114,1.562,0.342
			c0.341,0.229,0.575,0.565,0.704,1.013l-1.277,0.236c-0.055-0.199-0.159-0.353-0.312-0.458c-0.152-0.106-0.37-0.159-0.653-0.159
			c-0.356,0-0.611,0.05-0.766,0.149c-0.104,0.07-0.154,0.162-0.154,0.274c0,0.097,0.045,0.179,0.135,0.246
			c0.122,0.09,0.544,0.217,1.266,0.381c0.721,0.164,1.225,0.364,1.511,0.603c0.282,0.241,0.424,0.576,0.424,1.007
			c0,0.47-0.195,0.873-0.588,1.21c-0.392,0.338-0.972,0.506-1.74,0.506c-0.697,0-1.249-0.141-1.655-0.424
			C56.344,86.607,56.078,86.223,55.953,85.737z"/>
		<path fill="#010101" d="M67.839,87.198h-1.354v-5.104c-0.494,0.463-1.078,0.805-1.749,1.026v-1.229
			c0.354-0.116,0.737-0.335,1.151-0.658c0.415-0.323,0.699-0.7,0.854-1.131h1.099V87.198z"/>
	</g>
	<path display="inline" fill="none" stroke="#010101" stroke-width="0.5" stroke-miterlimit="2.613" d="M52.155,29.774l8.58,11.391
		l8.579,11.393H52.155H34.999l8.581-11.393L52.155,29.774z M47.412,36.048H34.999l8.581-11.391l8.575-11.391l8.58,11.391
		l8.579,11.391H56.852 M26.015,5.808H78.3v57.051H26.015V5.808z"/>
</g>
<g display="none">
	<g display="inline">
		<path fill="#010101" d="M20.684,77.641v-6.76h5.024v1.131h-3.653v1.514h3.397v1.133h-3.397v1.852h3.78v1.131H20.684z"/>
		<path fill="#010101" d="M27.014,77.641v-6.76h1.326l2.775,4.514v-4.514h1.258v6.76h-1.371l-2.728-4.418v4.418H27.014z"/>
		<path fill="#010101" d="M36.41,77.641v-6.76h1.371v6.76H36.41z"/>
		<path fill="#010101" d="M38.738,75.439l1.326-0.128c0.079,0.45,0.239,0.766,0.493,0.989c0.239,0.209,0.574,0.305,0.991,0.305
			c0.431,0,0.766-0.096,0.988-0.27c0.222-0.191,0.335-0.4,0.335-0.654c0-0.162-0.048-0.303-0.144-0.416s-0.256-0.209-0.496-0.287
			c-0.158-0.063-0.526-0.158-1.083-0.305c-0.735-0.174-1.244-0.398-1.548-0.67c-0.414-0.365-0.622-0.826-0.622-1.355
			c0-0.35,0.096-0.67,0.287-0.974c0.208-0.3,0.479-0.524,0.847-0.683c0.366-0.162,0.813-0.242,1.34-0.242
			c0.845,0,1.483,0.191,1.914,0.559c0.431,0.383,0.653,0.877,0.684,1.502l-1.371,0.063c-0.065-0.35-0.191-0.607-0.383-0.748
			c-0.191-0.161-0.479-0.242-0.861-0.242c-0.4,0-0.701,0.081-0.94,0.258c-0.144,0.096-0.208,0.236-0.208,0.412
			c0,0.162,0.064,0.303,0.208,0.416c0.158,0.144,0.588,0.287,1.244,0.445c0.67,0.162,1.163,0.32,1.483,0.494
			c0.318,0.161,0.558,0.4,0.749,0.688c0.174,0.287,0.27,0.652,0.27,1.07c0,0.398-0.11,0.766-0.335,1.098
			c-0.206,0.338-0.509,0.59-0.909,0.751c-0.397,0.161-0.875,0.257-1.466,0.257c-0.861,0-1.515-0.209-1.979-0.592
			C39.09,76.779,38.819,76.205,38.738,75.439z"/>
		<path fill="#010101" d="M45.102,74.309c0-0.703,0.113-1.277,0.321-1.74c0.158-0.348,0.366-0.652,0.622-0.922
			c0.271-0.287,0.558-0.479,0.875-0.625c0.431-0.176,0.909-0.271,1.469-0.271c0.988,0,1.785,0.322,2.393,0.941
			c0.591,0.625,0.892,1.486,0.892,2.584c0,1.086-0.285,1.947-0.892,2.555c-0.591,0.619-1.388,0.924-2.378,0.924
			c-1.005,0-1.801-0.305-2.407-0.911C45.406,76.223,45.102,75.379,45.102,74.309z M46.523,74.261c0,0.766,0.175,1.34,0.526,1.737
			c0.349,0.398,0.813,0.59,1.354,0.59c0.543,0,0.991-0.191,1.34-0.59c0.352-0.383,0.526-0.972,0.526-1.768
			c0-0.766-0.174-1.34-0.509-1.723c-0.352-0.383-0.797-0.574-1.357-0.574c-0.574,0-1.019,0.191-1.371,0.574
			C46.698,72.891,46.523,73.48,46.523,74.261z"/>
		<path fill="#010101" d="M58.404,77.641H57.1V72.76c-0.463,0.434-1.023,0.766-1.678,0.975v-1.182
			c0.354-0.112,0.721-0.316,1.119-0.619c0.398-0.322,0.67-0.67,0.811-1.088h1.053V77.641z"/>
		<path fill="#010101" d="M63.145,77.641H61.85V72.76c-0.479,0.434-1.035,0.766-1.672,0.975v-1.182
			c0.332-0.112,0.699-0.316,1.098-0.619c0.4-0.322,0.67-0.67,0.816-1.088h1.053V77.641z"/>
		<path fill="#010101" d="M69.475,72.538l-1.242,0.126c-0.031-0.252-0.111-0.443-0.24-0.574c-0.143-0.111-0.305-0.174-0.512-0.174
			c-0.271,0-0.508,0.129-0.699,0.365c-0.191,0.242-0.303,0.766-0.354,1.531c0.32-0.365,0.721-0.557,1.215-0.557
			c0.523,0,1.002,0.191,1.385,0.607c0.383,0.412,0.574,0.957,0.574,1.611c0,0.686-0.207,1.244-0.604,1.657
			c-0.414,0.413-0.928,0.622-1.563,0.622c-0.688,0-1.244-0.254-1.691-0.799c-0.432-0.523-0.656-1.385-0.656-2.601
			c0-1.242,0.225-2.134,0.686-2.692c0.463-0.545,1.053-0.816,1.787-0.816c0.51,0,0.943,0.146,1.275,0.434
			C69.174,71.566,69.395,71.979,69.475,72.538z M66.539,75.361c0,0.431,0.096,0.748,0.287,0.975c0.191,0.236,0.418,0.348,0.67,0.348
			c0.242,0,0.434-0.096,0.609-0.287c0.156-0.174,0.236-0.494,0.236-0.922c0-0.434-0.096-0.75-0.271-0.957
			c-0.174-0.209-0.383-0.322-0.635-0.322c-0.258,0-0.463,0.113-0.641,0.305C66.619,74.691,66.539,74.979,66.539,75.361z"/>
		<path fill="#010101" d="M73.672,77.641h-1.311V72.76c-0.463,0.434-1.037,0.766-1.672,0.975v-1.182
			c0.332-0.112,0.699-0.316,1.098-0.619c0.398-0.322,0.67-0.67,0.816-1.088h1.068V77.641z"/>
		<path fill="#010101" d="M79.988,76.447v1.193h-4.549c0.051-0.443,0.191-0.877,0.449-1.289c0.238-0.416,0.717-0.957,1.449-1.627
			c0.59-0.545,0.941-0.912,1.068-1.104c0.191-0.27,0.271-0.539,0.271-0.798c0-0.285-0.08-0.507-0.221-0.668
			c-0.162-0.161-0.383-0.239-0.654-0.239c-0.273,0-0.48,0.096-0.641,0.254c-0.156,0.162-0.252,0.434-0.287,0.816l-1.289-0.131
			c0.08-0.715,0.316-1.227,0.732-1.547c0.4-0.302,0.91-0.463,1.514-0.463c0.67,0,1.199,0.176,1.582,0.544
			c0.383,0.353,0.574,0.813,0.574,1.34c0,0.302-0.066,0.589-0.162,0.876c-0.109,0.272-0.287,0.558-0.523,0.861
			c-0.16,0.207-0.434,0.494-0.846,0.861c-0.416,0.383-0.67,0.625-0.781,0.749c-0.113,0.128-0.191,0.241-0.271,0.37H79.988z"/>
	</g>
	<g display="inline">
		<path fill="#010101" d="M7.795,88.984H6.312L5.72,87.453H3.01l-0.558,1.531H1l2.632-6.766h1.452L7.795,88.984z M5.275,86.305
			L4.35,83.816l-0.926,2.488H5.275z"/>
		<path fill="#010101" d="M11.544,88.984h-1.292v-4.881c-0.479,0.445-1.039,0.766-1.675,0.986v-1.178
			c0.335-0.096,0.701-0.32,1.101-0.641c0.397-0.316,0.67-0.67,0.813-1.069h1.053V88.984z"/>
		<path fill="#010101" d="M22.167,88.984h-1.483l-0.591-1.531h-2.711l-0.56,1.531h-1.45l2.646-6.766h1.436L22.167,88.984z
			 M19.645,86.305l-0.923-2.488l-0.909,2.488H19.645z"/>
		<path fill="#010101" d="M26.983,87.803v1.182h-4.546c0.048-0.449,0.208-0.895,0.447-1.277c0.253-0.416,0.732-0.957,1.467-1.627
			c0.574-0.541,0.94-0.924,1.069-1.115c0.175-0.258,0.271-0.545,0.271-0.799c0-0.287-0.079-0.512-0.239-0.67
			c-0.161-0.158-0.366-0.225-0.639-0.225c-0.27,0-0.493,0.096-0.653,0.258c-0.161,0.158-0.256,0.412-0.271,0.795l-1.292-0.125
			c0.079-0.703,0.318-1.215,0.718-1.531c0.414-0.32,0.923-0.466,1.531-0.466c0.67,0,1.196,0.179,1.579,0.528s0.558,0.828,0.558,1.34
			c0,0.32-0.048,0.607-0.161,0.895c-0.11,0.254-0.287,0.541-0.509,0.861c-0.161,0.191-0.448,0.479-0.861,0.861
			c-0.4,0.383-0.67,0.604-0.766,0.732c-0.113,0.129-0.208,0.254-0.271,0.383H26.983z"/>
		<path fill="#010101" d="M30.78,82.219h2.711c0.543,0,0.94,0.033,1.196,0.066c0.27,0.045,0.509,0.141,0.701,0.287
			c0.225,0.125,0.383,0.316,0.526,0.574c0.144,0.221,0.208,0.479,0.208,0.795c0,0.287-0.079,0.607-0.256,0.861
			c-0.174,0.258-0.397,0.449-0.701,0.607c0.414,0.096,0.734,0.32,0.957,0.607c0.222,0.287,0.335,0.637,0.335,1.02
			c0,0.287-0.079,0.607-0.208,0.895c-0.158,0.287-0.349,0.508-0.588,0.699c-0.256,0.162-0.56,0.287-0.926,0.32
			c-0.223,0.033-0.783,0.033-1.644,0.033H30.78V82.219z M32.151,83.338v1.561h0.892c0.543,0,0.861,0,1.005,0
			c0.225-0.029,0.417-0.125,0.543-0.254c0.144-0.129,0.208-0.32,0.208-0.512c0-0.221-0.064-0.383-0.177-0.508
			c-0.11-0.129-0.287-0.225-0.509-0.258c-0.144,0-0.526-0.029-1.18-0.029H32.151z M32.151,86.047v1.818h1.261
			c0.493,0,0.813-0.029,0.94-0.063c0.208-0.033,0.366-0.129,0.495-0.254c0.127-0.162,0.191-0.354,0.191-0.574
			c0-0.225-0.048-0.383-0.144-0.512c-0.096-0.158-0.239-0.254-0.431-0.32c-0.177-0.063-0.591-0.096-1.213-0.096H32.151z"/>
		<path fill="#010101" d="M41.705,87.803v1.182h-4.546c0.048-0.449,0.191-0.895,0.448-1.277c0.239-0.416,0.734-0.957,1.452-1.627
			c0.588-0.541,0.94-0.924,1.084-1.115c0.174-0.258,0.256-0.545,0.256-0.799c0-0.287-0.064-0.512-0.225-0.67
			c-0.158-0.158-0.366-0.225-0.653-0.225c-0.271,0-0.479,0.096-0.639,0.258c-0.158,0.158-0.253,0.412-0.27,0.795l-1.309-0.125
			c0.082-0.703,0.321-1.215,0.735-1.531c0.399-0.32,0.909-0.466,1.514-0.466c0.67,0,1.196,0.179,1.579,0.528s0.574,0.828,0.574,1.34
			c0,0.32-0.048,0.607-0.158,0.895c-0.112,0.254-0.287,0.541-0.526,0.861c-0.16,0.191-0.431,0.479-0.847,0.861
			c-0.414,0.383-0.67,0.604-0.78,0.732c-0.112,0.129-0.191,0.254-0.273,0.383H41.705z"/>
		<path fill="#010101" d="M49.825,86.496l1.323,0.445c-0.191,0.732-0.543,1.277-1.005,1.627c-0.479,0.35-1.07,0.541-1.802,0.541
			c-0.895,0-1.644-0.316-2.218-0.924s-0.861-1.469-0.861-2.521c0-1.115,0.287-2.01,0.861-2.613c0.591-0.641,1.356-0.942,2.297-0.942
			c0.83,0,1.5,0.239,2.026,0.751c0.301,0.287,0.541,0.699,0.684,1.244l-1.354,0.316c-0.082-0.35-0.239-0.637-0.495-0.828
			c-0.256-0.225-0.558-0.32-0.926-0.32c-0.509,0-0.909,0.191-1.227,0.545c-0.304,0.35-0.462,0.957-0.462,1.752
			c0,0.861,0.158,1.469,0.462,1.818c0.304,0.383,0.701,0.545,1.196,0.545c0.366,0,0.687-0.096,0.94-0.354
			C49.521,87.357,49.713,87.004,49.825,86.496z"/>
		<path fill="#010101" d="M54.594,88.984v-1.34h-2.775v-1.148l2.934-4.294h1.086v4.294h0.844v1.148h-0.844v1.34H54.594z
			 M54.594,86.496v-2.33l-1.564,2.33H54.594z"/>
		<path fill="#010101" d="M60.207,82.219h2.504c0.559,0,0.992,0.051,1.295,0.129c0.383,0.129,0.732,0.32,1.002,0.637
			c0.287,0.287,0.514,0.67,0.654,1.086c0.146,0.445,0.225,0.957,0.225,1.594c0,0.574-0.063,1.053-0.209,1.436
			c-0.174,0.512-0.414,0.895-0.73,1.215c-0.227,0.221-0.543,0.412-0.957,0.541c-0.305,0.096-0.705,0.129-1.215,0.129h-2.568V82.219z
			 M61.58,83.367v4.498h1.02c0.383,0,0.656-0.029,0.832-0.063c0.221-0.063,0.398-0.158,0.541-0.287
			c0.145-0.129,0.27-0.35,0.365-0.67c0.08-0.287,0.131-0.703,0.131-1.244c0-0.512-0.051-0.924-0.131-1.182
			c-0.096-0.287-0.221-0.508-0.398-0.67c-0.158-0.158-0.367-0.254-0.619-0.316c-0.191-0.033-0.574-0.066-1.133-0.066H61.58z"/>
		<path fill="#010101" d="M66.715,87.195l1.244-0.158c0.051,0.32,0.162,0.574,0.338,0.732c0.174,0.191,0.383,0.258,0.635,0.258
			c0.271,0,0.496-0.096,0.67-0.287c0.191-0.225,0.271-0.479,0.271-0.832c0-0.316-0.08-0.574-0.254-0.766s-0.4-0.287-0.637-0.287
			c-0.176,0-0.367,0.033-0.607,0.096l0.143-1.082c0.354,0.029,0.623-0.066,0.814-0.225c0.174-0.158,0.27-0.35,0.27-0.637
			c0-0.225-0.061-0.416-0.207-0.545c-0.125-0.125-0.316-0.191-0.541-0.191s-0.4,0.066-0.557,0.225
			c-0.162,0.158-0.256,0.383-0.287,0.67l-1.199-0.191c0.082-0.416,0.207-0.732,0.367-0.99c0.178-0.254,0.414-0.445,0.701-0.574
			c0.305-0.141,0.639-0.208,1.021-0.208c0.641,0,1.148,0.191,1.531,0.591c0.318,0.354,0.48,0.736,0.48,1.148
			c0,0.574-0.336,1.053-0.988,1.406c0.398,0.096,0.699,0.287,0.939,0.574c0.225,0.287,0.35,0.637,0.35,1.053
			c0,0.574-0.221,1.082-0.654,1.498c-0.428,0.416-0.973,0.637-1.627,0.637c-0.605,0-1.113-0.191-1.514-0.541
			C67.002,88.219,66.781,87.77,66.715,87.195z"/>
		<path fill="#010101" d="M74.932,88.984v-6.766h5.023v1.148h-3.654v1.502h3.4v1.148h-3.4v1.848h3.783v1.119H74.932z"/>
		<path fill="#010101" d="M80.912,87.195l1.244-0.158c0.049,0.32,0.158,0.574,0.334,0.732c0.178,0.191,0.398,0.258,0.623,0.258
			c0.287,0,0.512-0.096,0.703-0.287c0.158-0.225,0.254-0.479,0.254-0.832c0-0.316-0.096-0.574-0.254-0.766
			c-0.191-0.191-0.383-0.287-0.641-0.287c-0.158,0-0.383,0.033-0.604,0.096l0.158-1.082c0.35,0.029,0.607-0.066,0.799-0.225
			s0.287-0.35,0.287-0.637c0-0.225-0.096-0.416-0.225-0.545c-0.129-0.125-0.32-0.191-0.541-0.191c-0.225,0-0.416,0.066-0.561,0.225
			c-0.16,0.158-0.256,0.383-0.285,0.67l-1.197-0.191c0.078-0.416,0.209-0.732,0.365-0.99c0.176-0.254,0.418-0.445,0.705-0.574
			c0.303-0.141,0.652-0.208,1.002-0.208c0.641,0,1.148,0.191,1.531,0.591c0.32,0.354,0.479,0.736,0.479,1.148
			c0,0.574-0.316,1.053-0.957,1.406c0.383,0.096,0.703,0.287,0.928,0.574c0.221,0.287,0.35,0.637,0.35,1.053
			c0,0.574-0.225,1.082-0.67,1.498c-0.416,0.416-0.957,0.637-1.594,0.637c-0.625,0-1.133-0.191-1.531-0.541
			C81.199,88.219,80.975,87.77,80.912,87.195z"/>
		<path fill="#010101" d="M89.143,88.984v-6.766h4.627v1.148h-3.254v1.598h2.805v1.148h-2.805v2.871H89.143z"/>
		<path fill="#010101" d="M99,87.803v1.182h-4.561c0.063-0.449,0.221-0.895,0.445-1.277c0.254-0.416,0.732-0.957,1.469-1.627
			c0.574-0.541,0.957-0.924,1.082-1.115c0.162-0.258,0.258-0.545,0.258-0.799c0-0.287-0.066-0.512-0.225-0.67
			s-0.383-0.225-0.637-0.225c-0.287,0-0.512,0.096-0.67,0.258c-0.162,0.158-0.258,0.412-0.258,0.795l-1.307-0.125
			c0.096-0.703,0.32-1.215,0.732-1.531c0.416-0.32,0.928-0.466,1.531-0.466c0.67,0,1.182,0.179,1.564,0.528S99,83.559,99,84.07
			c0,0.32-0.063,0.607-0.158,0.895c-0.129,0.254-0.287,0.541-0.512,0.861c-0.158,0.191-0.445,0.479-0.861,0.861
			s-0.67,0.604-0.766,0.732c-0.129,0.129-0.225,0.254-0.287,0.383H99z"/>
	</g>
	<path display="inline" fill="#010101" d="M45.04,55.246c0,0-8.025,0.176-8.551-6.825c-0.509-7.051-0.222-9.109-0.222-9.109
		s1.483,1.357,1.945,0.335c0,0,0.56-6.491,0.335-7.848c0,0,0.464-0.684,2.393,2.84c0,0,1.818-1.818,0.464-10.128
		c0,0,1.706-0.464,3.412,2.393c0,0,0.799,0.445,1.134-10.479c0,0,1.148,5.565,2.967,7.623s1.593,3.766,1.593,3.766
		s0.448,0,0.909-2.393c0,0,2.568,1.306,3.525,9.68c0,0,0.512-0.287,0.574-1.88c0.033-0.813,3.254,3.125,2.791,10.702
		c0,0,0.559,0.287,1.244-0.175c0,0,0,10.879-10.462,11.563c0,0,5.981-4.85,4.608-11.167c0,0-0.396,0.974-1.307,0.799
		c0,0,0.445-3.749-0.35-5.01c0,0-1.373,3.127-2.395,3.589c0,0,0.974-5.359-1.753-7.8c0,0-0.639,7.178-1.483,7.513
		c0,0-0.974-1.641-1.993-2.215c0,0-0.177,5.852,0.048,6.091c0,0-2.505-3.364-2.905-5.007c0,0-0.557,0.557-0.445,4.323
		c0,0-0.352,0-0.751-0.447c0,0-0.335,4.146,4.388,9.029L45.04,55.246z"/>
	<path display="inline" fill="none" stroke="#010101" stroke-width="0.361" stroke-miterlimit="3.864" d="M39.92,55.934h14.354
		 M47.542,65.408c0,0-18.231-5.694-20.782-30.211l-0.177-24.309h41.92l-0.178,24.309C65.791,59.714,47.542,65.408,47.542,65.408z"/>
</g>
<g>
	<g>
		<path fill="#010101" d="M30.994,70.061h-1.29l-0.513-1.33h-2.343l-0.485,1.33h-1.257l2.286-5.864h1.251L30.994,70.061z
			 M28.813,67.741l-0.809-2.177l-0.793,2.177H28.813z"/>
		<path fill="#010101" d="M31.632,70.061v-5.864h1.153l2.401,3.917v-3.917h1.1v5.864h-1.188l-2.365-3.822v3.822H31.632z"/>
		<path fill="#010101" d="M37.24,68.154l1.152-0.112c0.069,0.387,0.21,0.671,0.423,0.853c0.212,0.182,0.498,0.272,0.858,0.272
			c0.38,0,0.668-0.08,0.863-0.242c0.193-0.161,0.289-0.351,0.289-0.565c0-0.141-0.04-0.257-0.122-0.354
			c-0.082-0.099-0.224-0.184-0.427-0.255c-0.138-0.048-0.455-0.132-0.948-0.257c-0.635-0.157-1.08-0.351-1.337-0.582
			c-0.36-0.321-0.538-0.715-0.538-1.179c0-0.298,0.083-0.577,0.252-0.839c0.17-0.26,0.415-0.458,0.733-0.593
			c0.318-0.137,0.703-0.205,1.154-0.205c0.736,0,1.29,0.16,1.663,0.484c0.372,0.323,0.566,0.755,0.585,1.292l-1.184,0.054
			c-0.051-0.302-0.161-0.52-0.326-0.65c-0.167-0.134-0.417-0.199-0.75-0.199c-0.346,0-0.615,0.07-0.81,0.212
			c-0.125,0.091-0.187,0.213-0.187,0.365c0,0.139,0.059,0.257,0.175,0.354c0.15,0.127,0.513,0.257,1.089,0.394
			s1.002,0.275,1.279,0.421c0.275,0.147,0.492,0.345,0.648,0.598c0.155,0.251,0.233,0.563,0.233,0.934
			c0,0.335-0.093,0.651-0.28,0.943c-0.188,0.295-0.452,0.514-0.792,0.655c-0.341,0.143-0.767,0.214-1.276,0.214
			c-0.743,0-1.313-0.172-1.709-0.513C37.555,69.311,37.316,68.811,37.24,68.154z"/>
		<path fill="#010101" d="M42.97,70.061v-5.864h1.185v5.864H42.97z"/>
		<path fill="#010101" d="M47.052,70.061v-1.066l3.081-3.805h-2.734v-0.993h4.293v0.921l-3.211,3.957h3.336v0.986H47.052z"/>
		<path fill="#010101" d="M53.283,66.897c-0.291-0.122-0.502-0.293-0.635-0.507c-0.133-0.215-0.197-0.451-0.197-0.707
			c0-0.436,0.152-0.799,0.457-1.082c0.305-0.288,0.739-0.43,1.304-0.43c0.556,0,0.99,0.142,1.298,0.43
			c0.309,0.283,0.461,0.646,0.461,1.082c0,0.272-0.069,0.515-0.21,0.729c-0.142,0.21-0.342,0.372-0.599,0.485
			c0.326,0.13,0.574,0.321,0.744,0.571c0.17,0.251,0.255,0.542,0.255,0.868c0,0.543-0.174,0.983-0.52,1.321
			c-0.344,0.339-0.806,0.508-1.38,0.508c-0.532,0-0.977-0.139-1.33-0.421c-0.42-0.33-0.628-0.783-0.628-1.36
			c0-0.316,0.079-0.607,0.236-0.874C52.695,67.245,52.944,67.041,53.283,66.897z M53.411,68.277c0,0.311,0.08,0.551,0.238,0.727
			c0.158,0.171,0.357,0.258,0.595,0.258c0.231,0,0.423-0.084,0.576-0.25c0.152-0.166,0.227-0.408,0.227-0.724
			c0-0.272-0.076-0.494-0.229-0.659c-0.157-0.167-0.354-0.251-0.59-0.251c-0.275,0-0.48,0.094-0.615,0.284
			C53.479,67.851,53.411,68.057,53.411,68.277z M53.516,65.766c0,0.224,0.063,0.398,0.189,0.522
			c0.127,0.126,0.296,0.189,0.507,0.189c0.212,0,0.384-0.063,0.512-0.19c0.127-0.126,0.191-0.303,0.191-0.526
			c0-0.211-0.064-0.381-0.188-0.506c-0.128-0.128-0.295-0.19-0.502-0.19c-0.218,0-0.389,0.063-0.518,0.193
			C53.579,65.385,53.516,65.553,53.516,65.766z"/>
		<path fill="#010101" d="M56.876,65.321v-1.045h3.846v0.816c-0.316,0.312-0.64,0.76-0.968,1.344
			c-0.329,0.585-0.578,1.205-0.752,1.863c-0.171,0.657-0.256,1.246-0.253,1.761h-1.086c0.02-0.811,0.186-1.635,0.503-2.479
			c0.314-0.844,0.738-1.598,1.268-2.261H56.876z"/>
		<path fill="#010101" d="M61.674,70.061v-1.123h1.123v1.123H61.674z"/>
		<path fill="#010101" d="M66.587,70.061h-1.125v-4.236c-0.409,0.384-0.895,0.669-1.452,0.853v-1.019
			c0.294-0.097,0.614-0.279,0.955-0.547c0.348-0.268,0.582-0.582,0.711-0.939h0.911V70.061z"/>
	</g>
	<path fill="#010101" d="M71.495,37.853c0.174-0.792,0.263-1.498,0.085-1.939c-0.085-0.528-0.531-0.793-1.411-0.793
		s-1.672,0.972-1.85,2.026c-1.055,4.935,10.926,1.938,8.812,11.632c-1.498,6.96-6.167,9.166-11.277,9.166
		c-5.199,0-10.396-0.88-8.46-8.458h8.021c-0.177,1.056-0.356,1.851-0.177,2.553c0.088,0.528,0.35,0.97,1.055,0.97
		c1.146,0,2.112-1.058,2.38-2.382c1.233-5.814-10.837-2.024-8.724-11.717c1.322-6.346,5.198-9.077,11.368-9.077
		c7.665,0,8.547,3.7,7.665,8.019H71.495z"/>
	<polygon fill="#010101" points="83.395,30.629 91.5,30.629 85.861,57.152 77.667,57.152 	"/>
	<path fill="#010101" d="M8.5,57.152h8.37l1.499-4.143h4.405l-0.267,4.143h8.285l0.177-26.523H19.78L8.5,57.152z M24.447,35.474
		L24.447,35.474l-1.145,12.335H20.13L24.447,35.474z"/>
	<polygon fill="#010101" points="37.399,30.629 47.885,30.629 49.031,46.662 49.12,46.662 52.553,30.629 59.429,30.629 
		53.79,57.152 43.391,57.152 42.072,41.467 41.982,41.467 38.632,57.152 31.761,57.152 	"/>
</g>
</svg>
