<?xml version="1.0" encoding="utf-8"?>
<!-- Generator: Adobe Illustrator 16.0.0, SVG Export Plug-In . SVG Version: 6.00 Build 0)  -->
<!DOCTYPE svg PUBLIC "-//W3C//DTD SVG 1.1//EN" "http://www.w3.org/Graphics/SVG/1.1/DTD/svg11.dtd">
<svg version="1.1" id="Layer_1" xmlns="http://www.w3.org/2000/svg" xmlns:xlink="http://www.w3.org/1999/xlink" x="0px" y="0px"
	 width="100px" height="100px" viewBox="0 0 100 100" enable-background="new 0 0 100 100" xml:space="preserve">
<g>
	<g>
		<defs>
			<rect id="SVGID_1_" x="9.996" y="10" width="80" height="80"/>
		</defs>
		<clipPath id="SVGID_2_">
			<use xlink:href="#SVGID_1_"  overflow="visible"/>
		</clipPath>
		<path clip-path="url(#SVGID_2_)" d="M28.216,72.352h-9.594c-2.377,0-4.535-0.984-6.097-2.58c-1.558-1.589-2.53-3.782-2.53-6.202
			V18.778c0-2.408,0.975-4.607,2.541-6.201C14.097,10.986,16.25,10,18.622,10h62.75c2.378,0,4.529,0.986,6.09,2.576
			c1.561,1.588,2.535,3.787,2.535,6.201v44.792c0,2.413-0.975,4.602-2.535,6.191c-1.563,1.598-3.718,2.589-6.09,2.589h-7.204H28.216
			V72.352z"/>
	</g>
	<g>
		<defs>
			<rect id="SVGID_3_" x="9.996" y="10" width="80" height="80"/>
		</defs>
		<clipPath id="SVGID_4_">
			<use xlink:href="#SVGID_3_"  overflow="visible"/>
		</clipPath>
		<path clip-path="url(#SVGID_4_)" fill="#FFCB05" d="M11.384,26.821v-8.042c0-1.952,0.754-3.796,2.125-5.191
			c1.375-1.406,3.193-2.179,5.109-2.179h62.75c1.932,0,3.751,0.77,5.113,2.164c1.373,1.398,2.125,3.247,2.125,5.206v8.043H11.384z"
			/>
	</g>
	<g>
		<defs>
			<rect id="SVGID_5_" x="9.996" y="10" width="80" height="80"/>
		</defs>
		<clipPath id="SVGID_6_">
			<use xlink:href="#SVGID_5_"  overflow="visible"/>
		</clipPath>
		<rect x="34.638" y="14.999" clip-path="url(#SVGID_6_)" fill="#FFCB05" width="30.611" height="8.566"/>
	</g>
	<g>
		<defs>
			<rect id="SVGID_7_" x="9.996" y="10" width="80" height="80"/>
		</defs>
		<clipPath id="SVGID_8_">
			<use xlink:href="#SVGID_7_"  overflow="visible"/>
		</clipPath>
		<path clip-path="url(#SVGID_8_)" fill="#FFCB05" d="M18.622,70.939c-1.927,0-3.742-0.773-5.115-2.168
			c-1.369-1.4-2.121-3.244-2.121-5.205v-8.041h77.217v8.041c0,1.952-0.748,3.795-2.123,5.189c-1.375,1.404-3.189,2.184-5.109,2.184
			H18.622z"/>
	</g>
	<g>
		<defs>
			<rect id="SVGID_9_" x="9.996" y="10" width="80" height="80"/>
		</defs>
		<clipPath id="SVGID_10_">
			<use xlink:href="#SVGID_9_"  overflow="visible"/>
		</clipPath>
		<rect x="26.473" y="58.871" clip-path="url(#SVGID_10_)" fill="#FFCB05" width="42.933" height="8.857"/>
	</g>
	<g>
		<defs>
			<rect id="SVGID_11_" x="9.996" y="10" width="80" height="80"/>
		</defs>
		<clipPath id="SVGID_12_">
			<use xlink:href="#SVGID_11_"  overflow="visible"/>
		</clipPath>
		<rect x="70.485" y="58.583" clip-path="url(#SVGID_12_)" fill="#FFCB05" width="3.251" height="5.016"/>
	</g>
	<g>
		<defs>
			<rect id="SVGID_13_" x="9.996" y="10" width="80" height="80"/>
		</defs>
		<clipPath id="SVGID_14_">
			<use xlink:href="#SVGID_13_"  overflow="visible"/>
		</clipPath>
		<g clip-path="url(#SVGID_14_)">
			<path d="M35.042,23.5l3.237-8.583h1.201l3.45,8.583h-1.271l-0.983-2.6h-3.524l-0.924,2.6H35.042z M37.475,19.976h2.856
				l-0.88-2.377c-0.267-0.722-0.466-1.315-0.598-1.779c-0.106,0.549-0.257,1.097-0.453,1.639L37.475,19.976z"/>
		</g>
	</g>
	<g>
		<defs>
			<rect id="SVGID_15_" x="9.996" y="10" width="80" height="80"/>
		</defs>
		<clipPath id="SVGID_16_">
			<use xlink:href="#SVGID_15_"  overflow="visible"/>
		</clipPath>
		<g clip-path="url(#SVGID_16_)">
			<path d="M45.094,23.5v-7.569h-2.777v-1.013h6.679v1.013h-2.787V23.5H45.094z"/>
			<path d="M50.14,23.5v-8.583h3.18c0.56,0,0.986,0.027,1.282,0.083c0.415,0.069,0.762,0.203,1.041,0.4
				c0.28,0.198,0.507,0.473,0.677,0.828c0.169,0.355,0.255,0.746,0.255,1.172c0,0.73-0.229,1.347-0.683,1.851
				c-0.457,0.506-1.281,0.76-2.474,0.76h-2.159v3.488L50.14,23.5L50.14,23.5z M51.258,18.999h2.178c0.72,0,1.23-0.137,1.533-0.411
				c0.305-0.273,0.454-0.657,0.454-1.152c0-0.359-0.087-0.667-0.268-0.921c-0.178-0.257-0.414-0.426-0.703-0.508
				c-0.187-0.05-0.534-0.075-1.04-0.075h-2.154V18.999z"/>
			<path d="M60.399,23.5l-3.264-8.583h1.207l2.189,6.234c0.178,0.5,0.325,0.968,0.443,1.404c0.132-0.467,0.282-0.936,0.453-1.404
				l2.277-6.234h1.137L61.545,23.5H60.399z"/>
		</g>
	</g>
</g>
<g>
	<path d="M32.776,64.598l1.115,0.288c-0.234,0.933-0.656,1.644-1.262,2.133c-0.607,0.49-1.351,0.734-2.228,0.734
		c-0.908,0-1.646-0.187-2.216-0.563c-0.57-0.375-1.002-0.922-1.299-1.637c-0.297-0.714-0.445-1.481-0.445-2.3
		c0-0.894,0.167-1.673,0.503-2.339c0.335-0.666,0.812-1.17,1.432-1.517c0.618-0.346,1.299-0.52,2.043-0.52
		c0.843,0,1.552,0.219,2.126,0.656c0.575,0.438,0.975,1.052,1.202,1.844l-1.098,0.266c-0.195-0.625-0.479-1.08-0.851-1.367
		c-0.371-0.282-0.838-0.425-1.402-0.425c-0.647,0-1.189,0.157-1.625,0.473c-0.434,0.317-0.74,0.742-0.917,1.273
		c-0.177,0.533-0.265,1.084-0.265,1.649c0,0.729,0.104,1.367,0.313,1.911c0.21,0.546,0.534,0.951,0.975,1.222
		c0.441,0.269,0.917,0.403,1.432,0.403c0.625,0,1.153-0.184,1.585-0.551C32.33,65.865,32.622,65.322,32.776,64.598z"/>
	<path d="M34.339,67.607l3.236-8.58h1.201l3.449,8.58h-1.271l-0.983-2.598h-3.523l-0.925,2.598H34.339z M36.771,64.084h2.857
		l-0.88-2.378c-0.267-0.72-0.466-1.314-0.598-1.778c-0.106,0.551-0.257,1.094-0.453,1.638L36.771,64.084z"/>
	<path d="M43.07,67.607v-8.58h1.114v7.568h4.15v1.012H43.07z"/>
	<path d="M48.755,67.753l2.444-8.873h0.828l-2.438,8.875h-0.834V67.753z"/>
	<path d="M58.946,64.598l1.116,0.288c-0.234,0.933-0.654,1.644-1.262,2.133c-0.607,0.49-1.35,0.734-2.227,0.734
		c-0.91,0-1.646-0.187-2.217-0.563c-0.569-0.375-1.002-0.922-1.299-1.637c-0.297-0.714-0.445-1.481-0.445-2.3
		c0-0.894,0.167-1.673,0.503-2.339c0.335-0.666,0.813-1.17,1.43-1.517c0.619-0.346,1.302-0.52,2.046-0.52
		c0.842,0,1.551,0.219,2.126,0.656s0.976,1.052,1.202,1.844l-1.101,0.266c-0.194-0.625-0.478-1.08-0.85-1.367
		c-0.37-0.282-0.838-0.425-1.401-0.425c-0.648,0-1.189,0.157-1.624,0.473c-0.438,0.317-0.742,0.742-0.917,1.273
		c-0.177,0.533-0.264,1.084-0.264,1.649c0,0.729,0.104,1.367,0.313,1.911c0.208,0.546,0.533,0.951,0.974,1.222
		c0.442,0.269,0.918,0.403,1.433,0.403c0.625,0,1.151-0.184,1.585-0.551C58.499,65.865,58.795,65.322,58.946,64.598z"/>
	<path d="M61.401,67.607v-8.58h1.678l1.997,6.076c0.182,0.564,0.316,0.988,0.399,1.27c0.096-0.313,0.247-0.77,0.45-1.375
		l2.018-5.971h1.501v8.58h-1.076v-7.182l-2.448,7.182h-1.007l-2.438-7.305v7.305H61.401z"/>
</g>
<g>
	<path d="M73.78,63.027v0.59h-3.246c-0.004-0.149,0.02-0.291,0.07-0.426c0.082-0.227,0.215-0.447,0.396-0.666
		c0.185-0.219,0.445-0.473,0.789-0.758c0.536-0.445,0.896-0.799,1.083-1.061c0.188-0.26,0.282-0.508,0.282-0.738
		c0-0.244-0.086-0.45-0.258-0.615c-0.17-0.168-0.392-0.252-0.668-0.252c-0.289,0-0.521,0.09-0.697,0.268
		c-0.174,0.176-0.261,0.424-0.264,0.736l-0.621-0.064c0.044-0.471,0.203-0.83,0.481-1.076c0.277-0.248,0.648-0.371,1.115-0.371
		c0.474,0,0.846,0.133,1.119,0.398c0.275,0.268,0.412,0.597,0.412,0.99c0,0.2-0.041,0.396-0.118,0.591
		c-0.083,0.191-0.216,0.396-0.4,0.609c-0.188,0.214-0.498,0.509-0.93,0.882c-0.364,0.309-0.596,0.52-0.7,0.629
		c-0.102,0.111-0.188,0.223-0.253,0.334H73.78z"/>
</g>
<g>
	<g>
		<defs>
			<rect id="SVGID_17_" x="9.996" y="10" width="80" height="80"/>
		</defs>
		<clipPath id="SVGID_18_">
			<use xlink:href="#SVGID_17_"  overflow="visible"/>
		</clipPath>
		<g clip-path="url(#SVGID_18_)">
			<path d="M21.817,85.487h-1.851l-0.736-1.949h-3.368l-0.696,1.949h-1.806l3.283-8.582h1.8L21.817,85.487z M18.684,82.094
				l-1.161-3.186l-1.138,3.186H18.684z"/>
			<path d="M22.289,82.695l1.656-0.164c0.099,0.566,0.301,0.982,0.606,1.248c0.305,0.265,0.716,0.396,1.233,0.396
				c0.548,0,0.961-0.116,1.239-0.351c0.277-0.239,0.417-0.515,0.417-0.828c0-0.203-0.058-0.378-0.176-0.519
				c-0.118-0.143-0.32-0.268-0.612-0.372c-0.199-0.07-0.654-0.195-1.363-0.375c-0.912-0.23-1.551-0.515-1.92-0.851
				c-0.517-0.47-0.775-1.049-0.775-1.727c0-0.438,0.121-0.846,0.366-1.226c0.242-0.382,0.593-0.67,1.05-0.869
				c0.458-0.199,1.012-0.3,1.659-0.3c1.058,0,1.854,0.237,2.388,0.71c0.536,0.473,0.817,1.102,0.843,1.891l-1.702,0.074
				c-0.072-0.44-0.229-0.758-0.469-0.95c-0.239-0.193-0.598-0.29-1.077-0.29c-0.494,0-0.881,0.104-1.162,0.311
				c-0.18,0.133-0.27,0.311-0.27,0.533c0,0.203,0.084,0.378,0.253,0.521c0.214,0.182,0.735,0.375,1.564,0.572
				c0.827,0.201,1.439,0.406,1.836,0.618c0.397,0.213,0.708,0.505,0.931,0.872c0.224,0.369,0.337,0.825,0.337,1.367
				c0,0.492-0.135,0.952-0.402,1.383c-0.269,0.427-0.648,0.748-1.139,0.957c-0.49,0.207-1.102,0.313-1.833,0.313
				c-1.065,0-1.883-0.251-2.454-0.751C22.74,84.386,22.4,83.656,22.289,82.695z"/>
			<path d="M32.468,85.487v-7.13h-2.5v-1.451h6.697v1.451h-2.495v7.13H32.468z"/>
			<path d="M37.74,85.487v-8.581h2.546l1.529,5.854l1.512-5.854h2.553v8.581h-1.58v-6.755l-1.673,6.755h-1.639l-1.667-6.755v6.755
				H37.74z"/>
			<path d="M50.851,85.487v-8.581h5.776v1.451h-4.074v2.031h3.517v1.451h-3.517v3.649h-1.702V85.487z"/>
			<path d="M65.077,85.487h-1.615v-6.198c-0.589,0.563-1.284,0.977-2.088,1.246v-1.491c0.422-0.142,0.882-0.407,1.375-0.8
				c0.494-0.393,0.835-0.85,1.018-1.373h1.311V85.487z"/>
			<path d="M67.525,83.504l1.564-0.176c0.037,0.323,0.137,0.564,0.299,0.721c0.159,0.155,0.373,0.232,0.639,0.232
				c0.332,0,0.615-0.154,0.85-0.467c0.234-0.313,0.383-0.961,0.45-1.944c-0.406,0.479-0.914,0.719-1.523,0.719
				c-0.662,0-1.234-0.26-1.717-0.782c-0.48-0.521-0.72-1.199-0.72-2.033c0-0.87,0.252-1.572,0.761-2.104
				c0.508-0.534,1.154-0.8,1.94-0.8c0.854,0,1.557,0.336,2.105,1.011c0.547,0.673,0.82,1.779,0.82,3.321
				c0,1.569-0.285,2.702-0.855,3.395c-0.573,0.695-1.316,1.043-2.23,1.043c-0.657,0-1.191-0.178-1.598-0.535
				C67.901,84.747,67.64,84.216,67.525,83.504z M71.181,79.911c0-0.531-0.118-0.944-0.359-1.235
				c-0.237-0.295-0.516-0.441-0.829-0.441c-0.299,0-0.548,0.12-0.744,0.361c-0.197,0.238-0.296,0.633-0.296,1.18
				c0,0.555,0.106,0.961,0.32,1.221c0.216,0.257,0.484,0.389,0.805,0.389c0.312,0,0.572-0.125,0.785-0.376
				C71.076,80.762,71.181,80.395,71.181,79.911z"/>
			<path d="M74.063,83.281l1.609-0.17c0.048,0.371,0.182,0.667,0.407,0.882c0.226,0.216,0.487,0.324,0.782,0.324
				c0.336,0,0.624-0.14,0.858-0.418c0.232-0.277,0.35-0.699,0.35-1.262c0-0.525-0.115-0.922-0.349-1.185
				c-0.232-0.263-0.532-0.396-0.906-0.396c-0.462,0-0.879,0.21-1.246,0.627l-1.311-0.192l0.827-4.467h4.271v1.539h-3.047
				l-0.253,1.456c0.359-0.183,0.727-0.273,1.104-0.273c0.716,0,1.323,0.266,1.822,0.797c0.498,0.528,0.746,1.219,0.746,2.064
				c0,0.707-0.199,1.339-0.604,1.893c-0.548,0.755-1.309,1.134-2.282,1.134c-0.777,0-1.412-0.213-1.901-0.638
				C74.451,84.571,74.155,84,74.063,83.281z"/>
			<path d="M80.618,83.504l1.565-0.176c0.036,0.323,0.136,0.564,0.299,0.721c0.159,0.155,0.373,0.232,0.639,0.232
				c0.331,0,0.615-0.154,0.85-0.467c0.234-0.313,0.383-0.961,0.45-1.944c-0.406,0.479-0.915,0.719-1.523,0.719
				c-0.662,0-1.234-0.26-1.717-0.782c-0.48-0.521-0.72-1.199-0.72-2.033c0-0.87,0.252-1.572,0.76-2.104
				c0.509-0.534,1.155-0.8,1.941-0.8c0.854,0,1.556,0.336,2.105,1.011c0.547,0.673,0.819,1.779,0.819,3.321
				c0,1.569-0.284,2.702-0.854,3.395c-0.573,0.695-1.316,1.043-2.23,1.043c-0.657,0-1.191-0.178-1.598-0.535
				C80.996,84.747,80.733,84.216,80.618,83.504z M84.274,79.911c0-0.531-0.119-0.944-0.359-1.235
				c-0.237-0.295-0.516-0.441-0.83-0.441c-0.298,0-0.547,0.12-0.743,0.361c-0.197,0.238-0.296,0.633-0.296,1.18
				c0,0.555,0.106,0.961,0.32,1.221c0.216,0.257,0.484,0.389,0.805,0.389c0.312,0,0.572-0.125,0.784-0.376
				C84.17,80.762,84.274,80.395,84.274,79.911z"/>
		</g>
	</g>
</g>
<g>
	<path fill="#FFFFFF" d="M45.229,32.194v17.338h-4.704v-11.36c-0.762,0.589-1.498,1.065-2.209,1.43
		c-0.712,0.366-1.603,0.713-2.678,1.047v-3.883c1.583-0.519,2.813-1.144,3.688-1.872c0.875-0.729,1.561-1.629,2.056-2.698
		L45.229,32.194L45.229,32.194z"/>
	<path fill="#FFFFFF" d="M52.171,32.485H63.21v3.778h-7.477l-0.399,2.558c0.517-0.248,1.028-0.434,1.534-0.558
		c0.506-0.124,1.006-0.186,1.502-0.186c1.676,0,3.034,0.516,4.076,1.547c1.044,1.031,1.565,2.33,1.565,3.895
		c0,1.101-0.271,2.159-0.806,3.174c-0.536,1.016-1.299,1.791-2.285,2.326c-0.983,0.534-2.245,0.803-3.782,0.803
		c-1.106,0-2.052-0.106-2.839-0.32c-0.786-0.213-1.457-0.531-2.01-0.954c-0.551-0.421-0.998-0.9-1.343-1.435
		c-0.341-0.535-0.628-1.201-0.854-2l4.703-0.523c0.116,0.768,0.382,1.35,0.799,1.75c0.42,0.4,0.919,0.6,1.498,0.6
		c0.647,0,1.18-0.25,1.602-0.75c0.424-0.5,0.635-1.246,0.635-2.238c0-1.016-0.213-1.761-0.64-2.234
		c-0.425-0.473-0.993-0.709-1.699-0.709c-0.452,0-0.884,0.113-1.304,0.337c-0.313,0.163-0.654,0.457-1.027,0.884l-3.961-0.582
		L52.171,32.485z"/>
</g>
</svg>
