<?xml version="1.0" encoding="utf-8"?>
<!-- Generator: Adobe Illustrator 16.0.0, SVG Export Plug-In . SVG Version: 6.00 Build 0)  -->
<!DOCTYPE svg PUBLIC "-//W3C//DTD SVG 1.1//EN" "http://www.w3.org/Graphics/SVG/1.1/DTD/svg11.dtd">
<svg version="1.1" id="Layer_1" xmlns="http://www.w3.org/2000/svg" xmlns:xlink="http://www.w3.org/1999/xlink" x="0px" y="0px"
	 width="100px" height="100px" viewBox="0 0 100 100" enable-background="new 0 0 100 100" xml:space="preserve">
<g display="none">
	<g display="inline">
		<path fill="#010101" d="M24.451,77.896v-7.461h5.967v1.263h-4.342v1.653h4.04v1.258h-4.04v2.03h4.496v1.257H24.451z"/>
		<path fill="#010101" d="M31.965,77.896v-7.461h1.581l3.293,4.982v-4.982h1.51v7.461h-1.63l-3.244-4.865v4.865H31.965z"/>
		<path fill="#010101" d="M46.797,77.896h-1.542v-5.39c-0.563,0.489-1.228,0.851-1.993,1.084v-1.298
			c0.402-0.122,0.84-0.354,1.312-0.694s0.796-0.738,0.972-1.193h1.251V77.896z"/>
		<path fill="#010101" d="M49.048,75.917l1.493-0.168c0.048,0.353,0.176,0.622,0.384,0.809c0.208,0.188,0.462,0.28,0.758,0.28
			c0.318,0,0.586-0.112,0.804-0.336s0.327-0.525,0.327-0.905c0-0.36-0.104-0.646-0.313-0.855c-0.208-0.21-0.463-0.315-0.763-0.315
			c-0.198,0-0.434,0.035-0.708,0.106l0.17-1.165c0.418,0.01,0.735-0.074,0.955-0.252s0.329-0.415,0.329-0.71
			c0-0.251-0.08-0.451-0.241-0.601s-0.375-0.224-0.643-0.224c-0.264,0-0.488,0.085-0.675,0.254c-0.187,0.17-0.3,0.418-0.34,0.743
			l-1.421-0.224c0.099-0.451,0.248-0.812,0.447-1.081c0.199-0.271,0.478-0.482,0.834-0.637c0.356-0.154,0.756-0.231,1.199-0.231
			c0.758,0,1.365,0.224,1.823,0.672c0.377,0.366,0.565,0.78,0.565,1.241c0,0.655-0.387,1.178-1.158,1.568
			c0.461,0.091,0.829,0.297,1.105,0.615c0.276,0.319,0.415,0.704,0.415,1.155c0,0.655-0.259,1.213-0.774,1.675
			c-0.516,0.461-1.158,0.691-1.927,0.691c-0.728,0-1.332-0.194-1.812-0.582C49.402,77.053,49.125,76.545,49.048,75.917z"/>
		<path fill="#010101" d="M57.962,70.405c0.779,0,1.389,0.258,1.828,0.773c0.522,0.611,0.784,1.624,0.784,3.038
			c0,1.412-0.263,2.426-0.79,3.044c-0.436,0.509-1.043,0.763-1.822,0.763c-0.783,0-1.414-0.278-1.894-0.837
			c-0.479-0.558-0.72-1.553-0.72-2.984c0-1.405,0.264-2.416,0.791-3.033C56.575,70.66,57.183,70.405,57.962,70.405z M57.962,71.591
			c-0.187,0-0.354,0.056-0.5,0.166c-0.146,0.11-0.26,0.308-0.34,0.593c-0.106,0.369-0.159,0.992-0.159,1.867
			c0,0.876,0.048,1.477,0.143,1.805c0.095,0.327,0.215,0.545,0.359,0.653c0.145,0.109,0.311,0.163,0.497,0.163
			s0.354-0.055,0.499-0.165c0.146-0.11,0.26-0.309,0.341-0.593c0.106-0.367,0.159-0.987,0.159-1.863
			c0-0.875-0.048-1.477-0.143-1.804c-0.096-0.327-0.215-0.546-0.359-0.656S58.148,71.591,57.962,71.591z"/>
		<path fill="#010101" d="M61.552,75.917l1.493-0.168c0.047,0.353,0.176,0.622,0.384,0.809c0.209,0.188,0.461,0.28,0.758,0.28
			c0.318,0,0.586-0.112,0.804-0.336s0.327-0.525,0.327-0.905c0-0.36-0.104-0.646-0.313-0.855c-0.208-0.21-0.463-0.315-0.763-0.315
			c-0.197,0-0.434,0.035-0.708,0.106l0.17-1.165c0.417,0.01,0.735-0.074,0.955-0.252s0.329-0.415,0.329-0.71
			c0-0.251-0.08-0.451-0.241-0.601s-0.375-0.224-0.642-0.224c-0.264,0-0.489,0.085-0.676,0.254c-0.187,0.17-0.3,0.418-0.34,0.743
			l-1.422-0.224c0.099-0.451,0.248-0.812,0.447-1.081c0.199-0.271,0.478-0.482,0.834-0.637c0.357-0.154,0.757-0.231,1.199-0.231
			c0.758,0,1.365,0.224,1.823,0.672c0.377,0.366,0.565,0.78,0.565,1.241c0,0.655-0.387,1.178-1.158,1.568
			c0.461,0.091,0.829,0.297,1.105,0.615c0.276,0.319,0.415,0.704,0.415,1.155c0,0.655-0.259,1.213-0.774,1.675
			c-0.516,0.461-1.158,0.691-1.927,0.691c-0.729,0-1.332-0.194-1.812-0.582C61.906,77.053,61.628,76.545,61.552,75.917z"/>
		<path fill="#010101" d="M70.883,77.896v-1.501H67.59v-1.252l3.49-4.738h1.296v4.733h0.999v1.257h-0.999v1.501H70.883z
			 M70.883,75.139v-2.55l-1.85,2.55H70.883z"/>
	</g>
	<g display="inline">
		<path fill="#010101" d="M33.875,90.403v-6.198h-2.388v-1.263h6.395v1.263h-2.382v6.198H33.875z"/>
		<path fill="#010101" d="M37.357,84.999h1.642l1.394,3.837l1.361-3.837h1.597L41.293,90.2l-0.368,0.941
			c-0.136,0.315-0.265,0.556-0.387,0.723c-0.123,0.166-0.264,0.301-0.423,0.404s-0.355,0.184-0.587,0.241s-0.495,0.087-0.788,0.087
			c-0.296,0-0.587-0.029-0.873-0.087l-0.137-1.119c0.241,0.044,0.459,0.066,0.653,0.066c0.358,0,0.624-0.098,0.796-0.293
			c0.172-0.195,0.304-0.443,0.395-0.745L37.357,84.999z"/>
		<path fill="#010101" d="M44.295,84.999h1.438v0.794c0.187-0.271,0.439-0.492,0.757-0.662s0.671-0.254,1.06-0.254
			c0.677,0,1.251,0.246,1.724,0.737c0.472,0.492,0.708,1.178,0.708,2.057c0,0.902-0.238,1.604-0.713,2.104
			c-0.476,0.501-1.052,0.751-1.729,0.751c-0.322,0-0.614-0.06-0.875-0.178c-0.262-0.119-0.537-0.322-0.826-0.611v2.723h-1.542
			V84.999z M45.821,87.609c0,0.607,0.13,1.056,0.39,1.346s0.576,0.436,0.95,0.436c0.358,0,0.657-0.133,0.895-0.399
			s0.357-0.703,0.357-1.311c0-0.566-0.123-0.987-0.368-1.262c-0.245-0.275-0.549-0.413-0.911-0.413c-0.377,0-0.69,0.136-0.939,0.405
			S45.821,87.08,45.821,87.609z"/>
		<path fill="#010101" d="M54.582,88.684l1.537,0.239c-0.197,0.522-0.51,0.92-0.936,1.193c-0.428,0.272-0.961,0.409-1.602,0.409
			c-1.014,0-1.764-0.307-2.25-0.921c-0.384-0.492-0.576-1.113-0.576-1.862c0-0.896,0.252-1.598,0.758-2.104
			c0.504-0.508,1.143-0.761,1.916-0.761c0.867,0,1.551,0.265,2.053,0.796c0.5,0.531,0.74,1.345,0.719,2.44h-3.865
			c0.012,0.424,0.137,0.754,0.373,0.99c0.238,0.235,0.535,0.354,0.891,0.354c0.24,0,0.443-0.062,0.609-0.184
			C54.373,89.151,54.498,88.955,54.582,88.684z M54.67,87.238c-0.012-0.414-0.127-0.729-0.346-0.944
			c-0.221-0.216-0.486-0.323-0.803-0.323c-0.336,0-0.613,0.113-0.834,0.341c-0.219,0.228-0.328,0.536-0.324,0.927H54.67z"/>
		<path fill="#010101" d="M65.478,84.77l-1.493,0.153c-0.036-0.285-0.132-0.496-0.285-0.632s-0.354-0.203-0.599-0.203
			c-0.325,0-0.601,0.136-0.826,0.407c-0.225,0.271-0.366,0.836-0.425,1.694c0.384-0.421,0.861-0.631,1.433-0.631
			c0.644,0,1.195,0.228,1.654,0.682c0.46,0.455,0.689,1.042,0.689,1.761c0,0.764-0.241,1.376-0.725,1.838
			c-0.483,0.461-1.104,0.691-1.861,0.691c-0.812,0-1.479-0.292-2.003-0.878c-0.523-0.585-0.785-1.544-0.785-2.878
			c0-1.367,0.272-2.353,0.818-2.956c0.545-0.604,1.253-0.906,2.124-0.906c0.611,0,1.117,0.159,1.518,0.476
			C65.112,83.705,65.368,84.166,65.478,84.77z M61.981,87.89c0,0.465,0.115,0.823,0.346,1.076s0.494,0.379,0.79,0.379
			c0.285,0,0.523-0.104,0.714-0.311s0.285-0.546,0.285-1.018c0-0.485-0.103-0.841-0.308-1.066s-0.461-0.338-0.769-0.338
			c-0.296,0-0.547,0.107-0.752,0.323C62.083,87.15,61.981,87.469,61.981,87.89z"/>
	</g>
	<path display="inline" fill="#010101" d="M58.722,50.214c-0.888,2.17-0.726,3.083-7.192,3.419
		c-6.482,0.334-6.482-0.081-6.482-0.081s-10.712,1.475-5.897-6.107l4.541-12.503h9.17L58.722,50.214z"/>
	<path display="inline" fill="none" stroke="#010101" stroke-width="0.64" stroke-linecap="round" stroke-miterlimit="3.864" d="
		M44.668,24.167c0,0,2.629,0.517,0.733,5.86c-1.343,4-4.419,12.416-5.861,16.377c-1.051,2.862-3.363,7.23,2.627,7.23h12.598
		c0,0,5.577,0.086,3.069-6.591c-2.159-5.7-5.066-11.293-6.991-17.038c-0.535-1.576-1.141-4.303,1.767-5.822"/>
	<path display="inline" fill="none" stroke="#010101" stroke-width="0.64" stroke-linecap="round" stroke-miterlimit="3.864" d="
		M56.914,13.53c1.343,0.786,2.162,1.032,3.076,1.051c3.342,0.059,2.147-1.684,4.333-2.478c0.842-0.303,2.147-0.123,4.113,1.427
		 M56.826,24.042c1.482,0.849,2.71,1.081,3.655,1.057c2.998-0.086,2.245-1.928,4.484-2.252c0.834-0.122,1.702-0.125,3.381,1.195
		 M49.454,21.369c0,0,2.875-3.005,6.67-0.834c1.643,0.949,2.85,1.158,4.158,1.063c3.473-0.25,2.677-2.121,4.98-2.573
		c0.837-0.163,2.059,0.13,3.814,1.511 M49.014,17.844c0,0,2.87-3.003,6.65-0.833c1.719,0.979,3.397,1.142,4.716,1.024
		c3.313-0.297,2.229-1.817,4.427-2.532c0.806-0.264,2.062,0.13,3.819,1.508"/>
	<path display="inline" fill="none" stroke="#010101" stroke-width="0.361" stroke-miterlimit="3.864" d="M48.623,64.423
		c0,0-21.668-6.28-24.695-33.311L23.723,4.327H73.55l-0.211,26.786C70.311,58.143,48.623,64.423,48.623,64.423z"/>
</g>
<g display="none">
	<g display="inline">
		<path fill="#010101" d="M22.143,75.353v-7.066h5.239v1.195h-3.813v1.566h3.547v1.19h-3.547v1.924h3.948v1.19H22.143z"/>
		<path fill="#010101" d="M28.741,75.353v-7.066h1.389l2.892,4.719v-4.719h1.325v7.066h-1.432l-2.849-4.608v4.608H28.741z"/>
		<path fill="#010101" d="M42.889,70.017l-1.311,0.145c-0.032-0.27-0.116-0.469-0.251-0.598c-0.135-0.129-0.31-0.192-0.525-0.192
			c-0.286,0-0.528,0.128-0.725,0.385c-0.198,0.258-0.322,0.793-0.374,1.605c0.338-0.398,0.757-0.598,1.258-0.598
			c0.565,0,1.05,0.216,1.453,0.646c0.403,0.431,0.605,0.987,0.605,1.668c0,0.724-0.212,1.304-0.636,1.74
			c-0.424,0.438-0.969,0.655-1.634,0.655c-0.713,0-1.3-0.276-1.76-0.831c-0.459-0.555-0.689-1.463-0.689-2.726
			c0-1.295,0.239-2.229,0.718-2.801c0.479-0.572,1.101-0.858,1.865-0.858c0.537,0,0.981,0.15,1.333,0.451
			C42.568,69.009,42.792,69.444,42.889,70.017z M39.818,72.972c0,0.44,0.102,0.78,0.304,1.02c0.203,0.239,0.434,0.358,0.694,0.358
			c0.25,0,0.459-0.098,0.626-0.294c0.167-0.195,0.25-0.517,0.25-0.964c0-0.459-0.09-0.796-0.27-1.01
			c-0.18-0.214-0.405-0.32-0.675-0.32c-0.26,0-0.48,0.102-0.661,0.306C39.908,72.271,39.818,72.573,39.818,72.972z"/>
		<path fill="#010101" d="M47.256,75.353h-1.354v-5.104c-0.495,0.463-1.078,0.805-1.75,1.026v-1.229
			c0.354-0.116,0.738-0.335,1.152-0.658s0.699-0.7,0.853-1.131h1.099V75.353z"/>
		<path fill="#010101" d="M51.936,75.353v-1.422h-2.892v-1.186l3.066-4.488h1.138v4.483h0.877v1.19h-0.877v1.422H51.936z
			 M51.936,72.74v-2.415l-1.625,2.415H51.936z"/>
		<path fill="#010101" d="M55.932,71.54c-0.351-0.148-0.604-0.352-0.764-0.61c-0.159-0.258-0.239-0.542-0.239-0.851
			c0-0.526,0.185-0.962,0.552-1.306c0.368-0.344,0.892-0.517,1.569-0.517c0.672,0,1.193,0.173,1.564,0.517s0.557,0.779,0.557,1.306
			c0,0.328-0.085,0.619-0.256,0.875c-0.17,0.256-0.409,0.451-0.718,0.586c0.392,0.157,0.689,0.387,0.894,0.689
			c0.204,0.302,0.307,0.65,0.307,1.046c0,0.652-0.208,1.183-0.624,1.59c-0.417,0.408-0.97,0.612-1.661,0.612
			c-0.643,0-1.178-0.168-1.604-0.506c-0.505-0.398-0.757-0.944-0.757-1.639c0-0.383,0.095-0.733,0.284-1.054
			C55.225,71.96,55.523,71.713,55.932,71.54z M56.086,73.203c0,0.372,0.096,0.663,0.287,0.872c0.19,0.209,0.43,0.313,0.716,0.313
			c0.279,0,0.511-0.101,0.693-0.302c0.184-0.2,0.275-0.49,0.275-0.87c0-0.33-0.094-0.597-0.28-0.797
			c-0.186-0.201-0.422-0.302-0.708-0.302c-0.331,0-0.578,0.114-0.74,0.342C56.167,72.688,56.086,72.937,56.086,73.203z
			 M56.211,70.176c0,0.27,0.076,0.48,0.229,0.632c0.152,0.15,0.355,0.226,0.609,0.226c0.257,0,0.463-0.076,0.617-0.229
			s0.231-0.364,0.231-0.634c0-0.254-0.076-0.457-0.229-0.609c-0.152-0.153-0.354-0.229-0.604-0.229
			c-0.261,0-0.468,0.077-0.622,0.231S56.211,69.922,56.211,70.176z"/>
		<path fill="#010101" d="M64.835,74.095v1.258h-4.748c0.051-0.476,0.205-0.926,0.463-1.353c0.257-0.425,0.765-0.99,1.522-1.693
			c0.61-0.569,0.985-0.955,1.123-1.157c0.187-0.279,0.28-0.556,0.28-0.829c0-0.302-0.082-0.534-0.244-0.696
			s-0.386-0.244-0.672-0.244c-0.283,0-0.508,0.086-0.675,0.256c-0.167,0.171-0.264,0.453-0.289,0.849l-1.35-0.135
			c0.08-0.746,0.332-1.281,0.757-1.605c0.424-0.324,0.954-0.487,1.59-0.487c0.697,0,1.245,0.188,1.644,0.564
			s0.599,0.844,0.599,1.402c0,0.318-0.058,0.621-0.172,0.909c-0.114,0.287-0.295,0.589-0.542,0.903
			c-0.164,0.209-0.46,0.51-0.887,0.901c-0.428,0.393-0.698,0.652-0.813,0.781c-0.114,0.128-0.206,0.254-0.277,0.376H64.835z"/>
		<path fill="#010101" d="M65.886,73.468v-1.354h2.66v1.354H65.886z"/>
		<path fill="#010101" d="M72.503,75.353h-1.354v-5.104c-0.494,0.463-1.078,0.805-1.749,1.026v-1.229
			c0.354-0.116,0.737-0.335,1.151-0.658c0.415-0.323,0.699-0.7,0.854-1.131h1.099V75.353z"/>
		<path fill="#010101" d="M74.663,73.468v-1.354h2.66v1.354H74.663z"/>
		<path fill="#010101" d="M82.39,74.095v1.258h-4.748c0.051-0.476,0.205-0.926,0.463-1.353c0.257-0.425,0.765-0.99,1.522-1.693
			c0.61-0.569,0.985-0.955,1.123-1.157c0.187-0.279,0.28-0.556,0.28-0.829c0-0.302-0.082-0.534-0.244-0.696S80.4,69.38,80.114,69.38
			c-0.283,0-0.508,0.086-0.675,0.256c-0.167,0.171-0.264,0.453-0.289,0.849l-1.35-0.135c0.08-0.746,0.332-1.281,0.757-1.605
			c0.424-0.324,0.954-0.487,1.59-0.487c0.697,0,1.245,0.188,1.644,0.564s0.599,0.844,0.599,1.402c0,0.318-0.058,0.621-0.172,0.909
			c-0.114,0.287-0.295,0.589-0.542,0.903c-0.164,0.209-0.46,0.51-0.887,0.901c-0.428,0.393-0.698,0.652-0.813,0.781
			c-0.114,0.128-0.206,0.254-0.277,0.376H82.39z"/>
	</g>
	<g display="inline">
		<path fill="#010101" d="M40.109,84.601l1.383,0.438c-0.212,0.771-0.565,1.344-1.058,1.718c-0.493,0.375-1.119,0.562-1.877,0.562
			c-0.938,0-1.709-0.32-2.314-0.961c-0.604-0.642-0.906-1.518-0.906-2.63c0-1.176,0.303-2.089,0.911-2.74
			c0.607-0.65,1.406-0.976,2.396-0.976c0.864,0,1.566,0.255,2.106,0.766c0.321,0.303,0.563,0.736,0.723,1.302l-1.412,0.338
			c-0.083-0.366-0.258-0.656-0.523-0.868s-0.587-0.318-0.967-0.318c-0.523,0-0.949,0.188-1.275,0.564s-0.489,0.985-0.489,1.827
			c0,0.893,0.161,1.529,0.482,1.908c0.321,0.38,0.739,0.569,1.253,0.569c0.379,0,0.706-0.121,0.979-0.362
			C39.794,85.497,39.99,85.117,40.109,84.601z"/>
		<path fill="#010101" d="M42.707,87.198v-7.066h1.354v7.066H42.707z"/>
		<path fill="#010101" d="M46.462,83.641l-1.229-0.222c0.138-0.494,0.376-0.861,0.713-1.099c0.337-0.238,0.839-0.356,1.504-0.356
			c0.604,0,1.054,0.071,1.35,0.214c0.295,0.144,0.504,0.325,0.624,0.545c0.121,0.221,0.181,0.624,0.181,1.212l-0.015,1.581
			c0,0.45,0.021,0.782,0.065,0.996s0.125,0.442,0.244,0.687h-1.34c-0.035-0.09-0.079-0.224-0.13-0.4
			c-0.022-0.08-0.039-0.133-0.048-0.159c-0.231,0.226-0.479,0.395-0.742,0.507c-0.264,0.112-0.545,0.168-0.844,0.168
			c-0.527,0-0.942-0.143-1.246-0.429c-0.304-0.286-0.456-0.647-0.456-1.084c0-0.29,0.069-0.548,0.207-0.774s0.332-0.399,0.581-0.521
			c0.249-0.12,0.608-0.226,1.077-0.315c0.633-0.119,1.072-0.229,1.316-0.333v-0.135c0-0.26-0.064-0.445-0.193-0.557
			C47.953,83.056,47.71,83,47.354,83c-0.241,0-0.429,0.047-0.564,0.142C46.655,83.237,46.545,83.403,46.462,83.641z M48.274,84.74
			c-0.173,0.058-0.448,0.127-0.824,0.207s-0.622,0.159-0.737,0.236c-0.177,0.125-0.265,0.284-0.265,0.477
			c0,0.19,0.07,0.354,0.212,0.492c0.141,0.138,0.321,0.207,0.54,0.207c0.244,0,0.477-0.08,0.699-0.241
			c0.164-0.122,0.271-0.271,0.323-0.448c0.036-0.115,0.053-0.335,0.053-0.66V84.74z"/>
		<path fill="#010101" d="M50.463,85.737l1.359-0.207c0.058,0.264,0.175,0.464,0.352,0.601s0.424,0.204,0.742,0.204
			c0.351,0,0.614-0.063,0.791-0.192c0.118-0.09,0.178-0.21,0.178-0.361c0-0.103-0.032-0.188-0.096-0.256
			c-0.067-0.064-0.219-0.123-0.453-0.178c-1.093-0.241-1.785-0.462-2.078-0.661c-0.405-0.276-0.607-0.66-0.607-1.151
			c0-0.443,0.175-0.816,0.525-1.118c0.351-0.303,0.894-0.453,1.63-0.453c0.7,0,1.221,0.114,1.562,0.342
			c0.341,0.229,0.575,0.565,0.704,1.013l-1.277,0.236c-0.055-0.199-0.159-0.353-0.312-0.458c-0.152-0.106-0.37-0.159-0.653-0.159
			c-0.356,0-0.611,0.05-0.766,0.149c-0.104,0.07-0.154,0.162-0.154,0.274c0,0.097,0.045,0.179,0.135,0.246
			c0.122,0.09,0.544,0.217,1.266,0.381c0.721,0.164,1.225,0.364,1.511,0.603c0.282,0.241,0.424,0.576,0.424,1.007
			c0,0.47-0.195,0.873-0.588,1.21c-0.392,0.338-0.972,0.506-1.74,0.506c-0.697,0-1.249-0.141-1.655-0.424
			C50.854,86.607,50.588,86.223,50.463,85.737z"/>
		<path fill="#010101" d="M55.953,85.737l1.359-0.207c0.058,0.264,0.175,0.464,0.352,0.601s0.424,0.204,0.742,0.204
			c0.351,0,0.614-0.063,0.791-0.192c0.118-0.09,0.178-0.21,0.178-0.361c0-0.103-0.032-0.188-0.096-0.256
			c-0.067-0.064-0.219-0.123-0.453-0.178c-1.093-0.241-1.785-0.462-2.078-0.661c-0.404-0.276-0.607-0.66-0.607-1.151
			c0-0.443,0.176-0.816,0.525-1.118c0.351-0.303,0.894-0.453,1.63-0.453c0.7,0,1.221,0.114,1.562,0.342
			c0.341,0.229,0.575,0.565,0.704,1.013l-1.277,0.236c-0.055-0.199-0.159-0.353-0.312-0.458c-0.152-0.106-0.37-0.159-0.653-0.159
			c-0.356,0-0.611,0.05-0.766,0.149c-0.104,0.07-0.154,0.162-0.154,0.274c0,0.097,0.045,0.179,0.135,0.246
			c0.122,0.09,0.544,0.217,1.266,0.381c0.721,0.164,1.225,0.364,1.511,0.603c0.282,0.241,0.424,0.576,0.424,1.007
			c0,0.47-0.195,0.873-0.588,1.21c-0.392,0.338-0.972,0.506-1.74,0.506c-0.697,0-1.249-0.141-1.655-0.424
			C56.344,86.607,56.078,86.223,55.953,85.737z"/>
		<path fill="#010101" d="M67.839,87.198h-1.354v-5.104c-0.494,0.463-1.078,0.805-1.749,1.026v-1.229
			c0.354-0.116,0.737-0.335,1.151-0.658c0.415-0.323,0.699-0.7,0.854-1.131h1.099V87.198z"/>
	</g>
	<path display="inline" fill="none" stroke="#010101" stroke-width="0.5" stroke-miterlimit="2.613" d="M52.155,29.774l8.58,11.391
		l8.579,11.393H52.155H34.999l8.581-11.393L52.155,29.774z M47.412,36.048H34.999l8.581-11.391l8.575-11.391l8.58,11.391
		l8.579,11.391H56.852 M26.015,5.808H78.3v57.051H26.015V5.808z"/>
</g>
<g>
	<path fill="#010101" d="M27.697,74.712H17.87c-2.432,0-4.642-0.99-6.24-2.592c-1.597-1.599-2.591-3.805-2.591-6.236V20.845
		c0-2.423,0.998-4.633,2.603-6.236c1.597-1.598,3.803-2.591,6.229-2.591h64.258c2.434,0,4.64,0.993,6.238,2.591
		c1.596,1.597,2.595,3.807,2.595,6.236v45.039c0,2.426-0.999,4.625-2.595,6.225c-1.604,1.606-3.812,2.604-6.238,2.604h-7.376H27.697
		z"/>
	<path fill="#FFCB0B" d="M10.462,28.934v-8.087c0-1.964,0.771-3.816,2.177-5.22c1.406-1.414,3.267-2.19,5.231-2.19h64.257
		c1.976,0,3.837,0.773,5.236,2.175c1.403,1.405,2.174,3.263,2.174,5.235v8.087H10.462z"/>
	<rect x="34.275" y="17.045" fill="#FFCB0B" width="31.349" height="8.616"/>
	<g>
		<path fill="#FFCB0B" d="M17.871,73.292c-1.974,0-3.832-0.775-5.236-2.177c-1.403-1.408-2.172-3.264-2.172-5.234v-8.085h79.075
			v8.085c0,1.962-0.77,3.815-2.178,5.217c-1.407,1.414-3.266,2.194-5.231,2.194H17.871z"/>
	</g>
	<rect x="25.912" y="61.158" fill="#FFCB0B" width="43.963" height="8.905"/>
	<rect x="70.981" y="60.868" fill="#FFCB0B" width="3.327" height="5.045"/>
	<g>
		<path fill="#010101" d="M34.687,25.594L38,16.965h1.23l3.532,8.629h-1.301l-1.006-2.613h-3.608l-0.948,2.613H34.687z
			 M37.176,22.05h2.925l-0.9-2.389c-0.275-0.726-0.479-1.322-0.613-1.79c-0.109,0.554-0.264,1.103-0.464,1.648L37.176,22.05z"/>
		<path fill="#010101" d="M44.979,25.594v-7.611h-2.843v-1.019h6.839v1.019H46.12v7.611H44.979z"/>
		<path fill="#010101" d="M50.147,25.594v-8.629h3.254c0.572,0,1.011,0.027,1.313,0.083c0.425,0.071,0.779,0.206,1.066,0.403
			c0.285,0.199,0.516,0.477,0.691,0.833c0.175,0.357,0.262,0.75,0.262,1.177c0,0.735-0.234,1.355-0.7,1.864
			c-0.468,0.508-1.311,0.762-2.532,0.762h-2.212v3.508H50.147z M51.289,21.067h2.23c0.738,0,1.261-0.137,1.572-0.412
			c0.31-0.274,0.464-0.662,0.464-1.16c0-0.36-0.092-0.67-0.273-0.927c-0.183-0.256-0.423-0.427-0.722-0.509
			c-0.191-0.051-0.546-0.077-1.063-0.077h-2.208V21.067z"/>
		<path fill="#010101" d="M60.653,25.594l-3.343-8.629h1.235l2.243,6.27c0.181,0.502,0.332,0.973,0.453,1.413
			c0.134-0.471,0.289-0.942,0.465-1.413l2.332-6.27h1.166l-3.381,8.629H60.653z"/>
	</g>
	<g>
		<path fill="#010101" d="M32.366,66.919l1.142,0.289c-0.24,0.937-0.671,1.652-1.292,2.145c-0.623,0.492-1.384,0.738-2.282,0.738
			c-0.93,0-1.687-0.188-2.269-0.567c-0.582-0.379-1.025-0.927-1.33-1.645c-0.303-0.718-0.457-1.488-0.457-2.314
			c0-0.898,0.172-1.682,0.516-2.352c0.343-0.667,0.832-1.177,1.466-1.523c0.632-0.347,1.331-0.521,2.092-0.521
			c0.863,0,1.59,0.22,2.179,0.658c0.588,0.44,0.998,1.058,1.229,1.854l-1.125,0.265c-0.2-0.626-0.49-1.084-0.871-1.371
			s-0.859-0.429-1.435-0.429c-0.665,0-1.218,0.158-1.665,0.478c-0.445,0.316-0.758,0.743-0.938,1.28
			c-0.181,0.535-0.271,1.087-0.271,1.656c0,0.733,0.108,1.374,0.321,1.921c0.215,0.548,0.547,0.958,0.999,1.229
			c0.451,0.271,0.94,0.406,1.466,0.406c0.639,0,1.18-0.186,1.624-0.555C31.908,68.193,32.208,67.645,32.366,66.919z"/>
		<path fill="#010101" d="M33.965,69.944l3.314-8.629h1.23l3.532,8.629H40.74l-1.006-2.612h-3.607l-0.948,2.612H33.965z
			 M36.456,66.399h2.925l-0.9-2.388c-0.276-0.728-0.479-1.322-0.613-1.79c-0.11,0.553-0.265,1.103-0.464,1.647L36.456,66.399z"/>
		<path fill="#010101" d="M42.908,69.944v-8.629h1.142v7.61h4.25v1.019H42.908z"/>
		<path fill="#010101" d="M48.729,70.091l2.501-8.923h0.849l-2.497,8.923H48.729z"/>
		<path fill="#010101" d="M59.165,66.919l1.142,0.289c-0.24,0.937-0.671,1.652-1.291,2.145c-0.623,0.492-1.384,0.738-2.282,0.738
			c-0.931,0-1.688-0.188-2.27-0.567s-1.025-0.927-1.33-1.645c-0.304-0.718-0.456-1.488-0.456-2.314c0-0.898,0.172-1.682,0.516-2.352
			c0.344-0.667,0.832-1.177,1.466-1.523c0.632-0.347,1.331-0.521,2.092-0.521c0.862,0,1.59,0.22,2.179,0.658
			c0.589,0.44,0.998,1.058,1.229,1.854l-1.124,0.265c-0.199-0.626-0.49-1.084-0.87-1.371c-0.381-0.287-0.86-0.429-1.436-0.429
			c-0.664,0-1.218,0.158-1.664,0.478c-0.445,0.316-0.758,0.743-0.938,1.28c-0.181,0.535-0.271,1.087-0.271,1.656
			c0,0.733,0.108,1.374,0.321,1.921c0.214,0.548,0.547,0.958,0.998,1.229c0.451,0.271,0.94,0.406,1.466,0.406
			c0.639,0,1.181-0.186,1.624-0.555C58.707,68.193,59.007,67.645,59.165,66.919z"/>
		<path fill="#010101" d="M61.68,69.944v-8.629h1.719l2.042,6.11c0.188,0.567,0.325,0.993,0.412,1.277
			c0.097-0.314,0.25-0.774,0.458-1.384l2.066-6.004h1.537v8.629h-1.101v-7.222l-2.508,7.222h-1.03l-2.496-7.346v7.346H61.68z"/>
	</g>
	<g>
		<path fill="#010101" d="M74.358,65.339v0.594h-3.325c-0.005-0.148,0.019-0.292,0.072-0.43c0.084-0.226,0.22-0.449,0.406-0.669
			c0.186-0.22,0.455-0.473,0.808-0.763c0.547-0.448,0.916-0.804,1.108-1.064c0.191-0.262,0.289-0.51,0.289-0.743
			c0-0.244-0.088-0.45-0.264-0.619c-0.174-0.168-0.403-0.254-0.684-0.254c-0.298,0-0.535,0.091-0.714,0.268
			c-0.18,0.181-0.27,0.426-0.271,0.742l-0.635-0.064c0.043-0.475,0.208-0.835,0.491-1.084c0.282-0.248,0.665-0.371,1.142-0.371
			c0.482,0,0.864,0.133,1.146,0.4c0.281,0.268,0.423,0.6,0.423,0.997c0,0.199-0.042,0.399-0.124,0.593s-0.22,0.4-0.409,0.614
			c-0.192,0.215-0.51,0.51-0.953,0.886c-0.371,0.31-0.608,0.522-0.713,0.632c-0.106,0.111-0.193,0.223-0.262,0.336H74.358z"/>
	</g>
	<g>
		<path fill="#010101" d="M21.142,87.923h-1.895l-0.753-1.961h-3.45l-0.713,1.961h-1.848l3.361-8.631h1.843L21.142,87.923z
			 M17.934,84.507l-1.189-3.201l-1.166,3.201H17.934z"/>
		<path fill="#010101" d="M21.624,85.113l1.695-0.164c0.103,0.569,0.31,0.986,0.621,1.254c0.313,0.267,0.734,0.4,1.263,0.4
			c0.562,0,0.984-0.119,1.269-0.356c0.284-0.237,0.426-0.515,0.426-0.834c0-0.203-0.06-0.377-0.179-0.52
			c-0.12-0.143-0.329-0.268-0.627-0.374c-0.203-0.07-0.667-0.196-1.395-0.377c-0.934-0.232-1.588-0.516-1.966-0.854
			c-0.529-0.476-0.793-1.053-0.793-1.736c0-0.438,0.124-0.85,0.373-1.232c0.25-0.384,0.608-0.674,1.077-0.874s1.036-0.3,1.698-0.3
			c1.083,0,1.898,0.235,2.446,0.711c0.547,0.476,0.835,1.108,0.863,1.901l-1.743,0.077c-0.074-0.444-0.234-0.764-0.479-0.957
			c-0.245-0.194-0.614-0.291-1.104-0.291c-0.506,0-0.902,0.104-1.188,0.312c-0.184,0.134-0.277,0.312-0.277,0.535
			c0,0.205,0.087,0.379,0.259,0.524c0.219,0.184,0.753,0.377,1.602,0.577s1.474,0.406,1.88,0.621s0.724,0.505,0.953,0.876
			c0.23,0.37,0.345,0.83,0.345,1.375c0,0.495-0.137,0.957-0.413,1.389c-0.274,0.433-0.663,0.753-1.164,0.963
			c-0.503,0.211-1.129,0.314-1.879,0.314c-1.09,0-1.929-0.252-2.513-0.755C22.086,86.813,21.738,86.079,21.624,85.113z"/>
		<path fill="#010101" d="M32.048,87.923v-7.17h-2.559v-1.461h6.857v1.461h-2.554v7.17H32.048z"/>
		<path fill="#010101" d="M37.446,87.923v-8.631h2.607l1.566,5.886l1.548-5.886h2.614v8.631h-1.619V81.13l-1.713,6.793h-1.677
			l-1.708-6.793v6.793H37.446z"/>
		<path fill="#010101" d="M50.873,87.923v-8.631h5.916v1.461h-4.172v2.041h3.601v1.462h-3.601v3.667H50.873z"/>
		<path fill="#010101" d="M65.441,87.923h-1.654v-6.234c-0.604,0.564-1.316,0.983-2.137,1.254v-1.501
			c0.432-0.141,0.901-0.41,1.408-0.805c0.506-0.394,0.853-0.854,1.041-1.381h1.342V87.923z"/>
		<path fill="#010101" d="M67.948,85.926l1.601-0.177c0.041,0.325,0.143,0.567,0.307,0.726c0.165,0.156,0.382,0.235,0.653,0.235
			c0.342,0,0.632-0.158,0.871-0.471c0.24-0.314,0.394-0.966,0.459-1.955c-0.416,0.482-0.935,0.723-1.56,0.723
			c-0.679,0-1.264-0.261-1.758-0.783c-0.491-0.526-0.738-1.207-0.738-2.047c0-0.876,0.26-1.58,0.78-2.116
			c0.52-0.535,1.183-0.805,1.987-0.805c0.874,0,1.593,0.339,2.154,1.017c0.562,0.677,0.842,1.79,0.842,3.341
			c0,1.577-0.293,2.716-0.877,3.413c-0.586,0.699-1.347,1.048-2.284,1.048c-0.676,0-1.221-0.179-1.637-0.539
			C68.333,87.178,68.065,86.641,67.948,85.926z M71.692,82.313c0-0.534-0.122-0.947-0.367-1.242s-0.529-0.441-0.852-0.441
			c-0.306,0-0.56,0.12-0.762,0.362c-0.203,0.242-0.303,0.636-0.303,1.186c0,0.557,0.109,0.966,0.329,1.228
			c0.219,0.261,0.495,0.392,0.823,0.392c0.318,0,0.586-0.126,0.804-0.376C71.583,83.169,71.692,82.799,71.692,82.313z"/>
		<path fill="#010101" d="M74.642,85.703l1.648-0.171c0.047,0.373,0.188,0.668,0.418,0.886c0.232,0.218,0.498,0.327,0.802,0.327
			c0.345,0,0.637-0.142,0.877-0.422c0.238-0.281,0.357-0.703,0.357-1.268c0-0.529-0.117-0.928-0.355-1.192
			c-0.237-0.266-0.547-0.398-0.928-0.398c-0.475,0-0.899,0.21-1.277,0.631L74.842,83.9l0.849-4.489h4.373v1.548h-3.12l-0.258,1.465
			c0.367-0.185,0.745-0.276,1.13-0.276c0.732,0,1.354,0.267,1.866,0.802c0.51,0.532,0.765,1.226,0.765,2.077
			c0,0.71-0.207,1.343-0.618,1.899c-0.561,0.763-1.34,1.142-2.337,1.142c-0.796,0-1.446-0.213-1.947-0.64
			C75.04,87,74.74,86.425,74.642,85.703z"/>
		<path fill="#010101" d="M81.357,85.926l1.602-0.177c0.04,0.325,0.142,0.567,0.306,0.726c0.165,0.156,0.383,0.235,0.653,0.235
			c0.342,0,0.632-0.158,0.871-0.471c0.24-0.314,0.394-0.966,0.46-1.955c-0.417,0.482-0.936,0.723-1.56,0.723
			c-0.68,0-1.265-0.261-1.758-0.783c-0.492-0.526-0.739-1.207-0.739-2.047c0-0.876,0.26-1.58,0.781-2.116
			c0.519-0.535,1.182-0.805,1.986-0.805c0.874,0,1.594,0.339,2.154,1.017c0.562,0.677,0.842,1.79,0.842,3.341
			c0,1.577-0.293,2.716-0.877,3.413c-0.585,0.699-1.347,1.048-2.283,1.048c-0.676,0-1.221-0.179-1.638-0.539
			C81.742,87.178,81.475,86.641,81.357,85.926z M85.102,82.313c0-0.534-0.122-0.947-0.367-1.242s-0.529-0.441-0.852-0.441
			c-0.305,0-0.56,0.12-0.762,0.362c-0.203,0.242-0.303,0.636-0.303,1.186c0,0.557,0.109,0.966,0.329,1.228
			c0.219,0.261,0.495,0.392,0.824,0.392c0.317,0,0.585-0.126,0.803-0.376C84.992,83.169,85.102,82.799,85.102,82.313z"/>
	</g>
	<g>
		<path fill="#FFFFFF" d="M43.195,48.564h-8.676v-3.917l8.676-10.313h4.151V44.87h2.151v3.695h-2.151v3.204h-4.151V48.564z
			 M43.195,44.87v-5.394l-4.583,5.394H43.195z"/>
		<path fill="#FFFFFF" d="M52.911,34.628h11.307v3.8h-7.659L56.151,41c0.528-0.25,1.053-0.438,1.572-0.562
			c0.518-0.125,1.03-0.187,1.537-0.187c1.714,0,3.105,0.518,4.173,1.555c1.068,1.037,1.604,2.342,1.604,3.917
			c0,1.106-0.276,2.171-0.826,3.191c-0.548,1.021-1.328,1.801-2.338,2.339s-2.302,0.806-3.875,0.806
			c-1.131,0-2.099-0.106-2.906-0.32c-0.807-0.215-1.492-0.534-2.058-0.959c-0.564-0.425-1.022-0.906-1.373-1.444
			c-0.352-0.538-0.644-1.208-0.877-2.011l4.817-0.526c0.115,0.771,0.389,1.358,0.817,1.76c0.429,0.401,0.94,0.601,1.532,0.601
			c0.662,0,1.209-0.25,1.643-0.754c0.433-0.502,0.648-1.253,0.648-2.25c0-1.021-0.218-1.769-0.654-2.245
			c-0.438-0.476-1.018-0.713-1.742-0.713c-0.459,0-0.904,0.113-1.333,0.339c-0.319,0.164-0.67,0.459-1.052,0.889l-4.058-0.585
			L52.911,34.628z"/>
	</g>
</g>
</svg>
