<?xml version="1.0" encoding="utf-8"?>
<!-- Generator: Adobe Illustrator 16.0.0, SVG Export Plug-In . SVG Version: 6.00 Build 0)  -->
<!DOCTYPE svg PUBLIC "-//W3C//DTD SVG 1.1//EN" "http://www.w3.org/Graphics/SVG/1.1/DTD/svg11.dtd">
<svg version="1.1" id="Layer_1" xmlns="http://www.w3.org/2000/svg" xmlns:xlink="http://www.w3.org/1999/xlink" x="0px" y="0px"
	 width="100px" height="100px" viewBox="0 0 100 100" enable-background="new 0 0 100 100" xml:space="preserve">
<g>
	<defs>
		<rect id="SVGID_1_" x="10" y="10.724" width="80" height="78.553"/>
	</defs>
	<clipPath id="SVGID_2_">
		<use xlink:href="#SVGID_1_"  overflow="visible"/>
	</clipPath>
	<path clip-path="url(#SVGID_2_)" d="M28.221,71.947h-9.595c-2.377,0-4.535-0.968-6.096-2.533c-1.558-1.561-2.53-3.713-2.53-6.09
		V19.343c0-2.365,0.976-4.523,2.542-6.089c1.559-1.561,3.713-2.53,6.084-2.53h62.749c2.377,0,4.529,0.969,6.09,2.53
		C89.025,14.813,90,16.971,90,19.343v43.981c0,2.369-0.976,4.519-2.536,6.079c-1.563,1.568-3.72,2.544-6.09,2.544h-7.203H28.221z"/>
	<path clip-path="url(#SVGID_2_)" fill="#FFCB05" d="M11.389,27.241v-7.897c0-1.917,0.752-3.727,2.124-5.098
		c1.375-1.38,3.193-2.139,5.109-2.139h62.75c1.931,0,3.748,0.755,5.111,2.125c1.374,1.373,2.127,3.187,2.127,5.112v7.897H11.389z"/>
</g>
<rect x="34.642" y="15.631" fill="#FFCB05" width="30.612" height="8.413"/>
<g>
	<defs>
		<rect id="SVGID_3_" x="10" y="10.724" width="80" height="78.553"/>
	</defs>
	<clipPath id="SVGID_4_">
		<use xlink:href="#SVGID_3_"  overflow="visible"/>
	</clipPath>
	<path clip-path="url(#SVGID_4_)" fill="#FFCB05" d="M18.625,70.56c-1.928,0-3.742-0.759-5.114-2.128
		c-1.369-1.375-2.121-3.188-2.121-5.11v-7.896h77.217v7.896c0,1.915-0.75,3.725-2.125,5.095c-1.374,1.38-3.188,2.144-5.108,2.144
		H18.625z"/>
</g>
<rect x="26.478" y="58.71" fill="#FFCB05" width="42.931" height="8.696"/>
<rect x="70.49" y="58.426" fill="#FFCB05" width="3.25" height="4.926"/>
<g>
	<defs>
		<rect id="SVGID_5_" x="10" y="10.724" width="80" height="78.553"/>
	</defs>
	<clipPath id="SVGID_6_">
		<use xlink:href="#SVGID_5_"  overflow="visible"/>
	</clipPath>
	<g clip-path="url(#SVGID_6_)">
		<path d="M35.044,23.979l3.236-8.427h1.202l3.449,8.427H41.66l-0.983-2.552h-3.523l-0.925,2.552H35.044z M37.476,20.519h2.857
			l-0.879-2.333c-0.268-0.709-0.468-1.292-0.598-1.748c-0.107,0.54-0.259,1.077-0.454,1.609L37.476,20.519z"/>
	</g>
	<g clip-path="url(#SVGID_6_)">
		<path d="M45.095,23.979v-7.432h-2.776v-0.995h6.679v0.995H46.21v7.432H45.095z"/>
		<path d="M50.142,23.979v-8.427h3.179c0.56,0,0.986,0.027,1.282,0.081c0.413,0.069,0.761,0.2,1.04,0.394
			c0.279,0.194,0.505,0.465,0.676,0.813c0.17,0.349,0.256,0.732,0.256,1.149c0,0.717-0.229,1.323-0.685,1.819
			c-0.456,0.497-1.28,0.745-2.472,0.745h-2.161v3.426H50.142z M51.257,19.559h2.179c0.72,0,1.231-0.134,1.534-0.402
			c0.303-0.268,0.454-0.646,0.454-1.132c0-0.353-0.089-0.654-0.267-0.905c-0.179-0.251-0.413-0.417-0.704-0.497
			c-0.188-0.05-0.535-0.075-1.041-0.075h-2.155V19.559z"/>
		<path d="M60.402,23.979l-3.265-8.427h1.207l2.19,6.122c0.176,0.491,0.323,0.951,0.442,1.38c0.13-0.46,0.281-0.92,0.454-1.38
			l2.276-6.122h1.138l-3.299,8.427H60.402z"/>
	</g>
</g>
<g>
	<path d="M32.778,64.334l1.115,0.281c-0.234,0.916-0.655,1.614-1.262,2.095c-0.607,0.481-1.35,0.722-2.228,0.722
		c-0.908,0-1.647-0.185-2.216-0.555c-0.569-0.369-1.002-0.905-1.299-1.606s-0.445-1.454-0.445-2.259
		c0-0.878,0.167-1.644,0.503-2.297c0.335-0.653,0.813-1.149,1.431-1.488c0.619-0.34,1.3-0.509,2.043-0.509
		c0.843,0,1.552,0.215,2.127,0.644c0.575,0.43,0.975,1.033,1.201,1.811l-1.098,0.259c-0.196-0.613-0.479-1.06-0.851-1.339
		c-0.372-0.28-0.839-0.42-1.402-0.42c-0.647,0-1.189,0.155-1.624,0.466c-0.435,0.311-0.74,0.727-0.917,1.25
		s-0.265,1.063-0.265,1.618c0,0.717,0.104,1.342,0.313,1.877c0.208,0.534,0.534,0.934,0.974,1.198
		c0.441,0.265,0.918,0.396,1.431,0.396c0.625,0,1.154-0.18,1.587-0.54C32.332,65.577,32.625,65.043,32.778,64.334z"/>
	<path d="M34.342,67.288l3.236-8.427h1.202l3.449,8.427h-1.271l-0.983-2.552h-3.523l-0.925,2.552H34.342z M36.773,63.828h2.857
		l-0.879-2.334c-0.268-0.709-0.468-1.292-0.598-1.748c-0.107,0.541-0.259,1.077-0.454,1.61L36.773,63.828z"/>
	<path d="M43.073,67.288v-8.427h1.115v7.433h4.15v0.994H43.073z"/>
	<path d="M48.758,67.432l2.444-8.714h0.826l-2.437,8.714H48.758z"/>
	<path d="M58.95,64.334l1.115,0.281c-0.234,0.916-0.654,1.614-1.262,2.095c-0.607,0.481-1.351,0.722-2.228,0.722
		c-0.908,0-1.646-0.185-2.216-0.555c-0.569-0.369-1.002-0.905-1.299-1.606c-0.298-0.701-0.446-1.454-0.446-2.259
		c0-0.878,0.168-1.644,0.503-2.297c0.336-0.653,0.813-1.149,1.432-1.488c0.619-0.34,1.3-0.509,2.044-0.509
		c0.843,0,1.552,0.215,2.126,0.644c0.575,0.43,0.976,1.033,1.202,1.811l-1.099,0.259c-0.195-0.613-0.479-1.06-0.851-1.339
		c-0.371-0.28-0.839-0.42-1.402-0.42c-0.647,0-1.188,0.155-1.624,0.466c-0.435,0.311-0.74,0.727-0.917,1.25
		c-0.176,0.523-0.264,1.063-0.264,1.618c0,0.717,0.104,1.342,0.313,1.877c0.209,0.534,0.534,0.934,0.975,1.198
		s0.918,0.396,1.432,0.396c0.624,0,1.153-0.18,1.586-0.54C58.503,65.577,58.796,65.043,58.95,64.334z"/>
	<path d="M61.404,67.288v-8.427h1.678l1.995,5.967c0.184,0.556,0.318,0.972,0.402,1.247c0.096-0.307,0.245-0.757,0.448-1.351
		l2.018-5.863h1.5v8.427h-1.074v-7.053l-2.449,7.053h-1.006l-2.438-7.174v7.174H61.404z"/>
</g>
<g>
	<path d="M73.786,62.79v0.58h-3.247c-0.005-0.146,0.019-0.285,0.07-0.419c0.082-0.221,0.215-0.438,0.396-0.653
		c0.183-0.215,0.445-0.463,0.79-0.744c0.533-0.438,0.895-0.784,1.082-1.04s0.281-0.498,0.281-0.726c0-0.239-0.085-0.441-0.256-0.605
		s-0.394-0.246-0.669-0.246c-0.29,0-0.522,0.087-0.697,0.262c-0.174,0.174-0.262,0.415-0.265,0.724l-0.62-0.063
		c0.043-0.463,0.202-0.815,0.479-1.058s0.649-0.363,1.116-0.363c0.472,0,0.845,0.131,1.119,0.392
		c0.274,0.262,0.412,0.586,0.412,0.972c0,0.197-0.04,0.391-0.12,0.58c-0.081,0.189-0.215,0.39-0.401,0.6s-0.496,0.498-0.93,0.865
		c-0.361,0.304-0.594,0.51-0.697,0.618c-0.103,0.108-0.188,0.217-0.254,0.326H73.786z"/>
</g>
<g>
	<defs>
		<rect id="SVGID_7_" x="10" y="10.724" width="80" height="78.553"/>
	</defs>
	<clipPath id="SVGID_8_">
		<use xlink:href="#SVGID_7_"  overflow="visible"/>
	</clipPath>
	<g clip-path="url(#SVGID_8_)">
		<path d="M21.82,84.845h-1.851l-0.736-1.914h-3.368l-0.696,1.914h-1.805l3.282-8.427h1.799L21.82,84.845z M18.687,81.511
			l-1.161-3.127l-1.138,3.127H18.687z"/>
		<path d="M22.291,82.103l1.656-0.16c0.1,0.556,0.302,0.963,0.606,1.224c0.304,0.261,0.715,0.392,1.233,0.392
			c0.548,0,0.96-0.116,1.239-0.349c0.277-0.231,0.417-0.503,0.417-0.813c0-0.199-0.059-0.369-0.175-0.509
			c-0.117-0.141-0.321-0.262-0.612-0.365c-0.199-0.069-0.653-0.191-1.362-0.368c-0.912-0.226-1.552-0.504-1.92-0.833
			c-0.517-0.464-0.776-1.029-0.776-1.696c0-0.429,0.122-0.83,0.365-1.204c0.243-0.373,0.594-0.658,1.052-0.854
			s1.011-0.293,1.658-0.293c1.058,0,1.854,0.231,2.389,0.695c0.534,0.464,0.815,1.083,0.842,1.856L27.2,78.901
			c-0.073-0.434-0.229-0.744-0.469-0.935c-0.239-0.189-0.599-0.284-1.078-0.284c-0.495,0-0.881,0.102-1.161,0.305
			c-0.18,0.13-0.27,0.305-0.27,0.523c0,0.199,0.084,0.369,0.253,0.511c0.214,0.181,0.735,0.368,1.563,0.563
			c0.828,0.195,1.44,0.397,1.836,0.606s0.707,0.494,0.931,0.856s0.336,0.81,0.336,1.343c0,0.482-0.134,0.935-0.402,1.356
			c-0.269,0.421-0.648,0.734-1.138,0.939c-0.491,0.205-1.102,0.308-1.834,0.308c-1.065,0-1.883-0.246-2.454-0.738
			C22.743,83.763,22.402,83.046,22.291,82.103z"/>
		<path d="M32.471,84.845v-7.001h-2.5v-1.426h6.697v1.426h-2.495v7.001H32.471z"/>
		<path d="M37.742,84.845v-8.427h2.546l1.529,5.748l1.512-5.748h2.552v8.427h-1.581v-6.634l-1.673,6.634H40.99l-1.667-6.634v6.634
			H37.742z"/>
		<path d="M50.854,84.845v-8.427h5.776v1.426h-4.075v1.994h3.518v1.426h-3.518v3.581H50.854z"/>
		<path d="M65.081,84.845h-1.615v-6.087c-0.59,0.552-1.285,0.96-2.086,1.224v-1.466c0.421-0.138,0.879-0.399,1.373-0.784
			c0.495-0.385,0.834-0.834,1.018-1.348h1.311V84.845z"/>
		<path d="M67.529,82.896l1.563-0.173c0.039,0.318,0.139,0.554,0.3,0.707c0.16,0.153,0.373,0.229,0.638,0.229
			c0.333,0,0.617-0.152,0.851-0.459s0.383-0.943,0.448-1.909c-0.406,0.472-0.914,0.707-1.523,0.707
			c-0.663,0-1.234-0.256-1.716-0.767c-0.48-0.512-0.721-1.178-0.721-1.998c0-0.854,0.254-1.543,0.762-2.066
			c0.507-0.523,1.154-0.784,1.939-0.784c0.854,0,1.556,0.33,2.104,0.991s0.822,1.748,0.822,3.262c0,1.541-0.285,2.652-0.856,3.334
			c-0.571,0.683-1.314,1.023-2.23,1.023c-0.659,0-1.191-0.175-1.598-0.526C67.905,84.117,67.644,83.594,67.529,82.896z
			 M71.185,79.367c0-0.521-0.12-0.926-0.359-1.213c-0.239-0.288-0.517-0.432-0.83-0.432c-0.3,0-0.548,0.118-0.745,0.354
			s-0.296,0.622-0.296,1.158c0,0.544,0.107,0.943,0.322,1.198c0.214,0.255,0.482,0.383,0.805,0.383c0.311,0,0.572-0.123,0.784-0.368
			C71.079,80.202,71.185,79.842,71.185,79.367z"/>
		<path d="M74.065,82.678l1.609-0.167c0.046,0.364,0.182,0.652,0.408,0.865c0.226,0.213,0.486,0.319,0.781,0.319
			c0.337,0,0.623-0.137,0.856-0.411c0.234-0.274,0.351-0.687,0.351-1.239c0-0.517-0.115-0.905-0.348-1.163
			c-0.231-0.259-0.533-0.389-0.905-0.389c-0.464,0-0.879,0.205-1.247,0.615l-1.311-0.189l0.827-4.386h4.271v1.512h-3.047
			l-0.253,1.431c0.36-0.18,0.729-0.27,1.104-0.27c0.717,0,1.324,0.261,1.822,0.781c0.498,0.521,0.747,1.198,0.747,2.029
			c0,0.693-0.201,1.313-0.604,1.856c-0.548,0.744-1.309,1.115-2.281,1.115c-0.778,0-1.413-0.209-1.903-0.626
			C74.454,83.944,74.161,83.383,74.065,82.678z"/>
		<path d="M80.623,82.896l1.563-0.173c0.039,0.318,0.139,0.554,0.3,0.707c0.16,0.153,0.373,0.229,0.638,0.229
			c0.333,0,0.617-0.152,0.851-0.459s0.383-0.943,0.448-1.909c-0.406,0.472-0.914,0.707-1.523,0.707
			c-0.663,0-1.234-0.256-1.716-0.767c-0.48-0.512-0.721-1.178-0.721-1.998c0-0.854,0.254-1.543,0.762-2.066
			c0.507-0.523,1.154-0.784,1.939-0.784c0.854,0,1.556,0.33,2.104,0.991s0.822,1.748,0.822,3.262c0,1.541-0.285,2.652-0.856,3.334
			c-0.571,0.683-1.314,1.023-2.23,1.023c-0.659,0-1.191-0.175-1.598-0.526C80.999,84.117,80.738,83.594,80.623,82.896z
			 M84.279,79.367c0-0.521-0.12-0.926-0.359-1.213c-0.239-0.288-0.517-0.432-0.83-0.432c-0.3,0-0.548,0.118-0.745,0.354
			s-0.296,0.622-0.296,1.158c0,0.544,0.107,0.943,0.322,1.198c0.214,0.255,0.482,0.383,0.805,0.383c0.311,0,0.572-0.123,0.784-0.368
			C84.172,80.202,84.279,79.842,84.279,79.367z"/>
	</g>
</g>
<g>
	<path fill="#FFFFFF" d="M34.265,40.544c-0.73-0.388-1.264-0.822-1.599-1.302c-0.457-0.654-0.685-1.408-0.685-2.26
		c0-1.401,0.659-2.546,1.976-3.437c1.027-0.685,2.386-1.027,4.076-1.027c2.238,0,3.892,0.426,4.961,1.279s1.604,1.926,1.604,3.22
		c0,0.753-0.213,1.458-0.64,2.112c-0.319,0.487-0.822,0.959-1.507,1.416c0.906,0.434,1.581,1.009,2.026,1.724
		s0.668,1.507,0.668,2.375c0,0.837-0.192,1.619-0.577,2.346s-0.856,1.289-1.416,1.684c-0.56,0.396-1.256,0.687-2.089,0.874
		c-0.833,0.186-1.722,0.28-2.666,0.28c-1.774,0-3.128-0.209-4.065-0.628c-0.936-0.419-1.648-1.035-2.135-1.85
		c-0.487-0.814-0.731-1.724-0.731-2.729c0-0.982,0.229-1.813,0.685-2.495S33.313,40.917,34.265,40.544z M36.104,44.46
		c0,0.738,0.224,1.341,0.673,1.81c0.449,0.468,0.963,0.702,1.542,0.702c0.556,0,1.054-0.238,1.496-0.714
		c0.441-0.476,0.662-1.079,0.662-1.81c0-0.738-0.222-1.343-0.667-1.815c-0.445-0.472-0.961-0.708-1.547-0.708
		c-0.579,0-1.083,0.229-1.513,0.685C36.318,43.067,36.104,43.684,36.104,44.46z M36.354,37.256c0,0.579,0.181,1.044,0.542,1.398
		c0.361,0.354,0.843,0.531,1.444,0.531c0.533,0,0.97-0.175,1.313-0.525c0.342-0.35,0.514-0.803,0.514-1.359
		c0-0.578-0.179-1.048-0.537-1.41c-0.358-0.361-0.814-0.542-1.37-0.542c-0.563,0-1.022,0.177-1.376,0.531
		C36.532,36.234,36.354,36.692,36.354,37.256z"/>
	<path fill="#FFFFFF" d="M47.521,44.883h4.967v4.658h-4.967V44.883z"/>
	<path fill="#FFFFFF" d="M54.931,32.803h13.575v3.14c-1.18,1.065-2.165,2.219-2.957,3.459c-0.959,1.507-1.717,3.186-2.272,5.035
		c-0.441,1.438-0.738,3.14-0.89,5.104h-4.636c0.365-2.732,0.939-5.024,1.724-6.874s2.024-3.829,3.723-5.937h-8.267V32.803z"/>
</g>
</svg>
