<?xml version="1.0" encoding="utf-8"?>
<!-- Generator: Adobe Illustrator 16.0.0, SVG Export Plug-In . SVG Version: 6.00 Build 0)  -->
<!DOCTYPE svg PUBLIC "-//W3C//DTD SVG 1.1//EN" "http://www.w3.org/Graphics/SVG/1.1/DTD/svg11.dtd">
<svg version="1.1" xmlns="http://www.w3.org/2000/svg" xmlns:xlink="http://www.w3.org/1999/xlink" x="0px" y="0px" width="100px"
	 height="100px" viewBox="0 0 100 100" enable-background="new 0 0 100 100" xml:space="preserve">
<g id="Layer_1" display="none">
	<path display="inline" fill="#010101" d="M32.395,16.295c0,0-22.219,0-22.544,23.668c0,0,0,19.191,22.544,20.63v-7.995
		c0,0-15.825-0.156-15.023-15.99c0,0,0.631-11.191,15.023-12.151V16.295z"/>
	<path display="inline" fill="#010101" d="M61.66,16.295c0,0-22.228,0-22.544,23.668c0,0,0,19.191,22.544,20.63v-7.995
		c0,0-15.831-0.156-15.032-15.99c0,0,0.643-11.191,15.032-12.151V16.295z"/>
	<rect x="45.189" y="34.367" display="inline" fill="#010101" width="14.716" height="7.512"/>
	<text transform="matrix(1 0 0 1 21.5488 79.5547)" display="inline"><tspan x="0" y="0" fill="#010101" font-family="'HelveticaNeueLTPro-BdCn'" font-size="11.3019">C</tspan><tspan x="5.877" y="0" fill="#010101" font-family="'HelveticaNeueLTPro-BdCn'" font-size="11.3019">A</tspan><tspan x="11.55" y="0" fill="#010101" font-family="'HelveticaNeueLTPro-BdCn'" font-size="11.3019">T III</tspan></text>
	
		<text transform="matrix(1 0 0 1 67.0625 42.4746)" display="inline" fill="#010101" font-family="'HelveticaNeueLTPro-BdCn'" font-size="11.3019">2895</text>
</g>
<g id="Layer_2" display="none">
	
		<text transform="matrix(1 0 0 1 17.4526 74.8262)" display="inline" fill="#010101" font-family="'HelveticaNeueLTPro-BdCn'" font-size="8.8376">EN ISO 11612:2015</text>
	
		<text transform="matrix(1 0 0 1 23.6392 85.4316)" display="inline" fill="#010101" font-family="'HelveticaNeueLTPro-BdCn'" font-size="8.8376">A1 A2 B1 C1 F1</text>
	<g display="inline">
		<path fill="#010101" d="M47.929,54.025c0,0-7.501,0.159-7.981-6.386c-0.483-6.585-0.21-8.515-0.21-8.515s1.381,1.279,1.811,0.323
			c0,0,0.53-6.071,0.316-7.343c0,0,0.43-0.644,2.233,2.658c0,0,1.706-1.702,0.428-9.475c0,0,1.597-0.423,3.193,2.239
			c0,0,0.746,0.423,1.063-9.791c0,0,1.063,5.213,2.769,7.129c1.702,1.916,1.489,3.513,1.489,3.513s0.427,0,0.852-2.235
			c0,0,2.396,1.226,3.297,9.048c0,0,0.479-0.271,0.531-1.757c0.033-0.753,3.038,2.927,2.611,10.004c0,0,0.53,0.264,1.169-0.159
			c0,0,0,10.163-9.789,10.797c0,0,5.588-4.521,4.307-10.424c0,0-0.373,0.901-1.222,0.742c0,0,0.425-3.512-0.321-4.683
			c0,0-1.277,2.926-2.233,3.354c0,0,0.904-5.002-1.65-7.291c0,0-0.583,6.704-1.379,7.023c0,0-0.91-1.543-1.866-2.073
			c0,0-0.159,5.477,0.052,5.691c0,0-2.34-3.136-2.713-4.68c0,0-0.532,0.532-0.424,4.042c0,0-0.321,0-0.694-0.424
			c0,0-0.315,3.884,4.1,8.442L47.929,54.025z"/>
		<path fill="none" stroke="#010101" stroke-width="0.361" stroke-miterlimit="3.864" d="M43.141,54.663h13.414 M50.267,63.521
			c0,0-17.033-5.323-19.414-28.243l-0.164-22.71h39.172l-0.166,22.71C67.318,58.198,50.267,63.521,50.267,63.521z"/>
	</g>
</g>
<g id="Layer_3" display="none">
	
		<text transform="matrix(1 0 0 1 17.6611 75.0742)" display="inline" fill="#010101" font-family="'HelveticaNeueLTPro-BdCn'" font-size="8.9264">EN ISO 11611:2015</text>
	
		<text transform="matrix(1 0 0 1 25.4717 85.7871)" display="inline" fill="#010101" font-family="'HelveticaNeueLTPro-BdCn'" font-size="8.9264">Class 1-A1-A2</text>
	<rect x="37.095" y="43.466" display="inline" fill="#010101" width="26.483" height="3.888"/>
	<g display="inline">
		<path fill="#010101" d="M39.686,41.021c0-0.713,0.577-1.297,1.297-1.297c0.715,0,1.292,0.584,1.292,1.297
			c0,0.714-0.577,1.295-1.292,1.295C40.263,42.315,39.686,41.735,39.686,41.021"/>
		<path fill="#010101" d="M54.655,41.021c0-0.713,0.58-1.297,1.297-1.297c0.715,0,1.292,0.584,1.292,1.297
			c0,0.714-0.577,1.295-1.292,1.295C55.235,42.315,54.655,41.735,54.655,41.021"/>
		<path fill="#010101" d="M41.562,37.575c0-0.713,0.581-1.293,1.297-1.293c0.715,0,1.292,0.581,1.292,1.293
			c0,0.715-0.577,1.299-1.292,1.299C42.142,38.874,41.562,38.29,41.562,37.575"/>
		<path fill="#010101" d="M45.16,35.708c0-0.718,0.581-1.299,1.297-1.299c0.715,0,1.292,0.581,1.292,1.299
			c0,0.713-0.577,1.293-1.292,1.293C45.741,37.001,45.16,36.421,45.16,35.708"/>
		<path fill="#010101" d="M52.789,37.434c0-0.715,0.581-1.299,1.298-1.299c0.715,0,1.291,0.584,1.291,1.299
			c0,0.713-0.576,1.293-1.291,1.293C53.37,38.728,52.789,38.147,52.789,37.434"/>
	</g>
	<path display="inline" fill="none" stroke="#010101" stroke-width="0.645" stroke-miterlimit="3.864" d="M51.37,27.923l-0.507,9.5
		 M64.875,23.028H49.904v4.463h15.114H55.52v-4.463"/>
	<path display="inline" fill="none" stroke="#010101" stroke-width="0.361" stroke-miterlimit="3.864" d="M50.513,63.657
		c0,0-17.213-5.373-19.617-28.526V12.192h39.243v22.938C67.736,58.28,50.513,63.657,50.513,63.657z"/>
</g>
<g id="Layer_4" display="none">
	<polyline display="inline" fill="none" stroke="#010101" stroke-width="0.73" stroke-miterlimit="3.864" points="50.156,19.947 
		43.09,38.172 57.594,29.989 50.528,48.955 38.998,48.955 62.428,48.955 	"/>
	<g display="inline">
		<path fill="#010101" d="M48.445,20.135c0-1.542,1.247-2.789,2.79-2.789c1.541,0,2.788,1.247,2.788,2.789
			c0,1.54-1.247,2.79-2.788,2.79C49.691,22.925,48.445,21.675,48.445,20.135"/>
		<circle fill="none" stroke="#010101" stroke-width="0.216" stroke-miterlimit="3.864" cx="51.234" cy="20.135" r="2.789"/>
		<path fill="none" stroke="#010101" stroke-width="0.361" stroke-miterlimit="3.864" d="M50.706,63.998
			c0,0-17.192-5.374-19.59-28.503L30.95,12.578h39.528l-0.167,22.917C67.911,58.624,50.706,63.998,50.706,63.998z"/>
	</g>
	
		<text transform="matrix(1 0 0 1 22.957 75.4004)" display="inline" fill="#010101" font-family="'HelveticaNeueLTPro-BdCn'" font-size="8.918">EN 1149-5:2018</text>
</g>
<g id="Layer_5" display="none">
	<g display="inline">
		<text transform="matrix(1 0 0 1 19.7471 74.9258)" fill="#010101" font-family="'HelveticaNeueLTPro-BdCn'" font-size="8.873">IEC 61482-2:2018</text>
		<text transform="matrix(1 0 0 1 38.5313 85.5732)" fill="#010101" font-family="'HelveticaNeueLTPro-BdCn'" font-size="8.873">APC=1</text>
		<g>
			<path fill="none" stroke="#010101" stroke-width="0.361" stroke-miterlimit="3.864" d="M50.462,63.576
				c0,0-17.1-5.347-19.49-28.357L30.81,12.417h39.327l-0.166,22.801C67.581,58.229,50.462,63.576,50.462,63.576z"/>
		</g>
		<polygon fill="#010101" points="39.506,33.182 45.089,17.682 40.303,17.682 36.021,36.808 44.826,31.554 42.905,46.206 
			41.327,45.208 42.785,51.207 46.063,45.979 44.271,46.419 48.193,27.942 		"/>
		<polygon fill="#010101" points="64.187,38.78 59.308,35.305 59.308,34.382 61.489,33.456 59.38,32.718 59.38,31.609 
			66.922,25.989 57.864,25.989 59.714,21.294 55.648,23.474 56.979,19.591 51.656,22.883 51.69,25.249 54.687,25.249 55.018,26.285 
			53.687,28.538 57.052,28.503 57.385,29.685 54.465,31.72 55.905,32.531 56.201,33.418 55.131,34.122 56.053,34.565 56.239,35.637 
			53.725,35.453 54.908,39.777 51.616,37.82 51.469,41.738 52.765,44.288 52.947,40.371 59.676,47.615 57.109,40.278 57.643,39.742 
			59.566,40.592 58.345,38.633 58.345,37.524 		"/>
	</g>
</g>
<g id="Layer_6" display="none">
	<path display="inline" fill="#010101" d="M76.478,70.09c0-0.263,0.002-0.459,0-0.657c-0.012-1.881,0.07-3.771-0.063-5.644
		c-0.138-1.89-1.742-3.274-3.674-3.297c-3.042-0.036-6.091-0.041-9.135,0.005c-2.102,0.029-3.678,1.708-3.685,3.813
		c-0.005,1.744-0.002,3.486,0,5.23c0,0.173,0.021,0.347,0.037,0.55H76.478z M53.051,83.928c0-6.797-0.063-13.595,0.016-20.39
		c0.055-4.815,4.087-9.161,8.914-9.807c0.832-0.109,1.68-0.125,2.517-0.132c2.748-0.014,5.495-0.014,8.241-0.003
		c5.183,0.021,9.46,3.548,10.45,8.636c0.13,0.661,0.173,1.352,0.173,2.029c0.016,6.555,0.014,13.108,0.014,19.666h-6.858V77.09
		H59.909v6.838H53.051z"/>
	<path display="inline" fill="#010101" d="M47.515,17.741c0,6.679,0.021,13.353-0.004,20.031c-0.016,5-3.911,9.438-8.884,10.165
		c-0.591,0.086-1.195,0.132-1.797,0.135c-3.005,0.011-6.013,0.011-9.021,0.004c-5.967-0.014-10.623-4.69-10.623-10.667
		c0-6.555,0.002-13.113,0.004-19.668h6.859c0.007,0.219,0.018,0.438,0.018,0.661c0.002,6.275,0,12.552,0.005,18.828
		c0,2.351,1.612,3.956,3.977,3.96c2.85,0.007,5.696,0.004,8.543,0c2.445-0.004,4.032-1.587,4.032-4.02
		c0.002-6.216,0.002-12.434,0.007-18.649c0-0.26,0.016-0.52,0.025-0.78H47.515z"/>
	<path display="inline" fill="#010101" d="M26.576,83.928c-0.347-0.08-0.695-0.159-1.044-0.234
		c-4.793-1.056-8.32-5.399-8.343-10.312c-0.016-3.085-0.018-6.175,0-9.265c0.034-5.787,4.784-10.516,10.562-10.521
		c6.359-0.007,12.717-0.002,19.074-0.002h0.645v6.886h-0.69H28.126c-2.439,0-4.045,1.58-4.054,4.011
		c-0.012,2.846-0.012,5.694,0,8.542c0.009,2.405,1.609,3.999,4.008,3.999c6.236,0.005,12.475,0.003,18.711,0.003h0.723v6.893H26.576
		z"/>
	<path display="inline" fill="#010101" d="M83.375,17.741c-1.389,1.113-2.769,2.239-4.168,3.34
		c-4.912,3.872-9.83,7.734-14.744,11.597c-0.063,0.05-0.116,0.109-0.237,0.221c6.339,5.021,12.662,10.03,19.1,15.126
		c-0.285,0.023-0.445,0.05-0.604,0.05c-2.588,0.002-5.174,0.011-7.76-0.014c-0.287-0.002-0.629-0.13-0.857-0.31
		c-4.535-3.571-9.057-7.158-13.583-10.74c-0.152-0.123-0.316-0.237-0.565-0.426v11.444h-6.872c-0.014-0.152-0.046-0.308-0.046-0.458
		c-0.002-9.846-0.002-19.689,0-29.531c0-0.1,0.007-0.201,0.014-0.301h6.858v11.467c0.235-0.171,0.336-0.235,0.427-0.308
		c2.992-2.351,5.983-4.697,8.971-7.053c1.726-1.361,3.442-2.736,5.164-4.106H83.375z"/>
</g>
<g id="Layer_7" display="none">
	<path display="inline" fill="#010101" d="M75.01,55.872h0.536c0.233,0,0.391,0.017,0.477,0.052
		c0.084,0.033,0.151,0.084,0.199,0.153c0.05,0.068,0.073,0.146,0.073,0.233c0,0.134-0.05,0.242-0.15,0.325
		c-0.101,0.081-0.286,0.121-0.562,0.121H75.01V55.872z M75.01,58.408v-1.247h0.277c0.167,0,0.292,0.035,0.38,0.103
		c0.125,0.091,0.289,0.318,0.494,0.683l0.261,0.462H77l-0.358-0.573c-0.172-0.272-0.315-0.467-0.433-0.581
		c-0.063-0.062-0.146-0.112-0.25-0.157c0.253-0.019,0.456-0.107,0.608-0.266c0.153-0.16,0.229-0.346,0.229-0.561
		c0-0.153-0.046-0.296-0.137-0.431c-0.091-0.134-0.215-0.23-0.369-0.284c-0.153-0.054-0.402-0.081-0.748-0.081h-1.008v2.934H75.01z
		 M76.848,54.921c0.364,0.196,0.646,0.478,0.852,0.841c0.203,0.367,0.304,0.745,0.304,1.142c0,0.392-0.099,0.767-0.299,1.129
		c-0.2,0.359-0.48,0.641-0.843,0.839c-0.36,0.201-0.737,0.304-1.13,0.304c-0.394,0-0.771-0.103-1.13-0.304
		c-0.362-0.198-0.643-0.479-0.845-0.839c-0.201-0.362-0.301-0.737-0.301-1.129c0-0.396,0.101-0.774,0.306-1.142
		c0.205-0.363,0.489-0.645,0.851-0.841c0.362-0.195,0.735-0.294,1.119-0.294C76.111,54.627,76.484,54.726,76.848,54.921
		 M74.392,54.527c-0.437,0.235-0.776,0.57-1.02,1.008c-0.246,0.437-0.368,0.893-0.368,1.368c0,0.468,0.12,0.92,0.361,1.354
		c0.241,0.435,0.578,0.77,1.01,1.009c0.433,0.24,0.884,0.359,1.356,0.359s0.924-0.119,1.356-0.359
		c0.431-0.239,0.768-0.574,1.006-1.009c0.241-0.434,0.362-0.886,0.362-1.354c0-0.476-0.123-0.932-0.367-1.368
		c-0.243-0.438-0.581-0.772-1.018-1.008c-0.435-0.234-0.884-0.352-1.34-0.352S74.827,54.293,74.392,54.527"/>
	<text transform="matrix(1 0 0 1 26.1338 69.3164)" display="inline"><tspan x="0" y="0" fill="#010101" font-family="'HelveticaNeueLTPro-Blk'" font-size="16.918">NF</tspan><tspan x="23.499" y="0" fill="#010101" font-family="'HelveticaNeueLTPro-Blk'" font-size="16.918" letter-spacing="-1">P</tspan><tspan x="34.174" y="0" fill="#010101" font-family="'HelveticaNeueLTPro-Blk'" font-size="16.918">A</tspan></text>
	<g display="inline">
		<path fill="#010101" d="M32.083,13.161h34.471c2.052,0,3.912,0.836,5.261,2.184c1.348,1.348,2.188,3.21,2.188,5.261V46.5
			c0,2.045-0.84,3.902-2.188,5.25c-1.351,1.356-3.216,2.199-5.261,2.199h-6.222V48.95h6.222c0.678,0,1.29-0.273,1.729-0.71
			c0.442-0.448,0.72-1.061,0.72-1.74V20.606c0-0.671-0.277-1.284-0.72-1.729c-0.446-0.443-1.058-0.72-1.729-0.72H32.083
			c-0.676,0-1.295,0.277-1.736,0.72c-0.441,0.439-0.715,1.051-0.715,1.729V46.5c0,0.67,0.277,1.282,0.725,1.728
			c0.441,0.444,1.054,0.722,1.727,0.722h8.291v4.999h-8.291c-2.052,0-3.914-0.838-5.262-2.188c-1.35-1.35-2.185-3.21-2.185-5.262
			V20.606c0-2.042,0.839-3.906,2.194-5.261C28.177,13.997,30.038,13.161,32.083,13.161"/>
		<path fill="#EC2427" d="M43.584,49.381c0,0-3.457-2.799-2.799-7.322c0.659-4.527,3.21-7.491,1.155-11.438
			c0,0,4.852,5.427,5.592,7.816c0,0,0.166-2.632-0.41-4.116c-0.575-1.48-1.234-5.021,0.166-7.326
			c-0.889,4.111,5.102,8.063,6.007,12.591c0,0,2.883-0.739,1.896-9.627c0,0,8.312,8.396,2.551,18.683c0,0,0.081-2.552-0.25-3.623
			c0,0-2.386,6.916-6.171,9.711c2.094-6.136,0.281-6.532-0.824-11.274c0,0-1.778,5.845-1.894,10.125c0,0-3.415-1.896-4.527-8.562
			C43.6,46.521,43.485,47.866,43.584,49.381 M53.328,35.586c-2.481-5.171-6.549-7.45-3.82-14.599
			C49.768,27.124,55.121,28.292,53.328,35.586"/>
		<path fill="#010101" d="M75.127,86.639c0,1.289-1.048,2.333-2.337,2.333H25.846c-1.289,0-2.336-1.044-2.336-2.333V74.58
			c0-1.289,1.047-2.335,2.336-2.335H72.79c1.289,0,2.337,1.046,2.337,2.335V86.639z"/>
	</g>
	
		<text transform="matrix(1 0 0 1 35.7578 84.2852)" display="inline" fill="#FFFFFF" font-family="'HelveticaNeueLTPro-Blk'" font-size="10.1508">2112</text>
</g>
<g id="Layer_8" display="none">
	<g display="inline">
		<path fill="#010101" d="M1084.707,716.506c-8.081,0-14.63,6.551-14.63,14.63c0,8.08,6.549,14.631,14.63,14.631
			c8.08,0,14.631-6.551,14.631-14.631C1099.338,723.057,1092.787,716.506,1084.707,716.506 M1084.707,743.049
			c-6.58,0-11.914-5.334-11.914-11.914c0-6.578,5.334-11.914,11.914-11.914s11.914,5.336,11.914,11.914
			C1096.621,737.715,1091.287,743.049,1084.707,743.049"/>
		<path fill="#010101" d="M1084.827,723.288h-2.7v8.617c0,0.491-0.213,1.106-0.921,1.106c-0.771,0-0.938-0.479-0.938-1.029v-8.694
			h-2.698v8.34c0,2.366,1.333,3.458,3.62,3.458c2.762,0,3.638-1.507,3.638-3.458V723.288z"/>
	</g>
	<polygon display="inline" fill="#010101" points="1088.588,727.456 1085.889,727.456 1085.889,738.983 1091.89,738.983 
		1091.89,736.675 1088.588,736.675 	"/>
	<g display="inline">
		<path fill="#010101" d="M1081.124,736.477h-0.463v1.793h0.198v-0.788h0.347c0.235,0,0.308,0.153,0.308,0.332
			c0,0.12,0.019,0.343,0.061,0.456h0.233v-0.04l-0.07-0.112c-0.02-0.134-0.031-0.265-0.039-0.397
			c-0.028-0.239-0.086-0.314-0.317-0.336v-0.005c0.208-0.027,0.337-0.179,0.345-0.39
			C1081.737,736.575,1081.498,736.477,1081.124,736.477 M1080.859,737.303v-0.646h0.279c0.135,0,0.375,0.007,0.382,0.315
			c0.003,0.313-0.254,0.328-0.348,0.33H1080.859z"/>
		<path fill="#010101" d="M1081.202,735.735c-0.905,0-1.638,0.734-1.638,1.637c0,0.906,0.732,1.64,1.638,1.641
			c0.903-0.001,1.637-0.734,1.637-1.641C1082.839,736.469,1082.105,735.736,1081.202,735.735 M1081.202,738.841L1081.202,738.841
			c-0.811-0.002-1.464-0.657-1.465-1.469c0.001-0.809,0.654-1.463,1.465-1.464c0.809,0.001,1.464,0.655,1.465,1.464
			C1082.666,738.184,1082.011,738.839,1081.202,738.841"/>
		<path fill="#010101" d="M1067.702,717.108c-0.495,0-0.945,0.305-1.353,0.849c-0.717,0.958-0.598,1.74,0.369,2.465l1.83,1.37
			c0.417,0.313,0.81,0.483,1.182,0.483c0.438,0,0.849-0.235,1.238-0.755c0.801-1.07,0.596-1.909-0.172-2.483l-0.546-0.409
			l-0.783,1.046l0.404,0.301c0.273,0.204,0.619,0.511,0.351,0.867c-0.109,0.147-0.225,0.211-0.347,0.211
			c-0.104,0-0.215-0.048-0.331-0.134l-2.198-1.658c-0.291-0.217-0.409-0.428-0.159-0.749c0.064-0.087,0.159-0.134,0.278-0.134
			c0.149,0,0.335,0.073,0.545,0.23l0.286,0.215l0.783-1.044l-0.374-0.281C1068.352,717.232,1068.018,717.108,1067.702,717.108"/>
	</g>
	<polygon display="inline" fill="#010101" points="1069.727,714.525 1068.736,715.377 1072.364,719.597 1074.564,717.705 
		1073.84,716.86 1072.63,717.901 	"/>
	<path display="inline" fill="#010101" d="M1074.812,711.115l-1.37,0.769l1.664,5.447l1.145-0.643l-0.394-1.021l0.893-0.5
		l0.691,0.852l1.152-0.646L1074.812,711.115z M1075.499,714.745l-0.892-2.358l0.013-0.007l1.538,1.994L1075.499,714.745z"/>
	<g display="inline">
		<path fill="#010101" d="M1079.788,709.198c-0.159,0-0.327,0.022-0.505,0.065c-0.982,0.24-1.469,0.907-1.221,1.924
			c0.117,0.477,0.334,0.773,0.633,0.991c0.305,0.217,0.687,0.345,1.13,0.472c0.38,0.122,0.8,0.204,0.908,0.658
			c0.068,0.275,0.005,0.572-0.294,0.645c-0.06,0.016-0.114,0.021-0.166,0.021c-0.283,0-0.415-0.219-0.479-0.481l-0.093-0.384
			l-1.177,0.287l0.142,0.578c0.142,0.579,0.596,1.036,1.384,1.036c0.182,0,0.382-0.025,0.6-0.077
			c1.052-0.257,1.489-0.973,1.234-2.013c-0.159-0.655-0.42-0.975-0.783-1.177c-0.36-0.2-0.817-0.287-1.368-0.475
			c-0.294-0.112-0.501-0.237-0.543-0.568c-0.029-0.246,0.086-0.428,0.352-0.471c0.031-0.005,0.062-0.008,0.09-0.008
			c0.348,0,0.433,0.396,0.518,0.686l1.169-0.283C1081.156,709.761,1080.609,709.198,1079.788,709.198"/>
		<path fill="#010101" d="M1084.424,708.661c-0.018,0-0.034,0.001-0.051,0.001c-1.011,0.021-1.629,0.569-1.608,1.614
			c0.01,0.49,0.157,0.829,0.401,1.104c0.251,0.278,0.597,0.485,1.002,0.707c0.345,0.2,0.734,0.371,0.746,0.838
			c0.004,0.282-0.124,0.561-0.428,0.566h-0.017c-0.402,0-0.508-0.277-0.515-0.591l-0.009-0.393l-1.21,0.024l0.013,0.593
			c0.015,0.722,0.516,1.368,1.665,1.368c0.021,0,0.042,0,0.063-0.001c1.084-0.021,1.665-0.628,1.643-1.694
			c-0.014-0.676-0.2-1.044-0.51-1.318c-0.31-0.275-0.736-0.46-1.232-0.762c-0.264-0.173-0.438-0.342-0.407-0.675
			c0.024-0.232,0.162-0.381,0.403-0.381c0.013,0,0.026,0.001,0.041,0.001c0.432,0.02,0.426,0.466,0.447,0.792l1.202-0.025
			C1086.101,709.401,1085.525,708.661,1084.424,708.661"/>
	</g>
	
		<rect x="1085.238" y="711.206" transform="matrix(0.2024 -0.9793 0.9793 0.2024 170.7206 1633.321)" display="inline" fill="#010101" width="5.564" height="1.306"/>
	<polygon display="inline" fill="#010101" points="1091.033,709.682 1089.135,714.913 1090.362,715.359 1091.165,713.149 
		1092.692,713.703 1093.072,712.656 1091.543,712.1 1091.881,711.174 1093.542,711.777 1093.921,710.731 	"/>
	
		<rect x="1091.697" y="713.512" transform="matrix(0.5141 -0.8577 0.8577 0.5141 -80.7427 1285.804)" display="inline" fill="#010101" width="5.564" height="1.306"/>
	<polygon display="inline" fill="#010101" points="1098.114,713.21 1094.45,717.399 1096.766,719.426 1097.499,718.588 
		1096.165,717.419 1096.957,716.516 1098.186,717.591 1098.917,716.752 1097.69,715.677 1098.364,714.908 1099.632,716.017 
		1100.364,715.179 	"/>
	<path display="inline" fill="#010101" d="M1101.655,716.666l-4.427,3.371l1.064,1.4c0.242,0.319,0.523,0.627,0.908,0.763
		c0.126,0.048,0.253,0.071,0.381,0.071c0.298,0,0.601-0.124,0.912-0.356l1.965-1.496c0.426-0.323,0.808-0.718,0.739-1.299
		c-0.063-0.484-0.396-0.949-0.684-1.325L1101.655,716.666z M1099.416,720.949c-0.19,0-0.375-0.136-0.601-0.479l2.834-2.157
		c0.375,0.516,0.476,0.71-0.04,1.111l-1.445,1.101C1099.857,720.773,1099.632,720.949,1099.416,720.949"/>
	<g display="inline">
		<path fill="#010101" d="M52.857,30.405c-15.704,0-28.43,12.73-28.43,28.43c0,15.702,12.726,28.432,28.43,28.432
			c15.701,0,28.432-12.729,28.432-28.432C81.289,43.135,68.559,30.405,52.857,30.405 M52.857,81.985
			c-12.787,0-23.152-10.365-23.152-23.152c0-12.783,10.365-23.152,23.152-23.152c12.786,0,23.151,10.369,23.151,23.152
			C76.009,71.62,65.644,81.985,52.857,81.985"/>
		<path fill="#010101" d="M53.091,43.585h-5.248V60.33c0,0.955-0.414,2.15-1.79,2.15c-1.497,0-1.824-0.93-1.824-2V43.585h-5.243
			v16.207c0,4.598,2.59,6.72,7.035,6.72c5.367,0,7.069-2.929,7.069-6.72V43.585z"/>
	</g>
	<polygon display="inline" fill="#010101" points="60.398,51.685 55.153,51.685 55.153,74.085 66.814,74.085 66.814,69.599 
		60.398,69.599 	"/>
	<g display="inline">
		<path fill="#010101" d="M45.895,69.214h-0.899v3.484h0.385v-1.532h0.673c0.458,0,0.598,0.299,0.598,0.646
			c0,0.233,0.036,0.666,0.118,0.887h0.454V72.62l-0.137-0.219c-0.038-0.26-0.061-0.514-0.076-0.771
			c-0.055-0.466-0.167-0.611-0.617-0.653v-0.01c0.404-0.053,0.655-0.347,0.67-0.757C47.086,69.405,46.621,69.214,45.895,69.214
			 M45.38,70.819v-1.255h0.542c0.262,0,0.729,0.014,0.742,0.613c0.005,0.607-0.494,0.638-0.676,0.642H45.38z"/>
		<path fill="#010101" d="M46.046,67.773c-1.759,0-3.183,1.427-3.183,3.181c0,1.761,1.423,3.186,3.183,3.188
			c1.755-0.002,3.18-1.427,3.18-3.188C49.227,69.198,47.802,67.775,46.046,67.773 M46.046,73.808L46.046,73.808
			c-1.575-0.003-2.845-1.276-2.847-2.854c0.002-1.571,1.271-2.843,2.847-2.845c1.571,0.002,2.845,1.273,2.846,2.845
			C48.891,72.531,47.618,73.805,46.046,73.808"/>
		<path fill="#010101" d="M19.813,31.576c-0.962,0-1.837,0.592-2.628,1.649c-1.393,1.861-1.162,3.382,0.717,4.79l3.556,2.663
			c0.811,0.609,1.573,0.939,2.296,0.939c0.85,0,1.649-0.458,2.406-1.467c1.556-2.08,1.158-3.71-0.334-4.826l-1.061-0.795
			l-1.522,2.032l0.786,0.584c0.532,0.397,1.203,0.993,0.682,1.685c-0.213,0.287-0.437,0.41-0.674,0.41
			c-0.203,0-0.417-0.093-0.644-0.26l-4.271-3.223c-0.565-0.421-0.795-0.831-0.31-1.456c0.125-0.169,0.31-0.26,0.541-0.26
			c0.291,0,0.651,0.142,1.059,0.448l0.556,0.417l1.522-2.029l-0.727-0.546C21.074,31.817,20.425,31.576,19.813,31.576"/>
	</g>
	<polygon display="inline" fill="#010101" points="23.746,26.557 21.822,28.212 28.872,36.412 33.147,32.736 31.739,31.094 
		29.388,33.117 	"/>
	<path display="inline" fill="#010101" d="M33.627,19.93l-2.662,1.494l3.233,10.585l2.224-1.249l-0.765-1.985l1.734-0.972
		l1.344,1.655l2.239-1.254L33.627,19.93z M34.963,26.984l-1.732-4.583l0.025-0.013l2.989,3.875L34.963,26.984z"/>
	<g display="inline">
		<path fill="#010101" d="M43.298,16.205c-0.309,0-0.636,0.043-0.981,0.127c-1.909,0.467-2.854,1.763-2.372,3.738
			c0.228,0.926,0.649,1.503,1.229,1.926c0.592,0.421,1.334,0.67,2.196,0.917c0.738,0.237,1.554,0.397,1.765,1.279
			c0.133,0.535,0.01,1.112-0.571,1.252c-0.116,0.03-0.222,0.042-0.322,0.042c-0.55,0-0.807-0.425-0.932-0.936l-0.18-0.746
			l-2.287,0.558l0.275,1.124c0.275,1.125,1.158,2.013,2.689,2.013c0.353,0,0.742-0.049,1.165-0.15
			c2.044-0.499,2.894-1.89,2.398-3.911c-0.309-1.273-0.816-1.894-1.522-2.287c-0.7-0.389-1.588-0.558-2.659-0.922
			c-0.571-0.218-0.973-0.461-1.055-1.104c-0.057-0.478,0.167-0.831,0.683-0.915c0.061-0.01,0.12-0.015,0.174-0.015
			c0.676,0,0.841,0.769,1.006,1.332l2.271-0.55C45.957,17.298,44.895,16.205,43.298,16.205"/>
		<path fill="#010101" d="M52.307,15.161c-0.034,0-0.066,0.002-0.099,0.002c-1.964,0.04-3.166,1.106-3.125,3.137
			c0.019,0.953,0.306,1.611,0.78,2.146c0.488,0.541,1.16,0.943,1.947,1.374c0.67,0.389,1.427,0.721,1.45,1.628
			c0.007,0.549-0.241,1.089-0.831,1.101h-0.033c-0.781,0-0.986-0.539-1-1.148l-0.017-0.763l-2.352,0.047l0.025,1.152
			c0.028,1.402,1.002,2.659,3.236,2.659c0.04,0,0.081,0,0.121-0.002c2.106-0.042,3.235-1.22,3.192-3.292
			c-0.027-1.313-0.39-2.029-0.991-2.562c-0.602-0.535-1.431-0.894-2.395-1.48c-0.513-0.336-0.851-0.664-0.791-1.312
			c0.047-0.452,0.314-0.74,0.783-0.74c0.024,0,0.052,0.001,0.08,0.001c0.839,0.038,0.827,0.905,0.869,1.539l2.336-0.049
			C55.565,16.6,54.447,15.161,52.307,15.161"/>
	</g>
	
		<rect x="53.889" y="20.106" transform="matrix(0.2024 -0.9793 0.9793 0.2024 26.3619 75.1172)" display="inline" fill="#010101" width="10.813" height="2.539"/>
	<polygon display="inline" fill="#010101" points="65.15,17.144 61.461,27.31 63.847,28.178 65.406,23.883 68.375,24.959 
		69.113,22.925 66.141,21.843 66.798,20.044 70.025,21.217 70.762,19.184 	"/>
	
		<rect x="66.439" y="24.589" transform="matrix(0.514 -0.8578 0.8578 0.514 12.7342 74.1924)" display="inline" fill="#010101" width="10.812" height="2.537"/>
	<polygon display="inline" fill="#010101" points="78.911,24 71.791,32.142 76.29,36.08 77.715,34.451 75.123,32.18 76.662,30.424 
		79.05,32.514 80.471,30.884 78.087,28.794 79.396,27.301 81.859,29.455 83.283,27.827 	"/>
	<path display="inline" fill="#010101" d="M85.792,30.717l-8.603,6.551l2.068,2.721c0.471,0.621,1.018,1.218,1.766,1.482
		c0.244,0.093,0.491,0.138,0.739,0.138c0.579,0,1.167-0.241,1.772-0.692l3.818-2.907c0.827-0.628,1.569-1.395,1.437-2.524
		c-0.121-0.941-0.771-1.845-1.328-2.575L85.792,30.717z M81.44,39.04c-0.37,0-0.729-0.264-1.167-0.93l5.507-4.192
		c0.729,1.002,0.925,1.38-0.077,2.16l-2.809,2.139C82.298,38.698,81.859,39.04,81.44,39.04"/>
</g>
<g id="Layer_9" display="none">
	
		<text transform="matrix(1 0 0 1 19.001 76.0186)" display="inline" fill="#010101" font-family="'HelveticaNeueLTPro-BdCn'" font-size="9.0876">IEC 61482-2:2018</text>
	
		<text transform="matrix(1 0 0 1 37.4487 86.9238)" display="inline" fill="#010101" font-family="'HelveticaNeueLTPro-BdCn'" font-size="9.0876">Class 1</text>
	<path display="inline" fill="none" stroke="#010101" stroke-width="0.5" stroke-miterlimit="2.613" d="M50.469,34.188l7.897,10.486
		l7.899,10.489H50.469H34.674l7.9-10.489L50.469,34.188z M46.102,39.962H34.674l7.9-10.486l7.895-10.486l7.897,10.486l7.899,10.486
		H54.792 M26.403,12.125h48.133v52.519H26.403V12.125z"/>
</g>
<g id="Layer_10" display="none">
	<g display="inline">
		<text transform="matrix(1 0 0 1 5.291 74.9395)" fill="#010101" font-family="'HelveticaNeueLTPro-BdCn'" font-size="8.8325">EN 13034:2005 + A1:2009</text>
		<text transform="matrix(1 0 0 1 94.7725 74.9395)" fill="#010101" font-family="'HelveticaNeueLTPro-BdCn'" font-size="8.8325"> </text>
		<text transform="matrix(1 0 0 1 34.0137 85.5391)"><tspan x="0" y="0" fill="#010101" font-family="'HelveticaNeueLTPro-BdCn'" font-size="8.8325">T</tspan><tspan x="3.763" y="0" fill="#010101" font-family="'HelveticaNeueLTPro-BdCn'" font-size="8.8325">ype PB6</tspan></text>
		<path fill="#010101" d="M57.96,51.604c-0.706,1.839-0.568,2.613-5.657,2.899c-5.089,0.282-5.089-0.071-5.089-0.071
			s-8.417,1.249-4.634-5.174l3.565-10.595h7.213L57.96,51.604z"/>
		<path fill="none" stroke="#010101" stroke-width="0.64" stroke-linecap="round" stroke-miterlimit="3.864" d="M46.913,29.531
			c0,0,2.067,0.438,0.58,4.965c-1.059,3.392-3.476,10.523-4.609,13.88c-0.826,2.426-2.64,6.128,2.067,6.128h9.897
			c0,0,4.386,0.072,2.406-5.586c-1.693-4.83-3.97-9.571-5.489-14.437c-0.418-1.337-0.892-3.649,1.386-4.934"/>
		<path fill="none" stroke="#010101" stroke-width="0.64" stroke-linecap="round" stroke-miterlimit="3.864" d="M56.539,20.517
			c1.051,0.666,1.697,0.876,2.415,0.89c2.626,0.052,1.684-1.425,3.399-2.1c0.662-0.257,1.687-0.101,3.235,1.209 M56.47,29.425
			c1.16,0.721,2.123,0.917,2.871,0.896c2.354-0.073,1.764-1.633,3.516-1.908c0.659-0.102,1.339-0.105,2.664,1.012 M50.676,27.16
			c0,0,2.264-2.546,5.235-0.707c1.296,0.804,2.247,0.981,3.268,0.902c2.736-0.214,2.104-1.799,3.912-2.182
			c0.663-0.138,1.622,0.112,3.002,1.28 M50.326,24.172c0,0,2.258-2.544,5.229-0.705c1.346,0.83,2.661,0.968,3.699,0.869
			c2.603-0.253,1.753-1.542,3.479-2.146c0.64-0.226,1.621,0.108,3.004,1.277"/>
		<path fill="none" stroke="#010101" stroke-width="0.361" stroke-miterlimit="3.864" d="M50.025,63.646
			c0,0-17.028-5.321-19.404-28.229L30.458,12.72h39.146l-0.163,22.697C67.064,58.324,50.025,63.646,50.025,63.646z"/>
	</g>
</g>
<g id="Layer_11" display="none">
	<g display="inline">
		<path fill="#010101" d="M28.993,73.575h-9.114c-2.256,0-4.305-0.918-5.79-2.404c-1.479-1.482-2.401-3.527-2.401-5.784V23.614
			c0-2.247,0.925-4.295,2.414-5.783c1.481-1.482,3.528-2.403,5.778-2.403h59.597c2.257,0,4.302,0.92,5.785,2.403
			c1.481,1.481,2.407,3.531,2.407,5.783v41.773c0,2.249-0.926,4.291-2.407,5.773c-1.486,1.491-3.534,2.415-5.785,2.415h-6.842
			H28.993z"/>
		<path fill="#FFCB0B" d="M13.006,31.115v-7.5c0-1.821,0.716-3.54,2.019-4.842c1.305-1.311,3.032-2.03,4.853-2.03h59.598
			c1.832,0,3.559,0.716,4.855,2.017c1.301,1.304,2.018,3.027,2.018,4.855v7.5H13.006z"/>
	</g>
	<rect x="35.092" y="20.09" display="inline" fill="#FFCB0B" width="29.076" height="7.991"/>
	<g display="inline">
		<path fill="#FFCB0B" d="M19.878,72.258c-1.83,0-3.553-0.72-4.855-2.021c-1.3-1.305-2.015-3.026-2.015-4.853v-7.499h73.339v7.499
			c0,1.819-0.713,3.537-2.019,4.837c-1.306,1.311-3.029,2.036-4.853,2.036H19.878z"/>
	</g>
	<rect x="27.336" y="61.006" display="inline" fill="#FFCB0B" width="40.775" height="8.256"/>
	<rect x="69.138" y="60.734" display="inline" fill="#FFCB0B" width="3.084" height="4.681"/>
	
		<text transform="matrix(1 0 0 1 35.8066 27.8608)" display="inline" fill="#010101" font-family="'HelveticaNeueLTPro-Roman'" font-size="11.1809">ATPV</text>
	
		<text transform="matrix(1 0 0 1 26.3252 68.9941)" display="inline" fill="#010101" font-family="'HelveticaNeueLTPro-Roman'" font-size="11.1809">CAL/CM</text>
	
		<text transform="matrix(1 0 0 1 69.3984 65.2734)" display="inline" fill="#010101" font-family="'HelveticaNeueLTPro-Roman'" font-size="6.5184">2</text>
	
		<text transform="matrix(1 0 0 1 20.8418 85.6699)" display="inline" fill="#010101" font-family="'HelveticaNeueLTPro-BdCn'" font-size="11.1809">ASTM F 1959</text>
	
		<text transform="matrix(1 0 0 1 31.1318 52.2539)" display="inline" fill="#FFFFFF" font-family="'HelveticaNeueLTPro-Blk'" font-size="22.2085">9.8</text>
</g>
<g id="Layer_12" display="none">
	
		<text transform="matrix(1 0 0 1 17.5342 74.9521)" display="inline" fill="#010101" font-family="'HelveticaNeueLTPro-BdCn'" font-size="8.8376">EN ISO 11612:2015</text>
	
		<text transform="matrix(1 0 0 1 18.417 85.5576)" display="inline" fill="#010101" font-family="'HelveticaNeueLTPro-BdCn'" font-size="8.8376">A1 A2 B1 C1 E1 F1 </text>
	<path display="inline" fill="#010101" d="M48.009,54.15c0,0-7.502,0.159-7.981-6.386c-0.483-6.585-0.21-8.515-0.21-8.515
		s1.379,1.279,1.809,0.323c0,0,0.53-6.071,0.318-7.343c0,0,0.428-0.644,2.233,2.658c0,0,1.706-1.702,0.428-9.474
		c0,0,1.595-0.423,3.193,2.239c0,0,0.746,0.423,1.064-9.791c0,0,1.063,5.213,2.769,7.129c1.701,1.916,1.486,3.512,1.486,3.512
		s0.43,0,0.854-2.235c0,0,2.394,1.225,3.297,9.048c0,0,0.479-0.271,0.532-1.757c0.031-0.753,3.037,2.927,2.609,10.004
		c0,0,0.531,0.264,1.17-0.159c0,0,0,10.163-9.79,10.797c0,0,5.59-4.521,4.309-10.424c0,0-0.373,0.9-1.222,0.742
		c0,0,0.424-3.513-0.321-4.683c0,0-1.279,2.925-2.235,3.354c0,0,0.906-5.002-1.649-7.291c0,0-0.583,6.704-1.38,7.023
		c0,0-0.908-1.543-1.864-2.073c0,0-0.159,5.477,0.052,5.691c0,0-2.341-3.136-2.713-4.679c0,0-0.532,0.532-0.425,4.042
		c0,0-0.321,0-0.693-0.425c0,0-0.318,3.884,4.098,8.442L48.009,54.15z"/>
	<path display="inline" fill="none" stroke="#010101" stroke-width="0.361" stroke-miterlimit="3.864" d="M43.221,54.788h13.412
		 M50.346,63.646c0,0-17.033-5.323-19.415-28.243l-0.162-22.71H69.94l-0.166,22.71C67.396,58.323,50.346,63.646,50.346,63.646z"/>
</g>
<g id="Layer_13" display="none">
	<g display="inline">
		<g>
			<path fill="#010101" d="M75.369,86.648c0,1.288-1.047,2.332-2.335,2.332H26.103c-1.288,0-2.335-1.044-2.335-2.332V74.593
				c0-1.29,1.047-2.333,2.335-2.333h46.931c1.288,0,2.335,1.043,2.335,2.333V86.648z"/>
			<path fill="#010101" d="M75.251,55.839h0.539c0.231,0,0.389,0.016,0.474,0.049c0.085,0.035,0.153,0.086,0.2,0.155
				c0.049,0.066,0.072,0.146,0.072,0.232c0,0.135-0.05,0.241-0.15,0.324s-0.285,0.122-0.561,0.122h-0.574V55.839z M75.251,58.373
				v-1.246h0.278c0.166,0,0.292,0.032,0.38,0.101c0.125,0.093,0.289,0.32,0.494,0.684l0.261,0.462h0.578l-0.359-0.574
				c-0.172-0.271-0.313-0.466-0.432-0.582c-0.063-0.061-0.146-0.11-0.25-0.155c0.253-0.018,0.456-0.108,0.607-0.268
				c0.154-0.158,0.23-0.345,0.23-0.559c0-0.153-0.046-0.295-0.138-0.431c-0.09-0.135-0.215-0.228-0.368-0.283
				c-0.153-0.055-0.402-0.082-0.748-0.082h-1.008v2.934H75.251z M77.09,54.887c0.364,0.196,0.646,0.478,0.851,0.841
				c0.204,0.365,0.305,0.744,0.305,1.14c0,0.393-0.1,0.768-0.3,1.128s-0.48,0.641-0.843,0.841c-0.359,0.201-0.735,0.302-1.129,0.302
				c-0.392,0-0.771-0.101-1.13-0.302c-0.362-0.2-0.643-0.48-0.844-0.841c-0.202-0.36-0.302-0.735-0.302-1.128
				c0-0.396,0.103-0.774,0.307-1.14c0.204-0.363,0.489-0.645,0.851-0.841s0.736-0.294,1.118-0.294S76.727,54.69,77.09,54.887
				 M74.634,54.493c-0.436,0.235-0.776,0.57-1.019,1.008c-0.246,0.437-0.369,0.891-0.369,1.366c0,0.469,0.121,0.921,0.364,1.353
				c0.239,0.437,0.576,0.771,1.008,1.011c0.432,0.24,0.883,0.36,1.355,0.36s0.923-0.12,1.356-0.36
				c0.432-0.239,0.768-0.574,1.007-1.011c0.239-0.432,0.36-0.884,0.36-1.353c0-0.476-0.122-0.93-0.367-1.366
				c-0.242-0.438-0.582-0.772-1.017-1.008c-0.436-0.235-0.883-0.352-1.34-0.352C75.518,54.142,75.07,54.258,74.634,54.493"/>
		</g>
		<text transform="matrix(1 0 0 1 26.3887 69.2773)"><tspan x="0" y="0" fill="#010101" font-family="'HelveticaNeueLTPro-Blk'" font-size="16.913">NF</tspan><tspan x="23.492" y="0" fill="#010101" font-family="'HelveticaNeueLTPro-Blk'" font-size="16.913" letter-spacing="-1">P</tspan><tspan x="34.164" y="0" fill="#010101" font-family="'HelveticaNeueLTPro-Blk'" font-size="16.913">A</tspan></text>
		<g>
			<path fill="#010101" d="M32.338,13.138h34.461c2.051,0,3.91,0.836,5.259,2.184c1.348,1.348,2.188,3.209,2.188,5.257v25.89
				c0,2.045-0.84,3.901-2.188,5.25c-1.352,1.352-3.214,2.195-5.259,2.195h-6.221v-4.999h6.221c0.677,0,1.289-0.269,1.728-0.71
				c0.442-0.444,0.72-1.06,0.72-1.736v-25.89c0-0.669-0.277-1.28-0.72-1.726c-0.446-0.444-1.058-0.72-1.728-0.72H32.338
				c-0.675,0-1.295,0.276-1.735,0.72c-0.441,0.439-0.715,1.05-0.715,1.726v25.89c0,0.67,0.277,1.282,0.725,1.728
				c0.441,0.441,1.053,0.718,1.726,0.718h8.289v4.999h-8.289c-2.051,0-3.914-0.836-5.26-2.188c-1.349-1.346-2.184-3.206-2.184-5.257
				v-25.89c0-2.042,0.839-3.903,2.192-5.257C28.434,13.974,30.293,13.138,32.338,13.138"/>
			<path fill="#EC2427" d="M43.835,49.347c0,0-3.455-2.796-2.798-7.319c0.657-4.527,3.208-7.49,1.155-11.438
				c0,0,4.853,5.428,5.59,7.817c0,0,0.167-2.633-0.41-4.116c-0.574-1.48-1.234-5.018,0.167-7.324
				c-0.89,4.109,5.099,8.06,6.004,12.587c0,0,2.882-0.739,1.893-9.625c0,0,8.313,8.394,2.55,18.677c0,0,0.083-2.55-0.247-3.62
				c0,0-2.384,6.914-6.169,9.707c2.094-6.134,0.281-6.529-0.824-11.271c0,0-1.777,5.844-1.893,10.124c0,0-3.414-1.896-4.526-8.56
				C43.852,46.488,43.738,47.833,43.835,49.347 M53.576,35.557c-2.48-5.171-6.547-7.449-3.817-14.594
				C50.018,27.098,55.369,28.264,53.576,35.557"/>
		</g>
		<text transform="matrix(1 0 0 1 30.1094 84.2422)" fill="#FFFFFF" font-family="'HelveticaNeueLTPro-Blk'" font-size="10.1478">70E</text>
		<path fill="none" stroke="#010101" d="M66.062,76.23"/>
		<g>
			<path fill="#FFCB0B" d="M56.946,88.262V72.978h16.089c0.891,0,1.613,0.725,1.613,1.615v12.056c0,0.889-0.723,1.613-1.613,1.613
				H56.946z"/>
		</g>
		<text transform="matrix(0 -1 1 0 62.7803 84.4951)"><tspan x="0" y="0" fill="#010101" font-family="'HelveticaNeueLTPro-BdCn'" font-size="5.0739">C</tspan><tspan x="2.639" y="0" fill="#010101" font-family="'HelveticaNeueLTPro-BdCn'" font-size="5.0739">A</tspan><tspan x="5.181" y="0" fill="#010101" font-family="'HelveticaNeueLTPro-BdCn'" font-size="5.0739">T</tspan></text>
		<text transform="matrix(1 0 0 1 64.083 85.5557)" fill="#010101" font-family="'HelveticaNeueLTPro-Blk'" font-size="13.5304">2</text>
	</g>
</g>
<g id="Layer_14" display="none">
	<g display="inline">
		<text transform="matrix(1 0 0 1 16.5522 75.5518)" fill="#010101" font-family="'HelveticaNeueLTPro-BdCn'" font-size="8.9265">EN ISO 11612:2015</text>
		<text transform="matrix(1 0 0 1 23.1313 86.2627)" fill="#010101" font-family="'HelveticaNeueLTPro-BdCn'" font-size="8.9265">A1 B1 C1 E2 F1</text>
		<g>
			<path fill="#010101" d="M47.335,54.54c0,0-7.577,0.163-8.063-6.449c-0.487-6.652-0.212-8.601-0.212-8.601
				s1.394,1.291,1.828,0.324c0,0,0.536-6.129,0.319-7.415c0,0,0.434-0.65,2.257,2.685c0,0,1.722-1.719,0.432-9.57
				c0,0,1.611-0.429,3.226,2.261c0,0,0.753,0.427,1.074-9.889c0,0,1.074,5.264,2.796,7.199c1.718,1.936,1.502,3.55,1.502,3.55
				s0.433,0,0.862-2.258c0,0,2.419,1.236,3.33,9.139c0,0,0.484-0.274,0.536-1.775c0.031-0.76,3.068,2.957,2.637,10.104
				c0,0,0.537,0.267,1.182-0.162c0,0,0,10.266-9.89,10.907c0,0,5.646-4.567,4.353-10.529c0,0-0.376,0.91-1.234,0.749
				c0,0,0.43-3.548-0.324-4.729c0,0-1.29,2.955-2.257,3.388c0,0,0.914-5.053-1.667-7.364c0,0-0.589,6.771-1.395,7.094
				c0,0-0.917-1.559-1.883-2.094c0,0-0.161,5.532,0.053,5.749c0,0-2.365-3.169-2.741-4.727c0,0-0.538,0.537-0.429,4.082
				c0,0-0.324,0-0.701-0.427c0,0-0.319,3.921,4.139,8.528L47.335,54.54z"/>
			<path fill="none" stroke="#010101" stroke-width="0.361" stroke-miterlimit="3.864" d="M42.5,55.186h13.545 M49.695,64.133
				c0,0-17.204-5.377-19.609-28.527l-0.165-22.938h39.566L69.32,35.606C66.917,58.756,49.695,64.133,49.695,64.133z"/>
		</g>
	</g>
</g>
<g id="Layer_15" display="none">
	<g display="inline">
		<text transform="matrix(1 0 0 1 16.3159 75.5322)" fill="#010101" font-family="'HelveticaNeueLTPro-BdCn'" font-size="8.941">EN ISO 11611:2015</text>
		<text transform="matrix(1 0 0 1 30.4253 86.2607)" fill="#010101" font-family="'HelveticaNeueLTPro-BdCn'" font-size="8.941">Class 1-A1</text>
		<rect x="36.082" y="43.868" fill="#010101" width="26.527" height="3.896"/>
		<g>
			<path fill="#010101" d="M38.676,41.42c0-0.714,0.58-1.3,1.3-1.3c0.715,0,1.295,0.585,1.295,1.3c0,0.716-0.58,1.297-1.295,1.297
				C39.256,42.717,38.676,42.136,38.676,41.42"/>
			<path fill="#010101" d="M53.67,41.42c0-0.714,0.583-1.3,1.301-1.3c0.714,0,1.294,0.585,1.294,1.3c0,0.716-0.58,1.297-1.294,1.297
				C54.253,42.717,53.67,42.136,53.67,41.42"/>
			<path fill="#010101" d="M40.555,37.969c0-0.714,0.583-1.295,1.301-1.295c0.715,0,1.293,0.582,1.293,1.295
				c0,0.716-0.579,1.301-1.293,1.301C41.138,39.27,40.555,38.685,40.555,37.969"/>
			<path fill="#010101" d="M44.159,36.097c0-0.718,0.583-1.3,1.3-1.3c0.715,0,1.295,0.582,1.295,1.3c0,0.716-0.58,1.297-1.295,1.297
				C44.743,37.395,44.159,36.813,44.159,36.097"/>
			<path fill="#010101" d="M51.801,37.826c0-0.714,0.583-1.3,1.302-1.3c0.714,0,1.293,0.585,1.293,1.3
				c0,0.716-0.579,1.297-1.293,1.297C52.384,39.124,51.801,38.542,51.801,37.826"/>
		</g>
		<path fill="none" stroke="#010101" stroke-width="0.645" stroke-miterlimit="3.864" d="M50.382,28.302l-0.511,9.516
			 M63.906,23.398H48.911v4.47h15.138h-9.513v-4.47"/>
		<g>
			<path fill="none" stroke="#010101" stroke-width="0.361" stroke-miterlimit="3.864" d="M49.521,64.094
				c0,0-17.24-5.382-19.648-28.573V12.545H69.18v22.976C66.771,58.708,49.521,64.094,49.521,64.094z"/>
		</g>
	</g>
</g>
<g id="Layer_16" display="none">
	<polyline display="inline" fill="none" stroke="#010101" stroke-width="0.73" stroke-miterlimit="3.864" points="49.262,19.768 
		42.099,38.246 56.803,29.948 49.64,49.18 37.948,49.18 61.706,49.18 	"/>
	<g display="inline">
		<path fill="#010101" d="M47.527,19.958c0-1.564,1.265-2.827,2.832-2.827c1.561,0,2.824,1.263,2.824,2.827
			c0,1.562-1.263,2.83-2.824,2.83C48.792,22.788,47.527,21.521,47.527,19.958"/>
		<path fill="none" stroke="#010101" stroke-width="0.216" stroke-miterlimit="3.864" d="M47.527,19.958
			c0-1.564,1.265-2.827,2.832-2.827c1.561,0,2.824,1.263,2.824,2.827c0,1.562-1.263,2.83-2.824,2.83
			C48.792,22.788,47.527,21.521,47.527,19.958z"/>
		<path fill="none" stroke="#010101" stroke-width="0.361" stroke-miterlimit="3.864" d="M49.819,64.432
			c0,0-17.432-5.446-19.864-28.898l-0.167-23.239h40.081l-0.17,23.239C67.268,58.985,49.819,64.432,49.819,64.432z"/>
	</g>
	
		<text transform="matrix(1 0 0 1 21.6836 75.9941)" display="inline" fill="#010101" font-family="'HelveticaNeueLTPro-BdCn'" font-size="9.0427">EN 1149-5:2018</text>
</g>
<g id="Layer_17" display="none">
	<g display="inline">
		<g>
			<path fill="#010101" d="M20.667,68.99v1.046h-2.261v1.49h2.128v1.046h-2.128v1.702h2.35v1.046H17.13v-6.33H20.667z"/>
			<path fill="#010101" d="M22.867,68.99l1.542,4.335h0.018V68.99h1.17v6.33h-1.454l-1.56-4.433h-0.018v4.433h-1.17v-6.33H22.867z"
				/>
			<path fill="#010101" d="M28.675,75.32v-6.33h1.276v6.33H28.675z"/>
			<path fill="#010101" d="M31.929,73.344v0.186c0,0.594,0.168,0.976,0.842,0.976c0.39,0,0.762-0.248,0.762-0.78
				c0-0.567-0.284-0.798-1.135-1.082c-1.135-0.381-1.658-0.868-1.658-1.914c0-1.241,0.745-1.862,1.959-1.862
				c1.135,0,1.959,0.487,1.959,1.702v0.178h-1.223c0-0.604-0.195-0.94-0.692-0.94c-0.576,0-0.727,0.355-0.727,0.736
				c0,0.39,0.116,0.639,0.656,0.859l0.984,0.426c0.958,0.426,1.206,0.896,1.206,1.676c0,1.339-0.816,1.941-2.199,1.941
				c-1.445,0-2.013-0.674-2.013-1.844v-0.257H31.929z"/>
			<path fill="#010101" d="M37.524,68.866c1.915,0,2.154,1.365,2.154,3.289s-0.239,3.289-2.154,3.289
				c-1.915,0-2.154-1.365-2.154-3.289S35.609,68.866,37.524,68.866z M37.524,74.505c0.754,0,0.878-0.647,0.878-2.35
				c0-1.693-0.124-2.35-0.878-2.35c-0.753,0-0.877,0.656-0.877,2.35C36.646,73.857,36.771,74.505,37.524,74.505z"/>
			<path fill="#010101" d="M43.731,75.32v-4.433h-1.25v-0.833h0.115c0.842,0,1.339-0.311,1.472-1.011h0.94v6.276H43.731z"/>
			<path fill="#010101" d="M47.987,75.32v-4.433h-1.25v-0.833h0.115c0.842,0,1.339-0.311,1.472-1.011h0.939v6.276H47.987z"/>
			<path fill="#010101" d="M53.387,70.64c0-0.488-0.15-0.763-0.576-0.763c-0.674,0-0.78,0.674-0.78,1.596v0.311h0.019
				c0.212-0.328,0.62-0.541,1.179-0.541c1.108,0,1.533,0.824,1.533,1.959c0,1.445-0.62,2.243-2.029,2.243
				c-1.756,0-1.978-1.4-1.978-2.935c0-1.772,0.035-3.466,2.11-3.466c0.904,0,1.72,0.39,1.746,1.596H53.387z M52.793,74.611
				c0.611,0,0.691-0.532,0.691-1.241c0-0.852-0.195-1.188-0.691-1.188c-0.505,0-0.7,0.337-0.7,1.188
				C52.093,74.088,52.199,74.611,52.793,74.611z"/>
			<path fill="#010101" d="M56.499,75.32v-4.433h-1.25v-0.833h0.115c0.843,0,1.339-0.311,1.472-1.011h0.939v6.276H56.499z"/>
			<path fill="#010101" d="M63.167,75.32h-3.865c0-1.117,0.452-1.889,1.384-2.748l0.514-0.479c0.567-0.497,0.656-0.798,0.656-1.437
				c0-0.523-0.204-0.78-0.621-0.78c-0.629,0-0.709,0.559-0.709,1.224h-1.224v-0.239c0-1.171,0.604-1.817,1.951-1.817
				c1.268,0,1.879,0.62,1.879,1.711c0,0.815-0.266,1.356-0.975,1.994l-0.71,0.656c-0.381,0.346-0.585,0.683-0.646,0.922h2.366V75.32
				z"/>
			<path fill="#010101" d="M63.877,70.701h1.171v1.383h-1.171V70.701z M63.877,73.938h1.171v1.383h-1.171V73.938z"/>
			<path fill="#010101" d="M69.551,75.32h-3.865c0-1.117,0.452-1.889,1.384-2.748l0.514-0.479c0.567-0.497,0.656-0.798,0.656-1.437
				c0-0.523-0.204-0.78-0.621-0.78c-0.629,0-0.709,0.559-0.709,1.224h-1.224v-0.239c0-1.171,0.604-1.817,1.951-1.817
				c1.268,0,1.879,0.62,1.879,1.711c0,0.815-0.266,1.356-0.975,1.994l-0.71,0.656c-0.381,0.346-0.585,0.683-0.646,0.922h2.366V75.32
				z"/>
			<path fill="#010101" d="M71.911,69.044c1.524,0,1.968,0.824,1.968,3.05c0,1.737-0.098,3.351-1.968,3.351
				c-1.525,0-1.969-0.824-1.969-3.05C69.942,70.657,70.04,69.044,71.911,69.044z M71.22,72.67c0,1.587,0.15,1.941,0.691,1.941
				c0.559,0,0.691-0.497,0.691-2.11v-0.683c0-1.587-0.15-1.941-0.691-1.941c-0.559,0-0.691,0.496-0.691,2.11V72.67z"/>
			<path fill="#010101" d="M75.652,75.32v-4.433h-1.25v-0.833h0.115c0.843,0,1.339-0.311,1.472-1.011h0.939v6.276H75.652z"/>
			<path fill="#010101" d="M82.063,70.161h-2.313l-0.133,1.427h0.018c0.239-0.328,0.611-0.47,1.152-0.47
				c1.206,0,1.533,1.011,1.533,2.004c0,1.383-0.407,2.322-2.012,2.322c-1.596,0-1.854-1.037-1.854-1.746v-0.169h1.224
				c0,0.417,0.071,1.028,0.621,1.028c0.522,0,0.744-0.407,0.744-1.224c0-1.037-0.168-1.329-0.735-1.329
				c-0.363,0-0.559,0.222-0.604,0.576h-1.144l0.23-3.413h3.271V70.161z"/>
		</g>
		<g>
			<path fill="#010101" d="M19.249,79.632h1.578l1.676,6.33h-1.33l-0.292-1.339h-1.684l-0.293,1.339h-1.33L19.249,79.632z
				 M19.417,83.577h1.241l-0.611-2.846h-0.018L19.417,83.577z"/>
			<path fill="#010101" d="M24.116,85.962v-4.433h-1.25v-0.833h0.115c0.842,0,1.339-0.311,1.472-1.011h0.94v6.276H24.116z"/>
			<path fill="#010101" d="M30.563,79.632h1.578l1.676,6.33h-1.33l-0.292-1.339H30.51l-0.293,1.339h-1.33L30.563,79.632z
				 M30.731,83.577h1.241l-0.611-2.846h-0.018L30.731,83.577z"/>
			<path fill="#010101" d="M37.842,85.962h-3.865c0-1.117,0.452-1.889,1.383-2.748l0.514-0.479c0.567-0.497,0.656-0.798,0.656-1.437
				c0-0.523-0.204-0.78-0.621-0.78c-0.629,0-0.709,0.559-0.709,1.224h-1.223v-0.239c0-1.171,0.603-1.817,1.95-1.817
				c1.268,0,1.879,0.62,1.879,1.711c0,0.815-0.266,1.356-0.975,1.994l-0.709,0.656c-0.381,0.346-0.585,0.683-0.647,0.922h2.367
				V85.962z"/>
			<path fill="#010101" d="M40.645,79.632h2.136c1.046,0,1.8,0.391,1.8,1.604c0,0.683-0.319,1.206-0.958,1.384v0.018
				c0.709,0.098,1.153,0.62,1.153,1.472c0,0.992-0.488,1.853-1.977,1.853h-2.154V79.632z M41.921,82.229h0.364
				c0.709,0,1.02-0.23,1.02-0.833c0-0.604-0.284-0.824-0.922-0.824h-0.461V82.229z M41.921,85.022h0.497
				c0.612,0,1.028-0.222,1.028-0.958c0-0.735-0.417-0.948-0.975-0.948h-0.55V85.022z"/>
			<path fill="#010101" d="M46.745,85.962v-4.433h-1.25v-0.833h0.115c0.842,0,1.339-0.311,1.472-1.011h0.94v6.276H46.745z"/>
			<path fill="#010101" d="M54.663,81.769c0-0.922-0.187-1.321-0.763-1.321c-0.639,0-0.798,0.639-0.798,2.438
				c0,1.915,0.266,2.261,0.815,2.261c0.452,0,0.798-0.23,0.798-1.604h1.276c0,1.374-0.337,2.544-2.012,2.544
				c-1.915,0-2.154-1.365-2.154-3.289s0.239-3.289,2.154-3.289c1.826,0,1.959,1.339,1.959,2.261H54.663z"/>
			<path fill="#010101" d="M57.891,85.962v-4.433h-1.25v-0.833h0.115c0.843,0,1.339-0.311,1.472-1.011h0.939v6.276H57.891z"/>
			<path fill="#010101" d="M66.642,79.632v1.046h-2.261v1.49h2.128v1.046h-2.128v1.702h2.35v1.046h-3.626v-6.33H66.642z"/>
			<path fill="#010101" d="M68.327,84.127c0.009,0.735,0.143,1.126,0.701,1.126c0.611,0,0.7-0.461,0.7-1.011
				c0-0.559-0.124-1.073-0.825-1.073h-0.425v-0.833h0.416c0.532,0,0.728-0.479,0.728-0.993c0-0.594-0.195-0.824-0.612-0.824
				c-0.549,0-0.646,0.426-0.646,1.02h-1.171c0-1.241,0.647-1.853,1.845-1.853c1.144,0,1.809,0.505,1.809,1.613
				c0,0.754-0.355,1.25-0.958,1.383v0.018c0.815,0.133,1.117,0.691,1.117,1.48c0,0.852-0.346,1.906-2.083,1.906
				c-1.215,0-1.817-0.727-1.817-1.933v-0.026H68.327z"/>
			<path fill="#010101" d="M73.754,79.632h3.537v1.046H75.03v1.49h2.128v1.046H75.03v2.748h-1.276V79.632z"/>
			<path fill="#010101" d="M79.029,85.962v-4.433h-1.25v-0.833h0.115c0.843,0,1.339-0.311,1.472-1.011h0.939v6.276H79.029z"/>
		</g>
		<g>
			<path fill="#010101" d="M47.267,54.449c0,0-7.526,0.16-8.007-6.407c-0.484-6.607-0.211-8.543-0.211-8.543
				s1.385,1.283,1.814,0.324c0,0,0.534-6.091,0.319-7.367c0,0,0.431-0.646,2.241,2.667c0,0,1.711-1.707,0.43-9.506
				c0,0,1.602-0.424,3.204,2.246c0,0,0.748,0.425,1.066-9.823c0,0,1.067,5.23,2.778,7.153c1.708,1.922,1.495,3.524,1.495,3.524
				s0.428,0,0.854-2.243c0,0,2.403,1.229,3.307,9.078c0,0,0.481-0.272,0.533-1.763c0.033-0.755,3.049,2.938,2.621,10.038
				c0,0,0.531,0.265,1.172-0.159c0,0,0,10.198-9.823,10.833c0,0,5.607-4.536,4.323-10.458c0,0-0.375,0.904-1.227,0.745
				c0,0,0.427-3.524-0.322-4.698c0,0-1.281,2.935-2.24,3.365c0,0,0.907-5.019-1.656-7.315c0,0-0.585,6.727-1.384,7.047
				c0,0-0.913-1.548-1.872-2.08c0,0-0.16,5.495,0.052,5.709c0,0-2.349-3.146-2.722-4.695c0,0-0.534,0.533-0.426,4.056
				c0,0-0.323,0-0.697-0.426c0,0-0.317,3.897,4.113,8.47L47.267,54.449z"/>
			<path fill="none" stroke="#010101" stroke-width="0.361" stroke-miterlimit="3.864" d="M42.463,55.09H55.92 M49.612,63.978
				c0,0-17.09-5.342-19.479-28.337L29.97,12.854h39.303L69.105,35.64C66.722,58.636,49.612,63.978,49.612,63.978z"/>
		</g>
	</g>
</g>
<g id="Layer_18" display="none">
	<g display="inline">
		<path fill="#010101" d="M17.071,75.016v-6.297h1.27v6.297H17.071z"/>
		<path fill="#010101" d="M22.804,68.719v1.04h-2.249v1.482h2.117v1.04h-2.117v1.693h2.337v1.041h-3.607v-6.297H22.804z"/>
		<path fill="#010101" d="M26.219,70.844c0-0.917-0.185-1.313-0.758-1.313c-0.635,0-0.794,0.635-0.794,2.425
			c0,1.905,0.265,2.249,0.812,2.249c0.45,0,0.794-0.229,0.794-1.597h1.27c0,1.367-0.335,2.531-2.002,2.531
			c-1.905,0-2.143-1.357-2.143-3.271s0.238-3.272,2.143-3.272c1.817,0,1.949,1.332,1.949,2.249H26.219z"/>
		<path fill="#010101" d="M32.687,70.359c0-0.485-0.15-0.759-0.573-0.759c-0.67,0-0.776,0.67-0.776,1.587v0.31h0.018
			c0.212-0.327,0.617-0.538,1.173-0.538c1.103,0,1.526,0.82,1.526,1.949c0,1.438-0.617,2.23-2.02,2.23
			c-1.747,0-1.967-1.393-1.967-2.919c0-1.764,0.035-3.448,2.099-3.448c0.899,0,1.711,0.388,1.737,1.588H32.687z M32.096,74.311
			c0.609,0,0.688-0.529,0.688-1.235c0-0.847-0.194-1.182-0.688-1.182c-0.502,0-0.697,0.335-0.697,1.182
			C31.399,73.79,31.505,74.311,32.096,74.311z"/>
		<path fill="#010101" d="M35.784,75.016v-4.41h-1.243v-0.829h0.114c0.838,0,1.332-0.309,1.464-1.005h0.935v6.244H35.784z"/>
		<path fill="#010101" d="M38.538,72.679l2.073-3.907h1.314v3.96h0.6v0.987h-0.6v1.297h-1.164v-1.297h-2.223V72.679z M40.761,70.359
			h-0.018l-1.217,2.372h1.235V70.359z"/>
		<path fill="#010101" d="M43.832,71.708V71.69c-0.679-0.167-0.899-0.758-0.899-1.199c0-1.226,0.697-1.72,1.834-1.72
			s1.834,0.494,1.834,1.72c0,0.441-0.238,1.032-0.899,1.199v0.018c0.706,0.142,1.058,0.759,1.058,1.544
			c0,0.714-0.256,1.887-1.993,1.887s-1.993-1.173-1.993-1.887C42.773,72.467,43.126,71.85,43.832,71.708z M44.767,74.311
			c0.573,0,0.723-0.477,0.723-1.076s-0.15-1.076-0.723-1.076s-0.723,0.477-0.723,1.076S44.193,74.311,44.767,74.311z M44.767,71.329
			c0.379,0,0.617-0.282,0.617-0.873c0-0.573-0.203-0.855-0.617-0.855s-0.617,0.282-0.617,0.855
			C44.149,71.047,44.387,71.329,44.767,71.329z"/>
		<path fill="#010101" d="M50.889,75.016h-3.845c0-1.111,0.45-1.879,1.376-2.734l0.512-0.476c0.564-0.494,0.652-0.794,0.652-1.429
			c0-0.521-0.203-0.776-0.617-0.776c-0.626,0-0.706,0.556-0.706,1.217h-1.217v-0.238c0-1.164,0.6-1.808,1.94-1.808
			c1.261,0,1.87,0.617,1.87,1.702c0,0.812-0.265,1.35-0.97,1.984l-0.706,0.652c-0.379,0.344-0.582,0.68-0.644,0.917h2.354V75.016z"
			/>
		<path fill="#010101" d="M53.996,71.946v1.041h-2.487v-1.041H53.996z"/>
		<path fill="#010101" d="M55.991,75.016v-4.41h-1.244v-0.829h0.115c0.838,0,1.331-0.309,1.464-1.005h0.935v6.244H55.991z"/>
		<path fill="#010101" d="M61.496,71.946v1.041h-2.487v-1.041H61.496z"/>
		<path fill="#010101" d="M63.491,75.016v-4.41h-1.244v-0.829h0.115c0.838,0,1.331-0.309,1.464-1.005h0.935v6.244H63.491z"/>
		<path fill="#010101" d="M66.598,70.421h1.164v1.376h-1.164V70.421z M66.598,73.64h1.164v1.376h-1.164V73.64z"/>
		<path fill="#010101" d="M72.242,75.016h-3.845c0-1.111,0.449-1.879,1.375-2.734l0.512-0.476c0.564-0.494,0.653-0.794,0.653-1.429
			c0-0.521-0.203-0.776-0.618-0.776c-0.626,0-0.705,0.556-0.705,1.217h-1.217v-0.238c0-1.164,0.6-1.808,1.939-1.808
			c1.262,0,1.87,0.617,1.87,1.702c0,0.812-0.265,1.35-0.97,1.984l-0.706,0.652c-0.379,0.344-0.582,0.68-0.644,0.917h2.354V75.016z"
			/>
		<path fill="#010101" d="M74.59,68.771c1.518,0,1.958,0.82,1.958,3.034c0,1.729-0.097,3.333-1.958,3.333
			c-1.517,0-1.957-0.819-1.957-3.033C72.633,70.377,72.729,68.771,74.59,68.771z M73.902,72.379c0,1.578,0.15,1.932,0.688,1.932
			c0.556,0,0.688-0.494,0.688-2.1v-0.679c0-1.579-0.15-1.932-0.688-1.932c-0.555,0-0.688,0.494-0.688,2.099V72.379z"/>
		<path fill="#010101" d="M78.314,75.016v-4.41H77.07v-0.829h0.115c0.838,0,1.331-0.309,1.464-1.005h0.935v6.244H78.314z"/>
		<path fill="#010101" d="M82.435,73.561c0,0.467,0.15,0.75,0.573,0.75c0.671,0,0.776-0.671,0.776-1.588v-0.3h-0.018
			c-0.212,0.317-0.617,0.529-1.173,0.529c-1.103,0-1.526-0.82-1.526-1.949c0-1.438,0.618-2.231,2.021-2.231
			c1.737,0,1.967,1.394,1.967,2.919c0,1.772-0.045,3.448-2.1,3.448c-0.899,0-1.711-0.379-1.737-1.578H82.435z M83.025,72.017
			c0.503,0,0.697-0.335,0.697-1.182c0-0.714-0.106-1.234-0.697-1.234c-0.608,0-0.688,0.529-0.688,1.234
			C82.338,71.682,82.532,72.017,83.025,72.017z"/>
	</g>
	<g display="inline">
		<path fill="none" stroke="#010101" stroke-width="0.361" stroke-miterlimit="3.864" d="M49.804,63.729
			c0,0-17.006-5.317-19.383-28.2l-0.163-22.674h39.109l-0.165,22.674C66.826,58.411,49.804,63.729,49.804,63.729z"/>
	</g>
	<polygon display="inline" fill="#010101" points="38.908,33.503 44.459,18.09 39.699,18.09 35.442,37.109 44.199,31.883 
		42.29,46.454 40.718,45.462 42.167,51.428 45.428,46.229 43.646,46.667 47.546,28.292 	"/>
	<polygon display="inline" fill="#010101" points="63.453,39.07 58.6,35.615 58.6,34.696 60.768,33.776 58.672,33.042 
		58.672,31.939 66.172,26.35 57.164,26.35 59.003,21.681 54.96,23.849 56.283,19.987 50.989,23.262 51.023,25.614 54.003,25.614 
		54.332,26.644 53.009,28.885 56.355,28.85 56.687,30.026 53.782,32.049 55.215,32.855 55.511,33.738 54.445,34.438 55.363,34.879 
		55.548,35.944 53.047,35.761 54.224,40.061 50.952,38.115 50.803,42.012 52.092,44.547 52.274,40.652 58.965,47.855 56.411,40.559 
		56.943,40.026 58.856,40.873 57.642,38.923 57.642,37.821 	"/>
</g>
<g id="Layer_19" display="none">
	<g display="inline">
		<path fill="#010101" d="M8.539,69.053v1.048H6.274v1.492h2.131v1.048H6.274v1.705h2.354v1.048H4.996v-6.341H8.539z"/>
		<path fill="#010101" d="M10.74,69.053l1.545,4.343h0.018v-4.343h1.172v6.341h-1.457l-1.563-4.44h-0.018v4.44H9.266v-6.341H10.74z"
			/>
		<path fill="#010101" d="M17.665,75.394v-4.44h-1.252v-0.835h0.115c0.844,0,1.341-0.311,1.474-1.012h0.941v6.287H17.665z"/>
		<path fill="#010101" d="M20.434,73.04l2.087-3.934h1.323v3.987h0.604v0.994h-0.604v1.306h-1.172v-1.306h-2.238V73.04z
			 M22.672,70.705h-0.018l-1.226,2.389h1.243V70.705z"/>
		<path fill="#010101" d="M24.695,73.04l2.087-3.934h1.323v3.987h0.604v0.994h-0.604v1.306h-1.172v-1.306h-2.238V73.04z
			 M26.933,70.705h-0.018l-1.225,2.389h1.243V70.705z"/>
		<path fill="#010101" d="M30.963,69.106c1.527,0,1.972,0.825,1.972,3.055c0,1.74-0.098,3.356-1.972,3.356
			c-1.527,0-1.972-0.825-1.972-3.055C28.992,70.723,29.089,69.106,30.963,69.106z M30.271,72.738c0,1.59,0.151,1.945,0.693,1.945
			c0.56,0,0.693-0.498,0.693-2.114v-0.684c0-1.59-0.151-1.945-0.693-1.945c-0.56,0-0.693,0.498-0.693,2.114V72.738z"/>
		<path fill="#010101" d="M33.218,73.04l2.087-3.934h1.323v3.987h0.604v0.994h-0.604v1.306h-1.172v-1.306h-2.238V73.04z
			 M35.456,70.705h-0.018l-1.225,2.389h1.243V70.705z"/>
		<path fill="#010101" d="M37.834,70.767h1.172v1.386h-1.172V70.767z M37.834,74.008h1.172v1.386h-1.172V74.008z"/>
		<path fill="#010101" d="M43.517,75.394h-3.872c0-1.119,0.453-1.892,1.386-2.753l0.515-0.479c0.568-0.497,0.657-0.8,0.657-1.438
			c0-0.524-0.204-0.782-0.622-0.782c-0.63,0-0.71,0.56-0.71,1.226h-1.226v-0.239c0-1.173,0.604-1.82,1.954-1.82
			c1.27,0,1.882,0.621,1.882,1.714c0,0.816-0.266,1.358-0.977,1.998l-0.71,0.657c-0.382,0.346-0.586,0.684-0.648,0.923h2.371V75.394
			z"/>
		<path fill="#010101" d="M45.878,69.106c1.527,0,1.972,0.825,1.972,3.055c0,1.74-0.098,3.356-1.972,3.356
			c-1.527,0-1.972-0.825-1.972-3.055C43.906,70.723,44.004,69.106,45.878,69.106z M45.185,72.738c0,1.59,0.151,1.945,0.693,1.945
			c0.56,0,0.693-0.498,0.693-2.114v-0.684c0-1.59-0.151-1.945-0.693-1.945c-0.56,0-0.693,0.498-0.693,2.114V72.738z"/>
		<path fill="#010101" d="M50.139,69.106c1.528,0,1.972,0.825,1.972,3.055c0,1.74-0.098,3.356-1.972,3.356
			c-1.527,0-1.971-0.825-1.971-3.055C48.167,70.723,48.265,69.106,50.139,69.106z M49.446,72.738c0,1.59,0.151,1.945,0.692,1.945
			c0.56,0,0.693-0.498,0.693-2.114v-0.684c0-1.59-0.151-1.945-0.693-1.945c-0.559,0-0.692,0.498-0.692,2.114V72.738z"/>
		<path fill="#010101" d="M52.394,73.04l2.087-3.934h1.323v3.987h0.604v0.994h-0.604v1.306h-1.172v-1.306h-2.238V73.04z
			 M54.632,70.705h-0.018l-1.226,2.389h1.243V70.705z"/>
		<path fill="#010101" d="M60.774,73.697h-1.696v-1.102h1.696V70.9h1.102v1.695h1.696v1.102h-1.696v1.696h-1.102V73.697z"/>
		<path fill="#010101" d="M67.797,69.053h1.58l1.679,6.341h-1.332l-0.293-1.341h-1.688l-0.293,1.341h-1.332L67.797,69.053z
			 M67.965,73.005h1.244l-0.613-2.851h-0.018L67.965,73.005z"/>
		<path fill="#010101" d="M72.67,75.394v-4.44h-1.252v-0.835h0.115c0.844,0,1.341-0.311,1.475-1.012h0.941v6.287H72.67z"/>
		<path fill="#010101" d="M75.795,70.767h1.172v1.386h-1.172V70.767z M75.795,74.008h1.172v1.386h-1.172V74.008z"/>
		<path fill="#010101" d="M81.479,75.394h-3.872c0-1.119,0.452-1.892,1.385-2.753l0.516-0.479c0.568-0.497,0.657-0.8,0.657-1.438
			c0-0.524-0.204-0.782-0.622-0.782c-0.631,0-0.71,0.56-0.71,1.226h-1.226v-0.239c0-1.173,0.604-1.82,1.953-1.82
			c1.271,0,1.883,0.621,1.883,1.714c0,0.816-0.267,1.358-0.977,1.998l-0.711,0.657c-0.382,0.346-0.586,0.684-0.647,0.923h2.371
			V75.394z"/>
		<path fill="#010101" d="M83.838,69.106c1.528,0,1.972,0.825,1.972,3.055c0,1.74-0.098,3.356-1.972,3.356
			c-1.527,0-1.971-0.825-1.971-3.055C81.867,70.723,81.965,69.106,83.838,69.106z M83.146,72.738c0,1.59,0.151,1.945,0.692,1.945
			c0.56,0,0.693-0.498,0.693-2.114v-0.684c0-1.59-0.151-1.945-0.693-1.945c-0.559,0-0.692,0.498-0.692,2.114V72.738z"/>
		<path fill="#010101" d="M87.585,75.394v-4.44h-1.252v-0.835h0.115c0.844,0,1.341-0.311,1.475-1.012h0.941v6.287H87.585z"/>
		<path fill="#010101" d="M92.361,69.106c1.527,0,1.971,0.825,1.971,3.055c0,1.74-0.098,3.356-1.971,3.356
			c-1.528,0-1.972-0.825-1.972-3.055C90.39,70.723,90.487,69.106,92.361,69.106z M91.668,72.738c0,1.59,0.151,1.945,0.693,1.945
			c0.559,0,0.692-0.498,0.692-2.114v-0.684c0-1.59-0.151-1.945-0.692-1.945c-0.56,0-0.693,0.498-0.693,2.114V72.738z"/>
	</g>
	<g display="inline">
		<path fill="#010101" d="M26.26,79.705v1.048h-1.386v5.293h-1.278v-5.293H22.21v-1.048H26.26z"/>
		<path fill="#010101" d="M26.285,86.694c0.106,0.018,0.213,0.026,0.319,0.026c0.453,0,0.622-0.248,0.657-0.675l-1.341-4.777H27.2
			l0.71,3.303h0.018l0.622-3.303h1.226l-1.154,4.458c-0.426,1.651-0.702,1.883-1.838,1.883h-0.497V86.694z"/>
		<path fill="#010101" d="M30.227,81.269h1.172v0.506h0.018c0.275-0.453,0.595-0.631,1.083-0.631c1.003,0,1.465,0.737,1.465,2.514
			S33.504,86.17,32.5,86.17c-0.462,0-0.773-0.187-1.03-0.568h-0.018v2.008h-1.225V81.269z M32.101,85.229
			c0.533,0,0.64-0.532,0.64-1.571s-0.107-1.572-0.64-1.572c-0.542,0-0.648,0.533-0.648,1.572S31.559,85.229,32.101,85.229z"/>
		<path fill="#010101" d="M35.713,83.844v0.382c0,0.568,0.151,1.11,0.604,1.11c0.417,0,0.577-0.294,0.648-0.897h1.101
			c-0.044,1.11-0.559,1.731-1.731,1.731c-1.776,0-1.847-1.367-1.847-2.558c0-1.278,0.249-2.469,1.9-2.469
			c1.43,0,1.75,0.959,1.75,2.425v0.275H35.713z M36.965,83.115c-0.026-0.729-0.115-1.137-0.622-1.137c-0.488,0-0.63,0.497-0.63,0.95
			v0.187H36.965z"/>
		<path fill="#010101" d="M44.53,86.046h-3.872c0-1.119,0.453-1.892,1.386-2.753l0.515-0.479c0.568-0.497,0.657-0.8,0.657-1.438
			c0-0.524-0.204-0.782-0.622-0.782c-0.63,0-0.71,0.56-0.71,1.226h-1.226v-0.239c0-1.173,0.604-1.82,1.954-1.82
			c1.27,0,1.882,0.621,1.882,1.714c0,0.816-0.266,1.358-0.977,1.998l-0.71,0.657c-0.382,0.346-0.586,0.684-0.648,0.923h2.371V86.046
			z"/>
		<path fill="#010101" d="M49.519,79.705c-0.737,1.358-1.013,2.478-1.013,3.987s0.275,2.629,1.013,3.987h-0.941
			c-0.879-1.394-1.244-2.735-1.244-3.987s0.364-2.593,1.244-3.987H49.519z"/>
		<path fill="#010101" d="M49.961,86.046v-6.341h1.279v5.293h2.265v1.048H49.961z"/>
		<path fill="#010101" d="M55.084,83.844v0.382c0,0.568,0.151,1.11,0.604,1.11c0.417,0,0.577-0.294,0.648-0.897h1.101
			c-0.044,1.11-0.56,1.731-1.731,1.731c-1.776,0-1.848-1.367-1.848-2.558c0-1.278,0.249-2.469,1.901-2.469
			c1.43,0,1.749,0.959,1.749,2.425v0.275H55.084z M56.337,83.115c-0.027-0.729-0.116-1.137-0.622-1.137
			c-0.488,0-0.631,0.497-0.631,0.95v0.187H56.337z"/>
		<path fill="#010101" d="M60.411,81.269h1.226l-1.199,4.777h-1.42l-1.235-4.777h1.279l0.684,3.419h0.018L60.411,81.269z"/>
		<path fill="#010101" d="M63.136,83.844v0.382c0,0.568,0.151,1.11,0.604,1.11c0.417,0,0.577-0.294,0.648-0.897h1.101
			c-0.044,1.11-0.56,1.731-1.731,1.731c-1.776,0-1.848-1.367-1.848-2.558c0-1.278,0.249-2.469,1.9-2.469
			c1.431,0,1.75,0.959,1.75,2.425v0.275H63.136z M64.389,83.115c-0.027-0.729-0.116-1.137-0.622-1.137
			c-0.488,0-0.631,0.497-0.631,0.95v0.187H64.389z"/>
		<path fill="#010101" d="M66.243,79.705h1.226v6.341h-1.226V79.705z"/>
		<path fill="#010101" d="M72.184,79.759c1.527,0,1.971,0.825,1.971,3.055c0,1.74-0.098,3.356-1.971,3.356
			c-1.528,0-1.972-0.825-1.972-3.055C70.212,81.375,70.31,79.759,72.184,79.759z M71.49,83.391c0,1.59,0.151,1.945,0.693,1.945
			c0.559,0,0.692-0.498,0.692-2.114v-0.684c0-1.59-0.151-1.945-0.692-1.945c-0.56,0-0.693,0.498-0.693,2.114V83.391z"/>
		<path fill="#010101" d="M75.254,79.705c0.879,1.395,1.243,2.735,1.243,3.987s-0.364,2.594-1.243,3.987h-0.941
			c0.737-1.358,1.013-2.478,1.013-3.987s-0.275-2.629-1.013-3.987H75.254z"/>
	</g>
	<g display="inline">
		<path fill="none" stroke="#010101" stroke-width="0.361" stroke-miterlimit="3.864" d="M49.511,64.041
			c0,0-17.111-5.351-19.502-28.373l-0.164-22.814h39.35l-0.168,22.814C66.64,58.69,49.511,64.041,49.511,64.041z"/>
		<path fill="#010101" d="M51.064,23.058h-4.098c-0.564,0-1.528,0.113-1.528,1.475v5.289h-5.89v12.005h11.516V23.058z
			 M49.457,24.666v15.553h-8.301v-8.792h4.283c0.427,0,0.836-0.17,1.137-0.472c0.301-0.301,0.471-0.709,0.471-1.135v-5.155H49.457z"
			/>
	</g>
	<rect x="50.723" y="32.467" display="inline" fill="#010101" width="14.801" height="1.581"/>
	<rect x="50.723" y="36.48" display="inline" fill="#010101" width="14.801" height="1.582"/>
	<rect x="35.325" y="44.97" display="inline" fill="#010101" width="20.223" height="3.214"/>
</g>
<g id="Layer_20" display="none">
	<g display="inline">
		<g>
			<path fill="#010101" d="M18.598,73.274h-7.999c-1.979,0-3.778-0.808-5.08-2.111c-1.298-1.301-2.107-3.096-2.107-5.076V29.429
				c0-1.972,0.812-3.771,2.118-5.075c1.301-1.302,3.096-2.109,5.07-2.109h79.873c1.979,0,3.774,0.807,5.077,2.109
				c1.299,1.3,2.111,3.098,2.111,5.075v36.658c0,1.975-0.813,3.767-2.111,5.066c-1.305,1.308-3.103,2.121-5.077,2.121H56.897H18.598
				z"/>
			<path fill="#FFCB0B" d="M4.569,36.012V29.43c0-1.598,0.627-3.106,1.771-4.249c1.145-1.15,2.66-1.782,4.258-1.782h79.873
				c1.606,0,3.122,0.629,4.261,1.771c1.143,1.144,1.771,2.656,1.771,4.261v6.582H4.569z"/>
		</g>
		<rect x="23.951" y="26.337" fill="#FFCB0B" width="25.515" height="7.012"/>
		<g>
			<path fill="#FFCB0B" d="M10.599,72.117c-1.606,0-3.118-0.633-4.26-1.773c-1.141-1.145-1.77-2.656-1.77-4.259v-6.582h91.934v6.582
				c0,1.596-0.628,3.104-1.772,4.246c-1.147,1.151-2.659,1.786-4.259,1.786H10.599z"/>
		</g>
		<g>
			<path fill="#010101" d="M18.103,26.151h1.03l2.737,7.005h-1.03l-0.766-2.109h-2.963l-0.785,2.109h-0.962L18.103,26.151z
				 M17.406,30.262h2.375l-1.168-3.267h-0.02L17.406,30.262z"/>
			<path fill="#010101" d="M24.146,26.937h-2.335v-0.785h5.603v0.785h-2.335v6.22h-0.932V26.937z"/>
			<path fill="#010101" d="M28.189,26.151h3.071c1.403,0,2.148,0.765,2.148,2.07c0,1.305-0.746,2.08-2.148,2.07h-2.139v2.865h-0.932
				V26.151z M29.121,29.507h1.825c1.06,0.01,1.53-0.451,1.53-1.285s-0.471-1.285-1.53-1.285h-1.825V29.507z"/>
			<path fill="#010101" d="M37.305,33.157h-1.06l-2.473-7.005h1.011l2.001,6.073h0.02l2.021-6.073h0.971L37.305,33.157z"/>
		</g>
		<g>
			<path fill="#010101" d="M12.353,83.735V76.73h1.413v7.005H12.353z"/>
			<path fill="#010101" d="M18.73,76.73v1.157h-2.502v1.648h2.355v1.157h-2.355v1.884h2.6v1.158h-4.013V76.73H18.73z"/>
			<path fill="#010101" d="M22.527,79.095c0-1.021-0.206-1.462-0.844-1.462c-0.707,0-0.883,0.706-0.883,2.698
				c0,2.119,0.294,2.502,0.902,2.502c0.5,0,0.883-0.256,0.883-1.776h1.413c0,1.521-0.373,2.816-2.227,2.816
				c-2.119,0-2.384-1.512-2.384-3.641s0.265-3.64,2.384-3.64c2.021,0,2.168,1.481,2.168,2.502H22.527z"/>
			<path fill="#010101" d="M29.719,78.555c0-0.539-0.167-0.844-0.638-0.844c-0.746,0-0.863,0.746-0.863,1.767v0.343h0.02
				c0.235-0.362,0.687-0.599,1.305-0.599c1.227,0,1.698,0.913,1.698,2.169c0,1.599-0.687,2.482-2.247,2.482
				c-1.942,0-2.188-1.551-2.188-3.248c0-1.962,0.04-3.836,2.335-3.836c1,0,1.903,0.432,1.933,1.766H29.719z M29.062,82.95
				c0.677,0,0.765-0.589,0.765-1.373c0-0.942-0.216-1.315-0.765-1.315c-0.559,0-0.775,0.373-0.775,1.315
				C28.287,82.371,28.405,82.95,29.062,82.95z"/>
			<path fill="#010101" d="M33.163,83.735V78.83H31.78v-0.923h0.127c0.932,0,1.481-0.343,1.629-1.118h1.04v6.946H33.163z"/>
			<path fill="#010101" d="M36.225,81.136l2.306-4.347h1.462v4.405h0.667v1.099h-0.667v1.442h-1.295v-1.442h-2.473V81.136z
				 M38.697,78.555h-0.02l-1.354,2.64h1.374V78.555z"/>
			<path fill="#010101" d="M42.112,80.056v-0.02c-0.756-0.187-1.001-0.844-1.001-1.334c0-1.364,0.775-1.913,2.041-1.913
				c1.266,0,2.041,0.549,2.041,1.913c0,0.49-0.265,1.147-1.001,1.334v0.02c0.785,0.157,1.178,0.844,1.178,1.718
				c0,0.794-0.285,2.1-2.218,2.1c-1.933,0-2.217-1.306-2.217-2.1C40.934,80.899,41.327,80.213,42.112,80.056z M43.151,82.95
				c0.638,0,0.805-0.529,0.805-1.196c0-0.668-0.167-1.197-0.805-1.197c-0.638,0-0.804,0.529-0.804,1.197
				C42.347,82.421,42.514,82.95,43.151,82.95z M43.151,79.634c0.422,0,0.687-0.313,0.687-0.971c0-0.638-0.226-0.952-0.687-0.952
				c-0.461,0-0.687,0.314-0.687,0.952C42.465,79.32,42.729,79.634,43.151,79.634z"/>
			<path fill="#010101" d="M49.961,83.735h-4.278c0-1.236,0.5-2.09,1.53-3.042l0.569-0.529c0.628-0.55,0.726-0.883,0.726-1.59
				c0-0.578-0.226-0.863-0.687-0.863c-0.697,0-0.785,0.618-0.785,1.354h-1.354V78.8c0-1.295,0.667-2.011,2.158-2.011
				c1.403,0,2.08,0.687,2.08,1.894c0,0.902-0.294,1.501-1.079,2.207l-0.785,0.727c-0.422,0.383-0.647,0.755-0.716,1.021h2.62V83.735
				z"/>
			<path fill="#010101" d="M53.415,80.321v1.157h-2.767v-1.157H53.415z"/>
			<path fill="#010101" d="M55.633,83.735V78.83h-1.384v-0.923h0.128c0.932,0,1.481-0.343,1.628-1.118h1.04v6.946H55.633z"/>
			<path fill="#010101" d="M61.755,80.321v1.157h-2.767v-1.157H61.755z"/>
			<path fill="#010101" d="M63.973,83.735V78.83h-1.384v-0.923h0.128c0.932,0,1.481-0.343,1.628-1.118h1.04v6.946H63.973z"/>
			<path fill="#010101" d="M67.427,78.624h1.295v1.53h-1.295V78.624z M67.427,82.205h1.295v1.53h-1.295V82.205z"/>
			<path fill="#010101" d="M73.705,83.735h-4.277c0-1.236,0.5-2.09,1.53-3.042l0.569-0.529c0.628-0.55,0.726-0.883,0.726-1.59
				c0-0.578-0.226-0.863-0.687-0.863c-0.696,0-0.785,0.618-0.785,1.354h-1.354V78.8c0-1.295,0.667-2.011,2.158-2.011
				c1.403,0,2.08,0.687,2.08,1.894c0,0.902-0.294,1.501-1.079,2.207l-0.785,0.727c-0.422,0.383-0.647,0.755-0.716,1.021h2.619
				V83.735z"/>
			<path fill="#010101" d="M76.315,76.789c1.688,0,2.179,0.912,2.179,3.375c0,1.923-0.108,3.709-2.179,3.709
				c-1.688,0-2.178-0.913-2.178-3.375C74.138,78.574,74.245,76.789,76.315,76.789z M75.551,80.802c0,1.756,0.166,2.148,0.765,2.148
				c0.618,0,0.766-0.549,0.766-2.335v-0.756c0-1.756-0.167-2.148-0.766-2.148c-0.618,0-0.765,0.55-0.765,2.335V80.802z"/>
			<path fill="#010101" d="M80.456,83.735V78.83h-1.384v-0.923H79.2c0.932,0,1.481-0.343,1.628-1.118h1.04v6.946H80.456z"/>
			<path fill="#010101" d="M85.038,82.116c0,0.521,0.167,0.834,0.638,0.834c0.746,0,0.863-0.745,0.863-1.766v-0.334h-0.02
				c-0.235,0.354-0.687,0.589-1.305,0.589c-1.227,0-1.697-0.912-1.697-2.168c0-1.6,0.687-2.482,2.246-2.482
				c1.934,0,2.188,1.55,2.188,3.247c0,1.973-0.049,3.837-2.335,3.837c-1.001,0-1.903-0.422-1.934-1.757H85.038z M85.695,80.399
				c0.56,0,0.775-0.373,0.775-1.314c0-0.795-0.118-1.374-0.775-1.374c-0.677,0-0.766,0.589-0.766,1.374
				C84.93,80.026,85.146,80.399,85.695,80.399z"/>
		</g>
		<g>
			<path fill="#010101" d="M62.825,26.151h4.837v0.785h-3.905v2.227h3.64v0.785h-3.64v2.424h3.935v0.785h-4.866V26.151z"/>
			<path fill="#010101" d="M68.82,26.151h0.932v6.221h3.709v0.785H68.82V26.151z"/>
			<path fill="#010101" d="M74.314,26.151h0.932v7.005h-0.932V26.151z"/>
			<path fill="#010101" d="M76.836,26.151h1.275l2.207,5.887l2.218-5.887h1.275v7.005h-0.883v-5.828h-0.02l-2.188,5.828h-0.794
				l-2.188-5.828h-0.02v5.828h-0.883V26.151z"/>
		</g>
		<g>
			<path fill="#FFFFFF" d="M66.1,44.624c-0.098-0.292-0.273-0.526-0.565-0.741c-0.253-0.156-0.604-0.234-1.053-0.234
				c-1.48,0-2.201,1.442-2.357,2.787c0.916-0.838,1.891-1.052,3.138-1.052c2.61,0,4.54,1.676,4.54,4.326
				c0,3.333-2.358,5.008-5.573,5.008c-4.131,0-5.787-3.099-5.787-6.45c0-4.287,1.968-7.424,6.118-7.424
				c2.942,0,4.657,1.111,5.105,3.78H66.1z M62.378,49.768c0,1.091,0.76,1.871,1.851,1.871c1.169,0,1.987-0.838,1.987-1.871
				c0-0.955-0.76-1.792-1.987-1.792C63.157,47.976,62.378,48.755,62.378,49.768z"/>
			<path fill="#FFFFFF" d="M71.85,50.704h4.053v3.858H71.85V50.704z"/>
			<path fill="#FFFFFF" d="M82.568,46.748h-3.176v-2.806C81.341,44,83.328,43.24,83.426,41h3.195v13.562h-4.053V46.748z"/>
		</g>
		<line fill="none" stroke="#010101" stroke-miterlimit="10" x1="50.534" y1="22.245" x2="50.534" y2="37.523"/>
		<line fill="none" stroke="#FFCB0B" stroke-miterlimit="10" x1="50.534" y1="63.395" x2="50.534" y2="35.999"/>
		<g>
			<path fill="#010101" d="M35.739,64.359c-0.206-0.991-0.981-1.492-1.962-1.492c-1.668,0-2.375,1.374-2.375,2.836
				c0,1.6,0.707,2.934,2.384,2.934c1.216,0,1.942-0.863,2.021-2.021h0.932c-0.187,1.757-1.256,2.807-3.032,2.807
				c-2.168,0-3.238-1.609-3.238-3.65c0-2.04,1.158-3.688,3.316-3.688c1.462,0,2.678,0.784,2.884,2.276H35.739z"/>
			<path fill="#010101" d="M39.801,62.25h1.03l2.737,7.005h-1.03l-0.766-2.109H38.81l-0.785,2.109h-0.962L39.801,62.25z
				 M39.104,66.36h2.375l-1.168-3.267h-0.02L39.104,66.36z"/>
			<path fill="#010101" d="M44.255,62.25h0.932v6.22h3.709v0.785h-4.641V62.25z"/>
			<path fill="#010101" d="M51.674,62.083h0.716l-2.904,7.339h-0.716L51.674,62.083z"/>
			<path fill="#010101" d="M57.903,64.359c-0.206-0.991-0.981-1.492-1.962-1.492c-1.668,0-2.375,1.374-2.375,2.836
				c0,1.6,0.707,2.934,2.385,2.934c1.217,0,1.942-0.863,2.021-2.021h0.932c-0.187,1.757-1.256,2.807-3.032,2.807
				c-2.168,0-3.237-1.609-3.237-3.65c0-2.04,1.158-3.688,3.316-3.688c1.462,0,2.679,0.784,2.885,2.276H57.903z"/>
			<path fill="#010101" d="M60.082,62.25h1.275l2.207,5.887l2.218-5.887h1.275v7.005h-0.883v-5.828h-0.02l-2.188,5.828h-0.794
				l-2.188-5.828h-0.02v5.828h-0.883V62.25z"/>
		</g>
		<g>
			<path fill="#010101" d="M68.095,63.367c-0.046-0.823,0.446-1.436,1.305-1.436c0.703,0,1.271,0.412,1.271,1.167
				c0,0.715-0.481,1.07-0.984,1.391c-0.504,0.303-1.048,0.572-1.139,1.07h2.083v0.429H67.98c0.074-0.956,0.566-1.316,1.139-1.659
				c0.687-0.43,1.035-0.67,1.035-1.236c0-0.44-0.354-0.732-0.784-0.732c-0.566,0-0.807,0.521-0.789,1.007H68.095z"/>
		</g>
		<g>
			<path fill="#FFFFFF" d="M17.421,40.844c3.741,0,5.495,1.754,5.495,3.722c0,1.403-0.818,2.553-2.124,2.845v0.039
				c1.5,0.156,2.669,1.306,2.669,2.981c0,3.215-3.293,4.287-6.041,4.287c-2.923,0-6.021-0.994-6.021-4.287
				c0-2.299,1.714-2.826,2.708-2.981V47.41c-1.461-0.39-2.104-1.364-2.104-2.845C12.004,41.604,15.18,40.844,17.421,40.844z
				 M17.421,51.912c0.955,0,2.182-0.332,2.182-1.501c0-1.325-0.994-1.754-2.143-1.754c-1.15,0-2.202,0.39-2.202,1.754
				C15.258,51.58,16.446,51.912,17.421,51.912z M17.401,46.377c0.955,0,2.046-0.272,2.046-1.422c0-1.286-1.013-1.52-2.026-1.52
				s-1.949,0.292-1.949,1.52C15.472,46.046,16.466,46.377,17.401,46.377z"/>
			<path fill="#FFFFFF" d="M25.179,50.704h4.053v3.858h-4.053V50.704z"/>
			<path fill="#FFFFFF" d="M31.513,45.521c0.02-1.618,0.663-2.767,1.695-3.546c1.033-0.76,2.416-1.13,3.956-1.13
				c3.956,0,5.242,2.319,5.242,3.488c0,2.845-1.793,2.845-1.793,2.903v0.039c0,0.156,2.221,0.156,2.221,3.176
				c0,1.637-1.247,4.268-5.689,4.268c-6.119,0-6.099-4.287-6.021-5.3h3.702c-0.02,0.721,0.156,1.267,0.526,1.618
				c0.371,0.448,0.936,0.604,1.618,0.604c1.11,0,1.812-0.409,1.812-1.52c0-1.188-0.916-1.403-1.812-1.403
				c-0.565,0-0.838,0.039-1.13,0.098v-2.65c0.292,0.02,0.604,0.078,1.13,0.078c0.818,0,1.851-0.175,1.851-1.228
				c0-0.857-0.975-1.188-1.773-1.188c-1.033,0-1.929,0.565-1.871,1.695H31.513z"/>
		</g>
	</g>
</g>
<g id="Layer_21" display="none">
	<g display="inline">
		<g>
			<path fill="#010101" d="M30.195,72.2h-8.301c-2.054,0-3.921-0.838-5.272-2.19c-1.347-1.351-2.186-3.212-2.186-5.269V26.702
				c0-2.046,0.842-3.913,2.197-5.267c1.35-1.35,3.213-2.188,5.262-2.188h54.273c2.054,0,3.916,0.838,5.267,2.188
				c1.351,1.349,2.192,3.215,2.192,5.267v38.039c0,2.049-0.842,3.909-2.192,5.258c-1.354,1.358-3.218,2.201-5.267,2.201h-6.23
				H30.195z"/>
			<path fill="#FFCB0B" d="M15.637,33.533v-6.831c0-1.658,0.651-3.223,1.837-4.409c1.189-1.194,2.761-1.85,4.418-1.85h54.274
				c1.668,0,3.24,0.653,4.421,1.836c1.187,1.187,1.837,2.756,1.837,4.422v6.831H15.637z"/>
		</g>
		<rect x="35.75" y="23.493" fill="#FFCB0B" width="26.477" height="7.276"/>
		<g>
			<path fill="#FFCB0B" d="M21.895,70.999c-1.667,0-3.236-0.655-4.421-1.839c-1.185-1.188-1.836-2.757-1.836-4.421v-6.828h66.787
				v6.828c0,1.657-0.649,3.223-1.837,4.407c-1.19,1.193-2.76,1.853-4.419,1.853H21.895z"/>
		</g>
		<rect x="28.688" y="60.752" fill="#FFCB0B" width="37.13" height="7.521"/>
		<rect x="66.753" y="60.506" fill="#FFCB0B" width="2.809" height="4.26"/>
		<g>
			<path fill="#010101" d="M39.169,23.304h1.068l2.84,7.267h-1.069l-0.793-2.188h-3.074l-0.814,2.188h-0.998L39.169,23.304z
				 M38.446,27.568h2.463l-1.211-3.389h-0.02L38.446,27.568z"/>
			<path fill="#010101" d="M45.44,24.118h-2.422v-0.814h5.812v0.814h-2.423v6.453H45.44V24.118z"/>
			<path fill="#010101" d="M49.637,23.304h3.186c1.455,0,2.229,0.793,2.229,2.147c0,1.354-0.773,2.157-2.229,2.147h-2.219v2.972
				h-0.967V23.304z M50.604,26.784h1.893c1.1,0.01,1.588-0.468,1.588-1.333c0-0.865-0.488-1.333-1.588-1.333h-1.893V26.784z"/>
			<path fill="#010101" d="M59.094,30.57h-1.099l-2.564-7.267h1.048l2.076,6.3h0.021l2.097-6.3h1.008L59.094,30.57z"/>
		</g>
		<g>
			<path fill="#010101" d="M33.669,62.95c-0.213-1.027-1.018-1.547-2.035-1.547c-1.73,0-2.463,1.425-2.463,2.941
				c0,1.659,0.733,3.043,2.473,3.043c1.262,0,2.016-0.896,2.097-2.096h0.967c-0.193,1.821-1.303,2.91-3.145,2.91
				c-2.25,0-3.359-1.669-3.359-3.786s1.201-3.826,3.44-3.826c1.517,0,2.779,0.813,2.993,2.36H33.669z"/>
			<path fill="#010101" d="M37.886,60.763h1.069l2.839,7.267h-1.068l-0.794-2.188h-3.074l-0.814,2.188h-0.998L37.886,60.763z
				 M37.164,65.027h2.463l-1.211-3.39h-0.02L37.164,65.027z"/>
			<path fill="#010101" d="M42.509,60.763h0.967v6.452h3.848v0.814h-4.814V60.763z"/>
			<path fill="#010101" d="M50.206,60.59h0.743l-3.013,7.612h-0.743L50.206,60.59z"/>
			<path fill="#010101" d="M56.67,62.95c-0.214-1.027-1.018-1.547-2.036-1.547c-1.729,0-2.463,1.425-2.463,2.941
				c0,1.659,0.733,3.043,2.474,3.043c1.262,0,2.015-0.896,2.097-2.096h0.967c-0.193,1.821-1.303,2.91-3.146,2.91
				c-2.249,0-3.358-1.669-3.358-3.786s1.201-3.826,3.44-3.826c1.517,0,2.778,0.813,2.992,2.36H56.67z"/>
			<path fill="#010101" d="M58.933,60.763h1.323l2.29,6.106l2.3-6.106h1.323v7.267h-0.916v-6.046h-0.021l-2.27,6.046h-0.824
				l-2.27-6.046h-0.021v6.046h-0.916V60.763z"/>
		</g>
		<g>
			<path fill="#010101" d="M67.251,61.922c-0.047-0.854,0.464-1.489,1.354-1.489c0.73,0,1.318,0.427,1.318,1.211
				c0,0.741-0.499,1.109-1.021,1.442c-0.522,0.314-1.086,0.593-1.181,1.109h2.16v0.445h-2.748c0.077-0.991,0.588-1.365,1.181-1.722
				c0.713-0.445,1.075-0.694,1.075-1.282c0-0.457-0.368-0.76-0.813-0.76c-0.588,0-0.837,0.541-0.819,1.045H67.251z"/>
		</g>
		<g>
			<path fill="#010101" d="M24.695,75.947h1.812l1.923,7.267h-1.526l-0.336-1.537h-1.934l-0.335,1.537h-1.527L24.695,75.947z
				 M24.889,80.477h1.425l-0.703-3.268h-0.02L24.889,80.477z"/>
			<path fill="#010101" d="M30.122,80.944v0.214c0,0.682,0.193,1.119,0.967,1.119c0.448,0,0.875-0.285,0.875-0.896
				c0-0.651-0.326-0.916-1.303-1.241c-1.303-0.438-1.903-0.998-1.903-2.199c0-1.425,0.855-2.137,2.249-2.137
				c1.303,0,2.25,0.56,2.25,1.954v0.203h-1.404c0-0.691-0.224-1.078-0.794-1.078c-0.662,0-0.835,0.406-0.835,0.845
				c0,0.447,0.132,0.732,0.753,0.987l1.13,0.488c1.099,0.488,1.384,1.027,1.384,1.924c0,1.536-0.936,2.229-2.524,2.229
				c-1.659,0-2.31-0.773-2.31-2.117v-0.295H30.122z"/>
			<path fill="#010101" d="M38.48,75.947v1.201h-1.588v6.065h-1.465v-6.065h-1.588v-1.201H38.48z"/>
			<path fill="#010101" d="M39.144,75.947h2.178l1.038,5.129h0.021l1.048-5.129h2.168v7.267h-1.343v-5.801h-0.021l-1.293,5.801H41.8
				l-1.292-5.801h-0.021v5.801h-1.343V75.947z"/>
			<path fill="#010101" d="M49.091,75.947h4.061v1.201h-2.595v1.709h2.442v1.201h-2.442v3.155h-1.466V75.947z"/>
			<path fill="#010101" d="M57.592,83.214v-5.089h-1.436v-0.957h0.133c0.967,0,1.536-0.355,1.689-1.16h1.079v7.206H57.592z"/>
			<path fill="#010101" d="M62.347,81.534c0,0.54,0.173,0.865,0.662,0.865c0.773,0,0.896-0.773,0.896-1.832v-0.346h-0.021
				c-0.244,0.366-0.713,0.61-1.354,0.61c-1.272,0-1.761-0.946-1.761-2.249c0-1.659,0.712-2.575,2.331-2.575
				c2.005,0,2.27,1.608,2.27,3.369c0,2.046-0.052,3.979-2.423,3.979c-1.038,0-1.975-0.438-2.005-1.822H62.347z M63.029,79.754
				c0.58,0,0.804-0.387,0.804-1.364c0-0.824-0.122-1.425-0.804-1.425c-0.703,0-0.794,0.61-0.794,1.425
				C62.235,79.367,62.459,79.754,63.029,79.754z"/>
			<path fill="#010101" d="M69.839,77.29h-2.656l-0.152,1.639h0.021c0.274-0.376,0.702-0.539,1.323-0.539
				c1.384,0,1.761,1.16,1.761,2.3c0,1.588-0.469,2.667-2.311,2.667c-1.832,0-2.127-1.19-2.127-2.005v-0.193h1.404
				c0,0.479,0.081,1.181,0.712,1.181c0.601,0,0.855-0.469,0.855-1.405c0-1.19-0.193-1.526-0.845-1.526
				c-0.418,0-0.642,0.255-0.692,0.662h-1.313l0.265-3.919h3.755V77.29z"/>
			<path fill="#010101" d="M72.121,81.534c0,0.54,0.173,0.865,0.662,0.865c0.773,0,0.896-0.773,0.896-1.832v-0.346h-0.021
				c-0.244,0.366-0.713,0.61-1.354,0.61c-1.272,0-1.761-0.946-1.761-2.249c0-1.659,0.712-2.575,2.331-2.575
				c2.005,0,2.27,1.608,2.27,3.369c0,2.046-0.052,3.979-2.423,3.979c-1.038,0-1.975-0.438-2.005-1.822H72.121z M72.804,79.754
				c0.58,0,0.804-0.387,0.804-1.364c0-0.824-0.122-1.425-0.804-1.425c-0.703,0-0.794,0.61-0.794,1.425
				C72.01,79.367,72.233,79.754,72.804,79.754z"/>
		</g>
		<g>
			<path fill="#FFFFFF" d="M41.161,44.677h-3.295v-2.911c2.022,0.061,4.084-0.728,4.185-3.053h3.315v14.072h-4.205V44.677z"/>
			<path fill="#FFFFFF" d="M50.021,44.636c-0.222-3.882,2.164-6.085,5.965-6.085c3.417,0,5.742,1.436,5.742,4.428
				c0,3.599-3.498,4.711-6.167,6.349v0.02h6.369v3.437H49.738c-0.081-1.375,0.303-2.527,1.011-3.478
				c1.192-1.638,3.174-2.709,4.993-3.801c0.729-0.445,1.901-1.031,1.901-2.042c0-1.294-0.748-1.719-1.699-1.719
				c-1.617,0-2.183,1.173-2.122,2.891H50.021z"/>
		</g>
	</g>
</g>
<g id="Layer_22">
	<path fill="#010101" d="M18.655,73.253H10.67c-1.977,0-3.772-0.805-5.072-2.106c-1.297-1.297-2.104-3.09-2.104-5.067V29.485
		c0-1.968,0.81-3.764,2.115-5.066c1.297-1.299,3.09-2.105,5.061-2.105h79.733c1.977,0,3.769,0.806,5.068,2.105
		c1.297,1.297,2.107,3.092,2.107,5.066v36.594c0,1.972-0.811,3.76-2.107,5.06c-1.301,1.305-3.098,2.114-5.068,2.114H56.887H18.655z"
		/>
	<path fill="#FFCB0B" d="M4.65,36.056v-6.571c0-1.595,0.626-3.101,1.769-4.241c1.143-1.148,2.655-1.779,4.25-1.779h79.734
		c1.604,0,3.117,0.628,4.254,1.768c1.139,1.142,1.766,2.651,1.766,4.253v6.571H4.65z"/>
	<rect x="23.998" y="26.397" fill="#FFCB0B" width="25.471" height="7"/>
	<path fill="#FFCB0B" d="M10.669,72.101c-1.603,0-3.113-0.631-4.253-1.771c-1.139-1.143-1.766-2.652-1.766-4.25v-6.57h91.773v6.57
		c0,1.593-0.627,3.098-1.769,4.237c-1.145,1.147-2.654,1.784-4.251,1.784H10.669z"/>
	<g>
		<path fill="#010101" d="M18.16,26.209h1.029l2.733,6.995h-1.029l-0.764-2.106H17.17l-0.784,2.106h-0.96L18.16,26.209z
			 M17.464,30.314h2.371l-1.166-3.262h-0.02L17.464,30.314z"/>
		<path fill="#010101" d="M24.193,26.993h-2.332v-0.784h5.594v0.784h-2.332v6.211h-0.931V26.993z"/>
		<path fill="#010101" d="M28.229,26.209h3.066c1.401,0,2.146,0.764,2.146,2.067c0,1.303-0.745,2.077-2.146,2.067h-2.135v2.86
			h-0.931V26.209z M29.159,29.56h1.822c1.058,0.01,1.528-0.451,1.528-1.283c0-0.833-0.47-1.284-1.528-1.284h-1.822V29.56z"/>
		<path fill="#010101" d="M37.328,33.204h-1.058l-2.469-6.995h1.009l1.999,6.064h0.02l2.018-6.064h0.97L37.328,33.204z"/>
	</g>
	<g>
		<path fill="#010101" d="M12.42,83.697v-6.994h1.411v6.994H12.42z"/>
		<path fill="#010101" d="M18.787,76.703v1.155h-2.498v1.646h2.351v1.155h-2.351v1.881h2.596v1.156h-4.007v-6.994H18.787z"/>
		<path fill="#010101" d="M22.577,79.063c0-1.019-0.206-1.459-0.842-1.459c-0.706,0-0.882,0.705-0.882,2.693
			c0,2.116,0.294,2.498,0.901,2.498c0.5,0,0.882-0.255,0.882-1.773h1.411c0,1.519-0.373,2.812-2.224,2.812
			c-2.116,0-2.38-1.508-2.38-3.634s0.265-3.635,2.38-3.635c2.018,0,2.165,1.479,2.165,2.498H22.577z"/>
		<path fill="#010101" d="M29.756,78.525c0-0.539-0.167-0.843-0.637-0.843c-0.744,0-0.862,0.744-0.862,1.763v0.344h0.02
			c0.235-0.363,0.686-0.598,1.303-0.598c1.225,0,1.695,0.911,1.695,2.165c0,1.597-0.686,2.478-2.243,2.478
			c-1.94,0-2.185-1.547-2.185-3.242c0-1.959,0.039-3.83,2.332-3.83c0.999,0,1.9,0.431,1.93,1.764H29.756z M29.1,82.914
			c0.676,0,0.764-0.588,0.764-1.372c0-0.94-0.215-1.313-0.764-1.313c-0.558,0-0.774,0.372-0.774,1.313
			C28.326,82.336,28.444,82.914,29.1,82.914z"/>
		<path fill="#010101" d="M33.194,83.697v-4.898h-1.381v-0.921h0.127c0.931,0,1.479-0.343,1.626-1.116h1.038v6.936H33.194z"/>
		<path fill="#010101" d="M36.25,81.102l2.302-4.34h1.459v4.398h0.666v1.097h-0.666v1.44h-1.293v-1.44H36.25V81.102z M38.719,78.525
			h-0.02l-1.352,2.635h1.372V78.525z"/>
		<path fill="#010101" d="M42.127,80.023v-0.02c-0.754-0.186-0.999-0.842-0.999-1.332c0-1.361,0.774-1.91,2.038-1.91
			s2.038,0.549,2.038,1.91c0,0.49-0.265,1.146-0.999,1.332v0.02c0.784,0.157,1.175,0.843,1.175,1.715
			c0,0.793-0.284,2.096-2.214,2.096s-2.214-1.303-2.214-2.096C40.952,80.866,41.343,80.181,42.127,80.023z M43.166,82.914
			c0.637,0,0.803-0.529,0.803-1.195s-0.167-1.195-0.803-1.195s-0.803,0.529-0.803,1.195S42.529,82.914,43.166,82.914z
			 M43.166,79.603c0.421,0,0.686-0.313,0.686-0.97c0-0.637-0.225-0.95-0.686-0.95s-0.686,0.313-0.686,0.95
			C42.48,79.289,42.744,79.603,43.166,79.603z"/>
		<path fill="#010101" d="M49.963,83.697h-4.271c0-1.234,0.5-2.087,1.528-3.037l0.568-0.528c0.627-0.549,0.725-0.882,0.725-1.587
			c0-0.578-0.225-0.862-0.686-0.862c-0.696,0-0.784,0.617-0.784,1.352h-1.352V78.77c0-1.293,0.666-2.008,2.155-2.008
			c1.401,0,2.077,0.686,2.077,1.891c0,0.901-0.294,1.499-1.078,2.204l-0.784,0.725c-0.421,0.382-0.646,0.755-0.715,1.019h2.615
			V83.697z"/>
		<path fill="#010101" d="M53.411,80.288v1.156h-2.762v-1.156H53.411z"/>
		<path fill="#010101" d="M55.625,83.697v-4.898h-1.382v-0.921h0.128c0.931,0,1.479-0.343,1.626-1.116h1.038v6.936H55.625z"/>
		<path fill="#010101" d="M61.736,80.288v1.156h-2.763v-1.156H61.736z"/>
		<path fill="#010101" d="M63.95,83.697v-4.898h-1.382v-0.921h0.128c0.931,0,1.479-0.343,1.626-1.116h1.038v6.936H63.95z"/>
		<path fill="#010101" d="M67.398,78.594h1.293v1.528h-1.293V78.594z M67.398,82.169h1.293v1.528h-1.293V82.169z"/>
		<path fill="#010101" d="M73.667,83.697h-4.271c0-1.234,0.499-2.087,1.527-3.037l0.568-0.528c0.627-0.549,0.726-0.882,0.726-1.587
			c0-0.578-0.226-0.862-0.687-0.862c-0.695,0-0.783,0.617-0.783,1.352h-1.352V78.77c0-1.293,0.666-2.008,2.154-2.008
			c1.401,0,2.077,0.686,2.077,1.891c0,0.901-0.294,1.499-1.077,2.204l-0.784,0.725c-0.421,0.382-0.646,0.755-0.715,1.019h2.615
			V83.697z"/>
		<path fill="#010101" d="M76.271,76.762c1.686,0,2.175,0.911,2.175,3.37c0,1.92-0.107,3.702-2.175,3.702
			c-1.685,0-2.174-0.91-2.174-3.369C74.098,78.545,74.205,76.762,76.271,76.762z M75.508,80.769c0,1.753,0.167,2.146,0.764,2.146
			c0.617,0,0.765-0.549,0.765-2.332v-0.754c0-1.754-0.167-2.146-0.765-2.146c-0.616,0-0.764,0.549-0.764,2.331V80.769z"/>
		<path fill="#010101" d="M80.406,83.697v-4.898h-1.382v-0.921h0.128c0.931,0,1.479-0.343,1.626-1.116h1.038v6.936H80.406z"/>
		<path fill="#010101" d="M84.979,82.081c0,0.519,0.167,0.833,0.637,0.833c0.745,0,0.862-0.745,0.862-1.764v-0.333h-0.02
			c-0.235,0.353-0.686,0.588-1.303,0.588c-1.225,0-1.695-0.911-1.695-2.165c0-1.597,0.687-2.479,2.244-2.479
			c1.93,0,2.185,1.548,2.185,3.242c0,1.969-0.05,3.83-2.332,3.83c-0.999,0-1.9-0.421-1.93-1.753H84.979z M85.636,80.366
			c0.559,0,0.774-0.372,0.774-1.313c0-0.793-0.118-1.371-0.774-1.371c-0.676,0-0.764,0.588-0.764,1.371
			C84.872,79.994,85.088,80.366,85.636,80.366z"/>
	</g>
	<g>
		<path fill="#010101" d="M62.805,26.209h4.83v0.784h-3.899v2.224h3.635V30h-3.635v2.419h3.929v0.784h-4.859V26.209z"/>
		<path fill="#010101" d="M68.789,26.209h0.931v6.211h3.703v0.784h-4.634V26.209z"/>
		<path fill="#010101" d="M74.275,26.209h0.931v6.995h-0.931V26.209z"/>
		<path fill="#010101" d="M76.793,26.209h1.273l2.204,5.878l2.214-5.878h1.273v6.995h-0.882v-5.819h-0.02l-2.185,5.819h-0.794
			l-2.185-5.819h-0.02v5.819h-0.881V26.209z"/>
	</g>
	<g>
		<path fill="#FFFFFF" d="M66.27,46.773h-3.171v-2.802c1.945,0.059,3.93-0.7,4.027-2.938h3.19v13.541H66.27V46.773z"/>
		<path fill="#FFFFFF" d="M74.889,45.547c0.02-1.615,0.661-2.762,1.692-3.541c1.031-0.759,2.412-1.128,3.949-1.128
			c3.949,0,5.233,2.315,5.233,3.482c0,2.84-1.79,2.84-1.79,2.899v0.039c0,0.156,2.218,0.156,2.218,3.171
			c0,1.635-1.245,4.261-5.681,4.261c-6.108,0-6.089-4.279-6.012-5.292h3.696c-0.019,0.72,0.156,1.265,0.525,1.615
			c0.37,0.447,0.935,0.604,1.615,0.604c1.108,0,1.81-0.409,1.81-1.518c0-1.187-0.915-1.401-1.81-1.401
			c-0.564,0-0.837,0.039-1.129,0.097v-2.646c0.292,0.02,0.604,0.078,1.129,0.078c0.817,0,1.848-0.175,1.848-1.226
			c0-0.856-0.973-1.187-1.77-1.187c-1.031,0-1.927,0.564-1.868,1.692H74.889z"/>
	</g>
	<line fill="none" stroke="#010101" stroke-miterlimit="10" x1="50.536" y1="22.313" x2="50.536" y2="37.565"/>
	<line fill="none" stroke="#FFCB0B" stroke-miterlimit="10" x1="50.536" y1="63.392" x2="50.536" y2="36.043"/>
	<g>
		<path fill="#010101" d="M35.766,64.353c-0.206-0.989-0.979-1.488-1.959-1.488c-1.666,0-2.371,1.371-2.371,2.831
			c0,1.597,0.705,2.929,2.38,2.929c1.215,0,1.939-0.862,2.018-2.018h0.931c-0.187,1.753-1.254,2.802-3.027,2.802
			c-2.165,0-3.232-1.607-3.232-3.645c0-2.038,1.156-3.684,3.311-3.684c1.459,0,2.674,0.784,2.88,2.272H35.766z"/>
		<path fill="#010101" d="M39.82,62.247h1.029l2.733,6.994h-1.029l-0.764-2.106h-2.958l-0.784,2.106h-0.96L39.82,62.247z
			 M39.125,66.352h2.371l-1.166-3.263h-0.02L39.125,66.352z"/>
		<path fill="#010101" d="M44.267,62.247h0.931v6.21H48.9v0.784h-4.633V62.247z"/>
		<path fill="#010101" d="M51.672,62.08h0.715l-2.899,7.328h-0.715L51.672,62.08z"/>
		<path fill="#010101" d="M57.892,64.353c-0.206-0.989-0.979-1.488-1.959-1.488c-1.665,0-2.371,1.371-2.371,2.831
			c0,1.597,0.706,2.929,2.381,2.929c1.215,0,1.939-0.862,2.018-2.018h0.931c-0.186,1.753-1.254,2.802-3.026,2.802
			c-2.165,0-3.233-1.607-3.233-3.645c0-2.038,1.156-3.684,3.312-3.684c1.46,0,2.674,0.784,2.88,2.272H57.892z"/>
		<path fill="#010101" d="M60.066,62.247h1.273l2.204,5.877l2.214-5.877h1.273v6.994h-0.882v-5.819h-0.02l-2.185,5.819h-0.794
			l-2.185-5.819h-0.02v5.819h-0.881V62.247z"/>
	</g>
	<g>
		<path fill="#010101" d="M68.063,63.367c-0.046-0.822,0.445-1.433,1.302-1.433c0.701,0,1.267,0.411,1.267,1.164
			c0,0.713-0.479,1.067-0.981,1.387c-0.503,0.303-1.045,0.57-1.136,1.067h2.077v0.428h-2.643c0.074-0.953,0.565-1.313,1.136-1.655
			c0.685-0.428,1.033-0.667,1.033-1.232c0-0.439-0.354-0.73-0.782-0.73c-0.564,0-0.805,0.52-0.787,1.005H68.063z"/>
	</g>
	<g>
		<path fill="#FFFFFF" d="M19.677,46.773h-3.171v-2.802c1.945,0.059,3.93-0.7,4.027-2.938h3.19v13.541h-4.047V46.773z"/>
		<path fill="#FFFFFF" d="M33.841,51.89h-6.012v-3.658l6.187-7.198h3.872v7.548h1.829v3.308h-1.829v2.685h-4.047V51.89z
			 M30.534,48.582h3.307v-3.793L30.534,48.582z"/>
	</g>
</g>
</svg>
