<?xml version="1.0" encoding="utf-8"?>
<!-- Generator: Adobe Illustrator 16.0.0, SVG Export Plug-In . SVG Version: 6.00 Build 0)  -->
<!DOCTYPE svg PUBLIC "-//W3C//DTD SVG 1.1//EN" "http://www.w3.org/Graphics/SVG/1.1/DTD/svg11.dtd">
<svg version="1.1" id="Layer_1" xmlns="http://www.w3.org/2000/svg" xmlns:xlink="http://www.w3.org/1999/xlink" x="0px" y="0px"
	 width="100px" height="100px" viewBox="0 0 100 100" enable-background="new 0 0 100 100" xml:space="preserve">
<g display="none">
	<g display="inline">
		<path fill="#010101" d="M24.451,77.896v-7.461h5.967v1.263h-4.342v1.653h4.04v1.258h-4.04v2.03h4.496v1.257H24.451z"/>
		<path fill="#010101" d="M31.965,77.896v-7.461h1.581l3.293,4.982v-4.982h1.51v7.461h-1.63l-3.244-4.865v4.865H31.965z"/>
		<path fill="#010101" d="M46.797,77.896h-1.542v-5.39c-0.563,0.489-1.228,0.851-1.993,1.084v-1.298
			c0.402-0.122,0.84-0.354,1.312-0.694s0.796-0.738,0.972-1.193h1.251V77.896z"/>
		<path fill="#010101" d="M49.048,75.917l1.493-0.168c0.048,0.353,0.176,0.622,0.384,0.809c0.208,0.188,0.462,0.28,0.758,0.28
			c0.318,0,0.586-0.112,0.804-0.336s0.327-0.525,0.327-0.905c0-0.36-0.104-0.646-0.313-0.855c-0.208-0.21-0.463-0.315-0.763-0.315
			c-0.198,0-0.434,0.035-0.708,0.106l0.17-1.165c0.418,0.01,0.735-0.074,0.955-0.252s0.329-0.415,0.329-0.71
			c0-0.251-0.08-0.451-0.241-0.601s-0.375-0.224-0.643-0.224c-0.264,0-0.488,0.085-0.675,0.254c-0.187,0.17-0.3,0.418-0.34,0.743
			l-1.421-0.224c0.099-0.451,0.248-0.812,0.447-1.081c0.199-0.271,0.478-0.482,0.834-0.637c0.356-0.154,0.756-0.231,1.199-0.231
			c0.758,0,1.365,0.224,1.823,0.672c0.377,0.366,0.565,0.78,0.565,1.241c0,0.655-0.387,1.178-1.158,1.568
			c0.461,0.091,0.829,0.297,1.105,0.615c0.276,0.319,0.415,0.704,0.415,1.155c0,0.655-0.259,1.213-0.774,1.675
			c-0.516,0.461-1.158,0.691-1.927,0.691c-0.728,0-1.332-0.194-1.812-0.582C49.402,77.053,49.125,76.545,49.048,75.917z"/>
		<path fill="#010101" d="M57.962,70.405c0.779,0,1.389,0.258,1.828,0.773c0.522,0.611,0.784,1.624,0.784,3.038
			c0,1.412-0.263,2.426-0.79,3.044c-0.436,0.509-1.043,0.763-1.822,0.763c-0.783,0-1.414-0.278-1.894-0.837
			c-0.479-0.558-0.72-1.553-0.72-2.984c0-1.405,0.264-2.416,0.791-3.033C56.575,70.66,57.183,70.405,57.962,70.405z M57.962,71.591
			c-0.187,0-0.354,0.056-0.5,0.166c-0.146,0.11-0.26,0.308-0.34,0.593c-0.106,0.369-0.159,0.992-0.159,1.867
			c0,0.876,0.048,1.477,0.143,1.805c0.095,0.327,0.215,0.545,0.359,0.653c0.145,0.109,0.311,0.163,0.497,0.163
			s0.354-0.055,0.499-0.165c0.146-0.11,0.26-0.309,0.341-0.593c0.106-0.367,0.159-0.987,0.159-1.863
			c0-0.875-0.048-1.477-0.143-1.804c-0.096-0.327-0.215-0.546-0.359-0.656S58.148,71.591,57.962,71.591z"/>
		<path fill="#010101" d="M61.552,75.917l1.493-0.168c0.047,0.353,0.176,0.622,0.384,0.809c0.209,0.188,0.461,0.28,0.758,0.28
			c0.318,0,0.586-0.112,0.804-0.336s0.327-0.525,0.327-0.905c0-0.36-0.104-0.646-0.313-0.855c-0.208-0.21-0.463-0.315-0.763-0.315
			c-0.197,0-0.434,0.035-0.708,0.106l0.17-1.165c0.417,0.01,0.735-0.074,0.955-0.252s0.329-0.415,0.329-0.71
			c0-0.251-0.08-0.451-0.241-0.601s-0.375-0.224-0.642-0.224c-0.264,0-0.489,0.085-0.676,0.254c-0.187,0.17-0.3,0.418-0.34,0.743
			l-1.422-0.224c0.099-0.451,0.248-0.812,0.447-1.081c0.199-0.271,0.478-0.482,0.834-0.637c0.357-0.154,0.757-0.231,1.199-0.231
			c0.758,0,1.365,0.224,1.823,0.672c0.377,0.366,0.565,0.78,0.565,1.241c0,0.655-0.387,1.178-1.158,1.568
			c0.461,0.091,0.829,0.297,1.105,0.615c0.276,0.319,0.415,0.704,0.415,1.155c0,0.655-0.259,1.213-0.774,1.675
			c-0.516,0.461-1.158,0.691-1.927,0.691c-0.729,0-1.332-0.194-1.812-0.582C61.906,77.053,61.628,76.545,61.552,75.917z"/>
		<path fill="#010101" d="M70.883,77.896v-1.501H67.59v-1.252l3.49-4.738h1.296v4.733h0.999v1.257h-0.999v1.501H70.883z
			 M70.883,75.139v-2.55l-1.85,2.55H70.883z"/>
	</g>
	<g display="inline">
		<path fill="#010101" d="M33.875,90.403v-6.198h-2.388v-1.263h6.395v1.263h-2.382v6.198H33.875z"/>
		<path fill="#010101" d="M37.357,84.999h1.642l1.394,3.837l1.361-3.837h1.597L41.293,90.2l-0.368,0.941
			c-0.136,0.315-0.265,0.556-0.387,0.723c-0.123,0.166-0.264,0.301-0.423,0.404s-0.355,0.184-0.587,0.241s-0.495,0.087-0.788,0.087
			c-0.296,0-0.587-0.029-0.873-0.087l-0.137-1.119c0.241,0.044,0.459,0.066,0.653,0.066c0.358,0,0.624-0.098,0.796-0.293
			c0.172-0.195,0.304-0.443,0.395-0.745L37.357,84.999z"/>
		<path fill="#010101" d="M44.295,84.999h1.438v0.794c0.187-0.271,0.439-0.492,0.757-0.662s0.671-0.254,1.06-0.254
			c0.677,0,1.251,0.246,1.724,0.737c0.472,0.492,0.708,1.178,0.708,2.057c0,0.902-0.238,1.604-0.713,2.104
			c-0.476,0.501-1.052,0.751-1.729,0.751c-0.322,0-0.614-0.06-0.875-0.178c-0.262-0.119-0.537-0.322-0.826-0.611v2.723h-1.542
			V84.999z M45.821,87.609c0,0.607,0.13,1.056,0.39,1.346s0.576,0.436,0.95,0.436c0.358,0,0.657-0.133,0.895-0.399
			s0.357-0.703,0.357-1.311c0-0.566-0.123-0.987-0.368-1.262c-0.245-0.275-0.549-0.413-0.911-0.413c-0.377,0-0.69,0.136-0.939,0.405
			S45.821,87.08,45.821,87.609z"/>
		<path fill="#010101" d="M54.582,88.684l1.537,0.239c-0.197,0.522-0.51,0.92-0.936,1.193c-0.428,0.272-0.961,0.409-1.602,0.409
			c-1.014,0-1.764-0.307-2.25-0.921c-0.384-0.492-0.576-1.113-0.576-1.862c0-0.896,0.252-1.598,0.758-2.104
			c0.504-0.508,1.143-0.761,1.916-0.761c0.867,0,1.551,0.265,2.053,0.796c0.5,0.531,0.74,1.345,0.719,2.44h-3.865
			c0.012,0.424,0.137,0.754,0.373,0.99c0.238,0.235,0.535,0.354,0.891,0.354c0.24,0,0.443-0.062,0.609-0.184
			C54.373,89.151,54.498,88.955,54.582,88.684z M54.67,87.238c-0.012-0.414-0.127-0.729-0.346-0.944
			c-0.221-0.216-0.486-0.323-0.803-0.323c-0.336,0-0.613,0.113-0.834,0.341c-0.219,0.228-0.328,0.536-0.324,0.927H54.67z"/>
		<path fill="#010101" d="M65.478,84.77l-1.493,0.153c-0.036-0.285-0.132-0.496-0.285-0.632s-0.354-0.203-0.599-0.203
			c-0.325,0-0.601,0.136-0.826,0.407c-0.225,0.271-0.366,0.836-0.425,1.694c0.384-0.421,0.861-0.631,1.433-0.631
			c0.644,0,1.195,0.228,1.654,0.682c0.46,0.455,0.689,1.042,0.689,1.761c0,0.764-0.241,1.376-0.725,1.838
			c-0.483,0.461-1.104,0.691-1.861,0.691c-0.812,0-1.479-0.292-2.003-0.878c-0.523-0.585-0.785-1.544-0.785-2.878
			c0-1.367,0.272-2.353,0.818-2.956c0.545-0.604,1.253-0.906,2.124-0.906c0.611,0,1.117,0.159,1.518,0.476
			C65.112,83.705,65.368,84.166,65.478,84.77z M61.981,87.89c0,0.465,0.115,0.823,0.346,1.076s0.494,0.379,0.79,0.379
			c0.285,0,0.523-0.104,0.714-0.311s0.285-0.546,0.285-1.018c0-0.485-0.103-0.841-0.308-1.066s-0.461-0.338-0.769-0.338
			c-0.296,0-0.547,0.107-0.752,0.323C62.083,87.15,61.981,87.469,61.981,87.89z"/>
	</g>
	<path display="inline" fill="#010101" d="M58.722,50.214c-0.888,2.17-0.726,3.083-7.192,3.419
		c-6.482,0.334-6.482-0.081-6.482-0.081s-10.712,1.475-5.897-6.107l4.541-12.503h9.17L58.722,50.214z"/>
	<path display="inline" fill="none" stroke="#010101" stroke-width="0.64" stroke-linecap="round" stroke-miterlimit="3.864" d="
		M44.668,24.167c0,0,2.629,0.517,0.733,5.86c-1.343,4-4.419,12.416-5.861,16.377c-1.051,2.862-3.363,7.23,2.627,7.23h12.598
		c0,0,5.577,0.086,3.069-6.591c-2.159-5.7-5.066-11.293-6.991-17.038c-0.535-1.576-1.141-4.303,1.767-5.822"/>
	<path display="inline" fill="none" stroke="#010101" stroke-width="0.64" stroke-linecap="round" stroke-miterlimit="3.864" d="
		M56.914,13.53c1.343,0.786,2.162,1.032,3.076,1.051c3.342,0.059,2.147-1.684,4.333-2.478c0.842-0.303,2.147-0.123,4.113,1.427
		 M56.826,24.042c1.482,0.849,2.71,1.081,3.655,1.057c2.998-0.086,2.245-1.928,4.484-2.252c0.834-0.122,1.702-0.125,3.381,1.195
		 M49.454,21.369c0,0,2.875-3.005,6.67-0.834c1.643,0.949,2.85,1.158,4.158,1.063c3.473-0.25,2.677-2.121,4.98-2.573
		c0.837-0.163,2.059,0.13,3.814,1.511 M49.014,17.844c0,0,2.87-3.003,6.65-0.833c1.719,0.979,3.397,1.142,4.716,1.024
		c3.313-0.297,2.229-1.817,4.427-2.532c0.806-0.264,2.062,0.13,3.819,1.508"/>
	<path display="inline" fill="none" stroke="#010101" stroke-width="0.361" stroke-miterlimit="3.864" d="M48.623,64.423
		c0,0-21.668-6.28-24.695-33.311L23.723,4.327H73.55l-0.211,26.786C70.311,58.143,48.623,64.423,48.623,64.423z"/>
</g>
<g display="none">
	<g display="inline">
		<path fill="#010101" d="M22.143,75.353v-7.066h5.239v1.195h-3.813v1.566h3.547v1.19h-3.547v1.924h3.948v1.19H22.143z"/>
		<path fill="#010101" d="M28.741,75.353v-7.066h1.389l2.892,4.719v-4.719h1.325v7.066h-1.432l-2.849-4.608v4.608H28.741z"/>
		<path fill="#010101" d="M42.889,70.017l-1.311,0.145c-0.032-0.27-0.116-0.469-0.251-0.598c-0.135-0.129-0.31-0.192-0.525-0.192
			c-0.286,0-0.528,0.128-0.725,0.385c-0.198,0.258-0.322,0.793-0.374,1.605c0.338-0.398,0.757-0.598,1.258-0.598
			c0.565,0,1.05,0.216,1.453,0.646c0.403,0.431,0.605,0.987,0.605,1.668c0,0.724-0.212,1.304-0.636,1.74
			c-0.424,0.438-0.969,0.655-1.634,0.655c-0.713,0-1.3-0.276-1.76-0.831c-0.459-0.555-0.689-1.463-0.689-2.726
			c0-1.295,0.239-2.229,0.718-2.801c0.479-0.572,1.101-0.858,1.865-0.858c0.537,0,0.981,0.15,1.333,0.451
			C42.568,69.009,42.792,69.444,42.889,70.017z M39.818,72.972c0,0.44,0.102,0.78,0.304,1.02c0.203,0.239,0.434,0.358,0.694,0.358
			c0.25,0,0.459-0.098,0.626-0.294c0.167-0.195,0.25-0.517,0.25-0.964c0-0.459-0.09-0.796-0.27-1.01
			c-0.18-0.214-0.405-0.32-0.675-0.32c-0.26,0-0.48,0.102-0.661,0.306C39.908,72.271,39.818,72.573,39.818,72.972z"/>
		<path fill="#010101" d="M47.256,75.353h-1.354v-5.104c-0.495,0.463-1.078,0.805-1.75,1.026v-1.229
			c0.354-0.116,0.738-0.335,1.152-0.658s0.699-0.7,0.853-1.131h1.099V75.353z"/>
		<path fill="#010101" d="M51.936,75.353v-1.422h-2.892v-1.186l3.066-4.488h1.138v4.483h0.877v1.19h-0.877v1.422H51.936z
			 M51.936,72.74v-2.415l-1.625,2.415H51.936z"/>
		<path fill="#010101" d="M55.932,71.54c-0.351-0.148-0.604-0.352-0.764-0.61c-0.159-0.258-0.239-0.542-0.239-0.851
			c0-0.526,0.185-0.962,0.552-1.306c0.368-0.344,0.892-0.517,1.569-0.517c0.672,0,1.193,0.173,1.564,0.517s0.557,0.779,0.557,1.306
			c0,0.328-0.085,0.619-0.256,0.875c-0.17,0.256-0.409,0.451-0.718,0.586c0.392,0.157,0.689,0.387,0.894,0.689
			c0.204,0.302,0.307,0.65,0.307,1.046c0,0.652-0.208,1.183-0.624,1.59c-0.417,0.408-0.97,0.612-1.661,0.612
			c-0.643,0-1.178-0.168-1.604-0.506c-0.505-0.398-0.757-0.944-0.757-1.639c0-0.383,0.095-0.733,0.284-1.054
			C55.225,71.96,55.523,71.713,55.932,71.54z M56.086,73.203c0,0.372,0.096,0.663,0.287,0.872c0.19,0.209,0.43,0.313,0.716,0.313
			c0.279,0,0.511-0.101,0.693-0.302c0.184-0.2,0.275-0.49,0.275-0.87c0-0.33-0.094-0.597-0.28-0.797
			c-0.186-0.201-0.422-0.302-0.708-0.302c-0.331,0-0.578,0.114-0.74,0.342C56.167,72.688,56.086,72.937,56.086,73.203z
			 M56.211,70.176c0,0.27,0.076,0.48,0.229,0.632c0.152,0.15,0.355,0.226,0.609,0.226c0.257,0,0.463-0.076,0.617-0.229
			s0.231-0.364,0.231-0.634c0-0.254-0.076-0.457-0.229-0.609c-0.152-0.153-0.354-0.229-0.604-0.229
			c-0.261,0-0.468,0.077-0.622,0.231S56.211,69.922,56.211,70.176z"/>
		<path fill="#010101" d="M64.835,74.095v1.258h-4.748c0.051-0.476,0.205-0.926,0.463-1.353c0.257-0.425,0.765-0.99,1.522-1.693
			c0.61-0.569,0.985-0.955,1.123-1.157c0.187-0.279,0.28-0.556,0.28-0.829c0-0.302-0.082-0.534-0.244-0.696
			s-0.386-0.244-0.672-0.244c-0.283,0-0.508,0.086-0.675,0.256c-0.167,0.171-0.264,0.453-0.289,0.849l-1.35-0.135
			c0.08-0.746,0.332-1.281,0.757-1.605c0.424-0.324,0.954-0.487,1.59-0.487c0.697,0,1.245,0.188,1.644,0.564
			s0.599,0.844,0.599,1.402c0,0.318-0.058,0.621-0.172,0.909c-0.114,0.287-0.295,0.589-0.542,0.903
			c-0.164,0.209-0.46,0.51-0.887,0.901c-0.428,0.393-0.698,0.652-0.813,0.781c-0.114,0.128-0.206,0.254-0.277,0.376H64.835z"/>
		<path fill="#010101" d="M65.886,73.468v-1.354h2.66v1.354H65.886z"/>
		<path fill="#010101" d="M72.503,75.353h-1.354v-5.104c-0.494,0.463-1.078,0.805-1.749,1.026v-1.229
			c0.354-0.116,0.737-0.335,1.151-0.658c0.415-0.323,0.699-0.7,0.854-1.131h1.099V75.353z"/>
		<path fill="#010101" d="M74.663,73.468v-1.354h2.66v1.354H74.663z"/>
		<path fill="#010101" d="M82.39,74.095v1.258h-4.748c0.051-0.476,0.205-0.926,0.463-1.353c0.257-0.425,0.765-0.99,1.522-1.693
			c0.61-0.569,0.985-0.955,1.123-1.157c0.187-0.279,0.28-0.556,0.28-0.829c0-0.302-0.082-0.534-0.244-0.696S80.4,69.38,80.114,69.38
			c-0.283,0-0.508,0.086-0.675,0.256c-0.167,0.171-0.264,0.453-0.289,0.849l-1.35-0.135c0.08-0.746,0.332-1.281,0.757-1.605
			c0.424-0.324,0.954-0.487,1.59-0.487c0.697,0,1.245,0.188,1.644,0.564s0.599,0.844,0.599,1.402c0,0.318-0.058,0.621-0.172,0.909
			c-0.114,0.287-0.295,0.589-0.542,0.903c-0.164,0.209-0.46,0.51-0.887,0.901c-0.428,0.393-0.698,0.652-0.813,0.781
			c-0.114,0.128-0.206,0.254-0.277,0.376H82.39z"/>
	</g>
	<g display="inline">
		<path fill="#010101" d="M40.109,84.601l1.383,0.438c-0.212,0.771-0.565,1.344-1.058,1.718c-0.493,0.375-1.119,0.562-1.877,0.562
			c-0.938,0-1.709-0.32-2.314-0.961c-0.604-0.642-0.906-1.518-0.906-2.63c0-1.176,0.303-2.089,0.911-2.74
			c0.607-0.65,1.406-0.976,2.396-0.976c0.864,0,1.566,0.255,2.106,0.766c0.321,0.303,0.563,0.736,0.723,1.302l-1.412,0.338
			c-0.083-0.366-0.258-0.656-0.523-0.868s-0.587-0.318-0.967-0.318c-0.523,0-0.949,0.188-1.275,0.564s-0.489,0.985-0.489,1.827
			c0,0.893,0.161,1.529,0.482,1.908c0.321,0.38,0.739,0.569,1.253,0.569c0.379,0,0.706-0.121,0.979-0.362
			C39.794,85.497,39.99,85.117,40.109,84.601z"/>
		<path fill="#010101" d="M42.707,87.198v-7.066h1.354v7.066H42.707z"/>
		<path fill="#010101" d="M46.462,83.641l-1.229-0.222c0.138-0.494,0.376-0.861,0.713-1.099c0.337-0.238,0.839-0.356,1.504-0.356
			c0.604,0,1.054,0.071,1.35,0.214c0.295,0.144,0.504,0.325,0.624,0.545c0.121,0.221,0.181,0.624,0.181,1.212l-0.015,1.581
			c0,0.45,0.021,0.782,0.065,0.996s0.125,0.442,0.244,0.687h-1.34c-0.035-0.09-0.079-0.224-0.13-0.4
			c-0.022-0.08-0.039-0.133-0.048-0.159c-0.231,0.226-0.479,0.395-0.742,0.507c-0.264,0.112-0.545,0.168-0.844,0.168
			c-0.527,0-0.942-0.143-1.246-0.429c-0.304-0.286-0.456-0.647-0.456-1.084c0-0.29,0.069-0.548,0.207-0.774s0.332-0.399,0.581-0.521
			c0.249-0.12,0.608-0.226,1.077-0.315c0.633-0.119,1.072-0.229,1.316-0.333v-0.135c0-0.26-0.064-0.445-0.193-0.557
			C47.953,83.056,47.71,83,47.354,83c-0.241,0-0.429,0.047-0.564,0.142C46.655,83.237,46.545,83.403,46.462,83.641z M48.274,84.74
			c-0.173,0.058-0.448,0.127-0.824,0.207s-0.622,0.159-0.737,0.236c-0.177,0.125-0.265,0.284-0.265,0.477
			c0,0.19,0.07,0.354,0.212,0.492c0.141,0.138,0.321,0.207,0.54,0.207c0.244,0,0.477-0.08,0.699-0.241
			c0.164-0.122,0.271-0.271,0.323-0.448c0.036-0.115,0.053-0.335,0.053-0.66V84.74z"/>
		<path fill="#010101" d="M50.463,85.737l1.359-0.207c0.058,0.264,0.175,0.464,0.352,0.601s0.424,0.204,0.742,0.204
			c0.351,0,0.614-0.063,0.791-0.192c0.118-0.09,0.178-0.21,0.178-0.361c0-0.103-0.032-0.188-0.096-0.256
			c-0.067-0.064-0.219-0.123-0.453-0.178c-1.093-0.241-1.785-0.462-2.078-0.661c-0.405-0.276-0.607-0.66-0.607-1.151
			c0-0.443,0.175-0.816,0.525-1.118c0.351-0.303,0.894-0.453,1.63-0.453c0.7,0,1.221,0.114,1.562,0.342
			c0.341,0.229,0.575,0.565,0.704,1.013l-1.277,0.236c-0.055-0.199-0.159-0.353-0.312-0.458c-0.152-0.106-0.37-0.159-0.653-0.159
			c-0.356,0-0.611,0.05-0.766,0.149c-0.104,0.07-0.154,0.162-0.154,0.274c0,0.097,0.045,0.179,0.135,0.246
			c0.122,0.09,0.544,0.217,1.266,0.381c0.721,0.164,1.225,0.364,1.511,0.603c0.282,0.241,0.424,0.576,0.424,1.007
			c0,0.47-0.195,0.873-0.588,1.21c-0.392,0.338-0.972,0.506-1.74,0.506c-0.697,0-1.249-0.141-1.655-0.424
			C50.854,86.607,50.588,86.223,50.463,85.737z"/>
		<path fill="#010101" d="M55.953,85.737l1.359-0.207c0.058,0.264,0.175,0.464,0.352,0.601s0.424,0.204,0.742,0.204
			c0.351,0,0.614-0.063,0.791-0.192c0.118-0.09,0.178-0.21,0.178-0.361c0-0.103-0.032-0.188-0.096-0.256
			c-0.067-0.064-0.219-0.123-0.453-0.178c-1.093-0.241-1.785-0.462-2.078-0.661c-0.404-0.276-0.607-0.66-0.607-1.151
			c0-0.443,0.176-0.816,0.525-1.118c0.351-0.303,0.894-0.453,1.63-0.453c0.7,0,1.221,0.114,1.562,0.342
			c0.341,0.229,0.575,0.565,0.704,1.013l-1.277,0.236c-0.055-0.199-0.159-0.353-0.312-0.458c-0.152-0.106-0.37-0.159-0.653-0.159
			c-0.356,0-0.611,0.05-0.766,0.149c-0.104,0.07-0.154,0.162-0.154,0.274c0,0.097,0.045,0.179,0.135,0.246
			c0.122,0.09,0.544,0.217,1.266,0.381c0.721,0.164,1.225,0.364,1.511,0.603c0.282,0.241,0.424,0.576,0.424,1.007
			c0,0.47-0.195,0.873-0.588,1.21c-0.392,0.338-0.972,0.506-1.74,0.506c-0.697,0-1.249-0.141-1.655-0.424
			C56.344,86.607,56.078,86.223,55.953,85.737z"/>
		<path fill="#010101" d="M67.839,87.198h-1.354v-5.104c-0.494,0.463-1.078,0.805-1.749,1.026v-1.229
			c0.354-0.116,0.737-0.335,1.151-0.658c0.415-0.323,0.699-0.7,0.854-1.131h1.099V87.198z"/>
	</g>
	<path display="inline" fill="none" stroke="#010101" stroke-width="0.5" stroke-miterlimit="2.613" d="M52.155,29.774l8.58,11.391
		l8.579,11.393H52.155H34.999l8.581-11.393L52.155,29.774z M47.412,36.048H34.999l8.581-11.391l8.575-11.391l8.58,11.391
		l8.579,11.391H56.852 M26.015,5.808H78.3v57.051H26.015V5.808z"/>
</g>
<g display="none">
	<path display="inline" fill="#010101" d="M75.212,86.782c0,1.346-1.094,2.437-2.439,2.437h-49.02c-1.346,0-2.439-1.091-2.439-2.437
		V74.19c0-1.346,1.094-2.438,2.439-2.438h49.02c1.346,0,2.439,1.092,2.439,2.438V86.782z"/>
	<path display="inline" fill="#010101" d="M75.088,54.602h0.563c0.241,0,0.405,0.017,0.496,0.053
		c0.088,0.035,0.159,0.088,0.207,0.16c0.052,0.071,0.076,0.152,0.076,0.244c0,0.139-0.05,0.252-0.157,0.34
		c-0.104,0.084-0.298,0.125-0.585,0.125h-0.6V54.602z M75.088,57.249v-1.302h0.289c0.177,0,0.306,0.035,0.399,0.106
		c0.129,0.095,0.302,0.333,0.516,0.712l0.271,0.483h0.603l-0.373-0.599c-0.178-0.285-0.328-0.488-0.452-0.609
		c-0.065-0.062-0.151-0.115-0.259-0.162c0.263-0.019,0.475-0.111,0.634-0.279c0.16-0.166,0.241-0.358,0.241-0.583
		c0-0.16-0.049-0.309-0.144-0.45c-0.097-0.141-0.224-0.238-0.386-0.297c-0.161-0.055-0.42-0.084-0.78-0.084h-1.053v3.063H75.088z
		 M77.008,53.607c0.381,0.205,0.675,0.498,0.889,0.878c0.212,0.382,0.318,0.778,0.318,1.19c0,0.41-0.104,0.803-0.313,1.178
		c-0.207,0.379-0.5,0.672-0.878,0.879c-0.378,0.211-0.771,0.317-1.181,0.317c-0.41,0-0.804-0.106-1.182-0.317
		c-0.378-0.207-0.671-0.5-0.881-0.879c-0.209-0.375-0.314-0.768-0.314-1.178c0-0.412,0.108-0.809,0.321-1.19
		c0.212-0.38,0.511-0.673,0.888-0.878c0.378-0.203,0.769-0.307,1.168-0.307C76.24,53.301,76.628,53.404,77.008,53.607
		 M74.442,53.197c-0.455,0.244-0.811,0.595-1.064,1.052c-0.257,0.456-0.383,0.932-0.383,1.427c0,0.49,0.126,0.963,0.378,1.414
		c0.25,0.455,0.602,0.807,1.052,1.055c0.452,0.25,0.925,0.376,1.418,0.376c0.492,0,0.965-0.126,1.417-0.376
		c0.45-0.248,0.802-0.6,1.051-1.055c0.25-0.451,0.376-0.924,0.376-1.414c0-0.495-0.128-0.971-0.382-1.427
		c-0.253-0.457-0.607-0.808-1.064-1.052c-0.453-0.247-0.921-0.368-1.397-0.368C75.365,52.829,74.899,52.95,74.442,53.197"/>
	<g display="inline">
		<path fill="#010101" d="M23.834,56.026h3.649l4.762,6.996v-6.996h3.683v12.646h-3.683l-4.736-6.943v6.943h-3.675V56.026z"/>
		<path fill="#010101" d="M38.542,56.026h9.66v2.718h-5.735v2.207h4.899v2.554h-4.899v5.167h-3.925V56.026z"/>
		<path fill="#010101" d="M50.29,56.026h6.495c1.415,0,2.475,0.337,3.179,1.009c0.705,0.674,1.057,1.631,1.057,2.873
			c0,1.276-0.384,2.273-1.151,2.993c-0.768,0.719-1.939,1.078-3.515,1.078h-2.14v4.692H50.29V56.026z M54.215,61.418h0.958
			c0.753,0,1.282-0.131,1.587-0.393s0.457-0.597,0.457-1.006c0-0.396-0.132-0.732-0.396-1.009s-0.763-0.414-1.492-0.414h-1.113
			V61.418z"/>
		<path fill="#010101" d="M69.355,66.584h-4.437l-0.616,2.088h-3.99l4.753-12.646h4.263l4.752,12.646h-4.092L69.355,66.584z
			 M68.545,63.85l-1.396-4.545l-1.382,4.545H68.545z"/>
	</g>
	<path display="inline" fill="#010101" d="M30.266,10H66.26c2.143,0,4.085,0.873,5.493,2.281c1.407,1.408,2.284,3.352,2.284,5.493
		v27.041c0,2.136-0.877,4.075-2.284,5.483c-1.411,1.414-3.357,2.295-5.493,2.295h-6.497v-5.221h6.497
		c0.707,0,1.348-0.283,1.805-0.742c0.462-0.466,0.752-1.109,0.752-1.815V17.773c0-0.7-0.29-1.338-0.752-1.804
		c-0.464-0.462-1.104-0.752-1.805-0.752H30.266c-0.705,0-1.353,0.29-1.813,0.752c-0.46,0.459-0.745,1.097-0.745,1.804v27.041
		c0,0.701,0.288,1.339,0.756,1.805c0.461,0.462,1.099,0.752,1.803,0.752h8.657v5.221h-8.657c-2.143,0-4.089-0.873-5.495-2.287
		c-1.407-1.406-2.28-3.349-2.28-5.491V17.773c0-2.132,0.876-4.078,2.289-5.493C26.188,10.873,28.13,10,30.266,10"/>
	<path display="inline" fill="#EC2427" d="M42.272,47.823c0,0-3.608-2.922-2.92-7.646c0.687-4.727,3.349-7.822,1.204-11.945
		c0,0,5.068,5.668,5.84,8.163c0,0,0.174-2.75-0.427-4.299c-0.602-1.546-1.29-5.241,0.173-7.649c-0.93,4.292,5.325,8.42,6.271,13.149
		c0,0,3.011-0.773,1.979-10.055c0,0,8.681,8.768,2.662,19.508c0,0,0.086-2.664-0.258-3.781c0,0-2.491,7.221-6.445,10.141
		c2.188-6.408,0.294-6.822-0.858-11.773c0,0-1.858,6.104-1.978,10.572c0,0-3.567-1.98-4.729-8.939
		C42.292,44.835,42.171,46.239,42.272,47.823 M52.45,33.417c-2.594-5.4-6.839-7.78-3.991-15.244
		C48.73,24.581,54.32,25.801,52.45,33.417"/>
	<g display="inline">
		<path fill="#FFFFFF" d="M28.323,76.701h6.154v1.424c-0.535,0.482-0.982,1.006-1.341,1.568c-0.435,0.684-0.778,1.443-1.03,2.282
			c-0.2,0.652-0.334,1.423-0.403,2.313h-2.102c0.166-1.238,0.427-2.277,0.782-3.115c0.354-0.839,0.917-1.736,1.687-2.691h-3.747
			V76.701z"/>
		<path fill="#FFFFFF" d="M35.356,80.465c0-1.443,0.26-2.452,0.779-3.028s1.31-0.864,2.373-0.864c0.511,0,0.93,0.063,1.258,0.189
			c0.327,0.125,0.595,0.289,0.802,0.491s0.37,0.414,0.489,0.637c0.119,0.222,0.215,0.481,0.287,0.778
			c0.142,0.566,0.212,1.156,0.212,1.771c0,1.376-0.232,2.384-0.698,3.022s-1.269,0.957-2.407,0.957
			c-0.638,0-1.153-0.102-1.547-0.305s-0.716-0.502-0.968-0.896c-0.184-0.279-0.325-0.661-0.427-1.146
			C35.407,81.586,35.356,81.051,35.356,80.465z M37.447,80.47c0,0.966,0.086,1.626,0.257,1.979s0.418,0.53,0.742,0.53
			c0.214,0,0.399-0.075,0.557-0.226c0.157-0.149,0.272-0.387,0.347-0.711s0.111-0.83,0.111-1.517c0-1.007-0.086-1.685-0.256-2.031
			c-0.171-0.347-0.428-0.521-0.769-0.521c-0.349,0-0.601,0.178-0.756,0.531S37.447,79.514,37.447,80.47z"/>
		<path fill="#FFFFFF" d="M42.764,76.701h6.283v1.621h-3.934v1.205h3.648v1.548h-3.648v1.495h4.047v1.719h-6.396V76.701z"/>
	</g>
	<path display="inline" fill="none" stroke="#010101" d="M65.488,75.9"/>
	<path display="inline" fill="#FFCB0B" d="M55.969,88.468V72.504h16.804c0.93,0,1.688,0.757,1.688,1.687v12.592
		c0,0.931-0.758,1.686-1.688,1.686H55.969z"/>
	<g display="inline">
		<path fill="#010101" d="M60.739,82.994l0.235-0.742c0.414,0.113,0.722,0.303,0.923,0.567c0.2,0.265,0.301,0.601,0.301,1.009
			c0,0.503-0.172,0.917-0.516,1.242c-0.345,0.323-0.815,0.485-1.412,0.485c-0.631,0-1.122-0.163-1.471-0.489
			c-0.35-0.325-0.524-0.754-0.524-1.285c0-0.465,0.137-0.842,0.411-1.131c0.162-0.173,0.396-0.303,0.699-0.389l0.181,0.758
			c-0.196,0.045-0.352,0.139-0.466,0.281c-0.113,0.143-0.171,0.315-0.171,0.52c0,0.281,0.102,0.509,0.303,0.684
			c0.202,0.176,0.529,0.264,0.981,0.264c0.479,0,0.821-0.087,1.024-0.26c0.204-0.172,0.306-0.396,0.306-0.672
			c0-0.204-0.064-0.379-0.194-0.525C61.221,83.163,61.017,83.059,60.739,82.994z"/>
		<path fill="#010101" d="M62.134,78.174v0.833l-0.861,0.331v1.517l0.861,0.313v0.813l-3.794-1.479v-0.81L62.134,78.174z
			 M60.633,79.584l-1.407,0.522l1.407,0.513V79.584z"/>
		<path fill="#010101" d="M62.134,77.305h-3.152v1.127H58.34v-3.016h0.642v1.123h3.152V77.305z"/>
	</g>
	<g display="inline">
		<path fill="#010101" d="M66.736,78.476L64.079,78c0.221-0.848,0.646-1.496,1.273-1.947c0.628-0.45,1.517-0.676,2.667-0.676
			c1.32,0,2.275,0.246,2.864,0.738s0.883,1.111,0.883,1.856c0,0.437-0.119,0.833-0.358,1.187c-0.239,0.355-0.601,0.665-1.084,0.932
			c0.392,0.098,0.69,0.21,0.897,0.338c0.336,0.207,0.597,0.48,0.783,0.818s0.279,0.742,0.279,1.211c0,0.589-0.154,1.154-0.462,1.694
			c-0.309,0.54-0.753,0.957-1.332,1.249c-0.58,0.292-1.341,0.438-2.284,0.438c-0.92,0-1.646-0.108-2.178-0.325
			c-0.531-0.216-0.968-0.531-1.311-0.948s-0.606-0.939-0.79-1.569l2.809-0.373c0.11,0.565,0.281,0.958,0.514,1.176
			c0.232,0.219,0.528,0.328,0.887,0.328c0.377,0,0.691-0.138,0.942-0.414c0.251-0.275,0.376-0.645,0.376-1.104
			c0-0.47-0.121-0.833-0.362-1.091c-0.241-0.257-0.569-0.386-0.983-0.386c-0.221,0-0.524,0.055-0.911,0.165l0.146-2.009
			c0.156,0.023,0.278,0.035,0.365,0.035c0.368,0,0.675-0.117,0.921-0.352S69,78.459,69,78.137c0-0.308-0.093-0.554-0.276-0.738
			c-0.185-0.184-0.438-0.275-0.759-0.275c-0.332,0-0.601,0.1-0.808,0.301C66.95,77.623,66.81,77.975,66.736,78.476z"/>
	</g>
</g>
<g display="none">
	<path display="inline" fill="#F6F191" d="M46.618,74.17c-4.102-0.566-7.993-2.178-11.314-4.688L17.832,82.168L30.52,64.694
		c-2.506-3.318-4.123-7.21-4.689-11.309L4.508,50l21.322-3.383c0.567-4.105,2.183-7.995,4.689-11.313L17.832,17.835l17.471,12.686
		c3.319-2.509,7.209-4.124,11.312-4.693L50,4.508l3.381,21.319c4.109,0.569,7.997,2.184,11.318,4.693L82.17,17.831L69.48,35.304
		c2.514,3.322,4.125,7.215,4.69,11.313L95.492,50l-21.321,3.386c-0.565,4.096-2.177,7.985-4.69,11.309L82.17,82.17L64.699,69.481
		c-3.321,2.504-7.209,4.119-11.318,4.688L50,95.491L46.618,74.17z"/>
	<path display="inline" fill="#010101" d="M50,9.011l2.771,17.452c4.473,0.521,8.558,2.284,11.911,4.936l14.303-10.381l-10.384,14.3
		c2.656,3.356,4.419,7.442,4.938,11.917L90.987,50l-17.449,2.767c-0.519,4.471-2.281,8.556-4.938,11.915l10.384,14.303
		L64.682,68.598c-3.354,2.654-7.443,4.419-11.911,4.939L50,90.987l-2.767-17.45c-4.47-0.517-8.558-2.285-11.916-4.936L21.02,78.984
		l10.382-14.303c-2.655-3.359-4.422-7.444-4.939-11.915L9.012,50l17.45-2.766c0.518-4.475,2.285-8.561,4.939-11.917l-10.382-14.3
		l14.297,10.381c3.358-2.651,7.446-4.415,11.916-4.936L50,9.011z M50,0.002L50,0.002L48.607,8.79l-2.602,16.417
		c-3.863,0.617-7.525,2.137-10.704,4.435l-13.452-9.77l-7.199-5.224l5.224,7.199l9.77,13.454c-2.299,3.179-3.816,6.841-4.437,10.7
		L8.791,48.603L0,50l8.791,1.396l16.416,2.599c0.62,3.859,2.137,7.522,4.437,10.705l-9.77,13.454l-5.224,7.198l7.199-5.227
		l13.452-9.771c3.182,2.304,6.841,3.822,10.704,4.44l2.602,16.415L50,99.998l1.396-8.788l2.605-16.418
		c3.86-0.622,7.522-2.136,10.7-4.438l13.453,9.771l7.206,5.229l-5.234-7.201L70.355,64.7c2.303-3.186,3.818-6.846,4.438-10.705
		l16.416-2.599L100,50l-8.79-1.397l-16.416-2.601c-0.62-3.859-2.136-7.521-4.438-10.7l9.771-13.454l5.234-7.201l-7.206,5.226
		l-13.453,9.773c-3.178-2.301-6.843-3.818-10.7-4.438L51.396,8.79L50,0.002z"/>
	<path display="inline" fill="#010101" d="M63.303,67.844C54.05,73.128,46.89,77.99,47.306,78.71
		c0.42,0.716,8.259-2.988,17.508-8.272c9.255-5.28,16.409-10.141,15.994-10.859C80.391,58.86,72.553,62.56,63.303,67.844
		 M87.353,42.191c-0.745-1.293-14.773,5.402-31.328,14.959c-16.552,9.56-29.367,18.355-28.618,19.654
		c0.751,1.294,14.774-5.4,31.332-14.959C75.29,52.284,88.105,43.49,87.353,42.191 M59.799,62.934
		c-12.708,7.324-22.544,14.068-21.971,15.065c0.576,0.993,11.343-4.141,24.049-11.468c12.707-7.319,22.547-14.064,21.974-15.058
		C83.279,50.479,72.508,55.608,59.799,62.934"/>
	<rect x="36.646" y="44.325" display="inline" fill="#F6F191" width="7.646" height="11.6"/>
	<g display="inline">
		<defs>
			<rect id="SVGID_1_" x="36.646" y="44.325" width="7.646" height="11.596"/>
		</defs>
		<clipPath id="SVGID_2_">
			<use xlink:href="#SVGID_1_"  overflow="visible"/>
		</clipPath>
		<g clip-path="url(#SVGID_2_)">
			<path fill="#222114" d="M36.634,52.703l1.489-0.126c0.11,0.725,0.366,1.27,0.768,1.634c0.402,0.366,0.886,0.547,1.453,0.547
				c0.683,0,1.261-0.256,1.733-0.771c0.472-0.514,0.709-1.196,0.709-2.047c0-0.809-0.228-1.447-0.682-1.915
				c-0.455-0.467-1.049-0.7-1.784-0.7c-0.458,0-0.869,0.104-1.237,0.311c-0.368,0.208-0.657,0.477-0.867,0.808l-1.332-0.173
				l1.119-5.931h5.742v1.354h-4.608l-0.623,3.103c0.693-0.482,1.421-0.724,2.182-0.724c1.009,0,1.859,0.35,2.553,1.048
				c0.693,0.699,1.04,1.597,1.04,2.694c0,1.045-0.305,1.947-0.914,2.709c-0.741,0.935-1.751,1.402-3.033,1.402
				c-1.05,0-1.907-0.296-2.571-0.883C37.108,54.454,36.729,53.674,36.634,52.703z"/>
		</g>
	</g>
	<rect x="45.81" y="44.131" display="inline" fill="#F6F191" width="7.517" height="11.794"/>
	<g display="inline">
		<defs>
			<rect id="SVGID_3_" x="45.81" y="44.129" width="7.517" height="11.792"/>
		</defs>
		<clipPath id="SVGID_4_">
			<use xlink:href="#SVGID_3_"  overflow="visible"/>
		</clipPath>
		<g clip-path="url(#SVGID_4_)">
			<path fill="#010101" d="M45.799,50.033c0-1.365,0.14-2.464,0.421-3.296c0.282-0.833,0.699-1.474,1.252-1.926
				c0.555-0.451,1.252-0.677,2.092-0.677c0.62,0,1.163,0.125,1.63,0.374c0.467,0.25,0.854,0.609,1.158,1.079
				c0.305,0.47,0.544,1.043,0.716,1.718c0.174,0.674,0.261,1.584,0.261,2.729c0,1.354-0.139,2.448-0.418,3.28
				c-0.277,0.834-0.694,1.476-1.248,1.931c-0.554,0.453-1.253,0.682-2.099,0.682c-1.113,0-1.988-0.399-2.623-1.197
				C46.18,53.767,45.799,52.2,45.799,50.033z M47.256,50.033c0,1.897,0.223,3.158,0.666,3.785c0.444,0.627,0.991,0.94,1.643,0.94
				c0.65,0,1.198-0.314,1.643-0.943c0.443-0.631,0.666-1.891,0.666-3.782c0-1.901-0.223-3.164-0.666-3.789
				c-0.445-0.625-0.997-0.938-1.658-0.938c-0.652,0-1.171,0.275-1.56,0.827C47.5,46.837,47.256,48.138,47.256,50.033z"/>
		</g>
	</g>
	<g display="inline">
		<defs>
			<path id="SVGID_5_" d="M55.214,46.227v7.632h6.616c0.341-0.188,0.677-0.379,1.013-0.561v-7.071H55.214z"/>
		</defs>
		<clipPath id="SVGID_6_">
			<use xlink:href="#SVGID_5_"  overflow="visible"/>
		</clipPath>
		<rect x="55.214" y="46.227" clip-path="url(#SVGID_6_)" fill="#F6F191" width="7.629" height="7.632"/>
		<g clip-path="url(#SVGID_6_)">
			<path fill="#010101" d="M58.349,53.86v-3.167h-3.143v-1.323h3.143v-3.142h1.339v3.142h3.144v1.323h-3.144v3.167H58.349z"/>
		</g>
	</g>
	<g display="inline">
		<defs>
			<path id="SVGID_7_" d="M61.83,53.858h1.013v-0.561C62.507,53.479,62.171,53.67,61.83,53.858"/>
		</defs>
		<clipPath id="SVGID_8_">
			<use xlink:href="#SVGID_7_"  overflow="visible"/>
		</clipPath>
		<rect x="61.83" y="53.298" clip-path="url(#SVGID_8_)" fill="#010101" width="1.013" height="0.561"/>
		<g clip-path="url(#SVGID_8_)">
			<path fill="#010101" d="M58.349,53.86v-3.167h-3.143v-1.323h3.143v-3.142h1.339v3.142h3.144v1.323h-3.144v3.167H58.349z"/>
		</g>
	</g>
	<g display="inline">
		<path fill="#010101" d="M34.145,40.934v-4.244h3.069v0.501h-2.507v1.3h2.348v0.498h-2.348v1.444h2.606v0.501H34.145z"/>
		<path fill="#010101" d="M38.082,40.934v-4.244h0.576l2.229,3.333v-3.333h0.538v4.244H40.85l-2.229-3.335v3.335H38.082z"/>
		<path fill="#010101" d="M45.768,40.934h-0.521v-3.32c-0.125,0.12-0.291,0.239-0.495,0.359c-0.203,0.119-0.386,0.209-0.548,0.269
			v-0.503c0.292-0.138,0.546-0.304,0.765-0.498c0.217-0.195,0.372-0.385,0.463-0.567h0.335V40.934z"/>
		<path fill="#010101" d="M47.105,39.813l0.521-0.069c0.06,0.295,0.161,0.508,0.305,0.638c0.145,0.131,0.319,0.195,0.526,0.195
			c0.245,0,0.452-0.084,0.621-0.255c0.169-0.17,0.253-0.38,0.253-0.631c0-0.239-0.078-0.436-0.234-0.592
			c-0.156-0.155-0.355-0.232-0.596-0.232c-0.098,0-0.221,0.019-0.367,0.058l0.057-0.458c0.036,0.004,0.063,0.006,0.085,0.006
			c0.222,0,0.421-0.057,0.599-0.173c0.178-0.116,0.267-0.294,0.267-0.536c0-0.191-0.064-0.349-0.194-0.475
			c-0.129-0.126-0.295-0.188-0.5-0.188c-0.203,0-0.372,0.063-0.507,0.19c-0.136,0.129-0.223,0.319-0.26,0.574l-0.521-0.093
			c0.064-0.35,0.209-0.62,0.435-0.812c0.226-0.192,0.507-0.288,0.842-0.288c0.232,0,0.445,0.05,0.64,0.148
			c0.195,0.101,0.345,0.235,0.448,0.406c0.103,0.173,0.155,0.354,0.155,0.547c0,0.185-0.049,0.351-0.148,0.502
			c-0.099,0.15-0.244,0.27-0.437,0.359c0.25,0.057,0.445,0.178,0.585,0.359c0.138,0.183,0.208,0.41,0.208,0.686
			c0,0.369-0.134,0.685-0.405,0.942c-0.27,0.257-0.611,0.386-1.025,0.386c-0.372,0-0.681-0.11-0.928-0.332
			C47.28,40.454,47.14,40.166,47.105,39.813z"/>
		<path fill="#010101" d="M50.435,37.246v-0.502h2.748v0.405c-0.271,0.288-0.538,0.671-0.804,1.146
			c-0.267,0.478-0.472,0.967-0.614,1.471c-0.105,0.355-0.172,0.745-0.201,1.167h-0.535c0.006-0.334,0.071-0.737,0.196-1.211
			c0.125-0.472,0.307-0.928,0.541-1.367s0.482-0.809,0.747-1.109H50.435z"/>
		<path fill="#010101" d="M53.698,39.822l0.547-0.047c0.04,0.267,0.133,0.467,0.282,0.601c0.147,0.135,0.325,0.201,0.533,0.201
			c0.251,0,0.464-0.094,0.636-0.283c0.175-0.188,0.262-0.44,0.262-0.753c0-0.297-0.083-0.531-0.251-0.703
			c-0.167-0.172-0.385-0.258-0.656-0.258c-0.167,0-0.317,0.038-0.453,0.114s-0.242,0.176-0.319,0.298l-0.489-0.065l0.411-2.179h2.11
			v0.498h-1.692l-0.23,1.141c0.257-0.179,0.523-0.267,0.804-0.267c0.371,0,0.684,0.128,0.938,0.385
			c0.254,0.256,0.382,0.587,0.382,0.99c0,0.384-0.113,0.716-0.337,0.996c-0.272,0.343-0.645,0.515-1.114,0.515
			c-0.386,0-0.702-0.107-0.946-0.324S53.731,40.18,53.698,39.822z"/>
		<path fill="#010101" d="M57.795,38.632c-0.216-0.078-0.375-0.191-0.479-0.338c-0.105-0.146-0.156-0.322-0.156-0.527
			c0-0.31,0.11-0.568,0.332-0.779c0.223-0.21,0.518-0.314,0.887-0.314c0.371,0,0.668,0.107,0.894,0.322
			c0.228,0.216,0.339,0.477,0.339,0.786c0,0.197-0.051,0.368-0.155,0.514c-0.102,0.146-0.259,0.259-0.47,0.337
			c0.262,0.085,0.459,0.222,0.595,0.411c0.137,0.189,0.205,0.415,0.205,0.678c0,0.362-0.129,0.668-0.387,0.914
			c-0.256,0.248-0.593,0.371-1.012,0.371s-0.758-0.124-1.014-0.372s-0.384-0.557-0.384-0.928c0-0.276,0.069-0.507,0.209-0.693
			C57.337,38.827,57.538,38.7,57.795,38.632z M57.523,39.71c0,0.147,0.035,0.291,0.105,0.431c0.07,0.139,0.176,0.246,0.313,0.322
			c0.141,0.077,0.29,0.114,0.449,0.114c0.25,0,0.455-0.08,0.616-0.24c0.163-0.16,0.243-0.363,0.243-0.61
			c0-0.251-0.082-0.459-0.249-0.622c-0.167-0.164-0.377-0.247-0.626-0.247c-0.247,0-0.448,0.082-0.61,0.244
			C57.605,39.263,57.523,39.466,57.523,39.71z M57.692,37.749c0,0.201,0.063,0.365,0.192,0.492c0.131,0.128,0.298,0.191,0.505,0.191
			c0.201,0,0.364-0.063,0.494-0.19c0.128-0.126,0.191-0.28,0.191-0.464c0-0.191-0.067-0.352-0.198-0.482
			c-0.133-0.13-0.296-0.195-0.494-0.195s-0.363,0.063-0.494,0.19C57.757,37.42,57.692,37.572,57.692,37.749z"/>
		<path fill="#010101" d="M60.233,39.659v-0.523h1.602v0.523H60.233z"/>
		<path fill="#010101" d="M65.003,40.433v0.501h-2.805c-0.003-0.125,0.017-0.246,0.061-0.362c0.072-0.19,0.186-0.378,0.343-0.563
			c0.159-0.186,0.386-0.399,0.682-0.644c0.461-0.377,0.772-0.678,0.936-0.898s0.244-0.43,0.244-0.626
			c0-0.207-0.075-0.381-0.223-0.522c-0.147-0.144-0.341-0.214-0.577-0.214c-0.252,0-0.451,0.075-0.603,0.226
			c-0.15,0.151-0.227,0.359-0.229,0.626l-0.535-0.056c0.037-0.399,0.175-0.703,0.415-0.913c0.238-0.209,0.56-0.313,0.962-0.313
			c0.408,0,0.73,0.112,0.968,0.338c0.238,0.226,0.356,0.507,0.356,0.84c0,0.17-0.035,0.337-0.104,0.5
			c-0.069,0.165-0.186,0.337-0.346,0.52c-0.162,0.182-0.429,0.43-0.805,0.747c-0.313,0.262-0.512,0.44-0.601,0.533
			c-0.089,0.094-0.163,0.188-0.221,0.282H65.003z"/>
	</g>
	<g display="inline">
		<path fill="#010101" d="M36.518,52.996l1.485-0.126c0.111,0.723,0.366,1.268,0.767,1.631c0.4,0.363,0.884,0.546,1.45,0.546
			c0.68,0,1.256-0.256,1.729-0.771c0.471-0.514,0.708-1.193,0.708-2.042c0-0.808-0.228-1.444-0.68-1.909
			c-0.453-0.467-1.046-0.7-1.78-0.7c-0.456,0-0.867,0.103-1.234,0.311c-0.367,0.207-0.655,0.475-0.864,0.806l-1.328-0.173
			l1.116-5.916h5.728v1.351h-4.596l-0.621,3.096c0.691-0.481,1.417-0.723,2.176-0.723c1.006,0,1.854,0.349,2.546,1.045
			c0.691,0.697,1.037,1.593,1.037,2.688c0,1.043-0.303,1.943-0.912,2.703c-0.738,0.932-1.746,1.398-3.024,1.398
			c-1.048,0-1.903-0.293-2.566-0.88C36.991,54.743,36.612,53.965,36.518,52.996z"/>
		<path fill="#010101" d="M45.467,50.332c0-1.362,0.14-2.458,0.42-3.288c0.28-0.83,0.696-1.472,1.25-1.922
			c0.552-0.45,1.248-0.675,2.086-0.675c0.617,0,1.161,0.124,1.626,0.373c0.467,0.249,0.851,0.608,1.154,1.077
			c0.303,0.469,0.543,1.04,0.717,1.713c0.172,0.672,0.258,1.58,0.258,2.722c0,1.354-0.139,2.442-0.414,3.272
			c-0.279,0.83-0.693,1.473-1.247,1.925c-0.553,0.454-1.25,0.681-2.094,0.681c-1.111,0-1.983-0.398-2.617-1.193
			C45.846,54.056,45.467,52.497,45.467,50.332z M46.92,50.332c0,1.893,0.222,3.15,0.664,3.776c0.443,0.626,0.989,0.938,1.639,0.938
			s1.196-0.313,1.638-0.943c0.444-0.628,0.665-1.886,0.665-3.771c0-1.896-0.221-3.155-0.665-3.779
			c-0.442-0.624-0.994-0.935-1.653-0.935c-0.649,0-1.169,0.275-1.556,0.825C47.164,47.145,46.92,48.441,46.92,50.332z"/>
		<path fill="#010101" d="M57.78,54.15v-3.158h-3.135v-1.32h3.135v-3.135h1.334v3.135h3.136v1.32h-3.136v3.158H57.78z"/>
	</g>
</g>
<g>
	<path fill="#010101" d="M28.221,71.946h-9.597c-2.375,0-4.532-0.967-6.095-2.532C10.972,67.855,10,65.701,10,63.324v-43.98
		c0-2.366,0.975-4.523,2.542-6.09c1.559-1.561,3.713-2.53,6.082-2.53h62.749c2.378,0,4.529,0.969,6.092,2.53
		c1.559,1.56,2.535,3.717,2.535,6.09v43.98c0,2.369-0.977,4.519-2.535,6.081c-1.565,1.568-3.72,2.541-6.092,2.541H74.17H28.221z"/>
	<path fill="#FFCB0B" d="M11.39,27.241v-7.897c0-1.917,0.752-3.727,2.126-5.098c1.373-1.38,3.19-2.139,5.108-2.139h62.749
		c1.93,0,3.747,0.755,5.113,2.125c1.37,1.373,2.123,3.187,2.123,5.112v7.897H11.39z"/>
	<rect x="34.694" y="15.633" fill="#FFCB0B" width="30.611" height="8.414"/>
	<path fill="#FFCB0B" d="M18.625,70.558c-1.928,0-3.742-0.756-5.113-2.126c-1.369-1.373-2.122-3.188-2.122-5.11v-7.895h77.218v7.895
		c0,1.917-0.75,3.725-2.126,5.095c-1.374,1.38-3.188,2.142-5.109,2.142H18.625z"/>
	<rect x="28.534" y="58.71" fill="#FFCB0B" width="42.931" height="8.695"/>
	<rect x="48.375" y="58.427" fill="#FFCB0B" width="3.25" height="4.928"/>
	<g>
		<path fill="#010101" d="M35.052,23.98l3.236-8.427h1.202l3.449,8.427h-1.271l-0.983-2.552h-3.523l-0.925,2.552H35.052z
			 M37.483,20.52h2.857l-0.879-2.333c-0.269-0.709-0.468-1.292-0.598-1.748c-0.107,0.541-0.259,1.077-0.454,1.609L37.483,20.52z"/>
		<path fill="#010101" d="M45.103,23.98v-7.432h-2.776v-0.995h6.679v0.995h-2.788v7.432H45.103z"/>
		<path fill="#010101" d="M50.149,23.98v-8.427h3.179c0.559,0,0.986,0.027,1.281,0.081c0.414,0.069,0.76,0.2,1.041,0.394
			c0.279,0.194,0.504,0.465,0.676,0.813c0.17,0.349,0.254,0.732,0.254,1.149c0,0.717-0.227,1.323-0.684,1.819
			c-0.455,0.497-1.279,0.745-2.471,0.745h-2.162v3.426H50.149z M51.264,19.56h2.18c0.719,0,1.23-0.134,1.533-0.402
			c0.303-0.268,0.455-0.646,0.455-1.132c0-0.353-0.09-0.654-0.268-0.905s-0.412-0.417-0.703-0.497
			c-0.189-0.05-0.535-0.075-1.041-0.075h-2.156V19.56z"/>
		<path fill="#010101" d="M60.409,23.98l-3.265-8.427h1.207l2.19,6.122c0.176,0.491,0.323,0.951,0.442,1.38
			c0.13-0.46,0.281-0.92,0.454-1.38l2.276-6.122h1.138l-3.299,8.427H60.409z"/>
	</g>
	<g>
		<path fill="#010101" d="M34.68,64.334l1.115,0.281c-0.233,0.916-0.654,1.615-1.262,2.096s-1.35,0.721-2.227,0.721
			c-0.908,0-1.647-0.184-2.216-0.555c-0.569-0.369-1.002-0.904-1.299-1.605s-0.445-1.455-0.445-2.26
			c0-0.877,0.167-1.643,0.503-2.297c0.335-0.652,0.813-1.148,1.431-1.488c0.619-0.338,1.3-0.508,2.043-0.508
			c0.843,0,1.552,0.215,2.127,0.643c0.575,0.43,0.975,1.033,1.201,1.811l-1.098,0.26c-0.196-0.613-0.479-1.061-0.851-1.34
			s-0.839-0.42-1.402-0.42c-0.647,0-1.189,0.156-1.624,0.467c-0.435,0.311-0.74,0.727-0.917,1.25s-0.265,1.063-0.265,1.617
			c0,0.717,0.104,1.342,0.313,1.877c0.208,0.535,0.534,0.934,0.974,1.199c0.441,0.264,0.918,0.396,1.431,0.396
			c0.625,0,1.154-0.18,1.586-0.541C34.233,65.578,34.527,65.043,34.68,64.334z"/>
		<path fill="#010101" d="M36.244,67.289l3.236-8.428h1.202l3.449,8.428h-1.271l-0.983-2.553h-3.523l-0.925,2.553H36.244z
			 M38.675,63.828h2.857l-0.879-2.334c-0.269-0.709-0.468-1.291-0.598-1.746c-0.107,0.539-0.259,1.076-0.454,1.609L38.675,63.828z"
			/>
		<path fill="#010101" d="M44.975,67.289v-8.428h1.115v7.434h4.15v0.994H44.975z"/>
		<path fill="#010101" d="M50.66,67.432l2.444-8.713h0.826l-2.437,8.713H50.66z"/>
		<path fill="#010101" d="M60.852,64.334l1.115,0.281c-0.234,0.916-0.654,1.615-1.262,2.096s-1.351,0.721-2.228,0.721
			c-0.908,0-1.646-0.184-2.216-0.555c-0.569-0.369-1.002-0.904-1.299-1.605c-0.298-0.701-0.446-1.455-0.446-2.26
			c0-0.877,0.168-1.643,0.503-2.297c0.336-0.652,0.813-1.148,1.432-1.488c0.619-0.338,1.3-0.508,2.044-0.508
			c0.843,0,1.552,0.215,2.126,0.643c0.575,0.43,0.976,1.033,1.202,1.811l-1.099,0.26c-0.195-0.613-0.479-1.061-0.851-1.34
			c-0.371-0.279-0.839-0.42-1.402-0.42c-0.647,0-1.189,0.156-1.624,0.467s-0.74,0.727-0.917,1.25
			c-0.176,0.523-0.264,1.063-0.264,1.617c0,0.717,0.104,1.342,0.313,1.877s0.534,0.934,0.975,1.199
			c0.44,0.264,0.918,0.396,1.432,0.396c0.624,0,1.153-0.18,1.586-0.541C60.405,65.578,60.698,65.043,60.852,64.334z"/>
		<path fill="#010101" d="M63.306,67.289v-8.428h1.678l1.995,5.967c0.184,0.557,0.318,0.973,0.402,1.248
			c0.096-0.307,0.245-0.758,0.448-1.352l2.018-5.863h1.5v8.428h-1.074v-7.053l-2.449,7.053h-1.006l-2.438-7.174v7.174H63.306z"/>
	</g>
	<g>
		<path fill="#010101" d="M51.545,62.791v0.58h-3.247c-0.005-0.146,0.019-0.285,0.07-0.42c0.083-0.221,0.215-0.438,0.397-0.652
			s0.445-0.463,0.789-0.744c0.534-0.438,0.895-0.785,1.083-1.041s0.281-0.498,0.281-0.725c0-0.24-0.085-0.441-0.256-0.605
			s-0.394-0.246-0.668-0.246c-0.291,0-0.522,0.086-0.697,0.262c-0.174,0.174-0.263,0.414-0.265,0.723l-0.62-0.063
			c0.042-0.463,0.202-0.816,0.479-1.059c0.277-0.242,0.649-0.363,1.116-0.363c0.471,0,0.844,0.131,1.118,0.393
			c0.275,0.262,0.412,0.586,0.412,0.971c0,0.197-0.039,0.391-0.119,0.58c-0.082,0.191-0.215,0.391-0.4,0.6
			c-0.187,0.211-0.497,0.498-0.931,0.865c-0.362,0.305-0.594,0.51-0.697,0.619c-0.103,0.107-0.188,0.217-0.255,0.326H51.545z"/>
	</g>
	<g>
		<path fill="#010101" d="M21.819,84.844h-1.851l-0.736-1.914h-3.368l-0.696,1.914h-1.805l3.282-8.426h1.799L21.819,84.844z
			 M18.686,81.51l-1.161-3.127l-1.138,3.127H18.686z"/>
		<path fill="#010101" d="M22.29,82.102l1.655-0.16c0.1,0.557,0.302,0.963,0.606,1.225c0.305,0.26,0.716,0.391,1.233,0.391
			c0.548,0,0.96-0.115,1.238-0.348s0.417-0.504,0.417-0.813c0-0.199-0.059-0.369-0.175-0.51c-0.117-0.141-0.321-0.262-0.612-0.365
			c-0.199-0.068-0.653-0.191-1.362-0.367c-0.912-0.227-1.552-0.504-1.92-0.834c-0.517-0.463-0.776-1.029-0.776-1.695
			c0-0.43,0.122-0.83,0.365-1.205c0.243-0.373,0.594-0.658,1.052-0.854s1.011-0.293,1.658-0.293c1.058,0,1.854,0.232,2.388,0.695
			c0.535,0.465,0.815,1.084,0.842,1.857L27.199,78.9c-0.073-0.434-0.229-0.744-0.468-0.934s-0.599-0.285-1.078-0.285
			c-0.495,0-0.881,0.102-1.161,0.305c-0.18,0.131-0.27,0.305-0.27,0.523c0,0.199,0.084,0.369,0.253,0.512
			c0.214,0.18,0.735,0.367,1.563,0.563c0.828,0.195,1.439,0.398,1.836,0.607c0.396,0.209,0.707,0.494,0.931,0.855
			c0.224,0.363,0.336,0.811,0.336,1.344c0,0.482-0.134,0.934-0.402,1.355c-0.268,0.422-0.647,0.734-1.138,0.939
			c-0.491,0.205-1.102,0.309-1.834,0.309c-1.065,0-1.883-0.246-2.454-0.738C22.742,83.764,22.401,83.045,22.29,82.102z"/>
		<path fill="#010101" d="M32.47,84.844v-7h-2.5v-1.426h6.696v1.426h-2.495v7H32.47z"/>
		<path fill="#010101" d="M37.741,84.844v-8.426h2.546l1.529,5.748l1.512-5.748h2.552v8.426h-1.581v-6.633l-1.673,6.633h-1.638
			l-1.667-6.633v6.633H37.741z"/>
		<path fill="#010101" d="M50.853,84.844v-8.426h5.776v1.426h-4.075v1.994h3.518v1.426h-3.518v3.58H50.853z"/>
		<path fill="#010101" d="M65.079,84.844h-1.615v-6.086c-0.59,0.551-1.285,0.959-2.086,1.223v-1.465
			c0.421-0.139,0.879-0.4,1.373-0.785c0.495-0.385,0.834-0.834,1.018-1.348h1.311V84.844z"/>
		<path fill="#010101" d="M67.527,82.896l1.563-0.174c0.039,0.318,0.139,0.555,0.299,0.707c0.161,0.154,0.374,0.23,0.639,0.23
			c0.333,0,0.617-0.152,0.851-0.459s0.383-0.943,0.448-1.91c-0.406,0.473-0.914,0.707-1.523,0.707c-0.663,0-1.234-0.256-1.716-0.766
			c-0.48-0.512-0.721-1.178-0.721-1.998c0-0.855,0.253-1.543,0.761-2.066s1.155-0.785,1.94-0.785c0.854,0,1.556,0.33,2.104,0.992
			c0.548,0.66,0.822,1.748,0.822,3.262c0,1.541-0.285,2.652-0.856,3.334s-1.314,1.023-2.23,1.023c-0.659,0-1.191-0.176-1.598-0.527
			C67.903,84.117,67.643,83.594,67.527,82.896z M71.184,79.367c0-0.521-0.12-0.926-0.359-1.213c-0.239-0.289-0.517-0.432-0.83-0.432
			c-0.3,0-0.548,0.117-0.745,0.354s-0.296,0.621-0.296,1.158c0,0.543,0.107,0.943,0.322,1.197c0.214,0.256,0.482,0.383,0.805,0.383
			c0.311,0,0.571-0.123,0.784-0.367C71.077,80.201,71.184,79.842,71.184,79.367z"/>
		<path fill="#010101" d="M74.063,82.678l1.609-0.168c0.046,0.365,0.182,0.652,0.408,0.865c0.226,0.213,0.486,0.32,0.781,0.32
			c0.337,0,0.623-0.137,0.856-0.412c0.233-0.273,0.351-0.686,0.351-1.238c0-0.518-0.116-0.906-0.348-1.164s-0.533-0.389-0.905-0.389
			c-0.464,0-0.88,0.205-1.247,0.615l-1.311-0.189l0.827-4.385h4.271v1.512h-3.047l-0.253,1.43c0.36-0.18,0.729-0.27,1.104-0.27
			c0.717,0,1.324,0.262,1.822,0.781c0.498,0.521,0.747,1.199,0.747,2.029c0,0.693-0.201,1.313-0.604,1.857
			c-0.548,0.744-1.309,1.115-2.282,1.115c-0.777,0-1.412-0.209-1.902-0.627S74.159,83.383,74.063,82.678z"/>
		<path fill="#010101" d="M80.621,82.896l1.563-0.174c0.039,0.318,0.139,0.555,0.299,0.707c0.161,0.154,0.374,0.23,0.639,0.23
			c0.333,0,0.617-0.152,0.851-0.459s0.383-0.943,0.448-1.91c-0.406,0.473-0.914,0.707-1.523,0.707c-0.663,0-1.234-0.256-1.716-0.766
			c-0.48-0.512-0.721-1.178-0.721-1.998c0-0.855,0.253-1.543,0.761-2.066s1.155-0.785,1.94-0.785c0.854,0,1.556,0.33,2.104,0.992
			c0.548,0.66,0.822,1.748,0.822,3.262c0,1.541-0.285,2.652-0.856,3.334s-1.314,1.023-2.23,1.023c-0.659,0-1.191-0.176-1.598-0.527
			C80.997,84.117,80.736,83.594,80.621,82.896z M84.277,79.367c0-0.521-0.12-0.926-0.359-1.213c-0.239-0.289-0.517-0.432-0.83-0.432
			c-0.3,0-0.548,0.117-0.745,0.354s-0.296,0.621-0.296,1.158c0,0.543,0.107,0.943,0.322,1.197c0.214,0.256,0.482,0.383,0.805,0.383
			c0.311,0,0.571-0.123,0.784-0.367C84.171,80.201,84.277,79.842,84.277,79.367z"/>
	</g>
	<g>
		<path fill="#FFFFFF" d="M48.972,49.542H35.02c0.16-1.377,0.645-2.673,1.456-3.888c0.811-1.214,2.331-2.647,4.561-4.299
			c1.363-1.012,2.234-1.781,2.615-2.306c0.38-0.525,0.571-1.023,0.571-1.496c0-0.51-0.188-0.946-0.565-1.307
			c-0.377-0.362-0.851-0.542-1.421-0.542c-0.594,0-1.079,0.187-1.456,0.56c-0.376,0.373-0.63,1.031-0.759,1.975l-4.658-0.377
			c0.183-1.309,0.518-2.331,1.005-3.065c0.487-0.734,1.174-1.298,2.061-1.69c0.887-0.392,2.114-0.588,3.682-0.588
			c1.637,0,2.91,0.187,3.819,0.56s1.625,0.946,2.146,1.718s0.782,1.638,0.782,2.598c0,1.02-0.299,1.994-0.896,2.923
			s-1.684,1.948-3.26,3.06c-0.936,0.647-1.562,1.1-1.878,1.359s-0.687,0.598-1.113,1.016h7.262V49.542z"/>
		<path fill="#FFFFFF" d="M64.419,36.571l-4.624,0.571c-0.122-0.647-0.325-1.104-0.61-1.37c-0.286-0.266-0.638-0.399-1.057-0.399
			c-0.753,0-1.34,0.38-1.758,1.142c-0.305,0.548-0.529,1.72-0.674,3.517c0.556-0.563,1.126-0.98,1.713-1.25
			c0.586-0.271,1.263-0.405,2.032-0.405c1.491,0,2.753,0.533,3.785,1.598c1.031,1.066,1.547,2.417,1.547,4.053
			c0,1.104-0.261,2.112-0.782,3.026c-0.521,0.913-1.244,1.604-2.17,2.072c-0.925,0.468-2.083,0.702-3.477,0.702
			c-1.674,0-3.018-0.286-4.03-0.856c-1.012-0.571-1.82-1.482-2.426-2.734s-0.908-2.91-0.908-4.973c0-3.021,0.635-5.235,1.907-6.639
			s3.033-2.106,5.286-2.106c1.332,0,2.385,0.154,3.157,0.462s1.413,0.759,1.924,1.353C63.765,34.927,64.152,35.673,64.419,36.571z
			 M55.856,44.027c0,0.906,0.229,1.616,0.685,2.129c0.457,0.514,1.017,0.771,1.679,0.771c0.608,0,1.119-0.232,1.53-0.696
			c0.41-0.464,0.616-1.157,0.616-2.078c0-0.943-0.213-1.663-0.64-2.158c-0.426-0.495-0.955-0.742-1.587-0.742
			c-0.647,0-1.189,0.24-1.627,0.719S55.856,43.136,55.856,44.027z"/>
	</g>
</g>
</svg>
