<?xml version="1.0" encoding="utf-8"?>
<!-- Generator: Adobe Illustrator 16.0.0, SVG Export Plug-In . SVG Version: 6.00 Build 0)  -->
<!DOCTYPE svg PUBLIC "-//W3C//DTD SVG 1.1//EN" "http://www.w3.org/Graphics/SVG/1.1/DTD/svg11.dtd">
<svg version="1.1" id="Layer_1" xmlns="http://www.w3.org/2000/svg" xmlns:xlink="http://www.w3.org/1999/xlink" x="0px" y="0px"
	 width="100px" height="100px" viewBox="0 0 100 100" enable-background="new 0 0 100 100" xml:space="preserve">
<rect x="-1030.5" y="-358.424" fill="none" width="1190.55" height="822.047"/>
<g>
	<polyline fill="none" stroke="#010101" stroke-width="0.73" stroke-miterlimit="3.864" points="47.204,16.1 38.294,39.086 
		56.586,28.765 47.675,52.69 33.131,52.69 62.685,52.69 	"/>
	<path fill="#010101" d="M45.045,16.336c0-1.945,1.574-3.519,3.523-3.519c1.94,0,3.513,1.573,3.513,3.519
		c0,1.941-1.573,3.52-3.513,3.52C46.619,19.856,45.045,18.278,45.045,16.336"/>
	<path fill="none" stroke="#010101" stroke-width="0.216" stroke-miterlimit="3.864" d="M45.045,16.336
		c0-1.945,1.574-3.519,3.523-3.519c1.94,0,3.513,1.573,3.513,3.519c0,1.941-1.573,3.52-3.513,3.52
		C46.619,19.856,45.045,18.278,45.045,16.336z"/>
	<path fill="none" stroke="#010101" stroke-width="0.361" stroke-miterlimit="3.864" d="M47.903,71.661
		c0,0-21.686-6.775-24.711-35.95l-0.207-28.91h49.859l-0.213,28.91C69.605,64.886,47.903,71.661,47.903,71.661z"/>
	<g>
		<path fill="#010101" d="M22.151,86.207v-8.053h5.97v1.362h-4.344v1.785h4.042v1.356h-4.042v2.191h4.499v1.357H22.151z"/>
		<path fill="#010101" d="M29.67,86.207v-8.053h1.582l3.295,5.376v-5.376h1.51v8.053h-1.63l-3.246-5.251v5.251H29.67z"/>
		<path fill="#010101" d="M44.511,86.207h-1.543V80.39c-0.564,0.528-1.229,0.917-1.994,1.17v-1.4
			c0.403-0.133,0.841-0.381,1.313-0.75c0.472-0.368,0.797-0.797,0.972-1.288h1.252V86.207z"/>
		<path fill="#010101" d="M50.149,86.207h-1.544V80.39c-0.564,0.528-1.229,0.917-1.994,1.17v-1.4
			c0.403-0.133,0.841-0.381,1.313-0.75c0.473-0.368,0.797-0.797,0.972-1.288h1.253V86.207z"/>
		<path fill="#010101" d="M55.482,86.207v-1.622h-3.296v-1.351l3.494-5.113h1.295v5.108h1.001v1.355h-1.001v1.622H55.482z
			 M55.482,83.229v-2.752l-1.852,2.752H55.482z"/>
		<path fill="#010101" d="M58.744,84.344l1.494-0.164c0.036,0.304,0.132,0.528,0.286,0.676c0.154,0.146,0.357,0.219,0.609,0.219
			c0.318,0,0.59-0.146,0.813-0.438c0.223-0.294,0.366-0.902,0.428-1.824c-0.388,0.451-0.873,0.677-1.455,0.677
			c-0.635,0-1.181-0.244-1.64-0.733c-0.46-0.489-0.69-1.125-0.69-1.909c0-0.816,0.243-1.475,0.729-1.976
			c0.485-0.499,1.104-0.749,1.854-0.749c0.817,0,1.486,0.316,2.011,0.948c0.523,0.631,0.785,1.669,0.785,3.116
			c0,1.472-0.272,2.533-0.818,3.186s-1.257,0.978-2.131,0.978c-0.63,0-1.139-0.167-1.526-0.502
			C59.104,85.511,58.855,85.011,58.744,84.344z M62.238,80.972c0-0.498-0.115-0.885-0.345-1.159
			c-0.229-0.274-0.492-0.411-0.792-0.411c-0.286,0-0.524,0.112-0.712,0.338c-0.188,0.225-0.283,0.593-0.283,1.106
			c0,0.52,0.104,0.901,0.308,1.146c0.204,0.243,0.461,0.365,0.77,0.365c0.297,0,0.547-0.117,0.749-0.353
			C62.137,81.771,62.238,81.427,62.238,80.972z"/>
		<path fill="#010101" d="M65.121,84.059v-1.544h3.032v1.544H65.121z"/>
		<path fill="#010101" d="M68.736,84.136l1.537-0.16c0.044,0.349,0.174,0.625,0.39,0.827c0.217,0.204,0.466,0.306,0.747,0.306
			c0.323,0,0.595-0.131,0.818-0.394c0.224-0.262,0.335-0.656,0.335-1.185c0-0.493-0.11-0.864-0.333-1.11
			c-0.22-0.248-0.51-0.372-0.864-0.372c-0.442,0-0.84,0.196-1.191,0.588l-1.253-0.182l0.791-4.19h4.081v1.445h-2.91l-0.241,1.367
			c0.343-0.172,0.694-0.259,1.054-0.259c0.684,0,1.265,0.249,1.741,0.748c0.476,0.498,0.714,1.144,0.714,1.938
			c0,0.662-0.192,1.254-0.577,1.774c-0.523,0.709-1.25,1.064-2.181,1.064c-0.743,0-1.35-0.199-1.817-0.598
			C69.107,85.346,68.826,84.81,68.736,84.136z"/>
	</g>
</g>
</svg>
