<?xml version="1.0" encoding="utf-8"?>
<!-- Generator: Adobe Illustrator 16.0.0, SVG Export Plug-In . SVG Version: 6.00 Build 0)  -->
<!DOCTYPE svg PUBLIC "-//W3C//DTD SVG 1.1//EN" "http://www.w3.org/Graphics/SVG/1.1/DTD/svg11.dtd">
<svg version="1.1" xmlns="http://www.w3.org/2000/svg" xmlns:xlink="http://www.w3.org/1999/xlink" x="0px" y="0px" width="100px"
	 height="100px" viewBox="0 0 100 100" enable-background="new 0 0 100 100" xml:space="preserve">
<g id="Layer_1" display="none">
	<g display="inline">
		<g>
			<path fill="#010101" d="M29.354,10.545c0,0-26.249,0-26.632,27.96c0,0,0,22.672,26.632,24.371v-9.445
				c0,0-18.694-0.185-17.748-18.89c0,0,0.746-13.221,17.748-14.355V10.545z"/>
			<path fill="#010101" d="M63.927,10.545c0,0-26.259,0-26.632,27.96c0,0,0,22.672,26.632,24.371v-9.445
				c0,0-18.702-0.185-17.758-18.89c0,0,0.759-13.221,17.758-14.355V10.545z"/>
			<rect x="44.469" y="31.895" fill="#010101" width="17.385" height="8.874"/>
		</g>
		<g>
			<path fill="#010101" d="M21.283,78.959c0-1.391-0.28-1.991-1.148-1.991c-0.961,0-1.202,0.962-1.202,3.673
				c0,2.886,0.401,3.406,1.229,3.406c0.681,0,1.202-0.347,1.202-2.418h1.923c0,2.071-0.507,3.834-3.032,3.834
				c-2.885,0-3.246-2.057-3.246-4.955c0-2.899,0.361-4.956,3.246-4.956c2.752,0,2.952,2.017,2.952,3.407H21.283z"/>
			<path fill="#010101" d="M26.009,75.739h2.377l2.525,9.537h-2.004l-0.44-2.017h-2.538l-0.441,2.017h-2.003L26.009,75.739z
				 M26.263,81.683h1.87l-0.921-4.287h-0.027L26.263,81.683z"/>
			<path fill="#010101" d="M36.438,75.739v1.575h-2.083v7.962h-1.923v-7.962h-2.083v-1.575H36.438z"/>
			<path fill="#010101" d="M40.561,85.276v-9.537h1.923v9.537H40.561z"/>
			<path fill="#010101" d="M44.006,85.276v-9.537h1.923v9.537H44.006z"/>
			<path fill="#010101" d="M47.451,85.276v-9.537h1.923v9.537H47.451z"/>
		</g>
		<g>
			<path fill="#010101" d="M76.372,41.472h-5.823c0-1.684,0.682-2.845,2.085-4.141l0.773-0.722c0.855-0.748,0.989-1.202,0.989-2.164
				c0-0.788-0.307-1.176-0.936-1.176c-0.948,0-1.068,0.842-1.068,1.844h-1.844v-0.361c0-1.763,0.909-2.738,2.939-2.738
				c1.909,0,2.831,0.935,2.831,2.578c0,1.229-0.4,2.043-1.469,3.005l-1.069,0.988c-0.574,0.521-0.881,1.029-0.975,1.389h3.565
				V41.472z"/>
			<path fill="#010101" d="M78.507,36.463v-0.027c-1.028-0.253-1.361-1.148-1.361-1.816c0-1.856,1.055-2.604,2.778-2.604
				c1.722,0,2.777,0.748,2.777,2.604c0,0.668-0.361,1.563-1.362,1.816v0.027c1.068,0.214,1.603,1.149,1.603,2.338
				c0,1.082-0.387,2.858-3.018,2.858c-2.632,0-3.02-1.776-3.02-2.858C76.904,37.612,77.438,36.677,78.507,36.463z M79.924,40.404
				c0.867,0,1.095-0.722,1.095-1.63c0-0.908-0.228-1.629-1.095-1.629c-0.869,0-1.097,0.722-1.097,1.629
				C78.827,39.682,79.055,40.404,79.924,40.404z M79.924,35.889c0.574,0,0.934-0.427,0.934-1.322c0-0.868-0.307-1.296-0.934-1.296
				c-0.628,0-0.937,0.428-0.937,1.296C78.987,35.461,79.349,35.889,79.924,35.889z"/>
			<path fill="#010101" d="M85.384,39.268c0,0.708,0.228,1.136,0.867,1.136c1.016,0,1.176-1.015,1.176-2.405v-0.454H87.4
				c-0.321,0.481-0.935,0.801-1.777,0.801c-1.669,0-2.311-1.242-2.311-2.952c0-2.178,0.936-3.379,3.059-3.379
				c2.632,0,2.979,2.11,2.979,4.421c0,2.685-0.065,5.223-3.178,5.223c-1.363,0-2.592-0.574-2.632-2.391H85.384z M86.277,36.931
				c0.762,0,1.056-0.508,1.056-1.79c0-1.082-0.16-1.87-1.056-1.87c-0.92,0-1.041,0.801-1.041,1.87
				C85.236,36.423,85.53,36.931,86.277,36.931z"/>
			<path fill="#010101" d="M95.212,33.698h-3.486l-0.201,2.15h0.026c0.361-0.495,0.922-0.708,1.736-0.708
				c1.817,0,2.311,1.523,2.311,3.019c0,2.084-0.613,3.5-3.031,3.5c-2.404,0-2.792-1.563-2.792-2.631v-0.254h1.844
				c0,0.628,0.107,1.55,0.936,1.55c0.788,0,1.121-0.615,1.121-1.843c0-1.563-0.254-2.003-1.108-2.003
				c-0.547,0-0.841,0.333-0.908,0.868h-1.724l0.348-5.143h4.93V33.698z"/>
		</g>
	</g>
</g>
<g id="Layer_2" display="none">
	<g display="inline">
		<path fill="#010101" d="M21.419,68.519v1.042h-2.253v1.484h2.121v1.042h-2.121v1.696h2.341v1.043h-3.613v-6.308H21.419z"/>
		<path fill="#010101" d="M23.612,68.519l1.538,4.319h0.018v-4.319h1.166v6.308h-1.449l-1.555-4.417h-0.018v4.417h-1.166v-6.308
			H23.612z"/>
		<path fill="#010101" d="M29.401,74.826v-6.308h1.272v6.308H29.401z"/>
		<path fill="#010101" d="M32.645,72.856v0.186c0,0.592,0.167,0.972,0.839,0.972c0.389,0,0.76-0.248,0.76-0.777
			c0-0.565-0.283-0.796-1.131-1.078c-1.131-0.38-1.652-0.866-1.652-1.908c0-1.237,0.742-1.855,1.953-1.855
			c1.131,0,1.952,0.485,1.952,1.696v0.177h-1.219c0-0.601-0.194-0.937-0.689-0.937c-0.574,0-0.724,0.354-0.724,0.733
			c0,0.389,0.115,0.636,0.653,0.856l0.981,0.425c0.954,0.424,1.202,0.892,1.202,1.669c0,1.334-0.813,1.936-2.191,1.936
			c-1.44,0-2.005-0.672-2.005-1.838v-0.256H32.645z"/>
		<path fill="#010101" d="M38.221,68.395c1.908,0,2.147,1.36,2.147,3.277s-0.239,3.278-2.147,3.278s-2.147-1.361-2.147-3.278
			S36.313,68.395,38.221,68.395z M38.221,74.014c0.751,0,0.875-0.646,0.875-2.342c0-1.688-0.124-2.341-0.875-2.341
			s-0.875,0.653-0.875,2.341C37.346,73.368,37.47,74.014,38.221,74.014z"/>
		<path fill="#010101" d="M44.407,74.826v-4.417h-1.246v-0.831h0.115c0.839,0,1.334-0.309,1.467-1.007h0.937v6.255H44.407z"/>
		<path fill="#010101" d="M48.649,74.826v-4.417h-1.246v-0.831h0.115c0.839,0,1.334-0.309,1.467-1.007h0.937v6.255H48.649z"/>
		<path fill="#010101" d="M54.031,70.161c0-0.485-0.15-0.76-0.574-0.76c-0.672,0-0.777,0.672-0.777,1.591v0.309h0.018
			c0.213-0.326,0.619-0.539,1.176-0.539c1.104,0,1.527,0.822,1.527,1.953c0,1.439-0.617,2.235-2.023,2.235
			c-1.748,0-1.969-1.396-1.969-2.925c0-1.767,0.035-3.454,2.102-3.454c0.902,0,1.715,0.389,1.74,1.59H54.031z M53.439,74.119
			c0.609,0,0.689-0.53,0.689-1.236c0-0.849-0.195-1.185-0.689-1.185c-0.504,0-0.697,0.336-0.697,1.185
			C52.742,73.598,52.848,74.119,53.439,74.119z"/>
		<path fill="#010101" d="M57.135,74.826v-4.417h-1.246v-0.831h0.115c0.838,0,1.334-0.309,1.465-1.007h0.938v6.255H57.135z"/>
		<path fill="#010101" d="M63.779,74.826h-3.852c0-1.113,0.449-1.882,1.377-2.739l0.514-0.477c0.564-0.495,0.652-0.795,0.652-1.432
			c0-0.521-0.203-0.777-0.617-0.777c-0.627,0-0.707,0.557-0.707,1.22h-1.219v-0.239c0-1.166,0.6-1.811,1.943-1.811
			c1.264,0,1.873,0.618,1.873,1.705c0,0.813-0.266,1.352-0.973,1.987l-0.707,0.654c-0.379,0.345-0.582,0.68-0.645,0.919h2.359
			V74.826z"/>
		<path fill="#010101" d="M64.488,70.224h1.166v1.378h-1.166V70.224z M64.488,73.448h1.166v1.378h-1.166V73.448z"/>
		<path fill="#010101" d="M70.143,74.826h-3.852c0-1.113,0.449-1.882,1.377-2.739l0.514-0.477c0.564-0.495,0.652-0.795,0.652-1.432
			c0-0.521-0.203-0.777-0.617-0.777c-0.627,0-0.707,0.557-0.707,1.22h-1.219v-0.239c0-1.166,0.6-1.811,1.943-1.811
			c1.264,0,1.873,0.618,1.873,1.705c0,0.813-0.266,1.352-0.973,1.987l-0.707,0.654c-0.379,0.345-0.582,0.68-0.645,0.919h2.359
			V74.826z"/>
		<path fill="#010101" d="M72.494,68.571c1.52,0,1.961,0.821,1.961,3.039c0,1.731-0.098,3.34-1.961,3.34
			c-1.52,0-1.961-0.822-1.961-3.039C70.533,70.179,70.629,68.571,72.494,68.571z M71.805,72.185c0,1.581,0.15,1.935,0.689,1.935
			c0.557,0,0.689-0.494,0.689-2.103v-0.681c0-1.581-0.15-1.935-0.689-1.935c-0.557,0-0.689,0.495-0.689,2.103V72.185z"/>
		<path fill="#010101" d="M76.225,74.826v-4.417h-1.246v-0.831h0.115c0.838,0,1.334-0.309,1.465-1.007h0.938v6.255H76.225z"/>
		<path fill="#010101" d="M82.613,69.685h-2.307l-0.133,1.422h0.018c0.238-0.326,0.609-0.468,1.148-0.468
			c1.203,0,1.529,1.007,1.529,1.996c0,1.379-0.406,2.315-2.006,2.315c-1.59,0-1.846-1.034-1.846-1.741v-0.167h1.219
			c0,0.415,0.07,1.024,0.619,1.024c0.52,0,0.742-0.406,0.742-1.219c0-1.034-0.168-1.326-0.734-1.326
			c-0.361,0-0.557,0.222-0.602,0.575h-1.139l0.23-3.402h3.26V69.685z"/>
	</g>
	<g display="inline">
		<path fill="#010101" d="M25.309,79.124h1.572l1.67,6.308h-1.325l-0.292-1.334h-1.679l-0.292,1.334h-1.325L25.309,79.124z
			 M25.477,83.055h1.237l-0.61-2.836h-0.018L25.477,83.055z"/>
		<path fill="#010101" d="M30.161,85.432v-4.417h-1.246v-0.831h0.115c0.839,0,1.334-0.309,1.467-1.007h0.937v6.255H30.161z"/>
		<path fill="#010101" d="M36.586,79.124h1.572l1.67,6.308h-1.325l-0.292-1.334h-1.679l-0.292,1.334h-1.325L36.586,79.124z
			 M36.753,83.055h1.237l-0.61-2.836h-0.018L36.753,83.055z"/>
		<path fill="#010101" d="M43.841,85.432h-3.852c0-1.113,0.45-1.882,1.378-2.739l0.513-0.477c0.565-0.495,0.654-0.795,0.654-1.432
			c0-0.521-0.203-0.777-0.619-0.777c-0.627,0-0.707,0.557-0.707,1.22h-1.219v-0.239c0-1.166,0.601-1.811,1.943-1.811
			c1.264,0,1.873,0.618,1.873,1.705c0,0.813-0.265,1.352-0.972,1.987l-0.707,0.654c-0.38,0.345-0.583,0.68-0.645,0.919h2.359V85.432
			z"/>
		<path fill="#010101" d="M46.635,79.124h2.129c1.042,0,1.793,0.389,1.793,1.599c0,0.681-0.318,1.201-0.954,1.378v0.018
			c0.707,0.098,1.148,0.619,1.148,1.467c0,0.989-0.486,1.847-1.97,1.847h-2.146V79.124z M47.907,81.712h0.362
			c0.707,0,1.016-0.229,1.016-0.83s-0.283-0.821-0.919-0.821h-0.459V81.712z M47.907,84.495h0.495c0.61,0,1.025-0.221,1.025-0.954
			s-0.415-0.945-0.972-0.945h-0.548V84.495z"/>
		<path fill="#010101" d="M52.715,85.432v-4.417h-1.246v-0.831h0.115c0.84,0,1.334-0.309,1.467-1.007h0.936v6.255H52.715z"/>
		<path fill="#010101" d="M60.607,81.253c0-0.919-0.186-1.316-0.76-1.316c-0.637,0-0.797,0.636-0.797,2.43
			c0,1.908,0.266,2.253,0.814,2.253c0.449,0,0.795-0.23,0.795-1.6h1.271c0,1.369-0.336,2.536-2.006,2.536
			c-1.908,0-2.146-1.361-2.146-3.278S58.018,79,59.926,79c1.82,0,1.953,1.334,1.953,2.253H60.607z"/>
		<path fill="#010101" d="M63.824,85.432v-4.417h-1.246v-0.831h0.115c0.84,0,1.334-0.309,1.467-1.007h0.936v6.255H63.824z"/>
		<path fill="#010101" d="M69.021,79.124h3.525v1.042h-2.254v1.484h2.121v1.042h-2.121v2.739h-1.271V79.124z"/>
		<path fill="#010101" d="M74.279,85.432v-4.417h-1.246v-0.831h0.115c0.84,0,1.334-0.309,1.467-1.007h0.936v6.255H74.279z"/>
	</g>
	<g display="inline">
		<path fill="#010101" d="M47.929,54.025c0,0-7.501,0.159-7.981-6.386c-0.483-6.585-0.21-8.515-0.21-8.515s1.381,1.279,1.811,0.323
			c0,0,0.53-6.071,0.316-7.343c0,0,0.43-0.644,2.233,2.658c0,0,1.706-1.702,0.428-9.475c0,0,1.597-0.423,3.193,2.239
			c0,0,0.746,0.423,1.063-9.791c0,0,1.063,5.213,2.769,7.129c1.702,1.916,1.489,3.513,1.489,3.513s0.427,0,0.852-2.235
			c0,0,2.396,1.226,3.297,9.048c0,0,0.479-0.271,0.531-1.757c0.033-0.753,3.038,2.927,2.611,10.004c0,0,0.53,0.264,1.169-0.159
			c0,0,0,10.163-9.789,10.797c0,0,5.588-4.521,4.307-10.424c0,0-0.373,0.901-1.222,0.742c0,0,0.425-3.512-0.321-4.683
			c0,0-1.277,2.926-2.233,3.354c0,0,0.904-5.002-1.65-7.291c0,0-0.583,6.704-1.379,7.023c0,0-0.91-1.543-1.866-2.073
			c0,0-0.159,5.477,0.052,5.691c0,0-2.34-3.136-2.713-4.68c0,0-0.532,0.532-0.424,4.042c0,0-0.321,0-0.694-0.424
			c0,0-0.315,3.884,4.1,8.442L47.929,54.025z"/>
		<path fill="none" stroke="#010101" stroke-width="0.361" stroke-miterlimit="3.864" d="M43.141,54.663h13.414 M50.267,63.521
			c0,0-17.033-5.323-19.414-28.243l-0.164-22.71h39.172l-0.166,22.71C67.318,58.198,50.267,63.521,50.267,63.521z"/>
	</g>
</g>
<g id="Layer_3" display="none">
	<g display="inline">
		<path fill="#010101" d="M21.669,68.701v1.053h-2.276v1.5h2.142v1.053h-2.142v1.715h2.365v1.053h-3.651v-6.373H21.669z"/>
		<path fill="#010101" d="M23.883,68.701l1.553,4.365h0.018v-4.365h1.178v6.373h-1.464l-1.571-4.463h-0.018v4.463h-1.178v-6.373
			H23.883z"/>
		<path fill="#010101" d="M29.729,75.074v-6.373h1.286v6.373H29.729z"/>
		<path fill="#010101" d="M33.005,73.084v0.188c0,0.598,0.169,0.982,0.848,0.982c0.393,0,0.768-0.25,0.768-0.785
			c0-0.572-0.286-0.805-1.143-1.09c-1.143-0.385-1.669-0.875-1.669-1.928c0-1.25,0.75-1.875,1.973-1.875
			c1.143,0,1.973,0.49,1.973,1.715v0.178h-1.232c0-0.607-0.196-0.945-0.696-0.945c-0.581,0-0.732,0.355-0.732,0.74
			c0,0.393,0.116,0.643,0.66,0.865l0.991,0.43c0.964,0.428,1.214,0.9,1.214,1.686c0,1.348-0.821,1.955-2.214,1.955
			c-1.455,0-2.026-0.678-2.026-1.855v-0.26H33.005z"/>
		<path fill="#010101" d="M38.637,68.576c1.928,0,2.169,1.375,2.169,3.313c0,1.936-0.241,3.311-2.169,3.311
			s-2.169-1.375-2.169-3.311C36.468,69.951,36.709,68.576,38.637,68.576z M38.637,74.254c0.759,0,0.884-0.652,0.884-2.365
			c0-1.705-0.125-2.365-0.884-2.365s-0.884,0.66-0.884,2.365C37.753,73.602,37.878,74.254,38.637,74.254z"/>
		<path fill="#010101" d="M44.885,75.074v-4.463h-1.258v-0.84h0.116c0.848,0,1.348-0.311,1.482-1.018h0.946v6.32H44.885z"/>
		<path fill="#010101" d="M49.17,75.074v-4.463h-1.258v-0.84h0.116c0.848,0,1.348-0.311,1.482-1.018h0.946v6.32H49.17z"/>
		<path fill="#010101" d="M54.605,70.361c0-0.49-0.152-0.768-0.58-0.768c-0.678,0-0.785,0.678-0.785,1.607v0.313h0.018
			c0.215-0.33,0.625-0.545,1.188-0.545c1.115,0,1.545,0.83,1.545,1.973c0,1.455-0.625,2.258-2.045,2.258
			c-1.768,0-1.99-1.41-1.99-2.955c0-1.785,0.035-3.49,2.123-3.49c0.912,0,1.732,0.395,1.76,1.607H54.605z M54.008,74.361
			c0.615,0,0.695-0.537,0.695-1.25c0-0.857-0.195-1.197-0.695-1.197c-0.51,0-0.705,0.34-0.705,1.197
			C53.303,73.834,53.41,74.361,54.008,74.361z"/>
		<path fill="#010101" d="M57.738,75.074v-4.463H56.48v-0.84h0.115c0.848,0,1.348-0.311,1.482-1.018h0.945v6.32H57.738z"/>
		<path fill="#010101" d="M62.023,75.074v-4.463h-1.26v-0.84h0.117c0.848,0,1.348-0.311,1.48-1.018h0.947v6.32H62.023z"/>
		<path fill="#010101" d="M65.164,70.424h1.178v1.393h-1.178V70.424z M65.164,73.682h1.178v1.393h-1.178V73.682z"/>
		<path fill="#010101" d="M70.877,75.074h-3.891c0-1.125,0.455-1.9,1.391-2.768l0.52-0.48c0.57-0.5,0.66-0.805,0.66-1.447
			c0-0.525-0.205-0.785-0.625-0.785c-0.635,0-0.715,0.563-0.715,1.232h-1.23v-0.242c0-1.178,0.605-1.83,1.963-1.83
			c1.277,0,1.893,0.625,1.893,1.725c0,0.82-0.268,1.365-0.982,2.008l-0.713,0.66c-0.385,0.348-0.59,0.688-0.652,0.928h2.383V75.074z
			"/>
		<path fill="#010101" d="M73.252,68.754c1.535,0,1.98,0.832,1.98,3.072c0,1.748-0.098,3.373-1.98,3.373
			c-1.535,0-1.982-0.83-1.982-3.07C71.27,70.379,71.367,68.754,73.252,68.754z M72.555,72.406c0,1.598,0.152,1.955,0.697,1.955
			c0.563,0,0.695-0.5,0.695-2.125v-0.688c0-1.598-0.152-1.955-0.695-1.955c-0.563,0-0.697,0.5-0.697,2.125V72.406z"/>
		<path fill="#010101" d="M77.018,75.074v-4.463H75.76v-0.84h0.115c0.848,0,1.348-0.311,1.482-1.018h0.945v6.32H77.018z"/>
		<path fill="#010101" d="M83.471,69.879h-2.33l-0.133,1.438h0.018c0.24-0.33,0.615-0.473,1.16-0.473
			c1.215,0,1.545,1.018,1.545,2.018c0,1.393-0.412,2.338-2.027,2.338c-1.605,0-1.865-1.043-1.865-1.758v-0.17h1.232
			c0,0.42,0.07,1.035,0.625,1.035c0.525,0,0.75-0.41,0.75-1.232c0-1.043-0.17-1.338-0.742-1.338c-0.365,0-0.563,0.223-0.607,0.58
			h-1.15l0.232-3.438h3.293V69.879z"/>
	</g>
	<g display="inline">
		<path fill="#010101" d="M28.641,81.564c0-0.928-0.188-1.33-0.768-1.33c-0.643,0-0.804,0.643-0.804,2.455
			c0,1.928,0.268,2.275,0.821,2.275c0.456,0,0.804-0.232,0.804-1.615h1.285c0,1.383-0.339,2.563-2.026,2.563
			c-1.928,0-2.169-1.375-2.169-3.313s0.241-3.311,2.169-3.311c1.839,0,1.973,1.348,1.973,2.275H28.641z"/>
		<path fill="#010101" d="M30.72,79.414h1.232v6.373H30.72V79.414z"/>
		<path fill="#010101" d="M32.809,82.457v-0.115c0-1.107,0.759-1.482,1.687-1.482c1.464,0,1.741,0.607,1.741,1.473v2.525
			c0,0.457,0.036,0.643,0.151,0.93H35.21c-0.08-0.152-0.116-0.33-0.151-0.5h-0.018c-0.286,0.5-0.625,0.625-1.223,0.625
			c-0.857,0-1.16-0.732-1.16-1.375c0-0.91,0.366-1.268,1.214-1.5l0.696-0.188c0.366-0.098,0.491-0.24,0.491-0.563
			c0-0.365-0.152-0.588-0.571-0.588c-0.384,0-0.571,0.24-0.571,0.623v0.135H32.809z M35.059,83.385
			c-0.17,0.135-0.375,0.205-0.527,0.242c-0.5,0.107-0.696,0.348-0.696,0.775c0,0.367,0.134,0.67,0.464,0.67
			c0.33,0,0.759-0.205,0.759-0.74V83.385z"/>
		<path fill="#010101" d="M38.013,84.215v0.162c0,0.418,0.223,0.695,0.643,0.695c0.384,0,0.625-0.188,0.625-0.57
			c0-0.313-0.205-0.447-0.446-0.545l-0.866-0.313c-0.678-0.242-1.026-0.66-1.026-1.34c0-0.785,0.509-1.445,1.767-1.445
			c1.116,0,1.643,0.5,1.643,1.365v0.197h-1.107c0-0.492-0.143-0.723-0.544-0.723c-0.313,0-0.58,0.168-0.58,0.518
			c0,0.24,0.116,0.428,0.536,0.563l0.741,0.25c0.776,0.258,1.062,0.65,1.062,1.373c0,1.01-0.75,1.51-1.785,1.51
			c-1.393,0-1.768-0.598-1.768-1.527v-0.17H38.013z"/>
		<path fill="#010101" d="M41.976,84.215v0.162c0,0.418,0.223,0.695,0.643,0.695c0.384,0,0.625-0.188,0.625-0.57
			c0-0.313-0.205-0.447-0.446-0.545l-0.866-0.313c-0.678-0.242-1.026-0.66-1.026-1.34c0-0.785,0.509-1.445,1.767-1.445
			c1.116,0,1.643,0.5,1.643,1.365v0.197h-1.107c0-0.492-0.143-0.723-0.544-0.723c-0.313,0-0.58,0.168-0.58,0.518
			c0,0.24,0.116,0.428,0.536,0.563l0.741,0.25c0.776,0.258,1.062,0.65,1.062,1.373c0,1.01-0.75,1.51-1.785,1.51
			c-1.393,0-1.768-0.598-1.768-1.527v-0.17H41.976z"/>
		<path fill="#010101" d="M48.394,85.787v-4.463h-1.258v-0.84h0.116c0.848,0,1.348-0.313,1.482-1.018h0.946v6.32H48.394z"/>
		<path fill="#010101" d="M53.965,82.68v1.055h-2.518V82.68H53.965z"/>
		<path fill="#010101" d="M56.045,79.414h1.588l1.688,6.373h-1.34l-0.295-1.348H55.99l-0.295,1.348h-1.338L56.045,79.414z
			 M56.213,83.385h1.25l-0.615-2.865H56.83L56.213,83.385z"/>
		<path fill="#010101" d="M60.945,85.787v-4.463h-1.26v-0.84h0.117c0.848,0,1.348-0.313,1.48-1.018h0.947v6.32H60.945z"/>
		<path fill="#010101" d="M66.514,82.68v1.055h-2.518V82.68H66.514z"/>
		<path fill="#010101" d="M68.594,79.414h1.59l1.686,6.373h-1.338l-0.295-1.348h-1.695l-0.295,1.348h-1.34L68.594,79.414z
			 M68.764,83.385h1.25l-0.617-2.865h-0.018L68.764,83.385z"/>
		<path fill="#010101" d="M75.922,85.787h-3.891c0-1.125,0.455-1.902,1.391-2.768l0.52-0.482c0.57-0.5,0.66-0.803,0.66-1.445
			c0-0.527-0.205-0.785-0.625-0.785c-0.635,0-0.715,0.563-0.715,1.23h-1.23v-0.24c0-1.178,0.605-1.83,1.963-1.83
			c1.277,0,1.893,0.625,1.893,1.723c0,0.822-0.268,1.365-0.982,2.008l-0.713,0.662c-0.385,0.348-0.59,0.686-0.652,0.928h2.383
			V85.787z"/>
	</g>
	<rect x="37.095" y="43.466" display="inline" fill="#010101" width="26.483" height="3.888"/>
	<g display="inline">
		<path fill="#010101" d="M39.686,41.021c0-0.713,0.577-1.297,1.297-1.297c0.715,0,1.292,0.584,1.292,1.297
			c0,0.714-0.577,1.295-1.292,1.295C40.263,42.315,39.686,41.735,39.686,41.021"/>
		<path fill="#010101" d="M54.655,41.021c0-0.713,0.58-1.297,1.297-1.297c0.715,0,1.292,0.584,1.292,1.297
			c0,0.714-0.577,1.295-1.292,1.295C55.235,42.315,54.655,41.735,54.655,41.021"/>
		<path fill="#010101" d="M41.562,37.575c0-0.713,0.581-1.293,1.297-1.293c0.715,0,1.292,0.581,1.292,1.293
			c0,0.715-0.577,1.299-1.292,1.299C42.142,38.874,41.562,38.29,41.562,37.575"/>
		<path fill="#010101" d="M45.16,35.708c0-0.718,0.581-1.299,1.297-1.299c0.715,0,1.292,0.581,1.292,1.299
			c0,0.713-0.577,1.293-1.292,1.293C45.741,37.001,45.16,36.421,45.16,35.708"/>
		<path fill="#010101" d="M52.789,37.434c0-0.715,0.581-1.299,1.298-1.299c0.715,0,1.291,0.584,1.291,1.299
			c0,0.713-0.576,1.293-1.291,1.293C53.37,38.728,52.789,38.147,52.789,37.434"/>
	</g>
	<path display="inline" fill="none" stroke="#010101" stroke-width="0.645" stroke-miterlimit="3.864" d="M51.37,27.923l-0.507,9.5
		 M64.875,23.028H49.904v4.463h15.114H55.52v-4.463"/>
	<path display="inline" fill="none" stroke="#010101" stroke-width="0.361" stroke-miterlimit="3.864" d="M50.513,63.657
		c0,0-17.213-5.373-19.617-28.526V12.192h39.243v22.938C67.736,58.28,50.513,63.657,50.513,63.657z"/>
</g>
<g id="Layer_4">
	<polyline fill="none" stroke="#010101" stroke-width="0.73" stroke-miterlimit="3.864" points="50.156,19.947 43.09,38.172 
		57.594,29.989 50.528,48.955 38.998,48.955 62.428,48.955 	"/>
	<g>
		<path fill="#010101" d="M48.445,20.135c0-1.542,1.247-2.789,2.79-2.789c1.541,0,2.788,1.247,2.788,2.789
			c0,1.54-1.247,2.79-2.788,2.79C49.691,22.925,48.445,21.675,48.445,20.135"/>
		<circle fill="none" stroke="#010101" stroke-width="0.216" stroke-miterlimit="3.864" cx="51.234" cy="20.135" r="2.789"/>
		<path fill="none" stroke="#010101" stroke-width="0.361" stroke-miterlimit="3.864" d="M50.706,63.998
			c0,0-17.192-5.374-19.59-28.503L30.95,12.578h39.528l-0.167,22.917C67.911,58.624,50.706,63.998,50.706,63.998z"/>
	</g>
	<g>
		<path fill="#010101" d="M26.958,69.038v1.052h-2.272v1.496h2.139v1.052h-2.139v1.711h2.362V75.4h-3.645v-6.362H26.958z"/>
		<path fill="#010101" d="M29.171,69.038l1.55,4.357h0.018v-4.357h1.176V75.4h-1.461l-1.568-4.455h-0.018V75.4h-1.176v-6.362H29.171
			z"/>
		<path fill="#010101" d="M36.127,75.4v-4.455h-1.256v-0.838h0.116c0.847,0,1.346-0.313,1.479-1.016h0.944V75.4H36.127z"/>
		<path fill="#010101" d="M40.408,75.4v-4.455h-1.257v-0.838h0.116c0.846,0,1.345-0.313,1.479-1.016h0.945V75.4H40.408z"/>
		<path fill="#010101" d="M43.191,73.039l2.094-3.947h1.328v4.001h0.606v0.998h-0.606v1.31h-1.176v-1.31h-2.246V73.039z
			 M45.438,70.695h-0.018l-1.23,2.397h1.248V70.695z"/>
		<path fill="#010101" d="M48.854,73.93c0,0.473,0.151,0.758,0.579,0.758c0.678,0,0.784-0.678,0.784-1.604V72.78h-0.018
			c-0.214,0.321-0.624,0.535-1.185,0.535c-1.114,0-1.542-0.829-1.542-1.97c0-1.452,0.624-2.254,2.041-2.254
			c1.755,0,1.987,1.407,1.987,2.949c0,1.791-0.044,3.484-2.121,3.484c-0.909,0-1.729-0.384-1.755-1.596H48.854z M49.451,72.371
			c0.508,0,0.704-0.339,0.704-1.194c0-0.722-0.107-1.248-0.704-1.248c-0.615,0-0.695,0.535-0.695,1.248
			C48.756,72.032,48.952,72.371,49.451,72.371z"/>
		<path fill="#010101" d="M54.533,72.299v1.052H52.02v-1.052H54.533z"/>
		<path fill="#010101" d="M58.715,70.214h-2.326l-0.133,1.435h0.018c0.24-0.329,0.615-0.472,1.158-0.472
			c1.212,0,1.542,1.016,1.542,2.014c0,1.39-0.41,2.335-2.023,2.335c-1.604,0-1.862-1.043-1.862-1.756v-0.169h1.23
			c0,0.419,0.07,1.033,0.623,1.033c0.526,0,0.749-0.409,0.749-1.229c0-1.043-0.17-1.337-0.74-1.337
			c-0.365,0-0.562,0.223-0.605,0.579h-1.149l0.231-3.431h3.288V70.214z"/>
		<path fill="#010101" d="M59.689,70.758h1.176v1.39h-1.176V70.758z M59.689,74.01h1.176V75.4h-1.176V74.01z"/>
		<path fill="#010101" d="M65.395,75.4h-3.886c0-1.123,0.455-1.898,1.391-2.763l0.517-0.481c0.57-0.498,0.659-0.802,0.659-1.443
			c0-0.525-0.205-0.784-0.624-0.784c-0.632,0-0.713,0.562-0.713,1.229h-1.229v-0.24c0-1.176,0.606-1.826,1.961-1.826
			c1.274,0,1.889,0.623,1.889,1.72c0,0.819-0.267,1.363-0.979,2.005l-0.713,0.659c-0.384,0.348-0.589,0.687-0.651,0.927h2.38V75.4z"
			/>
		<path fill="#010101" d="M67.768,69.092c1.533,0,1.979,0.828,1.979,3.064c0,1.747-0.099,3.369-1.979,3.369
			c-1.533,0-1.979-0.829-1.979-3.065C65.789,70.713,65.888,69.092,67.768,69.092z M67.072,72.736c0,1.595,0.151,1.951,0.695,1.951
			c0.562,0,0.695-0.499,0.695-2.121v-0.686c0-1.596-0.151-1.952-0.695-1.952c-0.562,0-0.695,0.499-0.695,2.121V72.736z"/>
		<path fill="#010101" d="M71.531,75.4v-4.455h-1.257v-0.838h0.116c0.847,0,1.346-0.313,1.479-1.016h0.945V75.4H71.531z"/>
		<path fill="#010101" d="M75.384,72.059v-0.018c-0.687-0.17-0.909-0.767-0.909-1.212c0-1.239,0.704-1.737,1.854-1.737
			s1.854,0.498,1.854,1.737c0,0.445-0.24,1.042-0.909,1.212v0.018c0.713,0.143,1.069,0.767,1.069,1.56
			c0,0.722-0.258,1.907-2.014,1.907s-2.014-1.186-2.014-1.907C74.314,72.825,74.671,72.201,75.384,72.059z M76.328,74.688
			c0.579,0,0.73-0.481,0.73-1.087c0-0.606-0.151-1.087-0.73-1.087s-0.73,0.48-0.73,1.087C75.598,74.206,75.749,74.688,76.328,74.688
			z M76.328,71.676c0.383,0,0.624-0.285,0.624-0.883c0-0.579-0.205-0.864-0.624-0.864s-0.624,0.285-0.624,0.864
			C75.704,71.391,75.945,71.676,76.328,71.676z"/>
	</g>
</g>
<g id="Layer_5" display="none">
	
		<text transform="matrix(1 0 0 1 19.7471 74.9258)" display="inline" fill="#010101" font-family="'HelveticaNeueLTPro-BdCn'" font-size="8.873">IEC 61482-2:2018</text>
	
		<text transform="matrix(1 0 0 1 38.5313 85.5732)" display="inline" fill="#010101" font-family="'HelveticaNeueLTPro-BdCn'" font-size="8.873">APC=1</text>
	<g display="inline">
		<g>
			<path fill="none" stroke="#010101" stroke-width="0.361" stroke-miterlimit="3.864" d="M50.462,63.576
				c0,0-17.1-5.347-19.49-28.357L30.81,12.417h39.327l-0.166,22.801C67.581,58.229,50.462,63.576,50.462,63.576z"/>
		</g>
		<polygon fill="#010101" points="39.506,33.182 45.089,17.682 40.303,17.682 36.021,36.808 44.826,31.554 42.905,46.206 
			41.327,45.208 42.785,51.207 46.063,45.979 44.271,46.419 48.193,27.942 		"/>
		<polygon fill="#010101" points="64.187,38.78 59.308,35.305 59.308,34.382 61.489,33.456 59.38,32.718 59.38,31.609 
			66.922,25.989 57.864,25.989 59.714,21.294 55.648,23.474 56.979,19.591 51.656,22.883 51.69,25.249 54.687,25.249 55.018,26.285 
			53.687,28.538 57.052,28.503 57.385,29.685 54.465,31.72 55.905,32.531 56.201,33.418 55.131,34.122 56.053,34.565 56.239,35.637 
			53.725,35.453 54.908,39.777 51.616,37.82 51.469,41.738 52.765,44.288 52.947,40.371 59.676,47.615 57.109,40.278 57.643,39.742 
			59.566,40.592 58.345,38.633 58.345,37.524 		"/>
	</g>
</g>
<g id="Layer_6" display="none">
	<path display="inline" fill="#010101" d="M76.478,70.09c0-0.263,0.002-0.459,0-0.657c-0.012-1.881,0.07-3.771-0.063-5.644
		c-0.138-1.89-1.742-3.274-3.674-3.297c-3.042-0.036-6.091-0.041-9.135,0.005c-2.102,0.029-3.678,1.708-3.685,3.813
		c-0.005,1.744-0.002,3.486,0,5.23c0,0.173,0.021,0.347,0.037,0.55H76.478z M53.051,83.928c0-6.797-0.063-13.595,0.016-20.39
		c0.055-4.815,4.087-9.161,8.914-9.807c0.832-0.109,1.68-0.125,2.517-0.132c2.748-0.014,5.495-0.014,8.241-0.003
		c5.183,0.021,9.46,3.548,10.45,8.636c0.13,0.661,0.173,1.352,0.173,2.029c0.016,6.555,0.014,13.108,0.014,19.666h-6.858V77.09
		H59.909v6.838H53.051z"/>
	<path display="inline" fill="#010101" d="M47.515,17.741c0,6.679,0.021,13.353-0.004,20.031c-0.016,5-3.911,9.438-8.884,10.165
		c-0.591,0.086-1.195,0.132-1.797,0.135c-3.005,0.011-6.013,0.011-9.021,0.004c-5.967-0.014-10.623-4.69-10.623-10.667
		c0-6.555,0.002-13.113,0.004-19.668h6.859c0.007,0.219,0.018,0.438,0.018,0.661c0.002,6.275,0,12.552,0.005,18.828
		c0,2.351,1.612,3.956,3.977,3.96c2.85,0.007,5.696,0.004,8.543,0c2.445-0.004,4.032-1.587,4.032-4.02
		c0.002-6.216,0.002-12.434,0.007-18.649c0-0.26,0.016-0.52,0.025-0.78H47.515z"/>
	<path display="inline" fill="#010101" d="M26.576,83.928c-0.347-0.08-0.695-0.159-1.044-0.234
		c-4.793-1.056-8.32-5.399-8.343-10.312c-0.016-3.085-0.018-6.175,0-9.265c0.034-5.787,4.784-10.516,10.562-10.521
		c6.359-0.007,12.717-0.002,19.074-0.002h0.645v6.886h-0.69H28.126c-2.439,0-4.045,1.58-4.054,4.011
		c-0.012,2.846-0.012,5.694,0,8.542c0.009,2.405,1.609,3.999,4.008,3.999c6.236,0.005,12.475,0.003,18.711,0.003h0.723v6.893H26.576
		z"/>
	<path display="inline" fill="#010101" d="M83.375,17.741c-1.389,1.113-2.769,2.239-4.168,3.34
		c-4.912,3.872-9.83,7.734-14.744,11.597c-0.063,0.05-0.116,0.109-0.237,0.221c6.339,5.021,12.662,10.03,19.1,15.126
		c-0.285,0.023-0.445,0.05-0.604,0.05c-2.588,0.002-5.174,0.011-7.76-0.014c-0.287-0.002-0.629-0.13-0.857-0.31
		c-4.535-3.571-9.057-7.158-13.583-10.74c-0.152-0.123-0.316-0.237-0.565-0.426v11.444h-6.872c-0.014-0.152-0.046-0.308-0.046-0.458
		c-0.002-9.846-0.002-19.689,0-29.531c0-0.1,0.007-0.201,0.014-0.301h6.858v11.467c0.235-0.171,0.336-0.235,0.427-0.308
		c2.992-2.351,5.983-4.697,8.971-7.053c1.726-1.361,3.442-2.736,5.164-4.106H83.375z"/>
</g>
<g id="Layer_7" display="none">
	<path display="inline" fill="#010101" d="M75.01,55.872h0.536c0.233,0,0.391,0.017,0.477,0.052
		c0.084,0.033,0.151,0.084,0.199,0.153c0.05,0.068,0.073,0.146,0.073,0.233c0,0.134-0.05,0.242-0.15,0.325
		c-0.101,0.081-0.286,0.121-0.562,0.121H75.01V55.872z M75.01,58.408v-1.247h0.277c0.167,0,0.292,0.035,0.38,0.103
		c0.125,0.091,0.289,0.318,0.494,0.683l0.261,0.462H77l-0.358-0.573c-0.172-0.272-0.315-0.467-0.433-0.581
		c-0.063-0.062-0.146-0.112-0.25-0.157c0.253-0.019,0.456-0.107,0.608-0.266c0.153-0.16,0.229-0.346,0.229-0.561
		c0-0.153-0.046-0.296-0.137-0.431c-0.091-0.134-0.215-0.23-0.369-0.284c-0.153-0.054-0.402-0.081-0.748-0.081h-1.008v2.934H75.01z
		 M76.848,54.921c0.364,0.196,0.646,0.478,0.852,0.841c0.203,0.367,0.304,0.745,0.304,1.142c0,0.392-0.099,0.767-0.299,1.129
		c-0.2,0.359-0.48,0.641-0.843,0.839c-0.36,0.201-0.737,0.304-1.13,0.304c-0.394,0-0.771-0.103-1.13-0.304
		c-0.362-0.198-0.643-0.479-0.845-0.839c-0.201-0.362-0.301-0.737-0.301-1.129c0-0.396,0.101-0.774,0.306-1.142
		c0.205-0.363,0.489-0.645,0.851-0.841c0.362-0.195,0.735-0.294,1.119-0.294C76.111,54.627,76.484,54.726,76.848,54.921
		 M74.392,54.527c-0.437,0.235-0.776,0.57-1.02,1.008c-0.246,0.437-0.368,0.893-0.368,1.368c0,0.468,0.12,0.92,0.361,1.354
		c0.241,0.435,0.578,0.77,1.01,1.009c0.433,0.24,0.884,0.359,1.356,0.359s0.924-0.119,1.356-0.359
		c0.431-0.239,0.768-0.574,1.006-1.009c0.241-0.434,0.362-0.886,0.362-1.354c0-0.476-0.123-0.932-0.367-1.368
		c-0.243-0.438-0.581-0.772-1.018-1.008c-0.435-0.234-0.884-0.352-1.34-0.352S74.827,54.293,74.392,54.527"/>
	<text transform="matrix(1 0 0 1 26.1338 69.3164)" display="inline"><tspan x="0" y="0" fill="#010101" font-family="'HelveticaNeueLTPro-Blk'" font-size="16.918">NF</tspan><tspan x="23.499" y="0" fill="#010101" font-family="'HelveticaNeueLTPro-Blk'" font-size="16.918" letter-spacing="-1">P</tspan><tspan x="34.174" y="0" fill="#010101" font-family="'HelveticaNeueLTPro-Blk'" font-size="16.918">A</tspan></text>
	<g display="inline">
		<path fill="#010101" d="M32.083,13.161h34.471c2.052,0,3.912,0.836,5.261,2.184c1.348,1.348,2.188,3.21,2.188,5.261V46.5
			c0,2.045-0.84,3.902-2.188,5.25c-1.351,1.356-3.216,2.199-5.261,2.199h-6.222V48.95h6.222c0.678,0,1.29-0.273,1.729-0.71
			c0.442-0.448,0.72-1.061,0.72-1.74V20.606c0-0.671-0.277-1.284-0.72-1.729c-0.446-0.443-1.058-0.72-1.729-0.72H32.083
			c-0.676,0-1.295,0.277-1.736,0.72c-0.441,0.439-0.715,1.051-0.715,1.729V46.5c0,0.67,0.277,1.282,0.725,1.728
			c0.441,0.444,1.054,0.722,1.727,0.722h8.291v4.999h-8.291c-2.052,0-3.914-0.838-5.262-2.188c-1.35-1.35-2.185-3.21-2.185-5.262
			V20.606c0-2.042,0.839-3.906,2.194-5.261C28.177,13.997,30.038,13.161,32.083,13.161"/>
		<path fill="#EC2427" d="M43.584,49.381c0,0-3.457-2.799-2.799-7.322c0.659-4.527,3.21-7.491,1.155-11.438
			c0,0,4.852,5.427,5.592,7.816c0,0,0.166-2.632-0.41-4.116c-0.575-1.48-1.234-5.021,0.166-7.326
			c-0.889,4.111,5.102,8.063,6.007,12.591c0,0,2.883-0.739,1.896-9.627c0,0,8.312,8.396,2.551,18.683c0,0,0.081-2.552-0.25-3.623
			c0,0-2.386,6.916-6.171,9.711c2.094-6.136,0.281-6.532-0.824-11.274c0,0-1.778,5.845-1.894,10.125c0,0-3.415-1.896-4.527-8.562
			C43.6,46.521,43.485,47.866,43.584,49.381 M53.328,35.586c-2.481-5.171-6.549-7.45-3.82-14.599
			C49.768,27.124,55.121,28.292,53.328,35.586"/>
		<path fill="#010101" d="M75.127,86.639c0,1.289-1.048,2.333-2.337,2.333H25.846c-1.289,0-2.336-1.044-2.336-2.333V74.58
			c0-1.289,1.047-2.335,2.336-2.335H72.79c1.289,0,2.337,1.046,2.337,2.335V86.639z"/>
	</g>
	
		<text transform="matrix(1 0 0 1 35.7578 84.2852)" display="inline" fill="#FFFFFF" font-family="'HelveticaNeueLTPro-Blk'" font-size="10.1508">2112</text>
</g>
<g id="Layer_8" display="none">
	<g display="inline">
		<path fill="#010101" d="M1084.707,716.506c-8.081,0-14.63,6.551-14.63,14.63c0,8.08,6.549,14.631,14.63,14.631
			c8.08,0,14.631-6.551,14.631-14.631C1099.338,723.057,1092.787,716.506,1084.707,716.506 M1084.707,743.049
			c-6.58,0-11.914-5.334-11.914-11.914c0-6.578,5.334-11.914,11.914-11.914s11.914,5.336,11.914,11.914
			C1096.621,737.715,1091.287,743.049,1084.707,743.049"/>
		<path fill="#010101" d="M1084.827,723.288h-2.7v8.617c0,0.491-0.213,1.106-0.921,1.106c-0.771,0-0.938-0.479-0.938-1.029v-8.694
			h-2.698v8.34c0,2.366,1.333,3.458,3.62,3.458c2.762,0,3.638-1.507,3.638-3.458V723.288z"/>
	</g>
	<polygon display="inline" fill="#010101" points="1088.588,727.456 1085.889,727.456 1085.889,738.983 1091.89,738.983 
		1091.89,736.675 1088.588,736.675 	"/>
	<g display="inline">
		<path fill="#010101" d="M1081.124,736.477h-0.463v1.793h0.198v-0.788h0.347c0.235,0,0.308,0.153,0.308,0.332
			c0,0.12,0.019,0.343,0.061,0.456h0.233v-0.04l-0.07-0.112c-0.02-0.134-0.031-0.265-0.039-0.397
			c-0.028-0.239-0.086-0.314-0.317-0.336v-0.005c0.208-0.027,0.337-0.179,0.345-0.39
			C1081.737,736.575,1081.498,736.477,1081.124,736.477 M1080.859,737.303v-0.646h0.279c0.135,0,0.375,0.007,0.382,0.315
			c0.003,0.313-0.254,0.328-0.348,0.33H1080.859z"/>
		<path fill="#010101" d="M1081.202,735.735c-0.905,0-1.638,0.734-1.638,1.637c0,0.906,0.732,1.64,1.638,1.641
			c0.903-0.001,1.637-0.734,1.637-1.641C1082.839,736.469,1082.105,735.736,1081.202,735.735 M1081.202,738.841L1081.202,738.841
			c-0.811-0.002-1.464-0.657-1.465-1.469c0.001-0.809,0.654-1.463,1.465-1.464c0.809,0.001,1.464,0.655,1.465,1.464
			C1082.666,738.184,1082.011,738.839,1081.202,738.841"/>
		<path fill="#010101" d="M1067.702,717.108c-0.495,0-0.945,0.305-1.353,0.849c-0.717,0.958-0.598,1.74,0.369,2.465l1.83,1.37
			c0.417,0.313,0.81,0.483,1.182,0.483c0.438,0,0.849-0.235,1.238-0.755c0.801-1.07,0.596-1.909-0.172-2.483l-0.546-0.409
			l-0.783,1.046l0.404,0.301c0.273,0.204,0.619,0.511,0.351,0.867c-0.109,0.147-0.225,0.211-0.347,0.211
			c-0.104,0-0.215-0.048-0.331-0.134l-2.198-1.658c-0.291-0.217-0.409-0.428-0.159-0.749c0.064-0.087,0.159-0.134,0.278-0.134
			c0.149,0,0.335,0.073,0.545,0.23l0.286,0.215l0.783-1.044l-0.374-0.281C1068.352,717.232,1068.018,717.108,1067.702,717.108"/>
	</g>
	<polygon display="inline" fill="#010101" points="1069.727,714.525 1068.736,715.377 1072.364,719.597 1074.564,717.705 
		1073.84,716.86 1072.63,717.901 	"/>
	<path display="inline" fill="#010101" d="M1074.812,711.115l-1.37,0.769l1.664,5.447l1.145-0.643l-0.394-1.021l0.893-0.5
		l0.691,0.852l1.152-0.646L1074.812,711.115z M1075.499,714.745l-0.892-2.358l0.013-0.007l1.538,1.994L1075.499,714.745z"/>
	<g display="inline">
		<path fill="#010101" d="M1079.788,709.198c-0.159,0-0.327,0.022-0.505,0.065c-0.982,0.24-1.469,0.907-1.221,1.924
			c0.117,0.477,0.334,0.773,0.633,0.991c0.305,0.217,0.687,0.345,1.13,0.472c0.38,0.122,0.8,0.204,0.908,0.658
			c0.068,0.275,0.005,0.572-0.294,0.645c-0.06,0.016-0.114,0.021-0.166,0.021c-0.283,0-0.415-0.219-0.479-0.481l-0.093-0.384
			l-1.177,0.287l0.142,0.578c0.142,0.579,0.596,1.036,1.384,1.036c0.182,0,0.382-0.025,0.6-0.077
			c1.052-0.257,1.489-0.973,1.234-2.013c-0.159-0.655-0.42-0.975-0.783-1.177c-0.36-0.2-0.817-0.287-1.368-0.475
			c-0.294-0.112-0.501-0.237-0.543-0.568c-0.029-0.246,0.086-0.428,0.352-0.471c0.031-0.005,0.062-0.008,0.09-0.008
			c0.348,0,0.433,0.396,0.518,0.686l1.169-0.283C1081.156,709.761,1080.609,709.198,1079.788,709.198"/>
		<path fill="#010101" d="M1084.424,708.661c-0.018,0-0.034,0.001-0.051,0.001c-1.011,0.021-1.629,0.569-1.608,1.614
			c0.01,0.49,0.157,0.829,0.401,1.104c0.251,0.278,0.597,0.485,1.002,0.707c0.345,0.2,0.734,0.371,0.746,0.838
			c0.004,0.282-0.124,0.561-0.428,0.566h-0.017c-0.402,0-0.508-0.277-0.515-0.591l-0.009-0.393l-1.21,0.024l0.013,0.593
			c0.015,0.722,0.516,1.368,1.665,1.368c0.021,0,0.042,0,0.063-0.001c1.084-0.021,1.665-0.628,1.643-1.694
			c-0.014-0.676-0.2-1.044-0.51-1.318c-0.31-0.275-0.736-0.46-1.232-0.762c-0.264-0.173-0.438-0.342-0.407-0.675
			c0.024-0.232,0.162-0.381,0.403-0.381c0.013,0,0.026,0.001,0.041,0.001c0.432,0.02,0.426,0.466,0.447,0.792l1.202-0.025
			C1086.101,709.401,1085.525,708.661,1084.424,708.661"/>
	</g>
	
		<rect x="1085.238" y="711.206" transform="matrix(0.2024 -0.9793 0.9793 0.2024 170.7206 1633.321)" display="inline" fill="#010101" width="5.564" height="1.306"/>
	<polygon display="inline" fill="#010101" points="1091.033,709.682 1089.135,714.913 1090.362,715.359 1091.165,713.149 
		1092.692,713.703 1093.072,712.656 1091.543,712.1 1091.881,711.174 1093.542,711.777 1093.921,710.731 	"/>
	
		<rect x="1091.697" y="713.512" transform="matrix(0.5141 -0.8577 0.8577 0.5141 -80.7427 1285.804)" display="inline" fill="#010101" width="5.564" height="1.306"/>
	<polygon display="inline" fill="#010101" points="1098.114,713.21 1094.45,717.399 1096.766,719.426 1097.499,718.588 
		1096.165,717.419 1096.957,716.516 1098.186,717.591 1098.917,716.752 1097.69,715.677 1098.364,714.908 1099.632,716.017 
		1100.364,715.179 	"/>
	<path display="inline" fill="#010101" d="M1101.655,716.666l-4.427,3.371l1.064,1.4c0.242,0.319,0.523,0.627,0.908,0.763
		c0.126,0.048,0.253,0.071,0.381,0.071c0.298,0,0.601-0.124,0.912-0.356l1.965-1.496c0.426-0.323,0.808-0.718,0.739-1.299
		c-0.063-0.484-0.396-0.949-0.684-1.325L1101.655,716.666z M1099.416,720.949c-0.19,0-0.375-0.136-0.601-0.479l2.834-2.157
		c0.375,0.516,0.476,0.71-0.04,1.111l-1.445,1.101C1099.857,720.773,1099.632,720.949,1099.416,720.949"/>
	<g display="inline">
		<path fill="#010101" d="M52.857,30.405c-15.704,0-28.43,12.73-28.43,28.43c0,15.702,12.726,28.432,28.43,28.432
			c15.701,0,28.432-12.729,28.432-28.432C81.289,43.135,68.559,30.405,52.857,30.405 M52.857,81.985
			c-12.787,0-23.152-10.365-23.152-23.152c0-12.783,10.365-23.152,23.152-23.152c12.786,0,23.151,10.369,23.151,23.152
			C76.009,71.62,65.644,81.985,52.857,81.985"/>
		<path fill="#010101" d="M53.091,43.585h-5.248V60.33c0,0.955-0.414,2.15-1.79,2.15c-1.497,0-1.824-0.93-1.824-2V43.585h-5.243
			v16.207c0,4.598,2.59,6.72,7.035,6.72c5.367,0,7.069-2.929,7.069-6.72V43.585z"/>
	</g>
	<polygon display="inline" fill="#010101" points="60.398,51.685 55.153,51.685 55.153,74.085 66.814,74.085 66.814,69.599 
		60.398,69.599 	"/>
	<g display="inline">
		<path fill="#010101" d="M45.895,69.214h-0.899v3.484h0.385v-1.532h0.673c0.458,0,0.598,0.299,0.598,0.646
			c0,0.233,0.036,0.666,0.118,0.887h0.454V72.62l-0.137-0.219c-0.038-0.26-0.061-0.514-0.076-0.771
			c-0.055-0.466-0.167-0.611-0.617-0.653v-0.01c0.404-0.053,0.655-0.347,0.67-0.757C47.086,69.405,46.621,69.214,45.895,69.214
			 M45.38,70.819v-1.255h0.542c0.262,0,0.729,0.014,0.742,0.613c0.005,0.607-0.494,0.638-0.676,0.642H45.38z"/>
		<path fill="#010101" d="M46.046,67.773c-1.759,0-3.183,1.427-3.183,3.181c0,1.761,1.423,3.186,3.183,3.188
			c1.755-0.002,3.18-1.427,3.18-3.188C49.227,69.198,47.802,67.775,46.046,67.773 M46.046,73.808L46.046,73.808
			c-1.575-0.003-2.845-1.276-2.847-2.854c0.002-1.571,1.271-2.843,2.847-2.845c1.571,0.002,2.845,1.273,2.846,2.845
			C48.891,72.531,47.618,73.805,46.046,73.808"/>
		<path fill="#010101" d="M19.813,31.576c-0.962,0-1.837,0.592-2.628,1.649c-1.393,1.861-1.162,3.382,0.717,4.79l3.556,2.663
			c0.811,0.609,1.573,0.939,2.296,0.939c0.85,0,1.649-0.458,2.406-1.467c1.556-2.08,1.158-3.71-0.334-4.826l-1.061-0.795
			l-1.522,2.032l0.786,0.584c0.532,0.397,1.203,0.993,0.682,1.685c-0.213,0.287-0.437,0.41-0.674,0.41
			c-0.203,0-0.417-0.093-0.644-0.26l-4.271-3.223c-0.565-0.421-0.795-0.831-0.31-1.456c0.125-0.169,0.31-0.26,0.541-0.26
			c0.291,0,0.651,0.142,1.059,0.448l0.556,0.417l1.522-2.029l-0.727-0.546C21.074,31.817,20.425,31.576,19.813,31.576"/>
	</g>
	<polygon display="inline" fill="#010101" points="23.746,26.557 21.822,28.212 28.872,36.412 33.147,32.736 31.739,31.094 
		29.388,33.117 	"/>
	<path display="inline" fill="#010101" d="M33.627,19.93l-2.662,1.494l3.233,10.585l2.224-1.249l-0.765-1.985l1.734-0.972
		l1.344,1.655l2.239-1.254L33.627,19.93z M34.963,26.984l-1.732-4.583l0.025-0.013l2.989,3.875L34.963,26.984z"/>
	<g display="inline">
		<path fill="#010101" d="M43.298,16.205c-0.309,0-0.636,0.043-0.981,0.127c-1.909,0.467-2.854,1.763-2.372,3.738
			c0.228,0.926,0.649,1.503,1.229,1.926c0.592,0.421,1.334,0.67,2.196,0.917c0.738,0.237,1.554,0.397,1.765,1.279
			c0.133,0.535,0.01,1.112-0.571,1.252c-0.116,0.03-0.222,0.042-0.322,0.042c-0.55,0-0.807-0.425-0.932-0.936l-0.18-0.746
			l-2.287,0.558l0.275,1.124c0.275,1.125,1.158,2.013,2.689,2.013c0.353,0,0.742-0.049,1.165-0.15
			c2.044-0.499,2.894-1.89,2.398-3.911c-0.309-1.273-0.816-1.894-1.522-2.287c-0.7-0.389-1.588-0.558-2.659-0.922
			c-0.571-0.218-0.973-0.461-1.055-1.104c-0.057-0.478,0.167-0.831,0.683-0.915c0.061-0.01,0.12-0.015,0.174-0.015
			c0.676,0,0.841,0.769,1.006,1.332l2.271-0.55C45.957,17.298,44.895,16.205,43.298,16.205"/>
		<path fill="#010101" d="M52.307,15.161c-0.034,0-0.066,0.002-0.099,0.002c-1.964,0.04-3.166,1.106-3.125,3.137
			c0.019,0.953,0.306,1.611,0.78,2.146c0.488,0.541,1.16,0.943,1.947,1.374c0.67,0.389,1.427,0.721,1.45,1.628
			c0.007,0.549-0.241,1.089-0.831,1.101h-0.033c-0.781,0-0.986-0.539-1-1.148l-0.017-0.763l-2.352,0.047l0.025,1.152
			c0.028,1.402,1.002,2.659,3.236,2.659c0.04,0,0.081,0,0.121-0.002c2.106-0.042,3.235-1.22,3.192-3.292
			c-0.027-1.313-0.39-2.029-0.991-2.562c-0.602-0.535-1.431-0.894-2.395-1.48c-0.513-0.336-0.851-0.664-0.791-1.312
			c0.047-0.452,0.314-0.74,0.783-0.74c0.024,0,0.052,0.001,0.08,0.001c0.839,0.038,0.827,0.905,0.869,1.539l2.336-0.049
			C55.565,16.6,54.447,15.161,52.307,15.161"/>
	</g>
	
		<rect x="53.889" y="20.106" transform="matrix(0.2024 -0.9793 0.9793 0.2024 26.3619 75.1172)" display="inline" fill="#010101" width="10.813" height="2.539"/>
	<polygon display="inline" fill="#010101" points="65.15,17.144 61.461,27.31 63.847,28.178 65.406,23.883 68.375,24.959 
		69.113,22.925 66.141,21.843 66.798,20.044 70.025,21.217 70.762,19.184 	"/>
	
		<rect x="66.439" y="24.589" transform="matrix(0.514 -0.8578 0.8578 0.514 12.7342 74.1924)" display="inline" fill="#010101" width="10.812" height="2.537"/>
	<polygon display="inline" fill="#010101" points="78.911,24 71.791,32.142 76.29,36.08 77.715,34.451 75.123,32.18 76.662,30.424 
		79.05,32.514 80.471,30.884 78.087,28.794 79.396,27.301 81.859,29.455 83.283,27.827 	"/>
	<path display="inline" fill="#010101" d="M85.792,30.717l-8.603,6.551l2.068,2.721c0.471,0.621,1.018,1.218,1.766,1.482
		c0.244,0.093,0.491,0.138,0.739,0.138c0.579,0,1.167-0.241,1.772-0.692l3.818-2.907c0.827-0.628,1.569-1.395,1.437-2.524
		c-0.121-0.941-0.771-1.845-1.328-2.575L85.792,30.717z M81.44,39.04c-0.37,0-0.729-0.264-1.167-0.93l5.507-4.192
		c0.729,1.002,0.925,1.38-0.077,2.16l-2.809,2.139C82.298,38.698,81.859,39.04,81.44,39.04"/>
</g>
<g id="Layer_9" display="none">
	
		<text transform="matrix(1 0 0 1 19.001 76.0186)" display="inline" fill="#010101" font-family="'HelveticaNeueLTPro-BdCn'" font-size="9.0876">IEC 61482-2:2018</text>
	
		<text transform="matrix(1 0 0 1 37.4487 86.9238)" display="inline" fill="#010101" font-family="'HelveticaNeueLTPro-BdCn'" font-size="9.0876">Class 1</text>
	<path display="inline" fill="none" stroke="#010101" stroke-width="0.5" stroke-miterlimit="2.613" d="M50.469,34.188l7.897,10.486
		l7.899,10.489H50.469H34.674l7.9-10.489L50.469,34.188z M46.102,39.962H34.674l7.9-10.486l7.895-10.486l7.897,10.486l7.899,10.486
		H54.792 M26.403,12.125h48.133v52.519H26.403V12.125z"/>
</g>
<g id="Layer_10" display="none">
	
		<text transform="matrix(1 0 0 1 5.291 74.9395)" display="inline" fill="#010101" font-family="'HelveticaNeueLTPro-BdCn'" font-size="8.8325">EN 13034:2005 + A1:2009</text>
	
		<text transform="matrix(1 0 0 1 94.7725 74.9395)" display="inline" fill="#010101" font-family="'HelveticaNeueLTPro-BdCn'" font-size="8.8325"> </text>
	<text transform="matrix(1 0 0 1 34.0137 85.5391)" display="inline"><tspan x="0" y="0" fill="#010101" font-family="'HelveticaNeueLTPro-BdCn'" font-size="8.8325">T</tspan><tspan x="3.763" y="0" fill="#010101" font-family="'HelveticaNeueLTPro-BdCn'" font-size="8.8325">ype PB6</tspan></text>
	<g display="inline">
		<path fill="#010101" d="M57.96,51.604c-0.706,1.839-0.568,2.613-5.657,2.899c-5.089,0.282-5.089-0.071-5.089-0.071
			s-8.417,1.249-4.634-5.174l3.565-10.595h7.213L57.96,51.604z"/>
		<path fill="none" stroke="#010101" stroke-width="0.64" stroke-linecap="round" stroke-miterlimit="3.864" d="M46.913,29.531
			c0,0,2.067,0.438,0.58,4.965c-1.059,3.392-3.476,10.523-4.609,13.88c-0.826,2.426-2.64,6.128,2.067,6.128h9.897
			c0,0,4.386,0.072,2.406-5.586c-1.693-4.83-3.97-9.571-5.489-14.437c-0.418-1.337-0.892-3.649,1.386-4.934"/>
		<path fill="none" stroke="#010101" stroke-width="0.64" stroke-linecap="round" stroke-miterlimit="3.864" d="M56.539,20.517
			c1.051,0.666,1.697,0.876,2.415,0.89c2.626,0.052,1.684-1.425,3.399-2.1c0.662-0.257,1.687-0.101,3.235,1.209 M56.47,29.425
			c1.16,0.721,2.123,0.917,2.871,0.896c2.354-0.073,1.764-1.633,3.516-1.908c0.659-0.102,1.339-0.105,2.664,1.012 M50.676,27.16
			c0,0,2.264-2.546,5.235-0.707c1.296,0.804,2.247,0.981,3.268,0.902c2.736-0.214,2.104-1.799,3.912-2.182
			c0.663-0.138,1.622,0.112,3.002,1.28 M50.326,24.172c0,0,2.258-2.544,5.229-0.705c1.346,0.83,2.661,0.968,3.699,0.869
			c2.603-0.253,1.753-1.542,3.479-2.146c0.64-0.226,1.621,0.108,3.004,1.277"/>
		<path fill="none" stroke="#010101" stroke-width="0.361" stroke-miterlimit="3.864" d="M50.025,63.646
			c0,0-17.028-5.321-19.404-28.229L30.458,12.72h39.146l-0.163,22.697C67.064,58.324,50.025,63.646,50.025,63.646z"/>
	</g>
</g>
<g id="Layer_11" display="none">
	<g display="inline">
		<path fill="#010101" d="M28.993,73.575h-9.114c-2.256,0-4.305-0.918-5.79-2.404c-1.479-1.482-2.401-3.527-2.401-5.784V23.614
			c0-2.247,0.925-4.295,2.414-5.783c1.481-1.482,3.528-2.403,5.778-2.403h59.597c2.257,0,4.302,0.92,5.785,2.403
			c1.481,1.481,2.407,3.531,2.407,5.783v41.773c0,2.249-0.926,4.291-2.407,5.773c-1.486,1.491-3.534,2.415-5.785,2.415h-6.842
			H28.993z"/>
		<path fill="#FFCB0B" d="M13.006,31.115v-7.5c0-1.821,0.716-3.54,2.019-4.842c1.305-1.311,3.032-2.03,4.853-2.03h59.598
			c1.832,0,3.559,0.716,4.855,2.017c1.301,1.304,2.018,3.027,2.018,4.855v7.5H13.006z"/>
	</g>
	<rect x="35.092" y="20.09" display="inline" fill="#FFCB0B" width="29.076" height="7.991"/>
	<g display="inline">
		<path fill="#FFCB0B" d="M19.878,72.258c-1.83,0-3.553-0.72-4.855-2.021c-1.3-1.305-2.015-3.026-2.015-4.853v-7.499h73.339v7.499
			c0,1.819-0.713,3.537-2.019,4.837c-1.306,1.311-3.029,2.036-4.853,2.036H19.878z"/>
	</g>
	<rect x="27.336" y="61.006" display="inline" fill="#FFCB0B" width="40.775" height="8.256"/>
	<rect x="69.138" y="60.734" display="inline" fill="#FFCB0B" width="3.084" height="4.681"/>
	
		<text transform="matrix(1 0 0 1 35.8066 27.8608)" display="inline" fill="#010101" font-family="'HelveticaNeueLTPro-Roman'" font-size="11.1808">ATPV</text>
	
		<text transform="matrix(1 0 0 1 26.3252 68.9941)" display="inline" fill="#010101" font-family="'HelveticaNeueLTPro-Roman'" font-size="11.1808">CAL/CM</text>
	
		<text transform="matrix(1 0 0 1 69.3984 65.2734)" display="inline" fill="#010101" font-family="'HelveticaNeueLTPro-Roman'" font-size="6.5184">2</text>
	
		<text transform="matrix(1 0 0 1 20.8418 85.6699)" display="inline" fill="#010101" font-family="'HelveticaNeueLTPro-BdCn'" font-size="11.1808">ASTM F 1959</text>
	
		<text transform="matrix(1 0 0 1 31.1318 52.2539)" display="inline" fill="#FFFFFF" font-family="'HelveticaNeueLTPro-Blk'" font-size="22.2085">9.8</text>
</g>
<g id="Layer_12" display="none">
	
		<text transform="matrix(1 0 0 1 17.5342 74.9521)" display="inline" fill="#010101" font-family="'HelveticaNeueLTPro-BdCn'" font-size="8.8376">EN ISO 11612:2015</text>
	
		<text transform="matrix(1 0 0 1 18.417 85.5576)" display="inline" fill="#010101" font-family="'HelveticaNeueLTPro-BdCn'" font-size="8.8376">A1 A2 B1 C1 E1 F1 </text>
	<path display="inline" fill="#010101" d="M48.009,54.15c0,0-7.502,0.159-7.981-6.386c-0.483-6.585-0.21-8.515-0.21-8.515
		s1.379,1.279,1.809,0.323c0,0,0.53-6.071,0.318-7.343c0,0,0.428-0.644,2.233,2.658c0,0,1.706-1.702,0.428-9.474
		c0,0,1.595-0.423,3.193,2.239c0,0,0.746,0.423,1.064-9.791c0,0,1.063,5.213,2.769,7.129c1.701,1.916,1.486,3.512,1.486,3.512
		s0.43,0,0.854-2.235c0,0,2.394,1.225,3.297,9.048c0,0,0.479-0.271,0.532-1.757c0.031-0.753,3.037,2.927,2.609,10.004
		c0,0,0.531,0.264,1.17-0.159c0,0,0,10.163-9.79,10.797c0,0,5.59-4.521,4.309-10.424c0,0-0.373,0.9-1.222,0.742
		c0,0,0.424-3.513-0.321-4.683c0,0-1.279,2.925-2.235,3.354c0,0,0.906-5.002-1.649-7.291c0,0-0.583,6.704-1.38,7.023
		c0,0-0.908-1.543-1.864-2.073c0,0-0.159,5.477,0.052,5.691c0,0-2.341-3.136-2.713-4.679c0,0-0.532,0.532-0.425,4.042
		c0,0-0.321,0-0.693-0.425c0,0-0.318,3.884,4.098,8.442L48.009,54.15z"/>
	<path display="inline" fill="none" stroke="#010101" stroke-width="0.361" stroke-miterlimit="3.864" d="M43.221,54.788h13.412
		 M50.346,63.646c0,0-17.033-5.323-19.415-28.243l-0.162-22.71H69.94l-0.166,22.71C67.396,58.323,50.346,63.646,50.346,63.646z"/>
</g>
<g id="Layer_13" display="none">
	<g display="inline">
		<g>
			<path fill="#010101" d="M75.369,86.648c0,1.288-1.047,2.332-2.335,2.332H26.103c-1.288,0-2.335-1.044-2.335-2.332V74.593
				c0-1.29,1.047-2.333,2.335-2.333h46.931c1.288,0,2.335,1.043,2.335,2.333V86.648z"/>
			<path fill="#010101" d="M75.251,55.839h0.539c0.231,0,0.389,0.016,0.474,0.049c0.085,0.035,0.153,0.086,0.2,0.155
				c0.049,0.066,0.072,0.146,0.072,0.232c0,0.135-0.05,0.241-0.15,0.324s-0.285,0.122-0.561,0.122h-0.574V55.839z M75.251,58.373
				v-1.246h0.278c0.166,0,0.292,0.032,0.38,0.101c0.125,0.093,0.289,0.32,0.494,0.684l0.261,0.462h0.578l-0.359-0.574
				c-0.172-0.271-0.313-0.466-0.432-0.582c-0.063-0.061-0.146-0.11-0.25-0.155c0.253-0.018,0.456-0.108,0.607-0.268
				c0.154-0.158,0.23-0.345,0.23-0.559c0-0.153-0.046-0.295-0.138-0.431c-0.09-0.135-0.215-0.228-0.368-0.283
				c-0.153-0.055-0.402-0.082-0.748-0.082h-1.008v2.934H75.251z M77.09,54.887c0.364,0.196,0.646,0.478,0.851,0.841
				c0.204,0.365,0.305,0.744,0.305,1.14c0,0.393-0.1,0.768-0.3,1.128s-0.48,0.641-0.843,0.841c-0.359,0.201-0.735,0.302-1.129,0.302
				c-0.392,0-0.771-0.101-1.13-0.302c-0.362-0.2-0.643-0.48-0.844-0.841c-0.202-0.36-0.302-0.735-0.302-1.128
				c0-0.396,0.103-0.774,0.307-1.14c0.204-0.363,0.489-0.645,0.851-0.841s0.736-0.294,1.118-0.294S76.727,54.69,77.09,54.887
				 M74.634,54.493c-0.436,0.235-0.776,0.57-1.019,1.008c-0.246,0.437-0.369,0.891-0.369,1.366c0,0.469,0.121,0.921,0.364,1.353
				c0.239,0.437,0.576,0.771,1.008,1.011c0.432,0.24,0.883,0.36,1.355,0.36s0.923-0.12,1.356-0.36
				c0.432-0.239,0.768-0.574,1.007-1.011c0.239-0.432,0.36-0.884,0.36-1.353c0-0.476-0.122-0.93-0.367-1.366
				c-0.242-0.438-0.582-0.772-1.017-1.008c-0.436-0.235-0.883-0.352-1.34-0.352C75.518,54.142,75.07,54.258,74.634,54.493"/>
		</g>
		<text transform="matrix(1 0 0 1 26.3887 69.2773)"><tspan x="0" y="0" fill="#010101" font-family="'HelveticaNeueLTPro-Blk'" font-size="16.913">NF</tspan><tspan x="23.492" y="0" fill="#010101" font-family="'HelveticaNeueLTPro-Blk'" font-size="16.913" letter-spacing="-1">P</tspan><tspan x="34.164" y="0" fill="#010101" font-family="'HelveticaNeueLTPro-Blk'" font-size="16.913">A</tspan></text>
		<g>
			<path fill="#010101" d="M32.338,13.138h34.461c2.051,0,3.91,0.836,5.259,2.184c1.348,1.348,2.188,3.209,2.188,5.257v25.89
				c0,2.045-0.84,3.901-2.188,5.25c-1.352,1.352-3.214,2.195-5.259,2.195h-6.221v-4.999h6.221c0.677,0,1.289-0.269,1.728-0.71
				c0.442-0.444,0.72-1.06,0.72-1.736v-25.89c0-0.669-0.277-1.28-0.72-1.726c-0.446-0.444-1.058-0.72-1.728-0.72H32.338
				c-0.675,0-1.295,0.276-1.735,0.72c-0.441,0.439-0.715,1.05-0.715,1.726v25.89c0,0.67,0.277,1.282,0.725,1.728
				c0.441,0.441,1.053,0.718,1.726,0.718h8.289v4.999h-8.289c-2.051,0-3.914-0.836-5.26-2.188c-1.349-1.346-2.184-3.206-2.184-5.257
				v-25.89c0-2.042,0.839-3.903,2.192-5.257C28.434,13.974,30.293,13.138,32.338,13.138"/>
			<path fill="#EC2427" d="M43.835,49.347c0,0-3.455-2.796-2.798-7.319c0.657-4.527,3.208-7.49,1.155-11.438
				c0,0,4.853,5.428,5.59,7.817c0,0,0.167-2.633-0.41-4.116c-0.574-1.48-1.234-5.018,0.167-7.324
				c-0.89,4.109,5.099,8.06,6.004,12.587c0,0,2.882-0.739,1.893-9.625c0,0,8.313,8.394,2.55,18.677c0,0,0.083-2.55-0.247-3.62
				c0,0-2.384,6.914-6.169,9.707c2.094-6.134,0.281-6.529-0.824-11.271c0,0-1.777,5.844-1.893,10.124c0,0-3.414-1.896-4.526-8.56
				C43.852,46.488,43.738,47.833,43.835,49.347 M53.576,35.557c-2.48-5.171-6.547-7.449-3.817-14.594
				C50.018,27.098,55.369,28.264,53.576,35.557"/>
		</g>
		<text transform="matrix(1 0 0 1 30.1094 84.2422)" fill="#FFFFFF" font-family="'HelveticaNeueLTPro-Blk'" font-size="10.1478">70E</text>
		<path fill="none" stroke="#010101" d="M66.062,76.23"/>
		<g>
			<path fill="#FFCB0B" d="M56.946,88.262V72.978h16.089c0.891,0,1.613,0.725,1.613,1.615v12.056c0,0.889-0.723,1.613-1.613,1.613
				H56.946z"/>
		</g>
		<text transform="matrix(-6.123234e-017 -1 1 -6.123234e-017 62.7803 84.4951)"><tspan x="0" y="0" fill="#010101" font-family="'HelveticaNeueLTPro-BdCn'" font-size="5.0739">C</tspan><tspan x="2.639" y="0" fill="#010101" font-family="'HelveticaNeueLTPro-BdCn'" font-size="5.0739">A</tspan><tspan x="5.181" y="0" fill="#010101" font-family="'HelveticaNeueLTPro-BdCn'" font-size="5.0739">T</tspan></text>
		<text transform="matrix(1 0 0 1 64.083 85.5557)" fill="#010101" font-family="'HelveticaNeueLTPro-Blk'" font-size="13.5304">2</text>
	</g>
</g>
<g id="Layer_14" display="none">
	<g display="inline">
		<text transform="matrix(1 0 0 1 16.5522 75.5518)" fill="#010101" font-family="'HelveticaNeueLTPro-BdCn'" font-size="8.9265">EN ISO 11612:2015</text>
		<text transform="matrix(1 0 0 1 23.1313 86.2627)" fill="#010101" font-family="'HelveticaNeueLTPro-BdCn'" font-size="8.9265">A1 B1 C1 E2 F1</text>
		<g>
			<path fill="#010101" d="M47.335,54.54c0,0-7.577,0.163-8.063-6.449c-0.487-6.652-0.212-8.601-0.212-8.601
				s1.394,1.291,1.828,0.324c0,0,0.536-6.129,0.319-7.415c0,0,0.434-0.65,2.257,2.685c0,0,1.722-1.719,0.432-9.57
				c0,0,1.611-0.429,3.226,2.261c0,0,0.753,0.427,1.074-9.889c0,0,1.074,5.264,2.796,7.199c1.718,1.936,1.502,3.55,1.502,3.55
				s0.433,0,0.862-2.258c0,0,2.419,1.236,3.33,9.139c0,0,0.484-0.274,0.536-1.775c0.031-0.76,3.068,2.957,2.637,10.104
				c0,0,0.537,0.267,1.182-0.162c0,0,0,10.266-9.89,10.907c0,0,5.646-4.567,4.353-10.529c0,0-0.376,0.91-1.234,0.749
				c0,0,0.43-3.548-0.324-4.729c0,0-1.29,2.955-2.257,3.388c0,0,0.914-5.053-1.667-7.364c0,0-0.589,6.771-1.395,7.094
				c0,0-0.917-1.559-1.883-2.094c0,0-0.161,5.532,0.053,5.749c0,0-2.365-3.169-2.741-4.727c0,0-0.538,0.537-0.429,4.082
				c0,0-0.324,0-0.701-0.427c0,0-0.319,3.921,4.139,8.528L47.335,54.54z"/>
			<path fill="none" stroke="#010101" stroke-width="0.361" stroke-miterlimit="3.864" d="M42.5,55.186h13.545 M49.695,64.133
				c0,0-17.204-5.377-19.609-28.527l-0.165-22.938h39.566L69.32,35.606C66.917,58.756,49.695,64.133,49.695,64.133z"/>
		</g>
	</g>
</g>
<g id="Layer_15" display="none">
	
		<text transform="matrix(1 0 0 1 16.3159 75.5322)" display="inline" fill="#010101" font-family="'HelveticaNeueLTPro-BdCn'" font-size="8.941">EN ISO 11611:2015</text>
	
		<text transform="matrix(1 0 0 1 30.4253 86.2607)" display="inline" fill="#010101" font-family="'HelveticaNeueLTPro-BdCn'" font-size="8.941">Class 1-A1</text>
	<g display="inline">
		<rect x="36.082" y="43.868" fill="#010101" width="26.527" height="3.896"/>
		<g>
			<path fill="#010101" d="M38.676,41.42c0-0.714,0.58-1.3,1.3-1.3c0.715,0,1.295,0.585,1.295,1.3c0,0.716-0.58,1.297-1.295,1.297
				C39.256,42.717,38.676,42.136,38.676,41.42"/>
			<path fill="#010101" d="M53.67,41.42c0-0.714,0.583-1.3,1.301-1.3c0.714,0,1.294,0.585,1.294,1.3c0,0.716-0.58,1.297-1.294,1.297
				C54.253,42.717,53.67,42.136,53.67,41.42"/>
			<path fill="#010101" d="M40.555,37.969c0-0.714,0.583-1.295,1.301-1.295c0.715,0,1.293,0.582,1.293,1.295
				c0,0.716-0.579,1.301-1.293,1.301C41.138,39.27,40.555,38.685,40.555,37.969"/>
			<path fill="#010101" d="M44.159,36.097c0-0.718,0.583-1.3,1.3-1.3c0.715,0,1.295,0.582,1.295,1.3c0,0.716-0.58,1.297-1.295,1.297
				C44.743,37.395,44.159,36.813,44.159,36.097"/>
			<path fill="#010101" d="M51.801,37.826c0-0.714,0.583-1.3,1.302-1.3c0.714,0,1.293,0.585,1.293,1.3
				c0,0.716-0.579,1.297-1.293,1.297C52.384,39.124,51.801,38.542,51.801,37.826"/>
		</g>
		<path fill="none" stroke="#010101" stroke-width="0.645" stroke-miterlimit="3.864" d="M50.382,28.302l-0.511,9.516
			 M63.906,23.398H48.911v4.47h15.138h-9.513v-4.47"/>
		<g>
			<path fill="none" stroke="#010101" stroke-width="0.361" stroke-miterlimit="3.864" d="M49.521,64.094
				c0,0-17.24-5.382-19.648-28.573V12.545H69.18v22.976C66.771,58.708,49.521,64.094,49.521,64.094z"/>
		</g>
	</g>
</g>
<g id="Layer_16" display="none">
	<g display="inline">
		<text transform="matrix(1 0 0 1 18.4927 75.8564)" fill="#010101" font-family="'HelveticaNeueLTPro-BdCn'" font-size="8.9836">IEC 61482-2:2018</text>
		<text transform="matrix(1 0 0 1 37.5117 86.6348)" fill="#010101" font-family="'HelveticaNeueLTPro-BdCn'" font-size="8.9836">APC=1</text>
		<g>
			<path fill="none" stroke="#010101" stroke-width="0.361" stroke-miterlimit="3.864" d="M49.592,64.364
				c0,0-17.313-5.413-19.733-28.71l-0.165-23.085h39.818l-0.169,23.085C66.926,58.951,49.592,64.364,49.592,64.364z"/>
		</g>
		<polygon fill="#010101" points="38.499,33.592 44.152,17.898 39.306,17.898 34.971,37.263 43.886,31.942 41.942,46.778 
			40.343,45.767 41.818,51.84 45.139,46.548 43.323,46.994 47.294,28.286 		"/>
		<polygon fill="#010101" points="63.488,39.259 58.547,35.741 58.547,34.807 60.756,33.869 58.62,33.122 58.62,31.999 
			66.257,26.309 57.086,26.309 58.96,21.555 54.843,23.763 56.19,19.831 50.8,23.165 50.835,25.56 53.869,25.56 54.205,26.608 
			52.857,28.89 56.264,28.854 56.602,30.051 53.645,32.111 55.103,32.932 55.402,33.831 54.318,34.543 55.252,34.992 55.441,36.076 
			52.896,35.891 54.094,40.268 50.76,38.288 50.611,42.254 51.924,44.835 52.107,40.87 58.921,48.205 56.32,40.775 56.86,40.233 
			58.81,41.095 57.573,39.11 57.573,37.987 		"/>
	</g>
</g>
<g id="Layer_17" display="none">
	
		<text transform="matrix(1 0 0 1 20.6431 75.1865)" display="inline" fill="#010101" font-family="'HelveticaNeueLTPro-BdCn'" font-size="8.9287">EN 17353:2020</text>
	
		<text transform="matrix(1 0 0 1 72.9199 75.1865)" display="inline" fill="#010101" font-family="'HelveticaNeueLTPro-BdCn'" font-size="8.9287"> </text>
	<text transform="matrix(1 0 0 1 32.9028 85.9014)" display="inline"><tspan x="0" y="0" fill="#010101" font-family="'HelveticaNeueLTPro-BdCn'" font-size="8.9287">T</tspan><tspan x="3.804" y="0" fill="#010101" font-family="'HelveticaNeueLTPro-BdCn'" font-size="8.9287">ype B2</tspan></text>
	<g display="inline">
		
			<line fill="none" stroke="#010101" stroke-width="1.701" stroke-miterlimit="3.864" x1="28.188" y1="46.738" x2="46.969" y2="46.738"/>
		
			<line fill="none" stroke="#010101" stroke-width="1.701" stroke-miterlimit="3.864" x1="65.377" y1="46.738" x2="46.595" y2="46.738"/>
		<g>
			<g>
				<path fill="none" stroke="#010101" stroke-width="0.361" stroke-miterlimit="3.864" d="M40.042,20.516l6.787,10.414
					 M46.787,19.211c0,0-8.095,0.19-13.672,5.117c0,0,3.812,10.322-4.744,15.342v17.295h18.412"/>
			</g>
			<g>
				<path fill="none" stroke="#010101" stroke-width="0.361" stroke-miterlimit="3.864" d="M53.524,20.516L46.735,30.93
					 M46.776,19.211c0,0,8.095,0.19,13.675,5.117c0,0-3.812,10.322,4.742,15.342v17.295H46.784"/>
			</g>
			
				<rect x="23.136" y="12.286" fill="none" stroke="#010101" stroke-width="0.361" stroke-miterlimit="3.864" width="47.291" height="51.6"/>
			
				<line fill="none" stroke="#010101" stroke-width="0.361" stroke-miterlimit="3.864" x1="46.776" y1="48.002" x2="46.776" y2="30.742"/>
		</g>
	</g>
	<path display="inline" fill="#010101" d="M87.971,42.973c-3.155-1.063-7.074-0.012-9.174,3.258
		c-2.057,3.208-1.597,7.608,1.511,10.338c2.803,2.461,6.538,2.423,8.918,1.111c-2.033,0.135-3.847-0.408-5.402-1.719
		c-1.559-1.312-2.455-2.994-2.632-5.026c-0.176-2.019,0.393-3.828,1.701-5.378C84.207,44.004,85.906,43.167,87.971,42.973
		 M79.606,56.513c-2.853-2.872-3.289-7.371-1.012-10.714c2.224-3.269,6.49-4.522,10.153-2.984c0.202,0.085,0.279,0.195,0.244,0.349
		c-0.035,0.146-0.145,0.212-0.359,0.209c-1.524-0.026-2.924,0.371-4.15,1.275c-2.148,1.583-3.137,3.735-2.867,6.388
		c0.408,4.04,4.182,6.849,8.185,6.154c0.04-0.007,0.078-0.014,0.117-0.021c0.149-0.02,0.259,0.038,0.311,0.178
		c0.046,0.141,0,0.262-0.133,0.331c-0.43,0.226-0.845,0.487-1.295,0.66c-2.835,1.106-5.524,0.787-8.046-0.904
		C80.347,57.162,79.988,56.822,79.606,56.513"/>
</g>
<g id="Layer_18" display="none">
	
		<text transform="matrix(1 0 0 1 16.5508 75.8838)" display="inline" fill="#010101" font-family="'HelveticaNeueLTPro-BdCn'" font-size="9.0593">EN ISO 11612:2015</text>
	
		<text transform="matrix(1 0 0 1 83.8438 75.8838)" display="inline" fill="#010101" font-family="'HelveticaNeueLTPro-BdCn'" font-size="9.0593"> </text>
	
		<text transform="matrix(1 0 0 1 11.5967 86.7549)" display="inline" fill="#010101" font-family="'HelveticaNeueLTPro-BdCn'" font-size="9.0593">A1 A2 B1 C1 D3 E3 F1</text>
	<g display="inline">
		<path fill="#010101" d="M47.789,54.565c0,0-7.69,0.163-8.183-6.546c-0.496-6.75-0.215-8.729-0.215-8.729s1.416,1.311,1.854,0.331
			c0,0,0.545-6.223,0.326-7.527c0,0,0.44-0.66,2.289,2.725c0,0,1.748-1.745,0.438-9.712c0,0,1.637-0.433,3.274,2.294
			c0,0,0.764,0.434,1.09-10.035c0,0,1.09,5.343,2.837,7.308c1.745,1.963,1.528,3.601,1.528,3.601s0.436,0,0.873-2.291
			c0,0,2.458,1.256,3.38,9.275c0,0,0.49-0.278,0.543-1.802c0.034-0.771,3.114,3.001,2.679,10.256c0,0,0.543,0.27,1.196-0.163
			c0,0,0,10.417-10.035,11.068c0,0,5.729-4.634,4.418-10.686c0,0-0.383,0.924-1.255,0.761c0,0,0.435-3.601-0.33-4.8
			c0,0-1.308,2.999-2.289,3.438c0,0,0.929-5.127-1.69-7.475c0,0-0.599,6.873-1.415,7.2c0,0-0.931-1.582-1.912-2.125
			c0,0-0.163,5.614,0.053,5.833c0,0-2.4-3.214-2.782-4.796c0,0-0.545,0.545-0.436,4.144c0,0-0.329,0-0.711-0.435
			c0,0-0.323,3.981,4.203,8.654L47.789,54.565z"/>
		<path fill="none" stroke="#010101" stroke-width="0.361" stroke-miterlimit="3.864" d="M42.88,55.219h13.748 M50.184,64.3
			c0,0-17.46-5.458-19.9-28.952l-0.167-23.28H70.27l-0.17,23.28C67.664,58.842,50.184,64.3,50.184,64.3z"/>
	</g>
</g>
<g id="Layer_19" display="none">
	<g display="inline">
		<text transform="matrix(1 0 0 1 16.8032 75.4932)" fill="#010101" font-family="'HelveticaNeueLTPro-BdCn'" font-size="8.8967">EN ISO 11611:2015</text>
		<text transform="matrix(1 0 0 1 24.5874 86.1699)" fill="#010101" font-family="'HelveticaNeueLTPro-BdCn'" font-size="8.8967">Class 2-A1-A2</text>
		<rect x="36.171" y="43.988" fill="#010101" width="26.395" height="3.875"/>
		<g>
			<path fill="#010101" d="M38.753,41.55c0-0.711,0.577-1.293,1.293-1.293c0.712,0,1.289,0.582,1.289,1.293
				c0,0.712-0.577,1.291-1.289,1.291C39.33,42.841,38.753,42.263,38.753,41.55"/>
			<path fill="#010101" d="M53.672,41.55c0-0.711,0.581-1.293,1.293-1.293c0.713,0,1.29,0.582,1.29,1.293
				c0,0.712-0.577,1.291-1.29,1.291C54.253,42.841,53.672,42.263,53.672,41.55"/>
			<path fill="#010101" d="M40.623,38.117c0-0.711,0.581-1.29,1.293-1.29s1.29,0.579,1.29,1.29c0,0.712-0.577,1.294-1.29,1.294
				S40.623,38.829,40.623,38.117"/>
			<path fill="#010101" d="M44.209,36.255c0-0.716,0.581-1.294,1.293-1.294s1.29,0.579,1.29,1.294c0,0.711-0.577,1.29-1.29,1.29
				S44.209,36.966,44.209,36.255"/>
			<path fill="#010101" d="M51.813,37.976c0-0.712,0.58-1.294,1.292-1.294c0.713,0,1.29,0.582,1.29,1.294
				c0,0.711-0.577,1.29-1.29,1.29C52.394,39.265,51.813,38.687,51.813,37.976"/>
		</g>
		<path fill="none" stroke="#010101" stroke-width="0.645" stroke-miterlimit="3.864" d="M50.398,28.497l-0.504,9.468
			 M63.858,23.618H48.939v4.448h15.062h-9.467v-4.448"/>
		<path fill="none" stroke="#010101" stroke-width="0.361" stroke-miterlimit="3.864" d="M49.544,64.111
			c0,0-17.154-5.355-19.552-28.431V12.818h39.115V35.68C66.712,58.753,49.544,64.111,49.544,64.111z"/>
	</g>
</g>
<g id="Layer_20" display="none">
	
		<text transform="matrix(1 0 0 1 14.6196 75.7236)" display="inline" fill="#010101" font-family="'HelveticaNeueLTPro-BdCn'" font-size="8.9262">ICE 61482-1-2:2018</text>
	
		<text transform="matrix(1 0 0 1 38.3359 86.4336)" display="inline" fill="#010101" font-family="'HelveticaNeueLTPro-BdCn'" font-size="8.9262">APC-1</text>
	<g display="inline">
		<path fill="none" stroke="#010101" stroke-width="0.361" stroke-miterlimit="3.864" d="M49.314,64.307
			c0,0-17.203-5.378-19.606-28.527l-0.167-22.938h39.566L68.939,35.78C66.536,58.929,49.314,64.307,49.314,64.307z"/>
	</g>
	<polygon display="inline" fill="#010101" points="38.292,33.731 43.909,18.138 39.094,18.138 34.787,37.379 43.645,32.092 
		41.712,46.833 40.125,45.828 41.59,51.864 44.889,46.604 43.086,47.047 47.032,28.459 	"/>
	<polygon display="inline" fill="#010101" points="63.121,39.362 58.212,35.867 58.212,34.938 60.406,34.007 58.285,33.264 
		58.285,32.148 65.872,26.495 56.762,26.495 58.621,21.771 54.531,23.965 55.871,20.058 50.515,23.37 50.55,25.75 53.563,25.75 
		53.896,26.792 52.559,29.059 55.943,29.024 56.278,30.213 53.341,32.26 54.79,33.075 55.087,33.968 54.01,34.676 54.938,35.123 
		55.126,36.2 52.597,36.016 53.787,40.365 50.476,38.396 50.326,42.338 51.631,44.903 51.813,40.963 58.584,48.25 56.002,40.869 
		56.538,40.33 58.474,41.186 57.244,39.214 57.244,38.098 	"/>
</g>
</svg>
