<?xml version="1.0" encoding="utf-8"?>
<!-- Generator: Adobe Illustrator 16.0.0, SVG Export Plug-In . SVG Version: 6.00 Build 0)  -->
<!DOCTYPE svg PUBLIC "-//W3C//DTD SVG 1.1//EN" "http://www.w3.org/Graphics/SVG/1.1/DTD/svg11.dtd">
<svg version="1.1" id="Layer_1" xmlns="http://www.w3.org/2000/svg" xmlns:xlink="http://www.w3.org/1999/xlink" x="0px" y="0px"
	 width="100px" height="100px" viewBox="0 0 100 100" enable-background="new 0 0 100 100" xml:space="preserve">
<g display="none">
	<g display="inline">
		<path fill="#010101" d="M24.451,77.896v-7.461h5.967v1.263h-4.342v1.653h4.04v1.258h-4.04v2.03h4.496v1.257H24.451z"/>
		<path fill="#010101" d="M31.965,77.896v-7.461h1.581l3.293,4.982v-4.982h1.51v7.461h-1.63l-3.244-4.865v4.865H31.965z"/>
		<path fill="#010101" d="M46.797,77.896h-1.542v-5.39c-0.563,0.489-1.228,0.851-1.993,1.084v-1.298
			c0.402-0.122,0.84-0.354,1.312-0.694s0.796-0.738,0.972-1.193h1.251V77.896z"/>
		<path fill="#010101" d="M49.048,75.917l1.493-0.168c0.048,0.353,0.176,0.622,0.384,0.809c0.208,0.188,0.462,0.28,0.758,0.28
			c0.318,0,0.586-0.112,0.804-0.336s0.327-0.525,0.327-0.905c0-0.36-0.104-0.646-0.313-0.855c-0.208-0.21-0.463-0.315-0.763-0.315
			c-0.198,0-0.434,0.035-0.708,0.106l0.17-1.165c0.418,0.01,0.735-0.074,0.955-0.252s0.329-0.415,0.329-0.71
			c0-0.251-0.08-0.451-0.241-0.601s-0.375-0.224-0.643-0.224c-0.264,0-0.488,0.085-0.675,0.254c-0.187,0.17-0.3,0.418-0.34,0.743
			l-1.421-0.224c0.099-0.451,0.248-0.812,0.447-1.081c0.199-0.271,0.478-0.482,0.834-0.637c0.356-0.154,0.756-0.231,1.199-0.231
			c0.758,0,1.365,0.224,1.823,0.672c0.377,0.366,0.565,0.78,0.565,1.241c0,0.655-0.387,1.178-1.158,1.568
			c0.461,0.091,0.829,0.297,1.105,0.615c0.276,0.319,0.415,0.704,0.415,1.155c0,0.655-0.259,1.213-0.774,1.675
			c-0.516,0.461-1.158,0.691-1.927,0.691c-0.728,0-1.332-0.194-1.812-0.582C49.402,77.053,49.125,76.545,49.048,75.917z"/>
		<path fill="#010101" d="M57.962,70.405c0.779,0,1.389,0.258,1.828,0.773c0.522,0.611,0.784,1.624,0.784,3.038
			c0,1.412-0.263,2.426-0.79,3.044c-0.436,0.509-1.043,0.763-1.822,0.763c-0.783,0-1.414-0.278-1.894-0.837
			c-0.479-0.558-0.72-1.553-0.72-2.984c0-1.405,0.264-2.416,0.791-3.033C56.575,70.66,57.183,70.405,57.962,70.405z M57.962,71.591
			c-0.187,0-0.354,0.056-0.5,0.166c-0.146,0.11-0.26,0.308-0.34,0.593c-0.106,0.369-0.159,0.992-0.159,1.867
			c0,0.876,0.048,1.477,0.143,1.805c0.095,0.327,0.215,0.545,0.359,0.653c0.145,0.109,0.311,0.163,0.497,0.163
			s0.354-0.055,0.499-0.165c0.146-0.11,0.26-0.309,0.341-0.593c0.106-0.367,0.159-0.987,0.159-1.863
			c0-0.875-0.048-1.477-0.143-1.804c-0.096-0.327-0.215-0.546-0.359-0.656S58.148,71.591,57.962,71.591z"/>
		<path fill="#010101" d="M61.552,75.917l1.493-0.168c0.047,0.353,0.176,0.622,0.384,0.809c0.209,0.188,0.461,0.28,0.758,0.28
			c0.318,0,0.586-0.112,0.804-0.336s0.327-0.525,0.327-0.905c0-0.36-0.104-0.646-0.313-0.855c-0.208-0.21-0.463-0.315-0.763-0.315
			c-0.197,0-0.434,0.035-0.708,0.106l0.17-1.165c0.417,0.01,0.735-0.074,0.955-0.252s0.329-0.415,0.329-0.71
			c0-0.251-0.08-0.451-0.241-0.601s-0.375-0.224-0.642-0.224c-0.264,0-0.489,0.085-0.676,0.254c-0.187,0.17-0.3,0.418-0.34,0.743
			l-1.422-0.224c0.099-0.451,0.248-0.812,0.447-1.081c0.199-0.271,0.478-0.482,0.834-0.637c0.357-0.154,0.757-0.231,1.199-0.231
			c0.758,0,1.365,0.224,1.823,0.672c0.377,0.366,0.565,0.78,0.565,1.241c0,0.655-0.387,1.178-1.158,1.568
			c0.461,0.091,0.829,0.297,1.105,0.615c0.276,0.319,0.415,0.704,0.415,1.155c0,0.655-0.259,1.213-0.774,1.675
			c-0.516,0.461-1.158,0.691-1.927,0.691c-0.729,0-1.332-0.194-1.812-0.582C61.906,77.053,61.628,76.545,61.552,75.917z"/>
		<path fill="#010101" d="M70.883,77.896v-1.501H67.59v-1.252l3.49-4.738h1.296v4.733h0.999v1.257h-0.999v1.501H70.883z
			 M70.883,75.139v-2.55l-1.85,2.55H70.883z"/>
	</g>
	<g display="inline">
		<path fill="#010101" d="M33.875,90.403v-6.198h-2.388v-1.263h6.395v1.263h-2.382v6.198H33.875z"/>
		<path fill="#010101" d="M37.357,84.999h1.642l1.394,3.837l1.361-3.837h1.597L41.293,90.2l-0.368,0.941
			c-0.136,0.315-0.265,0.556-0.387,0.723c-0.123,0.166-0.264,0.301-0.423,0.404s-0.355,0.184-0.587,0.241s-0.495,0.087-0.788,0.087
			c-0.296,0-0.587-0.029-0.873-0.087l-0.137-1.119c0.241,0.044,0.459,0.066,0.653,0.066c0.358,0,0.624-0.098,0.796-0.293
			c0.172-0.195,0.304-0.443,0.395-0.745L37.357,84.999z"/>
		<path fill="#010101" d="M44.295,84.999h1.438v0.794c0.187-0.271,0.439-0.492,0.757-0.662s0.671-0.254,1.06-0.254
			c0.677,0,1.251,0.246,1.724,0.737c0.472,0.492,0.708,1.178,0.708,2.057c0,0.902-0.238,1.604-0.713,2.104
			c-0.476,0.501-1.052,0.751-1.729,0.751c-0.322,0-0.614-0.06-0.875-0.178c-0.262-0.119-0.537-0.322-0.826-0.611v2.723h-1.542
			V84.999z M45.821,87.609c0,0.607,0.13,1.056,0.39,1.346s0.576,0.436,0.95,0.436c0.358,0,0.657-0.133,0.895-0.399
			s0.357-0.703,0.357-1.311c0-0.566-0.123-0.987-0.368-1.262c-0.245-0.275-0.549-0.413-0.911-0.413c-0.377,0-0.69,0.136-0.939,0.405
			S45.821,87.08,45.821,87.609z"/>
		<path fill="#010101" d="M54.582,88.684l1.537,0.239c-0.197,0.522-0.51,0.92-0.936,1.193c-0.428,0.272-0.961,0.409-1.602,0.409
			c-1.014,0-1.764-0.307-2.25-0.921c-0.384-0.492-0.576-1.113-0.576-1.862c0-0.896,0.252-1.598,0.758-2.104
			c0.504-0.508,1.143-0.761,1.916-0.761c0.867,0,1.551,0.265,2.053,0.796c0.5,0.531,0.74,1.345,0.719,2.44h-3.865
			c0.012,0.424,0.137,0.754,0.373,0.99c0.238,0.235,0.535,0.354,0.891,0.354c0.24,0,0.443-0.062,0.609-0.184
			C54.373,89.151,54.498,88.955,54.582,88.684z M54.67,87.238c-0.012-0.414-0.127-0.729-0.346-0.944
			c-0.221-0.216-0.486-0.323-0.803-0.323c-0.336,0-0.613,0.113-0.834,0.341c-0.219,0.228-0.328,0.536-0.324,0.927H54.67z"/>
		<path fill="#010101" d="M65.478,84.77l-1.493,0.153c-0.036-0.285-0.132-0.496-0.285-0.632s-0.354-0.203-0.599-0.203
			c-0.325,0-0.601,0.136-0.826,0.407c-0.225,0.271-0.366,0.836-0.425,1.694c0.384-0.421,0.861-0.631,1.433-0.631
			c0.644,0,1.195,0.228,1.654,0.682c0.46,0.455,0.689,1.042,0.689,1.761c0,0.764-0.241,1.376-0.725,1.838
			c-0.483,0.461-1.104,0.691-1.861,0.691c-0.812,0-1.479-0.292-2.003-0.878c-0.523-0.585-0.785-1.544-0.785-2.878
			c0-1.367,0.272-2.353,0.818-2.956c0.545-0.604,1.253-0.906,2.124-0.906c0.611,0,1.117,0.159,1.518,0.476
			C65.112,83.705,65.368,84.166,65.478,84.77z M61.981,87.89c0,0.465,0.115,0.823,0.346,1.076s0.494,0.379,0.79,0.379
			c0.285,0,0.523-0.104,0.714-0.311s0.285-0.546,0.285-1.018c0-0.485-0.103-0.841-0.308-1.066s-0.461-0.338-0.769-0.338
			c-0.296,0-0.547,0.107-0.752,0.323C62.083,87.15,61.981,87.469,61.981,87.89z"/>
	</g>
	<path display="inline" fill="#010101" d="M58.722,50.214c-0.888,2.17-0.726,3.083-7.192,3.419
		c-6.482,0.334-6.482-0.081-6.482-0.081s-10.712,1.475-5.897-6.107l4.541-12.503h9.17L58.722,50.214z"/>
	<path display="inline" fill="none" stroke="#010101" stroke-width="0.64" stroke-linecap="round" stroke-miterlimit="3.864" d="
		M44.668,24.167c0,0,2.629,0.517,0.733,5.86c-1.343,4-4.419,12.416-5.861,16.377c-1.051,2.862-3.363,7.23,2.627,7.23h12.598
		c0,0,5.577,0.086,3.069-6.591c-2.159-5.7-5.066-11.293-6.991-17.038c-0.535-1.576-1.141-4.303,1.767-5.822"/>
	<path display="inline" fill="none" stroke="#010101" stroke-width="0.64" stroke-linecap="round" stroke-miterlimit="3.864" d="
		M56.914,13.53c1.343,0.786,2.162,1.032,3.076,1.051c3.342,0.059,2.147-1.684,4.333-2.478c0.842-0.303,2.147-0.123,4.113,1.427
		 M56.826,24.042c1.482,0.849,2.71,1.081,3.655,1.057c2.998-0.086,2.245-1.928,4.484-2.252c0.834-0.122,1.702-0.125,3.381,1.195
		 M49.454,21.369c0,0,2.875-3.005,6.67-0.834c1.643,0.949,2.85,1.158,4.158,1.063c3.473-0.25,2.677-2.121,4.98-2.573
		c0.837-0.163,2.059,0.13,3.814,1.511 M49.014,17.844c0,0,2.87-3.003,6.65-0.833c1.719,0.979,3.397,1.142,4.716,1.024
		c3.313-0.297,2.229-1.817,4.427-2.532c0.806-0.264,2.062,0.13,3.819,1.508"/>
	<path display="inline" fill="none" stroke="#010101" stroke-width="0.361" stroke-miterlimit="3.864" d="M48.623,64.423
		c0,0-21.668-6.28-24.695-33.311L23.723,4.327H73.55l-0.211,26.786C70.311,58.143,48.623,64.423,48.623,64.423z"/>
</g>
<g display="none">
	<g display="inline">
		<path fill="#010101" d="M22.143,75.353v-7.066h5.239v1.195h-3.813v1.566h3.547v1.19h-3.547v1.924h3.948v1.19H22.143z"/>
		<path fill="#010101" d="M28.741,75.353v-7.066h1.389l2.892,4.719v-4.719h1.325v7.066h-1.432l-2.849-4.608v4.608H28.741z"/>
		<path fill="#010101" d="M42.889,70.017l-1.311,0.145c-0.032-0.27-0.116-0.469-0.251-0.598c-0.135-0.129-0.31-0.192-0.525-0.192
			c-0.286,0-0.528,0.128-0.725,0.385c-0.198,0.258-0.322,0.793-0.374,1.605c0.338-0.398,0.757-0.598,1.258-0.598
			c0.565,0,1.05,0.216,1.453,0.646c0.403,0.431,0.605,0.987,0.605,1.668c0,0.724-0.212,1.304-0.636,1.74
			c-0.424,0.438-0.969,0.655-1.634,0.655c-0.713,0-1.3-0.276-1.76-0.831c-0.459-0.555-0.689-1.463-0.689-2.726
			c0-1.295,0.239-2.229,0.718-2.801c0.479-0.572,1.101-0.858,1.865-0.858c0.537,0,0.981,0.15,1.333,0.451
			C42.568,69.009,42.792,69.444,42.889,70.017z M39.818,72.972c0,0.44,0.102,0.78,0.304,1.02c0.203,0.239,0.434,0.358,0.694,0.358
			c0.25,0,0.459-0.098,0.626-0.294c0.167-0.195,0.25-0.517,0.25-0.964c0-0.459-0.09-0.796-0.27-1.01
			c-0.18-0.214-0.405-0.32-0.675-0.32c-0.26,0-0.48,0.102-0.661,0.306C39.908,72.271,39.818,72.573,39.818,72.972z"/>
		<path fill="#010101" d="M47.256,75.353h-1.354v-5.104c-0.495,0.463-1.078,0.805-1.75,1.026v-1.229
			c0.354-0.116,0.738-0.335,1.152-0.658s0.699-0.7,0.853-1.131h1.099V75.353z"/>
		<path fill="#010101" d="M51.936,75.353v-1.422h-2.892v-1.186l3.066-4.488h1.138v4.483h0.877v1.19h-0.877v1.422H51.936z
			 M51.936,72.74v-2.415l-1.625,2.415H51.936z"/>
		<path fill="#010101" d="M55.932,71.54c-0.351-0.148-0.604-0.352-0.764-0.61c-0.159-0.258-0.239-0.542-0.239-0.851
			c0-0.526,0.185-0.962,0.552-1.306c0.368-0.344,0.892-0.517,1.569-0.517c0.672,0,1.193,0.173,1.564,0.517s0.557,0.779,0.557,1.306
			c0,0.328-0.085,0.619-0.256,0.875c-0.17,0.256-0.409,0.451-0.718,0.586c0.392,0.157,0.689,0.387,0.894,0.689
			c0.204,0.302,0.307,0.65,0.307,1.046c0,0.652-0.208,1.183-0.624,1.59c-0.417,0.408-0.97,0.612-1.661,0.612
			c-0.643,0-1.178-0.168-1.604-0.506c-0.505-0.398-0.757-0.944-0.757-1.639c0-0.383,0.095-0.733,0.284-1.054
			C55.225,71.96,55.523,71.713,55.932,71.54z M56.086,73.203c0,0.372,0.096,0.663,0.287,0.872c0.19,0.209,0.43,0.313,0.716,0.313
			c0.279,0,0.511-0.101,0.693-0.302c0.184-0.2,0.275-0.49,0.275-0.87c0-0.33-0.094-0.597-0.28-0.797
			c-0.186-0.201-0.422-0.302-0.708-0.302c-0.331,0-0.578,0.114-0.74,0.342C56.167,72.688,56.086,72.937,56.086,73.203z
			 M56.211,70.176c0,0.27,0.076,0.48,0.229,0.632c0.152,0.15,0.355,0.226,0.609,0.226c0.257,0,0.463-0.076,0.617-0.229
			s0.231-0.364,0.231-0.634c0-0.254-0.076-0.457-0.229-0.609c-0.152-0.153-0.354-0.229-0.604-0.229
			c-0.261,0-0.468,0.077-0.622,0.231S56.211,69.922,56.211,70.176z"/>
		<path fill="#010101" d="M64.835,74.095v1.258h-4.748c0.051-0.476,0.205-0.926,0.463-1.353c0.257-0.425,0.765-0.99,1.522-1.693
			c0.61-0.569,0.985-0.955,1.123-1.157c0.187-0.279,0.28-0.556,0.28-0.829c0-0.302-0.082-0.534-0.244-0.696
			s-0.386-0.244-0.672-0.244c-0.283,0-0.508,0.086-0.675,0.256c-0.167,0.171-0.264,0.453-0.289,0.849l-1.35-0.135
			c0.08-0.746,0.332-1.281,0.757-1.605c0.424-0.324,0.954-0.487,1.59-0.487c0.697,0,1.245,0.188,1.644,0.564
			s0.599,0.844,0.599,1.402c0,0.318-0.058,0.621-0.172,0.909c-0.114,0.287-0.295,0.589-0.542,0.903
			c-0.164,0.209-0.46,0.51-0.887,0.901c-0.428,0.393-0.698,0.652-0.813,0.781c-0.114,0.128-0.206,0.254-0.277,0.376H64.835z"/>
		<path fill="#010101" d="M65.886,73.468v-1.354h2.66v1.354H65.886z"/>
		<path fill="#010101" d="M72.503,75.353h-1.354v-5.104c-0.494,0.463-1.078,0.805-1.749,1.026v-1.229
			c0.354-0.116,0.737-0.335,1.151-0.658c0.415-0.323,0.699-0.7,0.854-1.131h1.099V75.353z"/>
		<path fill="#010101" d="M74.663,73.468v-1.354h2.66v1.354H74.663z"/>
		<path fill="#010101" d="M82.39,74.095v1.258h-4.748c0.051-0.476,0.205-0.926,0.463-1.353c0.257-0.425,0.765-0.99,1.522-1.693
			c0.61-0.569,0.985-0.955,1.123-1.157c0.187-0.279,0.28-0.556,0.28-0.829c0-0.302-0.082-0.534-0.244-0.696S80.4,69.38,80.114,69.38
			c-0.283,0-0.508,0.086-0.675,0.256c-0.167,0.171-0.264,0.453-0.289,0.849l-1.35-0.135c0.08-0.746,0.332-1.281,0.757-1.605
			c0.424-0.324,0.954-0.487,1.59-0.487c0.697,0,1.245,0.188,1.644,0.564s0.599,0.844,0.599,1.402c0,0.318-0.058,0.621-0.172,0.909
			c-0.114,0.287-0.295,0.589-0.542,0.903c-0.164,0.209-0.46,0.51-0.887,0.901c-0.428,0.393-0.698,0.652-0.813,0.781
			c-0.114,0.128-0.206,0.254-0.277,0.376H82.39z"/>
	</g>
	<g display="inline">
		<path fill="#010101" d="M40.109,84.601l1.383,0.438c-0.212,0.771-0.565,1.344-1.058,1.718c-0.493,0.375-1.119,0.562-1.877,0.562
			c-0.938,0-1.709-0.32-2.314-0.961c-0.604-0.642-0.906-1.518-0.906-2.63c0-1.176,0.303-2.089,0.911-2.74
			c0.607-0.65,1.406-0.976,2.396-0.976c0.864,0,1.566,0.255,2.106,0.766c0.321,0.303,0.563,0.736,0.723,1.302l-1.412,0.338
			c-0.083-0.366-0.258-0.656-0.523-0.868s-0.587-0.318-0.967-0.318c-0.523,0-0.949,0.188-1.275,0.564s-0.489,0.985-0.489,1.827
			c0,0.893,0.161,1.529,0.482,1.908c0.321,0.38,0.739,0.569,1.253,0.569c0.379,0,0.706-0.121,0.979-0.362
			C39.794,85.497,39.99,85.117,40.109,84.601z"/>
		<path fill="#010101" d="M42.707,87.198v-7.066h1.354v7.066H42.707z"/>
		<path fill="#010101" d="M46.462,83.641l-1.229-0.222c0.138-0.494,0.376-0.861,0.713-1.099c0.337-0.238,0.839-0.356,1.504-0.356
			c0.604,0,1.054,0.071,1.35,0.214c0.295,0.144,0.504,0.325,0.624,0.545c0.121,0.221,0.181,0.624,0.181,1.212l-0.015,1.581
			c0,0.45,0.021,0.782,0.065,0.996s0.125,0.442,0.244,0.687h-1.34c-0.035-0.09-0.079-0.224-0.13-0.4
			c-0.022-0.08-0.039-0.133-0.048-0.159c-0.231,0.226-0.479,0.395-0.742,0.507c-0.264,0.112-0.545,0.168-0.844,0.168
			c-0.527,0-0.942-0.143-1.246-0.429c-0.304-0.286-0.456-0.647-0.456-1.084c0-0.29,0.069-0.548,0.207-0.774s0.332-0.399,0.581-0.521
			c0.249-0.12,0.608-0.226,1.077-0.315c0.633-0.119,1.072-0.229,1.316-0.333v-0.135c0-0.26-0.064-0.445-0.193-0.557
			C47.953,83.056,47.71,83,47.354,83c-0.241,0-0.429,0.047-0.564,0.142C46.655,83.237,46.545,83.403,46.462,83.641z M48.274,84.74
			c-0.173,0.058-0.448,0.127-0.824,0.207s-0.622,0.159-0.737,0.236c-0.177,0.125-0.265,0.284-0.265,0.477
			c0,0.19,0.07,0.354,0.212,0.492c0.141,0.138,0.321,0.207,0.54,0.207c0.244,0,0.477-0.08,0.699-0.241
			c0.164-0.122,0.271-0.271,0.323-0.448c0.036-0.115,0.053-0.335,0.053-0.66V84.74z"/>
		<path fill="#010101" d="M50.463,85.737l1.359-0.207c0.058,0.264,0.175,0.464,0.352,0.601s0.424,0.204,0.742,0.204
			c0.351,0,0.614-0.063,0.791-0.192c0.118-0.09,0.178-0.21,0.178-0.361c0-0.103-0.032-0.188-0.096-0.256
			c-0.067-0.064-0.219-0.123-0.453-0.178c-1.093-0.241-1.785-0.462-2.078-0.661c-0.405-0.276-0.607-0.66-0.607-1.151
			c0-0.443,0.175-0.816,0.525-1.118c0.351-0.303,0.894-0.453,1.63-0.453c0.7,0,1.221,0.114,1.562,0.342
			c0.341,0.229,0.575,0.565,0.704,1.013l-1.277,0.236c-0.055-0.199-0.159-0.353-0.312-0.458c-0.152-0.106-0.37-0.159-0.653-0.159
			c-0.356,0-0.611,0.05-0.766,0.149c-0.104,0.07-0.154,0.162-0.154,0.274c0,0.097,0.045,0.179,0.135,0.246
			c0.122,0.09,0.544,0.217,1.266,0.381c0.721,0.164,1.225,0.364,1.511,0.603c0.282,0.241,0.424,0.576,0.424,1.007
			c0,0.47-0.195,0.873-0.588,1.21c-0.392,0.338-0.972,0.506-1.74,0.506c-0.697,0-1.249-0.141-1.655-0.424
			C50.854,86.607,50.588,86.223,50.463,85.737z"/>
		<path fill="#010101" d="M55.953,85.737l1.359-0.207c0.058,0.264,0.175,0.464,0.352,0.601s0.424,0.204,0.742,0.204
			c0.351,0,0.614-0.063,0.791-0.192c0.118-0.09,0.178-0.21,0.178-0.361c0-0.103-0.032-0.188-0.096-0.256
			c-0.067-0.064-0.219-0.123-0.453-0.178c-1.093-0.241-1.785-0.462-2.078-0.661c-0.404-0.276-0.607-0.66-0.607-1.151
			c0-0.443,0.176-0.816,0.525-1.118c0.351-0.303,0.894-0.453,1.63-0.453c0.7,0,1.221,0.114,1.562,0.342
			c0.341,0.229,0.575,0.565,0.704,1.013l-1.277,0.236c-0.055-0.199-0.159-0.353-0.312-0.458c-0.152-0.106-0.37-0.159-0.653-0.159
			c-0.356,0-0.611,0.05-0.766,0.149c-0.104,0.07-0.154,0.162-0.154,0.274c0,0.097,0.045,0.179,0.135,0.246
			c0.122,0.09,0.544,0.217,1.266,0.381c0.721,0.164,1.225,0.364,1.511,0.603c0.282,0.241,0.424,0.576,0.424,1.007
			c0,0.47-0.195,0.873-0.588,1.21c-0.392,0.338-0.972,0.506-1.74,0.506c-0.697,0-1.249-0.141-1.655-0.424
			C56.344,86.607,56.078,86.223,55.953,85.737z"/>
		<path fill="#010101" d="M67.839,87.198h-1.354v-5.104c-0.494,0.463-1.078,0.805-1.749,1.026v-1.229
			c0.354-0.116,0.737-0.335,1.151-0.658c0.415-0.323,0.699-0.7,0.854-1.131h1.099V87.198z"/>
	</g>
	<path display="inline" fill="none" stroke="#010101" stroke-width="0.5" stroke-miterlimit="2.613" d="M52.155,29.774l8.58,11.391
		l8.579,11.393H52.155H34.999l8.581-11.393L52.155,29.774z M47.412,36.048H34.999l8.581-11.391l8.575-11.391l8.58,11.391
		l8.579,11.391H56.852 M26.015,5.808H78.3v57.051H26.015V5.808z"/>
</g>
<g display="none">
	<path display="inline" fill="#010101" d="M27.697,74.712H17.87c-2.432,0-4.642-0.99-6.24-2.592
		c-1.597-1.599-2.591-3.805-2.591-6.236V20.845c0-2.423,0.998-4.633,2.603-6.236c1.597-1.598,3.803-2.591,6.229-2.591h64.258
		c2.434,0,4.64,0.993,6.238,2.591c1.596,1.597,2.595,3.807,2.595,6.236v45.039c0,2.426-0.999,4.625-2.595,6.225
		c-1.604,1.606-3.812,2.604-6.238,2.604h-7.376H27.697z"/>
	<path display="inline" fill="#FFCB0B" d="M10.462,28.934v-8.087c0-1.964,0.771-3.816,2.177-5.22c1.406-1.414,3.267-2.19,5.231-2.19
		h64.257c1.976,0,3.837,0.773,5.236,2.175c1.403,1.405,2.174,3.263,2.174,5.235v8.087H10.462z"/>
	<rect x="34.275" y="17.045" display="inline" fill="#FFCB0B" width="31.349" height="8.616"/>
	<g display="inline">
		<path fill="#FFCB0B" d="M17.871,73.292c-1.974,0-3.832-0.775-5.236-2.177c-1.403-1.408-2.172-3.264-2.172-5.234v-8.085h79.075
			v8.085c0,1.962-0.77,3.815-2.178,5.217c-1.407,1.414-3.266,2.194-5.231,2.194H17.871z"/>
	</g>
	<rect x="25.912" y="61.158" display="inline" fill="#FFCB0B" width="43.963" height="8.905"/>
	<rect x="70.981" y="60.868" display="inline" fill="#FFCB0B" width="3.327" height="5.045"/>
	<g display="inline">
		<path fill="#010101" d="M34.687,25.594L38,16.965h1.23l3.532,8.629h-1.301l-1.006-2.613h-3.608l-0.948,2.613H34.687z
			 M37.176,22.05h2.925l-0.9-2.389c-0.275-0.726-0.479-1.322-0.613-1.79c-0.109,0.554-0.264,1.103-0.464,1.648L37.176,22.05z"/>
		<path fill="#010101" d="M44.979,25.594v-7.611h-2.843v-1.019h6.839v1.019H46.12v7.611H44.979z"/>
		<path fill="#010101" d="M50.147,25.594v-8.629h3.254c0.572,0,1.011,0.027,1.313,0.083c0.425,0.071,0.779,0.206,1.066,0.403
			c0.285,0.199,0.516,0.477,0.691,0.833c0.175,0.357,0.262,0.75,0.262,1.177c0,0.735-0.234,1.355-0.7,1.864
			c-0.468,0.508-1.311,0.762-2.532,0.762h-2.212v3.508H50.147z M51.289,21.067h2.23c0.738,0,1.261-0.137,1.572-0.412
			c0.31-0.274,0.464-0.662,0.464-1.16c0-0.36-0.092-0.67-0.273-0.927c-0.183-0.256-0.423-0.427-0.722-0.509
			c-0.191-0.051-0.546-0.077-1.063-0.077h-2.208V21.067z"/>
		<path fill="#010101" d="M60.653,25.594l-3.343-8.629h1.235l2.243,6.27c0.181,0.502,0.332,0.973,0.453,1.413
			c0.134-0.471,0.289-0.942,0.465-1.413l2.332-6.27h1.166l-3.381,8.629H60.653z"/>
	</g>
	<g display="inline">
		<path fill="#010101" d="M32.366,66.919l1.142,0.289c-0.24,0.937-0.671,1.652-1.292,2.145c-0.623,0.492-1.384,0.738-2.282,0.738
			c-0.93,0-1.687-0.188-2.269-0.567c-0.582-0.379-1.025-0.927-1.33-1.645c-0.303-0.718-0.457-1.488-0.457-2.314
			c0-0.898,0.172-1.682,0.516-2.352c0.343-0.667,0.832-1.177,1.466-1.523c0.632-0.347,1.331-0.521,2.092-0.521
			c0.863,0,1.59,0.22,2.179,0.658c0.588,0.44,0.998,1.058,1.229,1.854l-1.125,0.265c-0.2-0.626-0.49-1.084-0.871-1.371
			s-0.859-0.429-1.435-0.429c-0.665,0-1.218,0.158-1.665,0.478c-0.445,0.316-0.758,0.743-0.938,1.28
			c-0.181,0.535-0.271,1.087-0.271,1.656c0,0.733,0.108,1.374,0.321,1.921c0.215,0.548,0.547,0.958,0.999,1.229
			c0.451,0.271,0.94,0.406,1.466,0.406c0.639,0,1.18-0.186,1.624-0.555C31.908,68.193,32.208,67.645,32.366,66.919z"/>
		<path fill="#010101" d="M33.965,69.944l3.314-8.629h1.23l3.532,8.629H40.74l-1.006-2.612h-3.607l-0.948,2.612H33.965z
			 M36.456,66.399h2.925l-0.9-2.388c-0.276-0.728-0.479-1.322-0.613-1.79c-0.11,0.553-0.265,1.103-0.464,1.647L36.456,66.399z"/>
		<path fill="#010101" d="M42.908,69.944v-8.629h1.142v7.61h4.25v1.019H42.908z"/>
		<path fill="#010101" d="M48.729,70.091l2.501-8.923h0.849l-2.497,8.923H48.729z"/>
		<path fill="#010101" d="M59.165,66.919l1.142,0.289c-0.24,0.937-0.671,1.652-1.291,2.145c-0.623,0.492-1.384,0.738-2.282,0.738
			c-0.931,0-1.688-0.188-2.27-0.567s-1.025-0.927-1.33-1.645c-0.304-0.718-0.456-1.488-0.456-2.314c0-0.898,0.172-1.682,0.516-2.352
			c0.344-0.667,0.832-1.177,1.466-1.523c0.632-0.347,1.331-0.521,2.092-0.521c0.862,0,1.59,0.22,2.179,0.658
			c0.589,0.44,0.998,1.058,1.229,1.854l-1.124,0.265c-0.199-0.626-0.49-1.084-0.87-1.371c-0.381-0.287-0.86-0.429-1.436-0.429
			c-0.664,0-1.218,0.158-1.664,0.478c-0.445,0.316-0.758,0.743-0.938,1.28c-0.181,0.535-0.271,1.087-0.271,1.656
			c0,0.733,0.108,1.374,0.321,1.921c0.214,0.548,0.547,0.958,0.998,1.229c0.451,0.271,0.94,0.406,1.466,0.406
			c0.639,0,1.181-0.186,1.624-0.555C58.707,68.193,59.007,67.645,59.165,66.919z"/>
		<path fill="#010101" d="M61.68,69.944v-8.629h1.719l2.042,6.11c0.188,0.567,0.325,0.993,0.412,1.277
			c0.097-0.314,0.25-0.774,0.458-1.384l2.066-6.004h1.537v8.629h-1.101v-7.222l-2.508,7.222h-1.03l-2.496-7.346v7.346H61.68z"/>
	</g>
	<g display="inline">
		<path fill="#010101" d="M74.358,65.339v0.594h-3.325c-0.005-0.148,0.019-0.292,0.072-0.43c0.084-0.226,0.22-0.449,0.406-0.669
			c0.186-0.22,0.455-0.473,0.808-0.763c0.547-0.448,0.916-0.804,1.108-1.064c0.191-0.262,0.289-0.51,0.289-0.743
			c0-0.244-0.088-0.45-0.264-0.619c-0.174-0.168-0.403-0.254-0.684-0.254c-0.298,0-0.535,0.091-0.714,0.268
			c-0.18,0.181-0.27,0.426-0.271,0.742l-0.635-0.064c0.043-0.475,0.208-0.835,0.491-1.084c0.282-0.248,0.665-0.371,1.142-0.371
			c0.482,0,0.864,0.133,1.146,0.4c0.281,0.268,0.423,0.6,0.423,0.997c0,0.199-0.042,0.399-0.124,0.593s-0.22,0.4-0.409,0.614
			c-0.192,0.215-0.51,0.51-0.953,0.886c-0.371,0.31-0.608,0.522-0.713,0.632c-0.106,0.111-0.193,0.223-0.262,0.336H74.358z"/>
	</g>
	<g display="inline">
		<path fill="#010101" d="M21.142,87.923h-1.895l-0.753-1.961h-3.45l-0.713,1.961h-1.848l3.361-8.631h1.843L21.142,87.923z
			 M17.934,84.507l-1.189-3.201l-1.166,3.201H17.934z"/>
		<path fill="#010101" d="M21.624,85.113l1.695-0.164c0.103,0.569,0.31,0.986,0.621,1.254c0.313,0.267,0.734,0.4,1.263,0.4
			c0.562,0,0.984-0.119,1.269-0.356c0.284-0.237,0.426-0.515,0.426-0.834c0-0.203-0.06-0.377-0.179-0.52
			c-0.12-0.143-0.329-0.268-0.627-0.374c-0.203-0.07-0.667-0.196-1.395-0.377c-0.934-0.232-1.588-0.516-1.966-0.854
			c-0.529-0.476-0.793-1.053-0.793-1.736c0-0.438,0.124-0.85,0.373-1.232c0.25-0.384,0.608-0.674,1.077-0.874s1.036-0.3,1.698-0.3
			c1.083,0,1.898,0.235,2.446,0.711c0.547,0.476,0.835,1.108,0.863,1.901l-1.743,0.077c-0.074-0.444-0.234-0.764-0.479-0.957
			c-0.245-0.194-0.614-0.291-1.104-0.291c-0.506,0-0.902,0.104-1.188,0.312c-0.184,0.134-0.277,0.312-0.277,0.535
			c0,0.205,0.087,0.379,0.259,0.524c0.219,0.184,0.753,0.377,1.602,0.577s1.474,0.406,1.88,0.621s0.724,0.505,0.953,0.876
			c0.23,0.37,0.345,0.83,0.345,1.375c0,0.495-0.137,0.957-0.413,1.389c-0.274,0.433-0.663,0.753-1.164,0.963
			c-0.503,0.211-1.129,0.314-1.879,0.314c-1.09,0-1.929-0.252-2.513-0.755C22.086,86.813,21.738,86.079,21.624,85.113z"/>
		<path fill="#010101" d="M32.048,87.923v-7.17h-2.559v-1.461h6.857v1.461h-2.554v7.17H32.048z"/>
		<path fill="#010101" d="M37.446,87.923v-8.631h2.607l1.566,5.886l1.548-5.886h2.614v8.631h-1.619V81.13l-1.713,6.793h-1.677
			l-1.708-6.793v6.793H37.446z"/>
		<path fill="#010101" d="M50.873,87.923v-8.631h5.916v1.461h-4.172v2.041h3.601v1.462h-3.601v3.667H50.873z"/>
		<path fill="#010101" d="M65.441,87.923h-1.654v-6.234c-0.604,0.564-1.316,0.983-2.137,1.254v-1.501
			c0.432-0.141,0.901-0.41,1.408-0.805c0.506-0.394,0.853-0.854,1.041-1.381h1.342V87.923z"/>
		<path fill="#010101" d="M67.948,85.926l1.601-0.177c0.041,0.325,0.143,0.567,0.307,0.726c0.165,0.156,0.382,0.235,0.653,0.235
			c0.342,0,0.632-0.158,0.871-0.471c0.24-0.314,0.394-0.966,0.459-1.955c-0.416,0.482-0.935,0.723-1.56,0.723
			c-0.679,0-1.264-0.261-1.758-0.783c-0.491-0.526-0.738-1.207-0.738-2.047c0-0.876,0.26-1.58,0.78-2.116
			c0.52-0.535,1.183-0.805,1.987-0.805c0.874,0,1.593,0.339,2.154,1.017c0.562,0.677,0.842,1.79,0.842,3.341
			c0,1.577-0.293,2.716-0.877,3.413c-0.586,0.699-1.347,1.048-2.284,1.048c-0.676,0-1.221-0.179-1.637-0.539
			C68.333,87.178,68.065,86.641,67.948,85.926z M71.692,82.313c0-0.534-0.122-0.947-0.367-1.242s-0.529-0.441-0.852-0.441
			c-0.306,0-0.56,0.12-0.762,0.362c-0.203,0.242-0.303,0.636-0.303,1.186c0,0.557,0.109,0.966,0.329,1.228
			c0.219,0.261,0.495,0.392,0.823,0.392c0.318,0,0.586-0.126,0.804-0.376C71.583,83.169,71.692,82.799,71.692,82.313z"/>
		<path fill="#010101" d="M74.642,85.703l1.648-0.171c0.047,0.373,0.188,0.668,0.418,0.886c0.232,0.218,0.498,0.327,0.802,0.327
			c0.345,0,0.637-0.142,0.877-0.422c0.238-0.281,0.357-0.703,0.357-1.268c0-0.529-0.117-0.928-0.355-1.192
			c-0.237-0.266-0.547-0.398-0.928-0.398c-0.475,0-0.899,0.21-1.277,0.631L74.842,83.9l0.849-4.489h4.373v1.548h-3.12l-0.258,1.465
			c0.367-0.185,0.745-0.276,1.13-0.276c0.732,0,1.354,0.267,1.866,0.802c0.51,0.532,0.765,1.226,0.765,2.077
			c0,0.71-0.207,1.343-0.618,1.899c-0.561,0.763-1.34,1.142-2.337,1.142c-0.796,0-1.446-0.213-1.947-0.64
			C75.04,87,74.74,86.425,74.642,85.703z"/>
		<path fill="#010101" d="M81.357,85.926l1.602-0.177c0.04,0.325,0.142,0.567,0.306,0.726c0.165,0.156,0.383,0.235,0.653,0.235
			c0.342,0,0.632-0.158,0.871-0.471c0.24-0.314,0.394-0.966,0.46-1.955c-0.417,0.482-0.936,0.723-1.56,0.723
			c-0.68,0-1.265-0.261-1.758-0.783c-0.492-0.526-0.739-1.207-0.739-2.047c0-0.876,0.26-1.58,0.781-2.116
			c0.519-0.535,1.182-0.805,1.986-0.805c0.874,0,1.594,0.339,2.154,1.017c0.562,0.677,0.842,1.79,0.842,3.341
			c0,1.577-0.293,2.716-0.877,3.413c-0.585,0.699-1.347,1.048-2.283,1.048c-0.676,0-1.221-0.179-1.638-0.539
			C81.742,87.178,81.475,86.641,81.357,85.926z M85.102,82.313c0-0.534-0.122-0.947-0.367-1.242s-0.529-0.441-0.852-0.441
			c-0.305,0-0.56,0.12-0.762,0.362c-0.203,0.242-0.303,0.636-0.303,1.186c0,0.557,0.109,0.966,0.329,1.228
			c0.219,0.261,0.495,0.392,0.824,0.392c0.317,0,0.585-0.126,0.803-0.376C84.992,83.169,85.102,82.799,85.102,82.313z"/>
	</g>
	<g display="inline">
		<path fill="#FFFFFF" d="M43.195,48.564h-8.676v-3.917l8.676-10.313h4.151V44.87h2.151v3.695h-2.151v3.204h-4.151V48.564z
			 M43.195,44.87v-5.394l-4.583,5.394H43.195z"/>
		<path fill="#FFFFFF" d="M52.911,34.628h11.307v3.8h-7.659L56.151,41c0.528-0.25,1.053-0.438,1.572-0.562
			c0.518-0.125,1.03-0.187,1.537-0.187c1.714,0,3.105,0.518,4.173,1.555c1.068,1.037,1.604,2.342,1.604,3.917
			c0,1.106-0.276,2.171-0.826,3.191c-0.548,1.021-1.328,1.801-2.338,2.339s-2.302,0.806-3.875,0.806
			c-1.131,0-2.099-0.106-2.906-0.32c-0.807-0.215-1.492-0.534-2.058-0.959c-0.564-0.425-1.022-0.906-1.373-1.444
			c-0.352-0.538-0.644-1.208-0.877-2.011l4.817-0.526c0.115,0.771,0.389,1.358,0.817,1.76c0.429,0.401,0.94,0.601,1.532,0.601
			c0.662,0,1.209-0.25,1.643-0.754c0.433-0.502,0.648-1.253,0.648-2.25c0-1.021-0.218-1.769-0.654-2.245
			c-0.438-0.476-1.018-0.713-1.742-0.713c-0.459,0-0.904,0.113-1.333,0.339c-0.319,0.164-0.67,0.459-1.052,0.889l-4.058-0.585
			L52.911,34.628z"/>
	</g>
</g>
<g display="none">
	<path display="inline" fill="#010101" d="M10,25.599c0,0-5.229,0-5.229,5.229v38.343c0,0,0,5.229,5.229,5.229h80
		c0,0,5.229,0,5.229-5.229V30.828c0,0,0-5.229-5.229-5.229H10z"/>
</g>
<g display="none">
	<path display="inline" fill="#FFCB0B" d="M31.854,49.011c-0.598,0.299-1.793,0.597-3.323,0.597c-3.548,0-6.218-2.24-6.218-6.366
		c0-3.939,2.669-6.609,6.571-6.609c1.569,0,2.559,0.336,2.988,0.56l-0.393,1.326c-0.615-0.298-1.493-0.522-2.538-0.522
		c-2.95,0-4.911,1.886-4.911,5.19c0,3.081,1.773,5.06,4.835,5.06c0.989,0,1.998-0.206,2.651-0.523L31.854,49.011z"/>
</g>
<g display="none">
	<path display="inline" fill="#FFCB0B" d="M37.323,45.464l-1.307,3.958h-1.68l4.275-12.583h1.96l4.294,12.583H43.13l-1.344-3.958
		H37.323z M41.45,44.194l-1.233-3.622c-0.279-0.821-0.467-1.568-0.653-2.296h-0.038c-0.187,0.747-0.393,1.512-0.634,2.278
		l-1.232,3.64H41.45z"/>
	<path display="inline" fill="#FFCB0B" d="M47.797,38.22h-3.826v-1.381h9.316v1.381h-3.846v11.202h-1.644V38.22z"/>
</g>
<g display="none">
	<path display="inline" fill="#FFCB0B" d="M63.63,36.838v12.583h-1.625V36.838H63.63z"/>
	<path display="inline" fill="#FFCB0B" d="M68.092,36.838v12.583h-1.625V36.838H68.092z"/>
	<path display="inline" fill="#FFCB0B" d="M72.554,36.838v12.583h-1.625V36.838H72.554z"/>
</g>
<path display="none" fill="#FFFFFF" d="M18.171,60.335c0.06,0,0.11,0.023,0.154,0.07l0.418,0.457
	c-0.292,0.345-0.647,0.612-1.068,0.802c-0.419,0.189-0.925,0.284-1.516,0.284c-0.518,0-0.986-0.09-1.406-0.27
	c-0.419-0.179-0.778-0.429-1.076-0.751c-0.297-0.322-0.526-0.707-0.689-1.155c-0.163-0.448-0.244-0.94-0.244-1.479
	c0-0.539,0.086-1.03,0.256-1.479c0.171-0.447,0.411-0.832,0.72-1.155c0.309-0.32,0.678-0.571,1.108-0.751
	c0.429-0.18,0.904-0.27,1.426-0.27c0.508,0,0.959,0.084,1.354,0.25s0.739,0.387,1.031,0.661l-0.349,0.494
	c-0.023,0.036-0.052,0.065-0.086,0.09c-0.035,0.021-0.082,0.034-0.137,0.034c-0.063,0-0.137-0.032-0.221-0.095
	c-0.085-0.063-0.197-0.134-0.334-0.212s-0.308-0.148-0.51-0.212c-0.202-0.063-0.455-0.095-0.756-0.095
	c-0.355,0-0.681,0.063-0.976,0.188s-0.55,0.304-0.765,0.537c-0.214,0.234-0.379,0.521-0.497,0.862
	c-0.118,0.34-0.177,0.725-0.177,1.152c0,0.435,0.062,0.821,0.185,1.16c0.123,0.338,0.292,0.625,0.508,0.861
	c0.215,0.235,0.469,0.415,0.761,0.537c0.293,0.124,0.608,0.185,0.946,0.185c0.207,0,0.391-0.012,0.555-0.036
	c0.165-0.026,0.316-0.063,0.454-0.113s0.268-0.113,0.392-0.191c0.122-0.077,0.243-0.172,0.362-0.281
	c0.027-0.023,0.056-0.043,0.085-0.058C18.107,60.342,18.139,60.335,18.171,60.335z M23.668,61.146
	c-0.119,0.14-0.258,0.26-0.413,0.361c-0.156,0.101-0.322,0.184-0.499,0.246c-0.175,0.063-0.357,0.109-0.544,0.139
	c-0.188,0.03-0.374,0.047-0.556,0.047c-0.349,0-0.671-0.06-0.969-0.178c-0.296-0.118-0.554-0.291-0.771-0.518
	c-0.218-0.228-0.388-0.51-0.508-0.847c-0.122-0.338-0.182-0.725-0.182-1.162c0-0.353,0.055-0.681,0.164-0.984
	c0.11-0.304,0.267-0.568,0.47-0.794c0.204-0.225,0.455-0.402,0.75-0.533c0.295-0.129,0.627-0.193,0.996-0.193
	c0.309,0,0.593,0.05,0.854,0.152c0.26,0.102,0.485,0.247,0.675,0.439c0.188,0.193,0.336,0.431,0.445,0.713
	c0.108,0.281,0.162,0.604,0.162,0.965c0,0.15-0.016,0.25-0.05,0.302c-0.033,0.052-0.094,0.077-0.184,0.077h-3.316
	c0.01,0.302,0.053,0.565,0.129,0.79c0.077,0.224,0.182,0.41,0.317,0.56c0.134,0.149,0.294,0.26,0.48,0.333s0.393,0.109,0.622,0.109
	c0.215,0,0.402-0.024,0.561-0.074c0.157-0.05,0.293-0.104,0.407-0.162c0.115-0.058,0.211-0.111,0.289-0.161
	c0.078-0.05,0.147-0.074,0.207-0.074c0.079,0,0.141,0.029,0.183,0.09L23.668,61.146z M22.866,58.776c0-0.192-0.027-0.37-0.082-0.532
	c-0.055-0.163-0.135-0.305-0.242-0.424c-0.106-0.119-0.236-0.211-0.388-0.279c-0.153-0.065-0.33-0.1-0.528-0.1
	c-0.408,0-0.73,0.119-0.964,0.355c-0.234,0.235-0.383,0.562-0.446,0.979H22.866z M25.699,57.782
	c0.163-0.333,0.358-0.594,0.587-0.783c0.23-0.189,0.506-0.284,0.827-0.284c0.109,0,0.214,0.013,0.311,0.039
	c0.099,0.024,0.184,0.061,0.257,0.111l-0.064,0.731c-0.023,0.091-0.078,0.134-0.164,0.134c-0.046,0-0.117-0.008-0.209-0.026
	c-0.093-0.019-0.193-0.026-0.299-0.026c-0.156,0-0.294,0.021-0.413,0.065c-0.119,0.046-0.226,0.111-0.321,0.199
	c-0.095,0.088-0.179,0.197-0.251,0.323c-0.073,0.129-0.141,0.274-0.204,0.437v3.166h-0.971V56.81h0.558
	c0.107,0,0.179,0.02,0.217,0.059c0.039,0.037,0.065,0.104,0.083,0.201L25.699,57.782z M33.222,61.868h-0.976v-4.271h-2.54v2.963
	c0,0.198,0.05,0.348,0.147,0.446c0.098,0.097,0.224,0.146,0.375,0.146c0.09,0,0.167-0.012,0.232-0.034
	c0.064-0.024,0.121-0.049,0.167-0.078c0.046-0.027,0.086-0.053,0.119-0.077c0.034-0.022,0.063-0.034,0.09-0.034
	c0.033,0,0.059,0.007,0.078,0.021c0.018,0.015,0.037,0.039,0.057,0.073l0.288,0.467c-0.159,0.147-0.348,0.26-0.568,0.341
	c-0.219,0.078-0.446,0.118-0.682,0.118c-0.409,0-0.722-0.114-0.943-0.344s-0.331-0.556-0.331-0.98v-3.027h-0.588
	c-0.056,0-0.104-0.017-0.141-0.053c-0.039-0.034-0.058-0.087-0.058-0.156v-0.394l0.826-0.114l0.215-1.509
	c0.012-0.057,0.039-0.101,0.077-0.132c0.038-0.032,0.087-0.047,0.147-0.047h0.492v1.697h3.516V61.868z M33.441,55.217
	c0,0.09-0.019,0.176-0.055,0.256c-0.037,0.082-0.085,0.153-0.147,0.215c-0.061,0.063-0.133,0.109-0.217,0.145
	c-0.083,0.034-0.169,0.051-0.259,0.051c-0.089,0-0.174-0.017-0.254-0.051c-0.079-0.035-0.149-0.082-0.211-0.145
	c-0.061-0.062-0.109-0.133-0.144-0.215c-0.035-0.08-0.052-0.166-0.052-0.256c0-0.092,0.017-0.181,0.052-0.265
	c0.034-0.083,0.083-0.154,0.144-0.217c0.062-0.061,0.132-0.109,0.211-0.143c0.08-0.036,0.165-0.054,0.254-0.054
	c0.09,0,0.176,0.018,0.259,0.054c0.084,0.033,0.156,0.082,0.217,0.143c0.062,0.063,0.11,0.134,0.147,0.217
	C33.422,55.036,33.441,55.125,33.441,55.217z M34.97,61.868v-4.262l-0.527-0.065c-0.077-0.016-0.139-0.044-0.187-0.081
	c-0.049-0.038-0.072-0.094-0.072-0.167V56.89h0.786v-0.243c0-0.309,0.049-0.593,0.147-0.854c0.097-0.262,0.246-0.485,0.442-0.675
	c0.198-0.189,0.443-0.335,0.736-0.439c0.294-0.104,0.638-0.158,1.033-0.158c0.126,0,0.259,0.009,0.399,0.025
	c0.14,0.016,0.258,0.041,0.354,0.074l-0.035,0.508c-0.006,0.065-0.047,0.103-0.124,0.104c-0.077,0.004-0.182,0.005-0.318,0.005
	c-0.303,0-0.561,0.029-0.772,0.09c-0.212,0.06-0.386,0.149-0.522,0.269c-0.136,0.121-0.236,0.271-0.299,0.451
	c-0.063,0.18-0.095,0.392-0.095,0.63v0.214h3.077v4.979h-0.975v-4.271h-2.071v4.271H34.97z M44.548,61.146
	c-0.119,0.14-0.256,0.26-0.412,0.361c-0.157,0.101-0.322,0.184-0.499,0.246c-0.176,0.063-0.357,0.109-0.545,0.139
	c-0.188,0.03-0.372,0.047-0.554,0.047c-0.349,0-0.672-0.06-0.969-0.178c-0.296-0.118-0.554-0.291-0.771-0.518
	c-0.218-0.228-0.387-0.51-0.508-0.847c-0.12-0.338-0.181-0.725-0.181-1.162c0-0.353,0.055-0.681,0.164-0.984
	s0.266-0.568,0.471-0.794c0.204-0.225,0.453-0.402,0.75-0.533c0.295-0.129,0.627-0.193,0.995-0.193c0.309,0,0.593,0.05,0.854,0.152
	c0.261,0.102,0.486,0.247,0.675,0.439c0.189,0.193,0.338,0.431,0.446,0.713c0.108,0.281,0.162,0.604,0.162,0.965
	c0,0.15-0.017,0.25-0.05,0.302c-0.033,0.052-0.095,0.077-0.185,0.077h-3.315c0.01,0.302,0.052,0.565,0.129,0.79
	c0.077,0.224,0.183,0.41,0.316,0.56c0.135,0.149,0.294,0.26,0.48,0.333s0.394,0.109,0.622,0.109c0.216,0,0.402-0.024,0.561-0.074
	s0.294-0.104,0.408-0.162c0.114-0.058,0.21-0.111,0.29-0.161c0.078-0.05,0.146-0.074,0.207-0.074c0.079,0,0.141,0.029,0.184,0.09
	L44.548,61.146z M43.747,58.776c0-0.192-0.026-0.37-0.081-0.532c-0.056-0.163-0.136-0.305-0.242-0.424
	c-0.107-0.119-0.236-0.211-0.389-0.279c-0.152-0.065-0.328-0.1-0.528-0.1c-0.408,0-0.729,0.119-0.962,0.355
	c-0.235,0.235-0.383,0.562-0.446,0.979H43.747z M49.901,54.52v7.349h-0.588c-0.136,0-0.22-0.064-0.252-0.194l-0.085-0.582
	c-0.216,0.257-0.46,0.461-0.734,0.615c-0.275,0.154-0.591,0.232-0.948,0.232c-0.289,0-0.551-0.058-0.785-0.171
	c-0.233-0.111-0.434-0.277-0.599-0.496c-0.167-0.216-0.294-0.485-0.384-0.808c-0.089-0.322-0.134-0.692-0.134-1.11
	c0-0.375,0.05-0.725,0.149-1.045c0.1-0.323,0.243-0.602,0.433-0.837c0.189-0.235,0.418-0.421,0.687-0.557
	c0.269-0.133,0.573-0.201,0.912-0.201c0.305,0,0.565,0.051,0.779,0.15s0.406,0.241,0.575,0.423V54.52H49.901z M48.925,58.035
	c-0.159-0.21-0.331-0.355-0.515-0.438c-0.184-0.082-0.39-0.124-0.62-0.124c-0.445,0-0.789,0.16-1.033,0.479
	c-0.244,0.321-0.366,0.787-0.366,1.402c0,0.321,0.028,0.596,0.083,0.824c0.055,0.227,0.134,0.413,0.238,0.557
	c0.104,0.145,0.233,0.251,0.387,0.318c0.152,0.068,0.324,0.103,0.518,0.103c0.282,0,0.525-0.063,0.732-0.189
	c0.206-0.125,0.398-0.303,0.577-0.532V58.035z M56.135,54.719c0.458,0,0.855,0.054,1.195,0.16c0.339,0.104,0.618,0.256,0.841,0.45
	s0.388,0.429,0.496,0.705c0.106,0.274,0.161,0.581,0.161,0.915c0,0.336-0.058,0.643-0.175,0.924
	c-0.115,0.281-0.287,0.521-0.512,0.725c-0.226,0.203-0.507,0.358-0.845,0.471c-0.337,0.111-0.725,0.167-1.162,0.167H55.03v2.633
	h-1.062v-7.149H56.135z M56.135,58.398c0.269,0,0.506-0.035,0.71-0.104s0.374-0.169,0.513-0.296
	c0.138-0.129,0.241-0.282,0.312-0.459c0.069-0.178,0.104-0.375,0.104-0.59c0-0.434-0.137-0.776-0.406-1.024
	c-0.271-0.251-0.682-0.375-1.232-0.375H55.03v2.849H56.135z M60.646,57.782c0.163-0.333,0.358-0.594,0.587-0.783
	c0.23-0.189,0.505-0.284,0.827-0.284c0.109,0,0.214,0.013,0.311,0.039c0.099,0.024,0.184,0.061,0.257,0.111l-0.064,0.731
	c-0.023,0.091-0.078,0.134-0.164,0.134c-0.048,0-0.117-0.008-0.209-0.026c-0.094-0.019-0.193-0.026-0.299-0.026
	c-0.157,0-0.295,0.021-0.414,0.065c-0.118,0.046-0.226,0.111-0.32,0.199s-0.179,0.197-0.252,0.323
	c-0.072,0.129-0.141,0.274-0.204,0.437v3.166h-0.971V56.81h0.558c0.105,0,0.179,0.02,0.216,0.059
	c0.039,0.037,0.066,0.104,0.083,0.201L60.646,57.782z M65.345,56.73c0.371,0,0.708,0.061,1.008,0.181
	c0.3,0.122,0.556,0.297,0.767,0.523c0.211,0.229,0.372,0.502,0.485,0.821c0.113,0.321,0.17,0.681,0.17,1.078
	c0,0.398-0.057,0.759-0.17,1.081s-0.274,0.596-0.485,0.821c-0.211,0.227-0.467,0.398-0.767,0.521
	c-0.3,0.121-0.637,0.183-1.008,0.183c-0.375,0-0.714-0.062-1.014-0.183c-0.3-0.122-0.557-0.294-0.77-0.521
	c-0.211-0.226-0.375-0.499-0.489-0.821S62.9,59.732,62.9,59.334c0-0.397,0.058-0.757,0.172-1.078
	c0.114-0.319,0.278-0.593,0.489-0.821c0.213-0.227,0.47-0.401,0.77-0.523C64.631,56.791,64.97,56.73,65.345,56.73z M65.345,61.182
	c0.478,0,0.834-0.161,1.069-0.482c0.236-0.323,0.354-0.775,0.354-1.359c0-0.586-0.118-1.038-0.354-1.362
	c-0.235-0.323-0.592-0.485-1.069-0.485c-0.485,0-0.846,0.162-1.083,0.485c-0.238,0.324-0.356,0.776-0.356,1.362
	c0,0.584,0.118,1.036,0.356,1.359C64.499,61.021,64.859,61.182,65.345,61.182z M73.092,54.52v7.349h-0.588
	c-0.136,0-0.221-0.064-0.254-0.194l-0.085-0.582c-0.215,0.257-0.461,0.461-0.734,0.615s-0.589,0.232-0.948,0.232
	c-0.289,0-0.55-0.058-0.783-0.171c-0.235-0.111-0.435-0.277-0.601-0.496c-0.167-0.216-0.294-0.485-0.383-0.808
	c-0.09-0.322-0.135-0.692-0.135-1.11c0-0.375,0.05-0.725,0.149-1.045c0.1-0.323,0.244-0.602,0.433-0.837
	c0.189-0.235,0.418-0.421,0.688-0.557c0.269-0.133,0.573-0.201,0.911-0.201c0.305,0,0.564,0.051,0.778,0.15s0.406,0.241,0.575,0.423
	V54.52H73.092z M72.115,58.035c-0.159-0.21-0.33-0.355-0.516-0.438c-0.184-0.082-0.39-0.124-0.619-0.124
	c-0.445,0-0.789,0.16-1.033,0.479c-0.243,0.321-0.366,0.787-0.366,1.402c0,0.321,0.028,0.596,0.083,0.824
	c0.055,0.227,0.135,0.413,0.239,0.557c0.104,0.145,0.232,0.251,0.385,0.318c0.153,0.068,0.326,0.103,0.519,0.103
	c0.281,0,0.526-0.063,0.731-0.189c0.205-0.125,0.398-0.303,0.577-0.532V58.035z M78.657,56.81v5.059h-0.582
	c-0.133,0-0.219-0.064-0.259-0.194l-0.069-0.508c-0.109,0.116-0.225,0.224-0.344,0.318c-0.119,0.098-0.247,0.18-0.384,0.248
	c-0.136,0.068-0.28,0.12-0.434,0.158c-0.151,0.039-0.315,0.058-0.492,0.058c-0.279,0-0.523-0.046-0.734-0.14
	c-0.211-0.093-0.388-0.222-0.529-0.39c-0.144-0.168-0.252-0.37-0.325-0.605c-0.072-0.236-0.109-0.496-0.109-0.783V56.81h0.977v3.221
	c0,0.362,0.082,0.645,0.249,0.845c0.165,0.201,0.419,0.301,0.761,0.301c0.249,0,0.481-0.059,0.697-0.175
	c0.216-0.119,0.419-0.28,0.608-0.486V56.81H78.657z M83.562,57.755c-0.03,0.038-0.06,0.065-0.087,0.088
	c-0.028,0.021-0.068,0.032-0.122,0.032c-0.053,0-0.109-0.021-0.166-0.062c-0.059-0.041-0.132-0.086-0.22-0.134
	c-0.088-0.049-0.193-0.094-0.319-0.136c-0.123-0.042-0.276-0.062-0.46-0.062c-0.238,0-0.45,0.043-0.633,0.129
	c-0.182,0.087-0.334,0.209-0.455,0.369c-0.121,0.159-0.213,0.354-0.276,0.582s-0.095,0.486-0.095,0.771
	c0,0.296,0.034,0.558,0.1,0.789c0.067,0.23,0.162,0.426,0.284,0.583c0.123,0.158,0.272,0.277,0.447,0.357
	c0.177,0.083,0.372,0.123,0.589,0.123c0.209,0,0.382-0.025,0.518-0.076c0.137-0.053,0.248-0.107,0.338-0.168
	c0.09-0.06,0.164-0.114,0.225-0.167c0.06-0.052,0.121-0.076,0.184-0.076c0.081,0,0.142,0.029,0.186,0.09l0.278,0.357
	c-0.117,0.144-0.247,0.265-0.392,0.363c-0.144,0.1-0.298,0.182-0.46,0.244c-0.162,0.063-0.333,0.109-0.51,0.139
	c-0.178,0.03-0.359,0.047-0.541,0.047c-0.315,0-0.609-0.059-0.884-0.176c-0.273-0.116-0.511-0.284-0.711-0.508
	c-0.202-0.222-0.36-0.496-0.477-0.819s-0.174-0.69-0.174-1.103c0-0.375,0.052-0.721,0.156-1.04c0.104-0.318,0.259-0.594,0.463-0.823
	c0.205-0.23,0.456-0.413,0.754-0.543c0.299-0.132,0.642-0.197,1.026-0.197c0.362,0,0.681,0.059,0.956,0.174
	c0.275,0.116,0.521,0.28,0.737,0.493L83.562,57.755z M86.36,61.948c-0.408,0-0.724-0.114-0.943-0.344
	c-0.222-0.229-0.332-0.556-0.332-0.98v-3.027h-0.587c-0.056,0-0.104-0.017-0.143-0.053c-0.037-0.034-0.057-0.087-0.057-0.156v-0.394
	l0.821-0.114l0.219-1.509c0.014-0.057,0.039-0.101,0.078-0.132c0.038-0.032,0.086-0.047,0.146-0.047h0.494v1.697h1.434v0.707h-1.434
	v2.963c0,0.198,0.048,0.348,0.146,0.446c0.098,0.097,0.223,0.146,0.376,0.146c0.09,0,0.166-0.012,0.232-0.034
	c0.064-0.024,0.12-0.049,0.166-0.078c0.046-0.027,0.086-0.053,0.119-0.077c0.033-0.022,0.063-0.034,0.09-0.034
	c0.033,0,0.059,0.007,0.077,0.021c0.018,0.015,0.037,0.039,0.057,0.073l0.289,0.467c-0.159,0.147-0.349,0.26-0.567,0.341
	C86.823,61.908,86.596,61.948,86.36,61.948z"/>
<g>
	<g>
		<path fill="#010101" d="M18.224,81.447v-7.378h5.473v1.247h-3.983v1.637h3.706v1.242h-3.706v2.008h4.124v1.244H18.224z"/>
		<path fill="#010101" d="M25.116,81.447v-7.378h1.449l3.021,4.926v-4.926h1.385v7.378h-1.496l-2.974-4.813v4.813H25.116z"/>
		<path fill="#010101" d="M39.891,75.874l-1.369,0.153c-0.034-0.282-0.121-0.491-0.262-0.624c-0.141-0.136-0.325-0.201-0.55-0.201
			c-0.297,0-0.551,0.133-0.757,0.402c-0.207,0.268-0.336,0.826-0.39,1.675c0.352-0.416,0.791-0.625,1.314-0.625
			c0.59,0,1.095,0.227,1.517,0.675c0.421,0.449,0.632,1.032,0.632,1.742c0,0.756-0.222,1.361-0.665,1.816
			c-0.443,0.458-1.013,0.684-1.705,0.684c-0.745,0-1.359-0.286-1.838-0.866c-0.479-0.578-0.719-1.529-0.719-2.846
			c0-1.354,0.249-2.327,0.749-2.926c0.5-0.598,1.15-0.896,1.949-0.896c0.56,0,1.023,0.157,1.391,0.471
			C39.555,74.822,39.791,75.278,39.891,75.874z M36.684,78.961c0,0.459,0.106,0.815,0.315,1.065c0.214,0.25,0.456,0.375,0.725,0.375
			c0.262,0,0.481-0.103,0.657-0.307c0.173-0.206,0.262-0.541,0.262-1.008c0-0.48-0.094-0.831-0.282-1.054
			c-0.189-0.224-0.423-0.335-0.705-0.335c-0.274,0-0.504,0.104-0.691,0.319C36.778,78.229,36.684,78.544,36.684,78.961z"/>
		<path fill="#010101" d="M44.449,81.447h-1.416v-5.332c-0.515,0.484-1.125,0.842-1.826,1.073v-1.281
			c0.369-0.122,0.771-0.351,1.203-0.69c0.435-0.335,0.731-0.729,0.892-1.179h1.147V81.447z"/>
		<path fill="#010101" d="M49.337,81.447v-1.485h-3.019v-1.236l3.2-4.688h1.188v4.682h0.918v1.242h-0.918v1.485H49.337z
			 M49.337,78.72v-2.522l-1.695,2.522H49.337z"/>
		<path fill="#010101" d="M53.513,77.466c-0.365-0.153-0.632-0.367-0.797-0.638c-0.169-0.27-0.25-0.565-0.25-0.888
			c0-0.55,0.19-1.005,0.576-1.363c0.383-0.359,0.93-0.539,1.639-0.539c0.701,0,1.245,0.18,1.632,0.539
			c0.39,0.358,0.584,0.813,0.584,1.363c0,0.342-0.09,0.646-0.268,0.914c-0.18,0.267-0.43,0.471-0.751,0.611
			c0.41,0.164,0.721,0.404,0.934,0.72c0.213,0.316,0.322,0.681,0.322,1.092c0,0.682-0.218,1.236-0.653,1.663
			c-0.434,0.425-1.014,0.638-1.735,0.638c-0.673,0-1.228-0.175-1.674-0.53c-0.529-0.414-0.79-0.986-0.79-1.711
			c0-0.398,0.097-0.765,0.294-1.099C52.772,77.903,53.086,77.646,53.513,77.466z M53.674,79.202c0,0.39,0.102,0.692,0.298,0.912
			c0.202,0.217,0.451,0.326,0.749,0.326c0.291,0,0.532-0.104,0.726-0.313c0.188-0.21,0.286-0.515,0.286-0.911
			c0-0.343-0.098-0.621-0.29-0.83c-0.198-0.21-0.443-0.316-0.741-0.316c-0.347,0-0.604,0.12-0.773,0.358
			C53.759,78.665,53.674,78.925,53.674,79.202z M53.803,76.042c0,0.282,0.081,0.501,0.243,0.658c0.156,0.158,0.37,0.236,0.635,0.236
			c0.266,0,0.483-0.08,0.646-0.238c0.159-0.16,0.241-0.381,0.241-0.663c0-0.264-0.082-0.477-0.241-0.637
			c-0.158-0.159-0.367-0.236-0.629-0.236c-0.274,0-0.491,0.079-0.651,0.241C53.884,75.563,53.803,75.775,53.803,76.042z"/>
		<path fill="#010101" d="M62.809,80.135v1.313h-4.958c0.052-0.497,0.213-0.967,0.483-1.412c0.27-0.443,0.798-1.033,1.591-1.769
			c0.636-0.595,1.026-0.997,1.171-1.209c0.198-0.292,0.295-0.578,0.295-0.865c0-0.315-0.086-0.558-0.254-0.727
			c-0.169-0.17-0.407-0.256-0.705-0.256c-0.294,0-0.528,0.091-0.705,0.269c-0.172,0.176-0.273,0.472-0.301,0.885l-1.409-0.141
			c0.083-0.779,0.346-1.337,0.788-1.678c0.443-0.338,0.999-0.507,1.663-0.507c0.729,0,1.301,0.197,1.716,0.588
			c0.419,0.395,0.625,0.882,0.625,1.465c0,0.333-0.062,0.649-0.178,0.949c-0.12,0.3-0.311,0.616-0.567,0.944
			c-0.171,0.217-0.48,0.532-0.927,0.942c-0.447,0.408-0.729,0.681-0.846,0.813c-0.121,0.136-0.218,0.267-0.289,0.396H62.809z"/>
		<path fill="#010101" d="M63.907,79.479v-1.413h2.777v1.413H63.907z"/>
		<path fill="#010101" d="M70.817,81.447h-1.413v-5.332c-0.516,0.484-1.128,0.842-1.829,1.073v-1.281
			c0.371-0.122,0.773-0.351,1.204-0.69c0.435-0.335,0.729-0.729,0.89-1.179h1.148V81.447z"/>
		<path fill="#010101" d="M73.072,79.479v-1.413h2.778v1.413H73.072z"/>
		<path fill="#010101" d="M81.143,80.135v1.313h-4.957c0.052-0.497,0.214-0.967,0.483-1.412c0.265-0.443,0.797-1.033,1.59-1.769
			c0.637-0.595,1.027-0.997,1.172-1.209c0.193-0.292,0.29-0.578,0.29-0.865c0-0.315-0.084-0.558-0.254-0.727
			c-0.169-0.17-0.401-0.256-0.699-0.256c-0.299,0-0.532,0.091-0.705,0.269c-0.178,0.176-0.278,0.472-0.303,0.885l-1.409-0.141
			c0.085-0.779,0.346-1.337,0.789-1.678c0.442-0.338,0.998-0.507,1.663-0.507c0.725,0,1.297,0.197,1.715,0.588
			c0.416,0.395,0.625,0.882,0.625,1.465c0,0.333-0.062,0.649-0.182,0.949c-0.116,0.3-0.306,0.616-0.563,0.944
			c-0.173,0.217-0.479,0.532-0.926,0.942c-0.447,0.408-0.729,0.681-0.851,0.813c-0.116,0.136-0.213,0.267-0.289,0.396H81.143z"/>
	</g>
	<g>
		<path fill="#010101" d="M40.209,93.818h-1.623l-0.645-1.674h-2.948l-0.61,1.674h-1.58l2.875-7.38h1.575L40.209,93.818z
			 M37.465,90.899l-1.017-2.738l-0.997,2.738H37.465z"/>
		<path fill="#010101" d="M40.996,93.818v-7.38h2.393c0.906,0,1.496,0.037,1.771,0.111c0.423,0.11,0.777,0.353,1.063,0.723
			c0.284,0.371,0.427,0.85,0.427,1.436c0,0.456-0.083,0.836-0.246,1.145c-0.165,0.308-0.375,0.552-0.629,0.727
			c-0.253,0.177-0.511,0.294-0.772,0.35c-0.355,0.071-0.87,0.107-1.544,0.107h-0.973v2.782H40.996z M42.486,87.688v2.094h0.817
			c0.586,0,0.979-0.038,1.177-0.115c0.199-0.078,0.354-0.198,0.467-0.361c0.113-0.165,0.169-0.357,0.169-0.576
			c0-0.268-0.08-0.489-0.237-0.664c-0.157-0.173-0.359-0.282-0.6-0.326c-0.177-0.035-0.534-0.051-1.071-0.051H42.486z"/>
		<path fill="#010101" d="M52.6,91.104l1.441,0.46c-0.222,0.805-0.589,1.403-1.104,1.794c-0.516,0.391-1.168,0.586-1.961,0.586
			c-0.978,0-1.784-0.335-2.417-1.003c-0.632-0.671-0.946-1.585-0.946-2.746c0-1.229,0.319-2.183,0.951-2.861
			c0.637-0.68,1.47-1.021,2.504-1.021c0.902,0,1.636,0.269,2.199,0.802c0.334,0.316,0.588,0.77,0.754,1.359l-1.475,0.352
			c-0.089-0.381-0.27-0.684-0.548-0.904c-0.273-0.223-0.612-0.333-1.006-0.333c-0.548,0-0.991,0.195-1.333,0.59
			c-0.338,0.391-0.511,1.027-0.511,1.907c0,0.932,0.168,1.596,0.503,1.992c0.338,0.396,0.772,0.595,1.309,0.595
			c0.399,0,0.736-0.125,1.023-0.378C52.269,92.043,52.475,91.646,52.6,91.104z"/>
		<path fill="#010101" d="M54.995,89.711v-1.299h5.162v1.299H54.995z M54.995,91.945v-1.305h5.162v1.305H54.995z"/>
		<path fill="#010101" d="M65.805,92.506v1.313h-4.957c0.051-0.498,0.212-0.966,0.481-1.411s0.799-1.035,1.592-1.771
			c0.635-0.593,1.027-0.997,1.172-1.207c0.196-0.292,0.294-0.581,0.294-0.866c0-0.317-0.086-0.559-0.255-0.728
			c-0.168-0.169-0.406-0.256-0.704-0.256c-0.295,0-0.527,0.091-0.705,0.269c-0.172,0.177-0.273,0.473-0.302,0.886l-1.409-0.141
			c0.084-0.779,0.347-1.338,0.789-1.678c0.443-0.338,0.999-0.507,1.663-0.507c0.729,0,1.302,0.197,1.716,0.588
			c0.419,0.395,0.625,0.882,0.625,1.466c0,0.331-0.062,0.648-0.178,0.948c-0.121,0.3-0.311,0.616-0.568,0.944
			c-0.169,0.218-0.479,0.531-0.927,0.942c-0.446,0.408-0.729,0.681-0.846,0.813c-0.12,0.134-0.217,0.266-0.289,0.395H65.805z"/>
	</g>
	<path fill="none" stroke="#010101" stroke-width="0.361" stroke-miterlimit="3.864" d="M49.554,68.115
		c0,0-19.867-6.21-22.645-32.946L26.721,8.678h45.692l-0.195,26.492C69.444,61.905,49.554,68.115,49.554,68.115z"/>
	<polygon fill="#010101" points="36.825,32.801 43.312,14.794 37.75,14.794 32.775,37.014 43.005,30.909 40.775,47.934 
		38.94,46.775 40.632,53.743 44.443,47.669 42.361,48.181 46.918,26.713 	"/>
	<polygon fill="#010101" points="65.502,39.307 59.831,35.27 59.831,34.199 62.364,33.122 59.916,32.264 59.916,30.975 
		68.679,24.446 58.157,24.446 60.302,18.993 55.579,21.524 57.125,17.013 50.94,20.837 50.985,23.585 54.464,23.585 54.851,24.79 
		53.304,27.409 57.21,27.367 62.474,29.727 54.206,31.106 55.882,32.048 56.224,33.08 54.979,33.895 56.05,34.41 56.268,35.656 
		53.345,35.441 54.721,40.467 50.896,38.192 50.726,42.744 52.229,45.708 52.442,41.158 60.263,49.574 57.278,41.047 57.898,40.424 
		60.134,41.415 58.716,39.136 58.716,37.847 	"/>
</g>
</svg>
