<?xml version="1.0" encoding="utf-8"?>
<!-- Generator: Adobe Illustrator 16.0.0, SVG Export Plug-In . SVG Version: 6.00 Build 0)  -->
<!DOCTYPE svg PUBLIC "-//W3C//DTD SVG 1.1//EN" "http://www.w3.org/Graphics/SVG/1.1/DTD/svg11.dtd">
<svg version="1.1" id="Layer_1" xmlns="http://www.w3.org/2000/svg" xmlns:xlink="http://www.w3.org/1999/xlink" x="0px" y="0px"
	 width="100px" height="100px" viewBox="0 0 100 100" enable-background="new 0 0 100 100" xml:space="preserve">
<g>
	<g>
		<path d="M16.394,82.131v-7.883h5.846v1.333h-4.251v1.752h3.955v1.321h-3.955v2.147h4.402v1.329H16.394z"/>
		<path d="M23.758,82.131v-7.883h1.547l3.227,5.261v-5.261h1.483v7.883h-1.602l-3.176-5.138v5.138H23.758z"/>
		<path d="M39.543,76.178L38.08,76.34c-0.036-0.3-0.131-0.525-0.281-0.668c-0.15-0.143-0.348-0.214-0.585-0.214
			c-0.32,0-0.593,0.143-0.811,0.432c-0.221,0.284-0.36,0.882-0.415,1.791c0.375-0.446,0.846-0.672,1.404-0.672
			c0.629,0,1.171,0.245,1.618,0.724c0.451,0.479,0.676,1.104,0.676,1.863c0,0.807-0.237,1.451-0.708,1.938
			c-0.475,0.49-1.083,0.731-1.823,0.731c-0.795,0-1.452-0.308-1.966-0.929c-0.51-0.617-0.767-1.63-0.767-3.038
			c0-1.447,0.269-2.483,0.799-3.124c0.538-0.641,1.23-0.957,2.084-0.957c0.597,0,1.096,0.166,1.487,0.502
			C39.183,75.055,39.436,75.541,39.543,76.178z M36.114,79.477c0,0.49,0.115,0.87,0.34,1.136c0.226,0.265,0.487,0.399,0.775,0.399
			c0.277,0,0.514-0.111,0.7-0.325c0.186-0.221,0.277-0.577,0.277-1.075c0-0.515-0.099-0.89-0.301-1.131
			c-0.202-0.237-0.451-0.356-0.751-0.356c-0.292,0-0.538,0.115-0.74,0.34C36.216,78.693,36.114,79.03,36.114,79.477z"/>
		<path d="M44.412,82.131H42.9v-5.695c-0.554,0.518-1.202,0.897-1.954,1.146V76.21c0.396-0.127,0.823-0.372,1.286-0.735
			c0.462-0.356,0.779-0.779,0.953-1.258h1.226V82.131z"/>
		<path d="M49.632,82.131v-1.586h-3.224v-1.321l3.421-5.007h1.266v4.999h0.98v1.329h-0.98v1.586H49.632z M49.632,79.216v-2.693
			l-1.812,2.693H49.632z"/>
		<path d="M54.094,77.879c-0.392-0.166-0.677-0.396-0.854-0.681c-0.174-0.292-0.265-0.608-0.265-0.949
			c0-0.589,0.205-1.075,0.612-1.455c0.412-0.388,0.997-0.577,1.752-0.577c0.748,0,1.333,0.189,1.745,0.577
			c0.415,0.38,0.624,0.866,0.624,1.455c0,0.364-0.095,0.688-0.284,0.974c-0.194,0.284-0.459,0.506-0.803,0.656
			c0.435,0.174,0.771,0.427,0.996,0.768c0.229,0.34,0.345,0.728,0.345,1.166c0,0.732-0.233,1.317-0.696,1.776
			c-0.467,0.455-1.084,0.68-1.859,0.68c-0.712,0-1.309-0.186-1.787-0.562c-0.562-0.442-0.843-1.056-0.843-1.831
			c0-0.423,0.106-0.818,0.316-1.175C53.303,78.346,53.635,78.068,54.094,77.879z M54.264,79.729c0,0.42,0.106,0.744,0.32,0.978
			s0.482,0.348,0.799,0.348c0.313,0,0.569-0.11,0.775-0.336c0.205-0.222,0.305-0.546,0.305-0.973c0-0.364-0.104-0.665-0.309-0.887
			c-0.21-0.221-0.475-0.34-0.795-0.34c-0.368,0-0.641,0.135-0.823,0.388C54.354,79.16,54.264,79.438,54.264,79.729z M54.402,76.356
			c0,0.301,0.087,0.533,0.257,0.7c0.17,0.174,0.399,0.257,0.68,0.257c0.289,0,0.519-0.087,0.688-0.257
			c0.174-0.171,0.257-0.404,0.257-0.704c0-0.285-0.083-0.515-0.253-0.681c-0.17-0.174-0.396-0.253-0.672-0.253
			c-0.293,0-0.522,0.083-0.696,0.253C54.489,75.846,54.402,76.071,54.402,76.356z"/>
		<path d="M64.024,80.727v1.404h-5.296c0.056-0.53,0.229-1.032,0.515-1.507c0.284-0.475,0.854-1.107,1.7-1.891
			c0.681-0.633,1.1-1.068,1.25-1.29c0.21-0.316,0.313-0.62,0.313-0.925c0-0.341-0.091-0.598-0.269-0.775
			c-0.183-0.182-0.432-0.277-0.752-0.277c-0.316,0-0.565,0.096-0.751,0.285c-0.19,0.189-0.297,0.506-0.324,0.949l-1.507-0.15
			c0.091-0.83,0.371-1.432,0.846-1.796c0.471-0.355,1.064-0.537,1.776-0.537c0.775,0,1.388,0.209,1.831,0.625
			c0.442,0.423,0.668,0.94,0.668,1.565c0,0.356-0.067,0.696-0.193,1.013c-0.127,0.324-0.328,0.661-0.602,1.013
			c-0.182,0.229-0.514,0.569-0.992,1.005c-0.479,0.435-0.779,0.728-0.906,0.87c-0.126,0.142-0.229,0.284-0.309,0.419H64.024z"/>
		<path d="M65.195,80.03V78.52h2.971v1.511H65.195z"/>
		<path d="M72.579,82.131h-1.511v-5.695c-0.55,0.518-1.202,0.897-1.953,1.146V76.21c0.396-0.127,0.826-0.372,1.285-0.735
			c0.467-0.356,0.783-0.779,0.953-1.258h1.226V82.131z"/>
		<path d="M74.988,80.03V78.52h2.97v1.511H74.988z"/>
		<path d="M83.606,80.727v1.404h-5.292c0.056-0.53,0.226-1.032,0.514-1.507c0.285-0.475,0.854-1.107,1.701-1.891
			c0.681-0.633,1.096-1.068,1.25-1.29c0.209-0.316,0.313-0.62,0.313-0.925c0-0.341-0.091-0.598-0.27-0.775
			c-0.182-0.182-0.435-0.277-0.751-0.277s-0.565,0.096-0.756,0.285c-0.186,0.189-0.292,0.506-0.32,0.949l-1.507-0.15
			c0.091-0.83,0.372-1.432,0.847-1.796c0.471-0.355,1.063-0.537,1.771-0.537c0.779,0,1.393,0.209,1.835,0.625
			c0.443,0.423,0.665,0.94,0.665,1.565c0,0.356-0.063,0.696-0.19,1.013c-0.126,0.324-0.328,0.661-0.604,1.013
			c-0.182,0.229-0.511,0.569-0.989,1.005c-0.479,0.435-0.779,0.728-0.905,0.87c-0.127,0.142-0.229,0.284-0.309,0.419H83.606z"/>
	</g>
	<g>
		<path d="M36.438,92.449l1.542,0.49c-0.237,0.858-0.629,1.495-1.179,1.915c-0.55,0.419-1.25,0.624-2.096,0.624
			c-1.044,0-1.906-0.355-2.583-1.067c-0.672-0.72-1.009-1.692-1.009-2.935c0-1.313,0.34-2.334,1.017-3.058
			c0.676-0.728,1.57-1.092,2.674-1.092c0.965,0,1.748,0.289,2.349,0.858c0.36,0.337,0.629,0.823,0.807,1.448l-1.578,0.379
			c-0.091-0.411-0.285-0.731-0.582-0.969c-0.297-0.233-0.653-0.352-1.08-0.352c-0.585,0-1.056,0.205-1.42,0.625
			c-0.364,0.419-0.546,1.099-0.546,2.04c0,0.997,0.178,1.705,0.534,2.128c0.364,0.428,0.827,0.633,1.4,0.633
			c0.427,0,0.787-0.13,1.091-0.403C36.086,93.45,36.308,93.026,36.438,92.449z"/>
		<path d="M39.337,95.345v-7.879h1.507v7.879H39.337z"/>
		<path d="M43.525,91.378l-1.368-0.25c0.15-0.554,0.419-0.957,0.795-1.226c0.375-0.261,0.933-0.396,1.677-0.396
			c0.672,0,1.175,0.079,1.507,0.237c0.329,0.158,0.562,0.364,0.696,0.609c0.134,0.245,0.198,0.695,0.198,1.353l-0.016,1.764
			c0,0.502,0.028,0.87,0.075,1.111c0.048,0.241,0.139,0.494,0.273,0.764h-1.495c-0.04-0.099-0.091-0.245-0.146-0.443
			c-0.028-0.091-0.043-0.15-0.052-0.178c-0.261,0.249-0.538,0.438-0.831,0.565c-0.292,0.127-0.609,0.189-0.941,0.189
			c-0.585,0-1.052-0.162-1.388-0.482c-0.34-0.316-0.51-0.72-0.51-1.21c0-0.324,0.075-0.609,0.229-0.862
			c0.158-0.253,0.372-0.446,0.649-0.577c0.277-0.139,0.68-0.253,1.202-0.356c0.704-0.134,1.194-0.253,1.467-0.371v-0.15
			c0-0.293-0.071-0.499-0.213-0.617c-0.143-0.127-0.416-0.189-0.811-0.189c-0.269,0-0.482,0.055-0.633,0.158
			C43.739,90.927,43.621,91.112,43.525,91.378z M45.546,92.604c-0.194,0.067-0.498,0.143-0.917,0.233
			c-0.419,0.087-0.696,0.174-0.827,0.261c-0.194,0.143-0.292,0.316-0.292,0.53s0.079,0.396,0.237,0.554
			c0.158,0.15,0.36,0.229,0.601,0.229c0.273,0,0.53-0.091,0.783-0.269c0.182-0.135,0.3-0.301,0.356-0.499
			c0.04-0.13,0.059-0.38,0.059-0.735V92.604z"/>
		<path d="M47.987,93.715l1.519-0.229c0.063,0.293,0.197,0.515,0.391,0.673c0.198,0.15,0.475,0.226,0.827,0.226
			c0.392,0,0.688-0.071,0.882-0.218c0.135-0.095,0.202-0.229,0.202-0.399c0-0.115-0.04-0.21-0.111-0.289
			c-0.07-0.071-0.241-0.135-0.502-0.197c-1.222-0.27-1.993-0.515-2.321-0.736c-0.451-0.309-0.673-0.735-0.673-1.281
			c0-0.498,0.19-0.913,0.585-1.25c0.388-0.34,0.993-0.506,1.815-0.506c0.779,0,1.361,0.127,1.745,0.38
			c0.379,0.257,0.641,0.633,0.783,1.131l-1.424,0.261c-0.063-0.221-0.179-0.388-0.349-0.506c-0.17-0.119-0.411-0.182-0.728-0.182
			c-0.399,0-0.684,0.059-0.854,0.17c-0.115,0.075-0.174,0.178-0.174,0.305c0,0.11,0.051,0.197,0.15,0.276
			c0.134,0.099,0.609,0.241,1.412,0.424c0.803,0.186,1.368,0.407,1.685,0.676c0.32,0.261,0.475,0.641,0.475,1.119
			c0,0.526-0.218,0.974-0.656,1.349c-0.436,0.38-1.084,0.569-1.942,0.569c-0.775,0-1.392-0.158-1.843-0.475
			C48.426,94.688,48.129,94.261,47.987,93.715z"/>
		<path d="M54.113,93.715l1.515-0.229c0.067,0.293,0.198,0.515,0.396,0.673c0.198,0.15,0.475,0.226,0.827,0.226
			c0.392,0,0.684-0.071,0.882-0.218c0.134-0.095,0.201-0.229,0.201-0.399c0-0.115-0.039-0.21-0.106-0.289
			c-0.079-0.071-0.245-0.135-0.506-0.197c-1.223-0.27-1.994-0.515-2.322-0.736c-0.451-0.309-0.676-0.735-0.676-1.281
			c0-0.498,0.197-0.913,0.585-1.25c0.396-0.34,0.997-0.506,1.819-0.506c0.779,0,1.36,0.127,1.74,0.38
			c0.384,0.257,0.641,0.633,0.787,1.131l-1.424,0.261c-0.063-0.221-0.178-0.388-0.348-0.506c-0.171-0.119-0.416-0.182-0.729-0.182
			c-0.399,0-0.684,0.059-0.857,0.17c-0.111,0.075-0.171,0.178-0.171,0.305c0,0.11,0.052,0.197,0.15,0.276
			c0.139,0.099,0.605,0.241,1.412,0.424c0.803,0.186,1.368,0.407,1.685,0.676c0.316,0.261,0.475,0.641,0.475,1.119
			c0,0.526-0.221,0.974-0.656,1.349c-0.435,0.38-1.084,0.569-1.941,0.569c-0.779,0-1.393-0.158-1.848-0.475
			C54.553,94.688,54.252,94.261,54.113,93.715z"/>
		<path d="M67.375,95.345h-1.511v-5.695c-0.554,0.518-1.203,0.901-1.95,1.146v-1.368c0.392-0.131,0.822-0.372,1.281-0.735
			c0.467-0.36,0.783-0.783,0.953-1.262h1.227V95.345z"/>
	</g>
	<g>
		<path d="M50.882,68.213l-0.119-0.036c-0.209-0.067-21.298-6.973-24.232-35.192L26.329,4.521h49.134v0.396l-0.206,28.028
			c-2.931,28.259-24.043,35.164-24.256,35.231L50.882,68.213z M27.12,5.309l0.198,27.633c2.761,26.555,21.876,33.855,23.564,34.444
			c1.693-0.589,20.827-7.89,23.588-34.482l0.202-27.595H27.12z"/>
	</g>
	<g>
		<polygon points="37.415,30.439 44.277,11.388 38.392,11.388 33.131,34.896 43.953,28.437 41.595,46.449 39.653,45.224 
			41.445,52.596 45.476,46.169 43.272,46.711 48.094,23.996 		"/>
	</g>
	<g>
		<polygon points="67.754,37.321 61.759,33.05 61.759,31.917 64.44,30.777 61.846,29.87 61.846,28.508 71.116,21.598 59.982,21.598 
			62.257,15.827 57.258,18.507 58.895,13.733 52.35,17.781 52.393,20.688 56.079,20.688 56.482,21.962 54.849,24.732 58.986,24.688 
			64.551,27.185 55.802,28.644 57.574,29.641 57.938,30.732 56.621,31.597 57.756,32.14 57.985,33.459 54.896,33.231 56.348,38.547 
			52.302,36.141 52.124,40.958 53.714,44.093 53.939,39.279 62.209,48.184 59.053,39.162 59.71,38.504 62.075,39.552 60.576,37.142 
			60.576,35.776 		"/>
	</g>
</g>
</svg>
