<?xml version="1.0" encoding="utf-8"?>
<!-- Generator: Adobe Illustrator 16.0.0, SVG Export Plug-In . SVG Version: 6.00 Build 0)  -->
<!DOCTYPE svg PUBLIC "-//W3C//DTD SVG 1.1//EN" "http://www.w3.org/Graphics/SVG/1.1/DTD/svg11.dtd">
<svg version="1.1" id="Layer_1" xmlns="http://www.w3.org/2000/svg" xmlns:xlink="http://www.w3.org/1999/xlink" x="0px" y="0px"
	 width="100px" height="100px" viewBox="0 0 100 100" enable-background="new 0 0 100 100" xml:space="preserve">
<g>
	<g>
		<path fill="#010101" d="M14.911,83.259v-7.79h5.903v1.317h-4.296v1.729h3.997v1.312h-3.997v2.119h4.448v1.313H14.911z"/>
		<path fill="#010101" d="M22.345,83.259v-7.79h1.564l3.259,5.201v-5.201h1.493v7.79h-1.613l-3.209-5.079v5.079H22.345z"/>
		<path fill="#010101" d="M33.402,83.259v-7.79h1.607v7.79H33.402z"/>
		<path fill="#010101" d="M36.134,80.725l1.564-0.147c0.095,0.512,0.285,0.889,0.574,1.13c0.287,0.239,0.676,0.362,1.164,0.362
			c0.519,0,0.908-0.107,1.171-0.321C40.869,81.532,41,81.282,41,80.995c0-0.186-0.056-0.341-0.165-0.471
			c-0.111-0.13-0.304-0.241-0.579-0.337c-0.188-0.063-0.617-0.177-1.287-0.34c-0.861-0.208-1.466-0.466-1.814-0.772
			c-0.489-0.427-0.733-0.95-0.733-1.566c0-0.397,0.115-0.767,0.344-1.113c0.23-0.344,0.562-0.607,0.995-0.788
			c0.433-0.182,0.955-0.272,1.566-0.272c1,0,1.751,0.216,2.257,0.644c0.504,0.43,0.771,1.002,0.795,1.717l-1.607,0.069
			c-0.069-0.399-0.216-0.688-0.443-0.863c-0.226-0.177-0.565-0.264-1.018-0.264c-0.467,0-0.833,0.094-1.097,0.282
			c-0.17,0.12-0.255,0.281-0.255,0.483c0,0.186,0.08,0.342,0.239,0.474c0.203,0.166,0.695,0.34,1.477,0.519
			c0.782,0.183,1.36,0.368,1.735,0.562c0.374,0.193,0.667,0.457,0.88,0.792c0.211,0.334,0.317,0.748,0.317,1.239
			c0,0.446-0.127,0.865-0.38,1.253c-0.253,0.392-0.611,0.681-1.075,0.871c-0.464,0.189-1.041,0.284-1.732,0.284
			c-1.007,0-1.779-0.227-2.319-0.682S36.239,81.596,36.134,80.725z"/>
		<path fill="#010101" d="M43.634,79.412c0-0.793,0.122-1.46,0.364-1.998c0.182-0.397,0.428-0.754,0.741-1.067
			c0.314-0.316,0.657-0.551,1.03-0.701c0.496-0.206,1.068-0.311,1.716-0.311c1.173,0,2.112,0.356,2.815,1.069
			c0.705,0.711,1.057,1.702,1.057,2.97c0,1.257-0.35,2.242-1.048,2.951c-0.698,0.711-1.632,1.065-2.802,1.065
			c-1.184,0-2.125-0.353-2.824-1.058C43.983,81.623,43.634,80.65,43.634,79.412z M45.29,79.358c0,0.882,0.208,1.551,0.625,2.006
			s0.945,0.683,1.586,0.683c0.641,0,1.167-0.226,1.578-0.678c0.411-0.451,0.616-1.129,0.616-2.032c0-0.893-0.2-1.558-0.601-1.998
			c-0.399-0.439-0.931-0.658-1.593-0.658s-1.197,0.224-1.602,0.667C45.493,77.793,45.29,78.461,45.29,79.358z"/>
		<path fill="#010101" d="M59.27,83.259h-1.526v-5.628c-0.559,0.51-1.215,0.888-1.971,1.133v-1.354
			c0.397-0.127,0.83-0.369,1.297-0.726c0.467-0.355,0.788-0.773,0.962-1.246h1.238V83.259z"/>
		<path fill="#010101" d="M64.844,83.259h-1.527v-5.628c-0.558,0.51-1.214,0.888-1.97,1.133v-1.354
			c0.397-0.127,0.83-0.369,1.297-0.726c0.467-0.355,0.788-0.773,0.962-1.246h1.238V83.259z"/>
		<path fill="#010101" d="M72.295,77.375l-1.478,0.161c-0.036-0.296-0.13-0.518-0.282-0.658c-0.151-0.143-0.352-0.212-0.593-0.212
			c-0.323,0-0.596,0.14-0.816,0.425c-0.225,0.282-0.363,0.871-0.422,1.769c0.38-0.441,0.854-0.659,1.419-0.659
			c0.636,0,1.182,0.238,1.636,0.712c0.453,0.473,0.682,1.087,0.682,1.839c0,0.797-0.239,1.437-0.717,1.916
			c-0.478,0.482-1.093,0.724-1.84,0.724c-0.804,0-1.464-0.305-1.983-0.917c-0.52-0.609-0.775-1.612-0.775-3.003
			c0-1.428,0.27-2.457,0.808-3.088c0.539-0.632,1.241-0.945,2.104-0.945c0.604,0,1.104,0.165,1.501,0.497
			C71.933,76.267,72.187,76.746,72.295,77.375z M68.834,80.634c0,0.484,0.115,0.859,0.342,1.123c0.23,0.264,0.49,0.396,0.782,0.396
			c0.282,0,0.519-0.107,0.708-0.322c0.187-0.216,0.282-0.571,0.282-1.063c0-0.509-0.103-0.878-0.305-1.113
			c-0.204-0.236-0.456-0.353-0.76-0.353c-0.296,0-0.543,0.11-0.745,0.336C68.937,79.862,68.834,80.193,68.834,80.634z"/>
		<path fill="#010101" d="M77.213,83.259h-1.524v-5.628c-0.557,0.51-1.215,0.888-1.973,1.133v-1.354
			c0.399-0.127,0.832-0.369,1.299-0.726c0.467-0.355,0.786-0.773,0.96-1.246h1.238V83.259z"/>
		<path fill="#010101" d="M84.648,81.873v1.386h-5.35c0.059-0.525,0.232-1.021,0.521-1.49c0.291-0.47,0.863-1.092,1.717-1.867
			c0.688-0.628,1.112-1.053,1.267-1.275c0.21-0.31,0.314-0.612,0.314-0.915c0-0.334-0.091-0.588-0.273-0.767
			s-0.435-0.271-0.759-0.271c-0.319,0-0.571,0.096-0.76,0.283c-0.189,0.186-0.298,0.5-0.326,0.934l-1.521-0.147
			c0.089-0.823,0.376-1.41,0.854-1.771c0.479-0.356,1.073-0.535,1.79-0.535c0.787,0,1.403,0.208,1.854,0.62
			c0.449,0.417,0.673,0.931,0.673,1.547c0,0.351-0.063,0.686-0.193,1.001c-0.128,0.317-0.33,0.651-0.61,0.997
			c-0.185,0.23-0.519,0.561-0.999,0.995c-0.48,0.432-0.786,0.718-0.914,0.859c-0.131,0.141-0.235,0.28-0.313,0.416H84.648z"/>
	</g>
	<g>
		<path fill="#010101" d="M16.741,96.316h-1.749l-0.695-1.768h-3.182l-0.657,1.768H8.752l3.101-7.788h1.7L16.741,96.316z
			 M13.781,93.235l-1.097-2.891l-1.075,2.891H13.781z"/>
		<path fill="#010101" d="M21.162,96.316h-1.526v-5.628c-0.557,0.51-1.214,0.889-1.971,1.132v-1.353
			c0.398-0.128,0.831-0.37,1.298-0.728c0.467-0.354,0.788-0.771,0.961-1.245h1.238V96.316z"/>
		<path fill="#010101" d="M33.648,96.316h-1.749l-0.695-1.768h-3.183l-0.657,1.768h-1.705l3.101-7.788h1.7L33.648,96.316z
			 M30.688,93.235l-1.097-2.891l-1.075,2.891H30.688z"/>
		<path fill="#010101" d="M39.317,94.931v1.386h-5.349c0.058-0.525,0.231-1.02,0.521-1.49c0.29-0.469,0.861-1.092,1.716-1.868
			c0.688-0.627,1.11-1.053,1.266-1.275c0.209-0.308,0.315-0.612,0.315-0.912c0-0.335-0.091-0.59-0.274-0.769
			c-0.184-0.178-0.436-0.271-0.758-0.271c-0.318,0-0.572,0.097-0.76,0.283c-0.188,0.188-0.296,0.499-0.326,0.936l-1.521-0.148
			c0.09-0.822,0.375-1.412,0.853-1.771c0.478-0.356,1.075-0.535,1.792-0.535c0.785,0,1.403,0.209,1.852,0.62
			c0.449,0.417,0.673,0.932,0.673,1.548c0,0.351-0.064,0.685-0.193,1.001c-0.128,0.316-0.331,0.65-0.61,0.997
			c-0.185,0.229-0.518,0.561-1,0.995c-0.481,0.431-0.786,0.718-0.914,0.857c-0.129,0.144-0.234,0.28-0.313,0.417H39.317z"/>
		<path fill="#010101" d="M43.781,88.528h3.183c0.63,0,1.099,0.024,1.41,0.075c0.309,0.051,0.586,0.159,0.83,0.321
			c0.245,0.163,0.448,0.381,0.611,0.651c0.163,0.271,0.245,0.574,0.245,0.912c0,0.363-0.1,0.7-0.302,1.003
			c-0.2,0.305-0.472,0.534-0.817,0.686c0.486,0.14,0.858,0.374,1.119,0.707c0.26,0.334,0.391,0.725,0.391,1.175
			c0,0.353-0.084,0.698-0.252,1.033c-0.169,0.333-0.398,0.603-0.69,0.802c-0.292,0.199-0.651,0.322-1.078,0.37
			c-0.268,0.027-0.915,0.047-1.939,0.053h-2.71V88.528z M45.389,89.824v1.799h1.053c0.627,0,1.016-0.009,1.168-0.025
			c0.274-0.031,0.492-0.124,0.648-0.277c0.158-0.155,0.236-0.357,0.236-0.611c0-0.239-0.067-0.435-0.204-0.587
			c-0.135-0.15-0.336-0.241-0.605-0.271c-0.16-0.02-0.617-0.027-1.374-0.027H45.389z M45.389,92.919v2.084h1.488
			c0.579,0,0.947-0.015,1.103-0.048c0.239-0.041,0.433-0.146,0.583-0.31c0.151-0.166,0.226-0.387,0.226-0.663
			c0-0.233-0.058-0.431-0.174-0.595c-0.116-0.162-0.283-0.281-0.502-0.354c-0.219-0.075-0.695-0.114-1.426-0.114H45.389z"/>
		<path fill="#010101" d="M55.377,96.316H53.85v-5.628c-0.557,0.51-1.214,0.889-1.971,1.132v-1.353
			c0.398-0.128,0.831-0.37,1.298-0.728c0.467-0.354,0.788-0.771,0.962-1.245h1.238V96.316z"/>
		<path fill="#010101" d="M66.178,93.452l1.56,0.484c-0.239,0.85-0.639,1.48-1.194,1.894c-0.555,0.412-1.26,0.617-2.114,0.617
			c-1.058,0-1.927-0.353-2.606-1.058c-0.68-0.707-1.021-1.672-1.021-2.899c0-1.296,0.341-2.304,1.027-3.019
			c0.682-0.719,1.581-1.079,2.697-1.079c0.974,0,1.765,0.283,2.373,0.847c0.362,0.333,0.634,0.813,0.816,1.434l-1.593,0.372
			c-0.093-0.403-0.288-0.723-0.588-0.956s-0.663-0.351-1.091-0.351c-0.589,0-1.068,0.206-1.434,0.623
			c-0.369,0.412-0.552,1.084-0.552,2.013c0,0.983,0.18,1.685,0.543,2.104c0.36,0.418,0.832,0.628,1.412,0.628
			c0.426,0,0.795-0.132,1.102-0.4C65.821,94.441,66.043,94.023,66.178,93.452z"/>
		<path fill="#010101" d="M72.684,96.316h-1.527v-5.628c-0.556,0.51-1.212,0.889-1.97,1.132v-1.353
			c0.397-0.128,0.832-0.37,1.297-0.728c0.469-0.354,0.788-0.771,0.962-1.245h1.238V96.316z"/>
		<path fill="#010101" d="M78.403,96.316v-7.788h5.457v1.315h-3.85v1.843h3.324v1.318h-3.324v3.312H78.403z"/>
		<path fill="#010101" d="M88.752,96.316h-1.524v-5.628c-0.557,0.51-1.215,0.889-1.973,1.132v-1.353
			c0.399-0.128,0.832-0.37,1.299-0.728c0.467-0.354,0.786-0.771,0.96-1.245h1.238V96.316z"/>
	</g>
	<path fill="#010101" d="M46.701,57.493c0,0-9.441,0.195-10.046-7.861c-0.607-8.108-0.265-10.485-0.265-10.485
		s1.738,1.573,2.278,0.396c0,0,0.668-7.472,0.398-9.039c0,0,0.541-0.792,2.812,3.273c0,0,2.146-2.096,0.538-11.666
		c0,0,2.01-0.522,4.02,2.757c0,0,0.938,0.52,1.337-12.055c0,0,1.339,6.416,3.486,8.775c2.142,2.359,1.873,4.327,1.873,4.327
		s0.538,0,1.072-2.752c0,0,3.015,1.507,4.149,11.141c0,0,0.604-0.334,0.669-2.164c0.039-0.929,3.823,3.603,3.284,12.318
		c0,0,0.669,0.325,1.473-0.198c0,0,0,12.513-12.321,13.295c0,0,7.034-5.566,5.422-12.836c0,0-0.469,1.111-1.537,0.916
		c0,0,0.534-4.325-0.404-5.766c0,0-1.608,3.603-2.813,4.127c0,0,1.14-6.157-2.075-8.977c0,0-0.734,8.256-1.737,8.649
		c0,0-1.144-1.899-2.347-2.552c0,0-0.2,6.743,0.064,7.007c0,0-2.944-3.864-3.414-5.764c0,0-0.67,0.657-0.535,4.978
		c0,0-0.405,0-0.874-0.521c0,0-0.397,4.78,5.159,10.395L46.701,57.493z"/>
	<path fill="none" stroke="#010101" stroke-width="0.361" stroke-miterlimit="3.864" d="M40.677,58.279h16.878 M49.644,69.187
		c0,0-21.437-6.554-24.433-34.774L25.006,6.447h49.298l-0.211,27.965C71.103,62.633,49.644,69.187,49.644,69.187z"/>
</g>
</svg>
