<?xml version="1.0" encoding="utf-8"?>
<!-- Generator: Adobe Illustrator 16.0.0, SVG Export Plug-In . SVG Version: 6.00 Build 0)  -->
<!DOCTYPE svg PUBLIC "-//W3C//DTD SVG 1.1//EN" "http://www.w3.org/Graphics/SVG/1.1/DTD/svg11.dtd">
<svg version="1.1" id="Layer_1" xmlns="http://www.w3.org/2000/svg" xmlns:xlink="http://www.w3.org/1999/xlink" x="0px" y="0px"
	 width="100px" height="100px" viewBox="0 0 100 100" enable-background="new 0 0 100 100" xml:space="preserve">
<g>
	<g>
		<path fill="#010101" d="M12.49,84.738v-7.843h6.407v1.326h-4.662v1.739h4.338v1.321h-4.338v2.134h4.827v1.322H12.49z"/>
		<path fill="#010101" d="M20.559,84.738v-7.843h1.697l3.537,5.236v-5.236h1.621v7.843h-1.75l-3.483-5.114v5.114H20.559z"/>
		<path fill="#010101" d="M32.559,84.738v-7.843h1.745v7.843H32.559z"/>
		<path fill="#010101" d="M35.523,82.188l1.698-0.15c0.103,0.516,0.309,0.897,0.623,1.139c0.311,0.242,0.733,0.364,1.264,0.364
			c0.562,0,0.985-0.107,1.271-0.323c0.284-0.216,0.427-0.469,0.427-0.758c0-0.187-0.06-0.342-0.179-0.473
			c-0.12-0.131-0.33-0.244-0.628-0.34c-0.204-0.065-0.669-0.179-1.397-0.344c-0.935-0.208-1.591-0.468-1.968-0.775
			c-0.531-0.431-0.796-0.957-0.796-1.577c0-0.4,0.125-0.773,0.374-1.121c0.25-0.347,0.609-0.612,1.08-0.795
			c0.469-0.182,1.036-0.273,1.7-0.273c1.084,0,1.9,0.216,2.45,0.648c0.547,0.433,0.835,1.008,0.863,1.727l-1.745,0.07
			c-0.074-0.402-0.234-0.693-0.481-0.868c-0.245-0.178-0.613-0.266-1.104-0.266c-0.507,0-0.904,0.094-1.19,0.284
			c-0.185,0.12-0.277,0.283-0.277,0.485c0,0.188,0.086,0.345,0.259,0.479c0.221,0.167,0.754,0.342,1.604,0.521
			c0.849,0.185,1.476,0.37,1.884,0.564c0.405,0.195,0.724,0.461,0.955,0.8c0.229,0.335,0.344,0.752,0.344,1.246
			c0,0.45-0.138,0.871-0.412,1.263c-0.275,0.395-0.664,0.686-1.167,0.876s-1.129,0.286-1.88,0.286c-1.093,0-1.931-0.229-2.517-0.687
			S35.638,83.064,35.523,82.188z"/>
		<path fill="#010101" d="M43.663,80.865c0-0.799,0.132-1.471,0.396-2.012c0.196-0.4,0.464-0.758,0.804-1.074
			c0.341-0.319,0.713-0.555,1.117-0.707c0.538-0.207,1.159-0.312,1.862-0.312c1.273,0,2.292,0.359,3.056,1.076
			c0.765,0.717,1.147,1.714,1.147,2.989c0,1.267-0.38,2.258-1.139,2.973c-0.758,0.714-1.771,1.072-3.041,1.072
			c-1.285,0-2.307-0.355-3.064-1.065C44.043,83.093,43.663,82.112,43.663,80.865z M45.461,80.812c0,0.888,0.227,1.562,0.678,2.021
			c0.451,0.458,1.025,0.686,1.721,0.686s1.267-0.226,1.713-0.682c0.445-0.454,0.668-1.137,0.668-2.045
			c0-0.899-0.217-1.569-0.651-2.013c-0.434-0.442-1.011-0.663-1.729-0.663s-1.299,0.225-1.738,0.672S45.461,79.908,45.461,80.812z"
			/>
		<path fill="#010101" d="M60.631,84.738h-1.655v-5.666c-0.604,0.514-1.317,0.894-2.141,1.14V78.85
			c0.434-0.129,0.903-0.373,1.41-0.732c0.507-0.356,0.854-0.776,1.042-1.255h1.344V84.738z"/>
		<path fill="#010101" d="M66.681,84.738h-1.655v-5.666c-0.604,0.514-1.318,0.894-2.141,1.14V78.85
			c0.434-0.129,0.903-0.373,1.41-0.732c0.507-0.356,0.853-0.776,1.042-1.255h1.344V84.738z"/>
		<path fill="#010101" d="M74.767,78.814l-1.603,0.163c-0.038-0.3-0.142-0.522-0.307-0.663c-0.165-0.144-0.377-0.215-0.642-0.215
			c-0.349,0-0.646,0.142-0.887,0.429c-0.242,0.284-0.396,0.878-0.457,1.78c0.413-0.443,0.924-0.664,1.537-0.664
			c0.693,0,1.285,0.24,1.777,0.717c0.495,0.478,0.74,1.096,0.74,1.853c0,0.802-0.259,1.445-0.777,1.93
			c-0.519,0.485-1.184,0.728-1.999,0.728c-0.873,0-1.59-0.306-2.15-0.923c-0.562-0.613-0.844-1.623-0.844-3.023
			c0-1.438,0.292-2.474,0.879-3.108c0.587-0.636,1.347-0.954,2.28-0.954c0.657,0,1.199,0.167,1.631,0.501
			C74.376,77.697,74.649,78.182,74.767,78.814z M71.014,82.095c0,0.488,0.122,0.868,0.372,1.132
			c0.245,0.266,0.528,0.399,0.849,0.399c0.307,0,0.562-0.11,0.765-0.326c0.205-0.218,0.307-0.575,0.307-1.07
			c0-0.511-0.109-0.884-0.33-1.121c-0.22-0.236-0.495-0.354-0.825-0.354c-0.316,0-0.585,0.111-0.807,0.338
			S71.014,81.652,71.014,82.095z"/>
		<path fill="#010101" d="M80.109,84.738h-1.657v-5.666c-0.606,0.514-1.318,0.894-2.139,1.14V78.85
			c0.432-0.129,0.9-0.373,1.407-0.732c0.507-0.356,0.856-0.776,1.045-1.255h1.344V84.738z"/>
		<path fill="#010101" d="M86.159,84.738h-1.658v-5.666c-0.605,0.514-1.317,0.894-2.138,1.14V78.85
			c0.432-0.129,0.9-0.373,1.407-0.732c0.507-0.356,0.855-0.776,1.044-1.255h1.345V84.738z"/>
	</g>
	<g>
		<path fill="#010101" d="M15.676,95.001l1.691,0.488c-0.259,0.855-0.69,1.491-1.294,1.906c-0.603,0.415-1.368,0.623-2.295,0.623
			c-1.147,0-2.09-0.354-2.829-1.065c-0.739-0.712-1.108-1.685-1.108-2.919c0-1.306,0.371-2.319,1.114-3.041
			c0.743-0.724,1.719-1.085,2.93-1.085c1.057,0,1.916,0.285,2.576,0.852c0.392,0.336,0.687,0.818,0.884,1.444l-1.727,0.374
			c-0.103-0.405-0.314-0.727-0.64-0.962c-0.323-0.235-0.718-0.354-1.181-0.354c-0.64,0-1.16,0.207-1.559,0.627
			c-0.399,0.415-0.599,1.091-0.599,2.027c0,0.99,0.197,1.696,0.589,2.117c0.393,0.422,0.904,0.632,1.532,0.632
			c0.463,0,0.863-0.133,1.196-0.402C15.291,95.998,15.531,95.577,15.676,95.001z"/>
		<path fill="#010101" d="M18.853,97.887v-7.843h1.656v7.843H18.853z"/>
		<path fill="#010101" d="M23.445,93.938l-1.503-0.246c0.169-0.549,0.46-0.956,0.873-1.22c0.413-0.263,1.025-0.396,1.839-0.396
			c0.739,0,1.289,0.079,1.65,0.236c0.362,0.159,0.615,0.362,0.764,0.607c0.146,0.243,0.221,0.69,0.221,1.345L27.27,96.02
			c0,0.498,0.026,0.867,0.081,1.104c0.052,0.237,0.152,0.49,0.297,0.763h-1.639c-0.043-0.102-0.097-0.248-0.159-0.445
			c-0.027-0.089-0.047-0.148-0.059-0.177c-0.283,0.251-0.586,0.438-0.908,0.562c-0.322,0.126-0.666,0.188-1.032,0.188
			c-0.645,0-1.153-0.157-1.523-0.474c-0.373-0.319-0.558-0.72-0.558-1.205c0-0.321,0.085-0.608,0.253-0.858
			c0.169-0.253,0.406-0.445,0.71-0.577c0.305-0.136,0.744-0.251,1.318-0.352c0.774-0.133,1.311-0.255,1.609-0.368v-0.15
			c0-0.291-0.079-0.496-0.236-0.618c-0.157-0.124-0.454-0.186-0.89-0.186c-0.295,0-0.525,0.054-0.69,0.158
			C23.68,93.489,23.547,93.675,23.445,93.938z M25.661,95.157c-0.212,0.064-0.548,0.142-1.008,0.229
			c-0.459,0.091-0.76,0.178-0.902,0.264c-0.216,0.139-0.324,0.315-0.324,0.528s0.086,0.395,0.259,0.548
			c0.173,0.151,0.393,0.229,0.66,0.229c0.298,0,0.583-0.091,0.855-0.268c0.2-0.135,0.332-0.302,0.395-0.496
			c0.044-0.129,0.065-0.375,0.065-0.734V95.157z"/>
		<path fill="#010101" d="M28.336,96.264l1.662-0.229c0.071,0.294,0.215,0.514,0.43,0.666c0.216,0.151,0.519,0.228,0.908,0.228
			c0.428,0,0.751-0.071,0.967-0.215c0.145-0.099,0.218-0.233,0.218-0.4c0-0.113-0.039-0.207-0.118-0.284
			c-0.083-0.07-0.268-0.137-0.554-0.197c-1.336-0.268-2.184-0.511-2.541-0.731c-0.495-0.309-0.743-0.734-0.743-1.279
			c0-0.492,0.214-0.905,0.643-1.242c0.428-0.335,1.093-0.502,1.992-0.502c0.857,0,1.493,0.125,1.91,0.378
			c0.416,0.256,0.704,0.63,0.86,1.126l-1.562,0.262c-0.067-0.221-0.193-0.39-0.381-0.51c-0.186-0.115-0.453-0.176-0.798-0.176
			c-0.436,0-0.749,0.056-0.937,0.167c-0.126,0.077-0.188,0.18-0.188,0.304c0,0.107,0.055,0.197,0.165,0.274
			c0.149,0.099,0.665,0.239,1.546,0.421c0.883,0.183,1.498,0.405,1.848,0.671c0.346,0.266,0.519,0.64,0.519,1.116
			c0,0.52-0.239,0.968-0.719,1.345c-0.48,0.372-1.188,0.56-2.128,0.56c-0.852,0-1.527-0.155-2.024-0.471
			C28.815,97.229,28.49,96.803,28.336,96.264z"/>
		<path fill="#010101" d="M35.05,96.264l1.662-0.229c0.071,0.294,0.214,0.514,0.43,0.666c0.216,0.151,0.519,0.228,0.908,0.228
			c0.428,0,0.751-0.071,0.967-0.215c0.145-0.099,0.218-0.233,0.218-0.4c0-0.113-0.039-0.207-0.118-0.284
			c-0.083-0.07-0.268-0.137-0.554-0.197c-1.335-0.268-2.183-0.511-2.54-0.731c-0.495-0.309-0.743-0.734-0.743-1.279
			c0-0.492,0.214-0.905,0.642-1.242c0.428-0.335,1.093-0.502,1.992-0.502c0.857,0,1.494,0.125,1.91,0.378
			c0.417,0.256,0.704,0.63,0.861,1.126l-1.562,0.262c-0.067-0.221-0.193-0.39-0.381-0.51c-0.186-0.115-0.453-0.176-0.798-0.176
			c-0.436,0-0.749,0.056-0.937,0.167c-0.126,0.077-0.189,0.18-0.189,0.304c0,0.107,0.056,0.197,0.165,0.274
			c0.15,0.099,0.665,0.239,1.547,0.421c0.883,0.183,1.498,0.405,1.848,0.671c0.345,0.266,0.519,0.64,0.519,1.116
			c0,0.52-0.239,0.968-0.719,1.345c-0.48,0.372-1.188,0.56-2.128,0.56c-0.852,0-1.528-0.155-2.024-0.471
			C35.528,97.229,35.203,96.803,35.05,96.264z"/>
		<path fill="#010101" d="M49.584,97.887h-1.656v-5.668c-0.604,0.514-1.317,0.896-2.139,1.142v-1.364
			c0.432-0.127,0.901-0.372,1.408-0.731c0.507-0.357,0.854-0.777,1.043-1.254h1.344V97.887z"/>
		<path fill="#010101" d="M52.225,95.793V94.29h3.253v1.503H52.225z"/>
		<path fill="#010101" d="M64.238,97.887h-1.9l-0.755-1.781h-3.451l-0.715,1.781h-1.851l3.367-7.843h1.844L64.238,97.887z
			 M61.024,94.783l-1.19-2.911l-1.167,2.911H61.024z"/>
		<path fill="#010101" d="M69.033,97.887h-1.655v-5.668c-0.604,0.514-1.317,0.896-2.141,1.142v-1.364
			c0.434-0.127,0.903-0.372,1.41-0.731c0.507-0.357,0.854-0.777,1.042-1.254h1.344V97.887z"/>
		<path fill="#010101" d="M71.674,95.793V94.29h3.253v1.503H71.674z"/>
		<path fill="#010101" d="M83.688,97.887h-1.9l-0.755-1.781h-3.451l-0.715,1.781h-1.851l3.367-7.843h1.844L83.688,97.887z
			 M80.475,94.783l-1.19-2.911l-1.167,2.911H80.475z"/>
		<path fill="#010101" d="M89.842,96.49v1.396h-5.808c0.064-0.529,0.253-1.027,0.566-1.501s0.936-1.1,1.862-1.881
			c0.747-0.631,1.205-1.059,1.374-1.284c0.227-0.311,0.34-0.616,0.34-0.921c0-0.335-0.099-0.592-0.297-0.771
			c-0.198-0.181-0.472-0.271-0.82-0.271c-0.347,0-0.623,0.096-0.825,0.284c-0.205,0.188-0.323,0.503-0.354,0.941l-1.65-0.149
			c0.097-0.828,0.405-1.421,0.924-1.782c0.519-0.36,1.167-0.54,1.945-0.54c0.851,0,1.522,0.21,2.011,0.625
			c0.485,0.419,0.731,0.938,0.731,1.558c0,0.354-0.071,0.689-0.213,1.008c-0.137,0.319-0.358,0.655-0.66,1.004
			c-0.202,0.231-0.563,0.565-1.084,1.001c-0.523,0.436-0.854,0.724-0.995,0.865c-0.139,0.143-0.252,0.282-0.34,0.419H89.842z"/>
	</g>
	<path fill="none" stroke="#010101" stroke-width="0.361" stroke-miterlimit="3.864" d="M47.041,66.189
		c0,0-23.274-6.596-26.528-35.016V3.019h53.07v28.155C70.33,59.59,47.041,66.189,47.041,66.189z"/>
	<path fill="#010101" d="M31.668,37.901c0-0.877,0.783-1.594,1.759-1.594c0.962,0,1.745,0.716,1.745,1.594
		c0,0.875-0.783,1.588-1.745,1.588C32.451,39.49,31.668,38.777,31.668,37.901"/>
	<path fill="#010101" d="M51.915,37.901c0-0.877,0.782-1.594,1.754-1.594c0.967,0,1.744,0.716,1.744,1.594
		c0,0.875-0.777,1.588-1.744,1.588C52.697,39.49,51.915,38.777,51.915,37.901"/>
	<path fill="#010101" d="M34.209,33.671c0-0.875,0.783-1.587,1.754-1.587c0.967,0,1.745,0.712,1.745,1.587
		c0,0.877-0.778,1.594-1.745,1.594C34.992,35.265,34.209,34.548,34.209,33.671"/>
	<path fill="#010101" d="M39.075,31.377c0-0.882,0.788-1.592,1.754-1.592c0.966,0,1.749,0.71,1.749,1.592
		c0,0.877-0.782,1.59-1.749,1.59C39.863,32.967,39.075,32.254,39.075,31.377"/>
	<path fill="#010101" d="M49.393,33.495c0-0.875,0.782-1.592,1.754-1.592c0.967,0,1.744,0.717,1.744,1.592
		c0,0.877-0.777,1.59-1.744,1.59C50.175,35.085,49.393,34.373,49.393,33.495"/>
	<g>
		<rect x="28.169" y="40.9" fill="#010101" width="35.812" height="4.773"/>
		<path fill="none" stroke="#010101" stroke-width="0.645" stroke-miterlimit="3.864" d="M47.473,21.827l-0.684,11.658
			 M65.735,15.817H45.492v5.478h20.437H53.084v-5.478"/>
	</g>
</g>
</svg>
