<?xml version="1.0" encoding="utf-8"?>
<!-- Generator: Adobe Illustrator 16.0.0, SVG Export Plug-In . SVG Version: 6.00 Build 0)  -->
<!DOCTYPE svg PUBLIC "-//W3C//DTD SVG 1.1//EN" "http://www.w3.org/Graphics/SVG/1.1/DTD/svg11.dtd">
<svg version="1.1" id="Layer_1" xmlns="http://www.w3.org/2000/svg" xmlns:xlink="http://www.w3.org/1999/xlink" x="0px" y="0px"
	 width="100px" height="100px" viewBox="0 0 100 100" enable-background="new 0 0 100 100" xml:space="preserve">
<g>
	<path fill="#010101" d="M17.058,81.311v-7.633h5.652v1.292h-4.113v1.692h3.827v1.285h-3.827v2.077h4.259v1.286H17.058z"/>
	<path fill="#010101" d="M24.177,81.311v-7.633h1.498l3.119,5.098v-5.098h1.43v7.633H28.68l-3.073-4.977v4.977H24.177z"/>
	<path fill="#010101" d="M34.763,81.311v-7.633h1.539v7.633H34.763z"/>
	<path fill="#010101" d="M37.378,78.827l1.498-0.146c0.091,0.503,0.273,0.873,0.549,1.109c0.276,0.235,0.647,0.354,1.115,0.354
		c0.496,0,0.869-0.104,1.121-0.315c0.251-0.209,0.376-0.456,0.376-0.736c0-0.181-0.053-0.334-0.159-0.46
		c-0.105-0.127-0.29-0.238-0.554-0.332c-0.18-0.062-0.591-0.173-1.232-0.332c-0.825-0.205-1.403-0.457-1.737-0.756
		c-0.468-0.42-0.702-0.932-0.702-1.536c0-0.388,0.11-0.752,0.331-1.091c0.22-0.338,0.538-0.595,0.951-0.771
		c0.414-0.178,0.915-0.266,1.5-0.266c0.957,0,1.677,0.209,2.16,0.629c0.484,0.42,0.737,0.98,0.762,1.683l-1.539,0.066
		c-0.066-0.392-0.208-0.674-0.424-0.846c-0.217-0.171-0.542-0.258-0.975-0.258c-0.448,0-0.797,0.092-1.051,0.276
		c-0.163,0.118-0.244,0.276-0.244,0.473c0,0.181,0.076,0.336,0.229,0.464c0.194,0.163,0.666,0.334,1.415,0.511
		c0.748,0.177,1.302,0.36,1.661,0.55c0.359,0.188,0.64,0.447,0.843,0.774c0.203,0.329,0.304,0.734,0.304,1.217
		c0,0.438-0.122,0.848-0.364,1.229c-0.243,0.383-0.586,0.666-1.03,0.852c-0.444,0.185-0.997,0.279-1.658,0.279
		c-0.964,0-1.704-0.224-2.221-0.67C37.788,80.332,37.479,79.682,37.378,78.827z"/>
	<path fill="#010101" d="M44.56,77.541c0-0.776,0.116-1.429,0.348-1.958c0.174-0.388,0.41-0.737,0.71-1.046
		c0.3-0.31,0.628-0.538,0.985-0.688c0.475-0.199,1.023-0.3,1.644-0.3c1.123,0,2.022,0.348,2.696,1.046
		c0.674,0.697,1.012,1.667,1.012,2.91c0,1.232-0.335,2.196-1.003,2.893c-0.669,0.696-1.563,1.043-2.684,1.043
		c-1.133,0-2.034-0.345-2.703-1.039C44.894,79.71,44.56,78.756,44.56,77.541z M46.145,77.489c0,0.864,0.199,1.52,0.598,1.966
		c0.398,0.446,0.905,0.669,1.518,0.669s1.117-0.222,1.511-0.664c0.393-0.442,0.59-1.106,0.59-1.992c0-0.875-0.192-1.526-0.575-1.957
		c-0.383-0.431-0.892-0.646-1.526-0.646c-0.634,0-1.146,0.219-1.534,0.653C46.339,75.954,46.145,76.611,46.145,77.489z"/>
	<path fill="#010101" d="M59.528,81.311h-1.46v-5.514c-0.534,0.5-1.163,0.869-1.888,1.109v-1.327
		c0.381-0.126,0.795-0.362,1.242-0.711c0.448-0.35,0.755-0.756,0.921-1.222h1.185V81.311z"/>
	<path fill="#010101" d="M64.866,81.311h-1.461v-5.514c-0.533,0.5-1.163,0.869-1.888,1.109v-1.327
		c0.381-0.126,0.796-0.362,1.243-0.711c0.446-0.35,0.754-0.756,0.919-1.222h1.187V81.311z"/>
	<path fill="#010101" d="M72,75.547l-1.415,0.156c-0.035-0.292-0.125-0.506-0.27-0.645c-0.146-0.139-0.336-0.209-0.567-0.209
		c-0.309,0-0.57,0.139-0.782,0.416c-0.213,0.278-0.348,0.855-0.403,1.733c0.363-0.43,0.816-0.645,1.357-0.645
		c0.61,0,1.133,0.232,1.567,0.698c0.435,0.465,0.653,1.065,0.653,1.8c0,0.782-0.229,1.408-0.688,1.881
		c-0.458,0.473-1.045,0.707-1.762,0.707c-0.771,0-1.403-0.299-1.898-0.896c-0.496-0.6-0.743-1.581-0.743-2.945
		c0-1.399,0.258-2.407,0.774-3.025c0.516-0.617,1.188-0.927,2.013-0.927c0.578,0,1.057,0.162,1.437,0.487
		C71.653,74.457,71.895,74.929,72,75.547z M68.688,78.738c0,0.477,0.108,0.844,0.326,1.102c0.22,0.26,0.469,0.389,0.749,0.389
		c0.271,0,0.496-0.106,0.677-0.317c0.18-0.213,0.271-0.56,0.271-1.042c0-0.496-0.098-0.86-0.291-1.091
		c-0.194-0.23-0.437-0.346-0.728-0.346c-0.281,0-0.519,0.109-0.712,0.33C68.784,77.982,68.688,78.309,68.688,78.738z"/>
	<path fill="#010101" d="M76.711,81.311h-1.462v-5.514c-0.533,0.5-1.162,0.869-1.888,1.109v-1.327
		c0.382-0.126,0.796-0.362,1.244-0.711c0.446-0.35,0.754-0.756,0.919-1.222h1.187V81.311z"/>
	<path fill="#010101" d="M82.059,81.311h-1.461v-5.514c-0.534,0.5-1.164,0.869-1.889,1.109v-1.327
		c0.382-0.126,0.796-0.362,1.243-0.711c0.447-0.35,0.754-0.756,0.92-1.222h1.187V81.311z"/>
</g>
<g>
	<path fill="#010101" d="M28.451,91.3l1.492,0.474c-0.229,0.833-0.609,1.451-1.142,1.855c-0.532,0.405-1.207,0.606-2.025,0.606
		c-1.012,0-1.844-0.345-2.496-1.039c-0.651-0.691-0.978-1.638-0.978-2.839c0-1.271,0.328-2.257,0.982-2.961
		c0.655-0.702,1.517-1.054,2.584-1.054c0.932,0,1.69,0.276,2.272,0.828c0.347,0.325,0.606,0.794,0.78,1.405l-1.523,0.365
		c-0.09-0.396-0.278-0.709-0.564-0.938c-0.286-0.229-0.634-0.343-1.042-0.343c-0.565,0-1.023,0.202-1.375,0.608
		c-0.352,0.407-0.528,1.064-0.528,1.975c0,0.963,0.173,1.651,0.52,2.062c0.347,0.409,0.797,0.613,1.352,0.613
		c0.409,0,0.761-0.13,1.056-0.39C28.111,92.268,28.323,91.859,28.451,91.3z"/>
	<path fill="#010101" d="M31.254,94.106v-7.633h1.461v7.633H31.254z"/>
	<path fill="#010101" d="M35.305,90.264l-1.326-0.24c0.149-0.534,0.406-0.93,0.77-1.187s0.905-0.386,1.622-0.386
		c0.651,0,1.137,0.078,1.456,0.232c0.318,0.154,0.543,0.35,0.673,0.588c0.129,0.238,0.195,0.675,0.195,1.31l-0.016,1.708
		c0,0.486,0.023,0.844,0.07,1.074c0.047,0.231,0.134,0.479,0.262,0.743h-1.445c-0.039-0.098-0.085-0.241-0.141-0.433
		c-0.024-0.087-0.042-0.145-0.052-0.172c-0.25,0.243-0.517,0.425-0.801,0.546c-0.284,0.122-0.587,0.184-0.91,0.184
		c-0.568,0-1.017-0.154-1.343-0.464c-0.328-0.309-0.492-0.699-0.492-1.171c0-0.313,0.075-0.593,0.224-0.837s0.358-0.433,0.627-0.562
		c0.268-0.13,0.656-0.244,1.162-0.342c0.684-0.128,1.156-0.248,1.42-0.358v-0.146c0-0.281-0.069-0.482-0.208-0.602
		c-0.139-0.12-0.4-0.179-0.785-0.179c-0.26,0-0.463,0.051-0.609,0.153C35.512,89.826,35.395,90.007,35.305,90.264z M37.26,91.45
		c-0.187,0.063-0.483,0.137-0.889,0.224s-0.671,0.173-0.796,0.255c-0.191,0.136-0.286,0.308-0.286,0.516
		c0,0.205,0.076,0.383,0.229,0.531c0.153,0.15,0.347,0.224,0.583,0.224c0.264,0,0.515-0.086,0.754-0.26
		c0.176-0.131,0.292-0.293,0.348-0.484c0.038-0.125,0.057-0.363,0.057-0.713V91.45z"/>
	<path fill="#010101" d="M39.621,92.528l1.466-0.224c0.062,0.283,0.188,0.5,0.379,0.647c0.191,0.148,0.458,0.221,0.801,0.221
		c0.378,0,0.663-0.068,0.853-0.208c0.128-0.097,0.192-0.227,0.192-0.39c0-0.11-0.035-0.203-0.104-0.275
		c-0.073-0.07-0.235-0.134-0.489-0.193c-1.179-0.26-1.926-0.498-2.241-0.713c-0.437-0.298-0.655-0.714-0.655-1.245
		c0-0.479,0.189-0.881,0.567-1.207c0.378-0.327,0.964-0.49,1.758-0.49c0.755,0,1.317,0.123,1.684,0.37
		c0.368,0.246,0.621,0.61,0.76,1.093l-1.378,0.256c-0.059-0.215-0.17-0.38-0.335-0.495c-0.165-0.114-0.399-0.172-0.705-0.172
		c-0.385,0-0.661,0.055-0.827,0.161c-0.111,0.076-0.166,0.176-0.166,0.297c0,0.105,0.048,0.193,0.146,0.266
		c0.132,0.098,0.587,0.234,1.365,0.412c0.778,0.177,1.321,0.394,1.63,0.65c0.305,0.26,0.458,0.623,0.458,1.088
		c0,0.508-0.211,0.942-0.634,1.308c-0.423,0.363-1.049,0.547-1.877,0.547c-0.752,0-1.347-0.152-1.786-0.459
		C40.042,93.468,39.755,93.052,39.621,92.528z"/>
	<path fill="#010101" d="M45.542,92.528l1.467-0.224c0.062,0.283,0.188,0.5,0.379,0.647c0.191,0.148,0.458,0.221,0.801,0.221
		c0.378,0,0.663-0.068,0.853-0.208c0.128-0.097,0.192-0.227,0.192-0.39c0-0.11-0.035-0.203-0.104-0.275
		c-0.073-0.07-0.236-0.134-0.489-0.193c-1.179-0.26-1.926-0.498-2.241-0.713c-0.437-0.298-0.655-0.714-0.655-1.245
		c0-0.479,0.189-0.881,0.567-1.207c0.378-0.327,0.963-0.49,1.757-0.49c0.755,0,1.317,0.123,1.685,0.37
		c0.368,0.246,0.621,0.61,0.759,1.093l-1.378,0.256c-0.059-0.215-0.171-0.38-0.335-0.495c-0.165-0.114-0.399-0.172-0.705-0.172
		c-0.385,0-0.661,0.055-0.827,0.161c-0.111,0.076-0.166,0.176-0.166,0.297c0,0.105,0.048,0.193,0.146,0.266
		c0.132,0.098,0.586,0.234,1.365,0.412c0.778,0.177,1.321,0.394,1.63,0.65c0.305,0.26,0.458,0.623,0.458,1.088
		c0,0.508-0.211,0.942-0.634,1.308c-0.423,0.363-1.049,0.547-1.877,0.547c-0.752,0-1.347-0.152-1.786-0.459
		C45.964,93.468,45.678,93.052,45.542,92.528z"/>
	<path fill="#010101" d="M59.562,92.747v1.359h-5.122c0.055-0.515,0.222-1.001,0.5-1.461c0.276-0.46,0.824-1.069,1.642-1.83
		c0.659-0.614,1.063-1.032,1.213-1.25c0.199-0.303,0.301-0.601,0.301-0.896c0-0.326-0.088-0.577-0.263-0.753
		c-0.175-0.174-0.416-0.262-0.725-0.262c-0.307,0-0.549,0.092-0.729,0.275s-0.284,0.489-0.312,0.917l-1.456-0.146
		c0.087-0.805,0.358-1.383,0.816-1.733c0.456-0.351,1.029-0.526,1.716-0.526c0.752,0,1.343,0.203,1.772,0.609
		c0.431,0.406,0.646,0.911,0.646,1.515c0,0.343-0.062,0.671-0.186,0.982c-0.122,0.311-0.318,0.636-0.585,0.976
		c-0.177,0.226-0.496,0.551-0.956,0.974c-0.461,0.424-0.753,0.705-0.876,0.844c-0.124,0.139-0.224,0.273-0.3,0.406H59.562z"/>
	<path fill="#010101" d="M60.694,92.069v-1.463h2.87v1.463H60.694z"/>
	<path fill="#010101" d="M71.292,94.106h-1.675l-0.666-1.734h-3.047l-0.629,1.734h-1.633l2.97-7.633h1.627L71.292,94.106z
		 M68.458,91.086l-1.051-2.832l-1.029,2.832H68.458z"/>
	<path fill="#010101" d="M75.523,94.106h-1.46v-5.516c-0.534,0.501-1.164,0.87-1.889,1.11v-1.328
		c0.381-0.125,0.796-0.361,1.243-0.711c0.447-0.349,0.755-0.755,0.921-1.221h1.185V94.106z"/>
</g>
<rect x="33.664" y="43.405" fill="#010101" width="31.588" height="4.644"/>
<path fill="#010101" d="M36.753,40.486c0-0.851,0.69-1.549,1.547-1.549c0.853,0,1.542,0.698,1.542,1.549
	c0,0.854-0.69,1.545-1.542,1.545C37.443,42.031,36.753,41.339,36.753,40.486"/>
<path fill="#010101" d="M54.61,40.486c0-0.851,0.689-1.549,1.548-1.549c0.852,0,1.538,0.698,1.538,1.549
	c0,0.854-0.687,1.545-1.538,1.545C55.3,42.031,54.61,41.339,54.61,40.486"/>
<path fill="#010101" d="M38.991,36.37c0-0.851,0.694-1.543,1.548-1.543c0.852,0,1.541,0.693,1.541,1.543
	c0,0.855-0.689,1.552-1.541,1.552C39.685,37.922,38.991,37.226,38.991,36.37"/>
<path fill="#010101" d="M43.281,34.142c0-0.859,0.695-1.55,1.549-1.55c0.851,0,1.542,0.691,1.542,1.55
	c0,0.852-0.691,1.545-1.542,1.545C43.977,35.687,43.281,34.993,43.281,34.142"/>
<path fill="#010101" d="M52.385,36.203c0-0.854,0.691-1.552,1.545-1.552c0.854,0,1.544,0.698,1.544,1.552
	c0,0.852-0.689,1.544-1.544,1.544C53.076,37.748,52.385,37.055,52.385,36.203"/>
<rect x="-420.506" y="-684.983" fill="none" width="1190.55" height="822.047"/>
<path fill="none" stroke="#010101" stroke-width="0.645" stroke-miterlimit="3.864" d="M50.689,24.845l-0.603,11.343 M66.797,18.999
	H48.943v5.33h18.024H55.638v-5.33"/>
<path fill="none" stroke="#010101" stroke-width="0.361" stroke-miterlimit="3.864" d="M50.534,66.981
	c0,0-20.53-6.419-23.399-34.069v-27.4h46.811v27.4C71.078,60.559,50.534,66.981,50.534,66.981z"/>
<rect x="-412.099" y="-697.237" fill="none" width="1190.55" height="822.046"/>
</svg>
