<?xml version="1.0" encoding="utf-8"?>
<!-- Generator: Adobe Illustrator 16.0.0, SVG Export Plug-In . SVG Version: 6.00 Build 0)  -->
<!DOCTYPE svg PUBLIC "-//W3C//DTD SVG 1.1//EN" "http://www.w3.org/Graphics/SVG/1.1/DTD/svg11.dtd">
<svg version="1.1" xmlns="http://www.w3.org/2000/svg" xmlns:xlink="http://www.w3.org/1999/xlink" x="0px" y="0px" width="100px"
	 height="100px" viewBox="0 0 100 100" enable-background="new 0 0 100 100" xml:space="preserve">
<g id="Layer_1" display="none">
	<g display="inline">
		<g>
			<path d="M16.394,82.131v-7.883h5.846v1.333h-4.251v1.752h3.955v1.321h-3.955v2.147h4.402v1.329H16.394z"/>
			<path d="M23.758,82.131v-7.883h1.547l3.227,5.261v-5.261h1.483v7.883h-1.602l-3.176-5.138v5.138H23.758z"/>
			<path d="M39.543,76.178L38.08,76.34c-0.036-0.3-0.131-0.525-0.281-0.668c-0.15-0.143-0.348-0.214-0.585-0.214
				c-0.32,0-0.593,0.143-0.811,0.432c-0.221,0.284-0.36,0.882-0.415,1.791c0.375-0.446,0.846-0.672,1.404-0.672
				c0.629,0,1.171,0.245,1.618,0.724c0.451,0.479,0.676,1.104,0.676,1.863c0,0.807-0.237,1.451-0.708,1.938
				c-0.475,0.49-1.083,0.731-1.823,0.731c-0.795,0-1.452-0.308-1.966-0.929c-0.51-0.617-0.767-1.63-0.767-3.038
				c0-1.447,0.269-2.483,0.799-3.124c0.538-0.641,1.23-0.957,2.084-0.957c0.597,0,1.096,0.166,1.487,0.502
				C39.183,75.055,39.436,75.541,39.543,76.178z M36.114,79.477c0,0.49,0.115,0.87,0.34,1.136c0.226,0.265,0.487,0.399,0.775,0.399
				c0.277,0,0.514-0.111,0.7-0.325c0.186-0.221,0.277-0.577,0.277-1.075c0-0.515-0.099-0.89-0.301-1.131
				c-0.202-0.237-0.451-0.356-0.751-0.356c-0.292,0-0.538,0.115-0.74,0.34C36.216,78.693,36.114,79.03,36.114,79.477z"/>
			<path d="M44.412,82.131H42.9v-5.695c-0.554,0.518-1.202,0.897-1.954,1.146V76.21c0.396-0.127,0.823-0.372,1.286-0.735
				c0.462-0.356,0.779-0.779,0.953-1.258h1.226V82.131z"/>
			<path d="M49.632,82.131v-1.586h-3.224v-1.321l3.421-5.007h1.266v4.999h0.98v1.329h-0.98v1.586H49.632z M49.632,79.216v-2.693
				l-1.812,2.693H49.632z"/>
			<path d="M54.094,77.879c-0.392-0.166-0.677-0.396-0.854-0.681c-0.174-0.292-0.265-0.608-0.265-0.949
				c0-0.589,0.205-1.075,0.612-1.455c0.412-0.388,0.997-0.577,1.752-0.577c0.748,0,1.333,0.189,1.745,0.577
				c0.415,0.38,0.624,0.866,0.624,1.455c0,0.364-0.095,0.688-0.284,0.974c-0.194,0.284-0.459,0.506-0.803,0.656
				c0.435,0.174,0.771,0.427,0.996,0.768c0.229,0.34,0.345,0.728,0.345,1.166c0,0.732-0.233,1.317-0.696,1.776
				c-0.467,0.455-1.084,0.68-1.859,0.68c-0.712,0-1.309-0.186-1.787-0.562c-0.562-0.442-0.843-1.056-0.843-1.831
				c0-0.423,0.106-0.818,0.316-1.175C53.303,78.346,53.635,78.068,54.094,77.879z M54.264,79.729c0,0.42,0.106,0.744,0.32,0.978
				s0.482,0.348,0.799,0.348c0.313,0,0.569-0.11,0.775-0.336c0.205-0.222,0.305-0.546,0.305-0.973c0-0.364-0.104-0.665-0.309-0.887
				c-0.21-0.221-0.475-0.34-0.795-0.34c-0.368,0-0.641,0.135-0.823,0.388C54.354,79.16,54.264,79.438,54.264,79.729z M54.402,76.356
				c0,0.301,0.087,0.533,0.257,0.7c0.17,0.174,0.399,0.257,0.68,0.257c0.289,0,0.519-0.087,0.688-0.257
				c0.174-0.171,0.257-0.404,0.257-0.704c0-0.285-0.083-0.515-0.253-0.681c-0.17-0.174-0.396-0.253-0.672-0.253
				c-0.293,0-0.522,0.083-0.696,0.253C54.489,75.846,54.402,76.071,54.402,76.356z"/>
			<path d="M64.024,80.727v1.404h-5.296c0.056-0.53,0.229-1.032,0.515-1.507c0.284-0.475,0.854-1.107,1.7-1.891
				c0.681-0.633,1.1-1.068,1.25-1.29c0.21-0.316,0.313-0.62,0.313-0.925c0-0.341-0.091-0.598-0.269-0.775
				c-0.183-0.182-0.432-0.277-0.752-0.277c-0.316,0-0.565,0.096-0.751,0.285c-0.19,0.189-0.297,0.506-0.324,0.949l-1.507-0.15
				c0.091-0.83,0.371-1.432,0.846-1.796c0.471-0.355,1.064-0.537,1.776-0.537c0.775,0,1.388,0.209,1.831,0.625
				c0.442,0.423,0.668,0.94,0.668,1.565c0,0.356-0.067,0.696-0.193,1.013c-0.127,0.324-0.328,0.661-0.602,1.013
				c-0.182,0.229-0.514,0.569-0.992,1.005c-0.479,0.435-0.779,0.728-0.906,0.87c-0.126,0.142-0.229,0.284-0.309,0.419H64.024z"/>
			<path d="M65.195,80.03V78.52h2.971v1.511H65.195z"/>
			<path d="M72.579,82.131h-1.511v-5.695c-0.55,0.518-1.202,0.897-1.953,1.146V76.21c0.396-0.127,0.826-0.372,1.285-0.735
				c0.467-0.356,0.783-0.779,0.953-1.258h1.226V82.131z"/>
			<path d="M74.988,80.03V78.52h2.97v1.511H74.988z"/>
			<path d="M83.606,80.727v1.404h-5.292c0.056-0.53,0.226-1.032,0.514-1.507c0.285-0.475,0.854-1.107,1.701-1.891
				c0.681-0.633,1.096-1.068,1.25-1.29c0.209-0.316,0.313-0.62,0.313-0.925c0-0.341-0.091-0.598-0.27-0.775
				c-0.182-0.182-0.435-0.277-0.751-0.277s-0.565,0.096-0.756,0.285c-0.186,0.189-0.292,0.506-0.32,0.949l-1.507-0.15
				c0.091-0.83,0.372-1.432,0.847-1.796c0.471-0.355,1.063-0.537,1.771-0.537c0.779,0,1.393,0.209,1.835,0.625
				c0.443,0.423,0.665,0.94,0.665,1.565c0,0.356-0.063,0.696-0.19,1.013c-0.126,0.324-0.328,0.661-0.604,1.013
				c-0.182,0.229-0.511,0.569-0.989,1.005c-0.479,0.435-0.779,0.728-0.905,0.87c-0.127,0.142-0.229,0.284-0.309,0.419H83.606z"/>
		</g>
		<g>
			<path d="M36.438,92.449l1.542,0.49c-0.237,0.858-0.629,1.495-1.179,1.915c-0.55,0.419-1.25,0.624-2.096,0.624
				c-1.044,0-1.906-0.355-2.583-1.067c-0.672-0.72-1.009-1.692-1.009-2.935c0-1.313,0.34-2.334,1.017-3.058
				c0.676-0.728,1.57-1.092,2.674-1.092c0.965,0,1.748,0.289,2.349,0.858c0.36,0.337,0.629,0.823,0.807,1.448l-1.578,0.379
				c-0.091-0.411-0.285-0.731-0.582-0.969c-0.297-0.233-0.653-0.352-1.08-0.352c-0.585,0-1.056,0.205-1.42,0.625
				c-0.364,0.419-0.546,1.099-0.546,2.04c0,0.997,0.178,1.705,0.534,2.128c0.364,0.428,0.827,0.633,1.4,0.633
				c0.427,0,0.787-0.13,1.091-0.403C36.086,93.45,36.308,93.026,36.438,92.449z"/>
			<path d="M39.337,95.345v-7.879h1.507v7.879H39.337z"/>
			<path d="M43.525,91.378l-1.368-0.25c0.15-0.554,0.419-0.957,0.795-1.226c0.375-0.261,0.933-0.396,1.677-0.396
				c0.672,0,1.175,0.079,1.507,0.237c0.329,0.158,0.562,0.364,0.696,0.609c0.134,0.245,0.198,0.695,0.198,1.353l-0.016,1.764
				c0,0.502,0.028,0.87,0.075,1.111c0.048,0.241,0.139,0.494,0.273,0.764h-1.495c-0.04-0.099-0.091-0.245-0.146-0.443
				c-0.028-0.091-0.043-0.15-0.052-0.178c-0.261,0.249-0.538,0.438-0.831,0.565c-0.292,0.127-0.609,0.189-0.941,0.189
				c-0.585,0-1.052-0.162-1.388-0.482c-0.34-0.316-0.51-0.72-0.51-1.21c0-0.324,0.075-0.609,0.229-0.862
				c0.158-0.253,0.372-0.446,0.649-0.577c0.277-0.139,0.68-0.253,1.202-0.356c0.704-0.134,1.194-0.253,1.467-0.371v-0.15
				c0-0.293-0.071-0.499-0.213-0.617c-0.143-0.127-0.416-0.189-0.811-0.189c-0.269,0-0.482,0.055-0.633,0.158
				C43.739,90.927,43.621,91.112,43.525,91.378z M45.546,92.604c-0.194,0.067-0.498,0.143-0.917,0.233
				c-0.419,0.087-0.696,0.174-0.827,0.261c-0.194,0.143-0.292,0.316-0.292,0.53s0.079,0.396,0.237,0.554
				c0.158,0.15,0.36,0.229,0.601,0.229c0.273,0,0.53-0.091,0.783-0.269c0.182-0.135,0.3-0.301,0.356-0.499
				c0.04-0.13,0.059-0.38,0.059-0.735V92.604z"/>
			<path d="M47.987,93.715l1.519-0.229c0.063,0.293,0.197,0.515,0.391,0.673c0.198,0.15,0.475,0.226,0.827,0.226
				c0.392,0,0.688-0.071,0.882-0.218c0.135-0.095,0.202-0.229,0.202-0.399c0-0.115-0.04-0.21-0.111-0.289
				c-0.07-0.071-0.241-0.135-0.502-0.197c-1.222-0.27-1.993-0.515-2.321-0.736c-0.451-0.309-0.673-0.735-0.673-1.281
				c0-0.498,0.19-0.913,0.585-1.25c0.388-0.34,0.993-0.506,1.815-0.506c0.779,0,1.361,0.127,1.745,0.38
				c0.379,0.257,0.641,0.633,0.783,1.131l-1.424,0.261c-0.063-0.221-0.179-0.388-0.349-0.506c-0.17-0.119-0.411-0.182-0.728-0.182
				c-0.399,0-0.684,0.059-0.854,0.17c-0.115,0.075-0.174,0.178-0.174,0.305c0,0.11,0.051,0.197,0.15,0.276
				c0.134,0.099,0.609,0.241,1.412,0.424c0.803,0.186,1.368,0.407,1.685,0.676c0.32,0.261,0.475,0.641,0.475,1.119
				c0,0.526-0.218,0.974-0.656,1.349c-0.436,0.38-1.084,0.569-1.942,0.569c-0.775,0-1.392-0.158-1.843-0.475
				C48.426,94.688,48.129,94.261,47.987,93.715z"/>
			<path d="M54.113,93.715l1.515-0.229c0.067,0.293,0.198,0.515,0.396,0.673c0.198,0.15,0.475,0.226,0.827,0.226
				c0.392,0,0.684-0.071,0.882-0.218c0.134-0.095,0.201-0.229,0.201-0.399c0-0.115-0.039-0.21-0.106-0.289
				c-0.079-0.071-0.245-0.135-0.506-0.197c-1.223-0.27-1.994-0.515-2.322-0.736c-0.451-0.309-0.676-0.735-0.676-1.281
				c0-0.498,0.197-0.913,0.585-1.25c0.396-0.34,0.997-0.506,1.819-0.506c0.779,0,1.36,0.127,1.74,0.38
				c0.384,0.257,0.641,0.633,0.787,1.131l-1.424,0.261c-0.063-0.221-0.178-0.388-0.348-0.506c-0.171-0.119-0.416-0.182-0.729-0.182
				c-0.399,0-0.684,0.059-0.857,0.17c-0.111,0.075-0.171,0.178-0.171,0.305c0,0.11,0.052,0.197,0.15,0.276
				c0.139,0.099,0.605,0.241,1.412,0.424c0.803,0.186,1.368,0.407,1.685,0.676c0.316,0.261,0.475,0.641,0.475,1.119
				c0,0.526-0.221,0.974-0.656,1.349c-0.435,0.38-1.084,0.569-1.941,0.569c-0.779,0-1.393-0.158-1.848-0.475
				C54.553,94.688,54.252,94.261,54.113,93.715z"/>
			<path d="M67.375,95.345h-1.511v-5.695c-0.554,0.518-1.203,0.901-1.95,1.146v-1.368c0.392-0.131,0.822-0.372,1.281-0.735
				c0.467-0.36,0.783-0.783,0.953-1.262h1.227V95.345z"/>
		</g>
		<g>
			<path d="M50.882,68.213l-0.119-0.036c-0.209-0.067-21.298-6.973-24.232-35.192L26.329,4.521h49.134v0.396l-0.206,28.028
				c-2.931,28.259-24.043,35.164-24.256,35.231L50.882,68.213z M27.12,5.309l0.198,27.633c2.761,26.555,21.876,33.855,23.564,34.444
				c1.693-0.589,20.827-7.89,23.588-34.482l0.202-27.595H27.12z"/>
		</g>
		<g>
			<polygon points="37.415,30.439 44.277,11.388 38.392,11.388 33.131,34.896 43.953,28.437 41.595,46.449 39.653,45.224 
				41.445,52.596 45.476,46.169 43.272,46.711 48.094,23.996 			"/>
		</g>
		<g>
			<polygon points="67.754,37.321 61.759,33.05 61.759,31.917 64.44,30.777 61.846,29.87 61.846,28.508 71.116,21.598 
				59.982,21.598 62.257,15.827 57.258,18.507 58.895,13.733 52.35,17.781 52.393,20.688 56.079,20.688 56.482,21.962 
				54.849,24.732 58.986,24.688 64.551,27.185 55.802,28.644 57.574,29.641 57.938,30.732 56.621,31.597 57.756,32.14 
				57.985,33.459 54.896,33.231 56.348,38.547 52.302,36.141 52.124,40.958 53.714,44.093 53.939,39.279 62.209,48.184 
				59.053,39.162 59.71,38.504 62.075,39.552 60.576,37.142 60.576,35.776 			"/>
		</g>
	</g>
</g>
<g id="Layer_2">
	<g>
		<g>
			<path d="M21.274,77.257v-6.628h4.922v1.117h-3.58v1.472h3.328v1.117h-3.328v1.805h3.706v1.117H21.274z"/>
			<path d="M27.469,77.257v-6.628h1.305l2.714,4.428v-4.428h1.247v6.628H31.39l-2.674-4.325v4.325H27.469z"/>
			<path d="M36.686,77.257v-6.628h1.338v6.628H36.686z"/>
			<path d="M38.958,75.098l1.304-0.123c0.079,0.437,0.238,0.757,0.477,0.961c0.238,0.204,0.565,0.313,0.971,0.313
				c0.433,0,0.756-0.096,0.978-0.279c0.218-0.178,0.327-0.396,0.327-0.641c0-0.156-0.047-0.286-0.14-0.396
				c-0.092-0.115-0.252-0.211-0.48-0.293c-0.157-0.054-0.515-0.149-1.073-0.286c-0.719-0.177-1.223-0.395-1.513-0.66
				c-0.405-0.361-0.609-0.804-0.609-1.328c0-0.341,0.095-0.654,0.286-0.954c0.19-0.293,0.47-0.518,0.831-0.667
				c0.357-0.157,0.793-0.232,1.304-0.232c0.831,0,1.458,0.185,1.88,0.545c0.419,0.368,0.64,0.852,0.661,1.465l-1.338,0.062
				c-0.058-0.348-0.181-0.593-0.368-0.735c-0.19-0.15-0.47-0.226-0.848-0.226c-0.392,0-0.695,0.075-0.916,0.238
				c-0.143,0.103-0.211,0.239-0.211,0.409c0,0.156,0.068,0.293,0.197,0.402c0.17,0.143,0.579,0.293,1.233,0.442
				c0.651,0.156,1.131,0.313,1.444,0.483c0.313,0.164,0.555,0.389,0.732,0.675c0.177,0.279,0.266,0.634,0.266,1.056
				c0,0.375-0.106,0.735-0.317,1.063c-0.211,0.334-0.511,0.579-0.896,0.742c-0.385,0.164-0.868,0.246-1.44,0.246
				c-0.841,0-1.485-0.198-1.935-0.586C39.315,76.405,39.046,75.84,38.958,75.098z"/>
			<path d="M45.208,73.98c0-0.675,0.102-1.24,0.306-1.696c0.15-0.341,0.354-0.641,0.617-0.913c0.262-0.266,0.545-0.463,0.858-0.6
				c0.412-0.17,0.889-0.259,1.43-0.259c0.978,0,1.758,0.3,2.343,0.906c0.59,0.606,0.883,1.451,0.883,2.534
				c0,1.069-0.29,1.907-0.873,2.514c-0.585,0.606-1.362,0.906-2.336,0.906c-0.988,0-1.771-0.3-2.354-0.899
				C45.5,75.867,45.208,75.036,45.208,73.98z M46.591,73.939c0,0.749,0.173,1.321,0.518,1.71c0.347,0.388,0.79,0.579,1.321,0.579
				c0.538,0,0.974-0.191,1.315-0.579c0.344-0.382,0.514-0.961,0.514-1.73c0-0.756-0.167-1.328-0.5-1.703
				c-0.331-0.374-0.773-0.559-1.329-0.559c-0.548,0-0.994,0.191-1.332,0.565C46.757,72.604,46.591,73.177,46.591,73.939z"/>
			<path d="M58.235,77.257h-1.273v-4.789c-0.46,0.437-1.012,0.757-1.639,0.961v-1.151c0.331-0.109,0.691-0.313,1.08-0.62
				c0.392-0.3,0.657-0.653,0.801-1.056h1.031V77.257z"/>
			<path d="M62.882,77.257h-1.274v-4.789c-0.463,0.437-1.012,0.757-1.642,0.961v-1.151c0.33-0.109,0.695-0.313,1.08-0.62
				c0.392-0.3,0.657-0.653,0.804-1.056h1.032V77.257z"/>
			<path d="M69.091,72.25l-1.229,0.137c-0.031-0.253-0.109-0.443-0.235-0.565c-0.13-0.116-0.293-0.178-0.494-0.178
				c-0.269,0-0.497,0.123-0.681,0.361c-0.188,0.245-0.304,0.742-0.351,1.506c0.316-0.375,0.708-0.559,1.182-0.559
				c0.527,0,0.984,0.197,1.362,0.605c0.378,0.402,0.568,0.927,0.568,1.567c0,0.681-0.2,1.219-0.6,1.635
				c-0.395,0.408-0.909,0.613-1.532,0.613c-0.668,0-1.223-0.259-1.652-0.784c-0.433-0.518-0.646-1.369-0.646-2.554
				c0-1.22,0.225-2.099,0.674-2.63c0.45-0.538,1.036-0.804,1.754-0.804c0.501,0,0.92,0.137,1.247,0.423
				C68.787,71.304,69.002,71.712,69.091,72.25z M66.206,75.022c0,0.416,0.099,0.735,0.286,0.961c0.19,0.225,0.408,0.333,0.65,0.333
				c0.238,0,0.433-0.088,0.593-0.272c0.153-0.184,0.234-0.49,0.234-0.905c0-0.437-0.085-0.75-0.255-0.947
				c-0.171-0.204-0.378-0.307-0.634-0.307c-0.245,0-0.453,0.096-0.62,0.293C66.291,74.368,66.206,74.647,66.206,75.022z"/>
			<path d="M73.188,77.257h-1.27v-4.789c-0.464,0.437-1.012,0.757-1.643,0.961v-1.151c0.331-0.109,0.691-0.313,1.08-0.62
				c0.392-0.3,0.657-0.653,0.801-1.056h1.031V77.257z"/>
			<path d="M79.384,76.078v1.179h-4.455c0.048-0.442,0.19-0.865,0.436-1.267c0.238-0.402,0.716-0.927,1.431-1.588
				c0.568-0.538,0.92-0.898,1.053-1.09c0.174-0.259,0.262-0.524,0.262-0.776c0-0.286-0.078-0.504-0.228-0.654
				c-0.153-0.156-0.365-0.231-0.634-0.231c-0.266,0-0.474,0.082-0.634,0.245c-0.156,0.157-0.248,0.423-0.269,0.791l-1.268-0.123
				c0.075-0.702,0.311-1.206,0.709-1.506c0.398-0.307,0.898-0.456,1.495-0.456c0.65,0,1.168,0.17,1.543,0.524
				c0.374,0.354,0.559,0.797,0.559,1.321c0,0.293-0.055,0.579-0.16,0.852c-0.105,0.266-0.276,0.552-0.508,0.845
				c-0.156,0.198-0.433,0.484-0.834,0.845c-0.402,0.375-0.654,0.62-0.76,0.736c-0.109,0.122-0.194,0.238-0.263,0.354H79.384z"/>
		</g>
		<g>
			<path d="M8.641,88.381H7.184l-0.579-1.506H3.951l-0.548,1.506h-1.42l2.585-6.635h1.417L8.641,88.381z M6.175,85.758l-0.917-2.466
				l-0.896,2.466H6.175z"/>
			<path d="M12.323,88.381h-1.274v-4.796c-0.463,0.437-1.012,0.757-1.642,0.968v-1.158c0.331-0.103,0.695-0.313,1.08-0.613
				c0.392-0.307,0.657-0.66,0.804-1.063h1.032V88.381z"/>
			<path d="M22.729,88.381h-1.458l-0.579-1.506h-2.65l-0.548,1.506h-1.424l2.585-6.635h1.417L22.729,88.381z M20.262,85.758
				l-0.916-2.466l-0.896,2.466H20.262z"/>
			<path d="M27.452,87.195v1.186h-4.455c0.044-0.449,0.19-0.872,0.432-1.267c0.242-0.402,0.719-0.934,1.431-1.595
				c0.572-0.531,0.923-0.893,1.053-1.083c0.177-0.266,0.262-0.524,0.262-0.783c0-0.279-0.075-0.497-0.225-0.647
				c-0.153-0.156-0.364-0.231-0.633-0.231c-0.266,0-0.477,0.075-0.634,0.238c-0.156,0.164-0.249,0.43-0.272,0.797l-1.267-0.129
				c0.078-0.695,0.313-1.199,0.711-1.506c0.399-0.307,0.896-0.456,1.496-0.456c0.65,0,1.165,0.177,1.54,0.531
				c0.375,0.354,0.562,0.79,0.562,1.314c0,0.3-0.054,0.586-0.16,0.852c-0.109,0.272-0.279,0.552-0.511,0.852
				c-0.153,0.197-0.429,0.477-0.831,0.845s-0.654,0.613-0.763,0.735c-0.105,0.116-0.194,0.239-0.259,0.348H27.452z"/>
			<path d="M31.172,81.746h2.653c0.524,0,0.913,0.021,1.175,0.068c0.255,0.04,0.487,0.136,0.691,0.272
				c0.205,0.136,0.375,0.32,0.507,0.552c0.136,0.231,0.205,0.49,0.205,0.776c0,0.313-0.082,0.6-0.252,0.858
				c-0.167,0.259-0.395,0.456-0.681,0.579c0.405,0.122,0.715,0.32,0.933,0.605c0.218,0.279,0.327,0.613,0.327,1.002
				c0,0.3-0.072,0.593-0.211,0.879s-0.333,0.511-0.576,0.681c-0.242,0.171-0.542,0.272-0.899,0.313
				c-0.222,0.027-0.763,0.041-1.615,0.048h-2.258V81.746z M32.51,82.85v1.532h0.879c0.521,0,0.848-0.007,0.974-0.021
				c0.228-0.026,0.409-0.108,0.538-0.238c0.133-0.129,0.197-0.3,0.197-0.518c0-0.204-0.054-0.368-0.17-0.497
				c-0.113-0.13-0.279-0.211-0.504-0.238c-0.133-0.014-0.514-0.021-1.145-0.021H32.51z M32.51,85.485v1.778h1.24
				c0.484,0,0.79-0.014,0.919-0.041c0.201-0.034,0.361-0.122,0.487-0.266c0.123-0.143,0.188-0.327,0.188-0.565
				c0-0.197-0.048-0.368-0.143-0.504c-0.099-0.137-0.239-0.238-0.419-0.307c-0.184-0.062-0.579-0.096-1.189-0.096H32.51z"/>
			<path d="M41.874,87.195v1.186h-4.458c0.047-0.449,0.194-0.872,0.436-1.267c0.242-0.402,0.715-0.934,1.43-1.595
				c0.572-0.531,0.923-0.893,1.053-1.083c0.177-0.266,0.262-0.524,0.262-0.783c0-0.279-0.075-0.497-0.229-0.647
				c-0.15-0.156-0.364-0.231-0.63-0.231s-0.477,0.075-0.633,0.238c-0.157,0.164-0.249,0.43-0.273,0.797l-1.267-0.129
				c0.075-0.695,0.313-1.199,0.708-1.506c0.398-0.307,0.899-0.456,1.499-0.456c0.65,0,1.165,0.177,1.54,0.531
				c0.375,0.354,0.562,0.79,0.562,1.314c0,0.3-0.055,0.586-0.16,0.852c-0.109,0.272-0.279,0.552-0.511,0.852
				c-0.153,0.197-0.429,0.477-0.831,0.845c-0.402,0.368-0.654,0.613-0.763,0.735c-0.105,0.116-0.194,0.239-0.259,0.348H41.874z"/>
			<path d="M49.833,85.942l1.298,0.408c-0.198,0.729-0.528,1.268-0.991,1.614c-0.463,0.354-1.052,0.525-1.764,0.525
				c-0.879,0-1.604-0.3-2.173-0.899c-0.565-0.6-0.852-1.424-0.852-2.466c0-1.104,0.286-1.962,0.858-2.575
				c0.569-0.613,1.318-0.92,2.248-0.92c0.811,0,1.472,0.245,1.976,0.723c0.303,0.286,0.531,0.688,0.681,1.219l-1.328,0.32
				c-0.075-0.341-0.239-0.613-0.491-0.817c-0.245-0.197-0.548-0.293-0.906-0.293c-0.494,0-0.889,0.171-1.196,0.524
				c-0.307,0.354-0.459,0.927-0.459,1.717c0,0.838,0.149,1.438,0.453,1.792c0.3,0.354,0.691,0.531,1.175,0.531
				c0.357,0,0.664-0.109,0.919-0.334C49.537,86.78,49.721,86.426,49.833,85.942z"/>
			<path d="M54.496,88.381v-1.335h-2.718v-1.117l2.878-4.21h1.069v4.21h0.824v1.117h-0.824v1.335H54.496z M54.496,85.929V83.66
				l-1.526,2.269H54.496z"/>
			<path d="M60.007,81.746h2.445c0.556,0,0.975,0.041,1.264,0.129c0.392,0.109,0.722,0.313,1.001,0.606s0.487,0.654,0.634,1.076
				c0.144,0.423,0.215,0.947,0.215,1.567c0,0.545-0.064,1.021-0.201,1.41c-0.167,0.483-0.401,0.878-0.708,1.178
				c-0.235,0.226-0.549,0.402-0.943,0.524c-0.297,0.096-0.691,0.144-1.189,0.144h-2.517V81.746z M61.346,82.87v4.394h1.001
				c0.371,0,0.644-0.021,0.811-0.068c0.215-0.055,0.396-0.143,0.538-0.272c0.144-0.129,0.259-0.341,0.351-0.64
				c0.093-0.3,0.14-0.702,0.14-1.213c0-0.518-0.047-0.906-0.14-1.186c-0.092-0.272-0.218-0.49-0.378-0.641
				c-0.163-0.156-0.371-0.259-0.62-0.313c-0.187-0.041-0.555-0.062-1.104-0.062H61.346z"/>
			<path d="M66.376,86.616l1.229-0.143c0.041,0.313,0.146,0.552,0.32,0.715c0.17,0.171,0.382,0.252,0.623,0.252
				c0.263,0,0.483-0.102,0.664-0.3c0.178-0.197,0.27-0.47,0.27-0.804c0-0.32-0.089-0.579-0.259-0.763
				c-0.174-0.19-0.382-0.279-0.63-0.279c-0.16,0-0.358,0.027-0.583,0.096l0.14-1.036c0.344,0.007,0.606-0.067,0.787-0.225
				c0.184-0.156,0.272-0.367,0.272-0.633c0-0.226-0.064-0.402-0.197-0.532c-0.137-0.136-0.311-0.204-0.532-0.204
				c-0.218,0-0.405,0.082-0.555,0.231c-0.157,0.15-0.249,0.368-0.283,0.661l-1.171-0.204c0.081-0.396,0.204-0.716,0.367-0.961
				c0.167-0.238,0.396-0.429,0.691-0.565c0.293-0.136,0.62-0.204,0.988-0.204c0.623,0,1.124,0.197,1.502,0.6
				c0.31,0.327,0.463,0.694,0.463,1.104c0,0.579-0.316,1.042-0.953,1.396c0.381,0.075,0.685,0.259,0.912,0.545
				c0.229,0.279,0.345,0.627,0.345,1.028c0,0.579-0.215,1.076-0.641,1.485c-0.426,0.408-0.954,0.613-1.587,0.613
				c-0.6,0-1.101-0.171-1.495-0.519C66.669,87.632,66.44,87.182,66.376,86.616z"/>
			<path d="M74.431,88.381v-6.635h4.919v1.124h-3.58v1.472h3.331v1.116H75.77v1.806h3.709v1.117H74.431z"/>
			<path d="M80.286,86.616l1.229-0.143c0.041,0.313,0.146,0.552,0.32,0.715c0.17,0.171,0.381,0.252,0.623,0.252
				c0.263,0,0.483-0.102,0.664-0.3c0.178-0.197,0.27-0.47,0.27-0.804c0-0.32-0.085-0.579-0.259-0.763
				c-0.174-0.19-0.382-0.279-0.627-0.279c-0.164,0-0.361,0.027-0.586,0.096l0.14-1.036c0.344,0.007,0.606-0.067,0.79-0.225
				c0.181-0.156,0.27-0.367,0.27-0.633c0-0.226-0.065-0.402-0.198-0.532c-0.133-0.136-0.31-0.204-0.531-0.204
				c-0.218,0-0.405,0.082-0.555,0.231c-0.157,0.15-0.249,0.368-0.283,0.661l-1.171-0.204c0.081-0.396,0.204-0.716,0.371-0.961
				c0.163-0.238,0.392-0.429,0.685-0.565c0.296-0.136,0.623-0.204,0.991-0.204c0.623,0,1.124,0.197,1.502,0.6
				c0.31,0.327,0.467,0.694,0.467,1.104c0,0.579-0.32,1.042-0.957,1.396c0.381,0.075,0.685,0.259,0.912,0.545
				c0.229,0.279,0.344,0.627,0.344,1.028c0,0.579-0.214,1.076-0.64,1.485c-0.426,0.408-0.954,0.613-1.587,0.613
				c-0.6,0-1.101-0.171-1.496-0.519C80.579,87.632,80.351,87.182,80.286,86.616z"/>
			<path d="M88.352,88.381v-6.635h4.547v1.124H89.69v1.566h2.769v1.124H89.69v2.82H88.352z"/>
			<path d="M98.018,87.195v1.186H93.56c0.047-0.449,0.193-0.872,0.436-1.267c0.242-0.402,0.715-0.934,1.431-1.595
				c0.572-0.531,0.923-0.893,1.053-1.083c0.177-0.266,0.262-0.524,0.262-0.783c0-0.279-0.075-0.497-0.229-0.647
				c-0.153-0.156-0.364-0.231-0.63-0.231s-0.477,0.075-0.634,0.238c-0.156,0.164-0.248,0.43-0.272,0.797l-1.267-0.129
				c0.075-0.695,0.313-1.199,0.708-1.506c0.399-0.307,0.899-0.456,1.499-0.456c0.65,0,1.165,0.177,1.54,0.531
				c0.374,0.354,0.562,0.79,0.562,1.314c0,0.3-0.055,0.586-0.16,0.852c-0.109,0.272-0.279,0.552-0.511,0.852
				c-0.153,0.197-0.43,0.477-0.831,0.845c-0.402,0.368-0.654,0.613-0.763,0.735c-0.105,0.116-0.194,0.239-0.259,0.348H98.018z"/>
		</g>
		<g>
			<g>
				<path d="M48.44,55.315c0,0-7.868,0.17-8.368-6.694c-0.508-6.903-0.222-8.927-0.222-8.927s1.448,1.339,1.897,0.334
					c0,0,0.555-6.362,0.331-7.698c0,0,0.453-0.674,2.343,2.786c0,0,1.788-1.784,0.45-9.932c0,0,1.672-0.446,3.348,2.344
					c0,0,0.783,0.449,1.114-10.266c0,0,1.117,5.466,2.905,7.476c1.785,2.01,1.561,3.686,1.561,3.686s0.449,0,0.896-2.347
					c0,0,2.511,1.284,3.454,9.489c0,0,0.507-0.283,0.559-1.843c0.034-0.79,3.185,3.068,2.738,10.49c0,0,0.555,0.279,1.226-0.167
					c0,0,0,10.655-10.266,11.323c0,0,5.862-4.743,4.517-10.932c0,0-0.392,0.943-1.28,0.776c0,0,0.446-3.678-0.338-4.907
					c0,0-1.338,3.068-2.343,3.515c0,0,0.95-5.245-1.73-7.646c0,0-0.609,7.033-1.447,7.37c0,0-0.951-1.617-1.955-2.176
					c0,0-0.167,5.742,0.054,5.967c0,0-2.452-3.29-2.844-4.907c0,0-0.559,0.559-0.446,4.24c0,0-0.337,0-0.729-0.446
					c0,0-0.33,4.07,4.298,8.854L48.44,55.315z"/>
			</g>
			<g>
				<path d="M50.889,65.629l-0.099-0.034c-0.18-0.055-18.103-5.927-20.592-29.899L30.024,11.51h41.75v0.337l-0.177,23.814
					c-2.49,24.007-20.426,29.879-20.606,29.934L50.889,65.629z M30.698,12.181l0.167,23.478c2.347,22.58,18.59,28.765,20.024,29.263
					c1.437-0.505,17.698-6.703,20.041-29.297l0.17-23.443H30.698z M57.483,56.323H43.419v-0.667h14.064V56.323z"/>
			</g>
		</g>
	</g>
</g>
</svg>
