<?xml version="1.0" encoding="utf-8"?>
<!-- Generator: Adobe Illustrator 16.0.0, SVG Export Plug-In . SVG Version: 6.00 Build 0)  -->
<!DOCTYPE svg PUBLIC "-//W3C//DTD SVG 1.1//EN" "http://www.w3.org/Graphics/SVG/1.1/DTD/svg11.dtd">
<svg version="1.1" xmlns="http://www.w3.org/2000/svg" xmlns:xlink="http://www.w3.org/1999/xlink" x="0px" y="0px" width="100px"
	 height="100px" viewBox="0 0 100 100" enable-background="new 0 0 100 100" xml:space="preserve">
<g id="Layer_1" display="none">
	<g>
		<g display="inline">
			<path fill="#010101" d="M24.451,77.896v-7.461h5.967v1.263h-4.342v1.653h4.04v1.258h-4.04v2.03h4.496v1.257H24.451z"/>
			<path fill="#010101" d="M31.965,77.896v-7.461h1.581l3.293,4.982v-4.982h1.51v7.461h-1.63l-3.244-4.865v4.865H31.965z"/>
			<path fill="#010101" d="M46.797,77.896h-1.542v-5.39c-0.563,0.489-1.228,0.851-1.993,1.084v-1.298
				c0.402-0.122,0.84-0.354,1.312-0.694s0.796-0.738,0.972-1.193h1.251V77.896z"/>
			<path fill="#010101" d="M49.048,75.917l1.493-0.168c0.048,0.353,0.176,0.622,0.384,0.809c0.208,0.188,0.462,0.28,0.758,0.28
				c0.318,0,0.586-0.112,0.804-0.336s0.327-0.525,0.327-0.905c0-0.36-0.104-0.646-0.313-0.855c-0.208-0.21-0.463-0.315-0.763-0.315
				c-0.198,0-0.434,0.035-0.708,0.106l0.17-1.165c0.418,0.01,0.735-0.074,0.955-0.252s0.329-0.415,0.329-0.71
				c0-0.251-0.08-0.451-0.241-0.601s-0.375-0.224-0.643-0.224c-0.264,0-0.488,0.085-0.675,0.254c-0.187,0.17-0.3,0.418-0.34,0.743
				l-1.421-0.224c0.099-0.451,0.248-0.812,0.447-1.081c0.199-0.271,0.478-0.482,0.834-0.637c0.356-0.154,0.756-0.231,1.199-0.231
				c0.758,0,1.365,0.224,1.823,0.672c0.377,0.366,0.565,0.78,0.565,1.241c0,0.655-0.387,1.178-1.158,1.568
				c0.461,0.091,0.829,0.297,1.105,0.615c0.276,0.319,0.415,0.704,0.415,1.155c0,0.655-0.259,1.213-0.774,1.675
				c-0.516,0.461-1.158,0.691-1.927,0.691c-0.728,0-1.332-0.194-1.812-0.582C49.402,77.053,49.125,76.545,49.048,75.917z"/>
			<path fill="#010101" d="M57.962,70.405c0.779,0,1.389,0.258,1.828,0.773c0.522,0.611,0.784,1.624,0.784,3.038
				c0,1.412-0.263,2.426-0.79,3.044c-0.436,0.509-1.043,0.763-1.822,0.763c-0.783,0-1.414-0.278-1.894-0.837
				c-0.479-0.558-0.72-1.553-0.72-2.984c0-1.405,0.264-2.416,0.791-3.033C56.575,70.66,57.183,70.405,57.962,70.405z M57.962,71.591
				c-0.187,0-0.354,0.056-0.5,0.166c-0.146,0.11-0.26,0.308-0.34,0.593c-0.106,0.369-0.159,0.992-0.159,1.867
				c0,0.876,0.048,1.477,0.143,1.805c0.095,0.327,0.215,0.545,0.359,0.653c0.145,0.109,0.311,0.163,0.497,0.163
				s0.354-0.055,0.499-0.165c0.146-0.11,0.26-0.309,0.341-0.593c0.106-0.367,0.159-0.987,0.159-1.863
				c0-0.875-0.048-1.477-0.143-1.804c-0.096-0.327-0.215-0.546-0.359-0.656S58.148,71.591,57.962,71.591z"/>
			<path fill="#010101" d="M61.552,75.917l1.493-0.168c0.047,0.353,0.176,0.622,0.384,0.809c0.209,0.188,0.461,0.28,0.758,0.28
				c0.318,0,0.586-0.112,0.804-0.336s0.327-0.525,0.327-0.905c0-0.36-0.104-0.646-0.313-0.855c-0.208-0.21-0.463-0.315-0.763-0.315
				c-0.197,0-0.434,0.035-0.708,0.106l0.17-1.165c0.417,0.01,0.735-0.074,0.955-0.252s0.329-0.415,0.329-0.71
				c0-0.251-0.08-0.451-0.241-0.601s-0.375-0.224-0.642-0.224c-0.264,0-0.489,0.085-0.676,0.254c-0.187,0.17-0.3,0.418-0.34,0.743
				l-1.422-0.224c0.099-0.451,0.248-0.812,0.447-1.081c0.199-0.271,0.478-0.482,0.834-0.637c0.357-0.154,0.757-0.231,1.199-0.231
				c0.758,0,1.365,0.224,1.823,0.672c0.377,0.366,0.565,0.78,0.565,1.241c0,0.655-0.387,1.178-1.158,1.568
				c0.461,0.091,0.829,0.297,1.105,0.615c0.276,0.319,0.415,0.704,0.415,1.155c0,0.655-0.259,1.213-0.774,1.675
				c-0.516,0.461-1.158,0.691-1.927,0.691c-0.729,0-1.332-0.194-1.812-0.582C61.906,77.053,61.628,76.545,61.552,75.917z"/>
			<path fill="#010101" d="M70.883,77.896v-1.501H67.59v-1.252l3.49-4.738h1.296v4.733h0.999v1.257h-0.999v1.501H70.883z
				 M70.883,75.139v-2.55l-1.85,2.55H70.883z"/>
		</g>
		<g display="inline">
			<path fill="#010101" d="M33.875,90.403v-6.198h-2.388v-1.263h6.395v1.263h-2.382v6.198H33.875z"/>
			<path fill="#010101" d="M37.357,84.999h1.642l1.394,3.837l1.361-3.837h1.597L41.293,90.2l-0.368,0.941
				c-0.136,0.315-0.265,0.556-0.387,0.723c-0.123,0.166-0.264,0.301-0.423,0.404s-0.355,0.184-0.587,0.241s-0.495,0.087-0.788,0.087
				c-0.296,0-0.587-0.029-0.873-0.087l-0.137-1.119c0.241,0.044,0.459,0.066,0.653,0.066c0.358,0,0.624-0.098,0.796-0.293
				c0.172-0.195,0.304-0.443,0.395-0.745L37.357,84.999z"/>
			<path fill="#010101" d="M44.295,84.999h1.438v0.794c0.187-0.271,0.439-0.492,0.757-0.662s0.671-0.254,1.06-0.254
				c0.677,0,1.251,0.246,1.724,0.737c0.472,0.492,0.708,1.178,0.708,2.057c0,0.902-0.238,1.604-0.713,2.104
				c-0.476,0.501-1.052,0.751-1.729,0.751c-0.322,0-0.614-0.06-0.875-0.178c-0.262-0.119-0.537-0.322-0.826-0.611v2.723h-1.542
				V84.999z M45.821,87.609c0,0.607,0.13,1.056,0.39,1.346s0.576,0.436,0.95,0.436c0.358,0,0.657-0.133,0.895-0.399
				s0.357-0.703,0.357-1.311c0-0.566-0.123-0.987-0.368-1.262c-0.245-0.275-0.549-0.413-0.911-0.413
				c-0.377,0-0.69,0.136-0.939,0.405S45.821,87.08,45.821,87.609z"/>
			<path fill="#010101" d="M54.582,88.684l1.537,0.239c-0.197,0.522-0.51,0.92-0.936,1.193c-0.428,0.272-0.961,0.409-1.602,0.409
				c-1.014,0-1.764-0.307-2.25-0.921c-0.384-0.492-0.576-1.113-0.576-1.862c0-0.896,0.252-1.598,0.758-2.104
				c0.504-0.508,1.143-0.761,1.916-0.761c0.867,0,1.551,0.265,2.053,0.796c0.5,0.531,0.74,1.345,0.719,2.44h-3.865
				c0.012,0.424,0.137,0.754,0.373,0.99c0.238,0.235,0.535,0.354,0.891,0.354c0.24,0,0.443-0.062,0.609-0.184
				C54.373,89.151,54.498,88.955,54.582,88.684z M54.67,87.238c-0.012-0.414-0.127-0.729-0.346-0.944
				c-0.221-0.216-0.486-0.323-0.803-0.323c-0.336,0-0.613,0.113-0.834,0.341c-0.219,0.228-0.328,0.536-0.324,0.927H54.67z"/>
			<path fill="#010101" d="M65.478,84.77l-1.493,0.153c-0.036-0.285-0.132-0.496-0.285-0.632s-0.354-0.203-0.599-0.203
				c-0.325,0-0.601,0.136-0.826,0.407c-0.225,0.271-0.366,0.836-0.425,1.694c0.384-0.421,0.861-0.631,1.433-0.631
				c0.644,0,1.195,0.228,1.654,0.682c0.46,0.455,0.689,1.042,0.689,1.761c0,0.764-0.241,1.376-0.725,1.838
				c-0.483,0.461-1.104,0.691-1.861,0.691c-0.812,0-1.479-0.292-2.003-0.878c-0.523-0.585-0.785-1.544-0.785-2.878
				c0-1.367,0.272-2.353,0.818-2.956c0.545-0.604,1.253-0.906,2.124-0.906c0.611,0,1.117,0.159,1.518,0.476
				C65.112,83.705,65.368,84.166,65.478,84.77z M61.981,87.89c0,0.465,0.115,0.823,0.346,1.076s0.494,0.379,0.79,0.379
				c0.285,0,0.523-0.104,0.714-0.311s0.285-0.546,0.285-1.018c0-0.485-0.103-0.841-0.308-1.066s-0.461-0.338-0.769-0.338
				c-0.296,0-0.547,0.107-0.752,0.323C62.083,87.15,61.981,87.469,61.981,87.89z"/>
		</g>
		<path display="inline" fill="#010101" d="M58.722,50.214c-0.888,2.17-0.726,3.083-7.192,3.419
			c-6.482,0.334-6.482-0.081-6.482-0.081s-10.712,1.475-5.897-6.107l4.541-12.503h9.17L58.722,50.214z"/>
		<path display="inline" fill="none" stroke="#010101" stroke-width="0.64" stroke-linecap="round" stroke-miterlimit="3.864" d="
			M44.668,24.167c0,0,2.629,0.517,0.733,5.86c-1.343,4-4.419,12.416-5.861,16.377c-1.051,2.862-3.363,7.23,2.627,7.23h12.598
			c0,0,5.577,0.086,3.069-6.591c-2.159-5.7-5.066-11.293-6.991-17.038c-0.535-1.576-1.141-4.303,1.767-5.822"/>
		<path display="inline" fill="none" stroke="#010101" stroke-width="0.64" stroke-linecap="round" stroke-miterlimit="3.864" d="
			M56.914,13.53c1.343,0.786,2.162,1.032,3.076,1.051c3.342,0.059,2.147-1.684,4.333-2.478c0.842-0.303,2.147-0.123,4.113,1.427
			 M56.826,24.042c1.482,0.849,2.71,1.081,3.655,1.057c2.998-0.086,2.245-1.928,4.484-2.252c0.834-0.122,1.702-0.125,3.381,1.195
			 M49.454,21.369c0,0,2.875-3.005,6.67-0.834c1.643,0.949,2.85,1.158,4.158,1.063c3.473-0.25,2.677-2.121,4.98-2.573
			c0.837-0.163,2.059,0.13,3.814,1.511 M49.014,17.844c0,0,2.87-3.003,6.65-0.833c1.719,0.979,3.397,1.142,4.716,1.024
			c3.313-0.297,2.229-1.817,4.427-2.532c0.806-0.264,2.062,0.13,3.819,1.508"/>
		<path display="inline" fill="none" stroke="#010101" stroke-width="0.361" stroke-miterlimit="3.864" d="M48.623,64.423
			c0,0-21.668-6.28-24.695-33.311L23.723,4.327H73.55l-0.211,26.786C70.311,58.143,48.623,64.423,48.623,64.423z"/>
	</g>
	<g>
		<g display="inline">
			<path fill="#010101" d="M22.143,75.353v-7.066h5.239v1.195h-3.813v1.566h3.547v1.19h-3.547v1.924h3.948v1.19H22.143z"/>
			<path fill="#010101" d="M28.741,75.353v-7.066h1.389l2.892,4.719v-4.719h1.325v7.066h-1.432l-2.849-4.608v4.608H28.741z"/>
			<path fill="#010101" d="M42.889,70.017l-1.311,0.145c-0.032-0.27-0.116-0.469-0.251-0.598c-0.135-0.129-0.31-0.192-0.525-0.192
				c-0.286,0-0.528,0.128-0.725,0.385c-0.198,0.258-0.322,0.793-0.374,1.605c0.338-0.398,0.757-0.598,1.258-0.598
				c0.565,0,1.05,0.216,1.453,0.646c0.403,0.431,0.605,0.987,0.605,1.668c0,0.724-0.212,1.304-0.636,1.74
				c-0.424,0.438-0.969,0.655-1.634,0.655c-0.713,0-1.3-0.276-1.76-0.831c-0.459-0.555-0.689-1.463-0.689-2.726
				c0-1.295,0.239-2.229,0.718-2.801c0.479-0.572,1.101-0.858,1.865-0.858c0.537,0,0.981,0.15,1.333,0.451
				C42.568,69.009,42.792,69.444,42.889,70.017z M39.818,72.972c0,0.44,0.102,0.78,0.304,1.02c0.203,0.239,0.434,0.358,0.694,0.358
				c0.25,0,0.459-0.098,0.626-0.294c0.167-0.195,0.25-0.517,0.25-0.964c0-0.459-0.09-0.796-0.27-1.01
				c-0.18-0.214-0.405-0.32-0.675-0.32c-0.26,0-0.48,0.102-0.661,0.306C39.908,72.271,39.818,72.573,39.818,72.972z"/>
			<path fill="#010101" d="M47.256,75.353h-1.354v-5.104c-0.495,0.463-1.078,0.805-1.75,1.026v-1.229
				c0.354-0.116,0.738-0.335,1.152-0.658s0.699-0.7,0.853-1.131h1.099V75.353z"/>
			<path fill="#010101" d="M51.936,75.353v-1.422h-2.892v-1.186l3.066-4.488h1.138v4.483h0.877v1.19h-0.877v1.422H51.936z
				 M51.936,72.74v-2.415l-1.625,2.415H51.936z"/>
			<path fill="#010101" d="M55.932,71.54c-0.351-0.148-0.604-0.352-0.764-0.61c-0.159-0.258-0.239-0.542-0.239-0.851
				c0-0.526,0.185-0.962,0.552-1.306c0.368-0.344,0.892-0.517,1.569-0.517c0.672,0,1.193,0.173,1.564,0.517s0.557,0.779,0.557,1.306
				c0,0.328-0.085,0.619-0.256,0.875c-0.17,0.256-0.409,0.451-0.718,0.586c0.392,0.157,0.689,0.387,0.894,0.689
				c0.204,0.302,0.307,0.65,0.307,1.046c0,0.652-0.208,1.183-0.624,1.59c-0.417,0.408-0.97,0.612-1.661,0.612
				c-0.643,0-1.178-0.168-1.604-0.506c-0.505-0.398-0.757-0.944-0.757-1.639c0-0.383,0.095-0.733,0.284-1.054
				C55.225,71.96,55.523,71.713,55.932,71.54z M56.086,73.203c0,0.372,0.096,0.663,0.287,0.872c0.19,0.209,0.43,0.313,0.716,0.313
				c0.279,0,0.511-0.101,0.693-0.302c0.184-0.2,0.275-0.49,0.275-0.87c0-0.33-0.094-0.597-0.28-0.797
				c-0.186-0.201-0.422-0.302-0.708-0.302c-0.331,0-0.578,0.114-0.74,0.342C56.167,72.688,56.086,72.937,56.086,73.203z
				 M56.211,70.176c0,0.27,0.076,0.48,0.229,0.632c0.152,0.15,0.355,0.226,0.609,0.226c0.257,0,0.463-0.076,0.617-0.229
				s0.231-0.364,0.231-0.634c0-0.254-0.076-0.457-0.229-0.609c-0.152-0.153-0.354-0.229-0.604-0.229
				c-0.261,0-0.468,0.077-0.622,0.231S56.211,69.922,56.211,70.176z"/>
			<path fill="#010101" d="M64.835,74.095v1.258h-4.748c0.051-0.476,0.205-0.926,0.463-1.353c0.257-0.425,0.765-0.99,1.522-1.693
				c0.61-0.569,0.985-0.955,1.123-1.157c0.187-0.279,0.28-0.556,0.28-0.829c0-0.302-0.082-0.534-0.244-0.696
				s-0.386-0.244-0.672-0.244c-0.283,0-0.508,0.086-0.675,0.256c-0.167,0.171-0.264,0.453-0.289,0.849l-1.35-0.135
				c0.08-0.746,0.332-1.281,0.757-1.605c0.424-0.324,0.954-0.487,1.59-0.487c0.697,0,1.245,0.188,1.644,0.564
				s0.599,0.844,0.599,1.402c0,0.318-0.058,0.621-0.172,0.909c-0.114,0.287-0.295,0.589-0.542,0.903
				c-0.164,0.209-0.46,0.51-0.887,0.901c-0.428,0.393-0.698,0.652-0.813,0.781c-0.114,0.128-0.206,0.254-0.277,0.376H64.835z"/>
			<path fill="#010101" d="M65.886,73.468v-1.354h2.66v1.354H65.886z"/>
			<path fill="#010101" d="M72.503,75.353h-1.354v-5.104c-0.494,0.463-1.078,0.805-1.749,1.026v-1.229
				c0.354-0.116,0.737-0.335,1.151-0.658c0.415-0.323,0.699-0.7,0.854-1.131h1.099V75.353z"/>
			<path fill="#010101" d="M74.663,73.468v-1.354h2.66v1.354H74.663z"/>
			<path fill="#010101" d="M82.39,74.095v1.258h-4.748c0.051-0.476,0.205-0.926,0.463-1.353c0.257-0.425,0.765-0.99,1.522-1.693
				c0.61-0.569,0.985-0.955,1.123-1.157c0.187-0.279,0.28-0.556,0.28-0.829c0-0.302-0.082-0.534-0.244-0.696
				S80.4,69.38,80.114,69.38c-0.283,0-0.508,0.086-0.675,0.256c-0.167,0.171-0.264,0.453-0.289,0.849l-1.35-0.135
				c0.08-0.746,0.332-1.281,0.757-1.605c0.424-0.324,0.954-0.487,1.59-0.487c0.697,0,1.245,0.188,1.644,0.564
				s0.599,0.844,0.599,1.402c0,0.318-0.058,0.621-0.172,0.909c-0.114,0.287-0.295,0.589-0.542,0.903
				c-0.164,0.209-0.46,0.51-0.887,0.901c-0.428,0.393-0.698,0.652-0.813,0.781c-0.114,0.128-0.206,0.254-0.277,0.376H82.39z"/>
		</g>
		<g display="inline">
			<path fill="#010101" d="M40.109,84.601l1.383,0.438c-0.212,0.771-0.565,1.344-1.058,1.718c-0.493,0.375-1.119,0.562-1.877,0.562
				c-0.938,0-1.709-0.32-2.314-0.961c-0.604-0.642-0.906-1.518-0.906-2.63c0-1.176,0.303-2.089,0.911-2.74
				c0.607-0.65,1.406-0.976,2.396-0.976c0.864,0,1.566,0.255,2.106,0.766c0.321,0.303,0.563,0.736,0.723,1.302l-1.412,0.338
				c-0.083-0.366-0.258-0.656-0.523-0.868s-0.587-0.318-0.967-0.318c-0.523,0-0.949,0.188-1.275,0.564s-0.489,0.985-0.489,1.827
				c0,0.893,0.161,1.529,0.482,1.908c0.321,0.38,0.739,0.569,1.253,0.569c0.379,0,0.706-0.121,0.979-0.362
				C39.794,85.497,39.99,85.117,40.109,84.601z"/>
			<path fill="#010101" d="M42.707,87.198v-7.066h1.354v7.066H42.707z"/>
			<path fill="#010101" d="M46.462,83.641l-1.229-0.222c0.138-0.494,0.376-0.861,0.713-1.099c0.337-0.238,0.839-0.356,1.504-0.356
				c0.604,0,1.054,0.071,1.35,0.214c0.295,0.144,0.504,0.325,0.624,0.545c0.121,0.221,0.181,0.624,0.181,1.212l-0.015,1.581
				c0,0.45,0.021,0.782,0.065,0.996s0.125,0.442,0.244,0.687h-1.34c-0.035-0.09-0.079-0.224-0.13-0.4
				c-0.022-0.08-0.039-0.133-0.048-0.159c-0.231,0.226-0.479,0.395-0.742,0.507c-0.264,0.112-0.545,0.168-0.844,0.168
				c-0.527,0-0.942-0.143-1.246-0.429c-0.304-0.286-0.456-0.647-0.456-1.084c0-0.29,0.069-0.548,0.207-0.774
				s0.332-0.399,0.581-0.521c0.249-0.12,0.608-0.226,1.077-0.315c0.633-0.119,1.072-0.229,1.316-0.333v-0.135
				c0-0.26-0.064-0.445-0.193-0.557C47.953,83.056,47.71,83,47.354,83c-0.241,0-0.429,0.047-0.564,0.142
				C46.655,83.237,46.545,83.403,46.462,83.641z M48.274,84.74c-0.173,0.058-0.448,0.127-0.824,0.207s-0.622,0.159-0.737,0.236
				c-0.177,0.125-0.265,0.284-0.265,0.477c0,0.19,0.07,0.354,0.212,0.492c0.141,0.138,0.321,0.207,0.54,0.207
				c0.244,0,0.477-0.08,0.699-0.241c0.164-0.122,0.271-0.271,0.323-0.448c0.036-0.115,0.053-0.335,0.053-0.66V84.74z"/>
			<path fill="#010101" d="M50.463,85.737l1.359-0.207c0.058,0.264,0.175,0.464,0.352,0.601s0.424,0.204,0.742,0.204
				c0.351,0,0.614-0.063,0.791-0.192c0.118-0.09,0.178-0.21,0.178-0.361c0-0.103-0.032-0.188-0.096-0.256
				c-0.067-0.064-0.219-0.123-0.453-0.178c-1.093-0.241-1.785-0.462-2.078-0.661c-0.405-0.276-0.607-0.66-0.607-1.151
				c0-0.443,0.175-0.816,0.525-1.118c0.351-0.303,0.894-0.453,1.63-0.453c0.7,0,1.221,0.114,1.562,0.342
				c0.341,0.229,0.575,0.565,0.704,1.013l-1.277,0.236c-0.055-0.199-0.159-0.353-0.312-0.458c-0.152-0.106-0.37-0.159-0.653-0.159
				c-0.356,0-0.611,0.05-0.766,0.149c-0.104,0.07-0.154,0.162-0.154,0.274c0,0.097,0.045,0.179,0.135,0.246
				c0.122,0.09,0.544,0.217,1.266,0.381c0.721,0.164,1.225,0.364,1.511,0.603c0.282,0.241,0.424,0.576,0.424,1.007
				c0,0.47-0.195,0.873-0.588,1.21c-0.392,0.338-0.972,0.506-1.74,0.506c-0.697,0-1.249-0.141-1.655-0.424
				C50.854,86.607,50.588,86.223,50.463,85.737z"/>
			<path fill="#010101" d="M55.953,85.737l1.359-0.207c0.058,0.264,0.175,0.464,0.352,0.601s0.424,0.204,0.742,0.204
				c0.351,0,0.614-0.063,0.791-0.192c0.118-0.09,0.178-0.21,0.178-0.361c0-0.103-0.032-0.188-0.096-0.256
				c-0.067-0.064-0.219-0.123-0.453-0.178c-1.093-0.241-1.785-0.462-2.078-0.661c-0.404-0.276-0.607-0.66-0.607-1.151
				c0-0.443,0.176-0.816,0.525-1.118c0.351-0.303,0.894-0.453,1.63-0.453c0.7,0,1.221,0.114,1.562,0.342
				c0.341,0.229,0.575,0.565,0.704,1.013l-1.277,0.236c-0.055-0.199-0.159-0.353-0.312-0.458c-0.152-0.106-0.37-0.159-0.653-0.159
				c-0.356,0-0.611,0.05-0.766,0.149c-0.104,0.07-0.154,0.162-0.154,0.274c0,0.097,0.045,0.179,0.135,0.246
				c0.122,0.09,0.544,0.217,1.266,0.381c0.721,0.164,1.225,0.364,1.511,0.603c0.282,0.241,0.424,0.576,0.424,1.007
				c0,0.47-0.195,0.873-0.588,1.21c-0.392,0.338-0.972,0.506-1.74,0.506c-0.697,0-1.249-0.141-1.655-0.424
				C56.344,86.607,56.078,86.223,55.953,85.737z"/>
			<path fill="#010101" d="M67.839,87.198h-1.354v-5.104c-0.494,0.463-1.078,0.805-1.749,1.026v-1.229
				c0.354-0.116,0.737-0.335,1.151-0.658c0.415-0.323,0.699-0.7,0.854-1.131h1.099V87.198z"/>
		</g>
		<path display="inline" fill="none" stroke="#010101" stroke-width="0.5" stroke-miterlimit="2.613" d="M52.155,29.774l8.58,11.391
			l8.579,11.393H52.155H34.999l8.581-11.393L52.155,29.774z M47.412,36.048H34.999l8.581-11.391l8.575-11.391l8.58,11.391
			l8.579,11.391H56.852 M26.015,5.808H78.3v57.051H26.015V5.808z"/>
	</g>
	<g display="inline">
		<g>
			<path fill="#010101" d="M18.496,80.259V72.85h5.495v1.251h-4v1.646h3.722v1.246h-3.722v2.019h4.14v1.247H18.496z"/>
			<path fill="#010101" d="M25.419,80.259V72.85h1.455l3.033,4.946V72.85h1.388v7.409h-1.501l-2.987-4.833v4.833H25.419z"/>
			<path fill="#010101" d="M35.709,80.259V72.85h1.496v7.409H35.709z"/>
			<path fill="#010101" d="M38.252,77.851l1.455-0.145c0.087,0.491,0.265,0.851,0.533,1.085c0.266,0.222,0.627,0.334,1.085,0.334
				c0.481,0,0.844-0.101,1.086-0.302c0.247-0.199,0.37-0.441,0.37-0.715c0-0.174-0.05-0.326-0.156-0.444
				c-0.102-0.131-0.281-0.234-0.539-0.326c-0.174-0.063-0.574-0.169-1.196-0.327c-0.806-0.195-1.364-0.44-1.691-0.729
				c-0.454-0.412-0.679-0.902-0.679-1.492c0-0.373,0.104-0.726,0.318-1.059c0.215-0.331,0.524-0.583,0.926-0.743
				c0.401-0.175,0.886-0.26,1.457-0.26c0.93,0,1.629,0.201,2.102,0.611c0.471,0.402,0.714,0.945,0.741,1.628l-1.496,0.067
				c-0.067-0.387-0.204-0.661-0.416-0.827c-0.207-0.157-0.521-0.243-0.943-0.243c-0.437,0-0.778,0.089-1.022,0.269
				c-0.16,0.112-0.239,0.269-0.239,0.457c0,0.176,0.076,0.33,0.222,0.449c0.192,0.162,0.648,0.327,1.378,0.499
				c0.725,0.173,1.262,0.351,1.612,0.533c0.348,0.182,0.62,0.434,0.821,0.747c0.194,0.322,0.296,0.71,0.296,1.186
				c0,0.427-0.119,0.818-0.354,1.188c-0.239,0.38-0.57,0.653-1.002,0.831c-0.432,0.182-0.968,0.271-1.613,0.271
				c-0.937,0-1.66-0.22-2.159-0.653C38.65,79.305,38.348,78.676,38.252,77.851z"/>
			<path fill="#010101" d="M45.229,76.605c0-0.76,0.115-1.391,0.341-1.904c0.168-0.375,0.398-0.715,0.691-1.021
				c0.293-0.297,0.611-0.514,0.959-0.661c0.458-0.194,0.991-0.29,1.595-0.29c1.093,0,1.967,0.331,2.618,1.01
				c0.659,0.682,0.993,1.627,0.993,2.825c0,1.2-0.33,2.139-0.986,2.807c-0.647,0.681-1.518,1.02-2.602,1.02
				c-1.106,0-1.978-0.337-2.629-1.012C45.558,78.709,45.229,77.78,45.229,76.605z M46.776,76.549c0,0.846,0.192,1.479,0.579,1.911
				c0.389,0.434,0.881,0.647,1.473,0.647c0.601,0,1.089-0.21,1.473-0.644c0.384-0.43,0.572-1.069,0.572-1.933
				c0-0.853-0.185-1.483-0.56-1.904c-0.37-0.419-0.867-0.626-1.485-0.626c-0.615,0-1.11,0.218-1.491,0.633
				C46.963,75.061,46.776,75.694,46.776,76.549z"/>
			<path fill="#010101" d="M59.779,80.259h-1.418v-5.354c-0.519,0.489-1.134,0.849-1.837,1.083v-1.292
				c0.37-0.117,0.778-0.35,1.212-0.69c0.437-0.341,0.729-0.73,0.892-1.181h1.151V80.259z"/>
			<path fill="#010101" d="M64.967,80.259h-1.418v-5.354c-0.519,0.489-1.133,0.849-1.837,1.083v-1.292
				c0.38-0.117,0.778-0.35,1.212-0.69c0.437-0.341,0.729-0.73,0.892-1.181h1.151V80.259z"/>
			<path fill="#010101" d="M71.907,74.669l-1.369,0.145c-0.042-0.281-0.127-0.485-0.263-0.626c-0.146-0.13-0.33-0.199-0.561-0.199
				c-0.296,0-0.552,0.131-0.754,0.408c-0.213,0.269-0.338,0.827-0.397,1.683c0.354-0.421,0.796-0.625,1.321-0.625
				c0.594,0,1.104,0.219,1.527,0.669c0.417,0.451,0.633,1.037,0.633,1.751c0,0.761-0.227,1.371-0.671,1.826s-1.01,0.689-1.706,0.689
				c-0.753,0-1.371-0.298-1.848-0.874c-0.486-0.582-0.719-1.538-0.719-2.861c0-1.353,0.243-2.332,0.747-2.934
				c0.505-0.601,1.151-0.896,1.955-0.896c0.567,0,1.03,0.15,1.396,0.47C71.565,73.611,71.808,74.068,71.907,74.669z M68.69,77.764
				c0,0.461,0.106,0.816,0.313,1.07c0.22,0.252,0.455,0.373,0.734,0.373c0.264,0,0.477-0.104,0.654-0.305
				c0.175-0.2,0.264-0.542,0.264-1.016c0-0.479-0.097-0.83-0.281-1.057c-0.188-0.221-0.427-0.34-0.707-0.34
				c-0.274,0-0.508,0.115-0.696,0.325C68.786,77.035,68.69,77.345,68.69,77.764z"/>
			<path fill="#010101" d="M76.483,80.259h-1.421v-5.354c-0.52,0.489-1.13,0.849-1.834,1.083v-1.292
				c0.376-0.117,0.774-0.35,1.208-0.69c0.438-0.341,0.732-0.73,0.896-1.181h1.151V80.259z"/>
			<path fill="#010101" d="M83.405,78.938v1.32h-4.981c0.057-0.493,0.22-0.972,0.49-1.418c0.27-0.444,0.799-1.041,1.596-1.773
				c0.636-0.601,1.033-0.999,1.183-1.215c0.195-0.292,0.291-0.578,0.291-0.87c0-0.312-0.085-0.559-0.256-0.729
				c-0.17-0.17-0.411-0.256-0.707-0.256c-0.291,0-0.529,0.089-0.707,0.267c-0.174,0.18-0.273,0.483-0.309,0.889l-1.414-0.136
				c0.085-0.781,0.348-1.35,0.792-1.69c0.444-0.331,1.009-0.502,1.67-0.502c0.739,0,1.308,0.194,1.727,0.584
				c0.423,0.399,0.626,0.885,0.626,1.475c0,0.333-0.063,0.656-0.178,0.952c-0.117,0.299-0.306,0.618-0.565,0.952
				c-0.171,0.213-0.486,0.532-0.935,0.937c-0.447,0.414-0.729,0.688-0.852,0.825c-0.118,0.129-0.214,0.267-0.288,0.39H83.405z"/>
		</g>
		<g>
			<path fill="#010101" d="M12.435,92.688h-1.629l-0.648-1.692H7.199l-0.613,1.692H5l2.889-7.419H9.47L12.435,92.688z M9.678,89.75
				l-1.02-2.747L7.656,89.75H9.678z"/>
			<path fill="#010101" d="M16.552,92.688h-1.425v-5.354c-0.514,0.48-1.126,0.839-1.83,1.073v-1.291
				c0.368-0.118,0.771-0.351,1.205-0.691c0.437-0.331,0.735-0.73,0.899-1.18h1.151V92.688z"/>
			<path fill="#010101" d="M28.171,92.688h-1.629l-0.648-1.692h-2.958l-0.613,1.692h-1.586l2.889-7.419h1.581L28.171,92.688z
				 M25.419,89.75l-1.025-2.747l-0.997,2.747H25.419z"/>
			<path fill="#010101" d="M33.448,91.368v1.319h-4.977c0.052-0.502,0.215-0.972,0.485-1.418c0.268-0.454,0.799-1.041,1.601-1.783
				c0.636-0.59,1.029-0.998,1.173-1.205c0.199-0.301,0.295-0.588,0.295-0.87c0-0.321-0.085-0.568-0.256-0.738
				c-0.17-0.171-0.405-0.256-0.706-0.256c-0.298,0-0.531,0.089-0.707,0.267c-0.176,0.18-0.275,0.482-0.304,0.897l-1.415-0.145
				c0.085-0.782,0.348-1.34,0.792-1.682c0.444-0.341,1.004-0.511,1.67-0.511c0.732,0,1.306,0.193,1.722,0.593
				c0.421,0.39,0.626,0.885,0.626,1.465c0,0.334-0.059,0.656-0.18,0.952c-0.116,0.309-0.309,0.618-0.568,0.952
				c-0.172,0.224-0.481,0.533-0.93,0.946c-0.448,0.414-0.729,0.688-0.849,0.816c-0.121,0.138-0.217,0.267-0.293,0.399H33.448z"/>
			<path fill="#010101" d="M37.605,85.269h2.96c0.589,0,1.026,0.032,1.313,0.075c0.289,0.055,0.548,0.156,0.774,0.312
				c0.228,0.146,0.416,0.359,0.568,0.619c0.151,0.259,0.228,0.544,0.228,0.868c0,0.337-0.092,0.66-0.279,0.948
				c-0.189,0.296-0.445,0.508-0.764,0.656c0.45,0.127,0.798,0.355,1.043,0.665c0.24,0.321,0.362,0.693,0.362,1.121
				c0,0.339-0.08,0.669-0.233,0.982c-0.16,0.319-0.375,0.575-0.645,0.764c-0.27,0.19-0.606,0.314-1.004,0.352
				c-0.245,0.025-0.849,0.05-1.805,0.057h-2.519V85.269z M39.101,86.502v1.72h0.979c0.586,0,0.949-0.008,1.089-0.021
				c0.255-0.039,0.455-0.128,0.604-0.267c0.146-0.149,0.22-0.341,0.22-0.583c0-0.233-0.065-0.419-0.193-0.555
				c-0.121-0.146-0.313-0.233-0.56-0.261c-0.151-0.026-0.574-0.033-1.277-0.033H39.101z M39.101,89.454v1.977h1.388
				c0.538,0,0.881-0.015,1.025-0.04c0.222-0.045,0.402-0.145,0.541-0.291c0.139-0.16,0.211-0.376,0.211-0.639
				c0-0.218-0.054-0.406-0.164-0.563c-0.105-0.156-0.263-0.267-0.464-0.341c-0.206-0.071-0.648-0.104-1.332-0.104H39.101z"/>
			<path fill="#010101" d="M48.398,92.688h-1.425v-5.354c-0.519,0.48-1.131,0.839-1.835,1.073v-1.291
				c0.373-0.118,0.776-0.351,1.209-0.691c0.437-0.331,0.735-0.73,0.894-1.18h1.156V92.688z"/>
			<path fill="#010101" d="M58.45,89.962l1.453,0.459c-0.228,0.807-0.594,1.407-1.112,1.795c-0.519,0.399-1.169,0.593-1.965,0.593
				c-0.991,0-1.798-0.337-2.431-1.002c-0.633-0.679-0.952-1.592-0.952-2.764c0-1.233,0.323-2.192,0.956-2.868
				c0.636-0.686,1.478-1.027,2.519-1.027c0.903,0,1.636,0.267,2.207,0.804c0.338,0.319,0.593,0.772,0.75,1.367l-1.472,0.355
				c-0.089-0.391-0.279-0.689-0.557-0.916c-0.274-0.217-0.615-0.338-1.007-0.338c-0.547,0-1.001,0.206-1.336,0.596
				c-0.341,0.399-0.515,1.035-0.515,1.917c0,0.94,0.17,1.603,0.498,2.004c0.341,0.393,0.777,0.6,1.314,0.6
				c0.404,0,0.746-0.133,1.03-0.387S58.329,90.503,58.45,89.962z"/>
			<path fill="#010101" d="M64.505,92.688h-1.418v-5.354c-0.519,0.48-1.133,0.839-1.837,1.073v-1.291
				c0.37-0.118,0.778-0.351,1.212-0.691c0.437-0.331,0.729-0.73,0.892-1.18h1.151V92.688z"/>
			<path fill="#010101" d="M69.824,92.688v-7.419h5.49v1.261H71.32v1.638h3.717v1.245H71.32v2.019h4.14v1.257H69.824z"/>
			<path fill="#010101" d="M80.047,92.688h-1.421v-5.354c-0.519,0.48-1.13,0.839-1.834,1.073v-1.291
				c0.366-0.118,0.774-0.351,1.208-0.691c0.438-0.331,0.732-0.73,0.896-1.18h1.151V92.688z"/>
			<path fill="#010101" d="M85.363,92.688v-7.419h5.081v1.261h-3.585v1.756h3.102v1.251h-3.102v3.151H85.363z"/>
			<path fill="#010101" d="M95,92.688h-1.418v-5.354c-0.519,0.48-1.134,0.839-1.837,1.073v-1.291
				c0.369-0.118,0.777-0.351,1.211-0.691c0.438-0.331,0.729-0.73,0.893-1.18H95V92.688z"/>
		</g>
		<path fill="#010101" d="M48.084,55.744c0,0-8.788,0.196-9.348-7.473c-0.565-7.716-0.249-9.974-0.249-9.974s1.619,1.496,2.12,0.374
			c0,0,0.62-7.11,0.373-8.596c0,0,0.501-0.758,2.615,3.11c0,0,2-1.992,0.502-11.094c0,0,1.868-0.496,3.742,2.622
			c0,0,0.874,0.496,1.242-11.468c0,0,1.25,6.106,3.242,8.35c1.997,2.244,1.745,4.113,1.745,4.113s0.504,0,1.005-2.617
			c0,0,2.804,1.432,3.858,10.598c0,0,0.563-0.316,0.626-2.059c0.032-0.881,3.554,3.427,3.06,11.72c0,0,0.618,0.309,1.364-0.191
			c0,0,0,11.91-11.463,12.649c0,0,6.542-5.292,5.039-12.212c0,0-0.438,1.057-1.426,0.872c0,0,0.491-4.116-0.387-5.486
			c0,0-1.496,3.427-2.608,3.931c0,0,1.059-5.863-1.931-8.543c0,0-0.686,7.854-1.618,8.231c0,0-1.067-1.812-2.186-2.432
			c0,0-0.185,6.416,0.057,6.668c0,0-2.738-3.678-3.175-5.485c0,0-0.624,0.624-0.496,4.737c0,0-0.38,0-0.817-0.494
			c0,0-0.368,4.545,4.801,9.884L48.084,55.744z"/>
		<path fill="none" stroke="#010101" stroke-width="0.361" stroke-miterlimit="3.864" d="M42.475,56.501h15.708 M50.82,66.877
			c0,0-19.952-6.236-22.743-33.085L27.889,7.191h45.877l-0.192,26.601C70.794,60.641,50.82,66.877,50.82,66.877z"/>
	</g>
</g>
<g id="Layer_2" display="none">
	<g display="inline">
		<g>
			<path fill="#010101" d="M17.5,81.135v-7.617h5.656v1.272h-4.117v1.71h3.829v1.271h-3.829v2.086h4.256v1.277H17.5z"/>
			<path fill="#010101" d="M24.625,81.135v-7.617h1.492l3.119,5.078v-5.078h1.433v7.617h-1.541l-3.074-4.966v4.966H24.625z"/>
			<path fill="#010101" d="M39.888,75.372l-1.422,0.169c-0.034-0.309-0.124-0.504-0.264-0.649c-0.151-0.146-0.342-0.216-0.566-0.216
				c-0.315,0-0.569,0.145-0.791,0.43c-0.211,0.26-0.347,0.842-0.4,1.715c0.368-0.425,0.814-0.637,1.355-0.637
				c0.612,0,1.139,0.236,1.572,0.699c0.43,0.457,0.647,1.068,0.647,1.793c0,0.786-0.223,1.411-0.681,1.889
				c-0.462,0.457-1.046,0.697-1.764,0.697c-0.765,0-1.399-0.303-1.902-0.889c-0.489-0.602-0.734-1.586-0.734-2.944
				c0-1.396,0.256-2.401,0.765-3.022c0.52-0.625,1.194-0.929,2.02-0.929c0.582,0,1.058,0.167,1.438,0.485
				C39.542,74.279,39.78,74.765,39.888,75.372z M36.569,78.564c0,0.477,0.117,0.851,0.331,1.111c0.22,0.254,0.468,0.381,0.743,0.381
				c0.278,0,0.503-0.118,0.684-0.318c0.173-0.209,0.264-0.57,0.264-1.041c0-0.492-0.095-0.863-0.285-1.092
				c-0.192-0.224-0.442-0.342-0.73-0.342c-0.285,0-0.517,0.112-0.711,0.317C36.668,77.815,36.569,78.144,36.569,78.564z"/>
			<path fill="#010101" d="M44.592,81.135h-1.463v-5.516c-0.53,0.502-1.158,0.883-1.879,1.119v-1.321
				c0.38-0.124,0.798-0.376,1.244-0.714c0.445-0.359,0.752-0.752,0.92-1.226h1.178V81.135z"/>
			<path fill="#010101" d="M49.641,81.135v-1.525h-3.117v-1.283l3.303-4.849h1.223v4.839H52v1.293h-0.95v1.525H49.641z
				 M49.641,78.316v-2.604l-1.751,2.604H49.641z"/>
			<path fill="#010101" d="M53.963,77.012c-0.377-0.144-0.661-0.378-0.823-0.639c-0.188-0.29-0.26-0.594-0.26-0.934
				c0-0.566,0.198-1.033,0.579-1.413c0.402-0.369,0.963-0.549,1.711-0.549c0.706,0,1.273,0.18,1.675,0.549
				c0.41,0.38,0.614,0.847,0.614,1.413c0,0.363-0.104,0.682-0.284,0.941c-0.183,0.283-0.442,0.502-0.782,0.631
				c0.432,0.188,0.748,0.436,0.972,0.76c0.222,0.316,0.337,0.697,0.337,1.127c0,0.705-0.241,1.28-0.688,1.717
				c-0.443,0.437-1.036,0.646-1.777,0.646c-0.697,0-1.27-0.182-1.737-0.538c-0.548-0.421-0.811-1.021-0.811-1.764
				c0-0.426,0.09-0.804,0.3-1.133C53.199,77.47,53.523,77.199,53.963,77.012z M54.118,78.812c0,0.414,0.103,0.724,0.307,0.938
				c0.213,0.242,0.473,0.349,0.776,0.349c0.294,0,0.543-0.106,0.743-0.327c0.2-0.223,0.308-0.541,0.308-0.936
				c0-0.367-0.11-0.649-0.313-0.875c-0.194-0.201-0.448-0.316-0.765-0.316c-0.351,0-0.622,0.127-0.79,0.381
				C54.217,78.267,54.118,78.533,54.118,78.812z M54.258,75.549c0,0.293,0.09,0.51,0.244,0.688c0.164,0.149,0.384,0.241,0.668,0.241
				c0.258,0,0.495-0.092,0.65-0.247c0.178-0.175,0.248-0.396,0.248-0.683c0-0.276-0.07-0.508-0.245-0.66
				c-0.152-0.164-0.381-0.245-0.649-0.245c-0.276,0-0.508,0.081-0.669,0.248C54.348,75.047,54.258,75.281,54.258,75.549z"/>
			<path fill="#010101" d="M63.553,79.78v1.354h-5.115c0.05-0.508,0.227-1.008,0.495-1.459c0.287-0.45,0.823-1.08,1.641-1.835
				c0.667-0.607,1.075-1.022,1.212-1.238c0.207-0.297,0.307-0.608,0.307-0.897c0-0.33-0.081-0.581-0.254-0.749
				c-0.189-0.169-0.43-0.266-0.733-0.266c-0.3,0-0.536,0.097-0.726,0.284c-0.191,0.183-0.286,0.483-0.318,0.898l-1.459-0.133
				c0.096-0.814,0.374-1.396,0.824-1.73c0.448-0.364,1.023-0.532,1.715-0.532c0.762,0,1.335,0.207,1.777,0.612
				c0.436,0.399,0.635,0.904,0.635,1.522c0,0.322-0.064,0.656-0.186,0.96c-0.121,0.311-0.319,0.638-0.576,0.989
				c-0.186,0.211-0.504,0.539-0.953,0.972c-0.461,0.421-0.762,0.697-0.889,0.83c-0.123,0.142-0.21,0.284-0.293,0.417H63.553z"/>
			<path fill="#010101" d="M64.695,79.104v-1.459h2.864v1.459H64.695z"/>
			<path fill="#010101" d="M71.832,81.135h-1.464v-5.516c-0.532,0.502-1.167,0.883-1.878,1.119v-1.321
				c0.38-0.124,0.783-0.376,1.229-0.714c0.452-0.359,0.752-0.752,0.937-1.226h1.177V81.135z"/>
			<path fill="#010101" d="M74.156,79.104v-1.459h2.877v1.459H74.156z"/>
			<path fill="#010101" d="M82.5,79.78v1.354h-5.112c0.05-0.508,0.205-1.008,0.496-1.459c0.269-0.45,0.822-1.08,1.64-1.835
				c0.66-0.607,1.053-1.022,1.213-1.238c0.207-0.297,0.294-0.608,0.294-0.897c0-0.33-0.085-0.581-0.266-0.749
				c-0.168-0.169-0.406-0.266-0.71-0.266c-0.316,0-0.564,0.097-0.741,0.284c-0.177,0.183-0.272,0.483-0.31,0.898L77.55,75.74
				c0.095-0.814,0.349-1.396,0.811-1.73c0.464-0.364,1.039-0.532,1.721-0.532c0.745,0,1.345,0.207,1.77,0.612
				c0.427,0.399,0.649,0.904,0.649,1.522c0,0.322-0.062,0.656-0.183,0.96c-0.121,0.311-0.318,0.638-0.591,0.989
				c-0.17,0.211-0.489,0.539-0.959,0.972c-0.457,0.421-0.749,0.697-0.87,0.83c-0.12,0.142-0.222,0.284-0.291,0.417H82.5z"/>
		</g>
		<g>
			<path fill="#010101" d="M40.209,93.911h-1.675l-0.666-1.731h-3.044l-0.628,1.731H32.56l2.975-7.63h1.627L40.209,93.911z
				 M37.382,90.909l-1.052-2.846l-1.036,2.846H37.382z"/>
			<path fill="#010101" d="M41.033,93.911v-7.63h2.469c0.929,0,1.541,0.058,1.826,0.123c0.435,0.124,0.807,0.371,1.102,0.755
				c0.288,0.384,0.444,0.873,0.444,1.468c0,0.479-0.095,0.878-0.254,1.199c-0.175,0.318-0.389,0.569-0.655,0.743
				c-0.266,0.18-0.523,0.297-0.801,0.354c-0.359,0.08-0.893,0.114-1.591,0.114h-1.008v2.874H41.033z M42.565,87.58v2.166h0.849
				c0.604,0,1.013-0.041,1.208-0.114c0.213-0.09,0.374-0.214,0.486-0.372c0.115-0.188,0.179-0.381,0.179-0.603
				c0-0.286-0.089-0.508-0.253-0.681c-0.16-0.176-0.365-0.303-0.613-0.347c-0.182-0.022-0.557-0.05-1.105-0.05H42.565z"/>
			<path fill="#010101" d="M53.016,91.102l1.483,0.488c-0.218,0.836-0.598,1.442-1.142,1.856c-0.533,0.388-1.207,0.595-2.023,0.595
				c-1.009,0-1.844-0.338-2.492-1.035c-0.658-0.699-0.984-1.644-0.984-2.839c0-1.269,0.33-2.24,0.984-2.946
				c0.66-0.705,1.523-1.069,2.586-1.069c0.938,0,1.694,0.284,2.281,0.829c0.332,0.328,0.595,0.807,0.766,1.404l-1.523,0.367
				c-0.08-0.381-0.266-0.697-0.568-0.937c-0.27-0.217-0.631-0.333-1.025-0.333c-0.571,0-1.026,0.191-1.379,0.603
				c-0.353,0.413-0.534,1.056-0.534,1.971c0,0.972,0.175,1.652,0.521,2.062c0.347,0.404,0.799,0.618,1.347,0.618
				c0.423,0,0.761-0.134,1.068-0.396C52.67,92.076,52.889,91.672,53.016,91.102z"/>
			<path fill="#010101" d="M55.49,89.672v-1.349h5.332v1.349H55.49z M55.49,91.99v-1.354h5.332v1.354H55.49z"/>
			<path fill="#010101" d="M65.457,93.911h-1.461v-5.502c-0.528,0.496-1.156,0.861-1.892,1.104v-1.332
				c0.381-0.127,0.813-0.354,1.257-0.699c0.445-0.354,0.753-0.762,0.908-1.214h1.188V93.911z"/>
		</g>
		<path fill="none" stroke="#010101" stroke-width="0.361" stroke-miterlimit="3.864" d="M49.851,67.361
			c0,0-20.529-6.412-23.394-34.04L26.256,5.959h47.199l-0.191,27.362C70.408,60.949,49.851,67.361,49.851,67.361z"/>
		<polygon fill="#010101" points="36.708,30.878 43.413,12.279 37.667,12.279 32.527,35.226 43.097,28.923 40.783,46.516 
			38.892,45.318 40.641,52.508 44.579,46.239 42.431,46.77 47.128,24.594 		"/>
		<polygon fill="#010101" points="66.346,37.605 60.479,33.428 60.479,32.324 63.103,31.21 60.568,30.325 60.568,28.994 
			69.619,22.245 58.738,22.245 60.956,16.612 56.08,19.229 57.683,14.564 51.301,18.521 51.337,21.356 54.92,21.356 55.328,22.599 
			53.726,25.306 57.775,25.26 58.162,26.688 54.666,29.132 56.387,30.102 56.76,31.163 55.464,32.011 56.57,32.54 56.795,33.829 
			53.777,33.607 55.192,38.796 51.238,36.448 51.064,41.154 52.633,44.208 52.838,39.511 60.922,48.207 57.84,39.4 58.475,38.75 
			60.786,39.777 59.319,37.42 59.319,36.089 		"/>
	</g>
</g>
<g id="Layer_3" display="none">
	<g display="inline">
		<path fill="#221F20" d="M23.999,37.805h-5.167c0.417-3.72,2.275-10.335,5.167-13.635V37.805z M23.999,66.316
			c1.446,0.831,3.512,3.098,4.958,4.129v-58.67c-15.912,10.95-17.978,31.401-11.571,44.626l4.544-1.85
			c-1.863-3.725-2.893-8.482-3.098-11.99h5.167V66.316z M43.619,32.435h4.96V4.746c-5.37,0.21-10.943,2.271-15.082,4.134v33.885
			h9.712v28.937c-1.447-0.209-2.895-0.63-4.337-1.257V47.72h-5.375v25.414c4.957,2.691,9.509,3.517,14.466,3.928V37.805h-8.881
			v-26.03c1.232-0.415,2.888-0.826,4.537-1.244V32.435z M59.324,11.36c1.453,0.617,2.685,0.827,4.139,1.859V7.435
			c-4.552-1.863-9.097-2.479-13.437-2.479v4.958c1.244,0,2.685,0,4.137,0.21V76.65c1.645-0.209,3.305-0.419,5.161-1.028V11.36z
			 M79.157,20.038l-4.132,9.917L64.903,8.052v65.699c1.862-0.814,3.72-1.854,5.378-3.095V33.263l4.956,11.776l4.749-12.193
			c2.27,8.681,1.042,19.428-4.961,26.653l3.513,3.517C87.637,51.248,89.075,34.085,79.157,20.038"/>
		<g>
			<path fill="#010101" d="M31.967,97.091v-9.602h6.584v1.626h-4.644v2.272h4.01v1.62h-4.01v4.083H31.967z"/>
			<path fill="#010101" d="M44.453,97.091h-1.845v-6.943c-0.671,0.631-1.462,1.102-2.374,1.401v-1.67
				c0.478-0.158,1.001-0.455,1.56-0.891c0.568-0.439,0.953-0.955,1.162-1.537h1.497V97.091z"/>
			<path fill="#010101" d="M47.23,94.624l1.835-0.191c0.049,0.414,0.207,0.749,0.457,0.983c0.261,0.248,0.563,0.362,0.895,0.362
				c0.385,0,0.711-0.155,0.976-0.461c0.263-0.32,0.403-0.789,0.403-1.417c0-0.591-0.139-1.028-0.4-1.323
				c-0.262-0.297-0.604-0.444-1.03-0.444c-0.527,0-1.005,0.235-1.424,0.702l-1.494-0.222l0.946-4.995h4.872v1.726H49.79l-0.29,1.632
				c0.409-0.211,0.835-0.309,1.257-0.309c0.829,0,1.514,0.3,2.083,0.885c0.567,0.602,0.854,1.371,0.854,2.313
				c0,0.793-0.236,1.501-0.701,2.117c-0.62,0.848-1.478,1.268-2.588,1.268c-0.893,0-1.621-0.233-2.177-0.712
				C47.671,96.062,47.338,95.421,47.23,94.624z"/>
			<path fill="#010101" d="M57.769,87.451c0.931,0,1.663,0.328,2.181,0.992c0.632,0.784,0.939,2.096,0.939,3.911
				c0,1.816-0.309,3.121-0.94,3.917c-0.52,0.661-1.249,0.979-2.18,0.979c-0.93,0-1.684-0.355-2.252-1.071
				c-0.574-0.714-0.86-2.001-0.86-3.843c0-1.803,0.308-3.113,0.937-3.9C56.115,87.779,56.846,87.451,57.769,87.451z M57.769,88.974
				c-0.213,0-0.422,0.074-0.591,0.216c-0.183,0.142-0.318,0.394-0.406,0.764c-0.128,0.471-0.198,1.274-0.198,2.401
				c0,1.129,0.07,1.905,0.177,2.33c0.104,0.419,0.252,0.695,0.431,0.838c0.166,0.142,0.375,0.209,0.588,0.209
				c0.222,0,0.422-0.067,0.598-0.209c0.176-0.15,0.316-0.402,0.406-0.765c0.121-0.478,0.191-1.274,0.191-2.403
				c0-1.127-0.062-1.895-0.169-2.321c-0.112-0.418-0.253-0.702-0.432-0.844C58.19,89.048,57.99,88.974,57.769,88.974z"/>
			<path fill="#010101" d="M68.361,89.841l-1.786,0.2c-0.039-0.371-0.154-0.643-0.338-0.818c-0.177-0.167-0.422-0.262-0.718-0.262
				c-0.382,0-0.718,0.178-0.985,0.529c-0.268,0.351-0.437,1.068-0.507,2.18c0.461-0.545,1.033-0.82,1.711-0.82
				c0.767,0,1.429,0.298,1.974,0.89c0.543,0.577,0.818,1.336,0.818,2.26c0,0.984-0.283,1.771-0.854,2.366
				c-0.581,0.594-1.325,0.885-2.229,0.885c-0.967,0-1.769-0.368-2.393-1.126c-0.621-0.752-0.929-1.989-0.929-3.702
				c0-1.761,0.322-3.029,0.976-3.806c0.644-0.782,1.487-1.165,2.538-1.165c0.72,0,1.331,0.206,1.807,0.611
				C67.921,88.469,68.232,89.066,68.361,89.841z M64.183,93.857c0,0.597,0.139,1.056,0.408,1.388c0.281,0.316,0.6,0.486,0.95,0.486
				c0.339,0,0.625-0.13,0.856-0.402c0.228-0.269,0.339-0.701,0.339-1.313c0-0.62-0.12-1.079-0.37-1.365
				c-0.239-0.288-0.548-0.438-0.918-0.438c-0.358,0-0.648,0.136-0.896,0.413C64.309,92.902,64.183,93.31,64.183,93.857z"/>
		</g>
	</g>
</g>
<g id="Layer_4">
	<g>
		<path fill="none" stroke="#010101" stroke-width="0.361" stroke-miterlimit="3.864" d="M40.854,16.345l9.787,15.017
			 M50.579,14.461c0,0-11.67,0.277-19.712,7.381c0,0,5.494,14.883-6.841,22.122v24.942h26.548 M50.574,54.158V30.825"/>
		<path fill="none" stroke="#010101" stroke-width="1.701" stroke-miterlimit="3.864" d="M23.77,54.161h27.081 M23.77,62.493h26.68"
			/>
		<path fill="none" stroke="#010101" stroke-width="0.361" stroke-miterlimit="3.864" d="M60.305,16.345l-9.788,15.017
			 M50.574,14.461c0,0,11.671,0.277,19.719,7.381c0,0-5.494,14.886,6.843,22.122v24.942H50.584"/>
		<path fill="none" stroke="#010101" stroke-width="1.701" stroke-miterlimit="3.864" d="M77.405,54.161H50.323 M77.405,62.493
			H50.444"/>
		
			<rect x="16.48" y="4.473" fill="none" stroke="#010101" stroke-width="0.361" stroke-miterlimit="3.864" width="68.192" height="74.414"/>
		<polygon fill="#010101" points="35.588,52.456 35.588,18.727 39.946,16.418 39.946,52.456 		"/>
		<polygon fill="#010101" points="61.03,52.456 61.03,16.418 65.391,18.469 65.391,52.456 		"/>
		<g>
			<path fill="#010101" d="M10,95.36v-9.217h6.835v1.56H11.86v2.045h4.628v1.551H11.86v2.508h5.151v1.554H10z"/>
			<path fill="#010101" d="M18.609,95.36v-9.217h1.809l3.773,6.158v-6.158h1.729v9.217h-1.868l-3.714-6.01v6.01H18.609z"/>
			<path fill="#010101" d="M31.409,95.36v-9.217h1.86v9.217H31.409z"/>
			<path fill="#010101" d="M34.573,92.366l1.812-0.178c0.107,0.605,0.328,1.053,0.664,1.339c0.331,0.282,0.782,0.425,1.347,0.425
				c0.599,0,1.051-0.124,1.354-0.379c0.306-0.253,0.457-0.551,0.457-0.888c0-0.223-0.064-0.403-0.191-0.557
				c-0.129-0.152-0.352-0.289-0.672-0.4c-0.218-0.075-0.715-0.207-1.489-0.402c-0.999-0.248-1.699-0.552-2.099-0.912
				c-0.567-0.508-0.849-1.126-0.849-1.856c0-0.471,0.131-0.906,0.397-1.317c0.266-0.406,0.653-0.719,1.153-0.933
				c0.5-0.212,1.103-0.322,1.812-0.322c1.158,0,2.027,0.255,2.613,0.766c0.583,0.506,0.892,1.181,0.921,2.029l-1.861,0.083
				c-0.079-0.473-0.251-0.816-0.512-1.021c-0.264-0.212-0.656-0.312-1.177-0.312c-0.543,0-0.967,0.107-1.274,0.331
				c-0.196,0.145-0.293,0.333-0.293,0.572c0,0.218,0.092,0.406,0.277,0.562c0.234,0.194,0.804,0.403,1.709,0.613
				c0.906,0.215,1.575,0.433,2.011,0.664c0.431,0.23,0.771,0.542,1.017,0.938c0.244,0.393,0.367,0.885,0.367,1.468
				c0,0.526-0.145,1.024-0.441,1.483c-0.293,0.463-0.708,0.802-1.244,1.029c-0.535,0.224-1.205,0.334-2.003,0.334
				c-1.169,0-2.064-0.267-2.688-0.804C35.067,94.179,34.693,93.397,34.573,92.366z"/>
			<path fill="#010101" d="M43.251,90.813c0-0.938,0.14-1.729,0.422-2.365c0.209-0.471,0.495-0.893,0.857-1.264
				c0.363-0.373,0.76-0.652,1.191-0.828c0.574-0.244,1.238-0.37,1.988-0.37c1.357,0,2.443,0.425,3.258,1.266
				c0.814,0.842,1.225,2.014,1.225,3.513c0,1.489-0.406,2.653-1.217,3.494c-0.808,0.842-1.891,1.259-3.243,1.259
				c-1.371,0-2.459-0.414-3.269-1.253C43.655,93.428,43.251,92.277,43.251,90.813z M45.171,90.745c0,1.046,0.239,1.839,0.72,2.376
				c0.484,0.538,1.097,0.809,1.836,0.809c0.745,0,1.354-0.269,1.828-0.803c0.476-0.532,0.712-1.336,0.712-2.403
				c0-1.059-0.231-1.847-0.693-2.365c-0.462-0.519-1.078-0.779-1.847-0.779c-0.764,0-1.382,0.266-1.852,0.79
				S45.171,89.687,45.171,90.745z"/>
			<path fill="#010101" d="M62.799,93.721v1.64h-6.192c0.069-0.621,0.269-1.204,0.607-1.761c0.333-0.557,0.994-1.295,1.983-2.212
				c0.796-0.739,1.285-1.244,1.467-1.505c0.243-0.368,0.366-0.727,0.366-1.086c0-0.396-0.107-0.696-0.317-0.906
				c-0.209-0.21-0.51-0.319-0.881-0.319c-0.366,0-0.656,0.115-0.882,0.336c-0.215,0.22-0.339,0.588-0.376,1.106l-1.759-0.177
				c0.103-0.976,0.431-1.672,0.984-2.094c0.554-0.425,1.247-0.635,2.08-0.635c0.909,0,1.624,0.247,2.14,0.731
				c0.521,0.494,0.779,1.103,0.779,1.833c0,0.416-0.075,0.812-0.22,1.186c-0.151,0.373-0.388,0.769-0.71,1.18
				c-0.21,0.269-0.597,0.661-1.156,1.177c-0.559,0.509-0.908,0.85-1.059,1.017c-0.15,0.166-0.269,0.328-0.36,0.489H62.799z"/>
			<path fill="#010101" d="M66.981,86.108c0.893,0,1.592,0.32,2.097,0.957c0.597,0.753,0.893,2.005,0.893,3.752
				c0,1.742-0.302,2.995-0.903,3.758c-0.5,0.629-1.193,0.941-2.086,0.941c-0.897,0-1.623-0.342-2.172-1.03
				c-0.548-0.693-0.822-1.921-0.822-3.688c0-1.736,0.301-2.986,0.903-3.747C65.391,86.423,66.089,86.108,66.981,86.108z
				 M66.981,87.571c-0.215,0-0.403,0.069-0.57,0.204c-0.172,0.14-0.301,0.384-0.392,0.733c-0.121,0.457-0.183,1.224-0.183,2.309
				c0,1.081,0.059,1.823,0.161,2.229c0.112,0.406,0.247,0.672,0.413,0.809c0.167,0.132,0.355,0.199,0.57,0.199
				s0.403-0.067,0.57-0.201c0.166-0.14,0.3-0.379,0.392-0.734c0.124-0.451,0.184-1.22,0.184-2.301c0-1.085-0.055-1.824-0.167-2.23
				c-0.107-0.406-0.247-0.672-0.414-0.812C67.383,87.641,67.196,87.571,66.981,87.571z"/>
			<path fill="#010101" d="M74.62,95.36v-1.854h-3.773v-1.543l3.999-5.854h1.484v5.847h1.14v1.551h-1.14v1.854H74.62z M74.62,91.955
				v-3.153l-2.123,3.153H74.62z"/>
			<path fill="#010101" d="M78.318,87.915v-1.643h6.037v1.279c-0.494,0.492-1.005,1.196-1.516,2.113
				c-0.521,0.92-0.914,1.895-1.183,2.93c-0.269,1.034-0.403,1.956-0.397,2.766h-1.705c0.027-1.271,0.291-2.572,0.791-3.897
				c0.494-1.325,1.161-2.511,1.989-3.548H78.318z"/>
			<path fill="#010101" d="M90,95.36h-1.769v-6.655c-0.645,0.603-1.403,1.049-2.279,1.336v-1.6c0.457-0.15,0.962-0.436,1.5-0.859
				c0.543-0.422,0.914-0.912,1.113-1.474H90V95.36z"/>
		</g>
	</g>
</g>
</svg>
