<?xml version="1.0" encoding="utf-8"?>
<!-- Generator: Adobe Illustrator 16.0.0, SVG Export Plug-In . SVG Version: 6.00 Build 0)  -->
<!DOCTYPE svg PUBLIC "-//W3C//DTD SVG 1.1//EN" "http://www.w3.org/Graphics/SVG/1.1/DTD/svg11.dtd">
<svg version="1.1" id="Layer_1" xmlns="http://www.w3.org/2000/svg" xmlns:xlink="http://www.w3.org/1999/xlink" x="0px" y="0px"
	 width="100px" height="100px" viewBox="0 0 100 100" enable-background="new 0 0 100 100" xml:space="preserve">
<g>
	<g>
		<path fill="#010101" d="M16.719,82.841V74.85h5.926v1.352h-4.313v1.772h4.012v1.346h-4.012v2.174h4.465v1.348H16.719z"/>
		<path fill="#010101" d="M24.182,82.841V74.85h1.57l3.271,5.335V74.85h1.5v7.991h-1.62l-3.22-5.212v5.212H24.182z"/>
		<path fill="#010101" d="M35.28,82.841V74.85h1.614v7.991H35.28z"/>
		<path fill="#010101" d="M38.023,80.241l1.57-0.153c0.093,0.525,0.285,0.914,0.575,1.161c0.288,0.246,0.678,0.37,1.169,0.37
			c0.519,0,0.911-0.109,1.175-0.329c0.264-0.22,0.395-0.478,0.395-0.772c0-0.189-0.054-0.348-0.166-0.481
			c-0.111-0.134-0.305-0.249-0.582-0.347c-0.188-0.065-0.62-0.181-1.292-0.349c-0.865-0.214-1.471-0.478-1.82-0.792
			c-0.491-0.438-0.735-0.975-0.735-1.606c0-0.408,0.114-0.787,0.345-1.143c0.231-0.354,0.564-0.624,0.999-0.81
			c0.434-0.185,0.957-0.278,1.572-0.278c1.003,0,1.758,0.221,2.266,0.66c0.506,0.44,0.772,1.027,0.798,1.76l-1.614,0.071
			c-0.07-0.409-0.218-0.705-0.445-0.885c-0.227-0.181-0.567-0.271-1.02-0.271c-0.472,0-0.838,0.096-1.104,0.29
			c-0.17,0.122-0.255,0.288-0.255,0.496c0,0.189,0.081,0.35,0.24,0.485c0.203,0.171,0.698,0.349,1.482,0.532
			c0.785,0.188,1.365,0.377,1.742,0.575c0.375,0.198,0.669,0.47,0.883,0.813c0.211,0.342,0.318,0.768,0.318,1.271
			c0,0.457-0.126,0.888-0.382,1.286c-0.255,0.401-0.615,0.697-1.08,0.892s-1.044,0.292-1.737,0.292c-1.012,0-1.788-0.233-2.329-0.7
			C38.453,81.815,38.128,81.135,38.023,80.241z"/>
		<path fill="#010101" d="M45.548,78.894c0-0.813,0.123-1.498,0.367-2.05c0.181-0.407,0.429-0.771,0.744-1.095
			c0.314-0.324,0.658-0.563,1.033-0.72c0.498-0.211,1.073-0.317,1.723-0.317c1.178,0,2.119,0.365,2.826,1.097
			c0.706,0.73,1.062,1.746,1.062,3.046c0,1.291-0.351,2.3-1.054,3.028c-0.702,0.729-1.64,1.093-2.812,1.093
			c-1.188,0-2.132-0.362-2.835-1.086C45.899,81.163,45.548,80.165,45.548,78.894z M47.212,78.839c0,0.905,0.209,1.592,0.626,2.059
			c0.418,0.467,0.95,0.7,1.591,0.7c0.645,0,1.173-0.231,1.585-0.696c0.412-0.462,0.617-1.157,0.617-2.084
			c0-0.916-0.201-1.599-0.602-2.05c-0.401-0.451-0.934-0.676-1.601-0.676c-0.663,0-1.199,0.229-1.607,0.685
			C47.415,77.232,47.212,77.919,47.212,78.839z"/>
		<path fill="#010101" d="M61.244,82.841h-1.531v-5.774c-0.56,0.523-1.22,0.911-1.979,1.162V76.84
			c0.399-0.131,0.835-0.38,1.303-0.745c0.471-0.365,0.791-0.792,0.965-1.278h1.242V82.841z"/>
		<path fill="#010101" d="M66.838,82.841h-1.533v-5.774c-0.559,0.523-1.219,0.911-1.978,1.162V76.84
			c0.399-0.131,0.836-0.38,1.302-0.745c0.471-0.365,0.792-0.792,0.966-1.278h1.243V82.841z"/>
		<path fill="#010101" d="M74.318,76.805l-1.482,0.166c-0.037-0.306-0.131-0.532-0.283-0.677c-0.152-0.146-0.351-0.218-0.596-0.218
			c-0.322,0-0.597,0.145-0.819,0.437c-0.225,0.29-0.364,0.895-0.424,1.814c0.382-0.452,0.857-0.676,1.425-0.676
			c0.639,0,1.186,0.243,1.642,0.729c0.455,0.486,0.685,1.117,0.685,1.887c0,0.817-0.239,1.475-0.72,1.967
			c-0.479,0.494-1.097,0.741-1.847,0.741c-0.807,0-1.472-0.312-1.991-0.94c-0.519-0.625-0.778-1.654-0.778-3.081
			c0-1.464,0.271-2.52,0.812-3.167c0.54-0.648,1.245-0.971,2.111-0.971c0.605,0,1.107,0.17,1.506,0.51
			C73.954,75.666,74.21,76.159,74.318,76.805z M70.846,80.147c0,0.497,0.115,0.884,0.342,1.153c0.231,0.27,0.493,0.406,0.785,0.406
			c0.284,0,0.521-0.111,0.711-0.332c0.188-0.222,0.283-0.587,0.283-1.09c0-0.521-0.103-0.901-0.306-1.143
			c-0.205-0.242-0.458-0.362-0.763-0.362c-0.297,0-0.545,0.113-0.748,0.344C70.948,79.355,70.846,79.696,70.846,80.147z"/>
		<path fill="#010101" d="M79.256,82.841h-1.533v-5.774c-0.559,0.523-1.22,0.911-1.979,1.162V76.84
			c0.399-0.131,0.836-0.38,1.303-0.745c0.471-0.365,0.791-0.792,0.966-1.278h1.243V82.841z"/>
		<path fill="#010101" d="M86.719,81.419v1.422h-5.368c0.057-0.539,0.231-1.047,0.523-1.529c0.289-0.481,0.863-1.121,1.723-1.916
			c0.688-0.644,1.111-1.079,1.269-1.309c0.212-0.316,0.316-0.628,0.316-0.938c0-0.343-0.092-0.604-0.274-0.788
			c-0.184-0.183-0.438-0.276-0.762-0.276c-0.32,0-0.573,0.099-0.763,0.29s-0.299,0.513-0.327,0.96l-1.526-0.153
			c0.092-0.844,0.375-1.447,0.854-1.816c0.48-0.365,1.082-0.549,1.802-0.549c0.787,0,1.406,0.213,1.857,0.637
			c0.451,0.428,0.676,0.955,0.676,1.587c0,0.36-0.065,0.702-0.194,1.027s-0.334,0.667-0.612,1.022
			c-0.186,0.235-0.519,0.575-1.003,1.021c-0.483,0.442-0.79,0.736-0.918,0.881c-0.129,0.146-0.233,0.288-0.314,0.428H86.719z"/>
	</g>
	<g>
		<path fill="#010101" d="M27.043,96.236h-1.757l-0.698-1.814h-3.192l-0.661,1.814h-1.711l3.114-7.991h1.705L27.043,96.236z
			 M24.071,93.075l-1.102-2.966l-1.079,2.966H24.071z"/>
		<path fill="#010101" d="M31.478,96.236h-1.533v-5.773c-0.558,0.523-1.219,0.911-1.978,1.162v-1.389
			c0.399-0.131,0.835-0.38,1.302-0.746c0.471-0.364,0.792-0.791,0.966-1.277h1.243V96.236z"/>
		<path fill="#010101" d="M37.212,88.245h3.194c0.632,0,1.104,0.026,1.416,0.079c0.309,0.052,0.588,0.163,0.833,0.328
			c0.247,0.169,0.452,0.391,0.613,0.67c0.166,0.277,0.246,0.589,0.246,0.936c0,0.373-0.1,0.718-0.303,1.029
			c-0.2,0.313-0.475,0.547-0.819,0.702c0.486,0.144,0.861,0.384,1.123,0.726c0.262,0.343,0.393,0.744,0.393,1.206
			c0,0.362-0.085,0.715-0.253,1.06c-0.17,0.343-0.401,0.617-0.693,0.822s-0.652,0.331-1.082,0.379
			c-0.268,0.029-0.917,0.049-1.947,0.055h-2.719V88.245z M38.826,89.576v1.846h1.058c0.627,0,1.02-0.008,1.173-0.026
			c0.274-0.032,0.493-0.128,0.649-0.285c0.16-0.159,0.238-0.366,0.238-0.626c0-0.246-0.067-0.446-0.205-0.602
			c-0.136-0.155-0.338-0.248-0.608-0.279c-0.16-0.02-0.62-0.027-1.378-0.027H38.826z M38.826,92.753v2.136h1.493
			c0.583,0,0.951-0.016,1.108-0.048c0.24-0.043,0.434-0.15,0.584-0.317c0.15-0.17,0.227-0.397,0.227-0.682
			c0-0.239-0.059-0.442-0.174-0.609c-0.116-0.166-0.283-0.288-0.504-0.364c-0.22-0.076-0.698-0.115-1.433-0.115H38.826z"/>
		<path fill="#010101" d="M48.852,96.236h-1.533v-5.773c-0.558,0.523-1.219,0.911-1.978,1.162v-1.389
			c0.399-0.131,0.835-0.38,1.302-0.746c0.471-0.364,0.792-0.791,0.966-1.277h1.243V96.236z"/>
		<path fill="#010101" d="M59.694,93.298l1.563,0.496c-0.239,0.873-0.639,1.521-1.196,1.943c-0.559,0.423-1.265,0.634-2.125,0.634
			c-1.06,0-1.931-0.361-2.616-1.085c-0.682-0.727-1.024-1.716-1.024-2.975c0-1.329,0.345-2.363,1.031-3.099
			c0.688-0.736,1.59-1.105,2.711-1.105c0.977,0,1.771,0.291,2.38,0.868c0.364,0.343,0.637,0.833,0.818,1.472l-1.598,0.382
			c-0.095-0.414-0.291-0.741-0.592-0.98c-0.298-0.24-0.662-0.36-1.092-0.36c-0.594,0-1.073,0.211-1.441,0.639
			c-0.369,0.423-0.554,1.112-0.554,2.065c0,1.009,0.181,1.729,0.545,2.158s0.835,0.644,1.417,0.644c0.43,0,0.799-0.135,1.105-0.41
			C59.338,94.313,59.56,93.884,59.694,93.298z"/>
		<path fill="#010101" d="M66.225,96.236h-1.532v-5.773c-0.559,0.523-1.22,0.911-1.978,1.162v-1.389
			c0.398-0.131,0.835-0.38,1.302-0.746c0.471-0.364,0.791-0.791,0.966-1.277h1.242V96.236z"/>
		<path fill="#010101" d="M71.966,96.236v-7.991h5.478v1.352h-3.864v1.892h3.337v1.352h-3.337v3.396H71.966z"/>
		<path fill="#010101" d="M82.354,96.236h-1.532v-5.773c-0.56,0.523-1.22,0.911-1.979,1.162v-1.389
			c0.399-0.131,0.836-0.38,1.303-0.746c0.471-0.364,0.791-0.791,0.965-1.277h1.243V96.236z"/>
	</g>
	<path fill="#010101" d="M48.618,56.405c0,0-9.476,0.202-10.082-8.065c-0.61-8.317-0.266-10.756-0.266-10.756
		s1.744,1.615,2.285,0.407c0,0,0.672-7.667,0.402-9.274c0,0,0.541-0.813,2.821,3.357c0,0,2.155-2.149,0.541-11.968
		c0,0,2.015-0.535,4.034,2.827c0,0,0.942,0.537,1.343-12.367c0,0,1.344,6.585,3.497,9.005c2.15,2.42,1.88,4.438,1.88,4.438
		s0.54,0,1.077-2.824c0,0,3.026,1.547,4.165,11.429c0,0,0.605-0.341,0.671-2.218c0.04-0.952,3.838,3.697,3.297,12.636
		c0,0,0.672,0.335,1.479-0.201c0,0,0,12.839-12.367,13.639c0,0,7.06-5.71,5.442-13.168c0,0-0.471,1.139-1.544,0.938
		c0,0,0.536-4.436-0.405-5.914c0,0-1.614,3.695-2.821,4.235c0,0,1.143-6.318-2.085-9.21c0,0-0.736,8.469-1.744,8.874
		c0,0-1.147-1.95-2.355-2.619c0,0-0.201,6.918,0.065,7.188c0,0-2.957-3.963-3.428-5.912c0,0-0.671,0.672-0.537,5.106
		c0,0-0.405,0-0.876-0.537c0,0-0.402,4.906,5.176,10.666L48.618,56.405z"/>
	<path fill="none" stroke="#010101" stroke-width="0.361" stroke-miterlimit="3.864" d="M42.565,57.212h16.942 M51.565,68.401
		c0,0-21.518-6.724-24.524-35.676L26.836,4.037h49.482l-0.21,28.689C73.103,61.678,51.565,68.401,51.565,68.401z"/>
</g>
<rect x="-984.84" y="-361" fill="none" width="1190.55" height="822.047"/>
</svg>
