<?xml version="1.0" encoding="utf-8"?>
<!-- Generator: Adobe Illustrator 16.0.0, SVG Export Plug-In . SVG Version: 6.00 Build 0)  -->
<!DOCTYPE svg PUBLIC "-//W3C//DTD SVG 1.1//EN" "http://www.w3.org/Graphics/SVG/1.1/DTD/svg11.dtd">
<svg version="1.1" id="Layer_1" xmlns="http://www.w3.org/2000/svg" xmlns:xlink="http://www.w3.org/1999/xlink" x="0px" y="0px"
	 width="100px" height="100px" viewBox="0 0 100 100" enable-background="new 0 0 100 100" xml:space="preserve">
<g id="Layer_1_1_" display="none">
	<g display="inline">
		<g>
			<path fill="#010101" d="M29.354,10.545c0,0-26.249,0-26.632,27.96c0,0,0,22.672,26.632,24.371v-9.444
				c0,0-18.694-0.186-17.748-18.891c0,0,0.746-13.221,17.748-14.355V10.545z"/>
			<path fill="#010101" d="M63.927,10.545c0,0-26.259,0-26.632,27.96c0,0,0,22.672,26.632,24.371v-9.444
				c0,0-18.702-0.186-17.758-18.891c0,0,0.759-13.221,17.758-14.355V10.545z"/>
			<rect x="44.469" y="31.895" fill="#010101" width="17.384" height="8.874"/>
		</g>
		<g>
			<path fill="#010101" d="M21.283,78.959c0-1.391-0.28-1.991-1.148-1.991c-0.961,0-1.202,0.962-1.202,3.673
				c0,2.887,0.401,3.406,1.229,3.406c0.681,0,1.202-0.347,1.202-2.418h1.923c0,2.071-0.507,3.834-3.032,3.834
				c-2.885,0-3.246-2.057-3.246-4.955s0.361-4.956,3.246-4.956c2.752,0,2.952,2.017,2.952,3.407H21.283z"/>
			<path fill="#010101" d="M26.009,75.739h2.377l2.525,9.536h-2.004l-0.44-2.017h-2.538l-0.441,2.017h-2.003L26.009,75.739z
				 M26.263,81.684h1.87l-0.921-4.287h-0.027L26.263,81.684z"/>
			<path fill="#010101" d="M36.438,75.739v1.575h-2.083v7.961h-1.923v-7.961h-2.083v-1.575H36.438z"/>
			<path fill="#010101" d="M40.561,85.275v-9.536h1.923v9.536H40.561z"/>
			<path fill="#010101" d="M44.006,85.275v-9.536h1.923v9.536H44.006z"/>
			<path fill="#010101" d="M47.451,85.275v-9.536h1.923v9.536H47.451z"/>
		</g>
		<g>
			<path fill="#010101" d="M76.372,41.472h-5.823c0-1.684,0.682-2.845,2.085-4.141l0.773-0.722c0.854-0.748,0.989-1.202,0.989-2.164
				c0-0.788-0.308-1.176-0.937-1.176c-0.948,0-1.067,0.842-1.067,1.844h-1.845v-0.361c0-1.763,0.909-2.738,2.938-2.738
				c1.91,0,2.832,0.935,2.832,2.578c0,1.229-0.4,2.043-1.469,3.005l-1.07,0.988c-0.573,0.521-0.881,1.029-0.975,1.389h3.565v1.498
				H76.372z"/>
			<path fill="#010101" d="M78.507,36.463v-0.027c-1.028-0.253-1.36-1.148-1.36-1.816c0-1.856,1.055-2.604,2.777-2.604
				s2.777,0.748,2.777,2.604c0,0.668-0.361,1.563-1.362,1.816v0.027c1.068,0.214,1.603,1.149,1.603,2.338
				c0,1.082-0.387,2.858-3.018,2.858c-2.632,0-3.02-1.776-3.02-2.858C76.904,37.612,77.438,36.677,78.507,36.463z M79.924,40.404
				c0.867,0,1.096-0.722,1.096-1.63c0-0.908-0.229-1.629-1.096-1.629c-0.869,0-1.097,0.722-1.097,1.629
				C78.827,39.682,79.055,40.404,79.924,40.404z M79.924,35.889c0.574,0,0.934-0.427,0.934-1.322c0-0.868-0.307-1.296-0.934-1.296
				c-0.628,0-0.938,0.428-0.938,1.296C78.986,35.461,79.35,35.889,79.924,35.889z"/>
			<path fill="#010101" d="M85.384,39.268c0,0.708,0.228,1.136,0.867,1.136c1.017,0,1.176-1.015,1.176-2.405v-0.454H87.4
				c-0.321,0.481-0.936,0.801-1.777,0.801c-1.669,0-2.311-1.242-2.311-2.952c0-2.178,0.936-3.379,3.059-3.379
				c2.632,0,2.979,2.11,2.979,4.421c0,2.685-0.064,5.223-3.178,5.223c-1.363,0-2.592-0.574-2.632-2.391H85.384z M86.277,36.931
				c0.762,0,1.056-0.508,1.056-1.79c0-1.082-0.16-1.87-1.056-1.87c-0.92,0-1.041,0.801-1.041,1.87
				C85.236,36.423,85.529,36.931,86.277,36.931z"/>
			<path fill="#010101" d="M95.212,33.698h-3.485l-0.201,2.15h0.025c0.361-0.495,0.922-0.708,1.736-0.708
				c1.816,0,2.311,1.523,2.311,3.019c0,2.084-0.613,3.5-3.031,3.5c-2.403,0-2.791-1.563-2.791-2.631v-0.254h1.844
				c0,0.628,0.107,1.55,0.936,1.55c0.788,0,1.121-0.615,1.121-1.843c0-1.563-0.254-2.003-1.107-2.003
				c-0.547,0-0.842,0.333-0.908,0.868h-1.725l0.349-5.143h4.93v1.495H95.212z"/>
		</g>
	</g>
</g>
<g id="Layer_2" display="none">
	<g display="inline">
		<path fill="#010101" d="M21.419,68.52v1.041h-2.253v1.484h2.121v1.042h-2.121v1.696h2.341v1.043h-3.613v-6.309h3.525V68.52z"/>
		<path fill="#010101" d="M23.612,68.52l1.538,4.318h0.018V68.52h1.166v6.308h-1.449L23.33,70.41h-0.018v4.417h-1.166V68.52H23.612z
			"/>
		<path fill="#010101" d="M29.401,74.826v-6.309h1.272v6.309H29.401z"/>
		<path fill="#010101" d="M32.645,72.855v0.187c0,0.592,0.167,0.972,0.839,0.972c0.389,0,0.76-0.248,0.76-0.777
			c0-0.564-0.283-0.795-1.131-1.077c-1.131-0.38-1.652-0.866-1.652-1.908c0-1.237,0.742-1.854,1.953-1.854
			c1.131,0,1.952,0.484,1.952,1.695v0.178h-1.219c0-0.602-0.194-0.938-0.689-0.938c-0.574,0-0.724,0.354-0.724,0.732
			c0,0.39,0.115,0.637,0.653,0.856l0.981,0.425c0.954,0.424,1.202,0.893,1.202,1.67c0,1.334-0.813,1.936-2.191,1.936
			c-1.44,0-2.005-0.672-2.005-1.838v-0.256h1.271V72.855z"/>
		<path fill="#010101" d="M38.221,68.395c1.908,0,2.147,1.36,2.147,3.277s-0.239,3.278-2.147,3.278
			c-1.908,0-2.147-1.361-2.147-3.278S36.313,68.395,38.221,68.395z M38.221,74.014c0.751,0,0.875-0.646,0.875-2.342
			c0-1.688-0.124-2.341-0.875-2.341s-0.875,0.653-0.875,2.341C37.346,73.368,37.47,74.014,38.221,74.014z"/>
		<path fill="#010101" d="M44.407,74.826v-4.417h-1.246v-0.831h0.115c0.839,0,1.334-0.309,1.467-1.008h0.937v6.256H44.407z"/>
		<path fill="#010101" d="M48.649,74.826v-4.417h-1.246v-0.831h0.115c0.839,0,1.334-0.309,1.467-1.008h0.937v6.256H48.649z"/>
		<path fill="#010101" d="M54.031,70.161c0-0.485-0.15-0.761-0.574-0.761c-0.672,0-0.777,0.673-0.777,1.592v0.309h0.019
			c0.213-0.326,0.618-0.539,1.176-0.539c1.104,0,1.526,0.822,1.526,1.953c0,1.439-0.616,2.235-2.022,2.235
			c-1.748,0-1.969-1.396-1.969-2.925c0-1.768,0.034-3.455,2.103-3.455c0.901,0,1.715,0.39,1.739,1.591H54.031z M53.439,74.119
			c0.608,0,0.688-0.53,0.688-1.236c0-0.849-0.194-1.185-0.688-1.185c-0.504,0-0.697,0.336-0.697,1.185
			C52.742,73.598,52.848,74.119,53.439,74.119z"/>
		<path fill="#010101" d="M57.135,74.826v-4.417h-1.246v-0.831h0.115c0.838,0,1.334-0.309,1.465-1.008h0.938v6.256H57.135z"/>
		<path fill="#010101" d="M63.779,74.826h-3.853c0-1.113,0.449-1.883,1.378-2.739l0.514-0.478c0.563-0.494,0.652-0.795,0.652-1.432
			c0-0.521-0.203-0.777-0.617-0.777c-0.627,0-0.707,0.558-0.707,1.221h-1.22v-0.239c0-1.166,0.601-1.812,1.943-1.812
			c1.264,0,1.873,0.619,1.873,1.705c0,0.813-0.267,1.353-0.974,1.988l-0.707,0.653c-0.379,0.345-0.582,0.681-0.645,0.919h2.359v0.99
			H63.779z"/>
		<path fill="#010101" d="M64.488,70.225h1.166v1.377h-1.166V70.225z M64.488,73.448h1.166v1.378h-1.166V73.448z"/>
		<path fill="#010101" d="M70.143,74.826h-3.852c0-1.113,0.449-1.883,1.377-2.739l0.514-0.478c0.564-0.494,0.652-0.795,0.652-1.432
			c0-0.521-0.203-0.777-0.617-0.777c-0.627,0-0.707,0.558-0.707,1.221h-1.219v-0.239c0-1.166,0.6-1.812,1.943-1.812
			c1.264,0,1.873,0.619,1.873,1.705c0,0.813-0.267,1.353-0.974,1.988l-0.707,0.653c-0.379,0.345-0.581,0.681-0.645,0.919h2.358v0.99
			H70.143z"/>
		<path fill="#010101" d="M72.494,68.57c1.52,0,1.961,0.822,1.961,3.039c0,1.731-0.098,3.341-1.961,3.341
			c-1.52,0-1.961-0.822-1.961-3.039C70.533,70.18,70.629,68.57,72.494,68.57z M71.805,72.186c0,1.58,0.15,1.935,0.689,1.935
			c0.557,0,0.689-0.494,0.689-2.103v-0.682c0-1.581-0.15-1.936-0.689-1.936c-0.557,0-0.689,0.496-0.689,2.104V72.186z"/>
		<path fill="#010101" d="M76.225,74.826v-4.417h-1.246v-0.831h0.115c0.838,0,1.334-0.309,1.465-1.008h0.938v6.256H76.225z"/>
		<path fill="#010101" d="M82.613,69.686h-2.307l-0.134,1.422h0.019c0.238-0.326,0.608-0.469,1.147-0.469
			c1.203,0,1.529,1.008,1.529,1.996c0,1.379-0.406,2.315-2.007,2.315c-1.59,0-1.846-1.034-1.846-1.741v-0.167h1.219
			c0,0.415,0.07,1.024,0.619,1.024c0.521,0,0.742-0.406,0.742-1.219c0-1.035-0.168-1.326-0.734-1.326
			c-0.36,0-0.557,0.222-0.602,0.574h-1.139l0.23-3.402h3.26v0.992H82.613z"/>
	</g>
	<g display="inline">
		<path fill="#010101" d="M25.309,79.124h1.572l1.67,6.308h-1.325l-0.292-1.334h-1.679l-0.292,1.334h-1.325L25.309,79.124z
			 M25.477,83.055h1.237l-0.61-2.836h-0.018L25.477,83.055z"/>
		<path fill="#010101" d="M30.161,85.432v-4.416h-1.246v-0.832h0.115c0.839,0,1.334-0.309,1.467-1.007h0.937v6.255H30.161z"/>
		<path fill="#010101" d="M36.586,79.124h1.572l1.67,6.308h-1.325l-0.292-1.334h-1.679l-0.292,1.334h-1.325L36.586,79.124z
			 M36.753,83.055h1.237l-0.61-2.836h-0.018L36.753,83.055z"/>
		<path fill="#010101" d="M43.841,85.432h-3.852c0-1.113,0.45-1.882,1.378-2.738l0.513-0.478c0.565-0.495,0.654-0.795,0.654-1.432
			c0-0.521-0.203-0.777-0.619-0.777c-0.627,0-0.707,0.558-0.707,1.22h-1.219v-0.238c0-1.166,0.601-1.812,1.943-1.812
			c1.264,0,1.873,0.618,1.873,1.705c0,0.813-0.265,1.353-0.972,1.987l-0.707,0.654c-0.38,0.345-0.583,0.68-0.645,0.918h2.359
			L43.841,85.432L43.841,85.432z"/>
		<path fill="#010101" d="M46.635,79.124h2.129c1.042,0,1.792,0.39,1.792,1.599c0,0.682-0.318,1.201-0.954,1.379v0.018
			c0.707,0.098,1.148,0.619,1.148,1.467c0,0.989-0.486,1.848-1.97,1.848h-2.146V79.124z M47.907,81.712h0.362
			c0.707,0,1.016-0.229,1.016-0.83s-0.283-0.821-0.919-0.821h-0.459V81.712z M47.907,84.495h0.495c0.61,0,1.025-0.222,1.025-0.954
			s-0.415-0.945-0.972-0.945h-0.548V84.495z"/>
		<path fill="#010101" d="M52.715,85.432v-4.416h-1.246v-0.832h0.115c0.84,0,1.334-0.309,1.467-1.007h0.936v6.255H52.715z"/>
		<path fill="#010101" d="M60.607,81.253c0-0.919-0.187-1.315-0.76-1.315c-0.638,0-0.798,0.636-0.798,2.43
			c0,1.908,0.267,2.253,0.813,2.253c0.449,0,0.796-0.229,0.796-1.601h1.271c0,1.369-0.336,2.537-2.006,2.537
			c-1.908,0-2.146-1.361-2.146-3.279c0-1.916,0.24-3.277,2.148-3.277c1.82,0,1.953,1.334,1.953,2.253H60.607z"/>
		<path fill="#010101" d="M63.824,85.432v-4.416h-1.246v-0.832h0.115c0.84,0,1.334-0.309,1.467-1.007h0.936v6.255H63.824z"/>
		<path fill="#010101" d="M69.021,79.124h3.524v1.042h-2.254v1.484h2.121v1.041h-2.121v2.74h-1.271V79.124z"/>
		<path fill="#010101" d="M74.279,85.432v-4.416h-1.246v-0.832h0.115c0.84,0,1.334-0.309,1.467-1.007h0.936v6.255H74.279z"/>
	</g>
	<g display="inline">
		<path fill="#010101" d="M47.929,54.025c0,0-7.501,0.158-7.981-6.386c-0.483-6.585-0.21-8.515-0.21-8.515s1.381,1.279,1.811,0.323
			c0,0,0.53-6.071,0.316-7.343c0,0,0.43-0.644,2.233,2.658c0,0,1.706-1.702,0.428-9.475c0,0,1.597-0.423,3.193,2.239
			c0,0,0.746,0.423,1.063-9.791c0,0,1.063,5.213,2.769,7.129c1.702,1.916,1.489,3.513,1.489,3.513s0.427,0,0.853-2.235
			c0,0,2.396,1.226,3.297,9.048c0,0,0.479-0.271,0.531-1.757c0.032-0.753,3.037,2.927,2.61,10.004c0,0,0.53,0.264,1.169-0.159
			c0,0,0,10.164-9.789,10.797c0,0,5.588-4.521,4.307-10.424c0,0-0.373,0.901-1.222,0.742c0,0,0.425-3.512-0.321-4.683
			c0,0-1.276,2.926-2.232,3.354c0,0,0.904-5.002-1.65-7.291c0,0-0.583,6.704-1.379,7.023c0,0-0.91-1.543-1.866-2.073
			c0,0-0.159,5.477,0.052,5.691c0,0-2.34-3.136-2.713-4.68c0,0-0.532,0.532-0.424,4.042c0,0-0.321,0-0.694-0.424
			c0,0-0.315,3.884,4.1,8.442L47.929,54.025z"/>
		<path fill="none" stroke="#010101" stroke-width="0.361" stroke-miterlimit="3.864" d="M43.141,54.663h13.414 M50.267,63.521
			c0,0-17.033-5.323-19.414-28.244l-0.164-22.71h39.172l-0.166,22.71C67.318,58.198,50.267,63.521,50.267,63.521z"/>
	</g>
</g>
<g id="Layer_3" display="none">
	<g display="inline">
		<path fill="#010101" d="M21.669,68.701v1.053h-2.276v1.5h2.142v1.053h-2.142v1.715h2.365v1.054h-3.651v-6.373L21.669,68.701
			L21.669,68.701z"/>
		<path fill="#010101" d="M23.883,68.701l1.553,4.365h0.018v-4.365h1.178v6.373h-1.464l-1.571-4.463h-0.018v4.463h-1.178v-6.373
			H23.883z"/>
		<path fill="#010101" d="M29.729,75.074v-6.373h1.286v6.373H29.729z"/>
		<path fill="#010101" d="M33.005,73.084v0.188c0,0.599,0.169,0.982,0.848,0.982c0.393,0,0.768-0.25,0.768-0.785
			c0-0.572-0.286-0.805-1.143-1.09c-1.143-0.385-1.669-0.875-1.669-1.928c0-1.25,0.75-1.875,1.973-1.875
			c1.143,0,1.973,0.49,1.973,1.715v0.178h-1.232c0-0.607-0.196-0.945-0.696-0.945c-0.581,0-0.732,0.355-0.732,0.74
			c0,0.394,0.116,0.644,0.66,0.865l0.991,0.43c0.964,0.428,1.214,0.9,1.214,1.687c0,1.348-0.821,1.955-2.214,1.955
			c-1.455,0-2.026-0.679-2.026-1.855v-0.26L33.005,73.084L33.005,73.084z"/>
		<path fill="#010101" d="M38.637,68.576c1.928,0,2.169,1.375,2.169,3.313c0,1.937-0.241,3.312-2.169,3.312
			c-1.928,0-2.169-1.375-2.169-3.312C36.468,69.951,36.709,68.576,38.637,68.576z M38.637,74.254c0.759,0,0.884-0.652,0.884-2.365
			c0-1.705-0.125-2.365-0.884-2.365c-0.759,0-0.884,0.66-0.884,2.365C37.753,73.602,37.878,74.254,38.637,74.254z"/>
		<path fill="#010101" d="M44.885,75.074v-4.463h-1.258v-0.84h0.116c0.848,0,1.348-0.312,1.482-1.019h0.946v6.32L44.885,75.074
			L44.885,75.074z"/>
		<path fill="#010101" d="M49.17,75.074v-4.463h-1.258v-0.84h0.116c0.848,0,1.348-0.312,1.482-1.019h0.946v6.32L49.17,75.074
			L49.17,75.074z"/>
		<path fill="#010101" d="M54.605,70.361c0-0.49-0.152-0.769-0.58-0.769c-0.678,0-0.785,0.679-0.785,1.607v0.313h0.018
			c0.215-0.33,0.625-0.546,1.188-0.546c1.115,0,1.546,0.83,1.546,1.974c0,1.455-0.625,2.258-2.046,2.258
			c-1.768,0-1.989-1.41-1.989-2.955c0-1.785,0.035-3.49,2.123-3.49c0.912,0,1.731,0.395,1.76,1.607H54.605z M54.008,74.361
			c0.615,0,0.695-0.537,0.695-1.25c0-0.857-0.195-1.197-0.695-1.197c-0.51,0-0.705,0.34-0.705,1.197
			C53.303,73.834,53.41,74.361,54.008,74.361z"/>
		<path fill="#010101" d="M57.738,75.074v-4.463H56.48v-0.84h0.115c0.848,0,1.348-0.312,1.481-1.019h0.944v6.32L57.738,75.074
			L57.738,75.074z"/>
		<path fill="#010101" d="M62.023,75.074v-4.463h-1.26v-0.84h0.116c0.849,0,1.349-0.312,1.479-1.019h0.947v6.32L62.023,75.074
			L62.023,75.074z"/>
		<path fill="#010101" d="M65.164,70.424h1.178v1.393h-1.178V70.424z M65.164,73.682h1.178v1.394h-1.178V73.682z"/>
		<path fill="#010101" d="M70.877,75.074h-3.891c0-1.125,0.455-1.9,1.391-2.768l0.52-0.48c0.57-0.5,0.66-0.805,0.66-1.447
			c0-0.525-0.205-0.785-0.625-0.785c-0.635,0-0.715,0.563-0.715,1.232h-1.23v-0.242c0-1.178,0.605-1.83,1.964-1.83
			c1.276,0,1.893,0.625,1.893,1.725c0,0.82-0.268,1.365-0.981,2.008l-0.713,0.66c-0.385,0.349-0.59,0.688-0.652,0.929h2.383v0.999
			H70.877z"/>
		<path fill="#010101" d="M73.252,68.754c1.535,0,1.98,0.832,1.98,3.072c0,1.748-0.099,3.373-1.98,3.373
			c-1.535,0-1.982-0.83-1.982-3.07C71.27,70.379,71.367,68.754,73.252,68.754z M72.555,72.406c0,1.598,0.152,1.955,0.697,1.955
			c0.563,0,0.695-0.5,0.695-2.125v-0.688c0-1.598-0.152-1.955-0.695-1.955c-0.563,0-0.697,0.5-0.697,2.125V72.406z"/>
		<path fill="#010101" d="M77.018,75.074v-4.463H75.76v-0.84h0.115c0.848,0,1.348-0.312,1.482-1.019h0.944v6.32L77.018,75.074
			L77.018,75.074z"/>
		<path fill="#010101" d="M83.471,69.879h-2.33l-0.133,1.438h0.018c0.24-0.33,0.615-0.473,1.16-0.473
			c1.215,0,1.545,1.018,1.545,2.018c0,1.394-0.412,2.339-2.026,2.339c-1.604,0-1.865-1.043-1.865-1.759v-0.17h1.231
			c0,0.42,0.07,1.035,0.625,1.035c0.525,0,0.75-0.41,0.75-1.231c0-1.043-0.17-1.339-0.741-1.339c-0.365,0-0.563,0.224-0.606,0.58
			h-1.15l0.232-3.438h3.293v1H83.471z"/>
	</g>
	<g display="inline">
		<path fill="#010101" d="M28.641,81.564c0-0.929-0.188-1.33-0.768-1.33c-0.643,0-0.804,0.643-0.804,2.455
			c0,1.928,0.268,2.274,0.821,2.274c0.456,0,0.804-0.231,0.804-1.614h1.285c0,1.383-0.339,2.563-2.026,2.563
			c-1.928,0-2.169-1.375-2.169-3.313c0-1.938,0.241-3.312,2.169-3.312c1.839,0,1.973,1.348,1.973,2.274h-1.285V81.564z"/>
		<path fill="#010101" d="M30.72,79.414h1.232v6.373H30.72V79.414z"/>
		<path fill="#010101" d="M32.809,82.457v-0.115c0-1.107,0.759-1.482,1.687-1.482c1.464,0,1.741,0.607,1.741,1.474v2.524
			c0,0.457,0.036,0.644,0.151,0.931H35.21c-0.08-0.152-0.116-0.33-0.151-0.5h-0.018c-0.286,0.5-0.625,0.625-1.223,0.625
			c-0.857,0-1.16-0.731-1.16-1.375c0-0.91,0.366-1.269,1.214-1.5l0.696-0.188c0.366-0.098,0.491-0.24,0.491-0.563
			c0-0.365-0.152-0.588-0.571-0.588c-0.384,0-0.571,0.24-0.571,0.623v0.135H32.809z M35.059,83.385
			c-0.17,0.135-0.375,0.205-0.527,0.242c-0.5,0.107-0.696,0.348-0.696,0.775c0,0.367,0.134,0.67,0.464,0.67
			c0.33,0,0.759-0.205,0.759-0.74V83.385z"/>
		<path fill="#010101" d="M38.013,84.215v0.162c0,0.418,0.223,0.695,0.643,0.695c0.384,0,0.625-0.188,0.625-0.57
			c0-0.313-0.205-0.447-0.446-0.545l-0.866-0.313c-0.678-0.242-1.026-0.66-1.026-1.34c0-0.785,0.509-1.445,1.767-1.445
			c1.116,0,1.643,0.5,1.643,1.365v0.196h-1.107c0-0.491-0.143-0.723-0.544-0.723c-0.313,0-0.58,0.168-0.58,0.518
			c0,0.24,0.116,0.429,0.536,0.563l0.741,0.25c0.776,0.258,1.062,0.65,1.062,1.373c0,1.01-0.75,1.51-1.785,1.51
			c-1.393,0-1.768-0.598-1.768-1.527v-0.17H38.013L38.013,84.215z"/>
		<path fill="#010101" d="M41.976,84.215v0.162c0,0.418,0.223,0.695,0.643,0.695c0.384,0,0.625-0.188,0.625-0.57
			c0-0.313-0.205-0.447-0.446-0.545l-0.866-0.313c-0.678-0.242-1.026-0.66-1.026-1.34c0-0.785,0.509-1.445,1.767-1.445
			c1.116,0,1.643,0.5,1.643,1.365v0.196h-1.107c0-0.491-0.143-0.723-0.544-0.723c-0.313,0-0.58,0.168-0.58,0.518
			c0,0.24,0.116,0.429,0.536,0.563l0.741,0.25c0.776,0.258,1.062,0.65,1.062,1.373c0,1.01-0.75,1.51-1.785,1.51
			c-1.393,0-1.768-0.598-1.768-1.527v-0.17H41.976L41.976,84.215z"/>
		<path fill="#010101" d="M48.394,85.787v-4.463h-1.258v-0.84h0.116c0.848,0,1.348-0.313,1.482-1.019h0.946v6.32L48.394,85.787
			L48.394,85.787z"/>
		<path fill="#010101" d="M53.965,82.68v1.055h-2.518V82.68H53.965z"/>
		<path fill="#010101" d="M56.045,79.414h1.588l1.688,6.373h-1.34l-0.295-1.348H55.99l-0.295,1.348h-1.338L56.045,79.414z
			 M56.213,83.385h1.25l-0.615-2.865H56.83L56.213,83.385z"/>
		<path fill="#010101" d="M60.945,85.787v-4.463h-1.26v-0.84h0.116c0.849,0,1.349-0.313,1.48-1.019h0.946v6.32L60.945,85.787
			L60.945,85.787z"/>
		<path fill="#010101" d="M66.514,82.68v1.055h-2.518V82.68H66.514z"/>
		<path fill="#010101" d="M68.594,79.414h1.59l1.687,6.373h-1.338l-0.296-1.348h-1.694l-0.295,1.348h-1.34L68.594,79.414z
			 M68.764,83.385h1.25l-0.617-2.865h-0.018L68.764,83.385z"/>
		<path fill="#010101" d="M75.922,85.787h-3.891c0-1.125,0.455-1.902,1.391-2.768l0.52-0.482c0.57-0.5,0.66-0.803,0.66-1.445
			c0-0.527-0.205-0.785-0.625-0.785c-0.635,0-0.715,0.563-0.715,1.23h-1.229v-0.24c0-1.178,0.604-1.83,1.963-1.83
			c1.276,0,1.894,0.625,1.894,1.723c0,0.822-0.269,1.365-0.982,2.009l-0.713,0.661c-0.385,0.349-0.59,0.687-0.652,0.929h2.383v0.999
			H75.922z"/>
	</g>
	<rect x="37.095" y="43.466" display="inline" fill="#010101" width="26.483" height="3.888"/>
	<g display="inline">
		<path fill="#010101" d="M39.686,41.021c0-0.713,0.577-1.297,1.297-1.297c0.715,0,1.292,0.584,1.292,1.297
			c0,0.714-0.577,1.295-1.292,1.295C40.263,42.315,39.686,41.735,39.686,41.021"/>
		<path fill="#010101" d="M54.654,41.021c0-0.713,0.58-1.297,1.298-1.297c0.715,0,1.292,0.584,1.292,1.297
			c0,0.714-0.577,1.295-1.292,1.295C55.234,42.315,54.654,41.735,54.654,41.021"/>
		<path fill="#010101" d="M41.562,37.575c0-0.713,0.581-1.293,1.297-1.293c0.715,0,1.292,0.581,1.292,1.293
			c0,0.715-0.577,1.299-1.292,1.299C42.142,38.874,41.562,38.29,41.562,37.575"/>
		<path fill="#010101" d="M45.16,35.708c0-0.718,0.581-1.299,1.297-1.299c0.715,0,1.292,0.581,1.292,1.299
			c0,0.713-0.577,1.293-1.292,1.293C45.741,37.001,45.16,36.421,45.16,35.708"/>
		<path fill="#010101" d="M52.789,37.434c0-0.715,0.581-1.299,1.298-1.299c0.715,0,1.291,0.584,1.291,1.299
			c0,0.713-0.576,1.293-1.291,1.293C53.37,38.728,52.789,38.147,52.789,37.434"/>
	</g>
	<path display="inline" fill="none" stroke="#010101" stroke-width="0.645" stroke-miterlimit="3.864" d="M51.37,27.923l-0.507,9.5
		 M64.875,23.028H49.904v4.463h15.114H55.52v-4.463"/>
	<path display="inline" fill="none" stroke="#010101" stroke-width="0.361" stroke-miterlimit="3.864" d="M50.514,63.657
		c0,0-17.214-5.373-19.618-28.526V12.192h39.243V35.13C67.736,58.28,50.514,63.657,50.514,63.657z"/>
</g>
<g id="Layer_4" display="none">
	<polyline display="inline" fill="none" stroke="#010101" stroke-width="0.73" stroke-miterlimit="3.864" points="50.156,19.947 
		43.09,38.172 57.594,29.989 50.527,48.955 38.998,48.955 62.428,48.955 	"/>
	<g display="inline">
		<path fill="#010101" d="M48.445,20.135c0-1.542,1.247-2.789,2.79-2.789c1.541,0,2.789,1.247,2.789,2.789
			c0,1.54-1.248,2.79-2.789,2.79C49.691,22.925,48.445,21.675,48.445,20.135"/>
		<circle fill="none" stroke="#010101" stroke-width="0.216" stroke-miterlimit="3.864" cx="51.234" cy="20.135" r="2.789"/>
		<path fill="none" stroke="#010101" stroke-width="0.361" stroke-miterlimit="3.864" d="M50.706,63.998
			c0,0-17.192-5.374-19.59-28.503L30.95,12.578h39.528l-0.168,22.917C67.911,58.624,50.706,63.998,50.706,63.998z"/>
	</g>
	<g display="inline">
		<path fill="#010101" d="M26.958,69.038v1.052h-2.272v1.496h2.139v1.053h-2.139v1.711h2.362V75.4h-3.645v-6.362H26.958z"/>
		<path fill="#010101" d="M29.171,69.038l1.55,4.356h0.018v-4.356h1.176V75.4h-1.461l-1.568-4.455h-0.018V75.4h-1.176v-6.362H29.171
			z"/>
		<path fill="#010101" d="M36.127,75.4v-4.455h-1.256v-0.838h0.116c0.847,0,1.346-0.313,1.479-1.017h0.944v6.31H36.127z"/>
		<path fill="#010101" d="M40.408,75.4v-4.455h-1.257v-0.838h0.116c0.846,0,1.345-0.313,1.479-1.017h0.945v6.31H40.408z"/>
		<path fill="#010101" d="M43.191,73.039l2.094-3.947h1.328v4.001h0.606v0.998h-0.606v1.31h-1.176v-1.31h-2.246V73.039z
			 M45.438,70.695H45.42l-1.23,2.396h1.248V70.695z"/>
		<path fill="#010101" d="M48.854,73.93c0,0.473,0.151,0.758,0.579,0.758c0.678,0,0.784-0.678,0.784-1.604V72.78h-0.018
			c-0.214,0.321-0.624,0.534-1.185,0.534c-1.114,0-1.542-0.828-1.542-1.97c0-1.452,0.624-2.254,2.041-2.254
			c1.754,0,1.987,1.407,1.987,2.949c0,1.791-0.044,3.483-2.121,3.483c-0.909,0-1.729-0.383-1.755-1.596h1.23V73.93z M49.451,72.371
			c0.508,0,0.704-0.339,0.704-1.194c0-0.722-0.107-1.247-0.704-1.247c-0.615,0-0.695,0.534-0.695,1.247
			C48.756,72.032,48.952,72.371,49.451,72.371z"/>
		<path fill="#010101" d="M54.533,72.299v1.053H52.02v-1.053H54.533z"/>
		<path fill="#010101" d="M58.715,70.214h-2.326l-0.133,1.435h0.018c0.24-0.328,0.615-0.472,1.158-0.472
			c1.213,0,1.543,1.017,1.543,2.015c0,1.39-0.41,2.334-2.023,2.334c-1.604,0-1.862-1.043-1.862-1.756v-0.168h1.229
			c0,0.418,0.07,1.032,0.623,1.032c0.526,0,0.75-0.409,0.75-1.229c0-1.044-0.17-1.337-0.74-1.337c-0.365,0-0.563,0.223-0.605,0.578
			h-1.148l0.23-3.431h3.288L58.715,70.214L58.715,70.214z"/>
		<path fill="#010101" d="M59.689,70.758h1.176v1.391h-1.176V70.758z M59.689,74.01h1.176V75.4h-1.176V74.01z"/>
		<path fill="#010101" d="M65.395,75.4h-3.886c0-1.123,0.455-1.898,1.392-2.764l0.517-0.48c0.569-0.498,0.659-0.803,0.659-1.443
			c0-0.525-0.205-0.783-0.624-0.783c-0.632,0-0.714,0.562-0.714,1.229H61.51v-0.24c0-1.176,0.606-1.826,1.961-1.826
			c1.274,0,1.889,0.623,1.889,1.721c0,0.818-0.267,1.362-0.979,2.004l-0.713,0.66c-0.384,0.348-0.589,0.687-0.65,0.926h2.379V75.4
			H65.395z"/>
		<path fill="#010101" d="M67.768,69.092c1.533,0,1.979,0.828,1.979,3.064c0,1.746-0.099,3.369-1.979,3.369
			c-1.533,0-1.979-0.83-1.979-3.065C65.789,70.713,65.889,69.092,67.768,69.092z M67.072,72.736c0,1.595,0.15,1.951,0.695,1.951
			c0.562,0,0.694-0.5,0.694-2.121V71.88c0-1.596-0.151-1.952-0.694-1.952c-0.563,0-0.695,0.499-0.695,2.121V72.736z"/>
		<path fill="#010101" d="M71.531,75.4v-4.455h-1.258v-0.838h0.117c0.846,0,1.346-0.313,1.479-1.017h0.945v6.31H71.531z"/>
		<path fill="#010101" d="M75.384,72.059v-0.018c-0.687-0.17-0.909-0.768-0.909-1.212c0-1.239,0.705-1.737,1.854-1.737
			s1.854,0.498,1.854,1.737c0,0.444-0.24,1.042-0.91,1.212v0.018c0.713,0.144,1.069,0.768,1.069,1.561
			c0,0.722-0.258,1.906-2.014,1.906s-2.015-1.186-2.015-1.906C74.314,72.825,74.671,72.201,75.384,72.059z M76.328,74.688
			c0.579,0,0.73-0.48,0.73-1.086c0-0.606-0.151-1.088-0.73-1.088s-0.73,0.48-0.73,1.088C75.598,74.206,75.749,74.688,76.328,74.688z
			 M76.328,71.676c0.383,0,0.624-0.285,0.624-0.883c0-0.579-0.205-0.863-0.624-0.863s-0.624,0.284-0.624,0.863
			C75.704,71.391,75.945,71.676,76.328,71.676z"/>
	</g>
</g>
<g id="Layer_5" display="none">
	<g display="inline">
		<path fill="#010101" d="M20.252,74.926v-6.33h1.276v6.33H20.252z"/>
		<path fill="#010101" d="M26.017,68.596v1.047h-2.261v1.489h2.128v1.046h-2.128v1.702h2.35v1.046H22.48v-6.33H26.017z"/>
		<path fill="#010101" d="M29.451,70.732c0-0.922-0.186-1.321-0.762-1.321c-0.638,0-0.798,0.639-0.798,2.438
			c0,1.914,0.266,2.26,0.815,2.26c0.452,0,0.798-0.229,0.798-1.604h1.277c0,1.374-0.337,2.544-2.013,2.544
			c-1.915,0-2.154-1.364-2.154-3.289c0-1.924,0.24-3.288,2.154-3.288c1.827,0,1.959,1.338,1.959,2.26H29.451L29.451,70.732z"/>
		<path fill="#010101" d="M35.955,70.245c0-0.488-0.151-0.763-0.577-0.763c-0.673,0-0.78,0.674-0.78,1.596v0.311h0.018
			c0.213-0.328,0.621-0.541,1.179-0.541c1.108,0,1.534,0.824,1.534,1.959c0,1.445-0.621,2.243-2.03,2.243
			c-1.755,0-1.977-1.399-1.977-2.935c0-1.772,0.036-3.467,2.11-3.467c0.904,0,1.72,0.391,1.747,1.597H35.955z M35.361,74.217
			c0.612,0,0.691-0.531,0.691-1.24c0-0.853-0.195-1.188-0.691-1.188c-0.505,0-0.7,0.337-0.7,1.188
			C34.661,73.693,34.767,74.217,35.361,74.217z"/>
		<path fill="#010101" d="M39.07,74.926v-4.433h-1.25V69.66h0.115c0.842,0,1.339-0.311,1.472-1.012h0.94v6.276L39.07,74.926
			L39.07,74.926z"/>
		<path fill="#010101" d="M41.839,72.576l2.083-3.928h1.321v3.98h0.603v0.993h-0.603v1.303h-1.17v-1.303h-2.234V72.576z
			 M44.074,70.245h-0.018l-1.223,2.385h1.241V70.245z"/>
		<path fill="#010101" d="M47.162,71.602v-0.018c-0.683-0.169-0.904-0.764-0.904-1.206c0-1.231,0.7-1.729,1.844-1.729
			s1.844,0.496,1.844,1.729c0,0.442-0.239,1.037-0.904,1.206v0.018c0.709,0.143,1.064,0.763,1.064,1.551
			c0,0.72-0.257,1.897-2.004,1.897c-1.746,0-2.003-1.179-2.003-1.897C46.098,72.363,46.453,71.743,47.162,71.602z M48.102,74.217
			c0.577,0,0.727-0.479,0.727-1.082c0-0.603-0.15-1.08-0.727-1.08c-0.576,0-0.727,0.479-0.727,1.08
			C47.375,73.738,47.525,74.217,48.102,74.217z M48.102,71.22c0.381,0,0.621-0.282,0.621-0.877c0-0.575-0.204-0.86-0.621-0.86
			s-0.62,0.285-0.62,0.86C47.481,70.938,47.721,71.22,48.102,71.22z"/>
		<path fill="#010101" d="M54.258,74.926h-3.865c0-1.117,0.453-1.889,1.382-2.748l0.516-0.479c0.566-0.497,0.654-0.799,0.654-1.438
			c0-0.522-0.202-0.779-0.619-0.779c-0.631,0-0.709,0.559-0.709,1.224h-1.224v-0.239c0-1.171,0.603-1.816,1.95-1.816
			c1.269,0,1.88,0.619,1.88,1.711c0,0.814-0.267,1.355-0.976,1.994l-0.709,0.655c-0.382,0.347-0.585,0.683-0.647,0.923h2.367V74.926
			z"/>
		<path fill="#010101" d="M57.382,71.841v1.046h-2.5v-1.046H57.382z"/>
		<path fill="#010101" d="M61.8,74.926h-3.864c0-1.117,0.451-1.889,1.383-2.748l0.515-0.479c0.567-0.497,0.655-0.799,0.655-1.438
			c0-0.522-0.203-0.779-0.62-0.779c-0.63,0-0.709,0.559-0.709,1.224h-1.224v-0.239c0-1.171,0.604-1.816,1.951-1.816
			c1.268,0,1.879,0.619,1.879,1.711c0,0.814-0.267,1.355-0.976,1.994l-0.71,0.655c-0.381,0.347-0.585,0.683-0.646,0.923H61.8V74.926
			z"/>
		<path fill="#010101" d="M62.514,70.307h1.17v1.383h-1.17V70.307z M62.514,73.543h1.17v1.383h-1.17V73.543z"/>
		<path fill="#010101" d="M68.188,74.926h-3.864c0-1.117,0.452-1.889,1.384-2.748l0.514-0.479c0.567-0.497,0.656-0.799,0.656-1.438
			c0-0.522-0.204-0.779-0.621-0.779c-0.629,0-0.709,0.559-0.709,1.224h-1.224v-0.239c0-1.171,0.604-1.816,1.95-1.816
			c1.269,0,1.879,0.619,1.879,1.711c0,0.814-0.266,1.355-0.975,1.994l-0.71,0.655c-0.381,0.347-0.585,0.683-0.646,0.923h2.365
			V74.926z"/>
		<path fill="#010101" d="M70.551,68.648c1.524,0,1.969,0.824,1.969,3.051c0,1.736-0.099,3.351-1.969,3.351
			c-1.525,0-1.969-0.823-1.969-3.05C68.582,70.264,68.68,68.648,70.551,68.648z M69.859,72.275c0,1.586,0.149,1.94,0.69,1.94
			c0.56,0,0.691-0.497,0.691-2.11v-0.683c0-1.587-0.15-1.94-0.691-1.94c-0.559,0-0.69,0.496-0.69,2.109V72.275z"/>
		<path fill="#010101" d="M74.295,74.926v-4.433h-1.25V69.66h0.115c0.843,0,1.339-0.311,1.472-1.012h0.938v6.276L74.295,74.926
			L74.295,74.926z"/>
		<path fill="#010101" d="M78.128,71.602v-0.018c-0.683-0.169-0.903-0.764-0.903-1.206c0-1.231,0.7-1.729,1.844-1.729
			c1.145,0,1.845,0.496,1.845,1.729c0,0.442-0.239,1.037-0.904,1.206v0.018c0.709,0.143,1.063,0.763,1.063,1.551
			c0,0.72-0.258,1.897-2.004,1.897s-2.004-1.179-2.004-1.897C77.064,72.363,77.419,71.743,78.128,71.602z M79.068,74.217
			c0.576,0,0.727-0.479,0.727-1.082c0-0.603-0.15-1.08-0.727-1.08c-0.577,0-0.729,0.479-0.729,1.08
			C78.341,73.738,78.492,74.217,79.068,74.217z M79.068,71.22c0.381,0,0.619-0.282,0.619-0.877c0-0.575-0.203-0.86-0.619-0.86
			c-0.418,0-0.621,0.285-0.621,0.86C78.447,70.938,78.688,71.22,79.068,71.22z"/>
	</g>
	<g display="inline">
		<path fill="#010101" d="M40.207,79.243h1.578l1.676,6.33h-1.33l-0.292-1.339h-1.684l-0.293,1.339h-1.33L40.207,79.243z
			 M40.375,83.188h1.241l-0.611-2.846h-0.018L40.375,83.188z"/>
		<path fill="#010101" d="M43.908,79.243h2.234c1.303,0,1.738,0.948,1.738,1.897c0,1.313-0.807,1.905-2.013,1.905h-0.683v2.526
			h-1.276V79.243z M45.185,82.105h0.567c0.505,0,0.851-0.301,0.851-0.947c0-0.629-0.248-0.975-0.886-0.975h-0.532V82.105z"/>
		<path fill="#010101" d="M51.217,81.38c0-0.922-0.186-1.321-0.762-1.321c-0.638,0-0.798,0.64-0.798,2.438
			c0,1.915,0.266,2.261,0.815,2.261c0.452,0,0.797-0.23,0.797-1.604h1.276c0,1.373-0.337,2.544-2.013,2.544
			c-1.915,0-2.154-1.365-2.154-3.289c0-1.925,0.24-3.289,2.154-3.289c1.826,0,1.959,1.339,1.959,2.261L51.217,81.38L51.217,81.38z"
			/>
		<path fill="#010101" d="M53.252,81.814h4.484v1.1h-4.484V81.814z M53.252,83.747h4.484v1.101h-4.484V83.747z"/>
		<path fill="#010101" d="M59.771,85.573v-4.433h-1.25v-0.834h0.115c0.842,0,1.338-0.311,1.471-1.011h0.939v6.276L59.771,85.573
			L59.771,85.573z"/>
	</g>
	<g display="inline">
		<g>
			<path fill="none" stroke="#010101" stroke-width="0.361" stroke-miterlimit="3.864" d="M50.462,63.576
				c0,0-17.1-5.348-19.49-28.357L30.81,12.417h39.327l-0.166,22.801C67.581,58.229,50.462,63.576,50.462,63.576z"/>
		</g>
		<polygon fill="#010101" points="39.506,33.182 45.089,17.682 40.303,17.682 36.021,36.808 44.826,31.554 42.905,46.206 
			41.327,45.208 42.785,51.207 46.063,45.979 44.271,46.419 48.193,27.942 		"/>
		<polygon fill="#010101" points="64.188,38.78 59.309,35.305 59.309,34.382 61.488,33.456 59.38,32.718 59.38,31.609 
			66.922,25.989 57.863,25.989 59.714,21.294 55.648,23.474 56.979,19.591 51.656,22.883 51.689,25.249 54.688,25.249 
			55.018,26.285 53.688,28.538 57.052,28.503 57.385,29.685 54.465,31.72 55.904,32.531 56.201,33.418 55.131,34.122 56.053,34.565 
			56.238,35.637 53.725,35.453 54.908,39.777 51.616,37.82 51.469,41.738 52.766,44.288 52.947,40.371 59.676,47.615 57.109,40.278 
			57.643,39.742 59.566,40.592 58.346,38.633 58.346,37.524 		"/>
	</g>
</g>
<g id="Layer_6" display="none">
	<path display="inline" fill="#010101" d="M76.479,70.09c0-0.263,0.002-0.459,0-0.656c-0.013-1.882,0.069-3.771-0.063-5.645
		c-0.138-1.891-1.742-3.273-3.674-3.297c-3.042-0.036-6.091-0.041-9.136,0.005c-2.102,0.028-3.678,1.708-3.685,3.813
		c-0.005,1.744-0.002,3.485,0,5.229c0,0.173,0.021,0.347,0.037,0.55H76.479L76.479,70.09z M53.051,83.928
		c0-6.797-0.063-13.595,0.016-20.39c0.056-4.815,4.088-9.161,8.914-9.808c0.832-0.108,1.681-0.125,2.518-0.131
		c2.748-0.015,5.495-0.015,8.24-0.004c5.184,0.021,9.461,3.549,10.451,8.637c0.129,0.66,0.172,1.352,0.172,2.028
		c0.017,6.556,0.015,13.108,0.015,19.666h-6.858V77.09H59.909v6.838H53.051z"/>
	<path display="inline" fill="#010101" d="M47.515,17.741c0,6.679,0.021,13.353-0.004,20.031c-0.016,5-3.911,9.438-8.884,10.165
		c-0.591,0.086-1.195,0.132-1.797,0.135c-3.005,0.011-6.013,0.011-9.021,0.004c-5.967-0.014-10.623-4.69-10.623-10.667
		c0-6.555,0.002-13.113,0.004-19.668h6.859c0.007,0.219,0.018,0.438,0.018,0.661c0.002,6.275,0,12.552,0.005,18.828
		c0,2.351,1.612,3.956,3.977,3.96c2.85,0.007,5.696,0.004,8.543,0c2.445-0.004,4.032-1.587,4.032-4.02
		c0.002-6.216,0.002-12.434,0.007-18.649c0-0.26,0.016-0.52,0.025-0.78H47.515L47.515,17.741z"/>
	<path display="inline" fill="#010101" d="M26.576,83.928c-0.347-0.08-0.695-0.158-1.044-0.234
		c-4.793-1.055-8.32-5.398-8.343-10.312c-0.016-3.085-0.018-6.175,0-9.265c0.034-5.787,4.784-10.516,10.562-10.521
		c6.359-0.007,12.717-0.002,19.074-0.002h0.645v6.887h-0.69H28.126c-2.439,0-4.045,1.58-4.054,4.011
		c-0.012,2.846-0.012,5.694,0,8.542c0.009,2.404,1.609,3.999,4.008,3.999c6.236,0.005,12.475,0.003,18.711,0.003h0.723v6.893H26.576
		z"/>
	<path display="inline" fill="#010101" d="M83.375,17.741c-1.389,1.113-2.77,2.239-4.168,3.34
		c-4.912,3.872-9.83,7.734-14.744,11.597c-0.063,0.05-0.115,0.109-0.236,0.221c6.338,5.021,12.662,10.03,19.1,15.126
		c-0.285,0.023-0.445,0.05-0.604,0.05c-2.589,0.002-5.175,0.011-7.761-0.014c-0.287-0.002-0.629-0.13-0.856-0.31
		c-4.535-3.571-9.058-7.158-13.584-10.74c-0.151-0.123-0.315-0.237-0.564-0.426v11.444h-6.872c-0.015-0.152-0.046-0.308-0.046-0.458
		c-0.002-9.846-0.002-19.689,0-29.531c0-0.1,0.007-0.201,0.014-0.301h6.858v11.467c0.235-0.171,0.336-0.235,0.427-0.308
		c2.992-2.351,5.982-4.697,8.971-7.053c1.727-1.361,3.442-2.736,5.164-4.105h8.902V17.741z"/>
</g>
<g id="Layer_7" display="none">
	<path display="inline" fill="#010101" d="M75.01,55.872h0.536c0.233,0,0.392,0.017,0.478,0.052c0.084,0.033,0.15,0.084,0.199,0.153
		c0.049,0.067,0.072,0.146,0.072,0.233c0,0.133-0.05,0.241-0.15,0.324c-0.101,0.081-0.285,0.121-0.562,0.121H75.01V55.872z
		 M75.01,58.408v-1.247h0.277c0.167,0,0.292,0.034,0.38,0.103c0.125,0.092,0.289,0.318,0.494,0.684l0.261,0.462H77l-0.357-0.573
		c-0.172-0.271-0.315-0.467-0.434-0.581c-0.063-0.062-0.146-0.112-0.25-0.157c0.253-0.019,0.456-0.106,0.607-0.266
		c0.154-0.16,0.229-0.346,0.229-0.561c0-0.153-0.046-0.297-0.137-0.432c-0.091-0.134-0.216-0.23-0.369-0.283
		c-0.153-0.055-0.401-0.082-0.748-0.082h-1.008v2.935L75.01,58.408L75.01,58.408z M76.848,54.921
		c0.364,0.196,0.646,0.478,0.853,0.841c0.202,0.367,0.304,0.745,0.304,1.143c0,0.392-0.1,0.767-0.299,1.129
		c-0.2,0.359-0.48,0.641-0.844,0.839c-0.359,0.201-0.736,0.304-1.129,0.304c-0.395,0-0.771-0.103-1.131-0.304
		c-0.361-0.198-0.643-0.479-0.845-0.839c-0.2-0.362-0.301-0.737-0.301-1.129c0-0.396,0.101-0.774,0.306-1.143
		c0.205-0.363,0.489-0.645,0.852-0.841c0.361-0.194,0.734-0.294,1.119-0.294C76.111,54.627,76.484,54.727,76.848,54.921
		 M74.393,54.527c-0.438,0.234-0.776,0.57-1.021,1.008c-0.246,0.438-0.368,0.893-0.368,1.367c0,0.469,0.12,0.921,0.361,1.354
		c0.24,0.435,0.578,0.771,1.01,1.009c0.434,0.24,0.884,0.359,1.355,0.359c0.473,0,0.924-0.119,1.356-0.359
		c0.431-0.238,0.769-0.574,1.006-1.009c0.241-0.434,0.362-0.886,0.362-1.354c0-0.476-0.123-0.932-0.367-1.367
		c-0.242-0.438-0.581-0.771-1.018-1.008c-0.436-0.234-0.885-0.353-1.34-0.353C75.273,54.175,74.827,54.293,74.393,54.527"/>
	<g display="inline">
		<path fill="#010101" d="M27.115,57.234h3.808l3.52,6.464h0.034v-6.464h3.52v12.082h-3.621l-3.706-6.601h-0.034v6.601h-3.52
			L27.115,57.234L27.115,57.234z"/>
		<path fill="#010101" d="M39.938,57.234h9.341v3.097h-5.618v1.506h4.823v2.877h-4.823v4.603h-3.723V57.234z"/>
		<path fill="#010101" d="M50.598,57.234h6.228c3.3,0,4.434,2.42,4.434,4.129c0,2.91-1.963,4.298-4.737,4.298H54.32v3.655h-3.723
			V57.234L50.598,57.234z M54.318,62.784h1.438c0.948,0,1.979-0.052,1.979-1.286c0-1.1-0.846-1.167-1.76-1.167h-1.658V62.784
			L54.318,62.784z"/>
		<path fill="#010101" d="M64.623,57.234h3.639l4.399,12.082h-3.858l-0.508-1.727h-3.842l-0.541,1.727h-3.74L64.623,57.234z
			 M67.55,65.001l-1.083-3.724h-0.033l-1.168,3.724H67.55z"/>
	</g>
	<g display="inline">
		<path fill="#010101" d="M32.083,13.161h34.472c2.051,0,3.911,0.836,5.26,2.184c1.349,1.348,2.188,3.21,2.188,5.261V46.5
			c0,2.045-0.84,3.902-2.188,5.25c-1.351,1.355-3.215,2.199-5.26,2.199h-6.223V48.95h6.223c0.678,0,1.289-0.273,1.729-0.71
			c0.441-0.448,0.72-1.061,0.72-1.74V20.606c0-0.671-0.276-1.284-0.72-1.729c-0.446-0.443-1.059-0.72-1.729-0.72H32.083
			c-0.676,0-1.295,0.277-1.736,0.72c-0.441,0.439-0.715,1.051-0.715,1.729V46.5c0,0.67,0.277,1.282,0.725,1.728
			c0.441,0.444,1.054,0.722,1.727,0.722h8.291v4.999h-8.291c-2.052,0-3.914-0.838-5.262-2.188c-1.35-1.35-2.185-3.21-2.185-5.262
			V20.606c0-2.042,0.839-3.906,2.194-5.261C28.177,13.997,30.038,13.161,32.083,13.161"/>
		<path fill="#EC2427" d="M43.584,49.381c0,0-3.457-2.799-2.799-7.322c0.659-4.527,3.21-7.491,1.155-11.438
			c0,0,4.852,5.427,5.592,7.816c0,0,0.166-2.632-0.41-4.116c-0.575-1.48-1.234-5.021,0.166-7.326
			c-0.889,4.111,5.103,8.063,6.007,12.591c0,0,2.883-0.739,1.896-9.627c0,0,8.312,8.396,2.551,18.683c0,0,0.081-2.552-0.25-3.623
			c0,0-2.387,6.917-6.172,9.711c2.095-6.137,0.281-6.532-0.823-11.274c0,0-1.778,5.845-1.894,10.125c0,0-3.415-1.896-4.527-8.562
			C43.6,46.521,43.485,47.866,43.584,49.381 M53.328,35.586c-2.48-5.171-6.549-7.45-3.82-14.599
			C49.768,27.124,55.121,28.292,53.328,35.586"/>
		<path fill="#010101" d="M75.127,86.639c0,1.289-1.048,2.334-2.337,2.334H25.846c-1.289,0-2.336-1.045-2.336-2.334V74.58
			c0-1.289,1.047-2.335,2.336-2.335H72.79c1.289,0,2.337,1.046,2.337,2.335V86.639z"/>
	</g>
	<g display="inline">
		<path fill="#FFFFFF" d="M36.255,80.195c-0.111-1.947,1.086-3.055,2.994-3.055c1.715,0,2.882,0.721,2.882,2.224
			c0,1.806-1.756,2.364-3.095,3.186v0.011h3.196v1.726h-6.119c-0.041-0.69,0.152-1.269,0.507-1.745
			c0.599-0.822,1.593-1.359,2.506-1.908c0.366-0.223,0.954-0.518,0.954-1.023c0-0.649-0.375-0.862-0.853-0.862
			c-0.812,0-1.096,0.588-1.065,1.451h-1.907V80.195z"/>
		<path fill="#FFFFFF" d="M45.37,80.216h-1.654v-1.461c1.015,0.03,2.049-0.364,2.1-1.532h1.664v7.063h-2.11V80.216z"/>
		<path fill="#FFFFFF" d="M52.15,80.216h-1.654v-1.461c1.014,0.03,2.049-0.364,2.1-1.532h1.664v7.063H52.15V80.216z"/>
		<path fill="#FFFFFF" d="M56.598,80.195c-0.111-1.947,1.086-3.055,2.992-3.055c1.715,0,2.883,0.721,2.883,2.224
			c0,1.806-1.756,2.364-3.096,3.186v0.011h3.196v1.726h-6.118c-0.041-0.69,0.152-1.269,0.507-1.745
			c0.599-0.822,1.595-1.359,2.507-1.908c0.365-0.223,0.953-0.518,0.953-1.023c0-0.649-0.375-0.862-0.852-0.862
			c-0.813,0-1.098,0.588-1.065,1.451h-1.907V80.195z"/>
	</g>
</g>
<g id="Layer_8" display="none">
	<g display="inline">
		<path fill="#010101" d="M52.857,30.405c-15.705,0-28.431,12.729-28.431,28.43c0,15.702,12.726,28.433,28.431,28.433
			c15.701,0,28.432-12.729,28.432-28.433C81.289,43.135,68.559,30.405,52.857,30.405 M52.857,81.984
			c-12.788,0-23.152-10.364-23.152-23.151c0-12.783,10.365-23.152,23.152-23.152c12.785,0,23.15,10.369,23.15,23.152
			C76.009,71.62,65.645,81.984,52.857,81.984"/>
		<path fill="#010101" d="M53.091,43.585h-5.248V60.33c0,0.955-0.414,2.15-1.79,2.15c-1.497,0-1.824-0.931-1.824-2V43.585h-5.243
			v16.207c0,4.599,2.59,6.72,7.035,6.72c5.368,0,7.069-2.929,7.069-6.72L53.091,43.585L53.091,43.585z"/>
	</g>
	<polygon display="inline" fill="#010101" points="60.398,51.686 55.152,51.686 55.152,74.085 66.814,74.085 66.814,69.6 
		60.398,69.6 	"/>
	<g display="inline">
		<path fill="#010101" d="M45.895,69.214h-0.899v3.484h0.385v-1.532h0.673c0.458,0,0.598,0.299,0.598,0.646
			c0,0.232,0.036,0.666,0.118,0.887h0.454V72.62l-0.137-0.22c-0.038-0.26-0.061-0.514-0.076-0.771
			c-0.055-0.466-0.167-0.61-0.617-0.653v-0.01c0.404-0.053,0.655-0.347,0.67-0.757C47.086,69.405,46.621,69.214,45.895,69.214
			 M45.38,70.818v-1.254h0.542c0.262,0,0.729,0.014,0.742,0.612c0.005,0.607-0.494,0.638-0.676,0.642H45.38z"/>
		<path fill="#010101" d="M46.046,67.773c-1.759,0-3.183,1.427-3.183,3.181c0,1.761,1.423,3.187,3.183,3.188
			c1.755-0.002,3.18-1.428,3.18-3.188C49.227,69.198,47.802,67.775,46.046,67.773 M46.046,73.809L46.046,73.809
			c-1.575-0.004-2.845-1.276-2.847-2.854c0.002-1.571,1.271-2.843,2.847-2.845c1.571,0.002,2.845,1.272,2.846,2.845
			C48.891,72.531,47.618,73.805,46.046,73.809"/>
		<path fill="#010101" d="M19.813,31.576c-0.962,0-1.837,0.592-2.628,1.649c-1.393,1.861-1.162,3.382,0.717,4.79l3.556,2.663
			c0.811,0.609,1.573,0.939,2.296,0.939c0.85,0,1.649-0.458,2.406-1.467c1.556-2.08,1.158-3.71-0.334-4.826l-1.061-0.795
			l-1.522,2.032l0.786,0.584c0.532,0.397,1.203,0.993,0.682,1.685c-0.213,0.287-0.437,0.41-0.674,0.41
			c-0.203,0-0.417-0.093-0.644-0.26l-4.271-3.223c-0.565-0.421-0.795-0.831-0.31-1.456c0.125-0.169,0.31-0.26,0.541-0.26
			c0.291,0,0.651,0.142,1.059,0.448l0.556,0.417l1.522-2.029l-0.727-0.546C21.074,31.817,20.425,31.576,19.813,31.576"/>
	</g>
	<polygon display="inline" fill="#010101" points="23.746,26.557 21.822,28.212 28.872,36.412 33.147,32.736 31.739,31.094 
		29.388,33.117 	"/>
	<path display="inline" fill="#010101" d="M33.627,19.93l-2.662,1.494l3.233,10.585l2.224-1.249l-0.765-1.985l1.734-0.972
		l1.344,1.655l2.239-1.254L33.627,19.93z M34.963,26.984l-1.732-4.583l0.025-0.013l2.989,3.875L34.963,26.984z"/>
	<g display="inline">
		<path fill="#010101" d="M43.298,16.205c-0.309,0-0.636,0.043-0.981,0.127c-1.909,0.467-2.854,1.763-2.372,3.738
			c0.228,0.926,0.649,1.503,1.229,1.926c0.592,0.421,1.334,0.67,2.196,0.917c0.738,0.237,1.554,0.397,1.765,1.279
			c0.133,0.535,0.01,1.112-0.571,1.252c-0.116,0.03-0.222,0.042-0.322,0.042c-0.55,0-0.807-0.425-0.932-0.936l-0.18-0.746
			l-2.287,0.558l0.275,1.124c0.275,1.125,1.158,2.013,2.689,2.013c0.353,0,0.742-0.049,1.165-0.15
			c2.044-0.499,2.894-1.89,2.398-3.911c-0.309-1.273-0.816-1.894-1.522-2.287c-0.7-0.389-1.588-0.558-2.659-0.922
			c-0.571-0.218-0.973-0.461-1.055-1.104c-0.057-0.478,0.167-0.831,0.683-0.915c0.061-0.01,0.12-0.015,0.174-0.015
			c0.676,0,0.841,0.769,1.006,1.332l2.271-0.55C45.957,17.298,44.895,16.205,43.298,16.205"/>
		<path fill="#010101" d="M52.307,15.161c-0.033,0-0.065,0.002-0.099,0.002c-1.964,0.04-3.166,1.106-3.125,3.137
			c0.019,0.953,0.306,1.611,0.78,2.146c0.488,0.541,1.161,0.943,1.948,1.374c0.67,0.389,1.426,0.721,1.449,1.628
			c0.008,0.549-0.24,1.089-0.83,1.101h-0.033c-0.781,0-0.986-0.539-1-1.148l-0.018-0.763l-2.352,0.047l0.025,1.152
			c0.028,1.402,1.002,2.659,3.236,2.659c0.04,0,0.081,0,0.121-0.002c2.106-0.042,3.235-1.22,3.192-3.292
			c-0.027-1.313-0.391-2.029-0.992-2.562c-0.602-0.535-1.43-0.894-2.395-1.48c-0.513-0.336-0.852-0.664-0.791-1.312
			c0.047-0.452,0.314-0.74,0.783-0.74c0.023,0,0.052,0.001,0.08,0.001c0.839,0.038,0.826,0.905,0.869,1.539l2.336-0.049
			C55.564,16.6,54.447,15.161,52.307,15.161"/>
	</g>
	
		<rect x="53.89" y="20.106" transform="matrix(-0.2024 0.9793 -0.9793 -0.2024 92.231 -32.3673)" display="inline" fill="#010101" width="10.813" height="2.539"/>
	<polygon display="inline" fill="#010101" points="65.15,17.144 61.461,27.31 63.848,28.178 65.406,23.883 68.375,24.959 
		69.113,22.925 66.141,21.843 66.798,20.044 70.025,21.217 70.762,19.184 	"/>
	
		<rect x="66.437" y="24.586" transform="matrix(-0.514 0.8578 -0.8578 -0.514 130.9457 -22.4861)" display="inline" fill="#010101" width="10.812" height="2.537"/>
	<polygon display="inline" fill="#010101" points="78.911,24 71.791,32.142 76.29,36.08 77.715,34.451 75.123,32.18 76.662,30.424 
		79.05,32.514 80.471,30.884 78.087,28.794 79.396,27.301 81.859,29.455 83.283,27.827 	"/>
	<path display="inline" fill="#010101" d="M85.792,30.717l-8.603,6.551l2.067,2.721c0.472,0.621,1.019,1.218,1.767,1.482
		c0.244,0.093,0.49,0.138,0.738,0.138c0.579,0,1.168-0.241,1.772-0.692l3.817-2.907c0.828-0.628,1.569-1.395,1.438-2.524
		c-0.121-0.941-0.771-1.845-1.328-2.575L85.792,30.717z M81.439,39.04c-0.369,0-0.729-0.264-1.166-0.93l5.506-4.192
		c0.729,1.002,0.926,1.38-0.076,2.16l-2.809,2.139C82.298,38.698,81.859,39.04,81.439,39.04"/>
</g>
<g id="Layer_9" display="none">
	<g display="inline">
		<path fill="#010101" d="M19.52,76.02v-6.494h1.31v6.494H19.52z"/>
		<path fill="#010101" d="M25.429,69.525v1.072H23.11v1.527h2.183v1.073H23.11v1.745h2.41v1.074H21.8v-6.494h3.629V69.525z"/>
		<path fill="#010101" d="M28.945,71.717c0-0.945-0.191-1.354-0.782-1.354c-0.655,0-0.818,0.654-0.818,2.501
			c0,1.964,0.273,2.317,0.836,2.317c0.464,0,0.819-0.236,0.819-1.646h1.31c0,1.409-0.346,2.608-2.064,2.608
			c-1.964,0-2.21-1.399-2.21-3.373s0.246-3.373,2.21-3.373c1.874,0,2.01,1.373,2.01,2.317L28.945,71.717L28.945,71.717z"/>
		<path fill="#010101" d="M35.605,71.217c0-0.5-0.154-0.781-0.591-0.781c-0.691,0-0.8,0.69-0.8,1.637v0.318h0.018
			c0.218-0.336,0.637-0.556,1.209-0.556c1.137,0,1.573,0.847,1.573,2.011c0,1.481-0.636,2.301-2.083,2.301
			c-1.801,0-2.028-1.438-2.028-3.011c0-1.819,0.036-3.556,2.165-3.556c0.927,0,1.764,0.4,1.792,1.637H35.605L35.605,71.217z
			 M34.996,75.291c0.628,0,0.709-0.546,0.709-1.273c0-0.873-0.2-1.219-0.709-1.219c-0.518,0-0.718,0.346-0.718,1.219
			C34.278,74.755,34.387,75.291,34.996,75.291z"/>
		<path fill="#010101" d="M38.794,76.02v-4.547h-1.282v-0.855h0.118c0.864,0,1.373-0.318,1.509-1.036h0.964v6.438H38.794z"/>
		<path fill="#010101" d="M41.629,73.607l2.137-4.027h1.355v4.083h0.618v1.019h-0.618v1.338H43.92v-1.338h-2.292L41.629,73.607
			L41.629,73.607z M43.92,71.217h-0.018l-1.255,2.446h1.273V71.217z"/>
		<path fill="#010101" d="M47.082,72.607V72.59c-0.7-0.173-0.928-0.781-0.928-1.236c0-1.265,0.718-1.772,1.892-1.772
			c1.174,0,1.892,0.509,1.892,1.772c0,0.455-0.246,1.063-0.928,1.236v0.02c0.728,0.146,1.091,0.781,1.091,1.591
			c0,0.737-0.264,1.946-2.055,1.946s-2.055-1.209-2.055-1.946C45.991,73.391,46.354,72.754,47.082,72.607z M48.046,75.291
			c0.591,0,0.746-0.491,0.746-1.109c0-0.617-0.154-1.108-0.746-1.108c-0.592,0-0.746,0.489-0.746,1.108S47.455,75.291,48.046,75.291
			z M48.046,72.217c0.391,0,0.637-0.291,0.637-0.9c0-0.59-0.209-0.881-0.637-0.881c-0.428,0-0.637,0.291-0.637,0.881
			C47.409,71.926,47.655,72.217,48.046,72.217z"/>
		<path fill="#010101" d="M54.354,76.02h-3.964c0-1.146,0.464-1.938,1.419-2.819l0.526-0.491c0.582-0.509,0.673-0.818,0.673-1.473
			c0-0.537-0.209-0.801-0.637-0.801c-0.646,0-0.729,0.572-0.729,1.254h-1.254v-0.244c0-1.2,0.619-1.864,2-1.864
			c1.301,0,1.928,0.637,1.928,1.755c0,0.837-0.271,1.393-1,2.046l-0.728,0.675c-0.391,0.354-0.601,0.699-0.664,0.944h2.429V76.02
			L54.354,76.02z"/>
		<path fill="#010101" d="M57.552,72.854v1.073h-2.563v-1.073H57.552z"/>
		<path fill="#010101" d="M62.078,76.02h-3.965c0-1.146,0.464-1.938,1.418-2.819l0.527-0.491c0.582-0.509,0.674-0.818,0.674-1.473
			c0-0.537-0.211-0.801-0.637-0.801c-0.646,0-0.729,0.572-0.729,1.254h-1.256v-0.244c0-1.2,0.619-1.864,2-1.864
			c1.302,0,1.93,0.637,1.93,1.755c0,0.837-0.273,1.393-1.001,2.046l-0.728,0.675c-0.392,0.354-0.601,0.699-0.664,0.944h2.429
			L62.078,76.02L62.078,76.02z"/>
		<path fill="#010101" d="M62.803,71.28h1.2v1.419h-1.2V71.28z M62.803,74.6h1.2v1.42h-1.2V74.6z"/>
		<path fill="#010101" d="M68.621,76.02h-3.965c0-1.146,0.464-1.938,1.418-2.819l0.527-0.491c0.582-0.509,0.674-0.818,0.674-1.473
			c0-0.537-0.211-0.801-0.637-0.801c-0.646,0-0.729,0.572-0.729,1.254h-1.256v-0.244c0-1.2,0.619-1.864,2-1.864
			c1.302,0,1.93,0.637,1.93,1.755c0,0.837-0.273,1.393-1.001,2.046l-0.728,0.675c-0.392,0.354-0.601,0.699-0.664,0.944h2.429
			L68.621,76.02L68.621,76.02z"/>
		<path fill="#010101" d="M71.037,69.58c1.564,0,2.02,0.846,2.02,3.128c0,1.782-0.101,3.438-2.02,3.438
			c-1.564,0-2.02-0.847-2.02-3.129C69.02,71.234,69.118,69.58,71.037,69.58z M70.328,73.3c0,1.628,0.154,1.991,0.709,1.991
			c0.572,0,0.709-0.51,0.709-2.164v-0.7c0-1.628-0.154-1.991-0.709-1.991c-0.573,0-0.709,0.51-0.709,2.164V73.3z"/>
		<path fill="#010101" d="M74.872,76.02v-4.547H73.59v-0.855h0.118c0.864,0,1.373-0.318,1.51-1.036h0.964v6.438H74.872z"/>
		<path fill="#010101" d="M78.797,72.607V72.59c-0.699-0.173-0.928-0.781-0.928-1.236c0-1.265,0.719-1.772,1.893-1.772
			c1.172,0,1.891,0.509,1.891,1.772c0,0.455-0.244,1.063-0.928,1.236v0.02c0.729,0.146,1.092,0.781,1.092,1.591
			c0,0.737-0.264,1.946-2.055,1.946c-1.793,0-2.057-1.209-2.057-1.946C77.705,73.391,78.068,72.754,78.797,72.607z M79.762,75.291
			c0.59,0,0.745-0.491,0.745-1.109c0-0.617-0.155-1.108-0.745-1.108c-0.592,0-0.746,0.491-0.746,1.108
			C79.016,74.8,79.17,75.291,79.762,75.291z M79.762,72.217c0.391,0,0.637-0.291,0.637-0.9c0-0.59-0.209-0.881-0.637-0.881
			c-0.429,0-0.638,0.291-0.638,0.881C79.124,71.926,79.37,72.217,79.762,72.217z"/>
	</g>
	<g display="inline">
		<path fill="#010101" d="M40.677,82.622c0-0.945-0.191-1.354-0.782-1.354c-0.655,0-0.818,0.654-0.818,2.502
			c0,1.963,0.273,2.317,0.836,2.317c0.464,0,0.819-0.235,0.819-1.646h1.31c0,1.408-0.346,2.608-2.064,2.608
			c-1.964,0-2.21-1.399-2.21-3.374c0-1.973,0.246-3.374,2.21-3.374c1.874,0,2.01,1.374,2.01,2.319L40.677,82.622L40.677,82.622z"/>
		<path fill="#010101" d="M42.792,80.432h1.255v6.492h-1.255V80.432z"/>
		<path fill="#010101" d="M44.919,83.531v-0.118c0-1.127,0.773-1.509,1.719-1.509c1.492,0,1.773,0.617,1.773,1.5v2.574
			c0,0.463,0.037,0.653,0.155,0.944h-1.201c-0.082-0.153-0.118-0.337-0.154-0.51h-0.019c-0.291,0.51-0.636,0.637-1.246,0.637
			c-0.873,0-1.182-0.745-1.182-1.399c0-0.928,0.373-1.291,1.236-1.527l0.709-0.191c0.373-0.1,0.5-0.244,0.5-0.572
			c0-0.373-0.155-0.601-0.582-0.601c-0.391,0-0.582,0.245-0.582,0.638v0.136L44.919,83.531L44.919,83.531z M47.211,84.479
			c-0.173,0.137-0.382,0.209-0.537,0.244c-0.509,0.109-0.709,0.355-0.709,0.793c0,0.371,0.136,0.682,0.473,0.682
			s0.773-0.209,0.773-0.756V84.479z"/>
		<path fill="#010101" d="M50.217,85.323v0.163c0,0.428,0.227,0.709,0.655,0.709c0.392,0,0.637-0.19,0.637-0.581
			c0-0.318-0.21-0.455-0.454-0.556l-0.883-0.317c-0.691-0.245-1.046-0.673-1.046-1.364c0-0.8,0.519-1.473,1.801-1.473
			c1.138,0,1.673,0.509,1.673,1.391v0.2h-1.127c0-0.5-0.146-0.736-0.555-0.736c-0.318,0-0.591,0.173-0.591,0.527
			c0,0.245,0.118,0.437,0.546,0.573l0.755,0.254c0.791,0.264,1.082,0.664,1.082,1.4c0,1.027-0.765,1.536-1.819,1.536
			c-1.417,0-1.801-0.608-1.801-1.555v-0.173L50.217,85.323L50.217,85.323z"/>
		<path fill="#010101" d="M54.252,85.323v0.163c0,0.428,0.229,0.709,0.655,0.709c0.391,0,0.637-0.19,0.637-0.581
			c0-0.318-0.209-0.455-0.455-0.556l-0.882-0.317c-0.691-0.245-1.046-0.673-1.046-1.364c0-0.8,0.519-1.473,1.801-1.473
			c1.138,0,1.673,0.509,1.673,1.391v0.2h-1.127c0-0.5-0.146-0.736-0.555-0.736c-0.318,0-0.592,0.173-0.592,0.527
			c0,0.245,0.117,0.437,0.546,0.573l0.755,0.254c0.791,0.264,1.082,0.664,1.082,1.4c0,1.027-0.764,1.536-1.818,1.536
			c-1.419,0-1.801-0.608-1.801-1.555v-0.173L54.252,85.323L54.252,85.323z"/>
		<path fill="#010101" d="M60.786,86.924v-4.547h-1.282v-0.855h0.118c0.864,0,1.373-0.317,1.51-1.035h0.964v6.438H60.786z"/>
	</g>
	<path display="inline" fill="none" stroke="#010101" stroke-width="0.5" stroke-miterlimit="2.613" d="M50.469,34.188l7.897,10.486
		l7.899,10.489H50.469H34.674l7.9-10.489L50.469,34.188z M46.102,39.962H34.674l7.9-10.486l7.895-10.486l7.897,10.486l7.899,10.486
		H54.792 M26.403,12.125h48.133v52.52H26.403V12.125z"/>
</g>
<g id="Layer_10" display="none">
	<g display="inline">
		<path fill="#010101" d="M9.258,68.632v1.042H7.005v1.484h2.121V72.2H7.005v1.696h2.341v1.043H5.733v-6.309L9.258,68.632
			L9.258,68.632z"/>
		<path fill="#010101" d="M11.448,68.632l1.538,4.319h0.018v-4.319h1.166v6.308h-1.45l-1.555-4.416h-0.018v4.416H9.981v-6.308
			H11.448z"/>
		<path fill="#010101" d="M18.337,74.939v-4.418h-1.246v-0.83h0.115c0.839,0,1.334-0.31,1.467-1.008h0.937v6.256H18.337z"/>
		<path fill="#010101" d="M22.364,73.109c0.009,0.733,0.141,1.123,0.698,1.123c0.61,0,0.698-0.459,0.698-1.008
			c0-0.557-0.124-1.068-0.822-1.068h-0.424v-0.83h0.416c0.53,0,0.725-0.479,0.725-0.989c0-0.593-0.195-0.821-0.61-0.821
			c-0.548,0-0.645,0.424-0.645,1.017h-1.166c0-1.237,0.645-1.847,1.837-1.847c1.14,0,1.802,0.502,1.802,1.606
			c0,0.751-0.353,1.246-0.954,1.379v0.019c0.813,0.131,1.113,0.688,1.113,1.476c0,0.849-0.345,1.899-2.076,1.899
			c-1.21,0-1.811-0.726-1.811-1.928v-0.027H22.364z"/>
		<path fill="#010101" d="M27.328,68.686c1.52,0,1.961,0.82,1.961,3.039c0,1.73-0.097,3.34-1.961,3.34
			c-1.52,0-1.961-0.822-1.961-3.039C25.367,70.292,25.464,68.686,27.328,68.686z M26.639,72.298c0,1.581,0.15,1.935,0.689,1.935
			c0.557,0,0.689-0.493,0.689-2.103v-0.681c0-1.581-0.15-1.936-0.689-1.936c-0.556,0-0.689,0.495-0.689,2.104V72.298z"/>
		<path fill="#010101" d="M30.843,73.109c0.009,0.733,0.141,1.123,0.698,1.123c0.61,0,0.698-0.459,0.698-1.008
			c0-0.557-0.124-1.068-0.822-1.068h-0.424v-0.83h0.416c0.53,0,0.724-0.479,0.724-0.989c0-0.593-0.194-0.821-0.609-0.821
			c-0.548,0-0.645,0.424-0.645,1.017h-1.166c0-1.237,0.645-1.847,1.837-1.847c1.14,0,1.802,0.502,1.802,1.606
			c0,0.751-0.353,1.246-0.954,1.379v0.019c0.813,0.131,1.113,0.688,1.113,1.476c0,0.849-0.345,1.899-2.076,1.899
			c-1.21,0-1.811-0.726-1.811-1.928v-0.027H30.843z"/>
		<path fill="#010101" d="M33.811,72.6l2.076-3.914h1.316v3.967h0.601v0.988h-0.601v1.299h-1.166v-1.299H33.81L33.811,72.6
			L33.811,72.6z M36.037,70.273H36.02L34.8,72.65h1.237V70.273z"/>
		<path fill="#010101" d="M38.404,70.337h1.166v1.378h-1.166V70.337z M38.404,73.563h1.166v1.377h-1.166V73.563z"/>
		<path fill="#010101" d="M44.058,74.939h-3.852c0-1.113,0.45-1.883,1.378-2.739l0.513-0.478c0.565-0.494,0.654-0.795,0.654-1.432
			c0-0.521-0.203-0.777-0.619-0.777c-0.627,0-0.707,0.557-0.707,1.221h-1.219v-0.239c0-1.166,0.601-1.812,1.943-1.812
			c1.264,0,1.873,0.618,1.873,1.705c0,0.813-0.265,1.353-0.972,1.987l-0.707,0.654c-0.38,0.345-0.583,0.68-0.645,0.919h2.359
			L44.058,74.939L44.058,74.939z"/>
		<path fill="#010101" d="M46.406,68.686c1.52,0,1.961,0.82,1.961,3.039c0,1.73-0.097,3.34-1.961,3.34
			c-1.52,0-1.961-0.822-1.961-3.039C44.445,70.292,44.542,68.686,46.406,68.686z M45.717,72.298c0,1.581,0.15,1.935,0.689,1.935
			c0.556,0,0.689-0.493,0.689-2.103v-0.681c0-1.581-0.15-1.936-0.689-1.936c-0.557,0-0.689,0.495-0.689,2.104V72.298z"/>
		<path fill="#010101" d="M50.646,68.686c1.521,0,1.961,0.82,1.961,3.039c0,1.73-0.098,3.34-1.961,3.34
			c-1.521,0-1.961-0.822-1.961-3.039C48.685,70.292,48.782,68.686,50.646,68.686z M49.957,72.298c0,1.581,0.15,1.935,0.689,1.935
			c0.557,0,0.688-0.493,0.688-2.103v-0.681c0-1.581-0.149-1.936-0.688-1.936c-0.557,0-0.689,0.495-0.689,2.104V72.298z"/>
		<path fill="#010101" d="M56.52,69.798h-2.306l-0.133,1.422H54.1c0.237-0.325,0.608-0.468,1.147-0.468
			c1.202,0,1.528,1.007,1.528,1.996c0,1.379-0.406,2.314-2.006,2.314c-1.59,0-1.847-1.033-1.847-1.74v-0.167h1.22
			c0,0.415,0.07,1.024,0.619,1.024c0.521,0,0.741-0.406,0.741-1.22c0-1.034-0.168-1.326-0.733-1.326
			c-0.361,0-0.557,0.222-0.602,0.575h-1.141l0.23-3.402h3.26v0.991H56.52z"/>
		<path fill="#010101" d="M61.227,73.252h-1.688v-1.096h1.688v-1.688h1.097v1.688h1.688v1.096h-1.688v1.688h-1.097V73.252z"/>
		<path fill="#010101" d="M68.213,68.632h1.572l1.67,6.308H70.13l-0.292-1.334H68.16l-0.292,1.334h-1.325L68.213,68.632z
			 M68.381,72.563h1.236l-0.609-2.836H68.99L68.381,72.563z"/>
		<path fill="#010101" d="M73.063,74.939v-4.418h-1.246v-0.83h0.115c0.84,0,1.334-0.31,1.467-1.008h0.937v6.256H73.063z"/>
		<path fill="#010101" d="M76.171,70.337h1.166v1.378h-1.166V70.337z M76.171,73.563h1.166v1.377h-1.166V73.563z"/>
		<path fill="#010101" d="M81.824,74.939h-3.852c0-1.113,0.449-1.883,1.377-2.739l0.514-0.478c0.564-0.494,0.652-0.795,0.652-1.432
			c0-0.521-0.203-0.777-0.617-0.777c-0.627,0-0.707,0.557-0.707,1.221h-1.219v-0.239c0-1.166,0.601-1.812,1.942-1.812
			c1.265,0,1.873,0.618,1.873,1.705c0,0.813-0.265,1.353-0.972,1.987l-0.707,0.654c-0.381,0.345-0.584,0.68-0.646,0.919h2.358v0.99
			H81.824z"/>
		<path fill="#010101" d="M84.173,68.686c1.521,0,1.962,0.82,1.962,3.039c0,1.73-0.098,3.34-1.962,3.34
			c-1.521,0-1.961-0.822-1.961-3.039C82.212,70.292,82.309,68.686,84.173,68.686z M83.484,72.298c0,1.581,0.148,1.935,0.688,1.935
			c0.557,0,0.689-0.493,0.689-2.103v-0.681c0-1.581-0.15-1.936-0.689-1.936c-0.557,0-0.688,0.495-0.688,2.104V72.298z"/>
		<path fill="#010101" d="M88.412,68.686c1.52,0,1.962,0.82,1.962,3.039c0,1.73-0.099,3.34-1.962,3.34
			c-1.52,0-1.961-0.822-1.961-3.039C86.451,70.292,86.548,68.686,88.412,68.686z M87.725,72.298c0,1.581,0.148,1.935,0.688,1.935
			c0.557,0,0.689-0.493,0.689-2.103v-0.681c0-1.581-0.15-1.936-0.689-1.936c-0.557,0-0.688,0.495-0.688,2.104V72.298z"/>
		<path fill="#010101" d="M92.025,73.48c0,0.47,0.149,0.752,0.574,0.752c0.672,0,0.776-0.672,0.776-1.59v-0.302h-0.019
			c-0.211,0.318-0.617,0.53-1.174,0.53c-1.104,0-1.529-0.821-1.529-1.952c0-1.44,0.619-2.235,2.022-2.235
			c1.741,0,1.972,1.396,1.972,2.924c0,1.776-0.045,3.455-2.104,3.455c-0.9,0-1.714-0.379-1.74-1.582H92.025z M92.617,71.936
			c0.504,0,0.697-0.336,0.697-1.184c0-0.716-0.105-1.236-0.697-1.236c-0.609,0-0.689,0.529-0.689,1.236
			C91.928,71.6,92.122,71.936,92.617,71.936z"/>
	</g>
	<g display="inline">
		<path fill="#010101" d="M38.148,79.23v1.043H36.77v5.266h-1.272v-5.266H34.12V79.23H38.148z"/>
		<path fill="#010101" d="M38.183,86.184c0.106,0.02,0.212,0.027,0.318,0.027c0.45,0,0.618-0.248,0.654-0.672l-1.334-4.753h1.272
			l0.707,3.286h0.018l0.618-3.286h1.219l-1.148,4.435c-0.424,1.645-0.698,1.873-1.829,1.873h-0.495V86.184z"/>
		<path fill="#010101" d="M42.104,80.786h1.167v0.503h0.018c0.274-0.45,0.592-0.627,1.078-0.627c0.999,0,1.458,0.732,1.458,2.5
			s-0.459,2.501-1.458,2.501c-0.459,0-0.769-0.187-1.025-0.565h-0.018v1.996h-1.219L42.104,80.786L42.104,80.786z M43.968,84.727
			c0.53,0,0.636-0.529,0.636-1.563c0-1.033-0.106-1.563-0.636-1.563c-0.539,0-0.645,0.53-0.645,1.563
			C43.323,84.195,43.429,84.727,43.968,84.727z"/>
		<path fill="#010101" d="M47.563,83.348v0.381c0,0.564,0.15,1.104,0.601,1.104c0.415,0,0.574-0.291,0.645-0.893h1.095
			c-0.044,1.104-0.557,1.724-1.723,1.724c-1.767,0-1.838-1.361-1.838-2.545c0-1.272,0.248-2.456,1.891-2.456
			c1.422,0,1.74,0.954,1.74,2.412v0.273H47.563L47.563,83.348z M48.809,82.624c-0.027-0.726-0.115-1.131-0.619-1.131
			c-0.486,0-0.627,0.493-0.627,0.944v0.187H48.809z"/>
		<path fill="#010101" d="M52.766,79.23h2.227c1.299,0,1.73,0.945,1.73,1.892c0,1.308-0.804,1.899-2.005,1.899h-0.681v2.518h-1.271
			V79.23z M54.037,82.085h0.564c0.504,0,0.85-0.301,0.85-0.944c0-0.629-0.248-0.973-0.885-0.973h-0.529V82.085z"/>
		<path fill="#010101" d="M57.35,79.23h2.129c1.043,0,1.793,0.39,1.793,1.6c0,0.681-0.317,1.201-0.953,1.378v0.019
			c0.707,0.098,1.147,0.618,1.147,1.467c0,0.988-0.485,1.847-1.97,1.847H57.35V79.23z M58.621,81.818h0.361
			c0.707,0,1.017-0.229,1.017-0.829s-0.282-0.821-0.918-0.821h-0.46V81.818z M58.621,84.604h0.495c0.608,0,1.024-0.222,1.024-0.955
			c0-0.732-0.416-0.944-0.973-0.944H58.62L58.621,84.604L58.621,84.604z"/>
		<path fill="#010101" d="M64.566,80.874c0-0.485-0.15-0.76-0.574-0.76c-0.672,0-0.778,0.672-0.778,1.591v0.309h0.019
			c0.213-0.326,0.619-0.539,1.176-0.539c1.104,0,1.527,0.822,1.527,1.953c0,1.439-0.617,2.235-2.022,2.235
			c-1.749,0-1.97-1.396-1.97-2.925c0-1.768,0.035-3.454,2.103-3.454c0.901,0,1.714,0.389,1.74,1.59H64.566z M63.975,84.832
			c0.609,0,0.688-0.53,0.688-1.236c0-0.849-0.194-1.185-0.688-1.185c-0.504,0-0.697,0.336-0.697,1.185
			C63.275,84.311,63.382,84.832,63.975,84.832z"/>
	</g>
	<g display="inline">
		<path fill="#010101" d="M57.96,51.604c-0.706,1.84-0.567,2.613-5.657,2.899c-5.089,0.282-5.089-0.071-5.089-0.071
			s-8.417,1.25-4.634-5.174l3.565-10.595h7.212L57.96,51.604z"/>
		<path fill="none" stroke="#010101" stroke-width="0.64" stroke-linecap="round" stroke-miterlimit="3.864" d="M46.913,29.531
			c0,0,2.067,0.438,0.58,4.965c-1.059,3.392-3.476,10.523-4.609,13.88c-0.826,2.426-2.64,6.128,2.067,6.128h9.896
			c0,0,4.387,0.072,2.406-5.586c-1.693-4.83-3.97-9.571-5.488-14.437c-0.418-1.337-0.893-3.649,1.385-4.934"/>
		<path fill="none" stroke="#010101" stroke-width="0.64" stroke-linecap="round" stroke-miterlimit="3.864" d="M56.539,20.517
			c1.051,0.666,1.697,0.876,2.415,0.89c2.626,0.052,1.685-1.425,3.399-2.1c0.662-0.257,1.687-0.101,3.234,1.209 M56.471,29.425
			c1.159,0.721,2.122,0.917,2.87,0.896c2.354-0.073,1.765-1.633,3.517-1.908c0.658-0.102,1.338-0.105,2.664,1.012 M50.676,27.16
			c0,0,2.264-2.546,5.235-0.707c1.296,0.804,2.247,0.981,3.269,0.902c2.735-0.214,2.104-1.799,3.911-2.182
			c0.663-0.138,1.622,0.112,3.002,1.28 M50.326,24.172c0,0,2.258-2.544,5.229-0.705c1.346,0.83,2.661,0.968,3.699,0.869
			c2.604-0.253,1.753-1.542,3.479-2.146c0.641-0.226,1.621,0.108,3.004,1.277"/>
		<path fill="none" stroke="#010101" stroke-width="0.361" stroke-miterlimit="3.864" d="M50.025,63.646
			c0,0-17.028-5.321-19.404-28.229L30.458,12.72h39.146l-0.162,22.697C67.064,58.324,50.025,63.646,50.025,63.646z"/>
	</g>
</g>
<g id="Layer_11" display="none">
	<g display="inline">
		<path fill="#010101" d="M28.993,73.575h-9.114c-2.256,0-4.305-0.918-5.79-2.404c-1.479-1.481-2.401-3.526-2.401-5.784V23.614
			c0-2.247,0.925-4.295,2.414-5.783c1.481-1.482,3.528-2.403,5.778-2.403h59.597c2.258,0,4.303,0.92,5.785,2.403
			c1.481,1.481,2.407,3.531,2.407,5.783v41.772c0,2.249-0.926,4.291-2.407,5.773c-1.486,1.49-3.533,2.415-5.785,2.415h-6.842H28.993
			z"/>
		<path fill="#FFCB0B" d="M13.006,31.115v-7.5c0-1.821,0.716-3.54,2.019-4.842c1.305-1.311,3.032-2.03,4.853-2.03h59.599
			c1.832,0,3.559,0.716,4.854,2.017c1.301,1.304,2.019,3.027,2.019,4.855v7.5H13.006z"/>
	</g>
	<rect x="35.092" y="20.09" display="inline" fill="#FFCB0B" width="29.076" height="7.991"/>
	<g display="inline">
		<path fill="#FFCB0B" d="M19.878,72.258c-1.83,0-3.553-0.72-4.855-2.021c-1.3-1.305-2.015-3.025-2.015-4.853v-7.499h73.34v7.499
			c0,1.819-0.714,3.537-2.02,4.837c-1.307,1.312-3.029,2.036-4.854,2.036L19.878,72.258L19.878,72.258z"/>
	</g>
	<rect x="27.336" y="61.006" display="inline" fill="#FFCB0B" width="40.775" height="8.256"/>
	<rect x="69.139" y="60.734" display="inline" fill="#FFCB0B" width="3.084" height="4.681"/>
	<g display="inline">
		<path fill="#010101" d="M38.849,19.875h1.175l3.12,7.986H41.97l-0.872-2.405H37.72l-0.896,2.405h-1.096L38.849,19.875z
			 M38.055,24.562h2.707l-1.331-3.725h-0.022L38.055,24.562z"/>
		<path fill="#010101" d="M45.736,20.77h-2.662v-0.895h6.387v0.895h-2.662v7.091h-1.063V20.77z"/>
		<path fill="#010101" d="M50.342,19.875h3.501c1.599,0,2.449,0.873,2.449,2.36c0,1.488-0.851,2.371-2.449,2.36h-2.438v3.266h-1.063
			V19.875z M51.404,23.7h2.08c1.207,0.011,1.744-0.515,1.744-1.465c0-0.95-0.537-1.465-1.744-1.465h-2.08V23.7z"/>
		<path fill="#010101" d="M60.73,27.861h-1.209l-2.817-7.986h1.151l2.281,6.923h0.022l2.304-6.923h1.107L60.73,27.861z"/>
	</g>
	<g display="inline">
		<path fill="#010101" d="M32.813,63.413c-0.234-1.13-1.118-1.7-2.237-1.7c-1.901,0-2.706,1.564-2.706,3.232
			c0,1.822,0.805,3.344,2.718,3.344c1.387,0,2.215-0.982,2.304-2.305h1.063c-0.212,2.002-1.432,3.199-3.456,3.199
			c-2.472,0-3.69-1.834-3.69-4.16s1.319-4.205,3.78-4.205c1.666,0,3.054,0.895,3.288,2.595H32.813L32.813,63.413z"/>
		<path fill="#010101" d="M37.439,61.008h1.175l3.12,7.986H40.56l-0.872-2.404H36.31l-0.896,2.404h-1.096L37.439,61.008z
			 M36.646,65.693h2.707l-1.331-3.725H38L36.646,65.693z"/>
		<path fill="#010101" d="M42.516,61.008h1.063V68.1h4.228v0.896h-5.29L42.516,61.008L42.516,61.008z"/>
		<path fill="#010101" d="M50.969,60.818h0.816l-3.311,8.365h-0.816L50.969,60.818z"/>
		<path fill="#010101" d="M58.068,63.413c-0.234-1.13-1.117-1.7-2.236-1.7c-1.9,0-2.706,1.564-2.706,3.232
			c0,1.822,0.806,3.344,2.718,3.344c1.387,0,2.215-0.982,2.305-2.305h1.063c-0.213,2.002-1.432,3.199-3.456,3.199
			c-2.472,0-3.69-1.834-3.69-4.16s1.319-4.205,3.781-4.205c1.666,0,3.053,0.895,3.287,2.595H58.068L58.068,63.413z"/>
		<path fill="#010101" d="M60.549,61.008h1.454l2.517,6.711l2.528-6.711h1.453v7.986h-1.006V62.35h-0.022l-2.494,6.645h-0.905
			l-2.494-6.645h-0.022v6.645H60.55L60.549,61.008L60.549,61.008z"/>
	</g>
	<g display="inline">
		<path fill="#010101" d="M69.686,62.289c-0.053-0.938,0.508-1.635,1.485-1.635c0.802,0,1.446,0.469,1.446,1.328
			c0,0.814-0.549,1.219-1.121,1.584c-0.573,0.346-1.191,0.65-1.296,1.219h2.37v0.488h-3.016c0.084-1.088,0.646-1.5,1.297-1.891
			c0.78-0.488,1.178-0.762,1.178-1.406c0-0.502-0.402-0.834-0.893-0.834c-0.645,0-0.918,0.592-0.898,1.146L69.686,62.289
			L69.686,62.289z"/>
	</g>
	<g display="inline">
		<path fill="#010101" d="M22.956,77.684h1.991l2.113,7.986h-1.678l-0.369-1.688h-2.125L22.52,85.67h-1.678L22.956,77.684z
			 M23.168,82.661h1.566l-0.771-3.591H23.94L23.168,82.661z"/>
		<path fill="#010101" d="M28.915,83.176v0.234c0,0.75,0.213,1.23,1.063,1.23c0.492,0,0.962-0.313,0.962-0.984
			c0-0.717-0.358-1.006-1.432-1.364c-1.432-0.479-2.092-1.097-2.092-2.416c0-1.565,0.939-2.349,2.472-2.349
			c1.432,0,2.473,0.615,2.473,2.146v0.225h-1.544c0-0.762-0.246-1.187-0.872-1.187c-0.728,0-0.918,0.447-0.918,0.929
			c0,0.492,0.146,0.806,0.828,1.086l1.241,0.535c1.208,0.537,1.521,1.131,1.521,2.114c0,1.688-1.029,2.449-2.773,2.449
			c-1.823,0-2.539-0.851-2.539-2.326v-0.324L28.915,83.176L28.915,83.176z"/>
		<path fill="#010101" d="M38.096,77.684v1.32h-1.744v6.666H34.74v-6.666h-1.744v-1.32H38.096z"/>
		<path fill="#010101" d="M38.821,77.684h2.394l1.141,5.639h0.022l1.152-5.639h2.382v7.986h-1.477v-6.375h-0.022l-1.42,6.375H41.74
			l-1.421-6.375h-0.021v6.375h-1.477V77.684z"/>
		<path fill="#010101" d="M49.744,77.684h4.463v1.32h-2.854v1.879h2.686v1.32h-2.686v3.467h-1.609V77.684z"/>
		<path fill="#010101" d="M59.08,85.67v-5.593h-1.576v-1.052h0.145c1.063,0,1.689-0.392,1.857-1.274h1.186v7.919H59.08z"/>
		<path fill="#010101" d="M64.303,83.824c0,0.593,0.189,0.951,0.727,0.951c0.851,0,0.984-0.852,0.984-2.015v-0.38h-0.021
			c-0.27,0.402-0.783,0.671-1.487,0.671c-1.397,0-1.937-1.04-1.937-2.472c0-1.823,0.783-2.83,2.563-2.83
			c2.203,0,2.494,1.768,2.494,3.702c0,2.248-0.057,4.373-2.662,4.373c-1.141,0-2.17-0.48-2.203-2.002L64.303,83.824L64.303,83.824z
			 M65.052,81.867c0.638,0,0.884-0.426,0.884-1.499c0-0.905-0.135-1.565-0.884-1.565c-0.771,0-0.872,0.672-0.872,1.565
			C64.18,81.441,64.426,81.867,65.052,81.867z"/>
		<path fill="#010101" d="M72.532,79.16h-2.921l-0.166,1.801h0.021c0.304-0.414,0.772-0.593,1.454-0.593
			c1.521,0,1.936,1.274,1.936,2.528c0,1.744-0.515,2.93-2.539,2.93c-2.014,0-2.338-1.309-2.338-2.203V83.41h1.545
			c0,0.525,0.088,1.298,0.781,1.298c0.66,0,0.939-0.515,0.939-1.544c0-1.309-0.212-1.678-0.928-1.678
			c-0.459,0-0.705,0.279-0.762,0.728h-1.441l0.289-4.306h4.129L72.532,79.16L72.532,79.16z"/>
		<path fill="#010101" d="M75.036,83.824c0,0.593,0.188,0.951,0.728,0.951c0.85,0,0.983-0.852,0.983-2.015v-0.38h-0.022
			c-0.269,0.402-0.783,0.671-1.486,0.671c-1.398,0-1.937-1.04-1.937-2.472c0-1.823,0.783-2.83,2.562-2.83
			c2.203,0,2.494,1.768,2.494,3.702c0,2.248-0.056,4.373-2.662,4.373c-1.141,0-2.17-0.48-2.202-2.002L75.036,83.824L75.036,83.824z
			 M75.785,81.867c0.638,0,0.884-0.426,0.884-1.499c0-0.905-0.135-1.565-0.884-1.565c-0.771,0-0.872,0.672-0.872,1.565
			C74.913,81.441,75.159,81.867,75.785,81.867z"/>
	</g>
	<g display="inline">
		<path fill="#FFFFFF" d="M36.261,48.191c0.089,0.355,0.311,0.622,0.688,0.822c0.354,0.177,0.732,0.222,1.065,0.222
			c1.998,0,2.531-1.865,2.775-3.108l-0.045-0.044c-0.977,0.866-2.131,1.221-3.463,1.221c-3.042,0-5.24-1.731-5.24-4.906
			c0-3.73,2.997-5.772,6.506-5.772c4.528,0,6.505,3.463,6.505,7.349c0,4.907-2.31,8.458-7.038,8.458
			c-2.842,0-5.351-1.199-5.817-4.241h4.064V48.191z M36.127,42.263c0,1.199,1.066,2.087,2.221,2.087c1.199,0,2.22-0.821,2.22-2.064
			c0-1.244-0.932-2.154-2.176-2.154C37.215,40.132,36.127,41.042,36.127,42.263z"/>
		<path fill="#FFFFFF" d="M47.366,47.858h4.618v4.396h-4.618V47.858z"/>
		<path fill="#FFFFFF" d="M60.777,36.624c4.264,0,6.262,1.998,6.262,4.241c0,1.598-0.934,2.908-2.42,3.241v0.044
			c1.709,0.178,3.041,1.487,3.041,3.397c0,3.663-3.752,4.885-6.883,4.885c-3.33,0-6.859-1.134-6.859-4.885
			c0-2.62,1.953-3.219,3.086-3.397v-0.044c-1.665-0.444-2.398-1.554-2.398-3.241C54.605,37.49,58.225,36.624,60.777,36.624z
			 M60.777,49.234c1.089,0,2.486-0.377,2.486-1.709c0-1.51-1.133-1.998-2.441-1.998s-2.51,0.444-2.51,1.998
			C58.313,48.857,59.668,49.234,60.777,49.234z M60.756,42.929c1.088,0,2.331-0.311,2.331-1.621c0-1.465-1.153-1.732-2.31-1.732
			c-1.154,0-2.221,0.333-2.221,1.732C58.559,42.552,59.689,42.929,60.756,42.929z"/>
	</g>
</g>
<g id="Layer_12" display="none">
	<g display="inline">
		<path fill="#010101" d="M21.501,68.645v1.043h-2.253v1.483h2.121v1.042h-2.121v1.696h2.341v1.043h-3.613v-6.308H21.501
			L21.501,68.645z"/>
		<path fill="#010101" d="M23.693,68.645l1.538,4.319h0.018v-4.319h1.166v6.309h-1.449l-1.555-4.417h-0.018v4.417h-1.166v-6.309
			H23.693z"/>
		<path fill="#010101" d="M29.482,74.952v-6.308h1.272v6.308H29.482z"/>
		<path fill="#010101" d="M32.726,72.982v0.186c0,0.592,0.167,0.973,0.839,0.973c0.389,0,0.76-0.248,0.76-0.777
			c0-0.565-0.283-0.797-1.131-1.078c-1.131-0.38-1.652-0.866-1.652-1.908c0-1.236,0.742-1.855,1.953-1.855
			c1.131,0,1.952,0.485,1.952,1.696v0.177h-1.219c0-0.601-0.195-0.937-0.689-0.937c-0.574,0-0.725,0.354-0.725,0.733
			c0,0.389,0.115,0.636,0.654,0.855l0.981,0.426c0.954,0.424,1.202,0.892,1.202,1.668c0,1.334-0.813,1.937-2.191,1.937
			c-1.44,0-2.005-0.672-2.005-1.838v-0.257H32.726L32.726,72.982z"/>
		<path fill="#010101" d="M38.301,68.521c1.908,0,2.147,1.359,2.147,3.276s-0.239,3.278-2.147,3.278
			c-1.908,0-2.147-1.361-2.147-3.278S36.393,68.521,38.301,68.521z M38.301,74.141c0.751,0,0.875-0.646,0.875-2.343
			c0-1.688-0.124-2.341-0.875-2.341s-0.875,0.652-0.875,2.341C37.427,73.494,37.55,74.141,38.301,74.141z"/>
		<path fill="#010101" d="M44.488,74.952v-4.417h-1.246v-0.831h0.115c0.839,0,1.334-0.31,1.467-1.007h0.937v6.255H44.488z"/>
		<path fill="#010101" d="M48.73,74.952v-4.417h-1.246v-0.831h0.115c0.839,0,1.334-0.31,1.467-1.007h0.937v6.255H48.73z"/>
		<path fill="#010101" d="M54.111,70.287c0-0.485-0.149-0.76-0.573-0.76c-0.672,0-0.778,0.672-0.778,1.591v0.309h0.018
			c0.214-0.325,0.619-0.538,1.177-0.538c1.104,0,1.528,0.821,1.528,1.952c0,1.439-0.619,2.235-2.023,2.235
			c-1.749,0-1.971-1.396-1.971-2.926c0-1.767,0.035-3.453,2.104-3.453c0.901,0,1.715,0.389,1.74,1.59H54.111z M53.52,74.245
			c0.61,0,0.689-0.53,0.689-1.236c0-0.849-0.193-1.185-0.689-1.185c-0.502,0-0.696,0.336-0.696,1.185
			C52.822,73.725,52.928,74.245,53.52,74.245z"/>
		<path fill="#010101" d="M57.215,74.952v-4.417h-1.246v-0.831h0.115c0.839,0,1.334-0.31,1.466-1.007h0.937v6.255H57.215z"/>
		<path fill="#010101" d="M63.857,74.952h-3.852c0-1.113,0.45-1.882,1.378-2.739l0.513-0.477c0.565-0.495,0.653-0.795,0.653-1.432
			c0-0.521-0.202-0.777-0.618-0.777c-0.627,0-0.707,0.557-0.707,1.22h-1.219v-0.239c0-1.166,0.602-1.811,1.943-1.811
			c1.264,0,1.873,0.617,1.873,1.705c0,0.813-0.266,1.352-0.973,1.986l-0.707,0.654c-0.379,0.346-0.582,0.68-0.645,0.919h2.357v0.99
			H63.857z"/>
		<path fill="#010101" d="M64.566,70.35h1.166v1.379h-1.166V70.35z M64.566,73.574h1.166v1.378h-1.166V73.574z"/>
		<path fill="#010101" d="M70.223,74.952H66.37c0-1.113,0.45-1.882,1.378-2.739l0.514-0.477c0.564-0.495,0.652-0.795,0.652-1.432
			c0-0.521-0.203-0.777-0.618-0.777c-0.627,0-0.707,0.557-0.707,1.22H66.37v-0.239c0-1.166,0.601-1.811,1.942-1.811
			c1.265,0,1.873,0.617,1.873,1.705c0,0.813-0.265,1.352-0.972,1.986l-0.707,0.654c-0.38,0.346-0.583,0.68-0.646,0.919h2.359v0.99
			H70.223z"/>
		<path fill="#010101" d="M72.573,68.697c1.52,0,1.962,0.82,1.962,3.039c0,1.73-0.098,3.34-1.962,3.34
			c-1.521,0-1.962-0.822-1.962-3.039C70.611,70.305,70.709,68.697,72.573,68.697z M71.885,72.311c0,1.582,0.149,1.936,0.688,1.936
			c0.557,0,0.688-0.494,0.688-2.104v-0.681c0-1.581-0.15-1.935-0.688-1.935c-0.558,0-0.688,0.494-0.688,2.103V72.311z"/>
		<path fill="#010101" d="M76.305,74.952v-4.417h-1.246v-0.831h0.114c0.839,0,1.334-0.31,1.466-1.007h0.938v6.255H76.305z"/>
		<path fill="#010101" d="M82.691,69.811h-2.305l-0.134,1.422h0.019c0.237-0.325,0.608-0.467,1.147-0.467
			c1.202,0,1.528,1.006,1.528,1.995c0,1.38-0.406,2.315-2.006,2.315c-1.59,0-1.846-1.034-1.846-1.741v-0.167h1.219
			c0,0.415,0.07,1.023,0.619,1.023c0.521,0,0.741-0.405,0.741-1.219c0-1.033-0.168-1.326-0.733-1.326
			c-0.361,0-0.557,0.223-0.602,0.576H79.2l0.229-3.402h3.26v0.99H82.691z"/>
	</g>
	<g display="inline">
		<path fill="#010101" d="M20.087,79.25h1.572l1.67,6.309h-1.325l-0.292-1.334h-1.679l-0.292,1.334h-1.325L20.087,79.25z
			 M20.255,83.182h1.237l-0.61-2.837h-0.018L20.255,83.182z"/>
		<path fill="#010101" d="M24.938,85.559v-4.418h-1.246v-0.83h0.115c0.839,0,1.334-0.31,1.467-1.008h0.937v6.256H24.938z"/>
		<path fill="#010101" d="M31.364,79.25h1.572l1.67,6.309h-1.325l-0.292-1.334H31.31l-0.292,1.334h-1.325L31.364,79.25z
			 M31.531,83.182h1.237l-0.61-2.837H32.14L31.531,83.182z"/>
		<path fill="#010101" d="M38.619,85.559h-3.852c0-1.113,0.45-1.883,1.378-2.74l0.513-0.477c0.565-0.494,0.654-0.795,0.654-1.432
			c0-0.521-0.203-0.777-0.619-0.777c-0.627,0-0.707,0.557-0.707,1.221h-1.219v-0.239c0-1.166,0.601-1.812,1.943-1.812
			c1.264,0,1.873,0.618,1.873,1.705c0,0.813-0.265,1.352-0.972,1.987l-0.707,0.653c-0.38,0.346-0.583,0.681-0.645,0.92h2.359
			L38.619,85.559L38.619,85.559z"/>
		<path fill="#010101" d="M41.412,79.25h2.129c1.042,0,1.793,0.389,1.793,1.6c0,0.681-0.318,1.2-0.954,1.377v0.019
			c0.707,0.098,1.148,0.619,1.148,1.467c0,0.989-0.486,1.847-1.97,1.847h-2.146V79.25z M42.684,81.838h0.362
			c0.707,0,1.016-0.229,1.016-0.83c0-0.601-0.283-0.822-0.919-0.822h-0.459V81.838z M42.684,84.621h0.495
			c0.61,0,1.025-0.221,1.025-0.954s-0.415-0.944-0.972-0.944h-0.548V84.621z"/>
		<path fill="#010101" d="M47.492,85.559v-4.418h-1.246v-0.83h0.115c0.839,0,1.334-0.31,1.467-1.008h0.937v6.256H47.492z"/>
		<path fill="#010101" d="M55.384,81.379c0-0.919-0.186-1.316-0.76-1.316c-0.638,0-0.796,0.637-0.796,2.431
			c0,1.907,0.266,2.253,0.813,2.253c0.45,0,0.795-0.23,0.795-1.6h1.272c0,1.369-0.336,2.535-2.006,2.535
			c-1.908,0-2.146-1.361-2.146-3.277c0-1.918,0.237-3.277,2.146-3.277c1.819,0,1.952,1.334,1.952,2.253L55.384,81.379L55.384,81.379
			z"/>
		<path fill="#010101" d="M58.602,85.559v-4.418h-1.246v-0.83h0.115c0.84,0,1.334-0.31,1.467-1.008h0.937v6.256H58.602z"/>
		<path fill="#010101" d="M67.322,79.25v1.042h-2.254v1.483h2.121v1.043h-2.121v1.695h2.343v1.043h-3.614V79.25H67.322z"/>
		<path fill="#010101" d="M69.215,85.559v-4.418h-1.246v-0.83h0.115c0.839,0,1.334-0.31,1.466-1.008h0.937v6.256H69.215z"/>
		<path fill="#010101" d="M74.411,79.25h3.524v1.042h-2.252v1.483h2.119v1.043h-2.119v2.738h-1.272V79.25z"/>
		<path fill="#010101" d="M79.67,85.559v-4.418h-1.246v-0.83h0.115c0.839,0,1.334-0.31,1.466-1.008h0.937v6.256H79.67z"/>
	</g>
	<path display="inline" fill="#010101" d="M48.009,54.15c0,0-7.502,0.158-7.981-6.386c-0.483-6.585-0.21-8.515-0.21-8.515
		s1.379,1.279,1.809,0.323c0,0,0.53-6.071,0.318-7.343c0,0,0.428-0.644,2.233,2.658c0,0,1.706-1.702,0.428-9.474
		c0,0,1.595-0.423,3.193,2.239c0,0,0.746,0.423,1.064-9.791c0,0,1.063,5.213,2.769,7.129c1.701,1.916,1.486,3.512,1.486,3.512
		s0.43,0,0.854-2.235c0,0,2.394,1.225,3.297,9.048c0,0,0.479-0.271,0.531-1.757c0.031-0.753,3.037,2.927,2.609,10.004
		c0,0,0.531,0.264,1.17-0.159c0,0,0,10.164-9.79,10.797c0,0,5.59-4.521,4.31-10.424c0,0-0.373,0.9-1.223,0.742
		c0,0,0.424-3.513-0.32-4.683c0,0-1.279,2.925-2.236,3.354c0,0,0.906-5.002-1.648-7.291c0,0-0.583,6.704-1.38,7.023
		c0,0-0.908-1.543-1.864-2.073c0,0-0.159,5.477,0.052,5.691c0,0-2.341-3.136-2.713-4.679c0,0-0.532,0.532-0.425,4.042
		c0,0-0.321,0-0.693-0.425c0,0-0.318,3.884,4.098,8.442L48.009,54.15z"/>
	<path display="inline" fill="none" stroke="#010101" stroke-width="0.361" stroke-miterlimit="3.864" d="M43.221,54.788h13.412
		 M50.346,63.646c0,0-17.033-5.323-19.415-28.244l-0.162-22.71h39.17l-0.166,22.71C67.396,58.323,50.346,63.646,50.346,63.646z"/>
</g>
<g id="Layer_13">
	<g>
		<g>
			<path fill="#010101" d="M79.796,92.176c0,1.523-1.237,2.76-2.763,2.76H21.495c-1.524,0-2.763-1.236-2.763-2.76V77.909
				c0-1.526,1.239-2.762,2.763-2.762h55.539c1.525,0,2.763,1.235,2.763,2.762V92.176z"/>
			<path fill="#010101" d="M79.655,55.715h0.639c0.273,0,0.46,0.021,0.561,0.06c0.102,0.041,0.182,0.102,0.236,0.182
				c0.06,0.079,0.086,0.175,0.086,0.276c0,0.158-0.059,0.282-0.178,0.384c-0.118,0.097-0.336,0.143-0.663,0.143h-0.681V55.715z
				 M79.655,58.714v-1.476h0.329c0.199,0,0.345,0.038,0.451,0.122c0.146,0.106,0.342,0.377,0.583,0.808l0.31,0.547h0.684
				l-0.425-0.679c-0.203-0.32-0.37-0.552-0.512-0.688c-0.073-0.071-0.172-0.132-0.296-0.186c0.301-0.02,0.541-0.127,0.72-0.317
				c0.183-0.186,0.271-0.406,0.271-0.66c0-0.18-0.053-0.348-0.161-0.509c-0.106-0.161-0.255-0.27-0.435-0.336
				c-0.184-0.065-0.479-0.097-0.887-0.097h-1.194v3.472L79.655,58.714L79.655,58.714z M81.832,54.588
				c0.432,0.233,0.765,0.567,1.008,0.997c0.24,0.432,0.36,0.879,0.36,1.349c0,0.465-0.118,0.908-0.355,1.333
				c-0.237,0.427-0.567,0.761-0.996,0.996c-0.426,0.238-0.871,0.357-1.335,0.357c-0.467,0-0.914-0.119-1.34-0.357
				c-0.427-0.235-0.761-0.566-0.998-0.996c-0.24-0.425-0.358-0.868-0.358-1.333c0-0.47,0.122-0.916,0.363-1.349
				c0.241-0.43,0.581-0.764,1.007-0.997c0.429-0.231,0.871-0.347,1.326-0.347C80.963,54.241,81.402,54.355,81.832,54.588
				 M78.926,54.123c-0.517,0.278-0.919,0.674-1.205,1.192c-0.293,0.516-0.438,1.056-0.438,1.617c0,0.555,0.144,1.09,0.43,1.601
				c0.285,0.518,0.683,0.913,1.194,1.195c0.511,0.285,1.045,0.428,1.603,0.428c0.56,0,1.094-0.143,1.605-0.428
				c0.512-0.281,0.91-0.678,1.191-1.195c0.282-0.511,0.425-1.046,0.425-1.601c0-0.564-0.143-1.102-0.434-1.617
				c-0.285-0.519-0.688-0.914-1.202-1.192c-0.516-0.278-1.046-0.417-1.586-0.417C79.971,53.709,79.442,53.845,78.926,54.123"/>
		</g>
		<g>
			<path fill="#010101" d="M22.993,57.333h4.501l4.163,7.643h0.04v-7.643h4.163v14.285h-4.282l-4.381-7.804h-0.04v7.804h-4.163
				L22.993,57.333L22.993,57.333z"/>
			<path fill="#010101" d="M38.164,57.333h11.044v3.662h-6.642v1.778h5.701v3.404h-5.701v5.44h-4.402L38.164,57.333L38.164,57.333z"
				/>
			<path fill="#010101" d="M50.772,57.333h7.361c3.901,0,5.243,2.862,5.243,4.882c0,3.44-2.32,5.081-5.602,5.081h-2.601v4.322
				h-4.399V57.333H50.772z M55.174,63.895h1.701c1.12,0,2.341-0.06,2.341-1.519c0-1.304-0.999-1.381-2.08-1.381h-1.961
				L55.174,63.895L55.174,63.895z"/>
			<path fill="#010101" d="M67.362,57.333h4.304l5.202,14.285h-4.563l-0.601-2.041h-4.541l-0.64,2.041h-4.421L67.362,57.333z
				 M70.826,66.517l-1.281-4.403h-0.04l-1.381,4.403H70.826z"/>
		</g>
		<g>
			<path fill="#010101" d="M28.873,5.184h40.781c2.428,0,4.628,0.989,6.226,2.585c1.594,1.594,2.588,3.797,2.588,6.221v30.637
				c0,2.42-0.994,4.617-2.588,6.213c-1.601,1.6-3.806,2.598-6.226,2.598h-7.36v-5.916h7.36c0.803,0,1.526-0.318,2.046-0.84
				c0.522-0.526,0.853-1.254,0.853-2.055V13.99c0-0.792-0.329-1.515-0.853-2.043c-0.528-0.525-1.254-0.852-2.046-0.852H28.873
				c-0.798,0-1.532,0.326-2.053,0.852c-0.521,0.52-0.846,1.243-0.846,2.043v30.637c0,0.793,0.327,1.518,0.857,2.046
				c0.522,0.521,1.247,0.849,2.042,0.849h9.81v5.916h-9.81c-2.427,0-4.632-0.989-6.224-2.588c-1.597-1.595-2.585-3.796-2.585-6.223
				V13.99c0-2.417,0.993-4.62,2.594-6.221C24.253,6.173,26.453,5.184,28.873,5.184"/>
			<path fill="#EC2427" d="M42.479,48.033c0,0-4.089-3.309-3.311-8.661c0.777-5.357,3.796-8.864,1.366-13.536
				c0,0,5.743,6.424,6.616,9.251c0,0,0.198-3.117-0.485-4.872c-0.679-1.751-1.46-5.938,0.197-8.667
				c-1.053,4.863,6.037,9.538,7.106,14.896c0,0,3.41-0.875,2.239-11.39c0,0,9.838,9.933,3.019,22.101c0,0,0.098-3.017-0.293-4.284
				c0,0-2.818,8.185-7.301,11.488c2.479-7.259,0.334-7.726-0.975-13.338c0,0-2.102,6.916-2.24,11.98c0,0-4.039-2.243-5.355-10.13
				C42.499,44.649,42.363,46.241,42.479,48.033 M54.006,31.714c-2.935-6.12-7.748-8.815-4.517-17.271
				C49.795,21.704,56.127,23.083,54.006,31.714"/>
		</g>
		<g>
			<path fill="#FFFFFF" d="M33.453,82.915c-2.042,1.885-2.559,4.443-2.522,6.412h-2.653c-0.036,0,0.084-2.679,1.705-5.007
				c0.805-1.176,1.021-1.298,1.021-1.307h-3.999V80.97h6.449V82.915z"/>
			<path fill="#FFFFFF" d="M38.256,80.876c1.526,0,3.566,1.055,3.566,4.272s-2.04,4.275-3.553,4.275
				c-1.513,0-3.554-1.058-3.554-4.275S36.755,80.876,38.256,80.876z M38.256,87.587c1.213,0,1.285-1.55,1.285-2.438
				c0-0.864-0.061-2.438-1.26-2.438c-1.25,0-1.285,1.525-1.285,2.438C36.996,86.025,37.043,87.587,38.256,87.587z"/>
			<path fill="#FFFFFF" d="M42.965,80.753h7.097v2.197h-4.456v1.068h4.048v2.043h-4.048v1.067h4.587v2.197h-7.229V80.753z"/>
		</g>
		<path fill="none" stroke="#010101" d="M68.783,79.847"/>
		<g>
			<path fill="#FFCB0B" d="M57.992,94.085V75.998h19.043c1.053,0,1.907,0.857,1.907,1.911v14.267c0,1.053-0.855,1.909-1.907,1.909
				H57.992L57.992,94.085z"/>
		</g>
		<g>
			<path fill="#010101" d="M62.054,87.491c-0.623,0-0.896,0.127-0.896,0.518c0,0.435,0.431,0.542,1.654,0.542
				c1.297,0,1.532-0.18,1.532-0.553c0-0.307-0.157-0.541-1.089-0.541V86.59c0.932,0,1.727,0.229,1.727,1.366
				c0,1.298-0.927,1.459-2.232,1.459s-2.232-0.161-2.232-1.459c0-1.239,0.91-1.329,1.536-1.329V87.491L62.054,87.491z"/>
			<path fill="#010101" d="M60.605,85.368v-1.071l4.293-1.136v0.902l-0.91,0.197v1.144l0.91,0.199v0.901L60.605,85.368z
				 M63.28,85.254v-0.843l-1.93,0.416v0.013L63.28,85.254z"/>
			<path fill="#010101" d="M60.605,80.684h0.709v0.938h3.584v0.864h-3.584v0.938h-0.709V80.684z"/>
		</g>
		<g>
			<path fill="#010101" d="M67.224,84.428c-0.175-3.075,1.713-4.821,4.725-4.821c2.707,0,4.551,1.138,4.551,3.509
				c0,2.85-2.771,3.729-4.886,5.028v0.017h5.044v2.723H67c-0.063-1.089,0.24-2,0.803-2.755c0.944-1.297,2.515-2.145,3.955-3.009
				c0.577-0.354,1.506-0.817,1.506-1.618c0-1.024-0.595-1.362-1.346-1.362c-1.281,0-1.73,0.93-1.682,2.292h-3.013V84.428z"/>
		</g>
	</g>
</g>
<g id="Layer_14" display="none">
	<g display="inline">
		<text transform="matrix(1 0 0 1 16.5522 75.5518)" fill="#010101" font-family="'HelveticaNeueLTPro-BdCn'" font-size="8.9265">EN ISO 11612:2015</text>
		<text transform="matrix(1 0 0 1 23.1313 86.2627)" fill="#010101" font-family="'HelveticaNeueLTPro-BdCn'" font-size="8.9265">A1 B1 C1 E2 F1</text>
		<g>
			<path fill="#010101" d="M47.335,54.54c0,0-7.577,0.163-8.063-6.449c-0.487-6.652-0.212-8.601-0.212-8.601
				s1.394,1.291,1.828,0.324c0,0,0.536-6.129,0.319-7.415c0,0,0.434-0.65,2.257,2.685c0,0,1.722-1.719,0.432-9.57
				c0,0,1.611-0.429,3.226,2.261c0,0,0.753,0.427,1.074-9.889c0,0,1.074,5.264,2.796,7.199c1.718,1.936,1.502,3.55,1.502,3.55
				s0.433,0,0.861-2.258c0,0,2.42,1.236,3.33,9.139c0,0,0.484-0.274,0.537-1.775c0.03-0.76,3.067,2.957,2.637,10.104
				c0,0,0.537,0.267,1.182-0.162c0,0,0,10.266-9.891,10.907c0,0,5.646-4.567,4.354-10.529c0,0-0.376,0.91-1.234,0.749
				c0,0,0.431-3.548-0.324-4.729c0,0-1.289,2.955-2.256,3.388c0,0,0.914-5.053-1.667-7.364c0,0-0.589,6.771-1.395,7.094
				c0,0-0.917-1.559-1.883-2.094c0,0-0.161,5.532,0.053,5.749c0,0-2.365-3.169-2.741-4.727c0,0-0.538,0.537-0.429,4.082
				c0,0-0.324,0-0.701-0.427c0,0-0.319,3.921,4.139,8.528L47.335,54.54z"/>
			<path fill="none" stroke="#010101" stroke-width="0.361" stroke-miterlimit="3.864" d="M42.5,55.186h13.545 M49.695,64.133
				c0,0-17.204-5.377-19.609-28.527l-0.165-22.938h39.565L69.32,35.606C66.917,58.756,49.695,64.133,49.695,64.133z"/>
		</g>
	</g>
</g>
<g id="Layer_15" display="none">
	
		<text transform="matrix(1 0 0 1 16.3159 75.5322)" display="inline" fill="#010101" font-family="'HelveticaNeueLTPro-BdCn'" font-size="8.941">EN ISO 11611:2015</text>
	
		<text transform="matrix(1 0 0 1 30.4253 86.2607)" display="inline" fill="#010101" font-family="'HelveticaNeueLTPro-BdCn'" font-size="8.941">Class 1-A1</text>
	<g display="inline">
		<rect x="36.082" y="43.868" fill="#010101" width="26.527" height="3.896"/>
		<g>
			<path fill="#010101" d="M38.676,41.42c0-0.714,0.58-1.3,1.3-1.3c0.715,0,1.295,0.585,1.295,1.3c0,0.716-0.58,1.297-1.295,1.297
				C39.256,42.717,38.676,42.136,38.676,41.42"/>
			<path fill="#010101" d="M53.67,41.42c0-0.714,0.583-1.3,1.301-1.3c0.715,0,1.295,0.585,1.295,1.3c0,0.716-0.58,1.297-1.295,1.297
				C54.253,42.717,53.67,42.136,53.67,41.42"/>
			<path fill="#010101" d="M40.555,37.969c0-0.714,0.583-1.295,1.301-1.295c0.715,0,1.293,0.582,1.293,1.295
				c0,0.716-0.579,1.301-1.293,1.301C41.138,39.27,40.555,38.685,40.555,37.969"/>
			<path fill="#010101" d="M44.159,36.097c0-0.718,0.583-1.3,1.3-1.3c0.715,0,1.295,0.582,1.295,1.3c0,0.716-0.58,1.297-1.295,1.297
				C44.743,37.395,44.159,36.813,44.159,36.097"/>
			<path fill="#010101" d="M51.801,37.826c0-0.714,0.583-1.3,1.303-1.3c0.713,0,1.293,0.585,1.293,1.3
				c0,0.716-0.58,1.297-1.293,1.297C52.384,39.124,51.801,38.542,51.801,37.826"/>
		</g>
		<path fill="none" stroke="#010101" stroke-width="0.645" stroke-miterlimit="3.864" d="M50.382,28.302l-0.511,9.516
			 M63.906,23.398H48.911v4.47h15.138h-9.513v-4.47"/>
		<g>
			<path fill="none" stroke="#010101" stroke-width="0.361" stroke-miterlimit="3.864" d="M49.521,64.094
				c0,0-17.24-5.382-19.648-28.573V12.545H69.18v22.976C66.771,58.708,49.521,64.094,49.521,64.094z"/>
		</g>
	</g>
</g>
<g id="Layer_16" display="none">
	<g display="inline">
		<text transform="matrix(1 0 0 1 18.4927 75.8564)" fill="#010101" font-family="'HelveticaNeueLTPro-BdCn'" font-size="8.9836">IEC 61482-2:2018</text>
		<text transform="matrix(1 0 0 1 37.5117 86.6348)" fill="#010101" font-family="'HelveticaNeueLTPro-BdCn'" font-size="8.9836">APC=1</text>
		<g>
			<path fill="none" stroke="#010101" stroke-width="0.361" stroke-miterlimit="3.864" d="M49.592,64.364
				c0,0-17.313-5.413-19.733-28.71l-0.165-23.085h39.818l-0.169,23.085C66.926,58.951,49.592,64.364,49.592,64.364z"/>
		</g>
		<polygon fill="#010101" points="38.499,33.592 44.152,17.898 39.306,17.898 34.971,37.263 43.886,31.942 41.942,46.778 
			40.343,45.767 41.818,51.84 45.139,46.548 43.323,46.994 47.294,28.286 		"/>
		<polygon fill="#010101" points="63.488,39.259 58.547,35.741 58.547,34.807 60.756,33.869 58.62,33.122 58.62,31.999 
			66.257,26.309 57.086,26.309 58.96,21.555 54.843,23.763 56.189,19.831 50.8,23.165 50.835,25.56 53.869,25.56 54.205,26.608 
			52.857,28.89 56.264,28.854 56.602,30.051 53.645,32.111 55.104,32.932 55.402,33.831 54.318,34.543 55.252,34.992 55.441,36.076 
			52.896,35.891 54.094,40.268 50.76,38.288 50.611,42.254 51.924,44.835 52.107,40.87 58.921,48.205 56.32,40.775 56.859,40.233 
			58.811,41.095 57.573,39.11 57.573,37.987 		"/>
	</g>
</g>
<g id="Layer_17" display="none">
	
		<text transform="matrix(1 0 0 1 20.6431 75.1865)" display="inline" fill="#010101" font-family="'HelveticaNeueLTPro-BdCn'" font-size="8.9287">EN 17353:2020</text>
	
		<text transform="matrix(1 0 0 1 72.9199 75.1865)" display="inline" fill="#010101" font-family="'HelveticaNeueLTPro-BdCn'" font-size="8.9287"> </text>
	
		<text transform="matrix(1 0 0 1 32.9028 85.9014)" display="inline" fill="#010101" font-family="'HelveticaNeueLTPro-BdCn'" font-size="8.9287">T</text>
	
		<text transform="matrix(1 0 0 1 36.707 85.9014)" display="inline" fill="#010101" font-family="'HelveticaNeueLTPro-BdCn'" font-size="8.9287">ype B2</text>
	<g display="inline">
		
			<line fill="none" stroke="#010101" stroke-width="1.701" stroke-miterlimit="3.864" x1="28.188" y1="46.738" x2="46.969" y2="46.738"/>
		
			<line fill="none" stroke="#010101" stroke-width="1.701" stroke-miterlimit="3.864" x1="65.377" y1="46.738" x2="46.595" y2="46.738"/>
		<g>
			<g>
				<path fill="none" stroke="#010101" stroke-width="0.361" stroke-miterlimit="3.864" d="M40.042,20.516l6.787,10.414
					 M46.787,19.211c0,0-8.095,0.19-13.672,5.117c0,0,3.812,10.322-4.744,15.342v17.295h18.412"/>
			</g>
			<g>
				<path fill="none" stroke="#010101" stroke-width="0.361" stroke-miterlimit="3.864" d="M53.523,20.516L46.735,30.93
					 M46.776,19.211c0,0,8.095,0.19,13.675,5.117c0,0-3.813,10.322,4.742,15.342v17.295H46.784"/>
			</g>
			
				<rect x="23.136" y="12.286" fill="none" stroke="#010101" stroke-width="0.361" stroke-miterlimit="3.864" width="47.291" height="51.6"/>
			
				<line fill="none" stroke="#010101" stroke-width="0.361" stroke-miterlimit="3.864" x1="46.776" y1="48.002" x2="46.776" y2="30.742"/>
		</g>
	</g>
	<path display="inline" fill="#010101" d="M87.971,42.973c-3.154-1.063-7.074-0.012-9.174,3.258
		c-2.057,3.208-1.597,7.608,1.512,10.337c2.803,2.462,6.537,2.424,8.918,1.111c-2.033,0.135-3.848-0.408-5.402-1.719
		c-1.559-1.313-2.455-2.994-2.633-5.025c-0.176-2.02,0.394-3.829,1.701-5.378C84.207,44.004,85.906,43.167,87.971,42.973
		 M79.605,56.514c-2.853-2.873-3.289-7.372-1.012-10.715c2.225-3.269,6.49-4.522,10.153-2.984c0.202,0.085,0.278,0.195,0.244,0.349
		c-0.035,0.146-0.146,0.212-0.359,0.209c-1.524-0.026-2.924,0.371-4.149,1.275c-2.148,1.583-3.137,3.735-2.867,6.388
		c0.408,4.04,4.182,6.849,8.185,6.153c0.04-0.006,0.078-0.014,0.117-0.021c0.149-0.021,0.259,0.038,0.312,0.179
		c0.045,0.141,0,0.262-0.133,0.33c-0.431,0.227-0.846,0.487-1.296,0.66c-2.835,1.105-5.524,0.787-8.046-0.904
		C80.348,57.162,79.988,56.822,79.605,56.514"/>
</g>
<g id="Layer_18" display="none">
	
		<text transform="matrix(1 0 0 1 16.5508 75.8838)" display="inline" fill="#010101" font-family="'HelveticaNeueLTPro-BdCn'" font-size="9.0593">EN ISO 11612:2015</text>
	
		<text transform="matrix(1 0 0 1 83.8438 75.8838)" display="inline" fill="#010101" font-family="'HelveticaNeueLTPro-BdCn'" font-size="9.0593"> </text>
	
		<text transform="matrix(1 0 0 1 11.5967 86.7549)" display="inline" fill="#010101" font-family="'HelveticaNeueLTPro-BdCn'" font-size="9.0593">A1 A2 B1 C1 D3 E3 F1</text>
	<g display="inline">
		<path fill="#010101" d="M47.789,54.564c0,0-7.69,0.164-8.183-6.545c-0.496-6.75-0.215-8.729-0.215-8.729s1.416,1.311,1.854,0.331
			c0,0,0.545-6.223,0.326-7.527c0,0,0.44-0.66,2.289,2.725c0,0,1.748-1.745,0.438-9.712c0,0,1.637-0.433,3.274,2.294
			c0,0,0.764,0.434,1.09-10.035c0,0,1.09,5.343,2.837,7.308c1.745,1.963,1.528,3.601,1.528,3.601s0.436,0,0.873-2.291
			c0,0,2.457,1.256,3.379,9.275c0,0,0.49-0.278,0.544-1.802c0.034-0.771,3.114,3.001,2.679,10.256c0,0,0.543,0.27,1.196-0.163
			c0,0,0,10.417-10.035,11.068c0,0,5.729-4.634,4.418-10.686c0,0-0.383,0.924-1.255,0.761c0,0,0.436-3.601-0.33-4.8
			c0,0-1.309,2.999-2.289,3.438c0,0,0.93-5.127-1.689-7.475c0,0-0.6,6.873-1.416,7.2c0,0-0.931-1.582-1.912-2.125
			c0,0-0.163,5.614,0.053,5.833c0,0-2.4-3.214-2.782-4.796c0,0-0.545,0.545-0.436,4.144c0,0-0.329,0-0.711-0.435
			c0,0-0.323,3.981,4.203,8.654L47.789,54.564z"/>
		<path fill="none" stroke="#010101" stroke-width="0.361" stroke-miterlimit="3.864" d="M42.88,55.219h13.748 M50.184,64.3
			c0,0-17.46-5.458-19.9-28.952l-0.167-23.28H70.27l-0.17,23.28C67.664,58.842,50.184,64.3,50.184,64.3z"/>
	</g>
</g>
<g id="Layer_19" display="none">
	<g display="inline">
		<text transform="matrix(1 0 0 1 16.8032 75.4932)" fill="#010101" font-family="'HelveticaNeueLTPro-BdCn'" font-size="8.8967">EN ISO 11611:2015</text>
		<text transform="matrix(1 0 0 1 24.5874 86.1699)" fill="#010101" font-family="'HelveticaNeueLTPro-BdCn'" font-size="8.8967">Class 2-A1-A2</text>
		<rect x="36.171" y="43.988" fill="#010101" width="26.396" height="3.875"/>
		<g>
			<path fill="#010101" d="M38.753,41.55c0-0.711,0.577-1.293,1.293-1.293c0.712,0,1.289,0.582,1.289,1.293
				c0,0.712-0.577,1.291-1.289,1.291C39.33,42.841,38.753,42.263,38.753,41.55"/>
			<path fill="#010101" d="M53.672,41.55c0-0.711,0.581-1.293,1.293-1.293c0.713,0,1.29,0.582,1.29,1.293
				c0,0.712-0.577,1.291-1.29,1.291C54.253,42.841,53.672,42.263,53.672,41.55"/>
			<path fill="#010101" d="M40.623,38.117c0-0.711,0.581-1.29,1.293-1.29s1.29,0.579,1.29,1.29c0,0.712-0.577,1.294-1.29,1.294
				S40.623,38.829,40.623,38.117"/>
			<path fill="#010101" d="M44.209,36.255c0-0.716,0.581-1.294,1.293-1.294s1.29,0.579,1.29,1.294c0,0.711-0.577,1.29-1.29,1.29
				S44.209,36.966,44.209,36.255"/>
			<path fill="#010101" d="M51.813,37.976c0-0.712,0.58-1.294,1.293-1.294s1.289,0.582,1.289,1.294c0,0.711-0.576,1.29-1.289,1.29
				C52.395,39.265,51.813,38.687,51.813,37.976"/>
		</g>
		<path fill="none" stroke="#010101" stroke-width="0.645" stroke-miterlimit="3.864" d="M50.398,28.497l-0.504,9.468
			 M63.857,23.618H48.939v4.448h15.062h-9.467v-4.448"/>
		<path fill="none" stroke="#010101" stroke-width="0.361" stroke-miterlimit="3.864" d="M49.544,64.111
			c0,0-17.154-5.355-19.552-28.431V12.818h39.115V35.68C66.712,58.753,49.544,64.111,49.544,64.111z"/>
	</g>
</g>
<g id="Layer_20" display="none">
	
		<text transform="matrix(1 0 0 1 14.6196 75.7236)" display="inline" fill="#010101" font-family="'HelveticaNeueLTPro-BdCn'" font-size="8.9262">ICE 61482-1-2:2018</text>
	
		<text transform="matrix(1 0 0 1 38.3359 86.4336)" display="inline" fill="#010101" font-family="'HelveticaNeueLTPro-BdCn'" font-size="8.9262">APC-1</text>
	<g display="inline">
		<path fill="none" stroke="#010101" stroke-width="0.361" stroke-miterlimit="3.864" d="M49.314,64.307
			c0,0-17.203-5.377-19.606-28.526l-0.167-22.938h39.566L68.939,35.78C66.536,58.93,49.314,64.307,49.314,64.307z"/>
	</g>
	<polygon display="inline" fill="#010101" points="38.292,33.731 43.909,18.138 39.094,18.138 34.787,37.379 43.645,32.092 
		41.712,46.833 40.125,45.828 41.59,51.864 44.889,46.604 43.086,47.047 47.032,28.459 	"/>
	<polygon display="inline" fill="#010101" points="63.121,39.362 58.212,35.867 58.212,34.938 60.406,34.007 58.285,33.264 
		58.285,32.148 65.872,26.495 56.762,26.495 58.621,21.771 54.531,23.965 55.871,20.058 50.516,23.37 50.55,25.75 53.563,25.75 
		53.896,26.792 52.559,29.059 55.943,29.024 56.277,30.213 53.341,32.26 54.79,33.075 55.087,33.968 54.01,34.676 54.938,35.123 
		55.126,36.2 52.598,36.016 53.787,40.365 50.476,38.396 50.326,42.338 51.631,44.903 51.813,40.963 58.584,48.25 56.002,40.869 
		56.538,40.33 58.475,41.186 57.244,39.214 57.244,38.098 	"/>
</g>
</svg>
