<?xml version="1.0" encoding="utf-8"?>
<!-- Generator: Adobe Illustrator 16.0.0, SVG Export Plug-In . SVG Version: 6.00 Build 0)  -->
<!DOCTYPE svg PUBLIC "-//W3C//DTD SVG 1.1//EN" "http://www.w3.org/Graphics/SVG/1.1/DTD/svg11.dtd">
<svg version="1.1" xmlns="http://www.w3.org/2000/svg" xmlns:xlink="http://www.w3.org/1999/xlink" x="0px" y="0px" width="100px"
	 height="100px" viewBox="0 0 100 100" enable-background="new 0 0 100 100" xml:space="preserve">
<g id="Layer_1" display="none">
	<path display="inline" fill="#010101" d="M32.395,16.295c0,0-22.219,0-22.544,23.668c0,0,0,19.191,22.544,20.63v-7.995
		c0,0-15.825-0.156-15.023-15.99c0,0,0.631-11.191,15.023-12.151V16.295z"/>
	<path display="inline" fill="#010101" d="M61.66,16.295c0,0-22.228,0-22.544,23.668c0,0,0,19.191,22.544,20.63v-7.995
		c0,0-15.831-0.156-15.032-15.99c0,0,0.643-11.191,15.032-12.151V16.295z"/>
	<rect x="45.189" y="34.367" display="inline" fill="#010101" width="14.716" height="7.512"/>
	<text transform="matrix(1 0 0 1 21.5488 79.5547)" display="inline"><tspan x="0" y="0" fill="#010101" font-family="'HelveticaNeueLTPro-BdCn'" font-size="11.3019">C</tspan><tspan x="5.877" y="0" fill="#010101" font-family="'HelveticaNeueLTPro-BdCn'" font-size="11.3019">A</tspan><tspan x="11.55" y="0" fill="#010101" font-family="'HelveticaNeueLTPro-BdCn'" font-size="11.3019">T III</tspan></text>
	
		<text transform="matrix(1 0 0 1 67.0625 42.4746)" display="inline" fill="#010101" font-family="'HelveticaNeueLTPro-BdCn'" font-size="11.3019">2895</text>
</g>
<g id="Layer_2" display="none">
	
		<text transform="matrix(1 0 0 1 17.4526 74.8262)" display="inline" fill="#010101" font-family="'HelveticaNeueLTPro-BdCn'" font-size="8.8376">EN ISO 11612:2015</text>
	
		<text transform="matrix(1 0 0 1 23.6392 85.4316)" display="inline" fill="#010101" font-family="'HelveticaNeueLTPro-BdCn'" font-size="8.8376">A1 A2 B1 C1 F1</text>
	<g display="inline">
		<path fill="#010101" d="M47.929,54.025c0,0-7.501,0.159-7.981-6.386c-0.483-6.585-0.21-8.515-0.21-8.515s1.381,1.279,1.811,0.323
			c0,0,0.53-6.071,0.316-7.343c0,0,0.43-0.644,2.233,2.658c0,0,1.706-1.702,0.428-9.475c0,0,1.597-0.423,3.193,2.239
			c0,0,0.746,0.423,1.063-9.791c0,0,1.063,5.213,2.769,7.129c1.702,1.916,1.489,3.513,1.489,3.513s0.427,0,0.852-2.235
			c0,0,2.396,1.226,3.297,9.048c0,0,0.479-0.271,0.531-1.757c0.033-0.753,3.038,2.927,2.611,10.004c0,0,0.53,0.264,1.169-0.159
			c0,0,0,10.163-9.789,10.797c0,0,5.588-4.521,4.307-10.424c0,0-0.373,0.901-1.222,0.742c0,0,0.425-3.512-0.321-4.683
			c0,0-1.277,2.926-2.233,3.354c0,0,0.904-5.002-1.65-7.291c0,0-0.583,6.704-1.379,7.023c0,0-0.91-1.543-1.866-2.073
			c0,0-0.159,5.477,0.052,5.691c0,0-2.34-3.136-2.713-4.68c0,0-0.532,0.532-0.424,4.042c0,0-0.321,0-0.694-0.424
			c0,0-0.315,3.884,4.1,8.442L47.929,54.025z"/>
		<path fill="none" stroke="#010101" stroke-width="0.361" stroke-miterlimit="3.864" d="M43.141,54.663h13.414 M50.267,63.521
			c0,0-17.033-5.323-19.414-28.243l-0.164-22.71h39.172l-0.166,22.71C67.318,58.198,50.267,63.521,50.267,63.521z"/>
	</g>
</g>
<g id="Layer_3" display="none">
	
		<text transform="matrix(1 0 0 1 17.6611 75.0742)" display="inline" fill="#010101" font-family="'HelveticaNeueLTPro-BdCn'" font-size="8.9264">EN ISO 11611:2015</text>
	
		<text transform="matrix(1 0 0 1 25.4717 85.7871)" display="inline" fill="#010101" font-family="'HelveticaNeueLTPro-BdCn'" font-size="8.9264">Class 1-A1-A2</text>
	<rect x="37.095" y="43.466" display="inline" fill="#010101" width="26.483" height="3.888"/>
	<g display="inline">
		<path fill="#010101" d="M39.686,41.021c0-0.713,0.577-1.297,1.297-1.297c0.715,0,1.292,0.584,1.292,1.297
			c0,0.714-0.577,1.295-1.292,1.295C40.263,42.315,39.686,41.735,39.686,41.021"/>
		<path fill="#010101" d="M54.655,41.021c0-0.713,0.58-1.297,1.297-1.297c0.715,0,1.292,0.584,1.292,1.297
			c0,0.714-0.577,1.295-1.292,1.295C55.235,42.315,54.655,41.735,54.655,41.021"/>
		<path fill="#010101" d="M41.562,37.575c0-0.713,0.581-1.293,1.297-1.293c0.715,0,1.292,0.581,1.292,1.293
			c0,0.715-0.577,1.299-1.292,1.299C42.142,38.874,41.562,38.29,41.562,37.575"/>
		<path fill="#010101" d="M45.16,35.708c0-0.718,0.581-1.299,1.297-1.299c0.715,0,1.292,0.581,1.292,1.299
			c0,0.713-0.577,1.293-1.292,1.293C45.741,37.001,45.16,36.421,45.16,35.708"/>
		<path fill="#010101" d="M52.789,37.434c0-0.715,0.581-1.299,1.298-1.299c0.715,0,1.291,0.584,1.291,1.299
			c0,0.713-0.576,1.293-1.291,1.293C53.37,38.728,52.789,38.147,52.789,37.434"/>
	</g>
	<path display="inline" fill="none" stroke="#010101" stroke-width="0.645" stroke-miterlimit="3.864" d="M51.37,27.923l-0.507,9.5
		 M64.875,23.028H49.904v4.463h15.114H55.52v-4.463"/>
	<path display="inline" fill="none" stroke="#010101" stroke-width="0.361" stroke-miterlimit="3.864" d="M50.513,63.657
		c0,0-17.213-5.373-19.617-28.526V12.192h39.243v22.938C67.736,58.28,50.513,63.657,50.513,63.657z"/>
</g>
<g id="Layer_4" display="none">
	<polyline display="inline" fill="none" stroke="#010101" stroke-width="0.73" stroke-miterlimit="3.864" points="50.156,19.947 
		43.09,38.172 57.594,29.989 50.528,48.955 38.998,48.955 62.428,48.955 	"/>
	<g display="inline">
		<path fill="#010101" d="M48.445,20.135c0-1.542,1.247-2.789,2.79-2.789c1.541,0,2.788,1.247,2.788,2.789
			c0,1.54-1.247,2.79-2.788,2.79C49.691,22.925,48.445,21.675,48.445,20.135"/>
		<circle fill="none" stroke="#010101" stroke-width="0.216" stroke-miterlimit="3.864" cx="51.234" cy="20.135" r="2.789"/>
		<path fill="none" stroke="#010101" stroke-width="0.361" stroke-miterlimit="3.864" d="M50.706,63.998
			c0,0-17.192-5.374-19.59-28.503L30.95,12.578h39.528l-0.167,22.917C67.911,58.624,50.706,63.998,50.706,63.998z"/>
	</g>
	
		<text transform="matrix(1 0 0 1 22.957 75.4004)" display="inline" fill="#010101" font-family="'HelveticaNeueLTPro-BdCn'" font-size="8.918">EN 1149-5:2018</text>
</g>
<g id="Layer_5" display="none">
	<g display="inline">
		<text transform="matrix(1 0 0 1 19.7471 74.9258)" fill="#010101" font-family="'HelveticaNeueLTPro-BdCn'" font-size="8.873">IEC 61482-2:2018</text>
		<text transform="matrix(1 0 0 1 38.5313 85.5732)" fill="#010101" font-family="'HelveticaNeueLTPro-BdCn'" font-size="8.873">APC=1</text>
		<g>
			<path fill="none" stroke="#010101" stroke-width="0.361" stroke-miterlimit="3.864" d="M50.462,63.576
				c0,0-17.1-5.347-19.49-28.357L30.81,12.417h39.327l-0.166,22.801C67.581,58.229,50.462,63.576,50.462,63.576z"/>
		</g>
		<polygon fill="#010101" points="39.506,33.182 45.089,17.682 40.303,17.682 36.021,36.808 44.826,31.554 42.905,46.206 
			41.327,45.208 42.785,51.207 46.063,45.979 44.271,46.419 48.193,27.942 		"/>
		<polygon fill="#010101" points="64.187,38.78 59.308,35.305 59.308,34.382 61.489,33.456 59.38,32.718 59.38,31.609 
			66.922,25.989 57.864,25.989 59.714,21.294 55.648,23.474 56.979,19.591 51.656,22.883 51.69,25.249 54.687,25.249 55.018,26.285 
			53.687,28.538 57.052,28.503 57.385,29.685 54.465,31.72 55.905,32.531 56.201,33.418 55.131,34.122 56.053,34.565 56.239,35.637 
			53.725,35.453 54.908,39.777 51.616,37.82 51.469,41.738 52.765,44.288 52.947,40.371 59.676,47.615 57.109,40.278 57.643,39.742 
			59.566,40.592 58.345,38.633 58.345,37.524 		"/>
	</g>
</g>
<g id="Layer_6">
	<path fill="#010101" d="M76.478,70.09c0-0.263,0.002-0.459,0-0.657c-0.012-1.881,0.07-3.771-0.063-5.644
		c-0.138-1.89-1.742-3.274-3.674-3.297c-3.042-0.036-6.091-0.041-9.135,0.005c-2.102,0.029-3.678,1.708-3.685,3.813
		c-0.005,1.744-0.002,3.486,0,5.23c0,0.173,0.021,0.347,0.037,0.55H76.478z M53.051,83.928c0-6.797-0.063-13.595,0.016-20.39
		c0.055-4.815,4.087-9.161,8.914-9.807c0.832-0.109,1.68-0.125,2.517-0.132c2.748-0.014,5.495-0.014,8.241-0.003
		c5.183,0.021,9.46,3.548,10.45,8.636c0.13,0.661,0.173,1.352,0.173,2.029c0.016,6.555,0.014,13.108,0.014,19.666h-6.858V77.09
		H59.909v6.838H53.051z"/>
	<path fill="#010101" d="M47.515,17.741c0,6.679,0.021,13.353-0.004,20.031c-0.016,5-3.911,9.438-8.884,10.165
		c-0.591,0.086-1.195,0.132-1.797,0.135c-3.005,0.011-6.013,0.011-9.021,0.004c-5.967-0.014-10.623-4.69-10.623-10.667
		c0-6.555,0.002-13.113,0.004-19.668h6.859c0.007,0.219,0.018,0.438,0.018,0.661c0.002,6.275,0,12.552,0.005,18.828
		c0,2.351,1.612,3.956,3.977,3.96c2.85,0.007,5.696,0.004,8.543,0c2.445-0.004,4.032-1.587,4.032-4.02
		c0.002-6.216,0.002-12.434,0.007-18.649c0-0.26,0.016-0.52,0.025-0.78H47.515z"/>
	<path fill="#010101" d="M26.576,83.928c-0.347-0.08-0.695-0.159-1.044-0.234c-4.793-1.056-8.32-5.399-8.343-10.312
		c-0.016-3.085-0.018-6.175,0-9.265c0.034-5.787,4.784-10.516,10.562-10.521c6.359-0.007,12.717-0.002,19.074-0.002h0.645v6.886
		h-0.69H28.126c-2.439,0-4.045,1.58-4.054,4.011c-0.012,2.846-0.012,5.694,0,8.542c0.009,2.405,1.609,3.999,4.008,3.999
		c6.236,0.005,12.475,0.003,18.711,0.003h0.723v6.893H26.576z"/>
	<path fill="#010101" d="M83.375,17.741c-1.389,1.113-2.769,2.239-4.168,3.34c-4.912,3.872-9.83,7.734-14.744,11.597
		c-0.063,0.05-0.116,0.109-0.237,0.221c6.339,5.021,12.662,10.03,19.1,15.126c-0.285,0.023-0.445,0.05-0.604,0.05
		c-2.588,0.002-5.174,0.011-7.76-0.014c-0.287-0.002-0.629-0.13-0.857-0.31c-4.535-3.571-9.057-7.158-13.583-10.74
		c-0.152-0.123-0.316-0.237-0.565-0.426v11.444h-6.872c-0.014-0.152-0.046-0.308-0.046-0.458c-0.002-9.846-0.002-19.689,0-29.531
		c0-0.1,0.007-0.201,0.014-0.301h6.858v11.467c0.235-0.171,0.336-0.235,0.427-0.308c2.992-2.351,5.983-4.697,8.971-7.053
		c1.726-1.361,3.442-2.736,5.164-4.106H83.375z"/>
</g>
</svg>
